<svg xmlns="http://www.w3.org/2000/svg" viewBox="0 0 190.27 53.33"><defs><style>.cls-1{fill:#d6b896;}.cls-2{fill:#1d1d1b;}</style></defs><g id="Capa_2" data-name="Capa 2"><g id="Capa_1-2" data-name="Capa 1"><path class="cls-1" d="M15.12,38.12a14.33,14.33,0,0,0-11-12.75,3.9,3.9,0,0,0-3.1.33c-1.31,1-1.18,2.94-.81,4.52A39.46,39.46,0,0,0,15.92,53.33"/><path class="cls-1" d="M15.08,39.13a13.46,13.46,0,0,1,2-8.87c1.54-2.36,5-4.23,7-2.31,1.25,1.17,1.26,3.13,1.09,4.84-.75,7.54-2.18,13.51-9.33,20.54"/><path class="cls-2" d="M69.65,52.88a25.35,25.35,0,0,0-4.24-.39A21.11,21.11,0,0,1,60.86,52a6.9,6.9,0,0,1-3.47-1.84q-1.37-1.35-.94-4.34c-.05-.14-.15-.48-.31-1s-.35-1.09-.56-1.67S55.18,42,55,41.48a3.88,3.88,0,0,1-.28-1,1.48,1.48,0,0,1,.18-.94,3,3,0,0,1,.66-.83,2.92,2.92,0,0,1,.9-.59,4,4,0,0,1,.9-.28c0,.14.13.45.25.94a10.55,10.55,0,0,0,.48,1.52,8.66,8.66,0,0,0,.7,1.43c.25.42.52.62.8.62a.8.8,0,0,0,.55-.27,6.26,6.26,0,0,0,.8-1.22c.35-.62.81-1.53,1.39-2.71s1.37-2.75,2.36-4.72,2.25-4.39,3.75-7.26S71.8,19.87,74,15.84a12,12,0,0,1,2.15-2.6q1.6-1.58,3.75-3.34t4.66-3.54q2.5-1.77,4.9-3.2A36,36,0,0,1,94,.87,9.45,9.45,0,0,1,97.44,0c.37,0,.79,0,1.25,0s.77.31.91.86c0,.24,0,.74,0,1.53s0,1.3,0,1.53a11.93,11.93,0,0,1-.8,4.48,14.4,14.4,0,0,1-2.16,3.68,23.72,23.72,0,0,1-3.12,3.24q-1.77,1.53-3.72,3.12a1,1,0,0,1,0,.21.9.9,0,0,0,0,.28,8.4,8.4,0,0,0,.83,1,25.9,25.9,0,0,1,1.85,2.5A22.65,22.65,0,0,1,94.32,26a10,10,0,0,1,.83,4,16,16,0,0,1-2.47,8.4,29.37,29.37,0,0,1-6.25,7.33,33.35,33.35,0,0,1-8.27,5.22A21,21,0,0,1,69.65,52.88ZM63.4,46.62A1.47,1.47,0,0,0,64.13,48a4.24,4.24,0,0,0,1.7.52,10.5,10.5,0,0,0,1.94,0c.65,0,1.12-.07,1.39-.07a22.36,22.36,0,0,0,7.72-1.25A19.56,19.56,0,0,0,83,43.67a22.25,22.25,0,0,0,4.58-5.59,37.89,37.89,0,0,0,3.23-7.23c0-.09,0-.31,0-.66s0-.57,0-.66a9,9,0,0,0-.76-4.1,5.11,5.11,0,0,0-2.15-2.19,9.1,9.1,0,0,0-3.38-.9c-1.32-.12-2.76-.22-4.34-.31a2.57,2.57,0,0,1-1-.73,2.57,2.57,0,0,1-.73-1,1.85,1.85,0,0,1,.25-1,1.73,1.73,0,0,1,.59-.8A16.54,16.54,0,0,0,84.9,17.3a18.89,18.89,0,0,0,5.21-3A16.2,16.2,0,0,0,93.93,9.8a10.87,10.87,0,0,0,1.5-5.56,10.41,10.41,0,0,0-5.32,1.7,32,32,0,0,0-5.42,4.2,49.33,49.33,0,0,0-4.76,5.29,35.75,35.75,0,0,0-3.26,4.86c-.33.65-.83,1.63-1.53,2.95s-1.48,2.82-2.36,4.48S71,31.15,70,33l-2.71,5.29C66.47,40,65.7,41.46,65,42.8l-1.49,3a1.38,1.38,0,0,0-.11.42A4.1,4.1,0,0,0,63.4,46.62Z"/><path class="cls-2" d="M103,48.43a23.43,23.43,0,0,1,2.3-7.12,25.8,25.8,0,0,1,3.89-5.67,22,22,0,0,1,4.79-4,15.16,15.16,0,0,1,5-2,9,9,0,0,1,4.52.25,6.08,6.08,0,0,1,3.33,2.71,6.85,6.85,0,0,1-.69,3,31.11,31.11,0,0,1-1.56,2.81A26,26,0,0,0,123,41.31a7.58,7.58,0,0,0-.69,3.23,4.75,4.75,0,0,0,.76,2.85,3.26,3.26,0,0,0,2.78,1,10.09,10.09,0,0,0,3.13-.49,10.38,10.38,0,0,1,3.13-.48l.86,0,.87,0a8.23,8.23,0,0,1-2.08,1.94,13.58,13.58,0,0,1-2.71,1.39,17.43,17.43,0,0,1-3,.84,15.76,15.76,0,0,1-2.81.27,4.4,4.4,0,0,1-2.22-.55A5.38,5.38,0,0,1,119.43,50a7.17,7.17,0,0,1-1-2,6.91,6.91,0,0,1-.38-2.22q-1,1.18-2.19,2.43a19.41,19.41,0,0,1-2.5,2.29,13.47,13.47,0,0,1-2.85,1.71,7.75,7.75,0,0,1-3.16.66,4.06,4.06,0,0,1-3.06-1.32A4.42,4.42,0,0,1,103,48.43Zm4.45-2.15c0,.37,0,.78,0,1.25s.32.76.87.9a12.89,12.89,0,0,0,3.89-1.81,23.88,23.88,0,0,0,4-3.26,20.73,20.73,0,0,0,3.16-4,7.93,7.93,0,0,0,1.29-4.13,3.26,3.26,0,0,0,0-.45c0-.21,0-.36,0-.46a12.1,12.1,0,0,0-4.65,1,15.4,15.4,0,0,0-4.24,2.6,14.3,14.3,0,0,0-3.1,3.82A9.27,9.27,0,0,0,107.45,46.28Z"/><path class="cls-2" d="M131.42,48.43a6.12,6.12,0,0,1,.21-1.7,11.14,11.14,0,0,1,.76-1.84c.33-.47.89-1.32,1.7-2.57s1.7-2.59,2.65-4,1.84-2.74,2.67-4l1.74-2.64q.56-.83.9-.9a8.85,8.85,0,0,1,1.32-.07c.37,0,.8,0,1.29.07a1,1,0,0,1,.93.9,17.84,17.84,0,0,1-2.5,4.38c-1.06,1.39-2.12,2.76-3.16,4.1a29.4,29.4,0,0,0-2.71,4.17,9.66,9.66,0,0,0-1.14,4.59,7.31,7.31,0,0,1,.86.07l1.25.13,1.26.14a2.4,2.4,0,0,0,.86,0c.28,0,.74-.14,1.39-.27s1.36-.31,2.12-.49,1.47-.37,2.12-.56,1.11-.32,1.39-.41a3.39,3.39,0,0,0,0,.45q0,.32,0,.45a2.55,2.55,0,0,1-1.25,2.22A11.25,11.25,0,0,1,143.23,52a16.55,16.55,0,0,1-3.4.69q-1.74.18-2.64.18a8.78,8.78,0,0,1-2.09-.25,5.62,5.62,0,0,1-1.84-.76,4.29,4.29,0,0,1-1.32-1.39A3.88,3.88,0,0,1,131.42,48.43ZM151.15,8.62c.56,0,1.09,0,1.6.07a4.6,4.6,0,0,1,1.36.31,1.8,1.8,0,0,1,.9.8,3.12,3.12,0,0,1,.31,1.53v.9a3.71,3.71,0,0,1-.1.9,1.76,1.76,0,0,1-.38.73,1.17,1.17,0,0,1-.91.31,1.86,1.86,0,0,1-1.53-.69,4.69,4.69,0,0,1-.83-1.6,8.2,8.2,0,0,1-.35-1.84C151.18,9.42,151.15,8.94,151.15,8.62Z"/><path class="cls-2" d="M147.54,46.62a13.51,13.51,0,0,1,.1-1.42c.07-.63.15-1.28.25-2s.18-1.26.27-1.77a3.41,3.41,0,0,1,.28-1l12.3-24.67a9.62,9.62,0,0,1,1-1.53c.51-.64,1.08-1.32,1.7-2s1.24-1.36,1.85-2,1.11-1.12,1.52-1.5a1.16,1.16,0,0,1,.7.49,2.22,2.22,0,0,1,.28.77,3.82,3.82,0,0,1,0,.83q0,.42,0,.69v1c0,.41,0,.62-.07.62a33.5,33.5,0,0,1-2.12,4.31q-1.42,2.5-3.2,5.35t-3.61,5.94c-1.23,2.06-2.36,4.1-3.41,6.12a45.47,45.47,0,0,0-2.53,5.8,15.41,15.41,0,0,0-1,5.07,2.63,2.63,0,0,0,.69,1.94A7.79,7.79,0,0,0,154.17,49a12.82,12.82,0,0,1,1.57,1.11,1.91,1.91,0,0,1,.69,1.5,1,1,0,0,1-.55.93,2.66,2.66,0,0,1-1.32.32,7.87,7.87,0,0,1-4.94-1.6A5.43,5.43,0,0,1,147.54,46.62Z"/><path class="cls-2" d="M165.53,49.26a10.66,10.66,0,0,1-.86-6.63,14.86,14.86,0,0,1,2.53-5.84,18,18,0,0,1,4.45-4.38,15.75,15.75,0,0,1,4.83-2.36,4.85,4.85,0,0,1,3.75.28c1,.58,1.38,1.75,1.15,3.51a6.81,6.81,0,0,1-1.67,4.58,25.73,25.73,0,0,1-3.65,3.51c-1.32,1-2.54,2-3.65,2.82s-1.66,1.62-1.66,2.36q0,.55.72.9a6.29,6.29,0,0,0,1.67.52,17.29,17.29,0,0,0,1.88.25,13.18,13.18,0,0,1,1.35.14q6.39-1.32,9.56-1.64a10.77,10.77,0,0,1,4,0c.56.23.45.62-.31,1.18a14.88,14.88,0,0,1-3.44,1.67,42.22,42.22,0,0,1-5.35,1.49,33.38,33.38,0,0,1-6,.76,17.78,17.78,0,0,1-5.48-.59A6.37,6.37,0,0,1,165.53,49.26Zm11.89-15.42a5,5,0,0,0-2.61.73,9.09,9.09,0,0,0-2.19,1.84A12.77,12.77,0,0,0,171,38.84a14,14,0,0,0-1,2.5.46.46,0,0,0,.21.07h.21a4,4,0,0,0,2.19-.8,12.79,12.79,0,0,0,2.32-2,12.06,12.06,0,0,0,1.85-2.5A5,5,0,0,0,177.42,33.84Z"/></g></g></svg>