<svg xmlns="http://www.w3.org/2000/svg" viewBox="0 0 165.07 55.87"><defs><style>.cls-1{fill:#c8b193;}.cls-2{fill:#1d1d1b;}</style></defs><g id="Capa_2" data-name="Capa 2"><g id="Capa_1-2" data-name="Capa 1"><path class="cls-1" d="M15.12,40.65a14.33,14.33,0,0,0-11-12.74,3.86,3.86,0,0,0-3.1.33c-1.31,1-1.18,2.93-.81,4.51A39.45,39.45,0,0,0,15.92,55.87"/><path class="cls-1" d="M15.08,41.66a13.44,13.44,0,0,1,2-8.86c1.54-2.37,5-4.23,7-2.31,1.25,1.17,1.26,3.13,1.09,4.84-.75,7.53-2.18,13.51-9.33,20.54"/><path class="cls-2" d="M50.36,38.35A34.63,34.63,0,0,1,52,30.82a48.35,48.35,0,0,1,3-6.95,67.78,67.78,0,0,1,4-6.6Q61.13,14,63.56,10.7,65,8.9,66.65,7a30.75,30.75,0,0,1,3.69-3.44A19.55,19.55,0,0,1,74.61,1,11.83,11.83,0,0,1,79.4,0a10.35,10.35,0,0,1,2.09.17,1.73,1.73,0,0,1,1.11.7A3.08,3.08,0,0,1,83,2.33a23.53,23.53,0,0,1,0,2.39,10.91,10.91,0,0,1-.59,3.44,13.22,13.22,0,0,1-1.67,3.34,13.55,13.55,0,0,1-2.57,2.78A8.91,8.91,0,0,1,75,16v-.9a6,6,0,0,1,.66-2.75c.44-.85.92-1.73,1.46-2.64s1-1.81,1.46-2.74a7.06,7.06,0,0,0,.66-3.06,6.75,6.75,0,0,1-1.29-.1,7.55,7.55,0,0,0-1-.14,1.93,1.93,0,0,0-.91.14A3.62,3.62,0,0,0,75,4.52a71.11,71.11,0,0,0-6.81,6.35,61.58,61.58,0,0,0-6.32,7.82,43.42,43.42,0,0,0-4.66,8.76,24.87,24.87,0,0,0-1.81,9.24c0,.14,0,.37,0,.69s0,.64.07.94a8,8,0,0,0,.1.87,4.53,4.53,0,0,1,.07.48,3.06,3.06,0,0,0,1.81.91,13.44,13.44,0,0,0,1.6.14,14.67,14.67,0,0,0,5.45-1q2.53-1,5-2.22c1.65-.81,3.29-1.56,4.94-2.23a13.74,13.74,0,0,1,5.24-1,3.58,3.58,0,0,1-1.28,2.4,21.46,21.46,0,0,1-3.27,2.61,37.87,37.87,0,0,1-4.41,2.5c-1.62.79-3.21,1.49-4.76,2.12a43,43,0,0,1-4.31,1.49,12.23,12.23,0,0,1-2.95.56,8,8,0,0,1-3-.59A10.09,10.09,0,0,1,53,43.74a7.67,7.67,0,0,1-1.95-2.4A6.27,6.27,0,0,1,50.36,38.35Z"/><path class="cls-2" d="M80.58,42.32a10.69,10.69,0,0,1-.86-6.64,15.07,15.07,0,0,1,2.53-5.84,18.1,18.1,0,0,1,4.45-4.37,15.57,15.57,0,0,1,4.83-2.37,4.85,4.85,0,0,1,3.75.28c1,.58,1.38,1.75,1.15,3.51a6.85,6.85,0,0,1-1.67,4.59A26.23,26.23,0,0,1,91.11,35c-1.32,1.05-2.53,2-3.65,2.82s-1.66,1.62-1.66,2.36c0,.37.24.67.73.9a6.47,6.47,0,0,0,1.66.53c.63.11,1.25.19,1.88.24s1.08.09,1.35.14q6.39-1.32,9.56-1.64a11,11,0,0,1,4,0c.56.23.45.63-.31,1.18a14.29,14.29,0,0,1-3.44,1.67,42.22,42.22,0,0,1-5.35,1.49,34.32,34.32,0,0,1-6,.77,18.12,18.12,0,0,1-5.49-.59A6.42,6.42,0,0,1,80.58,42.32ZM92.47,26.89a5,5,0,0,0-2.61.73,9.32,9.32,0,0,0-2.19,1.84A12.77,12.77,0,0,0,86,31.89a14,14,0,0,0-1,2.5.46.46,0,0,0,.21.07h.21a4,4,0,0,0,2.19-.8,13.18,13.18,0,0,0,2.33-2,12.37,12.37,0,0,0,1.84-2.5A5,5,0,0,0,92.47,26.89Z"/><path class="cls-2" d="M104.42,42.8v-.9a2.07,2.07,0,0,1,.1-.66,3.23,3.23,0,0,1,.31-.66l.56-.91c.23-.41.62-1.06,1.18-1.94l1.88-2.95,2.19-3.44c.76-1.21,1.49-2.35,2.18-3.44s1.32-2.07,1.88-3,1-1.52,1.25-1.94c0-.05.17-.07.38-.07h.94c.23,0,.37,0,.42.07l.31.35.52.59.52.55c.16.17.29.25.38.25a2.4,2.4,0,0,0,1.29-.42l1.39-.9c.49-.33,1-.63,1.49-.91a3.14,3.14,0,0,1,1.53-.41,3.66,3.66,0,0,1,3,1.39,4.51,4.51,0,0,1,1.14,2.91,9.79,9.79,0,0,1-.45,3c-.3.95-.63,1.88-1,2.81s-.67,1.85-1,2.78a9.44,9.44,0,0,0-.45,2.92,4.83,4.83,0,0,0,.35,2.12c.23.44.86.66,1.88.66a10.92,10.92,0,0,0,3.47-.56,10.91,10.91,0,0,1,3.47-.55,3.92,3.92,0,0,1-1,2.74,6.78,6.78,0,0,1-2.43,1.7,12.15,12.15,0,0,1-3.13.87,21.55,21.55,0,0,1-3,.24,4.51,4.51,0,0,1-3.79-1.46A6.13,6.13,0,0,1,121,39.74a7.89,7.89,0,0,1,.59-3c.4-.95.83-1.87,1.29-2.78s.89-1.82,1.28-2.74a6.73,6.73,0,0,0,.49-4,.76.76,0,0,0-.87-.66A6.46,6.46,0,0,0,119.7,28a15.31,15.31,0,0,0-3.23,3.57,38.87,38.87,0,0,0-2.64,4.7q-1.22,2.53-2.22,4.69a25.68,25.68,0,0,1-2,3.57c-.65,1-1.32,1.43-2,1.43a3.08,3.08,0,0,1-2.29-.91A3,3,0,0,1,104.42,42.8Z"/><path class="cls-2" d="M134.22,41.48a23.71,23.71,0,0,1,2.3-7.12,25.73,25.73,0,0,1,3.89-5.66,22,22,0,0,1,4.79-4,15,15,0,0,1,5-2,9,9,0,0,1,4.51.24,6.18,6.18,0,0,1,3.34,2.71,6.83,6.83,0,0,1-.7,3,30.21,30.21,0,0,1-1.56,2.82,24.93,24.93,0,0,0-1.56,2.88,7.47,7.47,0,0,0-.7,3.23,4.75,4.75,0,0,0,.76,2.85,3.26,3.26,0,0,0,2.78,1,10.38,10.38,0,0,0,3.13-.48,10.09,10.09,0,0,1,3.13-.49l.87,0,.86,0A8.23,8.23,0,0,1,163,42.52a13.32,13.32,0,0,1-2.71,1.39,17.59,17.59,0,0,1-2.95.84,16,16,0,0,1-2.82.27,4.4,4.4,0,0,1-2.22-.55A5.34,5.34,0,0,1,150.66,43a7.09,7.09,0,0,1-1.43-4.2q-1,1.19-2.19,2.43a18.84,18.84,0,0,1-2.5,2.3,13.85,13.85,0,0,1-2.85,1.7,7.72,7.72,0,0,1-3.16.66,4.07,4.07,0,0,1-3.06-1.32A4.41,4.41,0,0,1,134.22,41.48Zm4.45-2.15c0,.37,0,.79,0,1.25s.31.76.86.9a13,13,0,0,0,3.9-1.81,24.29,24.29,0,0,0,4-3.26,21.13,21.13,0,0,0,3.16-4,8,8,0,0,0,1.28-4.13q0-.13,0-.45a3.39,3.39,0,0,1,0-.45,12.08,12.08,0,0,0-4.65,1A15.19,15.19,0,0,0,143,31a14,14,0,0,0-3.09,3.82A9.24,9.24,0,0,0,138.67,39.33Z"/></g></g></svg>