<svg xmlns="http://www.w3.org/2000/svg" viewBox="0 0 74.29 127.22"><defs><style>.cls-1{isolation:isolate;}.cls-2{mix-blend-mode:multiply;}.cls-3{fill:#eeebe1;}.cls-4{fill:#f5efe0;}.cls-5{fill:#f4e7d5;}.cls-6{fill:#edd8bf;}.cls-7{fill:#e8ddcf;}.cls-8{fill:#c5bcab;}.cls-9{fill:#f9f7ee;}.cls-10{fill:#e0e0d5;}.cls-11{fill:#e0cbb3;}.cls-12{fill:#dbd3c4;}.cls-13{fill:#d1cabb;}.cls-14{fill:#ad9371;}.cls-15{fill:#a69677;}.cls-16{fill:#c09b74;}.cls-17{fill:#d4c8b5;}.cls-18{fill:#e0bf99;}.cls-19{fill:#6e5f46;}.cls-20{fill:#836032;}.cls-21{fill:#8d8775;}.cls-22{fill:#f7efe0;}.cls-23{fill:#ead6b9;}.cls-24{fill:#fcfcfb;}.cls-25{fill:#796448;}.cls-26{fill:#645341;}.cls-27{fill:#785d34;}.cls-28{fill:#faf6ec;}.cls-29{fill:#f5efe1;}.cls-30{fill:#f2e2cc;}.cls-31{fill:#e8d4b9;}.cls-32{fill:#e7e0d0;}.cls-33{fill:#efeade;}.cls-34{fill:#e6e3d9;}.cls-35{fill:#ab9374;}.cls-36{fill:#c7b8a2;}.cls-37{fill:#d8cfbd;}.cls-38{fill:#a98f6d;}.cls-39{fill:#e7e4d9;}.cls-40{fill:#e1c6a7;}.cls-41{fill:#d3cdb9;}.cls-42{fill:#e9dac4;}.cls-43{fill:#d5cdc1;}.cls-44{fill:#af926a;}.cls-45{fill:#d6bfa4;}.cls-46{fill:#9f917c;}.cls-47{fill:#c2ac8f;}.cls-48{fill:#725940;}.cls-49{fill:#8a7256;}.cls-50{fill:#91754b;}.cls-51{fill:#614834;}.cls-52{fill:#786047;}.cls-53{fill:#543c2b;}.cls-54{fill:#d6c3a6;}.cls-55{fill:#cdaf8f;}.cls-56{fill:#d8c0a4;}.cls-57{fill:#fbfbf9;}.cls-58{fill:#f6ede6;}.cls-59{fill:#a58055;}.cls-60{fill:#b9a17b;}</style></defs><g class="cls-1"><g id="Capa_2" data-name="Capa 2"><g id="Capa_1-2" data-name="Capa 1"><g class="cls-2"><path class="cls-3" d="M.24,30.17A18.82,18.82,0,0,1,.3,25.92c.45-1.87,0-3.8.69-5.63a5.82,5.82,0,0,0,.07-1.92,2.94,2.94,0,0,0,.13-1.76,5.93,5.93,0,0,1,.07-2.1,1.25,1.25,0,0,1,0-1.24.64.64,0,0,1,.67-.14,29.19,29.19,0,0,0,3.35.81c.83.19.89.47.26,1a.57.57,0,0,0-.2.62.5.5,0,0,1-.33.65A.64.64,0,0,1,4.18,16c-.54-.8-.75-.49-1,.23a3.22,3.22,0,0,1-.67,1.25,1,1,0,0,0,0,1.5,10.22,10.22,0,0,1,.9,1.35c.34.53.68,1,1.41,1,.47,0,1.07.11,1,.72s-.18,1.33-1.07,1.34a.56.56,0,0,0-.5.26c.32.32.8.52,1,1a.61.61,0,0,0,.57.37c1.12-.11,2.18.65,3.32.13.46-.2.94.05,1.51.11a1.24,1.24,0,0,1,.43-1.19,1.9,1.9,0,0,0,.6-1.25,1.9,1.9,0,0,1,1.35-1.63c.33-.11.66-.2.65-.64s-.25-.58-.59-.75A1.81,1.81,0,0,1,12,17.63a1.11,1.11,0,0,0-.51-1,4.25,4.25,0,0,0-2.81-1,3,3,0,0,1-1.73-.48c-.2-.13-.43-.27-.33-.56s.3-.25.5-.27c1.08-.12,2.16-.21,3.22-.41.26,0,.6,0,.72-.3s-.26-.42-.39-.64a3.13,3.13,0,0,0-3-1.47c-.5,0-1.21,0-1.27-.82,3-.16,5.94-.8,9-.6a59.16,59.16,0,0,1,10.11,1c.47.11,1,.17,1.14.83.06.28.32.6.67.47.77-.27.81.23,1,.76a20.16,20.16,0,0,1,.33,3.38,31.49,31.49,0,0,1,.21,5.14c-.23.29-.09.7-.32,1a2.16,2.16,0,0,1-1.09,1.43c-2.15,1.46-4.64,1.55-7,2l-1.19.25a1,1,0,0,0-.86.75c-.06.48.42.66.76.84a1.71,1.71,0,0,0,2.1-.47,1.89,1.89,0,0,1,1.39-.77c.8,0,1.13.35.84,1.15,0,.1-.11.2-.09.28.2,1.12-.21,1.44-1.26,1-.39-.14-.61.17-.82.45-1,1.3-1,1.29-2.22.11a1.83,1.83,0,0,0-1.3-.69,1.46,1.46,0,0,1-1.16-.54c-.85-1-2-1-3.16-1a2.34,2.34,0,0,1-1.18-.15,6.26,6.26,0,0,0-3.44-.53,9,9,0,0,1-1.8-.06c-1.35-.26-2.73-.29-4.09-.44A1.67,1.67,0,0,0,1,28.18a6.33,6.33,0,0,1-.07,1.51C.81,30,.76,30.42.24,30.17Z"/><path class="cls-4" d="M2.68,62.32a18.73,18.73,0,0,1-1-4.3C1.22,55.69,1,53.32.61,51a32.51,32.51,0,0,1-.37-5.74.93.93,0,0,1,.48-.32,1.39,1.39,0,0,1,.68,1.67c-.31,1.29,0,1.69,1.18,2.11a7.79,7.79,0,0,0,4,.45,2,2,0,0,0,.86-.26,12.41,12.41,0,0,0,3.11-3,2,2,0,0,0,.06-2.21A2.19,2.19,0,0,1,10.33,42c.1-.45.27-.93-.1-1.36-.61-.71-.3-1.22.39-1.64A6.08,6.08,0,0,0,12,38.62c.31-.17.66-.42,1-.14s-.28.59-.1.93a1.46,1.46,0,0,0-.11,1.31,27,27,0,0,1,.71,2.82A1.73,1.73,0,0,0,15.11,45a2.44,2.44,0,0,1,1.86.63A1.63,1.63,0,0,0,18.1,46a2.17,2.17,0,0,1,1.95,1.56A18.58,18.58,0,0,1,19,51.12c-.78.43-1.2,1-.74,1.9a.46.46,0,0,1-.23.61c-1.1.34-1.29,1.33-1.55,2.2S15.86,57,15,56.54a.24.24,0,0,0-.28.06c-.1.27.13.43.21.64s.13.58-.12.62c-.84.14-1.24.91-1.93,1.26-1,.48-1.53.45-2.07-.48-.36-.63-.68-.44-1.08-.23a3.75,3.75,0,0,0-1,1c.34.29.69,0,1,.12s.79.32.77.8-.4.64-.79.61c-.79,0-1.49.46-2.29.38-.22,0-.63.1-.6.28.15,1-1,1.24-1.09,2-.08.47-.45.54-.87.44A2.55,2.55,0,0,1,2.68,62.32Z"/><path class="cls-5" d="M2.68,62.32c.62.62,1.15,1.36,2.12,1.46.17,0,.32.08.48.11.11-.81,1.21-1.37,1.12-1.84C6.13,60.74,7.18,61,7.59,61c.79,0,1.46-.57,2.27-.32a.38.38,0,0,0,.47-.41c0-.26-.23-.41-.44-.51a.8.8,0,0,0-.69,0c-.37.14-.77.2-.95-.24s.39-.38.5-.59c.43-.88,1.48-.8,2.28-1.62a1.17,1.17,0,0,0,.65,1.8c.79.34,1.38-.37,1.92-.84.31-.26.38-.74,1-.54.32.1.32-.3.1-.46-.38-.28-.61-.63-.29-1s.7,0,1,.2.39.27.6-.23c.42-1,.18-2.42,1.73-2.7a.36.36,0,0,0,.18-.64c-.85-.94,0-1.45.61-1.81s.75-.63.55-1.1a1.2,1.2,0,0,1,.31-1.29,1.13,1.13,0,0,0,.18-1.57c-.43-.67-1.18-.65-1.74-1-1.47-.88-3.5-.45-4.6-2.06-.06-.08-.16-.2-.14-.26.36-1-.6-1.75-.46-2.7a.62.62,0,0,0-.11-.48c-.8-.66-.21-1,.29-1.31.35-.21.74-.25,1-.74.33-.68,1.19-.72,1.84-.77s.37.52.24,1a4.86,4.86,0,0,1,2.6-.84c.85-.11,1-.6,1-1.31,0-1.36.13-2.68,1.3-3.64a1,1,0,0,0,.34-.82c-.05-.8.47-1.16,1.07-1.43s1.1-.5,1.65-.75a1.33,1.33,0,0,1,1.8.58c-.68.7-1.52,1.23-2.16,2a1.92,1.92,0,0,0-.49,2,9.89,9.89,0,0,0,1.42,3.26,1.9,1.9,0,0,1,0,2.18c-.23.28,0,.49.13.73.24.61,0,.88-.62.85-.41,0-.77-.3-1.18-.29s-.81,0-.46.53c.24.37.08.6-.11.91a2.86,2.86,0,0,0,.43,3.34c.47.48,1,.9.35,1.61-.18.2,0,.46.06.68a1.62,1.62,0,0,1-.42,1.86c-.77.55-.88,1.52-1.65,2a4.45,4.45,0,0,0-1.19,1.6,2.76,2.76,0,0,1-.66.24c-.76.32-.86.77-.33,1.41.8,1,.8,1,0,2.07-.12.18-.28.37-.15.55.68.9.07,1.49-.52,2.07.4.37.62.15.84-.16a.57.57,0,0,1,.88-.15.61.61,0,0,1,.21.88c-.27.44-.28,1.15-1.17.9-.42-.11-.78.53-1.3.4-.09.16,0,.28,0,.41.14.43.3.9-.23,1.15s-.74-.14-.94-.52c-.1-.19-.22-.38-.46-.28a1.13,1.13,0,0,0-.76.89,1.19,1.19,0,0,1-1.1,1.18c.24.56.71.69,1.12.89s.67.42.5.87-.56.25-.88.19a6.16,6.16,0,0,1-3-1.68,18.69,18.69,0,0,0-1.6-1.08,1.79,1.79,0,0,1-.59-2.37c-.77.84-.77.84-1.63.6.17.39.57.32.86.46a.61.61,0,0,1,.38.74c-.05.29-.28.59-.53.48-1.32-.58-1.81.54-2.47,1.2a5,5,0,0,1-1.76,1.11c-.33-.07-.73.06-1-.31a.94.94,0,0,1-.15-.65.32.32,0,0,0,0-.09c0-.27.61-.3.31-.69s-.39.42-.71.21A13.52,13.52,0,0,1,2.68,62.32Z"/><path class="cls-6" d="M19.77,53.77a3.54,3.54,0,0,1,1.65-2.27l.09,0C21.32,50.23,23,50.12,23,49a1.21,1.21,0,0,0-.27-.73c-.18-.27-.32-.57,0-.79.74-.44.23-.74-.1-1.05a3,3,0,0,1-.46-4c.1-.17.15-.26,0-.41s-.73-.18-.41-.62a1,1,0,0,1,1-.38c.4.08.76.27,1.15.36a.69.69,0,0,0,.57-.08c.19-.18,0-.37-.16-.5-.42-.41-.77-.79.11-1.07.06,0,.15-.19.12-.23-.42-.81.07-2-1-2.53-.8-.38-.74-1-.52-1.67.09-.25.13-.55-.06-.65-1.26-.65-.28-1.46.05-1.83a6.56,6.56,0,0,1,2.64-2.19,8.41,8.41,0,0,0,.57,4A10,10,0,0,1,26.7,37a1.72,1.72,0,0,0,.4,1,.54.54,0,0,1,.09.25c0,.42-.53.84,0,1.26.42-.17.74-.39.45-.9s-.22-.93.21-1.14.93-.66,1.43,0c.17.22.13-.2.28-.18a12,12,0,0,1,.15,4.31c-.09,1-.09,2.09-.15,3.13-.2,3.1-.41,6.19-.74,9.28-.16,1.47-.19,3-.48,4.41a2,2,0,0,1-.2.45c-.49.43-.94.77-.56,1.63.25.58-.36,1.16-.88,1.54-.15.12-.47.09-.54-.09-.45-1.05-1.35-.73-2.14-.77a1.17,1.17,0,0,1-.81-1.52c.1-.45-.08-.63-.47-.84a16.45,16.45,0,0,0-2-.69c-1.14-.45-1.28-.71-.86-1.89.11-.33.14-.55-.18-.78C18.58,54.68,18.59,54.56,19.77,53.77Z"/><path class="cls-7" d="M19.77,53.77c-.05.12-.07.3-.16.36-.77.52-.8.87.2,1.08.84.17.59.71.28,1.13-.6.82-.27,1.25.55,1.48a15.83,15.83,0,0,0,2.73.79c.33,0,.18.35.12.58a1.55,1.55,0,0,0,.56,1.91A11.41,11.41,0,0,1,23,65c-.09.22-.36.37-.36.61,0,1.69-1,2.93-1.87,4.22A1.92,1.92,0,0,0,20.57,71a2.2,2.2,0,0,1-1.7,2.32c-.16,0-.34.13-.49,0-1.54-.86-3.25-.34-4.87-.53a1.89,1.89,0,0,0-2.12.82.46.46,0,0,1-.51.19c0-.07-.17-.15-.22-.11-.42.34-.9-.23-1.33.08s-.75,0-1-.4c-.09-.15-.27-.19-.4-.3a2.87,2.87,0,0,1-.32-.63c-.17-.65.14-1,.8-.84s1.25,0,1.22.69c.06.33.18.12.07.2s-.05,0-.06-.08a2.48,2.48,0,0,1,0-.9c0-.43.08-.85-.58-.74a.33.33,0,0,1-.38-.27,9.23,9.23,0,0,0-1.62-2.93c.18.54.56.9.65,1.38s.12.91-.56.71c-.34-.11-.58-.13-.77.19a.68.68,0,0,0,.12.85A11.57,11.57,0,0,1,8,73.09c.28.31.59.61,0,.92-.13.06-.11.1,0,.47s.29.77-.4.66a29.54,29.54,0,0,1-2.62-4.67c-.61-1.74-1.58-3.39-1.65-5.3.17,0,.27,0,.21.2s.13.41.2.61.4.68.81.21a7.53,7.53,0,0,0,2.6-2.39c.26-.5.9-.29,1.39-.09.26.11.53.23.65-.16s0-.6-.43-.62a1.08,1.08,0,0,1-1-.55.39.39,0,0,1,.09-.54c.14-.11.37-.18.45,0,.53,1,.88.18,1.27-.12.2-.16.34-.44.8-.32a1.09,1.09,0,0,0-.55,1.32A1.83,1.83,0,0,0,10.61,64c.52.32,1.17.45,1.52,1.1s.45-.3.85-.19c-.13.53-.51,1.22.67,1.1.28,0,.9.51,1.44.63.2,0,.47.31.57-.1s-.15-.42-.39-.51a4.39,4.39,0,0,1-.67-.23c-.38-.22-.83-.51-.85-.91s.53-.23.82-.32.47-.32.38-.61c-.15-.51.2-.74.48-1,.79-.8.86-.79,1.32.21.12.28.3.5.61.35a.41.41,0,0,0,.14-.67,1.45,1.45,0,0,1-.11-1.17c.41.46.71.22,1-.07a.63.63,0,0,1,.85-.15c.51.24.27-.65.69-.87s0-.42-.23-.53c-.39-.23-.54,0-.59.36s-.31.45-.66.34-.69-.18-.78-.56.27-.19.4-.3c.45-.39,1.12-.74.36-1.47-.46-.45-.13-.77.27-1,.64-.46.84-.91.07-1.5-.38-.29-.94-.67-.58-1.34A1.37,1.37,0,0,1,19.77,53.77Z"/><path class="cls-8" d="M2.48,122.54a2.28,2.28,0,0,1,1.88-1.17c1.58-.27,3.17-.44,4.76-.66.5-.06,1-.14,1.49-.21.44.21.39.54.15.82-.52.6-.28,1.29-.3,1.94,0,.31.17.38.39.5A1.87,1.87,0,0,1,11.93,125c-.06-.74.29-1.13.89-.94.92.3,1.5-.5,2.29-.56.14,0,.21-.13.22-.29a2.25,2.25,0,0,0-1.92-2,2.32,2.32,0,0,1-.91,0c-.43-.18-.83-.34-.22-.88.41-.37-.07-.73-.36-.74-.67,0-.68-.31-.47-.77a.71.71,0,0,0-.2-1,40.21,40.21,0,0,0,1-6.37,1.93,1.93,0,0,1,.21-.56.32.32,0,0,1,.38.06,5.58,5.58,0,0,0,2,1.61c.94.59,1.07.69,1.56-.29a.23.23,0,0,1,.32-.15,66,66,0,0,0,1.1,7,2.23,2.23,0,0,0,1.37,1.73,25.74,25.74,0,0,0,3.4.08.49.49,0,0,1,.46.14A21,21,0,0,1,26,122.34c.75.42,1.06.91.71,1.73,0,.51-.46.64-.8.81a17.1,17.1,0,0,1-6.35,1.76c-1.63.13-3.26.35-4.88.55a2.37,2.37,0,0,1-2.28-.87c-.24.29,0,.47.06.69-.27.22-.46,0-.59-.16a2.67,2.67,0,0,0-1.21-.87,3,3,0,0,1-1.33-1.2,2.65,2.65,0,0,0-2.16-1.47c-.58,0-.61-.34-.19-1.13a6.54,6.54,0,0,0-2.16.21c-.57.1-1.23.19-1.2,1.07,0,.41-.31.41-.54.14A4.2,4.2,0,0,1,2.48,122.54Z"/><path class="cls-9" d="M6.35,10.64a1.86,1.86,0,0,0,1.73.61c1,0,1.88.05,2.36,1.12.1.23.37.39.57.57s.71.29.55.73-.55.36-.86.41c-1.32.19-2.65.35-4.08.54a3.26,3.26,0,0,0,2.07.72,3.74,3.74,0,0,1,2.89,1c.38.38,1.41.79.46,1.66-.19.18.75,1.53,1.12,1.54.73,0,.87.45.93,1.06s-.38.73-.92.85a1.36,1.36,0,0,0-1.12,1.37,1.87,1.87,0,0,1-.51,1.3c-.38.4-1.09.67-.22,1.27a.35.35,0,0,1,0,.27c-.1.15-.22.07-.36,0-.74-.28-1.47-.62-2.24.05-.09.07-.75.36-1-.27-.14-.35-.53-.09-.82-.07-.83.06-1.7.11-2-1-.06-.24-.2-.35-.44-.29s-.61.2-.51-.28.13-.95.72-.75c1.1.4,1-.67,1-1s-.49-.55-1-.47c-1.12.2-1.24-.89-1.72-1.45A10.85,10.85,0,0,1,2.24,19c-.32-.48-.87-.94,0-1.57a2.33,2.33,0,0,0,.81-1.64c0-.26-.07-.65.24-.7a.92.92,0,0,1,.91.47c.17.41.31.74.76.49s0-.48-.13-.7,0-.35.16-.49.61,0,.87-.45L1.25,13.27c.62-1.77,2.25-2,3.73-2.4C5.41,10.76,5.89,10.74,6.35,10.64Z"/><path class="cls-10" d="M12.87,102c0-1.35,0-2.7,0-4.05A95.67,95.67,0,0,0,11.69,84a39.64,39.64,0,0,0-1.47-5.23c.57-1,1.27-.33,1.93-.15a3.89,3.89,0,0,0,3.54.85,10.82,10.82,0,0,1,2.39-1c.54-.09.94-.06,1.08.55A31.9,31.9,0,0,0,17,85.6a44.1,44.1,0,0,0-.86,6.67c-.12,1.75,0,3.5-.18,5.25s.31,3.74.46,5.62c.06.64.1,1.27.1,1.91-.19.44-.58.16-.87.25a3.24,3.24,0,0,0-1.26.59c-.25.21-.46.57-.85.32a1.13,1.13,0,0,1-.53-1.12A15.11,15.11,0,0,0,12.87,102Z"/><path class="cls-11" d="M11.23,73.54c.16-1.26,1.42-1.06,2-1,1.48,0,3,0,4.46.16.4,0,.52.54,1.09.32a2.2,2.2,0,0,0,1.55-2.18c0-.23-.24-.51-.05-.67.86-.77.93-2,1.77-2.81a.92.92,0,0,0,.2-.55c.22-1.8,1.18-3.36,1.59-5.1a3,3,0,0,1,.22-.57c.55-.13,1.1-.69,1.64.12.1.15,1.06-.48.53.52,0,.1.18.17.31.15.5-.06,1.1-1.32.72-1.58-.73-.53-.32-.74.14-1.06.22-.14.33-.43.55-.58s.14.11.18.2a28.59,28.59,0,0,1-2,8.09c-.59,1.72-1.31,3.38-1.89,5.11A12.6,12.6,0,0,1,22.43,75c-.63.91-1.32,1.77-2,2.66a2.14,2.14,0,0,1-1.56-1.75c0-.13-.21-.25-.28-.41-.36-1.75-.49-1.86-2.33-1.89a4.68,4.68,0,0,1-1.19-.16A8.93,8.93,0,0,0,11.23,73.54Z"/><path class="cls-12" d="M2.48,122.54c.67,0,.42.85,1,1.13-.16-.82-.05-1.25.91-1.46.56-.12,1.3.18,1.75-.41,0,.56,1.69-.57.81.85-.18.29,0,.65.44.46a.73.73,0,0,1,1.07.38c0,.05.08.15.12.15,1.06,0,.81,1.19,1.4,1.62a.92.92,0,0,0,.22.18A6.93,6.93,0,0,1,12.44,127a32.67,32.67,0,0,1-4,0,16.74,16.74,0,0,1-5.94-1.35C1.82,125.26,1.07,125,1,124S1.92,122.94,2.48,122.54Z"/><path class="cls-13" d="M12.87,102a8.46,8.46,0,0,1,.32,3.08,1,1,0,0,0,.49,1c.33.24.29-.32.47-.44a3.93,3.93,0,0,1,2.36-.58c.07,2.37.13,4.75.2,7.13a1,1,0,0,0-.17.24c-.12.35.15,1.07-.35,1s-1.39.32-1.51-.69c0-.09,0-.2-.17-.19-.83,0-1.49-.12-1.51-1.18,0-.13-.35-.26-.54-.39C12.63,108,12.92,105,12.87,102Z"/><path class="cls-4" d="M.24,30.17c.79-.33.44-1.08.45-1.58.06-2,.7-2.8,2.69-2.5,1.12.17,2.29-.05,3.37.42C6.31,27.18,5.62,27,5,27a1.83,1.83,0,0,0-2,1.72.82.82,0,0,1-.41.74.9.9,0,0,0-.24,1.47c.21.29.43.61.21.92-.42.61-.14,1.21,0,1.77s.55,1.11-.07,1.71c-.24.23.17.43.35.62.53.52.52.88-.19,1.09a1.09,1.09,0,0,0-.77,1.65c.47,1.1,0,2.13-.12,3.16A12.38,12.38,0,0,0,1.44,44c0,.57-.12,1.08-.9.68-.46-.44-.33-1-.3-1.54a44.89,44.89,0,0,0,0-4.64C.23,36.77.49,35,.44,33.26a7.18,7.18,0,0,0-.2-2.88Z"/><path class="cls-14" d="M18.73,75.49c.72.3.89.82.47,1.73.8-.54,1.29-.56,1.24.39A4.72,4.72,0,0,0,19.16,79c-.87-.81-1.66-.12-2.36.25-.35.19-.72.39-1.09.57-.17-.16-.29-.41-.57-.37A6.18,6.18,0,0,1,12,78.81c-.6-.18-1.2-.46-1.81,0a2.16,2.16,0,0,1-.64-.8c.39-.53.87-.27,1.26-.08.72.36.81-.32,1.06-.61s-.1-.56-.36-.77c-.53-.42-1.3-.72-.87-1.65a9.84,9.84,0,0,0,3,1.33c.39,1,1,.4,1.62.26C16.77,77.26,17.69,76.18,18.73,75.49Z"/><path class="cls-15" d="M11.25,117.88c.93-.09.63.49.51,1,0,.18-.34.3-.21.52s.44,0,.48,0c.34.23.82.48.9.81s-.35.59-.84.48c.3.58.73.45,1.16.4a1.76,1.76,0,0,1,2,1.44,1.08,1.08,0,0,0,.27.53c.42.45.24.74-.32.79a2.73,2.73,0,0,0-1.34.57c-.1.07-.27.22-.32.19-1.07-.65-1.53,0-1.86,1,0-1-.39-1.48-1.33-1.48-.2,0-.2-.2-.18-.28.21-.86-.6-1.88.45-2.6.26-.18,0-.43-.05-.64A8.12,8.12,0,0,0,11.25,117.88Z"/><path class="cls-16" d="M28.3,22.44c.24-.21-.15-.74.41-.78-.11.69.34,1.32.2,2a11.61,11.61,0,0,0,.23,4.07,17,17,0,0,1,.22,3.84c-.36.32-.36.32-1.16.15-.26,1.15,0,2.33-.23,3.48,0,.31,0,.8-.38.81s-.34-.5-.46-.8a.65.65,0,0,1,0-.2c.19-1.93,0-3.88.18-5.81a2,2,0,0,1,.58-1.12,2.5,2.5,0,0,1-.81-.47c-.5-.51-.64-1.35-1.44-1.58-.29-.21-.26-.42,0-.67a2.28,2.28,0,0,1,1.1-.85A1.92,1.92,0,0,0,28.3,22.44Z"/><path class="cls-17" d="M10.62,74.87a1.65,1.65,0,0,0,1.17,1.49c.49.15.52.51.55.93s-.26.31-.31.4c-.71,1.19-1.67,0-2.45.3a17.28,17.28,0,0,0-2-2.85c0-.19.62,0,.27-.43s-.26-.75-.66-1.06c.43,0,1.27.53.8-.54v0c1.11-.93.29.8.89.59.42-.14.79-.62,1.38-.16.43.33.38-.41.7-.44.17.25-.08.44-.08.67A1.2,1.2,0,0,1,10.62,74.87Z"/><path class="cls-18" d="M27.33,35.25l.34.75a28.41,28.41,0,0,0,.08-4.1c-.05-.55.28-.75.76-.49.28.14.49.47.85.17.39.55.15,1.18.17,1.77,0,1.31,0,2.62,0,3.94,0,.29,0,.58-.06,1-.19-.17-.3-.24-.38-.33s.16-.66-.3-.61a2.09,2.09,0,0,0-1,.47.65.65,0,0,0,.13.84c.43.36,0,1-.85,1.08a3.83,3.83,0,0,1,0-1.43c0-.06,0-.13,0-.19A4.07,4.07,0,0,1,27.33,35.25Z"/><path class="cls-3" d="M.24,30.38a.86.86,0,0,1,.48.92,40.45,40.45,0,0,1-.1,4.27,22.61,22.61,0,0,0,0,4.65c.15,1.48-.59,3,.07,4.4,0,.13.13.27,0,.4a.43.43,0,0,1-.41.21,50.49,50.49,0,0,1-.19-7.58A53.5,53.5,0,0,1,.24,30.38Z"/><path class="cls-19" d="M26.69,124.07a1.36,1.36,0,0,0-1.07-1.64A28,28,0,0,0,23,121.27s0-.07,0-.09,0-.05.07-.08a6.21,6.21,0,0,1,3.32,1.2A1.08,1.08,0,0,1,26.69,124.07Z"/><path class="cls-20" d="M29.14,27.74a5.85,5.85,0,0,1-.5-2.85c0-.37-.11-.88.27-1.22C28.93,25,29.23,26.37,29.14,27.74Z"/><path class="cls-9" d="M1.26,14.51a7.73,7.73,0,0,0,.24,2.56,1,1,0,0,1-.44,1.3C1.17,17.09.82,15.78,1.26,14.51Z"/><path class="cls-21" d="M22.58,121c-.07.15-.16.36-.34.32a16.89,16.89,0,0,0-3-.17s-.07,0-.07,0a1.1,1.1,0,0,1,0-.18C20.32,121,21.46,120.52,22.58,121Z"/><path class="cls-4" d="M3.5,65.37l-.21-.2a.4.4,0,0,1-.2-.41c.41.07-.12-.74.51-.53.32.11.71.14.79.48s-.41.23-.57.43A1.09,1.09,0,0,1,3.5,65.37Z"/><path class="cls-9" d="M.65,45c0-.13-.22-.27,0-.4.49.22.66-.08.58-.47a8,8,0,0,1,.29-2.51,6.1,6.1,0,0,0,.15-2.7c-.49-1.45-.39-1.52,1-2.14.14-.07.33-.18.36-.31s-.15-.34-.35-.4c-.87-.3-.9-.74-.2-1.27.3-.23.23-.28,0-.63-.34-.66-.82-1.46-.24-2.24.31-.42.15-.59-.15-.91a1.11,1.11,0,0,1,.32-1.83c.15-.1.51-.1.37-.35-.48-.87.24-1.11.66-1.6a1.49,1.49,0,0,1,1.75-.51,2.1,2.1,0,0,0,1.56-.24h2a7.89,7.89,0,0,0,2.75.95,2.19,2.19,0,0,1,1.45,1,1.92,1.92,0,0,0,1.19.89c.42.15.65.51.26.84s-.26.62,0,.94c.34.49.49.93-.15,1.36s-.21.76.13,1.08a1.55,1.55,0,0,0,.76.24c.31.08.59.21.64.57a.76.76,0,0,1-.41.75,3.58,3.58,0,0,1-1.45.71c-1.45.29-2.05,1.49-2.83,2.51a4.82,4.82,0,0,1-.47.77c-.44.46-.87.87,0,1.43.61.42.06,1,0,1.49a2.09,2.09,0,0,0,.3,1.57A2.21,2.21,0,0,1,10.79,46,11.37,11.37,0,0,1,7.7,49a4.38,4.38,0,0,1-3.39.44c-.66-.1-1.27-.37-1.91-.51-1.06-.24-1.81-1.18-1.35-2.12S.89,45.58.65,45Z"/><path class="cls-22" d="M10.62,39.13A6.17,6.17,0,0,1,11.74,37c.79-1.27,2.08-1.23,3.09-1.84.34-.21.87-.32.77-.81S15,34,14.65,34c-.75,0-.81-.67-1.05-1.08s.22-.63.58-.75.5-.28.2-.63-.34-.58-.57-.81-.4-.55.18-.6c.2,0,.44,0,.44-.3s-.23-.31-.43-.3a1,1,0,0,1-.93-.52c-.65-1.45-2.05-1.4-3.27-1.73-.46-.12-.94-.2-1-.8a8.91,8.91,0,0,1,3.8.64,6.45,6.45,0,0,0,2.32.16,1.39,1.39,0,0,1,1.17.46,2.78,2.78,0,0,0,2.06,1c.57,0,1,.66,1.39,1.18s.66.72,1,0c.09-.21.35-.35.42-.56.26-.84.78-.82,1.4-.45.22.13.43.26.65.07s0-.38-.17-.53,0-.41.12-.58c.53-.69.4-1-.5-1,0-.5.39-.53.67-.57.87-.1,1.71-.32,2.58-.41,1.06,0,1,1,1.45,1.6a1.08,1.08,0,0,1,.4,1.39c-.22,2.1.1,4.22-.2,6.32-.17.94.18,1.93-.24,2.85-.53.06-.56-.26-.61-.68a15.43,15.43,0,0,0-.92-4,3.31,3.31,0,0,1,.11-2.86c-.74-.4-1.47-.91-2.2,0-.15.21-.46.11-.66.19-.64.27-1.45.39-1.33,1.42,0,.24-.05.67-.21.75-1.09.53-1,1.68-1.44,2.56-.31.64.23,1.25-.1,1.94-.18.39-.26.57-.68.65-1.06.21-2.24.1-3.08,1a.31.31,0,0,1-.52,0c-.13-.17-.06-.31.1-.42s.49-.38.24-.66-.5,0-.68.16a.61.61,0,0,1-.64.15c-.27-.06-.56.09-.52.34.22,1.27-.59.68-1.1.64-.64-.22.71-.61,0-.76-.43-.09-.67.43-1.08.49S11,39.1,10.62,39.13Z"/><path class="cls-23" d="M25.68,25.94a3.36,3.36,0,0,1-2.15.58,1.66,1.66,0,0,0-1.1.4,1.35,1.35,0,0,0-1.23,1,.37.37,0,0,1-.14.2,3.07,3.07,0,0,1-3.36-.88c-.09-.17.72-1.11,1-1.17,2.27-.51,4.63-.6,6.85-1.38.39-.13.75-.19,1-.56.09-.14.24-.35.36-.34,1,.05,1.24-.5,1.24-1.33,0,0,.12,0,.18,0,0,1.63,0,1.7-1.54,2.23A1.69,1.69,0,0,0,25.68,25.94Z"/><path class="cls-4" d="M12.78,62.53c.47.35.51.67.25,1a.23.23,0,0,1-.35.06C12.3,63.25,12.68,63,12.78,62.53Z"/><path class="cls-4" d="M4.51,66.19c.07.22.34.53-.14.58s-.59-.4-.67-.79Z"/><path class="cls-22" d="M27.11,38.29a1.27,1.27,0,0,1,0,1.43C26.53,39.48,26.54,39,27.11,38.29Z"/><path class="cls-5" d="M22.84,42.2c.32-.26.48-.6.88-.51a.4.4,0,0,1,.05.35C23.58,42.39,23.3,42.47,22.84,42.2Z"/><path class="cls-24" d="M10.62,74.87c.08-.37-.08-.8.25-1.12l.36-.21a4.65,4.65,0,0,1,3.26-.48,6.92,6.92,0,0,0,2.5.19c.9-.13,2,.61,1.74,2.24A4.57,4.57,0,0,1,17,77c-.63.43-1.13-.37-1.74-.43a1.46,1.46,0,0,1-1.61-.18c-.18-.09-.37-.27-.53-.24A2.77,2.77,0,0,1,10.62,74.87Z"/><path class="cls-17" d="M8,73.11a21.53,21.53,0,0,1-2-2.76c-.32-.45.21-.77.5-1.06s.67,0,1.07.55c0-1.25-.81-2-.62-3.14.54,1.39,1.79,2.19,1.9,3.65,0,.4.33.22.53.12.64-.31.66-.09.54.5a14.06,14.06,0,0,0-.11,2c-.37-.42-.42-.87-1.09-1.08-1.22-.38-.95.09-.75.78a1.84,1.84,0,0,1,0,.41Z"/><path class="cls-25" d="M12,78.81c.26-.47.43-.2.62.06s.29.38.49.2,0-.34.06-.61c.26,1.27,1.2.66,1.85.73.45.06.71.13.66.63A4.26,4.26,0,0,1,12,78.81Z"/><path class="cls-6" d="M27.2,62c.18.4-.17.61-.09,1C26.47,62.43,26.47,62.43,27.2,62Z"/><path class="cls-26" d="M13.68,76.39c.56-.13,1.07.2,1.61.18C14.46,77.27,13.89,77.2,13.68,76.39Z"/><path class="cls-27" d="M27.53,28.93a3.42,3.42,0,0,0-.4-1.39C28.26,27.73,28,28.3,27.53,28.93Z"/><path class="cls-4" d="M8,47.78a1,1,0,0,1-1.25.39A1,1,0,0,1,8,47.78Z"/><path class="cls-28" d="M44.77,13.06c0-1.44-.06-2.89.09-4.31A9.94,9.94,0,0,0,44.92,7c-.14-1.81.6-3.53.47-5.33-.08-1,.7-1,1.35-1.15S48,.32,48.64.25c1.09.46,2.19,0,3.28,0,.33,0,.67-.08,1-.09s.6.19.53.55a1.22,1.22,0,0,0,.79,1.38c.37.21.45.47.41.62-.07-.61.3-1,1.17-1,.48,0,.87-.38,1.34-.43A22.51,22.51,0,0,1,61,1.48a3.29,3.29,0,0,1,1.35.61,12.43,12.43,0,0,0,2.49,1.13,18.45,18.45,0,0,0,2.74,1c.65.12.64.71.41,1.24A1.08,1.08,0,0,0,68.26,7c.28.22.27.61.41.92a5.13,5.13,0,0,0,2.79,3,1.19,1.19,0,0,1,.68.58c.34.68.14,1.56.85,2.13.17.14,0,.53-.21.72a3.67,3.67,0,0,0-.75,1.2c-.21.45-.74.87.1,1.29.29.15.11.49-.11.69a1.5,1.5,0,0,1-1.28.47c-.1,0-.19-.05-.29-.06.08.06.21.08.27.17.3.5,0,.78-.4.95s-.6.5-.56,1c.06,1-.43,1.39-1.45,1.33-.63,0-1.21-.12-.94.87.16.57-.3.87-.78,1-.87.27-1.65.59-1.81,1.65,0,.26-.33.41-.59.52a2,2,0,0,0-1.43,1.44c-.12.48-.55.65-1,.7a3.29,3.29,0,0,0-1,.2c-.41.18-.49.39-.17.77.85,1,.72,1.4-.67,2,.43,0,.83,0,.47.54a2.15,2.15,0,0,1-1.06.76c-.55.21-.69.54-.47,1.11a2.44,2.44,0,0,1-1.69,2.93.91.91,0,0,0-.88.64c-.36.91-1,.94-1.52.08a1,1,0,0,0-1-.5,2.48,2.48,0,0,1-.61,0c-.57-.11-1.24-.13-1.49-.72s.42-.76.68-1.13a5.14,5.14,0,0,1,.79-.93c-.73.13-1.36.22-1.7-.34a2,2,0,0,1-.12-1.67c.19-.68-.13-1.09-.84-1.16-.3,0-.6.06-.91.06a1.17,1.17,0,0,1-1.17-.65.91.91,0,0,1,.11-1.05c.28-.31.5-.33,1.31-.16a3.21,3.21,0,0,1-1.89-2,7.84,7.84,0,0,1-.51-3.41,5.42,5.42,0,0,0-.26-1.49c-.29-1-.1-1.33.87-1.55a3.35,3.35,0,0,0,2.15-1.23c.5-.67.27-1.61,1.06-2.38a7,7,0,0,1-2,0c-.92,0-1.06-.3-.66-1.29-.75-.11-1.45-.11-1.82-1.09C46.49,13.24,45.57,13,44.77,13.06Z"/><path class="cls-29" d="M44.77,13.06c.26-.29.62-.62.92-.22.44.57,1.83.23,1.49,1.55,0,.12.25.21.42.18.51-.06,1,.27,1.48.08,0,.47-.41.44-.54.68s0,.77.27.68c.91-.27,1.8.48,2.82-.21a9.63,9.63,0,0,0-.93,2.56A2.44,2.44,0,0,1,48.82,20c-.3.05-.59.15-.89.18-.71.08-.85.48-.59,1.07.51,1.16.25,2.39.32,3.59,0,.17-.1.4,0,.49.92,1,.75,3.13,3,2.79-.33.67-.7.68-1.15.45-.27-.14-.54-.29-.82,0a.62.62,0,0,0-.17.73c.16.36.35.64.81.65.7,0,1.44-.39,2.1.26.34.34.53.62.22,1a1.45,1.45,0,0,0,0,1.61c.28.54.87.32,1.37.18a1.08,1.08,0,0,1,.68.12c-.8.35-.88,1.29-1.6,1.7-.45.25-.4.52.06.69a4.1,4.1,0,0,0,1.17.29c.77,0,1.62-.18,1.83,1a.32.32,0,0,0,.48.23c.29-.13.6-.36.51-.68-.17-.59.05-.69.58-.7.86,0,2.47-1.44,2.12-2-1.34-2.07,1-2,1.54-2.81-.14-.19-.26-.08-.36,0-.29.12-.68.34-.8,0s.33-.37.6-.4a1.4,1.4,0,0,0,1.13-.91c.19-.43-.33-.58-.62-.79-.64-.44-.5-.82.12-1.1a2.94,2.94,0,0,1,1-.24c.68,0,1.38,0,1.12-1a3.53,3.53,0,0,1,1.42-1.08.62.62,0,0,0,.73-.65c-.06-.92.57-1.11,1.23-1.33a6.36,6.36,0,0,0,.95-.35c.28-.15.48-.34.31-.73-.35-.79,0-1.21.89-1.12,1.43.14,1.6,0,1.3-1.5-.08-.39.1-.46.38-.57s.85-.09.9-.53-.65-.33-.86-.66c0,0,0-.07,0-.12.47-.26.89.25,1.35.1s.91-.32.94-.66c.06-.54-.58-.22-.94-.5.66-.73.63-1.88,1.56-2.48.22-.14.24-.59.1-.63-.93-.22-.62-.94-.69-1.52a1,1,0,0,0-1-.93A1,1,0,0,1,70,10.15c-.1-.58-.81-.61-1.12-1.1-.47-.75-.26-1.88-1.32-2.34-.15-.07-.08-.85.18-1.21.5-.7.14-1-.49-1.13-1.36-.34-2.56-1.24-3.82-1.5-1-.21-1.5-1.23-2.49-1.19-1.26.05-2.48-.35-3.74-.22a.69.69,0,0,0-.36-.16c-.43,0-.45-.34-.43-.66s.26-.5.62-.5c3.07,0,6.16-.12,9.23.14.81.07,1.51.68,2.39.7.41,0,.42.53.39.93a9.22,9.22,0,0,0,.4,3,2,2,0,0,1,.19,1.29c.19-.59-.17-1.15,0-1.72a4,4,0,0,0,.53-2.19c-.12-.71.45-1,1.15-.69S72.44,2.76,73,3.29a29.13,29.13,0,0,1,.21,4.07.46.46,0,0,0,0,.82,13.11,13.11,0,0,1,.21,3.25c.23.73-.06,1.51.2,2.24a25.33,25.33,0,0,0,0,5.15c.09.66-.36,1.32,0,2a.4.4,0,0,0-.1.38c.12.92,0,1.57-1.19,1.62-.51,0-.78.35-.51.93.19.41,0,.65-.43.73s-.72.45-1,.42c-1.31-.16-2.06.89-3,1.39a18.41,18.41,0,0,0-3.14,1.84c-.37.29-.48.53,0,.71.74.26,1.1,1,1.77,1.33.4.22.46.76.48,1.19a7.94,7.94,0,0,1-.33,3.21c-.07.19-.12.52-.27.51-.92-.09-1.74.84-2.7.22a3.45,3.45,0,0,0-1.05-.37c-1.07-.28-1.29-.14-1.48,1,0,.24,0,.53-.25.65-1.46.86-1,2.37-1.19,3.64A6.77,6.77,0,0,1,59,42a1,1,0,0,0,.07,1.05c.41.53.14,1.18.28,1.77.08.36-.26.5-.59.56s-.62-.11-.88.24c.15.42,1,.57.67,1.19a5.61,5.61,0,0,1-1.37,1.73c-.35.32-.64,0-.8-.31a1.28,1.28,0,0,0-1.77-.68,3.46,3.46,0,0,1-1.32.09c-.46,0-.92-.17-.9-.75s.49-.58.89-.66a1.11,1.11,0,0,1,.51,0,.88.88,0,0,0-.68-1C52,45,52.19,43.7,51.47,43.05c0,0,0-.14.05-.18,1.08-1.13,0-2.08-.26-3.09,0-.13-.17-.26-.14-.37.25-.93-.39-1.51-.82-2.17C49.77,36.4,49,35.69,49,34.56c0-.37-.35-.72-.68-1a2,2,0,0,1-.72-2,.93.93,0,0,0-.38-1,2.91,2.91,0,0,1-1-1.94,2.27,2.27,0,0,0-1-1.88,4.76,4.76,0,0,0-.52-.1c-.39-.65-.13-1.29,0-1.95a8.16,8.16,0,0,0,0-1.31c-.23-1.28,0-2.59-.19-3.87V19c.17-1.08-.19-2.19.2-3.26v-.61c.1-.67-.23-1.35,0-2Z"/><path class="cls-30" d="M45.18,26.49c.31,0,.74,0,.74.36,0,.81,1,1.25.67,2.28-.18.54.55,1.18,1.13,1.56.38.25.5.37.19.84a1.35,1.35,0,0,0,.43,1.69c.65.63,1.27,1.2,1,2.22-.06.28.18.44.36.57.73.55.78,1.65,1.68,2.08.08,0,.1.39,0,.57-.19.53-.28,1,.38,1.24a.24.24,0,0,1,.13.41c-.3.35-.11.66.09.91.63.78.47,1.33-.41,1.7,0,.42.71-.24.57.48-.2,1.11.59,1.61,1.48,2,.29.11,1,0,.21.53,0,0,0,.12,0,.17.08.25.8.06.43.55-.22.3-.53-.17-.81-.15s-.93,0-1,.49.46.47.83.48a3.69,3.69,0,0,0,1.4-.17,1.23,1.23,0,0,1,1.77.88c.18.56.43.46.68.1a4.66,4.66,0,0,1,.92-1.17c.35-.27.42-.73-.24-.86-.34-.07-.61-.25-.49-.62a.63.63,0,0,1,.85-.48c.55.14,1,.33.74-.73s-.69-1.9-.15-3.09A8.48,8.48,0,0,0,59.14,38a1.18,1.18,0,0,1,.68-1.27,1,1,0,0,0,.61-1.13c-.15-1,.6-1,1.27-1.09a.55.55,0,0,1,.28.11,5.4,5.4,0,0,0,3.56.42c.19,0,.31-.08.37-.27a9.17,9.17,0,0,0,.32-3.53,1.39,1.39,0,0,0-.86-1.2c-.56-.31-1-.85-1.63-1.17s-.31-.57.15-.83A36.16,36.16,0,0,1,68,25.69a2.49,2.49,0,0,0,.82-.74.71.71,0,0,1,1-.25c.65.27,1.12-.69,1.87-.57.07,0,0-.3-.12-.42-.6-.6-.18-.86.35-1.09a1,1,0,0,1,.39-.12c1,.06,1.29-.46,1.16-1.36,0-.1.11-.23.18-.34l0,2.26c-.61.65-.45,1.49-.55,2.27A2.78,2.78,0,0,1,72.59,27c-.11.08-.31.14-.32.22-.2,1.38-1.56,1.83-2.22,2.83-.31.33-.52.56.06.9a1,1,0,0,1,.15,1.78.56.56,0,0,0-.14.79A1.93,1.93,0,0,1,70,35.07a3.49,3.49,0,0,0,.2,3.46c.77,1.09.54,1.59-.74,2.1l-.48.15a2.12,2.12,0,0,0-1.45,2.57c.12.54-.29,1-1.06,1a4.53,4.53,0,0,0-1.59.25,1.15,1.15,0,0,0-.79,1.52c.26.88-.07,1.82.3,2.7a.46.46,0,0,1-.4.61,1.59,1.59,0,0,0-1.19,1.13,1.1,1.1,0,0,1-1.18.72c.52.45.78.86,0,1.06-.55.13-1.16,1-1.68,0-.92.29-1.84-.8-2.77,0a.84.84,0,0,1-.88.11c-.41-.21-.65-.5-.06-.84a18.38,18.38,0,0,0-4.11-.47c-.17,0-.42.06-.46-.11a2.48,2.48,0,0,0-.79-1.64c.63-1-.39-1.24-.77-1.77a.41.41,0,0,0-.17-.12,1.15,1.15,0,0,1-.73-1.05c-.12-.92-.58-1.79-.74-2.73-.05-.26-.26-.52,0-.75s.57-.13.85,0a1.65,1.65,0,0,0,.89.34c.13-.44-.47-.76-.25-1.21a7.2,7.2,0,0,0-.78-5.18,1.28,1.28,0,0,0-.91-.58c-.75-.15-.91-.61-.75-1.27s0-1.28-.94-1.36c-.58,0-1-.43-.52-1.13a1.2,1.2,0,0,0-.44-1.89c-.66-.37-.5-1-.59-1.52A3.32,3.32,0,0,1,45.18,26.49Z"/><path class="cls-31" d="M50.06,47.24c.44.23.65.7,1.13.95.71.37.07.88-.17,1.27.3.4.67-.17,1,.19,0,.4-.55.76-.29,1.21a14.31,14.31,0,0,1,5.09.72c-.09.53-.54.21-1,.36.93.75,1.56-.23,2.28-.18,0,0,.06-.12.11-.16.7-.5.55,1.13,1.24.51.92-.81.81,0,.89.59.54-.26.92-.82,1.6-.58-.1-.65-.63-.37-.81-.62a.24.24,0,0,1,.18-.33c1-.06,1.38-.8,1.72-1.57a.45.45,0,0,1,.46-.32c.81,0,.87-.33.51-.91a1.69,1.69,0,0,1,0-1.56c.28-.59-.72-.76-.2-1.41a2.68,2.68,0,0,1,2.33-1.28,1.21,1.21,0,0,0,1.11-.29c.12-.1.35-.26.13-.37-.83-.41-.18-.84,0-1.24s.53-.62.37-1.11c-.09-.24.16-.32.37-.37s.33-.06.49-.11c2.61-.82,2.32-.88.87-2.69-.4-.51.27-.7,0-1.18a1.79,1.79,0,0,1,.2-1.62c.64-.74.33-1.33,0-1.94-.19-.33-.19-.5.17-.58s.78-.06.68-.54,0-.91-.68-1c-.26,0-.5-.31-.83-.53L70,30c.68.13,1,.74,1.54,1.09.3.19.2.54.16.84-.06.5-.42,1,0,1.53.12.15-.06.39-.22.52a1,1,0,0,0,0,1.52,3.25,3.25,0,0,1,.82,1.78c.06.64.4.83,1,.65-.26,2.43-.52,4.87-.79,7.3a2.09,2.09,0,0,1-.19.44,110.92,110.92,0,0,1-3.37,11.15c-.18.5-.25,1.08-.85,1.3-.47-.34-.15-.72-.05-1.09s.34-.73.42-1.13a6,6,0,0,0-.81,1.85c-.42,1.54-1.84,2.07-2.92,2.95a.42.42,0,0,1-.69-.12,1.61,1.61,0,0,0-1.44-.77,1.48,1.48,0,0,1-.88-.46c-.35-.33-.66-.22-1,0a.57.57,0,0,1-.29,0,1.17,1.17,0,0,1-.75-1.62c.15-.43.05-.71-.46-.77a5.06,5.06,0,0,1-1.37-.65c-.3-.14-.69-.23-.65-.66s.32-.5.62-.6.33-.1.38-.5c-1,.32-1.77-.58-2.78-.25-.49.16-.54-.3-.58-.67a1.43,1.43,0,0,0-.49.7.59.59,0,0,1-.41.4,2.6,2.6,0,0,1-2.42-1.16c-.3-.62-.93-.95-1.32-1.51a1.6,1.6,0,0,1-.48-1.15,2.26,2.26,0,0,0-.2-1.09A2.08,2.08,0,0,1,50.06,47.24Z"/><path class="cls-32" d="M71.42,113.18a5.88,5.88,0,0,1-2.44.59c0-.3.31-.73-.28-.87a.41.41,0,0,1-.29-.27c-.21-1.15-1.06-1.1-1.92-1-.07,0-.18-.06-.19,0-.85,1.06-1.71,0-2.56,0-.69,0-1.36-.33-2.08-.4-1.07-.11-.48-.84-.29-1.45-1,.26-1.83.66-2.82.26a1.23,1.23,0,0,0-1.41.88,4.58,4.58,0,0,0,.16,2.79c.29.52.46,1.13,1.32.92.32-.08.65.22.39.67H56c-1-.31-1.32-1.43-2.32-1.73-.4-.13-.21-.54-.12-.89.24-1,1.34-1.37,1.72-2.28.19-.46.69-.78.64-1.37,0-.3.24-.42.48-.39.81.09,1.61-.2,2.41,0a1.2,1.2,0,0,0,1.21-.4,3.68,3.68,0,0,0-1.39-1.22c-1.57-1-1.62-1-2-2.85a10.2,10.2,0,0,0,.45-1.85c0-.48.24-.82.92-.64.41.11.92-.15,1.38-.15s1.09.73,1.8.24c.16-.11.28.21.31.42.14.92.28,1.85.43,2.77,0,.45-.21.94.15,1.33s.46.73,0,1.12a.75.75,0,0,1-1.22,0,1,1,0,0,0,.89.34,3.89,3.89,0,0,1,2.88.64c.44.34.83.18,1-.37s.34-.84.93-.55h0c1.09.18,2.2.14,3.29.32.21,0,.55-.13.56.23s-.29.41-.58.41a11.2,11.2,0,0,1-1.92-.13,2.09,2.09,0,0,0-1.2.06c.5.29.88.7,1.37.71,1.49.05,2.29,1.05,3,2.12.22.33.28.5.71.32s.78-.21,1,.23,0,.76-.41,1S71.7,112.93,71.42,113.18Z"/><path class="cls-33" d="M59,115.19c-.07-.36-.15-.73-.63-.37-.26.18-.58.27-.71,0a3.83,3.83,0,0,0-1.82-2.1c-.24-.12-.24-.3,0-.62.38-.5,1.12-.75,1.06-1.64,0-.34.69-.53,1.17-.68s.56-.57,1.07,0c.32.37,1.08,0,1.61-.24.23-.12.49-.45.78-.1s.16.56-.14.83-.23.6.23.62a14.12,14.12,0,0,1,4.13,1c.31-.3-.38-.55,0-.81s.43.23.65.28a4.1,4.1,0,0,0,1,0c.57,0,1.14-.14,1,.84-.07.67.81.58,1.23,1-.17.25-.63.22-.7.57-.73.54-1.63.37-2.44.61a10,10,0,0,0-3.31.34c-.6.12-1.21-.13-1.78.15-.25.13.12.09,0,.15A7.26,7.26,0,0,1,59,115.19Z"/><path class="cls-34" d="M62.06,72.27c-.25,1.53-.62,3-.88,4.59-.31,1.72-.39,3.47-.73,5.18,1,20,1.35,22.54.86,22.19a15.82,15.82,0,0,1-2.41-1.47c-.11-.21-1.75.71-2,.71.63-3.57,1.52-9.55.8-23.3a.36.36,0,0,0,0-.36c-1-1.24-.69-2.84-1.06-4.25a9.34,9.34,0,0,1-.42-3.29A5.13,5.13,0,0,1,62.06,72.27Z"/><path class="cls-35" d="M68,58.1a35.78,35.78,0,0,0,2.4-6.71c.61-1.92,1.14-3.86,1.7-5.78a.13.13,0,0,1,.09,0l.09,0c-.75,8-2.66,15.5-7.65,22-.94.62-2,1-2.93,1.68a1.86,1.86,0,0,1-.63-.76c-.36-1,.53-1.14,1-1.43a.92.92,0,0,0,.58-.83,9,9,0,0,1,.82-1.6c.55-1.19.44-1.54-.66-2.13-.13-.67.25-.75.76-.65a1.39,1.39,0,0,1,.74.5.36.36,0,0,1,0,.46c.18-.07.16-.27.28-.38a1.46,1.46,0,0,1,.33-.22c.58.11.53.51.44.94s-.35.72-.5,1.27a8.82,8.82,0,0,0,1.54-3.22A6.08,6.08,0,0,1,67,59.8C67.41,59.3,67.37,58.5,68,58.1Z"/><path class="cls-36" d="M52.69,114.6c-2.73,0-5.14-1.16-7.6-2.11a1.54,1.54,0,0,1-.93-1.35c.21-.68.19-.66.6-.29a8.18,8.18,0,0,0,1.5.79,3.35,3.35,0,0,0-.1-1.25.45.45,0,0,1,0-.28c.35-.76,1.16-.37,1.72-.65.13-.06.33,0,.48-.19a4.3,4.3,0,0,1,2.74-1,7.1,7.1,0,0,0,2-.39c.45-.36,1-.21,1.45-.19a1.36,1.36,0,0,0,1.64-1.41c.45-.08.61.17.6.57,0,.1-.15.21-.11.28.67,1.19,0,1.27-.94,1.16-.18,0-.24.1-.25.24a.83.83,0,0,1-1.23.64c-.5-.29-.56.09-.78.25s-.5.63-.84.87-1.13.33-.43,1.11c.26.28,0,.81-.57.74-.74-.09-1.18.08-1.09,1,0,.34.09.49.46.49a10.94,10.94,0,0,1,1.7.27.52.52,0,0,1,.44.59C53.11,114.73,52.89,114.7,52.69,114.6Z"/><path class="cls-37" d="M52.69,114.6c.57-.31.32-.54-.12-.54-.72,0-1.4-.5-2.16-.13-.38.18-.5-.79-1.14-.15.32-.61.79-.26,1.11-.57,0-.33-.53-.7,0-1.11a1.22,1.22,0,0,1,1.32-.18c.27.12.31,0,.34-.17s.13-.52-.23-.55c-1-.07-.16-.7-.14-.71,1-.06,1.09-1.23,1.93-1.44.16,0,.17-1,.48,0,0,.14.31.06.4-.11s.26-.63.39,0c0,.13.14.13.2,0s.29-.33.17-.54c-.35-.6.21-.62.4-.48.43.32.8,0,1.23.14-.11-.54-1-.84-.26-1.41l-.44-.39c.13-.75.27-1.5.4-2.25.54-.2.29.14.32.39.06.5-.33,1.38.78,1.11.08.35-.21.47-.25.7a.47.47,0,0,0,.2.53c.18.11.32,0,.46-.09.38-.29.82-.93.85.25,0,.23.61.46.94.68s.61.3.68.68c-1.18.83-2.53.34-3.78.52-.24,0-.58-.29-.72.1s.37.35.45.69c-.41.13-1.25,0-.63.86,0,0,0,.12-.05.18-.87-.3-.62.92-1.38,1-.58.06-.47,1-.88,1.47-.06.06.08.24.24.26,1.16.1,1.39,1.28,2.15,1.85C54.9,114.82,53.73,115.05,52.69,114.6Z"/><path class="cls-38" d="M61.25,68.4c.11.27.42.45.41.79-.51.38-1,.89-1.65.25-.84.54-1.8-.09-2.65.28-1.27-.24-2-1.23-3-1.94l-1.05-1.61c0-.84-.6-1.24-1.21-1.63-.13,0-.19-.09-.16-.22-.27-.8-.79-1.46-1.12-2.22a2.51,2.51,0,0,1-.42-1.62c.71-.78,1.42-.11,1.85.24s.52.17.79.18c.9,0,1.54.54,1.3,1.32-.2.62.5.66.48,1.09-.34.92.28,1.45.84,2a10.93,10.93,0,0,0,2.18,1.43,3,3,0,0,1,1,.8c.07.07,0,.29.08.26C59.86,67.41,60.55,67.92,61.25,68.4Z"/><path class="cls-39" d="M69.38,5.12c-.17,0-.43-.1-.39-.24.25-1-.73-2-.26-3.06.28-.63,0-.83-.6-.65s-.86,0-1.3-.41C66.05.14,65,.31,64,.27c-2.09-.09-4.19,0-6.28,0-.39,0-.88-.26-1.17.29s.67.43.59.91c-.59.17-1.09.57-1.8.48-.47-.06-.6.42-.44.89.06.19.3.45,0,.61a.51.51,0,0,1-.57-.08c-.26-.2-.15-.4,0-.61s0-.27-.2-.44c-.43-.42-1.38-.52-.95-1.63.25-.64-.62-.49-.91-.37a7.89,7.89,0,0,1-3,.34c-.3,0-.63,0-.68-.4C54.07-.17,59.52.07,65,.06c2.21,0,4.43.24,6.64.4.81,0,1.43.28,1.27,1.34A5.93,5.93,0,0,0,73,3.29c-.47.1-.63-.3-.87-.56a3.2,3.2,0,0,0-1-.88c-.68-.34-1,.06-.86.54a2,2,0,0,1-.56,2.12c-.4-.42-.1-.95-.21-1.33C69.48,3.77,69.81,4.48,69.38,5.12Z"/><path class="cls-40" d="M73.24,37.88c-1,.83-1.11.82-1.36-.91a1.56,1.56,0,0,0-.49-1.09c-.44-.38-.47-1-.68-1.5-.08-.21,0-.29.21-.37.47-.21,1-.42.18-.89a.23.23,0,0,1,0-.19c1.19-1.54-.36-2.11-1-3-.2-.79.55-1,.93-1.1a.93.93,0,0,0,.79-1.08c-.08-.7.32-.73.74-.86.28.11.26.34.29.59a1.71,1.71,0,0,0,.5,1.36c.23.18.11.52.2.75.33.82-.45,1.57,0,2.49s-.39,1.79-.14,2.74c0,.13,0,.27.09.38C73.59,36.12,73.16,37,73.24,37.88Z"/><path class="cls-41" d="M71.42,113.18c.28-.28.55-.58.85-.84s.54-.54.24-.82c-.1-.09-.71-.29-1,.17a1.38,1.38,0,0,1-.42.44c.23-1.15-.92-1.45-1.23-2.28a1.44,1.44,0,0,0-1.45-.67c-.93.2-1.28-.84-2.1-.76-.17,0-.15-.24-.07-.41a.55.55,0,0,1,.66-.32,19.92,19.92,0,0,0,3.28.16c-.85-.09-1.68-.33-2.54-.38-.38,0-.82.15-1.14-.22a12,12,0,0,1,5.31.76,7.21,7.21,0,0,1,1.89,1.3,1.82,1.82,0,0,1-.27,2.82A6.23,6.23,0,0,1,71.42,113.18Z"/><path class="cls-42" d="M45.18,26.49a4.53,4.53,0,0,0,.14,3,7.07,7.07,0,0,0,.92,1.4c.37.53.66,1.06,0,1.7-.41.44-.25.89.42,1,1.17.17,1.33.33,1,1.49-.15.61-.18.9.59,1,1.1.17,1.38,1.19,1.68,2.06s.12,2,.56,3c.13.31-.22.75-.51,1a1.34,1.34,0,0,1-1-1.36,1.44,1.44,0,0,1,.19-.37,1,1,0,0,0-.42-1.52,4.06,4.06,0,0,0-.78-.1c-.46-.23-.38-.59-.2-.95.3-.57.09-.82-.51-.84a8.26,8.26,0,0,0-.89-.15c-.8.06-1-.19-.73-1,.36-1.11.35-1.13-.79-1.49a76.55,76.55,0,0,1-.22-7.72A.42.42,0,0,1,45.18,26.49Z"/><path class="cls-43" d="M54.34,67.78c.76.09,1.16.75,1.75,1.12a6.08,6.08,0,0,0,1.31.69,14.89,14.89,0,0,1,2.57.3,2.52,2.52,0,0,0,2.08-.76c.6-.6,1.19-1.33,2.23-1l-2.22,4.1c-1.06-.17-2-.72-3.2-.62-1,.08-1.87-.19-2.46.82l-.23-.2A21.38,21.38,0,0,0,54.34,67.78Z"/><path class="cls-44" d="M47.24,51.52a7.83,7.83,0,0,1-.6-3.48c.62-.37.13-.78,0-1.18.15-.37-.06-.69-.12-1-.09-.52-.52-1.17.31-1.53a.5.5,0,0,1,.25.13c.21.23.15.8.74.57a.28.28,0,0,1,.37.24c-.11.83.46,1.65.06,2.47a.76.76,0,0,0,.11.93A10.5,10.5,0,0,1,50,52.48a15.67,15.67,0,0,1,.73,2,2.07,2.07,0,0,1,.08.7,4.26,4.26,0,0,0-.06.5c0,.27-.12.46-.42.45s-.45-.17-.41-.36c.23-1.1-.61-.57-1-.69a1.64,1.64,0,0,1-.68-1.29c0-.31-.19-.28-.4-.23-.29-.21-.22-.51-.21-.8C47.83,52.23,47.87,51.77,47.24,51.52Z"/><path class="cls-45" d="M45,34.42c.32,0,.73-.66.94.17.07.29.47.18.76.34-.36.56-1,1-.71,1.9.68-.58,1.37-.07,2.06,0s.42.55.18.93-.55.6,0,.89c-.08.8-.38,1-1.39.78-.34-.6-1-.24-1.49-.56A19.33,19.33,0,0,1,45,34.42Z"/><path class="cls-46" d="M53.09,107.86a.15.15,0,0,1,.1,0,.68.68,0,0,1,.12.12c-.48.09-1,.22-1.44.27a9,9,0,0,0-3.17,1c-.16.08-.24.31-.35.47s-.31.57-.44,0c0,0-.08-.07-.12-.11-.37.59-1.23.15-1.59.75a1.83,1.83,0,0,1-.4.43c.2-.08.28-.27.39-.43.56.32.16,1,.48,1.38-.12.1-.35.31-.37.29-.52-.46-1.29-.51-1.76-1.09-.32-.39-.23.19-.38.25-.43-.42,0-.68.22-.91a3.76,3.76,0,0,1,2.32-1.31c1.08-.13,2-.58,3.12-.71S52,108.07,53.09,107.86Z"/><path class="cls-47" d="M73.44,35.22c-.17-.68-.62-1.27-.11-2.07s.21-1.36-.79-1.51c.28-.35.61-.43.68-1a4.34,4.34,0,0,0-.66-2.56c-.22-.45.3-.82-.1-1.16a8.2,8.2,0,0,0,.44-2.69c.07-.43-.15-1.19.73-1.16,0,3.25.07,6.5,0,9.75C73.6,33.6,73.49,34.42,73.44,35.22Z"/><path class="cls-44" d="M45.62,41.74l0-.6c0-.82.25-1,1.13-1,.63.05,1.12.4,1.72.39a.76.76,0,0,1,.47.33c.48.71-.28,1.06-.57,1.29-.66.5-.3,1-.19,1.47.06.29.58.56.14.85s-.87.48-1.25-.07l-.1-.08c-1.06-.38-.53-1.36-.77-2.05C46.05,42,46.14,41.61,45.62,41.74Z"/><path class="cls-41" d="M66.55,107.26c-.51-.06-.57.27-.68.67-.23.83-.9,1.09-1.46.44a2.25,2.25,0,0,0-1.88-.6A5.41,5.41,0,0,1,60,107c.46-.23.78-.29,1,.08s.59.21.9-.05.07-.46-.12-.7c-.39-.51-.58-1.06,0-1.57a2.23,2.23,0,0,1,.2.33c.85,2.52.89,2.2,3.56,2.05C66,107.16,66.27,106.92,66.55,107.26Z"/><path class="cls-48" d="M47.83,53.54c.25-.17-.18-.55.35-.7.21.7.42,1.42.64,2.13.06.21.28.28.38.46s.32.62.51.91c.35.38.68.71.24,1.3-.22.3.14.76.16,1.16s.24.86,0,1.29a.49.49,0,0,1-.35.26,38.8,38.8,0,0,1-1.57-5.19A4.13,4.13,0,0,1,47.83,53.54Z"/><path class="cls-49" d="M64.28,68.17A2.16,2.16,0,0,0,62.2,69.3a2,2,0,0,1-2,.9,7.25,7.25,0,0,1-2.81-.61c.53-.62,1.19-.07,1.78-.2.17,0,.67.62.44-.23,0-.19.22-.14.27-.07.5.7,1,.41,1.49,0,0,0,.18,0,.28.08a5.08,5.08,0,0,1,3-1.6Z"/><path class="cls-50" d="M48.4,40.72c-.32-.1-.83.4-1-.29-.5.69-1-.45-1.5,0-.2.19-.05.55-.34.7-.39-.71-.11-1.49-.23-2.23.55-.08,1.19-.54,1.47.39a.73.73,0,0,0,.86.25c.64-.19,1.1-.16.69.72C48.33,40.37,48.53,40.56,48.4,40.72Z"/><path class="cls-51" d="M45.62,41.74c.24-.13.2-.53.61-.55a8.06,8.06,0,0,1,.23,2.41c-.07.3.26.52.47.74-.63.5-.16,1,0,1.55.08.34.39.68,0,1a.56.56,0,0,1-.44-.25c-.56-1-.33-2.21-.61-3.3A11.9,11.9,0,0,1,45.62,41.74Z"/><path class="cls-52" d="M49.81,60.35l.27-.3c.31,0,.46.08.39.42A21.69,21.69,0,0,0,51.9,63.8c.07.18.25.33,0,.52A11.11,11.11,0,0,1,49.81,60.35Z"/><path class="cls-32" d="M61.47,115a1.35,1.35,0,0,1-.29,0c-.25-.1-.08-.1,0-.2.56-.59,1.24-.07,1.86-.22a22.2,22.2,0,0,1,2.85-.38.59.59,0,0,1,.63.2A31.8,31.8,0,0,1,61.47,115Z"/><path class="cls-52" d="M52.08,64.54c.63,0,1.57.89,1.54,1.48,0,0-.21.1-.33.15C53,65.55,52.21,65.28,52.08,64.54Z"/><path class="cls-28" d="M44.77,15.7c-.11,1.09.22,2.2-.2,3.26C44.43,17.86,44.11,16.75,44.77,15.7Z"/><path class="cls-28" d="M44.57,19.57c.43,1.27.1,2.58.19,3.87A11.19,11.19,0,0,1,44.57,19.57Z"/><path class="cls-48" d="M47.24,51.52c.24,0,.54-.39.73.09s.21.89-.35,1.13A2.31,2.31,0,0,1,47.24,51.52Z"/><path class="cls-53" d="M46.41,46.63a.48.48,0,0,1,.44.25c0,.43.43.43.61.68l-.82.48A1.89,1.89,0,0,1,46.41,46.63Z"/><path class="cls-28" d="M44.77,13.06c-.09.68.49,1.36,0,2A2.27,2.27,0,0,1,44.77,13.06Z"/><path class="cls-28" d="M73.66,13.67a4.17,4.17,0,0,1-.2-2.24C73.89,12.15,73.56,12.93,73.66,13.67Z"/><path class="cls-28" d="M73.25,8.18c-.28-.06-.68-.08-.68-.41s.4-.35.68-.41Z"/><path class="cls-28" d="M69.38,5.12a11.39,11.39,0,0,1,.2-2.91,6.41,6.41,0,0,1,.22,2.3c0,.84.33,1.69-.22,2.65A5.64,5.64,0,0,1,69.38,5.12Z"/><path class="cls-39" d="M70.26,9.12a.89.89,0,0,1,0-1.23s.24,0,.25,0C70.68,8.3,70.33,8.54,70.26,9.12Z"/><path class="cls-30" d="M58.26,44.15c-.49,0-.58-.29-.59-.61,0-.07.23-.23.3-.21C58.39,43.5,58.19,43.85,58.26,44.15Z"/><path class="cls-54" d="M47,44.42c.09,0,.19.12.27.11.33-.05.65-.13,1-.2-.13-.54-1.12-.84-.42-1.63.08-.09-.31.16-.45,0-.54-.7,1.67-.17.32-1.28.79.37,1.16.24,1.1-.51.1-.18.22-.32.44-.17,0,.65.49,1,.81,1.39,0,.56.59.9.44,1.54a2,2,0,0,1-1.38-.51c-.16-.18-.41-.31-.61-.06s.21.34.21.4c0,1.16.76,2.13.77,3.26,0,.43.42.25.56.46s.13.45.08.48c-1.31.77-.29,1.67-.16,2.51,0,.1.07.21,0,.29-.38,1.16.64,1.57,1.19,2.22.24.29.66.38.56.93s.41.6.77.61a1.46,1.46,0,0,1,.77.08c.49.29.83.26.84-.44,0-.43.6-.39.68-.81,0-.14.22-.11.33,0s.12.36,0,.54-.25.28-.06.43a.3.3,0,0,0,.45-.07c.3-.44.48-.32.84,0a1.24,1.24,0,0,0,1.32.24c.38-.16.81-.09.84.41,0,.34,0,.78-.64.61a.45.45,0,0,0-.58.42c0,.31.32.25.53.33.69.28,1.24.93,2.12.76.2,0,.24.27.11.47a1.36,1.36,0,0,0,.35,2,.83.83,0,0,1-1.12.58c-.38-.1-.76-.13-.8-.86a3.5,3.5,0,0,0-2.8-2.61c-.74,0-1.33,0-1.81-.6a.31.31,0,0,0-.3,0c-1.46.74-2.15-.6-3.12-1.17-.84-1.86-1-4-2.24-5.71-.28-.37-.68-.75-.13-1.35a1.12,1.12,0,0,0-.26-1.37c-.48-.43.42-.52.24-.9-.42-.43-.48.57-.86.23S47.18,44.75,47,44.42Z"/><path class="cls-55" d="M50.49,54.55c.61.25,1.29.34,1.65,1a.48.48,0,0,0,.79,0c.47-.47,1,0,1.44-.13.15,0,.26.07.25.24-.08.7.21.65.65.33a.56.56,0,0,1,.92.21,1,1,0,0,0,.83.47c.9.17,1.14.53,1.26,1.5,0,.35.75.44.42,1a1.25,1.25,0,0,0,1.24.29,3.92,3.92,0,0,0,.5-.33h.2a1.29,1.29,0,0,1,1.18.77c.35.65.72,1.25,1.62,1.31.64,0,1.12.41.83,1.2-.47,0-.9-1.22-1.39,0a.27.27,0,0,1-.26,0,1,1,0,0,0-1.34.12,2.7,2.7,0,0,1-1.29.49,35.82,35.82,0,0,0-4,.4,1.51,1.51,0,0,1-1.25-.24c-.51-.29-1.2-.39-.55-1.33.27-.37-.64-.68-1.11-.9-1-1.89-2.14-3.7-2.4-5.88Z"/><path class="cls-56" d="M64.27,62.53c0-.87-.7-1.05-1.23-1a1.45,1.45,0,0,1-1.34-1c-.06-.78-.72-.82-1.06-1.21.28-.51.53-1,1.09-.2.34.51,1.06.32,1.51.63s1.17-.12.95.8c0,.12.22.15.32.05.94-1,2.53-1.37,2.85-2.93.16-.75.6-1.36.81-2.07.06-.19.08-.46.33-.4s.28.33.22.58A9.6,9.6,0,0,0,68,58.1a4.17,4.17,0,0,1-.85,1.74,8.26,8.26,0,0,1-2.21,2.39.86.86,0,0,1-.56.66Z"/><path class="cls-57" d="M62.66,62.48l.22,0c1.28.13,1.57.77.9,2.13-.27.56-.61,1.09-.92,1.64-.28.85-1.09,1-1.77,1.12a6.06,6.06,0,0,1-2.29.18c-1.06-.66-2.12-1.31-3.17-2a3,3,0,0,1-1.16-1.46c-.12-.31-.35-.72.26-.84,1.84-.07,3.66-.45,5.5-.39C61.07,62.94,61.74,62,62.66,62.48Z"/><path class="cls-58" d="M64.92,62.23a10.91,10.91,0,0,1,2.21-2.39,17.94,17.94,0,0,1-1.83,4.52c-.16.23-.17.71-.58.5s-.08-.56,0-.86C65,63.43,65.64,62.9,64.92,62.23Z"/><path class="cls-49" d="M58.8,67.57a1.92,1.92,0,0,1,1.42-.34,4.23,4.23,0,0,0,2.64-1c0,.52.08.94-.7,1a1,1,0,0,0-.91,1.09c-.1,0-.24.08-.29,0a4,4,0,0,0-2.23-.57Z"/><path class="cls-59" d="M50.67,55.18a44.5,44.5,0,0,0,2,4.65,6.06,6.06,0,0,1,.37,1.23c-.74.61-1.13-.25-1.6-.48a1.43,1.43,0,0,0-1-.11l-.39-.42a11.89,11.89,0,0,0-.47-2.11.64.64,0,0,1-.08-.37,2.47,2.47,0,0,0-.07-1.19c.12-.44.15-.85-.44-1-.24,0-.48-.11-.2-.42a3.23,3.23,0,0,0,.47-.12c.6-.28.79,0,.87.56,0,.19-.21.55.19.54s0-.38.14-.55Z"/><path class="cls-60" d="M49.26,40.76l-.44.17-.41-.21c.23-.26-1-.47,0-.77,0,0,0-.26,0-.26a.66.66,0,0,0-.37,0c-.56.34-1-.07-1.42-.26,0,0,0-.07,0-.08l.2-.05c.6.12,1.16.11,1.41-.61.2,0,.41-.33.61,0a1,1,0,0,1,.37,1c-.17.43.23.56.27.86Z"/><path class="cls-45" d="M49.48,40.54c-.17-.36-.48,0-.75-.17.65-.52,0-1.11.11-1.67C49.76,39,50,39.66,49.48,40.54Z"/><path class="cls-36" d="M46.19,110.31c.08.63-.41.63-.82.76-.08-.67.55-.52.83-.76Z"/><path class="cls-44" d="M49,55.39c.22-.29.52-.3.65,0s.35.78-.21,1C49.32,56.05,49.17,55.72,49,55.39Z"/><path class="cls-35" d="M62.66,62.48c-.86-.14-1.54.71-2.43.42.46-.31,1.06-.37,1.42-.87C61.83,61.78,62.53,62.11,62.66,62.48Z"/></g><g class="cls-2"><path class="cls-3" d="M.24,30.17A18.82,18.82,0,0,1,.3,25.92c.45-1.87,0-3.8.69-5.63a5.82,5.82,0,0,0,.07-1.92,2.94,2.94,0,0,0,.13-1.76,5.93,5.93,0,0,1,.07-2.1,1.25,1.25,0,0,1,0-1.24.64.64,0,0,1,.67-.14,29.19,29.19,0,0,0,3.35.81c.83.19.89.47.26,1a.57.57,0,0,0-.2.62.5.5,0,0,1-.33.65A.64.64,0,0,1,4.18,16c-.54-.8-.75-.49-1,.23a3.22,3.22,0,0,1-.67,1.25,1,1,0,0,0,0,1.5,10.22,10.22,0,0,1,.9,1.35c.34.53.68,1,1.41,1,.47,0,1.07.11,1,.72s-.18,1.33-1.07,1.34a.56.56,0,0,0-.5.26c.32.32.8.52,1,1a.61.61,0,0,0,.57.37c1.12-.11,2.18.65,3.32.13.46-.2.94.05,1.51.11a1.24,1.24,0,0,1,.43-1.19,1.9,1.9,0,0,0,.6-1.25,1.9,1.9,0,0,1,1.35-1.63c.33-.11.66-.2.65-.64s-.25-.58-.59-.75A1.81,1.81,0,0,1,12,17.63a1.11,1.11,0,0,0-.51-1,4.25,4.25,0,0,0-2.81-1,3,3,0,0,1-1.73-.48c-.2-.13-.43-.27-.33-.56s.3-.25.5-.27c1.08-.12,2.16-.21,3.22-.41.26,0,.6,0,.72-.3s-.26-.42-.39-.64a3.13,3.13,0,0,0-3-1.47c-.5,0-1.21,0-1.27-.82,3-.16,5.94-.8,9-.6a59.16,59.16,0,0,1,10.11,1c.47.11,1,.17,1.14.83.06.28.32.6.67.47.77-.27.81.23,1,.76a20.16,20.16,0,0,1,.33,3.38,31.49,31.49,0,0,1,.21,5.14c-.23.29-.09.7-.32,1a2.16,2.16,0,0,1-1.09,1.43c-2.15,1.46-4.64,1.55-7,2l-1.19.25a1,1,0,0,0-.86.75c-.06.48.42.66.76.84a1.71,1.71,0,0,0,2.1-.47,1.89,1.89,0,0,1,1.39-.77c.8,0,1.13.35.84,1.15,0,.1-.11.2-.09.28.2,1.12-.21,1.44-1.26,1-.39-.14-.61.17-.82.45-1,1.3-1,1.29-2.22.11a1.83,1.83,0,0,0-1.3-.69,1.46,1.46,0,0,1-1.16-.54c-.85-1-2-1-3.16-1a2.34,2.34,0,0,1-1.18-.15,6.26,6.26,0,0,0-3.44-.53,9,9,0,0,1-1.8-.06c-1.35-.26-2.73-.29-4.09-.44A1.67,1.67,0,0,0,1,28.18a6.33,6.33,0,0,1-.07,1.51C.81,30,.76,30.42.24,30.17Z"/><path class="cls-4" d="M2.68,62.32a18.73,18.73,0,0,1-1-4.3C1.22,55.69,1,53.32.61,51a32.51,32.51,0,0,1-.37-5.74.93.93,0,0,1,.48-.32,1.39,1.39,0,0,1,.68,1.67c-.31,1.29,0,1.69,1.18,2.11a7.79,7.79,0,0,0,4,.45,2,2,0,0,0,.86-.26,12.41,12.41,0,0,0,3.11-3,2,2,0,0,0,.06-2.21A2.19,2.19,0,0,1,10.33,42c.1-.45.27-.93-.1-1.36-.61-.71-.3-1.22.39-1.64A6.08,6.08,0,0,0,12,38.62c.31-.17.66-.42,1-.14s-.28.59-.1.93a1.46,1.46,0,0,0-.11,1.31,27,27,0,0,1,.71,2.82A1.73,1.73,0,0,0,15.11,45a2.44,2.44,0,0,1,1.86.63A1.63,1.63,0,0,0,18.1,46a2.17,2.17,0,0,1,1.95,1.56A18.58,18.58,0,0,1,19,51.12c-.78.43-1.2,1-.74,1.9a.46.46,0,0,1-.23.61c-1.1.34-1.29,1.33-1.55,2.2S15.86,57,15,56.54a.24.24,0,0,0-.28.06c-.1.27.13.43.21.64s.13.58-.12.62c-.84.14-1.24.91-1.93,1.26-1,.48-1.53.45-2.07-.48-.36-.63-.68-.44-1.08-.23a3.75,3.75,0,0,0-1,1c.34.29.69,0,1,.12s.79.32.77.8-.4.64-.79.61c-.79,0-1.49.46-2.29.38-.22,0-.63.1-.6.28.15,1-1,1.24-1.09,2-.08.47-.45.54-.87.44A2.55,2.55,0,0,1,2.68,62.32Z"/><path class="cls-5" d="M2.68,62.32c.62.62,1.15,1.36,2.12,1.46.17,0,.32.08.48.11.11-.81,1.21-1.37,1.12-1.84C6.13,60.74,7.18,61,7.59,61c.79,0,1.46-.57,2.27-.32a.38.38,0,0,0,.47-.41c0-.26-.23-.41-.44-.51a.8.8,0,0,0-.69,0c-.37.14-.77.2-.95-.24s.39-.38.5-.59c.43-.88,1.48-.8,2.28-1.62a1.17,1.17,0,0,0,.65,1.8c.79.34,1.38-.37,1.92-.84.31-.26.38-.74,1-.54.32.1.32-.3.1-.46-.38-.28-.61-.63-.29-1s.7,0,1,.2.39.27.6-.23c.42-1,.18-2.42,1.73-2.7a.36.36,0,0,0,.18-.64c-.85-.94,0-1.45.61-1.81s.75-.63.55-1.1a1.2,1.2,0,0,1,.31-1.29,1.13,1.13,0,0,0,.18-1.57c-.43-.67-1.18-.65-1.74-1-1.47-.88-3.5-.45-4.6-2.06-.06-.08-.16-.2-.14-.26.36-1-.6-1.75-.46-2.7a.62.62,0,0,0-.11-.48c-.8-.66-.21-1,.29-1.31.35-.21.74-.25,1-.74.33-.68,1.19-.72,1.84-.77s.37.52.24,1a4.86,4.86,0,0,1,2.6-.84c.85-.11,1-.6,1-1.31,0-1.36.13-2.68,1.3-3.64a1,1,0,0,0,.34-.82c-.05-.8.47-1.16,1.07-1.43s1.1-.5,1.65-.75a1.33,1.33,0,0,1,1.8.58c-.68.7-1.52,1.23-2.16,2a1.92,1.92,0,0,0-.49,2,9.89,9.89,0,0,0,1.42,3.26,1.9,1.9,0,0,1,0,2.18c-.23.28,0,.49.13.73.24.61,0,.88-.62.85-.41,0-.77-.3-1.18-.29s-.81,0-.46.53c.24.37.08.6-.11.91a2.86,2.86,0,0,0,.43,3.34c.47.48,1,.9.35,1.61-.18.2,0,.46.06.68a1.62,1.62,0,0,1-.42,1.86c-.77.55-.88,1.52-1.65,2a4.45,4.45,0,0,0-1.19,1.6,2.76,2.76,0,0,1-.66.24c-.76.32-.86.77-.33,1.41.8,1,.8,1,0,2.07-.12.18-.28.37-.15.55.68.9.07,1.49-.52,2.07.4.37.62.15.84-.16a.57.57,0,0,1,.88-.15.61.61,0,0,1,.21.88c-.27.44-.28,1.15-1.17.9-.42-.11-.78.53-1.3.4-.09.16,0,.28,0,.41.14.43.3.9-.23,1.15s-.74-.14-.94-.52c-.1-.19-.22-.38-.46-.28a1.13,1.13,0,0,0-.76.89,1.19,1.19,0,0,1-1.1,1.18c.24.56.71.69,1.12.89s.67.42.5.87-.56.25-.88.19a6.16,6.16,0,0,1-3-1.68,18.69,18.69,0,0,0-1.6-1.08,1.79,1.79,0,0,1-.59-2.37c-.77.84-.77.84-1.63.6.17.39.57.32.86.46a.61.61,0,0,1,.38.74c-.05.29-.28.59-.53.48-1.32-.58-1.81.54-2.47,1.2a5,5,0,0,1-1.76,1.11c-.33-.07-.73.06-1-.31a.94.94,0,0,1-.15-.65.32.32,0,0,0,0-.09c0-.27.61-.3.31-.69s-.39.42-.71.21A13.52,13.52,0,0,1,2.68,62.32Z"/><path class="cls-6" d="M19.77,53.77a3.54,3.54,0,0,1,1.65-2.27l.09,0C21.32,50.23,23,50.12,23,49a1.21,1.21,0,0,0-.27-.73c-.18-.27-.32-.57,0-.79.74-.44.23-.74-.1-1.05a3,3,0,0,1-.46-4c.1-.17.15-.26,0-.41s-.73-.18-.41-.62a1,1,0,0,1,1-.38c.4.08.76.27,1.15.36a.69.69,0,0,0,.57-.08c.19-.18,0-.37-.16-.5-.42-.41-.77-.79.11-1.07.06,0,.15-.19.12-.23-.42-.81.07-2-1-2.53-.8-.38-.74-1-.52-1.67.09-.25.13-.55-.06-.65-1.26-.65-.28-1.46.05-1.83a6.56,6.56,0,0,1,2.64-2.19,8.41,8.41,0,0,0,.57,4A10,10,0,0,1,26.7,37a1.72,1.72,0,0,0,.4,1,.54.54,0,0,1,.09.25c0,.42-.53.84,0,1.26.42-.17.74-.39.45-.9s-.22-.93.21-1.14.93-.66,1.43,0c.17.22.13-.2.28-.18a12,12,0,0,1,.15,4.31c-.09,1-.09,2.09-.15,3.13-.2,3.1-.41,6.19-.74,9.28-.16,1.47-.19,3-.48,4.41a2,2,0,0,1-.2.45c-.49.43-.94.77-.56,1.63.25.58-.36,1.16-.88,1.54-.15.12-.47.09-.54-.09-.45-1.05-1.35-.73-2.14-.77a1.17,1.17,0,0,1-.81-1.52c.1-.45-.08-.63-.47-.84a16.45,16.45,0,0,0-2-.69c-1.14-.45-1.28-.71-.86-1.89.11-.33.14-.55-.18-.78C18.58,54.68,18.59,54.56,19.77,53.77Z"/><path class="cls-7" d="M19.77,53.77c-.05.12-.07.3-.16.36-.77.52-.8.87.2,1.08.84.17.59.71.28,1.13-.6.82-.27,1.25.55,1.48a15.83,15.83,0,0,0,2.73.79c.33,0,.18.35.12.58a1.55,1.55,0,0,0,.56,1.91A11.41,11.41,0,0,1,23,65c-.09.22-.36.37-.36.61,0,1.69-1,2.93-1.87,4.22A1.92,1.92,0,0,0,20.57,71a2.2,2.2,0,0,1-1.7,2.32c-.16,0-.34.13-.49,0-1.54-.86-3.25-.34-4.87-.53a1.89,1.89,0,0,0-2.12.82.46.46,0,0,1-.51.19c0-.07-.17-.15-.22-.11-.42.34-.9-.23-1.33.08s-.75,0-1-.4c-.09-.15-.27-.19-.4-.3a2.87,2.87,0,0,1-.32-.63c-.17-.65.14-1,.8-.84s1.25,0,1.22.69c.06.33.18.12.07.2s-.05,0-.06-.08a2.48,2.48,0,0,1,0-.9c0-.43.08-.85-.58-.74a.33.33,0,0,1-.38-.27,9.23,9.23,0,0,0-1.62-2.93c.18.54.56.9.65,1.38s.12.91-.56.71c-.34-.11-.58-.13-.77.19a.68.68,0,0,0,.12.85A11.57,11.57,0,0,1,8,73.09c.28.31.59.61,0,.92-.13.06-.11.1,0,.47s.29.77-.4.66a29.54,29.54,0,0,1-2.62-4.67c-.61-1.74-1.58-3.39-1.65-5.3.17,0,.27,0,.21.2s.13.41.2.61.4.68.81.21a7.53,7.53,0,0,0,2.6-2.39c.26-.5.9-.29,1.39-.09.26.11.53.23.65-.16s0-.6-.43-.62a1.08,1.08,0,0,1-1-.55.39.39,0,0,1,.09-.54c.14-.11.37-.18.45,0,.53,1,.88.18,1.27-.12.2-.16.34-.44.8-.32a1.09,1.09,0,0,0-.55,1.32A1.83,1.83,0,0,0,10.61,64c.52.32,1.17.45,1.52,1.1s.45-.3.85-.19c-.13.53-.51,1.22.67,1.1.28,0,.9.51,1.44.63.2,0,.47.31.57-.1s-.15-.42-.39-.51a4.39,4.39,0,0,1-.67-.23c-.38-.22-.83-.51-.85-.91s.53-.23.82-.32.47-.32.38-.61c-.15-.51.2-.74.48-1,.79-.8.86-.79,1.32.21.12.28.3.5.61.35a.41.41,0,0,0,.14-.67,1.45,1.45,0,0,1-.11-1.17c.41.46.71.22,1-.07a.63.63,0,0,1,.85-.15c.51.24.27-.65.69-.87s0-.42-.23-.53c-.39-.23-.54,0-.59.36s-.31.45-.66.34-.69-.18-.78-.56.27-.19.4-.3c.45-.39,1.12-.74.36-1.47-.46-.45-.13-.77.27-1,.64-.46.84-.91.07-1.5-.38-.29-.94-.67-.58-1.34A1.37,1.37,0,0,1,19.77,53.77Z"/><path class="cls-8" d="M2.48,122.54a2.28,2.28,0,0,1,1.88-1.17c1.58-.27,3.17-.44,4.76-.66.5-.06,1-.14,1.49-.21.44.21.39.54.15.82-.52.6-.28,1.29-.3,1.94,0,.31.17.38.39.5A1.87,1.87,0,0,1,11.93,125c-.06-.74.29-1.13.89-.94.92.3,1.5-.5,2.29-.56.14,0,.21-.13.22-.29a2.25,2.25,0,0,0-1.92-2,2.32,2.32,0,0,1-.91,0c-.43-.18-.83-.34-.22-.88.41-.37-.07-.73-.36-.74-.67,0-.68-.31-.47-.77a.71.71,0,0,0-.2-1,40.21,40.21,0,0,0,1-6.37,1.93,1.93,0,0,1,.21-.56.32.32,0,0,1,.38.06,5.58,5.58,0,0,0,2,1.61c.94.59,1.07.69,1.56-.29a.23.23,0,0,1,.32-.15,66,66,0,0,0,1.1,7,2.23,2.23,0,0,0,1.37,1.73,25.74,25.74,0,0,0,3.4.08.49.49,0,0,1,.46.14A21,21,0,0,1,26,122.34c.75.42,1.06.91.71,1.73,0,.51-.46.64-.8.81a17.1,17.1,0,0,1-6.35,1.76c-1.63.13-3.26.35-4.88.55a2.37,2.37,0,0,1-2.28-.87c-.24.29,0,.47.06.69-.27.22-.46,0-.59-.16a2.67,2.67,0,0,0-1.21-.87,3,3,0,0,1-1.33-1.2,2.65,2.65,0,0,0-2.16-1.47c-.58,0-.61-.34-.19-1.13a6.54,6.54,0,0,0-2.16.21c-.57.1-1.23.19-1.2,1.07,0,.41-.31.41-.54.14A4.2,4.2,0,0,1,2.48,122.54Z"/><path class="cls-9" d="M6.35,10.64a1.86,1.86,0,0,0,1.73.61c1,0,1.88.05,2.36,1.12.1.23.37.39.57.57s.71.29.55.73-.55.36-.86.41c-1.32.19-2.65.35-4.08.54a3.26,3.26,0,0,0,2.07.72,3.74,3.74,0,0,1,2.89,1c.38.38,1.41.79.46,1.66-.19.18.75,1.53,1.12,1.54.73,0,.87.45.93,1.06s-.38.73-.92.85a1.36,1.36,0,0,0-1.12,1.37,1.87,1.87,0,0,1-.51,1.3c-.38.4-1.09.67-.22,1.27a.35.35,0,0,1,0,.27c-.1.15-.22.07-.36,0-.74-.28-1.47-.62-2.24.05-.09.07-.75.36-1-.27-.14-.35-.53-.09-.82-.07-.83.06-1.7.11-2-1-.06-.24-.2-.35-.44-.29s-.61.2-.51-.28.13-.95.72-.75c1.1.4,1-.67,1-1s-.49-.55-1-.47c-1.12.2-1.24-.89-1.72-1.45A10.85,10.85,0,0,1,2.24,19c-.32-.48-.87-.94,0-1.57a2.33,2.33,0,0,0,.81-1.64c0-.26-.07-.65.24-.7a.92.92,0,0,1,.91.47c.17.41.31.74.76.49s0-.48-.13-.7,0-.35.16-.49.61,0,.87-.45L1.25,13.27c.62-1.77,2.25-2,3.73-2.4C5.41,10.76,5.89,10.74,6.35,10.64Z"/><path class="cls-10" d="M12.87,102c0-1.35,0-2.7,0-4.05A95.67,95.67,0,0,0,11.69,84a39.64,39.64,0,0,0-1.47-5.23c.57-1,1.27-.33,1.93-.15a3.89,3.89,0,0,0,3.54.85,10.82,10.82,0,0,1,2.39-1c.54-.09.94-.06,1.08.55A31.9,31.9,0,0,0,17,85.6a44.1,44.1,0,0,0-.86,6.67c-.12,1.75,0,3.5-.18,5.25s.31,3.74.46,5.62c.06.64.1,1.27.1,1.91-.19.44-.58.16-.87.25a3.24,3.24,0,0,0-1.26.59c-.25.21-.46.57-.85.32a1.13,1.13,0,0,1-.53-1.12A15.11,15.11,0,0,0,12.87,102Z"/><path class="cls-11" d="M11.23,73.54c.16-1.26,1.42-1.06,2-1,1.48,0,3,0,4.46.16.4,0,.52.54,1.09.32a2.2,2.2,0,0,0,1.55-2.18c0-.23-.24-.51-.05-.67.86-.77.93-2,1.77-2.81a.92.92,0,0,0,.2-.55c.22-1.8,1.18-3.36,1.59-5.1a3,3,0,0,1,.22-.57c.55-.13,1.1-.69,1.64.12.1.15,1.06-.48.53.52,0,.1.18.17.31.15.5-.06,1.1-1.32.72-1.58-.73-.53-.32-.74.14-1.06.22-.14.33-.43.55-.58s.14.11.18.2a28.59,28.59,0,0,1-2,8.09c-.59,1.72-1.31,3.38-1.89,5.11A12.6,12.6,0,0,1,22.43,75c-.63.91-1.32,1.77-2,2.66a2.14,2.14,0,0,1-1.56-1.75c0-.13-.21-.25-.28-.41-.36-1.75-.49-1.86-2.33-1.89a4.68,4.68,0,0,1-1.19-.16A8.93,8.93,0,0,0,11.23,73.54Z"/><path class="cls-12" d="M2.48,122.54c.67,0,.42.85,1,1.13-.16-.82-.05-1.25.91-1.46.56-.12,1.3.18,1.75-.41,0,.56,1.69-.57.81.85-.18.29,0,.65.44.46a.73.73,0,0,1,1.07.38c0,.05.08.15.12.15,1.06,0,.81,1.19,1.4,1.62a.92.92,0,0,0,.22.18A6.93,6.93,0,0,1,12.44,127a32.67,32.67,0,0,1-4,0,16.74,16.74,0,0,1-5.94-1.35C1.82,125.26,1.07,125,1,124S1.92,122.94,2.48,122.54Z"/><path class="cls-13" d="M12.87,102a8.46,8.46,0,0,1,.32,3.08,1,1,0,0,0,.49,1c.33.24.29-.32.47-.44a3.93,3.93,0,0,1,2.36-.58c.07,2.37.13,4.75.2,7.13a1,1,0,0,0-.17.24c-.12.35.15,1.07-.35,1s-1.39.32-1.51-.69c0-.09,0-.2-.17-.19-.83,0-1.49-.12-1.51-1.18,0-.13-.35-.26-.54-.39C12.63,108,12.92,105,12.87,102Z"/><path class="cls-4" d="M.24,30.17c.79-.33.44-1.08.45-1.58.06-2,.7-2.8,2.69-2.5,1.12.17,2.29-.05,3.37.42C6.31,27.18,5.62,27,5,27a1.83,1.83,0,0,0-2,1.72.82.82,0,0,1-.41.74.9.9,0,0,0-.24,1.47c.21.29.43.61.21.92-.42.61-.14,1.21,0,1.77s.55,1.11-.07,1.71c-.24.23.17.43.35.62.53.52.52.88-.19,1.09a1.09,1.09,0,0,0-.77,1.65c.47,1.1,0,2.13-.12,3.16A12.38,12.38,0,0,0,1.44,44c0,.57-.12,1.08-.9.68-.46-.44-.33-1-.3-1.54a44.89,44.89,0,0,0,0-4.64C.23,36.77.49,35,.44,33.26a7.18,7.18,0,0,0-.2-2.88Z"/><path class="cls-14" d="M18.73,75.49c.72.3.89.82.47,1.73.8-.54,1.29-.56,1.24.39A4.72,4.72,0,0,0,19.16,79c-.87-.81-1.66-.12-2.36.25-.35.19-.72.39-1.09.57-.17-.16-.29-.41-.57-.37A6.18,6.18,0,0,1,12,78.81c-.6-.18-1.2-.46-1.81,0a2.16,2.16,0,0,1-.64-.8c.39-.53.87-.27,1.26-.08.72.36.81-.32,1.06-.61s-.1-.56-.36-.77c-.53-.42-1.3-.72-.87-1.65a9.84,9.84,0,0,0,3,1.33c.39,1,1,.4,1.62.26C16.77,77.26,17.69,76.18,18.73,75.49Z"/><path class="cls-15" d="M11.25,117.88c.93-.09.63.49.51,1,0,.18-.34.3-.21.52s.44,0,.48,0c.34.23.82.48.9.81s-.35.59-.84.48c.3.58.73.45,1.16.4a1.76,1.76,0,0,1,2,1.44,1.08,1.08,0,0,0,.27.53c.42.45.24.74-.32.79a2.73,2.73,0,0,0-1.34.57c-.1.07-.27.22-.32.19-1.07-.65-1.53,0-1.86,1,0-1-.39-1.48-1.33-1.48-.2,0-.2-.2-.18-.28.21-.86-.6-1.88.45-2.6.26-.18,0-.43-.05-.64A8.12,8.12,0,0,0,11.25,117.88Z"/><path class="cls-16" d="M28.3,22.44c.24-.21-.15-.74.41-.78-.11.69.34,1.32.2,2a11.61,11.61,0,0,0,.23,4.07,17,17,0,0,1,.22,3.84c-.36.32-.36.32-1.16.15-.26,1.15,0,2.33-.23,3.48,0,.31,0,.8-.38.81s-.34-.5-.46-.8a.65.65,0,0,1,0-.2c.19-1.93,0-3.88.18-5.81a2,2,0,0,1,.58-1.12,2.5,2.5,0,0,1-.81-.47c-.5-.51-.64-1.35-1.44-1.58-.29-.21-.26-.42,0-.67a2.28,2.28,0,0,1,1.1-.85A1.92,1.92,0,0,0,28.3,22.44Z"/><path class="cls-17" d="M10.62,74.87a1.65,1.65,0,0,0,1.17,1.49c.49.15.52.51.55.93s-.26.31-.31.4c-.71,1.19-1.67,0-2.45.3a17.28,17.28,0,0,0-2-2.85c0-.19.62,0,.27-.43s-.26-.75-.66-1.06c.43,0,1.27.53.8-.54v0c1.11-.93.29.8.89.59.42-.14.79-.62,1.38-.16.43.33.38-.41.7-.44.17.25-.08.44-.08.67A1.2,1.2,0,0,1,10.62,74.87Z"/><path class="cls-18" d="M27.33,35.25l.34.75a28.41,28.41,0,0,0,.08-4.1c-.05-.55.28-.75.76-.49.28.14.49.47.85.17.39.55.15,1.18.17,1.77,0,1.31,0,2.62,0,3.94,0,.29,0,.58-.06,1-.19-.17-.3-.24-.38-.33s.16-.66-.3-.61a2.09,2.09,0,0,0-1,.47.65.65,0,0,0,.13.84c.43.36,0,1-.85,1.08a3.83,3.83,0,0,1,0-1.43c0-.06,0-.13,0-.19A4.07,4.07,0,0,1,27.33,35.25Z"/><path class="cls-3" d="M.24,30.38a.86.86,0,0,1,.48.92,40.45,40.45,0,0,1-.1,4.27,22.61,22.61,0,0,0,0,4.65c.15,1.48-.59,3,.07,4.4,0,.13.13.27,0,.4a.43.43,0,0,1-.41.21,50.49,50.49,0,0,1-.19-7.58A53.5,53.5,0,0,1,.24,30.38Z"/><path class="cls-19" d="M26.69,124.07a1.36,1.36,0,0,0-1.07-1.64A28,28,0,0,0,23,121.27s0-.07,0-.09,0-.05.07-.08a6.21,6.21,0,0,1,3.32,1.2A1.08,1.08,0,0,1,26.69,124.07Z"/><path class="cls-20" d="M29.14,27.74a5.85,5.85,0,0,1-.5-2.85c0-.37-.11-.88.27-1.22C28.93,25,29.23,26.37,29.14,27.74Z"/><path class="cls-9" d="M1.26,14.51a7.73,7.73,0,0,0,.24,2.56,1,1,0,0,1-.44,1.3C1.17,17.09.82,15.78,1.26,14.51Z"/><path class="cls-21" d="M22.58,121c-.07.15-.16.36-.34.32a16.89,16.89,0,0,0-3-.17s-.07,0-.07,0a1.1,1.1,0,0,1,0-.18C20.32,121,21.46,120.52,22.58,121Z"/><path class="cls-4" d="M3.5,65.37l-.21-.2a.4.4,0,0,1-.2-.41c.41.07-.12-.74.51-.53.32.11.71.14.79.48s-.41.23-.57.43A1.09,1.09,0,0,1,3.5,65.37Z"/><path class="cls-9" d="M.65,45c0-.13-.22-.27,0-.4.49.22.66-.08.58-.47a8,8,0,0,1,.29-2.51,6.1,6.1,0,0,0,.15-2.7c-.49-1.45-.39-1.52,1-2.14.14-.07.33-.18.36-.31s-.15-.34-.35-.4c-.87-.3-.9-.74-.2-1.27.3-.23.23-.28,0-.63-.34-.66-.82-1.46-.24-2.24.31-.42.15-.59-.15-.91a1.11,1.11,0,0,1,.32-1.83c.15-.1.51-.1.37-.35-.48-.87.24-1.11.66-1.6a1.49,1.49,0,0,1,1.75-.51,2.1,2.1,0,0,0,1.56-.24h2a7.89,7.89,0,0,0,2.75.95,2.19,2.19,0,0,1,1.45,1,1.92,1.92,0,0,0,1.19.89c.42.15.65.51.26.84s-.26.62,0,.94c.34.49.49.93-.15,1.36s-.21.76.13,1.08a1.55,1.55,0,0,0,.76.24c.31.08.59.21.64.57a.76.76,0,0,1-.41.75,3.58,3.58,0,0,1-1.45.71c-1.45.29-2.05,1.49-2.83,2.51a4.82,4.82,0,0,1-.47.77c-.44.46-.87.87,0,1.43.61.42.06,1,0,1.49a2.09,2.09,0,0,0,.3,1.57A2.21,2.21,0,0,1,10.79,46,11.37,11.37,0,0,1,7.7,49a4.38,4.38,0,0,1-3.39.44c-.66-.1-1.27-.37-1.91-.51-1.06-.24-1.81-1.18-1.35-2.12S.89,45.58.65,45Z"/><path class="cls-22" d="M10.62,39.13A6.17,6.17,0,0,1,11.74,37c.79-1.27,2.08-1.23,3.09-1.84.34-.21.87-.32.77-.81S15,34,14.65,34c-.75,0-.81-.67-1.05-1.08s.22-.63.58-.75.5-.28.2-.63-.34-.58-.57-.81-.4-.55.18-.6c.2,0,.44,0,.44-.3s-.23-.31-.43-.3a1,1,0,0,1-.93-.52c-.65-1.45-2.05-1.4-3.27-1.73-.46-.12-.94-.2-1-.8a8.91,8.91,0,0,1,3.8.64,6.45,6.45,0,0,0,2.32.16,1.39,1.39,0,0,1,1.17.46,2.78,2.78,0,0,0,2.06,1c.57,0,1,.66,1.39,1.18s.66.72,1,0c.09-.21.35-.35.42-.56.26-.84.78-.82,1.4-.45.22.13.43.26.65.07s0-.38-.17-.53,0-.41.12-.58c.53-.69.4-1-.5-1,0-.5.39-.53.67-.57.87-.1,1.71-.32,2.58-.41,1.06,0,1,1,1.45,1.6a1.08,1.08,0,0,1,.4,1.39c-.22,2.1.1,4.22-.2,6.32-.17.94.18,1.93-.24,2.85-.53.06-.56-.26-.61-.68a15.43,15.43,0,0,0-.92-4,3.31,3.31,0,0,1,.11-2.86c-.74-.4-1.47-.91-2.2,0-.15.21-.46.11-.66.19-.64.27-1.45.39-1.33,1.42,0,.24-.05.67-.21.75-1.09.53-1,1.68-1.44,2.56-.31.64.23,1.25-.1,1.94-.18.39-.26.57-.68.65-1.06.21-2.24.1-3.08,1a.31.31,0,0,1-.52,0c-.13-.17-.06-.31.1-.42s.49-.38.24-.66-.5,0-.68.16a.61.61,0,0,1-.64.15c-.27-.06-.56.09-.52.34.22,1.27-.59.68-1.1.64-.64-.22.71-.61,0-.76-.43-.09-.67.43-1.08.49S11,39.1,10.62,39.13Z"/><path class="cls-23" d="M25.68,25.94a3.36,3.36,0,0,1-2.15.58,1.66,1.66,0,0,0-1.1.4,1.35,1.35,0,0,0-1.23,1,.37.37,0,0,1-.14.2,3.07,3.07,0,0,1-3.36-.88c-.09-.17.72-1.11,1-1.17,2.27-.51,4.63-.6,6.85-1.38.39-.13.75-.19,1-.56.09-.14.24-.35.36-.34,1,.05,1.24-.5,1.24-1.33,0,0,.12,0,.18,0,0,1.63,0,1.7-1.54,2.23A1.69,1.69,0,0,0,25.68,25.94Z"/><path class="cls-4" d="M12.78,62.53c.47.35.51.67.25,1a.23.23,0,0,1-.35.06C12.3,63.25,12.68,63,12.78,62.53Z"/><path class="cls-4" d="M4.51,66.19c.07.22.34.53-.14.58s-.59-.4-.67-.79Z"/><path class="cls-22" d="M27.11,38.29a1.27,1.27,0,0,1,0,1.43C26.53,39.48,26.54,39,27.11,38.29Z"/><path class="cls-5" d="M22.84,42.2c.32-.26.48-.6.88-.51a.4.4,0,0,1,.05.35C23.58,42.39,23.3,42.47,22.84,42.2Z"/><path class="cls-24" d="M10.62,74.87c.08-.37-.08-.8.25-1.12l.36-.21a4.65,4.65,0,0,1,3.26-.48,6.92,6.92,0,0,0,2.5.19c.9-.13,2,.61,1.74,2.24A4.57,4.57,0,0,1,17,77c-.63.43-1.13-.37-1.74-.43a1.46,1.46,0,0,1-1.61-.18c-.18-.09-.37-.27-.53-.24A2.77,2.77,0,0,1,10.62,74.87Z"/><path class="cls-17" d="M8,73.11a21.53,21.53,0,0,1-2-2.76c-.32-.45.21-.77.5-1.06s.67,0,1.07.55c0-1.25-.81-2-.62-3.14.54,1.39,1.79,2.19,1.9,3.65,0,.4.33.22.53.12.64-.31.66-.09.54.5a14.06,14.06,0,0,0-.11,2c-.37-.42-.42-.87-1.09-1.08-1.22-.38-.95.09-.75.78a1.84,1.84,0,0,1,0,.41Z"/><path class="cls-25" d="M12,78.81c.26-.47.43-.2.62.06s.29.38.49.2,0-.34.06-.61c.26,1.27,1.2.66,1.85.73.45.06.71.13.66.63A4.26,4.26,0,0,1,12,78.81Z"/><path class="cls-6" d="M27.2,62c.18.4-.17.61-.09,1C26.47,62.43,26.47,62.43,27.2,62Z"/><path class="cls-26" d="M13.68,76.39c.56-.13,1.07.2,1.61.18C14.46,77.27,13.89,77.2,13.68,76.39Z"/><path class="cls-27" d="M27.53,28.93a3.42,3.42,0,0,0-.4-1.39C28.26,27.73,28,28.3,27.53,28.93Z"/><path class="cls-4" d="M8,47.78a1,1,0,0,1-1.25.39A1,1,0,0,1,8,47.78Z"/></g></g></g></g></svg>