<svg xmlns="http://www.w3.org/2000/svg" viewBox="0 0 117.93 116.1"><defs><style>.cls-1{isolation:isolate;}.cls-2{mix-blend-mode:multiply;}.cls-3{fill:#f7f6ec;}.cls-4{fill:#f7f6ea;}.cls-5{fill:#caab86;}.cls-6{fill:#ead7bc;}.cls-7{fill:#f5e7c5;}.cls-8{fill:#f0dfcb;}.cls-9{fill:#bb996d;}.cls-10{fill:#c0a483;}.cls-11{fill:#c3a27a;}.cls-12{fill:#cfb28f;}.cls-13{fill:#e0c4a6;}.cls-14{fill:#c4a37a;}.cls-15{fill:#dec9aa;}.cls-16{fill:#cbae8a;}.cls-17{fill:#e2c8a7;}.cls-18{fill:#c0a47e;}.cls-19{fill:#b49064;}.cls-20{fill:#c2a27c;}.cls-21{fill:#d6bb9c;}.cls-22{fill:#a5937a;}.cls-23{fill:#8f7e60;}.cls-24{fill:#eedfc9;}.cls-25{fill:#a19074;}.cls-26{fill:#a49179;}.cls-27{fill:#c8bba7;}.cls-28{fill:#9f907d;}.cls-29{fill:#f4ebd4;}.cls-30{fill:#f4f2e4;}.cls-31{fill:#eeddba;}.cls-32{fill:#d2ba99;}.cls-33{fill:#eccaa4;}.cls-34{fill:#dec3a1;}.cls-35{fill:#f1e6d0;}.cls-36{fill:#f4eddb;}.cls-37{fill:#f4ecd8;}.cls-38{fill:#dec6a6;}.cls-39{fill:#e3c4a8;}.cls-40{fill:#6e5e42;}.cls-41{fill:#d8c2a4;}.cls-42{fill:#cbb08b;}.cls-43{fill:#efdfbf;}.cls-44{fill:#f6f4e7;}.cls-45{fill:#e3d0b3;}.cls-46{fill:#f0eee6;}.cls-47{fill:#9d8d72;}.cls-48{fill:#ead6b8;}.cls-49{fill:#dfded4;}.cls-50{fill:#e8d4b7;}.cls-51{fill:#a7997d;}.cls-52{fill:#8a795c;}.cls-53{fill:#ceb393;}.cls-54{fill:#e9d2bc;}.cls-55{fill:#c3b7a2;}.cls-56{fill:#ebd3b7;}.cls-57{fill:#c3ae92;}.cls-58{fill:#e5c8ad;}.cls-59{fill:#e4e1d4;}.cls-60{fill:#ddbfa1;}.cls-61{fill:#c1b29d;}.cls-62{fill:#a39174;}.cls-63{fill:#b3a287;}.cls-64{fill:#dfc4a4;}.cls-65{fill:#af9f83;}.cls-66{fill:#beaf96;}.cls-67{fill:#dfbc9d;}.cls-68{fill:#e6cbb2;}.cls-69{fill:#c4b49e;}.cls-70{fill:#ceb292;}.cls-71{fill:#a89478;}.cls-72{fill:#f3ead7;}.cls-73{fill:#e4c6ac;}.cls-74{fill:#d4b896;}.cls-75{fill:#b7a890;}.cls-76{fill:#9c8d70;}.cls-77{fill:#7a694d;}.cls-78{fill:#d5ba98;}.cls-79{fill:#f1d9b0;}.cls-80{fill:#caad88;}.cls-81{fill:#e2c3a1;}.cls-82{fill:#6e5e43;}.cls-83{fill:#956133;}.cls-84{fill:#ecd0ab;}.cls-85{fill:#d0ac86;}.cls-86{fill:#f1e2c4;}.cls-87{fill:#8d6035;}.cls-88{fill:#bfa37e;}.cls-89{fill:#f1deb8;}.cls-90{fill:#af7c4d;}.cls-91{fill:#e5c7a3;}.cls-92{fill:#d7ccb4;}.cls-93{fill:#b0a082;}.cls-94{fill:#aa8152;}.cls-95{fill:#887556;}.cls-96{fill:#f4ead3;}.cls-97{fill:#e0c2a4;}.cls-98{fill:#c09a6f;}.cls-99{fill:#c6a982;}.cls-100{fill:#8b7a5d;}.cls-101{fill:#d4b290;}.cls-102{fill:#d5b693;}.cls-103{fill:#af8a60;}.cls-104{fill:#8f7d5f;}.cls-105{fill:#968469;}.cls-106{fill:#6c5b3f;}.cls-107{fill:#e2bf99;}.cls-108{fill:#9b8b6f;}.cls-109{fill:#bf9f79;}.cls-110{fill:#f2d8b2;}.cls-111{fill:#e7d8b7;}.cls-112{fill:#c6baa6;}.cls-113{fill:#b7a68c;}.cls-114{fill:#a07041;}.cls-115{fill:#ddb98f;}.cls-116{fill:#d9c9ad;}.cls-117{fill:#e8d6b6;}.cls-118{fill:#b18758;}.cls-119{fill:#9c8965;}.cls-120{fill:#a3967c;}.cls-121{fill:#bb9367;}.cls-122{fill:#bc8f60;}.cls-123{fill:#c7ba9f;}.cls-124{fill:#cdb18c;}.cls-125{fill:#bbb097;}.cls-126{fill:#ab9a80;}.cls-127{fill:#d4be9f;}.cls-128{fill:#c7a67f;}.cls-129{fill:#a78a68;}.cls-130{fill:#cac1af;}.cls-131{fill:#87795e;}.cls-132{fill:#c1b8a6;}.cls-133{fill:#d1b798;}.cls-134{fill:#e2caac;}.cls-135{fill:#695431;}.cls-136{fill:#906537;}</style></defs><g class="cls-1"><g id="Capa_2" data-name="Capa 2"><g id="Capa_1-2" data-name="Capa 1"><g class="cls-2"><path class="cls-3" d="M2.81,69.79,3,69.13c.35-.17.61.08.89.22A5,5,0,0,0,6.49,70c.86-.07,1-.29,1.14-1.14a4.24,4.24,0,0,1,.15-.79,37.13,37.13,0,0,1,.71-4.45,5.2,5.2,0,0,0-.08-3.33A1.7,1.7,0,0,0,7,59.13c-1-.15-1.9-.38-2.85-.62-.3-.08-.73-.07-.69-.59a9.7,9.7,0,0,1,4.08-.29c.94.07,1,0,1-.93a13.72,13.72,0,0,0-.09-1.93,26.32,26.32,0,0,1,.34-5.4c.27-2.24,0-2.61-2.13-3.36a18.21,18.21,0,0,0-2.8-.79c-.63-.12-1.27.34-1.89,0-.08-.61.38-.69.8-.81s.79,0,1.17,0c1.18.28,2.32.71,3.5,1s2.4-.15,2.33-1.68a1.52,1.52,0,0,1,.18-.7,7.39,7.39,0,0,0,.66-2.42,9.79,9.79,0,0,1,.51-2.28A18.93,18.93,0,0,0,11.75,36a2.07,2.07,0,0,0-1-2.37,9.06,9.06,0,0,0-3.43-1.77A.41.41,0,0,1,7,31.63a.77.77,0,0,1,.6-.3c.33-.06.58-.23.54-.63a29.3,29.3,0,0,1,3.13,1,4.59,4.59,0,0,0,1.27.23A1.38,1.38,0,0,0,14,30.28a4.16,4.16,0,0,1,1-3.39l1.55-2.26a35.88,35.88,0,0,1,3.08-4.17c.68-.72.62-.81-.27-1.25a5.91,5.91,0,0,0-1.21-.46c-.21-.06-.52,0-.51-.39.27-.27.55-.44.92-.15a.53.53,0,0,0,.73,0,.25.25,0,0,0,0-.36.72.72,0,0,0-.71-.31h-.08c-.25,0-.55.31-.73,0s.29-.4.34-.65c.37-.4.9-.34,1.36-.45a16.07,16.07,0,0,1,2.09-.19,1.49,1.49,0,0,1,1.18.46c.26.27.54.53.83.78a4.45,4.45,0,0,0,2.33,1.21,6.65,6.65,0,0,1,1.83.64c1.28.59,2,.3,2.59-1A11.44,11.44,0,0,1,32.89,15a10.1,10.1,0,0,0,1.38-1.69,17.89,17.89,0,0,1,1.33-1.93,1.2,1.2,0,0,0-.37-2c-.43-.27-.91-.47-1.34-.75s-.69-.52-.23-1c.4,0,.66-.5,1.11-.33A2.66,2.66,0,0,0,37.3,9c.77,0,1.52.34,2.3.4a7.07,7.07,0,0,0,4.09-1A1.52,1.52,0,0,1,44.58,8c.58.3.31.68,0,1a1,1,0,0,0-.27,1.25c.23.45.67.39,1.07.36a16.89,16.89,0,0,1,2.56.31,8.55,8.55,0,0,0,1.11.18c.24.06.51.12.54.42s-.24.33-.44.41-.35.13-.52.21c-1.08.41-1.58,1.43-2.28,2.22a31.35,31.35,0,0,0-3.52,5.31C42,21.2,42.44,22,44.21,22.19a2.57,2.57,0,0,0,.48,0,6.18,6.18,0,0,1,3.27.69,8.27,8.27,0,0,0,3.47.61,1.58,1.58,0,0,1,1.15.29,3.14,3.14,0,0,0,2.07.47,4.76,4.76,0,0,1,1.73.21,4.48,4.48,0,0,0,1.84.47c.29,0,.45.16.27.47-1.07.2-1.42,1-1.64,1.93a13.61,13.61,0,0,0,0,5c.14,1,.34,2,.46,3a1.46,1.46,0,0,0,1.12,1.41,20.69,20.69,0,0,0,7.32,0,14.38,14.38,0,0,0,1.6-.25,1.06,1.06,0,0,0,.82-1.06A16.83,16.83,0,0,0,68,32.67a35,35,0,0,1-.3-5,1.42,1.42,0,0,0-.79-1.46c-.76-.89-.77-1-.13-1.95A3.19,3.19,0,0,0,67.43,22,6,6,0,0,1,68,19.42c.19-.57.91-.58,1.48-.61a.75.75,0,0,1,.89.62c.12.44.44.42.74.15s.34-.36.61-.38a.54.54,0,0,1,.5.2.3.3,0,0,1,0,.44c-.67.5-.48,1.33-.71,2a3.49,3.49,0,0,1-.86,1.44,8.16,8.16,0,0,0,4.72-.17c.7-.22,1-1.39.57-2.35a4.62,4.62,0,0,1-.48-2.5c.74-.45,1,.17,1.17.63a8.07,8.07,0,0,0,1.8,2.95,4,4,0,0,0,.55.47,5.7,5.7,0,0,0,1.39.71,2.17,2.17,0,0,0,1.86.07A19.93,19.93,0,0,0,85.58,22c.1,0,0-.05.07,0,1.17.2,2.43,0,3.5.71a11.4,11.4,0,0,0,1.93,3,24.28,24.28,0,0,1,2.33,4,22.65,22.65,0,0,0,1.14,2.32,1.3,1.3,0,0,0,1.19.69,6.11,6.11,0,0,0,2.08-.23,6.29,6.29,0,0,1,2.33-.26,2,2,0,0,0,1.45-.36c.23-.14.45-.3.69-.43a1.81,1.81,0,0,0,.95-2.61,11.12,11.12,0,0,0-1-2.29c-.71-1.15-1.16-2.43-1.86-3.58a.44.44,0,0,1,0-.39c.2-.16.39-.06.59,0a21.44,21.44,0,0,1,2.43,4.43,17.17,17.17,0,0,0,.88,1.9c.42.73.71.88,1.52.61a27.59,27.59,0,0,0,2.75-1.16c.31-.13.58-.4,1-.28a.75.75,0,0,1-.26.64c-.22.2-.68.27-.49.7s.52.18.83.19,1,0,.9.69c-.27.2-.52,0-.76-.06a4.37,4.37,0,0,0-2.7.08,1.35,1.35,0,0,0-1,2.05c.43,1.13,1.07,2.17,1.58,3.27a38.86,38.86,0,0,1,1.52,3.73,2.83,2.83,0,0,1,.18.63c0,.21.06.46-.19.55s-.29-.2-.42-.3a32,32,0,0,1-3.8-6.72c-.37-1-.89-1.26-2-.93a8.16,8.16,0,0,0-1.46.43.94.94,0,0,1-.22.07,2,2,0,0,0-1.27.68c-1.23.85-1.39,1.28-.88,2.7s.74,2.75,1.28,4.06A32.93,32.93,0,0,0,102,44.48a1.15,1.15,0,0,0,1.19.78,3.37,3.37,0,0,0,1.27-.23A37.85,37.85,0,0,1,108,43.71a1.58,1.58,0,0,0,1.24-1.66,1.29,1.29,0,0,1,.21-.77c.26-.18.41,0,.51.21.45.65,1,.52,1.56.21.93-.52,1.85-1.07,2.78-1.58.23-.13.42-.37.72-.19.09.89-.65.9-1.23,1.12.55-.14,1,.61,1.63,0,.23-.24.52.16.57.46a7.34,7.34,0,0,1,0,1,.25.25,0,0,1-.22,0c-.78-.8-1.1-.82-2.1-.39a5,5,0,0,0-2.74,5.27,17.28,17.28,0,0,1,.28,2.4,9.35,9.35,0,0,0,.51,2.77,3.7,3.7,0,0,1,.07,2.54,3.47,3.47,0,0,0-.16.71c0,.29-.12.65.2.8s.41-.19.57-.35a1.1,1.1,0,0,1,1.59-.16,2.87,2.87,0,0,0,2.27.28,1.17,1.17,0,0,0,.93-1.34c0-1.05.11-2.1,0-3.15,0-.31-.16-.64.16-.9a.75.75,0,0,1,.44.86c-.11,1.38.46,2.76,0,4.14-.11.35.36.69,0,1-.78.33-1.63.31-2.43.56a9.73,9.73,0,0,0-2.66,1.13A1.27,1.27,0,0,0,112,60a40.18,40.18,0,0,1-.7,6.37c-.23.89-.1,1.82-.32,2.72a.78.78,0,0,0,.41.83c.31.16.39-.21.57-.34a3.52,3.52,0,0,1,1.85-.76,2.07,2.07,0,0,0,2.16-1.7c0-.23.13-.55.51-.5a4.73,4.73,0,0,1-.61,2.11c-.25.61-.25,1,.28,1.45-.19.45-.63.45-1,.55a12.27,12.27,0,0,0-2.83,1,1.29,1.29,0,0,0-.76.88,34.52,34.52,0,0,1-2.48,6.24,1.65,1.65,0,0,0-.24.92,1.49,1.49,0,0,1-.33,1.13c-.16.22-.35.46-.15.73s.54.2.82.09c.55-.22,1.09-.49,1.65-.68s1.15-.53,1.76-.1c0,.18-.1.33-.3.31-.54-.06-.76.24-.82.72-.09.65-.64.83-1.13,1a8.19,8.19,0,0,1-2.13.46,2.76,2.76,0,0,0-2.86,2.36,1.67,1.67,0,0,1-.37.71,16.11,16.11,0,0,0-1.34,2.12c-.6,1.18-1.65,2-2.28,3.21a10.92,10.92,0,0,0-1.14,1.64.56.56,0,0,0,0,.67c.17.2.39.12.59.05.36-.12.74-.13,1.09-.27s.85-.36,1.3-.5c.3-.06.62,0,.92-.09a7.49,7.49,0,0,0,2.14-.4c.15.06.29.14.31.33-.38,0-.44.52-.71.57a3.38,3.38,0,0,1-1.79.11,1,1,0,0,0-1.2.47c-.48.78-.59.71.25,1.32a.35.35,0,0,1,.08.13c-.3.3-.71.21-1.07.28a19.46,19.46,0,0,0-3.69.89.92.92,0,0,1-1.07-.1,1.41,1.41,0,0,0-1.36-.3,35.83,35.83,0,0,1-7.23.81,2.06,2.06,0,0,0-1.41.7c-2.06,2.6-4.7,4.75-6.14,7.84a1.87,1.87,0,0,1-1.08.93,18.07,18.07,0,0,1-4.08.56,5.42,5.42,0,0,0-2.26.59,17.53,17.53,0,0,1-8.3,1.84c-.84,0-1.66.22-2.5.15a6.47,6.47,0,0,0-2.54.39,9.89,9.89,0,0,1-4.16-.14,9.59,9.59,0,0,0-1.93-.07.81.81,0,0,0-.77.51c-.12.33.1.56.31.78a4.27,4.27,0,0,0,1,.7c.36.24.77.39,1.14.61s.58.59,0,.89l-.63.14a5.14,5.14,0,0,1-2.55-.73,30.32,30.32,0,0,0-7.14-2.57,6.45,6.45,0,0,0-3.12-.25,3.38,3.38,0,0,1-2-.26,16.72,16.72,0,0,0-2.94-.84c-.36-.07-.75-.14-.87-.59,0-.67.46-.61.9-.57a15.18,15.18,0,0,0,3.68.26h.24c.72-.07.89-.36.53-.9s-.68-1-1.06-1.52c-.6-1.11-1.41-2.09-2-3.23a1.93,1.93,0,0,0-.56-.68,2.09,2.09,0,0,1-.58-.67,2.64,2.64,0,0,0-.73-.86,10.17,10.17,0,0,0-5.17-2.26C30.16,98,28.27,98,26.38,98c-.41,0-.85,0-1.06.42s.08.78.31,1.11a7.87,7.87,0,0,0,2.68,2.05,12.31,12.31,0,0,1,2.92,2.3,11.52,11.52,0,0,0,2.27,2c.28.18.55.39.3.79a1.11,1.11,0,0,1-1.54.16,30,30,0,0,1-4.15-3,21.28,21.28,0,0,1-3.85-4.36,5.15,5.15,0,0,0-4.41-2.3,2.61,2.61,0,0,1-1.38-.4A5.22,5.22,0,0,0,15.15,96c.06-.2-.51-.33,0-.63.22-.13-.25-.48-.77-.56S13,95,12.72,94.16c.32-.56.73-.51,1.23-.23a15.91,15.91,0,0,0,3.53,1.36,2.39,2.39,0,0,0,.88.1.66.66,0,0,0,.67-.88,2.83,2.83,0,0,0-.53-1.17c-.53-.71-1-1.49-1.49-2.21a8.78,8.78,0,0,1-1.43-3.32,2.68,2.68,0,0,0-2-2.1A37,37,0,0,0,7.78,84.1a.41.41,0,0,1-.26-.17c.32-.64.86-.3,1.31-.28a4.62,4.62,0,0,0,1.53,0c-.4-.23-.7-.65-1.27-.41a.36.36,0,0,1-.52-.45c.26-.53,0-.49-.38-.66A8.46,8.46,0,0,1,5.74,80.5c.48-.27.83.06,1.19.26A10.43,10.43,0,0,0,9.16,81.9c.67.19.87.06,1-.64a2.39,2.39,0,0,0-.1-1,60.84,60.84,0,0,1-1.42-7.06,3.64,3.64,0,0,0-.23-.86c-.38-1.16-.58-1.27-1.77-1a1.42,1.42,0,0,1-1-.14c-.81-.37-1.61-.76-2.43-1.11A.63.63,0,0,1,2.81,69.79Z"/><path class="cls-4" d="M100.89,22.58l-.5-.16c-.44.08-.65-.25-.82-.53-.6-1.05-1.54-1-2.63-.65a7.93,7.93,0,0,1-2,.76c-.62-.74-.85-.81-2.08-.58,0,.32.83,0,.46.63a6.47,6.47,0,0,1-1.58.16,8.59,8.59,0,0,0-2.7.54.52.52,0,0,0-.5-.33,4.33,4.33,0,0,1-2.43-.4c-.06,0-.2-.05-.22,0-.48.65-1.32.39-1.87.72a8.65,8.65,0,0,1-3.22.78c-.27,0-.4-.22-.53-.43a13.54,13.54,0,0,0,2-1.15.37.37,0,0,0,.14-.07v-2c-.88-.3-.43-.72,0-1.17a4,4,0,0,1-1.17-.39,1,1,0,0,1-.57-.74.88.88,0,0,1,.42-1c.35-.16.51.19.7.4s.18.28.41.31a7.44,7.44,0,0,0-1.73-1.5c-.45-.32-.87-.67-.61-1.33a.46.46,0,0,0-.22-.63c-.48-.24-.81-.74-1.39-.8-1.11-.56-2.15-.08-3.18.25-.79.25-.46.82-.26,1.32.3.71.25.81-.47.94a3.79,3.79,0,0,1-1.51-2c-.33-1.14-.47-1.26-1.61-1.28-.65,0-1.23-.09-1.51-.82-.19-.48-.72-.25-1.1-.41.62.76.48,1.27-.44,1.47-.46.1-.58.3-.52.72.16,1.15.07,1.23-1.12.9a1.77,1.77,0,0,1-.29,1.27c-.13.14-.22.31-.43.34a.41.41,0,0,1-.37-.12c-.46-.51-1.61-.18-1.57-1.3a1.57,1.57,0,0,0-.47-1.09,2.68,2.68,0,0,1-.75-1.67c0-.58-.37-.8-.93-.73a1.82,1.82,0,0,1-1.25-.18,1,1,0,0,1-.55-1.21c.14-.66,0-1.25-.74-1.47a.49.49,0,0,1-.39-.55c.13-.72-.36-.77-.86-.88-1.06-.21-1.16-.33-1.13-1.19a.46.46,0,0,1,.13-.18c.26-.15.52,0,.78,0,1,0,1.31-.21,1.68-1.41A4.32,4.32,0,0,1,60.7,2.58c.72-.46,1.3-1,1.08-1.95a.36.36,0,0,1,.13-.29A24.4,24.4,0,0,1,65.24.7a42.86,42.86,0,0,0,4.33.5c.63.08,1.21.54,1.92.44.07.24-.13.34-.26.45-1,.83-1.08,1.42-.2,2.4l.28.29a3.69,3.69,0,0,0,.38.41c.55.5.46.9-.26,1.15-.2.07-.46,0-.61.21-.88,1-1.7.42-2.5-.11-.38-.25-.68-.59-1,.11-.14.35-.5.27-.78.18s-.49,0-.73.34a1.52,1.52,0,0,0-.25,1.66,1.24,1.24,0,0,1,0,.94c-.28.25-.41.5,0,.77.19.31-.11.55-.13.83.66-.38.66-.38,0-.93a.42.42,0,0,1,0-.54.68.68,0,0,1,1-.05c.33.2.55.27.76-.16s.62-.34,1-.13a2.68,2.68,0,0,0,.78.42c.76.18,1.12-.07,1.49-1a2.4,2.4,0,0,1-1,.86c-.18.05-.38.13-.52-.06a.45.45,0,0,1,0-.53,1.49,1.49,0,0,1,.37-.42c.21-.17.51-.34.56-.57.27-1.14,1.33-1.39,2.12-1.95a2,2,0,0,1,2-.35,14.37,14.37,0,0,0,1.74.3,2.12,2.12,0,0,1,.56.16,12.52,12.52,0,0,1,3.91,3.4,7.57,7.57,0,0,0,.83.87,2.82,2.82,0,0,0,.54.36c.39.18.42.43.21.78a1.78,1.78,0,0,0,.19,2,8.2,8.2,0,0,0,1.2,1.43c1.14,1.07,2.13,2.29,3.23,3.4a1.38,1.38,0,0,0,1,1,3.13,3.13,0,0,1,1,.79,2.78,2.78,0,0,0,1.36.62c.58.12,1.16.46,1.75,0a2.36,2.36,0,0,0,.58-.6c0-.11.22-.18.14-.31s-.18.09-.29.09a1,1,0,0,1-.52-1,1,1,0,0,1,.42-.71c.63.15.79.76,1.11,1.19.86,1.13.84,1.14,2.26.8a1.5,1.5,0,0,1,.47-.08.59.59,0,0,1,.27.14s.09.16.12,0,0,0,0-.08a1,1,0,0,1,.8-.66.39.39,0,0,1,.19.12c.89.78,1.56.7,2.14-.26a.3.3,0,0,1,.33.17c.36.76.93,1.39,1.36,2.11C100.9,22.11,101.06,22.32,100.89,22.58Z"/><path class="cls-5" d="M62.89,109.77c2.75-.28,5.56,0,8.22-1a8,8,0,0,0,1.14-.39,12.69,12.69,0,0,1,5.83-1.4,17.32,17.32,0,0,0,2.14-.34c.68-.14,1.32.23,2,.13.35,0,.36.38.53.64a1.27,1.27,0,0,1,1.37-.94c.59.12.45.81.42,1.43a2.41,2.41,0,0,1,1.32-.54,2.12,2.12,0,0,0,1.83-1.11c.07-.17.19-.35.42-.27s.23.28.18.47a2.64,2.64,0,0,1-1.2,2.06c-.11,0-.11.18,0,.27a.8.8,0,0,1-.68.35,1,1,0,0,0-1.13.66c-.23.44-.87.5-1.38.62-.2,0-.46,0-.63.06-2.77,1.52-5.85,2.16-8.82,3.09a15.83,15.83,0,0,0-2.29.43,10.88,10.88,0,0,1-2.13.82c-1.3.36-2.66.32-4,.58a19.35,19.35,0,0,1-4.92.66c-1.11-.08-2.19.15-3.33,0a35.65,35.65,0,0,0-4-.11,20.26,20.26,0,0,1-3.47-.57c-1.18-.23-2.36-.52-3.55-.69a36.06,36.06,0,0,1-7.24-1.82,4.27,4.27,0,0,1-1.35-.48c-.21-.5-.78-.58-1.09-1-.08-.09,0-.2,0-.3a.51.51,0,0,0,.05.38c-.5.45-.93,0-1.39-.09a.82.82,0,0,1-.62-.31,7.85,7.85,0,0,1-.49-.78.91.91,0,0,0-1.42-.43,1.35,1.35,0,0,1-.67-.6c-.21-.56-.55-.41-.86-.13-.16.14-.36.31-.45.09-.19-.51-.64-.77-.95-1.16-.19-.24-.23-.49.25-.63s1.1.24,1.44-.42c0-.09.46.17.64.38,0,0,0,.1.06.14.15.28,0,.77.47.82s.63-.25.92-.45.64-.39.76.2c0,.22-.14.56,0,.62.55.21.53.87,1,1.12s.54,0,.72-.2c.4-.43.74-.38,1.25-.1a2.47,2.47,0,0,0,1.76.47c.18,0,.29,0,.4.19a1.57,1.57,0,0,0,1.93.43,1.54,1.54,0,0,1,.95-.16,2.09,2.09,0,0,1-.25-.43,6.93,6.93,0,0,1,3.47.29,30.26,30.26,0,0,1,7.3,2.71,5.31,5.31,0,0,0,2.08.59.33.33,0,0,1,.37,0,.58.58,0,0,0,.27.09c-.12,0-.18-.1-.13-.22.46-.16.42-.38,0-.54a3.71,3.71,0,0,1-1.16-.62c-.19-.52-.17-.85.51-.55a1.75,1.75,0,0,0,1.11,0c.2,0,.37-.41.6-.09s.59.6.41,1a1.06,1.06,0,0,0,.12,1.19c.3.42.1.77-.38.92a3.13,3.13,0,0,1-1,.18.7.7,0,0,0-.68.37,2.4,2.4,0,0,0,2.48-.4c.53-.43.75-.31.78.33,0,.21.06.31.26.31s.59,0,.78-.17c.74-.85,1.6-.5,2.43-.24.41.13.86-.12,1.24.18.08-.44.59-.56.7-1a.82.82,0,0,0-.28-.87.19.19,0,0,0-.28,0c-.2.16-.44.5-.63.09s-.34-.89.15-1.24A15,15,0,0,1,65,111c-.56-.16-1,.52-1.42.14A1.89,1.89,0,0,1,62.89,109.77Z"/><path class="cls-6" d="M80.9,10.73a19,19,0,0,1-2-2.17,10.62,10.62,0,0,0-2.67-2.05c0-.66.34-.85,1-.64.15,0,.31.06.47.11s.31.14.45,0a.52.52,0,0,0,0-.54,1.2,1.2,0,0,0-.21-.34c-.19-.27-.27-.55,0-.8a.51.51,0,0,1,.78,0,.83.83,0,0,0,.48.92,12.21,12.21,0,0,1,2.2,1.5c.25.23.46.26.55-.18.18-.91.54-1.16,1.45-.92A14.17,14.17,0,0,1,88.3,8c.93.69,2,1.25,3,1.86a19.34,19.34,0,0,1,2.23,1.64A17.37,17.37,0,0,0,96,13a48,48,0,0,1,5.62,3.84,8.9,8.9,0,0,1,2.15,2.33c.33.53.88,1,1.3,1.56.9,1.19,1.93,2.29,2.76,3.52.55.81,1.07,1.64,1.63,2.45a1,1,0,0,1,0,1.21,22.55,22.55,0,0,1-3.5,1.6c-1.11.43-1.44.27-2-.77-.66-1.21-1-2.55-1.71-3.74-.47-.81-.91-1.64-1.37-2.46-.48-1.06-1.35-1.87-1.8-2.93-.57-.66-.8-1.52-1.33-2.21-.19-.24-.34-.67-.7-.55s-.27.59-.18.92a7,7,0,0,1,.25,1.27c0,.28.16.66-.32.76v0c-.11-.1-.08-.24-.07-.37s-.17,0-.07,0,.09,0,.06.05a1.44,1.44,0,0,1-2.22.08c-.24-.21-.33-.51-.79-.32s-.57-.26-.63-.6-.33-.59-.72-.76c-.68-.29-1.05-1.05-1.79-1.29-.09,0-.11-.18-.15-.28-.13-.32.33-.64.18-.79a.84.84,0,0,1-.15-1q.14-.33-.24-.39a3.8,3.8,0,0,1-2.37-1.2c-.29-.31-.94-.25-1.26-.63-.75-.87-2-.77-2.82-1.52a.56.56,0,0,0-.69-.06A1.91,1.91,0,0,1,80.9,10.73Z"/><path class="cls-7" d="M33.66,7.65c-.16.4,0,.65.37.83s.95.47,1.42.74a1.34,1.34,0,0,1,.44,2.16c-.91,1-1.38,2.23-2.3,3.17a28.42,28.42,0,0,0-2.31,2.6,5.25,5.25,0,0,0-.85,1.43c-.46,1.31-1.42,1.53-2.65,1a21.06,21.06,0,0,0-2.59-.82,6.08,6.08,0,0,1-2.64-1.92,1.41,1.41,0,0,0-1.23-.42c-1.09.11-2.16.29-3.25.44-.51-.27-.73-.6-.1-1s.55-1,1-1.4c1.24-.94,2.49-1.86,3.74-2.78s2.58-1.7,3.86-2.55a33.64,33.64,0,0,1,4.23-2.05,4.2,4.2,0,0,1,1.65-.34C33.14,6.8,33.52,7,33.66,7.65Z"/><path class="cls-8" d="M61.91.34a1.85,1.85,0,0,1-1,2.39c-.5.3-1,.68-1.42,1a2.18,2.18,0,0,1-1.56,1,3.16,3.16,0,0,0-1,.42h0A28.41,28.41,0,0,1,55,8.31a5.36,5.36,0,0,1-1.78,2.14,7.76,7.76,0,0,1-4,.72,6,6,0,0,1-1.26-.11c-1,.07-2-.38-3-.2a.7.7,0,0,1-.82-.6c0-.4-.35-.86.22-1.2a.72.72,0,0,0,.39-.94,6.73,6.73,0,0,1,2.17-2.3c.72-.41.76-.78.19-1.4-.28-.3-.49-.64-.75-.95a.93.93,0,0,1-.13-1.19,1.26,1.26,0,0,1,1.28-.49A5.13,5.13,0,0,0,51,1.52a1.47,1.47,0,0,1,.95-.14c.69.12,1.23-.3,1.83-.51C55.32.78,56.86.22,58.49.4A3.29,3.29,0,0,0,60.11.15C60.76-.28,61.3.36,61.91.34Z"/><path class="cls-9" d="M87.09,108.78c-.39-.09-.47-.26-.09-.47a1,1,0,0,1,.4,0c-.21-.58.51-.7.54-1s.23-.73.23-1.14c-.36,0-.33.29-.37.44a.7.7,0,0,1-.63.57c-.34.09-.67.35-1,.42-.53.09-1.13,0-1.44.63,0,.09-.58-.26-.42-.47.38-.48-.07-.77-.13-1.14-1,.43-1,.43-1.19,1.27,0,0-.12,0-.15,0a3.25,3.25,0,0,0-2.3-1.06c-.1,0-.18-.11-.27-.16.68-.4.89-1.12,1.25-1.74a24.58,24.58,0,0,1,3.58-4.55c.7-.73,1.34-1.53,2-2.29.49-.25.76,0,.91.43a.56.56,0,0,0,1,.27c.47-.49.58-.19.78.19a1.24,1.24,0,0,0,2,.62c.43-.21.87.09,1.27-.12a1.05,1.05,0,0,0,.28-.17c-.17-.12-.47-.17-.37-.47a.3.3,0,0,1,.47-.14c.36.21,1,0,1.08.56s-.4.92-.83,1.24c.57-.43,1.16-.17,1.74-.09.24,0,.32.26.24.51a.72.72,0,0,1-.14.2,1.21,1.21,0,0,0-.3,1c.17.39.64.07,1,.14s.54-.23.58.24c-.66.56-1.33,1.1-2,1.68A15.82,15.82,0,0,1,90,107.43C89,107.83,88.09,108.41,87.09,108.78Z"/><path class="cls-10" d="M7,31.63c1.87.12,3.22,1.28,4.54,2.41.84.7.45,1.76.29,2.67a6.41,6.41,0,0,1-.45,1.55c-.6,1.38-.32,3-1,4.3-.4.79-.18,1.69-.68,2.46a1.62,1.62,0,0,1-1.88.73c-1.7-.4-3.37-.91-5.05-1.38-.56-.55-.26-1.2-.08-1.75.77-2.48,1.23-5,2.19-7.48C5.44,33.85,5.8,32.49,7,31.63Z"/><path class="cls-11" d="M34.14,108c-.25.18-.32.51-.7.62a.74.74,0,0,1-1-.83c.06-.51-.37-.49-.47-.52-.28-.09-.11.33-.13.31-.36-.23-.66.3-1,.06s-.39.11-.6.08a.5.5,0,0,0,.35.5c.57.11.63.56.69,1.14.18-.62.73-.45,1-.75.15.21.41.37.23.69-.15,0-.34-.18-.44-.13-1.68.8-2.81-.44-4.1-1.09s-2.24-1.62-3.56-2.2a16.39,16.39,0,0,1-4.59-3.33,30.13,30.13,0,0,1-2.32-2.19,9.83,9.83,0,0,1-1.6-2c-.39-.76-1-1.42-.75-2.36a2.65,2.65,0,0,1,2.75.26,6.86,6.86,0,0,0,3.05.85A4.06,4.06,0,0,1,24,98.8,26.6,26.6,0,0,0,28.67,104a36.21,36.21,0,0,0,3.91,2.7c.43.28.75.08,1.08-.19A1.17,1.17,0,0,1,34.14,108Z"/><path class="cls-12" d="M117.3,51a26.74,26.74,0,0,1,.14,3.35c0,.77.15,1.66-.68,2.08a2.67,2.67,0,0,1-2.84-.1.91.91,0,0,0-1.48.2c-.19.23-.44.7-.72.53a1.09,1.09,0,0,1-.38-1.15c.22-1,.67-2,.23-3C110.78,51,111,49,110.65,47A5.06,5.06,0,0,1,114,41.71c1.17-.34,1.47-.24,1.94.84a9.88,9.88,0,0,0,.5,3.37c.3,1.55.45,3.13.68,4.69A1.69,1.69,0,0,0,117.3,51Z"/><path class="cls-13" d="M17.58,18.36a10.28,10.28,0,0,1,2.46,1c.32.19.46.35.13.72a36.27,36.27,0,0,0-3.78,5.11c-.79,1.28-1.9,2.39-2.25,3.94a1.57,1.57,0,0,0-.05.78c.41,1.5-.47,2.55-2,2.24A13.3,13.3,0,0,1,8.17,30.7c-.48-1.22.49-2,.93-2.92.55-1.14,1.22-2.21,1.74-3.36.15-.36.53-.61.75-.94A18.85,18.85,0,0,1,16,18.53C16.51,18.17,17.06,18.41,17.58,18.36Z"/><path class="cls-14" d="M7.52,83.93a17.13,17.13,0,0,1,4.24.89,14.55,14.55,0,0,1,2.92,1.12,2,2,0,0,1,1.09,1.61,12.37,12.37,0,0,0,2.51,5.08,5.48,5.48,0,0,1,1,1.75c.2.83-.1,1.25-.94,1.26A5.91,5.91,0,0,1,15.85,95,7.78,7.78,0,0,1,13.61,94c-.4-.36-.55.32-.89.2-.15-.64-.81-.83-1.15-1.3C9.82,90.46,8,88.14,7.11,85.21,7,84.67,6.61,84.11,7.52,83.93Z"/><path class="cls-15" d="M108.82,40l.36.44a13.15,13.15,0,0,0-.73-2.36c-.75-2-1.85-3.87-2.69-5.84a1.45,1.45,0,0,1,.88-2.13,4.48,4.48,0,0,1,3.82.09,21.43,21.43,0,0,1,2,2.76c.67,1.3,1.26,2.64,1.87,4a4.15,4.15,0,0,1,.63,3l-2.84,1.65c-.09.05-.17.12-.27.17-1.22.72-1.37.68-2.42-.51C109,41,108.51,40.66,108.82,40Z"/><path class="cls-16" d="M3.21,70a13.33,13.33,0,0,1,2.51,1.09,1.08,1.08,0,0,0,1,.06c.93-.38,1.46-.12,1.79.83.54,1.56.53,3.22,1,4.8.31,1.14.53,2.29.79,3.44a5.59,5.59,0,0,1,.12.56c.22,1.24-.3,1.69-1.46,1.31a10,10,0,0,1-2-1,3.19,3.19,0,0,0-1.18-.51,4.91,4.91,0,0,0-1.1-.61,2.56,2.56,0,0,1-1.19-2c-.2-1.19-.83-2.26-1-3.45-.15-1-.62-1.84-.73-2.83C1.56,70.22,1.78,69.91,3.21,70Z"/><path class="cls-17" d="M53.63,1A2,2,0,0,1,52,1.59a2.12,2.12,0,0,0-1.37.33,1.23,1.23,0,0,1-1.43.17c-.27-.19-.52,0-.77.08s-.45.16-.67,0c-.52-.46-1-.1-1.33.2s-.09.71.15,1.13c.34.58,1.13.85,1.12,1.69,0,.3,0,.52-.28.66a4,4,0,0,0-2.08,1.93c-.12.25-.45.17-.59.38a3.89,3.89,0,0,0-.66.29,7.3,7.3,0,0,1-5.89,1,10.41,10.41,0,0,0-1.74-.31,1.82,1.82,0,0,1-1.64-1.76,5.43,5.43,0,0,1,2.4-1.94,11.84,11.84,0,0,0,2.5-1.29c.56-.45,1.27-.21,1.85-.5s1.26-.55,1.89-.81a3.74,3.74,0,0,0,1.91-.57,6.92,6.92,0,0,1,4.4-.87c.8,0,1.5-.4,2.28-.34A6,6,0,0,0,53.46.84l.15,0a.13.13,0,0,1,.06.13S53.64,1,53.63,1Z"/><path class="cls-18" d="M116.46,66.58a.67.67,0,0,0-.32.53c-.18,1.4-1.13,1.8-2.37,1.91a2.23,2.23,0,0,0-2.12,1.33c-1-.63-1.14-.94-.81-2,.2-.65,0-1.34.23-2,.29.18.16.46.16.73a4.25,4.25,0,0,1,.46-.32c.15-.14.18-.16,0-.29s-.16-.39,0-.54c.51-.4.76-.83.22-1.4a.53.53,0,0,1-.07-.46c.27-1.13-.09-2.27.1-3.4a1.05,1.05,0,0,0-.16-.76c-.23-1.37,1-1.61,1.75-2a8.21,8.21,0,0,1,4.23-1c.53,2.23-.23,4.35-.55,6.52-.14.92-.81,1.75-.49,2.76C116.73,66.35,116.55,66.48,116.46,66.58Z"/><path class="cls-19" d="M101.16,91.72c.53-1.24,1.67-2.07,2.27-3.28A11,11,0,0,1,105,86.1c.39-.47.17-1.09.59-1.62a3.75,3.75,0,0,1,2.78-1.36,4.11,4.11,0,0,0,3.11-1.23c.55,0,.54.34.42.71-.33,1.05-.8,2.05-1.18,3.07-.47,1.26-1.26,2.34-1.78,3.57a10.74,10.74,0,0,1-2,2.59c-.29.33-.46.72-.75,1a2.12,2.12,0,0,1-2,.52c-.32,0-.81.32-.66-.44,0-.16-.76-.34-.91-.21l-.11.12c-.32.39-.81.78-1.21.61s-.17-.76-.1-1.18A1.51,1.51,0,0,0,101.16,91.72Z"/><path class="cls-20" d="M96.69,102.51c-.08-.16-.21-.12-.34-.09a1.58,1.58,0,0,1-1.72-.31c.63-.19.15-1.13.85-1.36,0,0-.06-.24-.16-.22-.56.11-1.22-.45-1.68.28a.34.34,0,0,1-.49.08c.23-.34.23-.82.81-.91.37,0,.23-.49.33-.73s-.27-.08-.41-.15-.56-.23-.89-.37c.05.45.43.36.58.54-.4.33-.77.73-1.35.39-.2-.12-.35,0-.49.15-.62.64-1.25-.07-1.88,0,0-.47-.46-.74-.45-1.31-.27.5-1.51.83-1.74.56s.36-.1.2-.36-.24-.79-.8-.65a2.46,2.46,0,0,1,2.46-1,29.45,29.45,0,0,0,6.21-.74c.6-.12,1.32-.42,1.76.44.18.34.54.06.8,0a14.38,14.38,0,0,1,4.85-1c.23.35,0,.68-.18.9a19.83,19.83,0,0,1-2.34,2.59c-.59.5-1,1.27-1.64,1.59C98.11,101.31,97.61,102.19,96.69,102.51Z"/><path class="cls-21" d="M112.56,80.86a6.26,6.26,0,0,0-3.06.9,2,2,0,0,1-1,.23c-.52-.08-.67-.55-.48-.82a3.75,3.75,0,0,0,.59-1.87,6.58,6.58,0,0,1,.92-2.14,23.61,23.61,0,0,0,1.85-4.9.92.92,0,0,1,.49-.65,12.09,12.09,0,0,1,3.18-1.14c.37-.1.72-.22,1.08-.33.26.25.16.53.07.82-.71,2.41-1.7,4.71-2.61,7a19.19,19.19,0,0,0-.67,2.07A1.47,1.47,0,0,1,112.56,80.86Z"/><path class="cls-22" d="M2,45.18A7,7,0,0,1,3.94,45a.23.23,0,0,1,0,.29c.41,0,.65.22.62.58a2.74,2.74,0,0,1-.34,1.48c-.13.18-.29.37-.53.27s-.13-.33,0-.53a1.4,1.4,0,0,0,.12-.86c.11.45-.21.81-.25,1.21s.16.86-.37,1.12c-.07,0-.17.39.06.49s.23.43.49.2a.41.41,0,0,1,.64.06c.2.24,0,.46-.12.66a1.74,1.74,0,0,0-.41,1.5c.08.35-.17.46-.42.59s-.46.51-.21.63c.82.42.19.76,0,1.13,0,0-.07.08-.1.14.34.27,1,.1,1.13.61s-.48.41-.68.77c.41-.22.56,0,.56.27,0,1-.77.52-1.28.66a.58.58,0,0,1,.53.44c.09.28.08.52-.25.66s-.18.32-.28.48c-.87.51-1.47.27-1.73-.7,0,.72-.64,1-1.07,1.47a3.76,3.76,0,0,1,.22-1.93A8.9,8.9,0,0,0,.57,53,11.25,11.25,0,0,1,.78,51a23.33,23.33,0,0,1,.68-5.05A1.07,1.07,0,0,1,2,45.18Z"/><path class="cls-23" d="M.06,58.62c.24-.28.07-.78.65-.91S.86,57,1,56.53c.35.39.13,1,.51,1.17s.83.42,1.28.11a.63.63,0,0,1,.66.16c.64.6,1.52.4,2.27.66A13.76,13.76,0,0,0,7.46,59a1.24,1.24,0,0,1,.91.69,4.74,4.74,0,0,1,.29,4c-.65-.58-1.24-1.22-2.27-1.12-.62.06-.95-.6-.57-1.31s.11-1-.45-1.26a.89.89,0,0,0-1.18.44c-.19.46,0,1-.26,1.45-.06.1.08.17.16.25.76.71.76.85,0,1.7-.11,0,.09.14,0,0s0-.06.06,0c.46,0,.52.09.3.56a1.46,1.46,0,0,0,0,1.46c.07.11.08.31.34.15.42-.28.51.11.38.34-.28.49-.2,1.08-.53,1.53a.53.53,0,0,1-.93-.14A6,6,0,0,0,2.62,66a.9.9,0,0,1-.29-1c.21-.7.17-1.44.33-2.15s-.28-1.11-.51-1.6c-.14-.31-.23-.48,0-.73s-.16-.68,0-1c-.08.14,0,.4-.13.43-.68.18-.88.8-1.25,1.26-.15.17-.27.5-.52.1C.33,60.45-.16,59.56.06,58.62Z"/><path class="cls-24" d="M78.64,4.24c-.29,0-.63-.08-.77.28s.19.45.34.66a1,1,0,0,1,.1,1c-.18.3-.49.12-.78,0-.51-.25-1.06-.4-1.34.34l-.48-.16a15,15,0,0,0-3.36-1,2.53,2.53,0,0,1-1.19-.46,2.23,2.23,0,0,1-.89-1.18,1.17,1.17,0,0,1,.58-1.6c.22-.14.42-.31.64-.47A3.64,3.64,0,0,1,73.18,2c1.64.49,3.39.46,5,1.1C79,3.39,79,3.39,78.64,4.24Z"/><path class="cls-25" d="M.24,61.38A3.12,3.12,0,0,0,1.36,60c.22-.38.35-.35.59-.07.09-.34-.27-.6,0-.9a1.41,1.41,0,0,1,.08,2c.34,0,.9-.2.46.48-.11.16.09.68.29.87.38.34.22.62,0,.88s-.15.14,0,.28.18.48,0,.78A1.2,1.2,0,0,0,2.83,66c.45.5,1,.91,1.11,1.69,0,.25.44.33.7,0,.48.43,1.13.57,1.63,1s.83,0,1.16-.63c.09-.17.13-.4.35-.36s.08.34.2.48a3.49,3.49,0,0,0-.12.54c-.08,1.33-.64,1.75-2,1.54A8.4,8.4,0,0,1,3,69.13a4.43,4.43,0,0,1-2.37-4C.57,63.89.26,62.65.24,61.38Z"/><path class="cls-26" d="M3.21,70c-.47-.14-.76.68-1.28.25a1.36,1.36,0,0,0-.08.39,8.09,8.09,0,0,0,.56,2.7A20,20,0,0,1,3.08,76c.14.6.67,1.13.37,1.82a22.71,22.71,0,0,1-1.79-5.71c-.16-.65-.08-1.32-.3-2-.08-.24-.15-.6.07-.76a.69.69,0,0,1,.88.14,1.93,1.93,0,0,0,.5.24Z"/><path class="cls-27" d="M53.63,1l0-.2A21.63,21.63,0,0,1,58.36.25a14.67,14.67,0,0,0,1.75-.1A1.65,1.65,0,0,1,58.72.5,41.18,41.18,0,0,0,53.63,1Z"/><path class="cls-11" d="M33.18,109.87c.17-.18.14-.6.52-.49a1.66,1.66,0,0,1,1.06.72,5.13,5.13,0,0,1,.33,1Z"/><path class="cls-11" d="M35.71,111.39c.45-.07.91.29,1.36,0h0c.43.27,1.21.14,1.1,1A8.33,8.33,0,0,1,35.71,111.39Z"/><path class="cls-28" d="M43.41,2.78l0,.23c-.69.05-1.21.63-1.92.58A3.26,3.26,0,0,1,43.41,2.78Z"/><path class="cls-27" d="M53.46.84C53,.93,52.53,1.41,52,1A2.9,2.9,0,0,1,53.46.84Z"/><path class="cls-29" d="M47.94,11.06c.45-.23.89,0,1.33,0a12.35,12.35,0,0,0,4-.8,1.5,1.5,0,0,0,1.17.63,14.13,14.13,0,0,1,5.59,1.69c.65.33,1.32,0,2,.13a1.73,1.73,0,0,1,1.5,1.36,19.59,19.59,0,0,1,.53,2,1.51,1.51,0,0,0,.52.89,8.54,8.54,0,0,1,2.06,2.78,2.25,2.25,0,0,1,.12.21,5.68,5.68,0,0,1,.67,2.22,2.51,2.51,0,0,1-2.34,3,7.12,7.12,0,0,1-1.13.14,1.35,1.35,0,0,1-1-.52,10.17,10.17,0,0,0-2.25-2,2.83,2.83,0,0,1-.73-.49,1.34,1.34,0,0,0-1.39-.44,1.15,1.15,0,0,1-1.24-.45c-.08.48-.13.88-.48,1.14s-.14.4,0,.64c.43.73.21,1.2-.65,1.2A11.41,11.41,0,0,1,52.49,24c-.22-.45-.64-.34-1-.31a10.28,10.28,0,0,1-5-1.21,5.81,5.81,0,0,0-1.91-.1.89.89,0,0,1-.07-1.06c.62-1.17,1.14-2.38,1.81-3.52a3.36,3.36,0,0,0,.52-2.7,1.18,1.18,0,0,1,.48-1.22A5.63,5.63,0,0,0,48.59,12c.21-.31.62-.24.92-.45C49.1,11,48.35,11.53,47.94,11.06Z"/><path class="cls-30" d="M24.73,35.57c.34.28.6.38.83-.16s.57-.49,1.08-.55a16.47,16.47,0,0,1,4,.29c1.16.15,2.46,0,3.51.74a5.13,5.13,0,0,1,.6.54c.11.11.16.26.37.24.94-.06,1.34.33,1.49,1.25.2,1.23.08,2.52.77,3.73,0-.66.3-.88.85-1.13s.91-1.13,1.13-1.86A1.48,1.48,0,0,1,41.61,38a1.34,1.34,0,0,1-.34.44c-.29.33-.39.64,0,1,.23.19.48.43.3.76s-.53.3-.86.26a2.13,2.13,0,0,0-2.31,1.93,3.46,3.46,0,0,1-.3,1.49c-.19.41,0,.8.07,1.19a16.07,16.07,0,0,0,.88,2.89c.08.3.43.47.73.61s.55.13.51.51A3,3,0,0,1,37,46.43c0-.81.26-1.67.32-2.52,0-.25.24-.58-.15-.67s-.53.29-.56.62a36.24,36.24,0,0,1-.32,3.88c-.1.52-.21.68-.78.54a26.23,26.23,0,0,0-5.07-.7,1.09,1.09,0,0,1-.32,0c-1.73-.66-3.57-.07-5.33-.45a1.34,1.34,0,0,0-.4,0c-1,.13-1.24-.06-1.27-1.14.42-.18.79.09,1.19.1-.41,0-.75-.35-1.19-.27-.12-.06-.3-.17-.22-.28.44-.65.28-1.45.59-2.14a3.89,3.89,0,0,0,.15-2.85,2.4,2.4,0,0,0-.44,1.32,1.71,1.71,0,0,1-.43,1.47c-.29.33-.24.76-.37,1.14s-.16.81-.57,1c-.32-.35-.17-.71,0-1.06a12.22,12.22,0,0,0,.68-2.15c.48-2.16,1.39-4.18,2-6.3A.7.7,0,0,1,24.73,35.57Z"/><path class="cls-31" d="M38.37,72.25a4.6,4.6,0,0,1-.67-2.1.85.85,0,0,1-.32-.63,12.36,12.36,0,0,1,.33-5.06c.46-1.58,1.74-1.34,2.93-1.31a1.89,1.89,0,0,1,1.3.15l2.92.18a32.08,32.08,0,0,1,3.67,0,.78.78,0,0,1,.55.3c.72,0,.77.64.77,1,0,2.48-.07,5-.14,7.43a3.72,3.72,0,0,1-.24.85c-.36,1.24-.37,1.15-1.62,1.27s-2.76.29-4.16.3A6.07,6.07,0,0,1,39,73.07,1.21,1.21,0,0,1,38.37,72.25Z"/><path class="cls-32" d="M86.75,76.32a12,12,0,0,1-.58,2.58c-.65,1.88-1.32,3.76-2,5.63-.22.62-.53,1.08-1.31.76-.41-.17-.69.37-1.06.27-1.31-.37-2.42.4-3.62.6a18.51,18.51,0,0,1-4.34.18c-.94-.06-1.43-.86-1.2-2a48.76,48.76,0,0,1,2-7.52,2.52,2.52,0,0,1,2-1.69,15.28,15.28,0,0,1,7,0c.77.18,1.6.17,2.38.39C86.41,75.61,86.83,75.76,86.75,76.32Z"/><path class="cls-33" d="M19.86,61.05a11.56,11.56,0,0,0,2.75.33c.59.35.24,1,.49,1.46v.48a1.37,1.37,0,0,1,.18.69c-.05,2.27,0,4.55,0,6.82a1.18,1.18,0,0,1-.15.78c0,1.54-.36,1.7-1.85,1.38a27.49,27.49,0,0,0-4.13-.55,10.52,10.52,0,0,0-3.45-.09.5.5,0,0,1-.47-.26A.31.31,0,0,1,13.5,72c0-.08-.08,0-.11,0A3,3,0,0,1,12,69.37a2.06,2.06,0,0,0-.31-1.74c-.09-.14-.21-.27-.09-.42.38-.48.21-1,.26-1.56s-.24-.91.22-1.41c.21-.23,0-1-.18-1.53a3.23,3.23,0,0,1-.07-1.19.64.64,0,0,1,.63-.71,2.36,2.36,0,0,0,1.41-.71c.19,0,.37-.05.5.13.11.36.43.2.62.22,1.18.08,2.28.66,3.48.53C18.92,60.93,19.36,61.58,19.86,61.05Z"/><path class="cls-34" d="M66.8,74.84a29.45,29.45,0,0,0,3.87-.13,3.62,3.62,0,0,1,1.64.38.49.49,0,0,1,.33.51,12.47,12.47,0,0,1-.27,3c-.49,2-1.25,3.91-1.57,6-.13.85-.59,1.3-1.61,1.57a21.19,21.19,0,0,1-5.92.54,13.11,13.11,0,0,1-1.77-.18c-.73-.11-.83-.75-.87-1.29a30.08,30.08,0,0,1,.19-4.93c.06-.8.22-1.59.26-2.4a3.24,3.24,0,0,1,3.12-3.06C65.07,74.83,65.93,74.84,66.8,74.84Z"/><path class="cls-35" d="M55.74,50.34c-1.72-.26-3.45.1-5.17,0C49.48,50.27,49,49.5,49,48.4a28.86,28.86,0,0,1,.23-4.46,22.13,22.13,0,0,1,.43-2.27,3.7,3.7,0,0,0,.11-.87,1.76,1.76,0,0,1,1.62-2c1-.16,2-.59,3,.06.53.32,1.35,0,2-.15a3.45,3.45,0,0,1,2.34.25,1.2,1.2,0,0,1,.68.94,10.94,10.94,0,0,0,.61,2.66,14.64,14.64,0,0,1,.4,4.52,4.7,4.7,0,0,1,.07,1.35c0,.08,0,.19,0,.23-.88.76-1.51,2-2.92,1.84A12.19,12.19,0,0,1,55.74,50.34Z"/><path class="cls-36" d="M55.74,50.34A8.82,8.82,0,0,0,58.8,50c.4-.17.66-.33.67-.77,0-.21,0-.55.25-.51,1,.16.68-.54.72-1,0-.22,0-.43,0-.65a3.06,3.06,0,0,1-.47,3c-.35.49-1,.22-1.43.43-.25.11-.69,0-.74.32s.37.3.6.4a4.28,4.28,0,0,0,.72.34,1.8,1.8,0,0,1,1.35,1.63,16,16,0,0,1-.33,7.54A1.82,1.82,0,0,1,58,62a21.74,21.74,0,0,0-2.91,0,19,19,0,0,1-3.91-.44c-.71-.22-1.47-.27-1.82-1.11a7.39,7.39,0,0,1-.47-2.19,19.09,19.09,0,0,1,0-4.34,3.45,3.45,0,0,1,3.66-2.81,13.65,13.65,0,0,1,2.78.2,3.06,3.06,0,0,0,1.43-.2c.14,0,.35-.08.33-.29s-.22-.22-.36-.27C56.41,50.41,56,50.64,55.74,50.34Z"/><path class="cls-37" d="M24.73,35.57A19.67,19.67,0,0,1,24,38a32.58,32.58,0,0,0-1.39,4.57A5.53,5.53,0,0,1,22,44.38a2,2,0,0,0-.21,1.09V46c-.19.39-.14.92-.64,1.13l-.33.16a4.84,4.84,0,0,1-3.57-.15,4.64,4.64,0,0,1-2-.33.5.5,0,0,0-.15-.64c-1.63-1.68-1.68-3.74-1.38-5.87a24.23,24.23,0,0,0,.57-4.32,2.54,2.54,0,0,0-.2-1.33.49.49,0,0,1,.09-.6,4.31,4.31,0,0,0,.58-1c.7-.64,1.38,0,2,.11a14.87,14.87,0,0,1,3.23.82c.91.32,1.9.44,2.85.7A2.91,2.91,0,0,1,24.73,35.57Z"/><path class="cls-38" d="M90.81,73.54c-1.31.06-1.34,0-1.31-1.25,0-1.59.59-3.1.72-4.68.09-1,.22-2.08.39-3.11.39-2.26,1.23-3.17,3.51-3.41s4.4-.3,6.61-.34c1.25,0,1.69.72,1.3,1.93-.42.32-.4.87-.62,1.29-.13.24-.64.4-.16.77,0,0,0,.11,0,.15-.89,1.07-.35,2.66-1.33,3.71a.26.26,0,0,0-.09.22c.57,1.34-.89,2-1.08,3.08-.09.54-.81.58-1.27.75a3.84,3.84,0,0,1-1.35.24c-1.72,0-3.39.49-5.11.51C90.93,73.4,90.87,73.48,90.81,73.54Z"/><path class="cls-39" d="M55.39,28.83a33.65,33.65,0,0,0,.76,6.52c.48,1.7.16,2.08-1.55,2a51.65,51.65,0,0,1-5.94-.56,10.4,10.4,0,0,0-1.77-.07c-1.26,0-1.71-.47-1.88-1.72a14.56,14.56,0,0,1,.4-5.18,22.63,22.63,0,0,1,.9-3.91c.11-.26.17-.51.54-.47,1.6.21,3.24-.11,4.83.26a5.83,5.83,0,0,0,2.28,0c.81-.12,1.22.21,1.39,1a6,6,0,0,1,.12,1C55.47,28.07,55.42,28.39,55.39,28.83Z"/><path class="cls-37" d="M35,57.32a3.74,3.74,0,0,1-1,2.76,2.82,2.82,0,0,1-2.31.94c-1.56-.07-3.12-.1-4.67-.23A10.65,10.65,0,0,1,24.54,60,1,1,0,0,1,24,59a31,31,0,0,1,.44-5.44h0a14.25,14.25,0,0,1,.49-2.76V50.5a1.22,1.22,0,0,1,1-1.46h.33A2.34,2.34,0,0,1,28,49h.17a8.32,8.32,0,0,0,4.24.65A3.68,3.68,0,0,1,34,50c.41.17.45.56.5.93.39-.1.74-.09.95.35,0,.09,0,0,0,.06v4.22C35.3,56.13,34.84,56.65,35,57.32Z"/><path class="cls-40" d="M91.91,55.2a23.59,23.59,0,0,1,0-5A2.07,2.07,0,0,1,93,48.66a15.23,15.23,0,0,1,3.79-1.21c.78-.25,1.58-.48,2.38-.71,1.16-.33,1.56-.12,1.87,1A54.16,54.16,0,0,1,102.35,58a3.3,3.3,0,0,1-3.47,1.44c-.8-.13-1.6-.12-2.4-.18-1.1-.07-2.2.1-3.3,0-.22,0,0,.48-.38.34A1.26,1.26,0,0,1,92,58.21,20.18,20.18,0,0,1,91.91,55.2Z"/><path class="cls-41" d="M92.34,46.92c-2.13.1-2.63-.9-2.84-3a29.75,29.75,0,0,0-.67-5.57c-.65-2.13-.39-2.63,1.8-3.07a11.47,11.47,0,0,0,2.31-.72,8.05,8.05,0,0,1,2.5-.58,1.42,1.42,0,0,1,1.51.86,22,22,0,0,1,1.49,5.09c.24,1.13.52,2.25.77,3.37s0,1.86-1.16,2.24A23.37,23.37,0,0,1,92.34,46.92Z"/><path class="cls-42" d="M92.89,85.44a6.42,6.42,0,0,0-2,.15,15.9,15.9,0,0,1-4.19-.06c-.63,0-.7-.54-.52-1,.85-2.32,1.42-4.72,2.16-7.08A3.55,3.55,0,0,1,91.55,75c1.22-.12,2.42-.45,3.63-.69l2.2-.46c.67-.14,1,.08,1,.74a45.5,45.5,0,0,1-1.19,7.7A10,10,0,0,1,96.22,84C95.45,85.64,94,85.22,92.89,85.44Z"/><path class="cls-43" d="M60.93,66.57c0,1.58,0,3.16-.18,4.73-.14,1.3-.56,2.52-2.09,2.92a5.18,5.18,0,0,1-1.4.09c-1.66,0-3.27.35-4.91.38-1.42,0-2-.53-2-2A22.15,22.15,0,0,1,51.2,67a3.56,3.56,0,0,0,0-2.19c-.29-.89.05-1.31,1-1.3,1.14,0,2.28,0,3.43.1s2.09-.4,3.18-.26a1.11,1.11,0,0,0,.76,1.36A1.94,1.94,0,0,1,60.93,66.57Z"/><path class="cls-44" d="M66.61,19.82c-.13,0-.26-.06-.3-.22a3,3,0,0,0-1.06-1.67,5.91,5.91,0,0,1-1.86-3.52c-.34-1.32-.94-1.93-2.17-1.56a2.57,2.57,0,0,1-2.21-.5,13.3,13.3,0,0,0-4.91-1.29c-.48-.08-.89-.19-.8-.81a11.82,11.82,0,0,0,2.37-3.37c.36-.6.86-1.08,1.2-1.67-.18.9.45,1,1.08,1.13s1.42,0,.94,1.11c-.09.2.15.3.35.35a1.22,1.22,0,0,1,.88,1.55,1,1,0,0,0,1.16,1.29c1.37-.15,1.37-.15,1.57,1.18a1.26,1.26,0,0,0,.23.67,4.18,4.18,0,0,1,1,2.12c.09.72.63.7,1.15.16.13.32,0,.93.44.76a.81.81,0,0,0,.51-1.06c-.11-.24-.18-.48,0-.66s.4,0,.57.16.44.27.65.06.05-.39,0-.6c-.31-.7-.08-1.07.66-1.1a.79.79,0,0,0,.68-.51c.16-.29-.14-.42-.32-.56s-.45-.2-.46-.57l1.63.29c.12,0,.21,0,.21.19,0,1,.79.85,1.42.86,1.2,0,1.47.24,1.67,1.47a.33.33,0,0,1-.37-.07c-.85-.95-1.93-.59-2.94-.5-.79.06-1.06.53-.65,1.23,1,1.8,2.13,3.58,4.09,4.56a1,1,0,0,1,.55.75c0,.26.09.53.16.79A2.17,2.17,0,0,1,72.06,23c-.56.11-1.1.48-1.71.21.11-.15.2-.41.32-.43.58-.09.6-.42.5-.88a.57.57,0,0,1,.21-.58c.09-.08.26-.24.23-.29-.35-.65,0-1,.52-1.33.14-.08.07-.26-.07-.32s-.61-.1-.68.21c-.16.71-.61.41-1,.35-.17,0-.3-.14-.24-.34.16-.57-.18-.65-.62-.61s-1.32,0-1.41.73c-.13,1-.71,1.93-.44,3.05.12.51-.33,1.14-.74,1.57a1,1,0,0,0,0,1.63.63.63,0,0,1-.67.12A5.19,5.19,0,0,0,63.48,26a29.21,29.21,0,0,1-3.86-.26c-.26-.14-.24-1-.82-.33a.26.26,0,0,1-.3-.09,1.71,1.71,0,0,0-.1-.2,3,3,0,0,1-2-.43c-1.14-.47-2.4-.05-3.54-.48L52.49,24a23.22,23.22,0,0,0,3.44.07c.16,0,.32-.06.48-.06a.5.5,0,0,0,.55-.37c.09-.27-.11-.41-.28-.53-.48-.32-.5-.63,0-.88s.39-.51.34-.88c0-.17-.1-.41.13-.5s.28.12.35.26c.27.46.61.5,1.1.34a1.56,1.56,0,0,1,1.4.38c1,.67,1.81,1.54,2.81,2.19.09.06.21.14.22.22.14,1,.88.72,1.49.69a2.79,2.79,0,0,0,.39-.1c2-.28,2.77-1.6,2.21-3.54a6.33,6.33,0,0,1-.54-1.51c.24-.23.59-.42.31-.86C66.57,19.18,66.88,19.6,66.61,19.82Z"/><path class="cls-45" d="M43.49,86.38c-.82,0-1.42,0-2,0a1.55,1.55,0,0,1-1.63-1.16,5.1,5.1,0,0,1-.25-1.88,22.41,22.41,0,0,0-.35-3.44,20.11,20.11,0,0,1,0-3.47c0-.8.89-1.35,2.08-1.23a45.7,45.7,0,0,1,5.36.55,1.32,1.32,0,0,0,.56,0c1.15-.2,1.51,0,1.52,1.18,0,1.89.4,3.75.37,5.63,0,.59.14,1.18.15,1.77,0,1-.24,1.35-1.25,1.59A15.89,15.89,0,0,1,43.49,86.38Z"/><path class="cls-46" d="M84.81,34.13c.37.28,1,.48.86.93s-.75,0-1.14-.11a3.27,3.27,0,0,1-.75-.3.94.94,0,0,0-1.33.14c.34-.68,0-1-.38-1.41a3.62,3.62,0,0,1-.76-1.59c-.57-1.79-1.08-3.59-1.59-5.39-.25-.9.09-1.32.92-1.74a6.62,6.62,0,0,1,2.63-.35,11.21,11.21,0,0,0,3.43-.61,1.62,1.62,0,0,1,1.93.59,9.3,9.3,0,0,1,1.77,3,14.09,14.09,0,0,1,1.23,2.78c.05.32.2.6-.26.78s-.27.56-.18.84.06.61-.4.78-1.17.24-1.46.86a.27.27,0,0,1-.35.14c-.39-.16-.61.08-.8.35-.36.51-.65,1.28-1.35.31a.27.27,0,0,0-.23,0C86,34.56,85.42,34.21,84.81,34.13Z"/><path class="cls-47" d="M87.88,72.58c-.15.89-.58,1.22-1.88,1.3a19.54,19.54,0,0,1-2.42,0c-1.65-.1-3.27.27-4.91.32A5.76,5.76,0,0,1,75.59,73c-.67-.38-.58-1.45-.67-2.23a11.77,11.77,0,0,1,.43-4.08,3.2,3.2,0,0,1,2.86-2.53A49.46,49.46,0,0,1,87,63.52a1.87,1.87,0,0,1,2,1.28,2.92,2.92,0,0,1-2.3,2c-.58.16-.54-.38-.79-.67a.73.73,0,0,1-1.12.27c-.89-.51-1.56.13-2.29.46.1,0-.06,0,0,0,.2,0,.46-.39.59,0s-.08.85-.36.91c-.5.08-.49.47-.7.73s-.34.65-.56,0c0,0,0-.13-.07-.12s.06,0,0,0-.11.19-.07.22c.78.52.33,1.25.33,1.9s.32.86.87.68c.38-.13.41.07.54.38.09-1,.79-1.34,1.49-1.69.11,0,.27,0,.31-.15.11-.56.38-.39.55-.08.26.5.6.44,1,.29s.69-.16.62.49A12.59,12.59,0,0,1,86.72,72,1.09,1.09,0,0,1,87.88,72.58Z"/><path class="cls-27" d="M38.17,78.41a48.08,48.08,0,0,0,.2,5.63,8.77,8.77,0,0,1,.16,1.77c0,.4-.13.58-.56.58-2.8,0-5.61.27-8.36-.47-.49-.13-1,.16-1.5-.17s-.76-.86-1.12-1.31a.7.7,0,0,1,0-.7c.11-.31.37-.08.53-.13.73-.23,1.08-.08.8,1,.44-.59.45-1.11.77-1.48a.27.27,0,0,0,0-.37c-.48-.44-.39-1.15-.81-1.64-.26-.31-.28-.71.35-.62.19,0,.39.07.48-.17s-.12-.27-.25-.36c-.53-.35-.37-1-.51-1.45s-.2-1-.33-1.48a1.13,1.13,0,0,1,1.21-1.46c.28.06.46.11.71-.11s.55,0,.8.16a1,1,0,0,0,1.12.1c.5-.28.77,0,.71.58a1.32,1.32,0,0,0,.06.66c.18-.41.3-.83.76-.86a1.71,1.71,0,0,1,1.17.21,1.06,1.06,0,0,0,.84.24c.08,0,.27,0,.23-.1-.1-.28-.23-.62.21-.53s.85-.18,1.23.45S37.8,77.72,38.17,78.41Z"/><path class="cls-36" d="M40.31,49a3.7,3.7,0,0,0-.47-.29c-.55-.27-1.11-.42-1.09-1.3,0-.47-.46-1-.57-1.53-.15-.86-.58-1.67-.08-2.53a1.36,1.36,0,0,0,.1-.72,2.75,2.75,0,0,1,2-2.6c.29-.08.49.2.76.2s.47.06.57-.19-.09-.34-.24-.47c-.75-.68-.65-1.14.36-1.61a8.78,8.78,0,0,1,6.16,2.1A1.32,1.32,0,0,1,48.2,42c-.16.34,0,.7-.11,1-.44,1.72-.52,3.48-.83,5.21-.17,1-.57,1.29-1.75,1.32-1.59-.47-3.26-.23-4.87-.49Z"/><path class="cls-48" d="M75.71,49.21a4.84,4.84,0,0,1-2.53.08,1.41,1.41,0,0,1-1-1.14,20.59,20.59,0,0,1-.65-4.62c-.06-1.09-.2-2.17-.27-3.26-.16-2.53.88-2.78,2.71-3.1a22.67,22.67,0,0,0,4.38-1c.4-.34.8-.11,1.21,0a1.76,1.76,0,0,1,.49.29.69.69,0,0,1,.31.61c0,.33-.6.23-.45.55s.16.54-.26.62-.72,0-.64.42-.66,1.23.31,1.6c.45.17.53.52.23.9s-.33.7-.83.85a1.87,1.87,0,0,1,.82,2c-.06.24.12.39.29.53a1.24,1.24,0,0,1,.42,1.71.87.87,0,0,0-.07.55c0,.23,0,.49-.19.59a11.35,11.35,0,0,1-2.61,1.36A6.17,6.17,0,0,0,75.71,49.21Z"/><path class="cls-49" d="M106.06,72.09c-.1-.48-.41-.29-.69-.22l-2.59.58c-1.15.25-1.41,0-1.21-1.13.34-1.86.56-3.75.94-5.61.33-1.57.55-3.16.8-4.75a1.64,1.64,0,0,1,1.18-1.37,2.17,2.17,0,0,0,1.08-.63.23.23,0,0,1,.32,0c.3.3.65.19,1,.1a4.58,4.58,0,0,1,1.69-.05,1.63,1.63,0,0,1,1.56,1.73,36.47,36.47,0,0,1-.43,6.09,17.93,17.93,0,0,0-.15,1.92,2.56,2.56,0,0,1-2.33,2.72c-.36.08-.48.21-.33.55C106.66,72.4,106.37,72.31,106.06,72.09Z"/><path class="cls-50" d="M61.9,46.61a56.18,56.18,0,0,1,.3-5.8c.08-.74.62-1.07,1.27-1.39,1.58-.76,3.3-.5,4.93-.87a1.12,1.12,0,0,1,1.29,1.14,24.87,24.87,0,0,1,.17,4c-.14,1.56.26,3.09.07,4.68a1.88,1.88,0,0,1-1.49,1.82,11.75,11.75,0,0,1-3.71.68,14.5,14.5,0,0,1-1.6-.18A1.6,1.6,0,0,1,61.9,49c0-.4,0-.81,0-1.21Z"/><path class="cls-51" d="M81.7,92.37a14,14,0,0,1,1.74-4.06c.26-.4.48-.84.72-1.26A1.8,1.8,0,0,1,86,86a28.84,28.84,0,0,1,3.71.21c.83.17,1.64-.27,2.47-.06,1.1.26,1.28.67,1,1.78a16.64,16.64,0,0,1-1.94,4A18.75,18.75,0,0,1,90,94.13c-.73,1.05-1.48,2-3.06,1.88a13.15,13.15,0,0,0-3.83.4,1.06,1.06,0,0,1-.78-.13c-.44-.21-.46-.64-.49-1a3.63,3.63,0,0,0-.34-1.79C81.35,93.14,81.66,92.74,81.7,92.37Z"/><path class="cls-52" d="M88.88,56.38c0,.31,0,.62,0,.93-.21-.7-1.21-.28-1.38-1,.07.57-.34.74-.72.91a.88.88,0,0,0-.59.57c-.21.66-.36.67-.88.15a1.39,1.39,0,0,1-.11-.21.83.83,0,0,1,0-.58c-.33.59-.58,1.21-.9,1.8-.12.23-.24.55-.56.48s-.2-.4-.28-.62a2.33,2.33,0,0,1-.07-.68A1.46,1.46,0,0,1,83,59c-.37.3-.7.22-.76-.24s-.23-.29-.43-.34c-.44-.1-.08.21-.16.3a8,8,0,0,1-1.43,1.36c-.26.2-.62,0-.73-.32s-.29-.24-.51-.11a1.07,1.07,0,0,1-1,.21c-.35-.13-.53.31-.56.48-.11.67-.65.88-1.12,1.17a2.57,2.57,0,0,1-3-.49C72,59.94,72,58.49,72.3,57c.5.35.84.89,1.47,1.08.19,0,.14.32.2.49.11.33.18.63.65.75.7.19,1.25.29,1.5-.58,0-.15.19-.33.36-.28,1,.34,1-.66,1.33-1.11s.32-.45.64-.25.48,0,.69-.16-.08-.35-.16-.5-.4-.49,0-.71c.14-.07.1-.25.08-.37-.11-.5.11-.76.58-.88s.44-.73.73-.68c.64.12.44-.29.37-.5-.13-.37-.37-.61-.77-.22s-.88.48-1.27-.08c.17-.16.4-.26.44-.55-.19.17-.21.44-.44.54a.65.65,0,0,1-.61-.33c-.11-.21-.27-.15-.41-.14-.7.09-.7.09-.65-.73a1,1,0,0,1,1.15-.52,1.85,1.85,0,0,0,1.87-.56c.33-.31.64-.47.81.14a.27.27,0,0,1-.21.35c.36,0,.24-.24.17-.43s.15-.21.23-.16c.49.33,1.06.17,1.58.29,0,0,.2-.09.25,0,.44.66.93.24,1.25-.05s.4-.06.48.15a3.47,3.47,0,0,1,.27,1c-.15-.89-.13-.91.75-.82,0,0,.09,0,.14,0,.74-.26.74-.26,1,.28,0,.1.1-.07,0,0s0,0-.07,0c-.13-.38.14-.48.4-.58a2.37,2.37,0,0,1,.8-.08c.74,0,.76,0,.6.77,0,.19-.3.53.2.61.2,0,.14.28.14.42A38.43,38.43,0,0,1,88.88,56.38Z"/><path class="cls-53" d="M108.82,40c-.1.58.52.8.63,1.27,0,.59-.09,1.17-.12,1.76,0,.32-.25.39-.46.5a27.85,27.85,0,0,1-5,1.89c-1.34.38-1.77.08-2.26-1.26a23.3,23.3,0,0,1-1.35-3.69c.11-.41.28,0,.51,0a16.09,16.09,0,0,0-.08-3.67c-.05-.35-.1-.69-.16-1s.06-.37.32-.3a.5.5,0,0,1,.34.36c0-.55.75-.61.81-1.16,0-.25,0-.58.44-.56,0,0,.1,0,0,0-.25,0-.31-.19-.29-.41s-.1-.43-.44-.35-.52-.13-.34-.5a5.43,5.43,0,0,1,2-.63,1.36,1.36,0,0,1,1.74,1C105.84,35.69,107.43,37.78,108.82,40Z"/><path class="cls-30" d="M31.06,62c.06-.05.13-.15.19-.14a9.75,9.75,0,0,1,4.1,1.25c.95.62.54,1.6.72,2.41a30.33,30.33,0,0,1,.19,4.57,18.84,18.84,0,0,1-.19,2.49c0,.81-.71.94-1.36.93-.83,0-1.66-.09-2.48-.15-.39,0-.78.31-1.17,0a2.8,2.8,0,0,0-1.86-1.27,1.64,1.64,0,0,1-1.14-2A1.59,1.59,0,0,0,28,68.93a4,4,0,0,1,.83-4.39,9.33,9.33,0,0,0,1.78-1.3c.25-.32.74-.28,1.18-.36C31.65,62.47,31,62.55,31.06,62Z"/><path class="cls-54" d="M66.29,26h.65c.83.27,1,.85,1,1.68a35.67,35.67,0,0,0,.44,6.19,11.54,11.54,0,0,1,0,1.86c0,.51-.36.73-.82.86a19.79,19.79,0,0,1-4.93.68,18,18,0,0,1-4.31-.4c-.17-.21-.15-.44.08-.54s.39-.19.22-.52.16-.35.36-.43a3.22,3.22,0,0,1,1.11-.17c-.33-.83-.33-.83,1.09-1.18-.15-.28-.48-.2-.7-.35s-.4-.39-.14-.66a3,3,0,0,0,.71-2.34A7.52,7.52,0,0,1,62,27.46c-.27-.28-.93-.26-.82-.75s.75-.36,1-.27c1,.35,1.62-.29,2.35-.69A5,5,0,0,1,66.29,26Z"/><path class="cls-55" d="M20.69,76.31c.39,1.33.77,2.67,1.19,4a25.92,25.92,0,0,1,1,4c0,.25.13.53-.3.29a.27.27,0,0,0-.23,0c-1.43.81-2.77,0-4.13-.23a13.89,13.89,0,0,0-2.87-.41c-1.45,0-2.07-.64-2.32-2.37a45.15,45.15,0,0,0-1.48-6.49,2.76,2.76,0,0,1-.14-1,.69.69,0,0,1,.21-.51.5.5,0,0,1,.5-.2c.19.07.19.24.17.41,0,.42.16.62.59.52a.8.8,0,0,1,.82.37,3.11,3.11,0,0,0,1.54,1c1.08.26,1.46,1.26.79,2,.31,0,.36-.19.45-.39.16-.37.48-.76.83-.65s.82.28.74.93c0,.3.06.58-.19.82a1,1,0,0,0,.3-.93,2.16,2.16,0,0,1,.7-2c.33-.28.63-.2.71,0C19.81,75.81,20.41,75.87,20.69,76.31Z"/><path class="cls-56" d="M89,22.75a1.87,1.87,0,0,1,1.68-.68,24.4,24.4,0,0,1,2.7-.13,2.85,2.85,0,0,1,.59.26c.43.3.76-.06,1.12-.18a2.6,2.6,0,0,1,2.1-.11c.35.18.64.28.56.73s-.51.24-.89.29c.38.51.67,1,1,1.42.11.16.29.33.23.5a13.69,13.69,0,0,0-.2,2,4,4,0,0,0-.1.71c0,1.2,0,1.2,1.25,1,.48-.08.66.27.85.6s.06.72.51.73a1.29,1.29,0,0,0,1.21-.52c.2-.31.45-.59.86-.39a.9.9,0,0,1,.55.92,2.49,2.49,0,0,1-.73,1.27c-.22.2-.4.44-.61.64a.58.58,0,0,1-.69.43c-1.64-.14-3.18.47-4.78.52A2.26,2.26,0,0,1,93.75,31a17.15,17.15,0,0,0-2-4c-.68-1-1.44-2-2.15-3A2.8,2.8,0,0,1,89,22.75Z"/><path class="cls-57" d="M70.18,87.19A41.68,41.68,0,0,1,77.33,87,20.56,20.56,0,0,1,81,87c.46.09.65.25.51.68a17.8,17.8,0,0,1-1.76,4.2.61.61,0,0,1-.44-.53c-.42.47-.32,1.33-1.21,1.57-.36.09-.42.48,0,.69.2.09.39.21.3.49s-.3.29-.52.28a1.7,1.7,0,0,0-1.33.42c-.35.3-1.39-.14-1.5-.63s-.44-.56-.82-.35-.52.3-.82.09-.4,0-.59.1c-.39.3-.73.29-1-.19,0-.08-.08-.08-.12,0-.17.24-.53.24-.67.42-.56.73-.82.22-1.14-.21s-.47-.77-1-.87a.32.32,0,0,1-.13-.57c.38-.38.21-.74,0-1.11a2.66,2.66,0,0,1-.33-.82c-.1-.55-.28-1.1.42-1.42a.53.53,0,0,0,.28-.47A2.36,2.36,0,0,1,70.18,87.19Z"/><path class="cls-58" d="M25.06,32l.16-.48c1.09-2,2-4.09,3.72-5.69a20.35,20.35,0,0,1,2.13-3.08c.05,0,.15,0,.15,0,0,.61.58.69.88,1A16.58,16.58,0,0,1,33.28,25c.33.43,1.5.32,1.93-.09.14-.13.25-.29.38-.43s.37-.26.57-.07.15.39,0,.59a4.1,4.1,0,0,1-.61.64c-.11.11-.26.23-.17.41s.22.14.35.15a.9.9,0,0,0,.92-.35A1.4,1.4,0,0,1,38,25.3c.15.29-.07.46-.22.63a30.42,30.42,0,0,0-3,3.79,1.3,1.3,0,0,1-.63.5,3.28,3.28,0,0,1-.67,1.28,6.91,6.91,0,0,1-.66,1.3c-.48,0-.28.51-.48.75-.39.49-.72,1-1.45.59a1.66,1.66,0,0,0-.64,0,8.35,8.35,0,0,1-1.64-.32c-.27-.05-.58.1-.82-.16a9.18,9.18,0,0,0-1.89-.09c-.28,0-.58.09-.85-.08h0C24.53,33,24.73,32.48,25.06,32Z"/><path class="cls-59" d="M39,50.35c2.55.09,5.06.59,7.61.64,1.05,0,1.29.34,1.33,1.38a27.21,27.21,0,0,1,.22,3.36c-.14,1.75.31,3.65-1,5.16-.22.53-.76.32-1.14.49l-2.93,0c-.07-.08,0,0-.05,0-.26-.3-.69-.63-.41-1s.59.22,1,.15c-.67-.43-1.4-.72-1.61-1.5A11.46,11.46,0,0,0,40.94,57a4.27,4.27,0,0,1-.55-2.69.9.9,0,0,0-.45-1.15c-.46-.25-.86-.56-.63-1.22.07-.22-.14-.46-.24-.67A.9.9,0,0,1,39,50.35Z"/><path class="cls-60" d="M23.91,31.18A4.39,4.39,0,0,1,22.61,33a1.38,1.38,0,0,1-1.46-.29c-1.25-.41-2.5-.81-3.75-1.23a1.46,1.46,0,0,1-1.08-2,11.93,11.93,0,0,1,1.26-2.59,2.88,2.88,0,0,1,1.27-.67c.29,0,.79-.33.4-.89s-.19-.82.39-1a1.51,1.51,0,0,1,.56-.06c.43.05.47-.13.42-.51-.09-.72.12-.89.73-.6a1.34,1.34,0,0,0,1,0,3.29,3.29,0,0,1,1.29,0,1.25,1.25,0,0,0,1.13-.45c.91-.91,1.85-.68,2.16.57.17.69.78.16,1,.5a5.94,5.94,0,0,1-1.17,1.6,1.66,1.66,0,0,0-.48.82,27.43,27.43,0,0,0-1.86,4.18A1.72,1.72,0,0,1,23.91,31.18Z"/><path class="cls-61" d="M27.66,87.18a7.81,7.81,0,0,1,1.27.2,1.65,1.65,0,0,1,1.25,1.2c.41,1.36,1,2.67,1.48,4A6.1,6.1,0,0,1,32.05,95c0,1.54-.07,1.66-1.63,1.82a14.27,14.27,0,0,1-6.51-.66,5.31,5.31,0,0,1-2.11-1.29c0-.47.22-.62.64-.61.21,0,.43.09.64,0s.53-.57.83-.32.25.73.17,1.21c.3-.38.83.08,1.14-.51-.36.38-.75.43-.91.07s-.59-1-.36-1.54c.06-.18.17-.36,0-.53s-.35,0-.51.06-.45.2-.65,0a.65.65,0,0,1-.11-.68,1.78,1.78,0,0,1,.44-.67c.2-.21.54-.31.13-.7-.23-.22.05-.5.36-.55a5.31,5.31,0,0,1,.8,0c.62,0,.82-.23.59-.79s-.31-1-.55-1.51a.78.78,0,0,1,.29-1.18l.8.19c.2.53.48.77,1.13.54A1.28,1.28,0,0,1,27.66,87.18Z"/><path class="cls-62" d="M34.14,108a5.62,5.62,0,0,0-.48-1.45c.22-.16.18-.33,0-.43a7.19,7.19,0,0,1-2.46-2A15.82,15.82,0,0,0,27,101a5.37,5.37,0,0,1-1.86-1.87.83.83,0,0,1,.71-1.36,42.64,42.64,0,0,1,5.18,0,15,15,0,0,1,2,.27,4.71,4.71,0,0,1,2.69,1.09c.63.64,1.66.82,2.22,1.64.23.33.31.8.75,1,.07.21-.07.38-.2.35a.8.8,0,0,0-1,.38c-.1.18-.31.12-.35-.08-.16-.81-1.12-1-1.4-1.69-.05-.12-.63-.13-1-.3.13.35.58.56.32,1s-.71.3-1.11.33c0,.12.1.21.09.35,0,.44-.52.86-.06,1.32-.56.39.19.29.18.48s.09.11.07.14c-.29.6.33.45.5.49.37.08.51.4.71.61.43.45,1.07.61,1.45,1.12.24,0,.3-.59.63-.33s0,.5-.08.75c.21.1.39,0,.58-.09s.27-.12.29,0c.17.71.92.22,1.31.62.16.16.82,0,1.21.27,0-.5.14-1.08-.65-1.22-.23,0-.06-.33.08-.45a.75.75,0,0,1,.9-.08c.38.52.77,1,1.12,1.57s.13,1.11-.67,1.22a17.17,17.17,0,0,1-3.92-.26c-.33,0-.7-.19-.9.26s-.35.44-.44.06-.29-.4-.62-.26a1.61,1.61,0,0,1-1.15-.15C34.63,107.58,34.28,108.1,34.14,108Z"/><path class="cls-63" d="M3.47,58c-.23,0-.49.08-.66-.16A.41.41,0,0,1,3,57.2c.45-.08.37-.3.23-.55-.27-.49-.33.35-.61.05.13-.49.16-1.07,1-.61.23.12.46-.12.43-.41s-.1-.49-.33-.07c-.06.12-.09-.12-.15-.17-.24-.21,0-.31.09-.44s.59-.06.54-.38-.46-.18-.69-.3-1-.16-.31-.74A4.36,4.36,0,0,0,3.54,53c-.24-.14-.76,0-.66-.43.06-.29-.09-.82.56-.75.17,0,.36-.11.24-.38a1.31,1.31,0,0,1,.37-1.57c.14-.16.48-.3.13-.56s-.28.12-.36.26-.25.24-.4,0,.05-.39-.21-.34-.5,0-.46-.17A2.77,2.77,0,0,1,3,48.37a2.19,2.19,0,0,0,.38-2.47c.23,0,.63-.1.65,0a1.85,1.85,0,0,1-.42,1.54.42.42,0,0,0,.6-.3,5.57,5.57,0,0,0,.2-.9c.12-.78,0-.91-.8-.7,0-.27.41-.27.35-.56a17.25,17.25,0,0,1,4.15,1.3,1.67,1.67,0,0,1,1.1,1.84c-.08,1.17-.25,2.34-.4,3.5a33.9,33.9,0,0,0,.05,5.14c0,1.25,0,1.29-1.26,1.08A20.18,20.18,0,0,0,3.47,58Z"/><path class="cls-64" d="M75.38,24.69c1.18-.41,1.86-.06,2.14,1.13.36,1.54,1.12,2.95,1.52,4.48a18.17,18.17,0,0,1,.78,3.64,1.37,1.37,0,0,1-1.2,1.46.44.44,0,0,1-.63,0c-.6-.2-1.2.08-1.8,0a40.32,40.32,0,0,1-4.66-.16,1.45,1.45,0,0,1-.71-.33.82.82,0,0,1,.39-1c.44-.25.56.18.91.3.22-.94-.14-2.12,1-2.73-.55-.5-.35-1.27-.39-2a1.07,1.07,0,0,0-.34-.83,1.72,1.72,0,0,1-.7-1.06c0-.25-.06-.48.16-.67,1.06-.9,2-2,3.48-2.27C75.36,24.76,75.37,24.71,75.38,24.69Z"/><path class="cls-65" d="M50.19,106.67c.48,1.39,0,2.29-1.41,2.54a4.26,4.26,0,0,1-2.54-.51c-1.83-.8-2.48-2.62-3.73-3.91a19.37,19.37,0,0,0-3-2.73A5.32,5.32,0,0,1,37.73,99c-.08-.24.08-.41.35-.42a2.87,2.87,0,0,1,1,0c1.6.57,3.3.26,4.94.6,2.22.47,2.87.76,4.19,2.54,0-.29,0-.57,0-.86.62.23.54.83.67,1.32.86-.46.9-.45,1.44.41a8.87,8.87,0,0,0,2,2.61c.48.36.32.86-.21,1-.51-.5-1-1-1.55-1.49a1.78,1.78,0,0,0-1.17-.62c-.17.49-.6.41-.92.32s-.24-.4,0-.57.22-.55,0-.83a4.47,4.47,0,0,0-.56,1,.42.42,0,0,1-.49.32.47.47,0,0,1-.45-.29c-.08-.3.27-.17.36-.32a.88.88,0,0,0,.12-.21c.12-.36-.16.08-.15-.07a.82.82,0,0,0-.39-.28c.13.16.33.15.43.29-.14.39-.44.68-.61,1.05s-.53.13-.84,0c.11.41.38.34.63.34.49,0,.69.22.33.64-.2.24-.31.4-.07.68s0,.74.07,1.11.11.53.51.38a5.13,5.13,0,0,1,2-.32c.19,0,.13-.19.18-.3A.59.59,0,0,1,50.19,106.67Z"/><path class="cls-66" d="M38.17,78.41c-.1,0-.25,0-.29-.1a4,4,0,0,0-1-1.57c-.54-.42-.4-.6-1.25-.71a.77.77,0,0,0,.44.58c-.79.48-1.45,0-2.12-.25s-1-.1-1.08.6c0,.15-.19.28-.4.56,0-.58-.43-1-.1-1.42.07-.09.13-.2,0-.25s-.36-.19-.45,0c-.56.92-1,0-1.43-.13-.29-.11-.49-.4-.57.17-.05.28-.25.31-.46.07-.54-.62-.83,0-1.2.26s-.07.51,0,.82c.1.5.49,1.18.3,1.44-.36.48.56.38.19.81s.15.52.49.66.1.49,0,.7-.36.29-.61.12-.19-.2-.48,0c.71.45.43,1.46,1.23,1.88.05,0,.07.21,0,.29-.22.54-.46,1.07-.71,1.6a.36.36,0,0,1-.53.22c-.28-.15-.12-.37,0-.54s.08-.34-.07-.59c-.25.39-.56.77-.86-.06-.19.93-.19.93.53,1-.19.24-.62.51,0,.69.28.08.53.15.33.52-.59-.09-1.17,0-1.77-.1-1.51-.28-2.08-1.38-2.49-2.65-.64-2-1.26-4-1.87-5.92a1.4,1.4,0,0,1,1.31-1.91c2.47.09,4.94-.11,7.42.1a32,32,0,0,0,3.93.26,7.74,7.74,0,0,1,2.37.35,1.54,1.54,0,0,1,1,1.51A2.52,2.52,0,0,0,38.17,78.41Z"/><path class="cls-37" d="M20.51,48.07a3.58,3.58,0,0,1,1.95,1.62,2.17,2.17,0,0,1,.68,1.81,47.16,47.16,0,0,1,.18,6.18,11.24,11.24,0,0,1-.54,2.4h-.49A1.94,1.94,0,0,0,21,59.23a13.74,13.74,0,0,0-2.81-.69,2.17,2.17,0,0,1-1.8-2.16,9.68,9.68,0,0,1,.3-1.94.83.83,0,0,0-.13-.75,4.61,4.61,0,0,1,.57-4.76,6.6,6.6,0,0,1,.83-1C18.84,47.8,19.7,47.41,20.51,48.07Z"/><path class="cls-67" d="M38,25.34c-.46.33-1.24.17-1.38,1,0,.23-1.35.1-1.5-.16s-.28-.44.11-.55a.35.35,0,0,0,.18-.16c.18-.36,1-.52.62-.93s-.53.39-.78.63a1.76,1.76,0,0,1-2.45-.38c-.25-.43-.87-.53-1-1.09,0-.11-.23-.06-.35,0s-.25.36-.45.11,0-.37.1-.51.23-.4,0-.59a2.21,2.21,0,0,1,2.87-1.08c1.3.47,2.7.5,4,1.1.47.22,1-.21,1.1-.84h.07c.66.06,1.36,0,.78,1.07-.12.21.24.15.4.08a2.62,2.62,0,0,1,2.19,0,20,20,0,0,0,3,1c.77.19.84.62.65,1.23a1.69,1.69,0,0,1-.57,1A7.09,7.09,0,0,1,43.89,28c-.89.59-.75.8-1.6.15-.14.22-.08.47-.12.71-.11.62-.43.78-1,.49-.41-.2-.76-.37-1,.22s-.79.5-1.15,0-.18-1.11,0-1.68.58-.47,1-.45.84-.24,1.14-.12c-.77.17-1.77-.3-2.56.59-.31.35-1-.18-1.3-.9a5.57,5.57,0,0,1,.84-1.53C38.14,25.41,38.14,25.41,38,25.34Z"/><path class="cls-68" d="M37.38,27c0,.51.51.59.75.9s.37,0,.48-.23c.23-.37.44-.75,1-.37a.54.54,0,0,0,.54,0c.48-.57,1,.21,1.48-.06.08-.05.22.15.21.29s-.23.17-.32.12c-.66-.37-1.29.23-2,.05-.36-.08-.54.78-.58,1.24a.84.84,0,0,0,.7.95c.19,0,.29-.11.35-.27s-.08-.59.33-.63a1.29,1.29,0,0,1,1.06.27c.55.58.66-.15.63-.25-.12-.44.13-.79.15-1.17.18-.08.26,0,.34.14.63.79.63.78,1.16-.07.26-.43.6-.83,1.15-.31.2-.5-.21-1.29.75-1.21a47.65,47.65,0,0,0-1.79,7.91A4.59,4.59,0,0,1,42.9,36a4.22,4.22,0,0,1-3.82-.94,1.58,1.58,0,0,0-1.2-.31,1.29,1.29,0,0,1-1.36-.49c-.27-.4-.73-.26-1.11-.35s-.78-.09-.61-.66l.33-1.77A9,9,0,0,1,37,27.08.3.3,0,0,1,37.38,27Z"/><path class="cls-69" d="M38.53,87.71a3.25,3.25,0,0,1,1.41.27.71.71,0,0,1,.55.77,7.34,7.34,0,0,0,.7,2.38,17.53,17.53,0,0,1,.9,4.08A2.7,2.7,0,0,1,41.64,97c-.13.23-.26.36-.49.28A11.13,11.13,0,0,0,37.09,97a2.41,2.41,0,0,1-2.44-1.52c.05-.22-.09-.41-.14-.61s-.1-.43.14-.56a.49.49,0,0,1,.65.14,4,4,0,0,0,.67.71c0-.37.29-.55.52-.79-.71.15-.77-.24-.22-1.28a.52.52,0,0,0,.09-.25c-.38-.21-.62,0-.85.28s-.45.28-.66,0a.51.51,0,0,1,.07-.73c.28-.22,0-1,.78-.71-.16-.35-.16-.35-.57-.42a.35.35,0,0,1-.2-.12,14.73,14.73,0,0,1-1.3-1.65c-.38-.47-.16-.74.51-.75a1.74,1.74,0,0,0,1.28-.37c.06-.13.23-.07.32-.16s0,0-.05,0c-.21,0-.22.21-.36.26a.45.45,0,0,1-.32,0c-.3-.08-.75,0-.75-.46s.5-.4.82-.39c.53,0,1.18-.24,1.44.69.21-.63.64-.58,1-.51s.59,0,.88.09S38.47,87.74,38.53,87.71Z"/><path class="cls-70" d="M103,55.05l-1-4.63c-.16-.76-.33-1.52-.47-2.29a1.61,1.61,0,0,1,1.21-1.78c1.47-.45,2.94-.86,4.44-1.21,1.33-.31,2,.17,2.46,1.5a2.81,2.81,0,0,1,.1.31c-.38.13-.38.13-.84-.3-.34.73-.21,1.79-1.35,2,.62.47,1.42.78,1.39,1.77a.89.89,0,0,0,.22.52c.29.42.75.82-.2,1.07-.28.07-.44.53-.22.91s.06.61-.21.86-.52,0-.78-.09a3.82,3.82,0,0,1-1-.69.61.61,0,0,0-1,.09,2.54,2.54,0,0,1-.58.55,1,1,0,0,0-.15,1.61c.58.52,0,.88-.1,1.29s-.36.58-.74.23c-.1-.47-.6-.35-.86-.58s-.15-.42-.18-.65c.12-.1.29-.13.43-.23C103.4,55.14,103.14,55.24,103,55.05Z"/><path class="cls-71" d="M52,106.18c.44-.27.42-.69.08-.91-1.09-.66-1.5-1.8-2.09-2.8-.27-.47-.49-.75-.9-.14-.1.16-.25.31-.47.17s-.16-.26-.09-.43c.21-.52-.26-.83-.39-1.24s0-.54,0-.81.16-.42.51-.43a52.58,52.58,0,0,1,7.32.25,43.21,43.21,0,0,0,5,0c.11,0,.22,0,.33,0,2,0,2.68.37,2.46,2.91-.08.34-.13.7-.54.82s-.68.21-.91-.07.1-.49.29-.67.3-.3,0-.51-.14-.37-.17-.58-.22-.71-.67-.52-1,0-1.51,0a8.14,8.14,0,0,0-2.11.42c-.61.17-1.34.25-1.6,1a.32.32,0,0,1-.49.13c-.21-.12-.07-.26,0-.4.26-.39-.16.06-.11-.07-.22,0-.29-.17-.26-.46a2.29,2.29,0,0,0-.34,1.17c0,.15,0,.35-.18.4s-.33-.13-.44-.28a1,1,0,0,1-.15-.29c-.25-.91-.32-.92-1.07-.3a4.81,4.81,0,0,1,.75.28c.41.27.79.67.44,1.13-.51.68-.24,1.17.19,1.69.12,1.09,1.1,1.29,1.83,1.58s1.35.8,2.16.36c.22-.12.3.16.49.21a6.16,6.16,0,0,0,2.05.09,1,1,0,0,1,1,.54,4.33,4.33,0,0,1-2.51.29,18.26,18.26,0,0,1-6.46-1.47A4.39,4.39,0,0,1,52,106.18Z"/><path class="cls-72" d="M80.9,36.21l2.6-.16a5.63,5.63,0,0,1,2.24-.11c.21,0,.43.14.63.07.7-.26.79.19.86.69a33.45,33.45,0,0,1,1,4.74c.21,1.18.42,2.36.52,3.57.14,1.56-.75,1.77-2,1.73a3.56,3.56,0,0,1-1.48-.33c-.63-.31-.79,0-.9.49a2.28,2.28,0,0,1-.15.36,19.25,19.25,0,0,1-1-3.25,16.41,16.41,0,0,1-.56-2.52,11.49,11.49,0,0,0,0-1.76.58.58,0,0,1,.08-.47c.57-.58.42-1-.2-1.47a.67.67,0,0,1-.25-.4,1,1,0,0,0-1.14-.8.74.74,0,0,1-.59-.21C80.57,36.11,80.71,36.1,80.9,36.21Z"/><path class="cls-73" d="M64.34,25.83l-.9,1c-.12.13-.35.23-.44.11-.52-.75-1.2.05-1.91-.37.38.66,1,.52,1.31.88a4.36,4.36,0,0,0-1.12,2.66c-.06,1.1,0,2.21-.84,3.1-.25.25.13.34.3.4.33.11.92,0,.85.48s-.55.38-1,.28c-.17-.05-.39.1-.67.19.26.3.57.52.52,1a2.14,2.14,0,0,0-1.73.16c0,.27.25.27.39.38s.18.21.11.34-.18.09-.29.05c-.39-.14-.64-.07-.63.41a1.37,1.37,0,0,1-1.22-1.3,43,43,0,0,1-.74-6.31,10.67,10.67,0,0,1,.45-2.69c.3-1,.57-1.2,1.68-1.24h.32a.4.4,0,0,1,.65.17,1.41,1.41,0,0,0,.94.18,19.18,19.18,0,0,1,3.12.14C63.8,25.83,64.07,25.64,64.34,25.83Z"/><path class="cls-74" d="M47.61,87.37a12.09,12.09,0,0,0,2.37.38c.91-.06,1.43.62,1.51,1.73a55.2,55.2,0,0,0,1,7.35,4.26,4.26,0,0,1,0,.8c0,.46-.22.69-.66.55a5.85,5.85,0,0,0-2.63.13,7,7,0,0,1-4-.39,3.86,3.86,0,0,0-.64-.82c-.43-.5-.33-.68.14-1.1A11.25,11.25,0,0,1,47,94.45a1.05,1.05,0,0,0,.48-.63,1.2,1.2,0,0,1,.7-.73c.29-.12.69-.29.6-.66a1.2,1.2,0,0,0-.77-.86c-.66-.22-.7-.43-.22-.94.18-.2.67-.29.47-.64a2,2,0,0,0-.94-1c-.26-.1-.72.24-.76-.31a1.36,1.36,0,0,1,.53-1.13C47.24,87.46,47.45,87.46,47.61,87.37Z"/><path class="cls-75" d="M24.74,86.52c-.6,1,.23,1.73.47,2.56.18.61-.06,1.36-.49,1.2a2.21,2.21,0,0,0-.76,0c-.23,0-.53-.22-.62.12s.3.34.59.38c-.32.49-.87.68-1.07,1.17-.09.25-.14.49.08.67s.32-.09.47-.17.37-.41.69-.11.25.52.08.85a1.34,1.34,0,0,0,.33,1.47c.36.42.55-.37,1-.31-.12.51-.16,1-1,.76-.27-.09-.31.66-.82.3A1.4,1.4,0,0,0,23.85,94a.54.54,0,0,0-.51.31c-.16.38-.3.28-.6.14a.66.66,0,0,0-.94.39.52.52,0,0,1-.32-.33c-.11-.45.33-1-.34-1.32-.09.12.12.51-.29.49A8.93,8.93,0,0,1,19.18,91a11.65,11.65,0,0,0-1.92-2.68,8.1,8.1,0,0,1-.87-1.54c-.32-.74.09-1.35.8-1.17a41.4,41.4,0,0,0,7.09.81A1.88,1.88,0,0,1,24.74,86.52Z"/><path class="cls-76" d="M70.47,54.41a17.92,17.92,0,0,1,.39,5.32c0,.45.31,1-.53,1-.06,0,0,0-.08.06-.69,1-1.23,1-2.38.38a1.5,1.5,0,0,0-1.3-.51c-.27.05-.59,0-.47-.42C66.18,60,66,60,65.84,60c-1.09.21-1.11-.73-1.35-1.33-.15-.38-.18-.62-.7-.63s-.63-.3-.1-1c-.25-.21-.84-.11-.73-.67s.72,0,1-.34c-.16,0-.31.07-.4-.06-.21-.3-.4-.31-.61,0a.33.33,0,0,1-.5.07.85.85,0,0,1-.33-.71.36.36,0,0,1,.34-.38,1.84,1.84,0,0,1,.4-.06,1.5,1.5,0,0,0,1.59-.6c.12-.18.3-.08.43,0a1.15,1.15,0,0,0-.27-.38c-.25-.27-.12-.5.16-.51A2.26,2.26,0,0,0,66,53c.09-.06,0-.07.07,0,.56.71,1.51-.18,2,.52.26-.3.07-1.16.88-.77,1.31.63,1.27.5.77,1.74C70,54.27,70.23,54.16,70.47,54.41Z"/><path class="cls-77" d="M78.79,52.94c.4.35.77.43,1.13-.07.2-.27.51-.53.77-.12s.87.62.2,1.1c-.09.06-.18.8-.38,0-.41.21-.28,1.07-1.06.85-.1,0-.22.24-.15.51s.3.82-.46.71c.31.27.39.7.89.76-.57.32-.9,1.29-1.64.35-.16.36.24,1-.53.92,0,0-.12.07-.11.09.19.92-.42.64-.87.59s-.35.27-.43.47c-.22.54-.49.76-1.12.48-.44-.21-1-.23-1.25-.7,0-.06-.13-.1-.15-.17-.14-.44-.31-.62-.86-.89-.35-.17-.16-.66-.47-.87l-.09-3.23a2.12,2.12,0,0,1,.27-1.3c.65.1,1.08-.53,1.7-.55.55-.59,1.26,0,1.86-.26.48.69.6-.16.91-.21s.13.24.22.36c.36.25-.06.54,0,.84.72-.89,1.06.08,1.57.29Z"/><path class="cls-78" d="M62.89,109.77c.12.28.38.44.5.73s.25,1,.81.25c.11-.15.58.24.62-.27.22,0,.26.25.37.39s0,.28-.15.34c-.77.23-1.22.92-1.89,1.31-.49.28.36.68-.22,1.1.61-.12.48-.57.81-.74.22.54,1.07.78.62,1.62a1.2,1.2,0,0,1-.43.56c-.08,0-.23.09-.23.14,0,.33,0,.27-.46.25a21.42,21.42,0,0,1-2.52-.44.46.46,0,0,0-.51.3.84.84,0,0,1-.87.45c-1,0-1,0-.68-.9-.53-.13-.67.45-1.09.6a2.35,2.35,0,0,1-1.58.18l-.23-.09c-.2-.09-.6.55-.6-.1a.72.72,0,0,1,.79-.68,1.75,1.75,0,0,0,.71-.1c1-.24,1-.23.39-1.09a.59.59,0,0,1-.15-.44c.19-.91.19-.91-.09-1.48-.25.45-1.3.54-1.88.14-.23.13,0,.4-.16.54a3.28,3.28,0,0,1-1.18-.83c-.23-.26-.57-.49-.38-.89a1.13,1.13,0,0,1,1-.71,10.08,10.08,0,0,1,3.29.27,6.91,6.91,0,0,0,3.56-.22A7.12,7.12,0,0,1,62.89,109.77Z"/><path class="cls-79" d="M58.5,86.54A34.42,34.42,0,0,1,53,86.22,2.49,2.49,0,0,1,51,84a25.36,25.36,0,0,1-.61-5.27c0-1.62.72-3.37,3-3.13,1.42.15,2.86-.16,4.27.19-.09.48-.16.56-.79.51a6.94,6.94,0,0,0-2.4.24c-.62.16-.71.43-.29.93a1.31,1.31,0,0,0,.11.12c.2.27.73.26.67.72s-.48.44-.77.62a.48.48,0,0,0-.07.82c.8.63,1,1.68,1.63,2.39a.71.71,0,0,1-.07,1.18,2.26,2.26,0,0,0-.68,1c-.13.31-.27.6-.7.54a.23.23,0,0,0,.31.06c.62-.62,1.21-.38,1.81,0,.44.29.88.55,1.4.11.27-.24.57-.44.93-.12a.84.84,0,0,1,.15,1.1A1.12,1.12,0,0,1,58.5,86.54Z"/><path class="cls-80" d="M47.61,87.37a1.91,1.91,0,0,0-.9,1.51c.5-.21.83,0,1.26.32,1.33,1-.1,1.43-.49,2.22,1-.47,1.12.44,1.59.78.22.16,0,.51-.19.68-.59.42-1.23.75-1.48,1.52-.11.35-.59.43-.94.54-.78.25-1.15,1.06-1.93,1.35-.37.13,0,.47.15.72s.85.34.49.91a1.39,1.39,0,0,1-1.3-1.1A13.54,13.54,0,0,1,43,91.4c0-.37-.23-.58-.47-.79a2.89,2.89,0,0,1-1-2.14,1,1,0,0,1,.88-1.14A11.37,11.37,0,0,1,46,87.25C46.54,87.3,47.08,87.27,47.61,87.37Z"/><path class="cls-81" d="M82.85,41.41c.39,1.63.77,3.27,1.19,4.9a5.15,5.15,0,0,1,.12.95,1.66,1.66,0,0,1-1.57,1,51.42,51.42,0,0,1-6.88.91c.17-.17.07-.87.61-.31.16.16.28.05.4-.09s.46-.45.82-.19a13.83,13.83,0,0,0,2.39-1.42c-.38-.7.68-1.37.14-1.94a2.25,2.25,0,0,1-.76-2.11c0-.27-.25-.59-.58-.72a.47.47,0,0,1-.26-.54c0-.42.32,0,.38-.09a3,3,0,0,0,.67-1c.1-.35-.46-.25-.55-.41s-1.1-.48-.25-1a.24.24,0,0,0,.06-.22c-.34-1,.25-1.16,1.06-1,0-.37-.25-.33-.4-.45s-.21-.32,0-.4.59.26.69-.14-.4-.45-.58-.71a.59.59,0,0,1,.63-.12c1.86.83,2.2,2.54,2.5,4.29A2.27,2.27,0,0,0,82.85,41.41Z"/><path class="cls-82" d="M83.69,101.33a14.88,14.88,0,0,1-3.82,3.85,5.07,5.07,0,0,1-4.8.65c-.29-.12-.49-.25-.38-.66a5.84,5.84,0,0,1,1.23-2.74,1.89,1.89,0,0,0,.61-1.18,1.94,1.94,0,0,1,.76-1.11c.37-.09.58.4,1,.26.1-.18-.2-.49.14-.61s.52-.08.64.27.29.09.4,0a7.13,7.13,0,0,0,1.44-.84c.32-.2-.25-.64.1-.93.64-.23,1.15-.74,1.83-.92a2.12,2.12,0,0,1,2.28,1,.93.93,0,0,1-.2,1.11c-.37.39-.74.79-1.14,1.15S83.68,101.11,83.69,101.33Z"/><path class="cls-83" d="M99.06,78.91a16.38,16.38,0,0,1,1-3.42c.37-1.3.65-1.51,2-1.44a1.11,1.11,0,0,0,.54-.13c.3-.14.67,0,1-.25s.29.36.56.23.63.19.93.32a.5.5,0,0,1,.35.56.48.48,0,0,1-.57.43c-.16-.1-.27-.28-.45-.32s-.29,0-.18.19.09-.11.19-.1a1.32,1.32,0,0,1,.43.21,16.14,16.14,0,0,1-.12,5.37,3.38,3.38,0,0,1-.69,1.79c-.06.09-.13.22-.22.22-1.47.1-2.78,1.1-4.33.71a1.1,1.1,0,0,1-.77-1.45A19.48,19.48,0,0,0,99.06,78.91Z"/><path class="cls-84" d="M17.9,48.07a.86.86,0,0,1-.41.82,2.58,2.58,0,0,0-.92,2.5c.08.43-.35.87-.12,1.37.1.24.08.59.24.75.41.38.67.7.12,1.15,0,0-.08.13-.06.14.57.54-.12.94-.15,1.42a2.13,2.13,0,0,0,2,2.13,9.17,9.17,0,0,1,3.63,1.24c.24.15.08.32,0,.48a18.36,18.36,0,0,1-4-.41,10.39,10.39,0,0,1-2.84-.22c.56-.4,1.2,0,1.7-.18a2.74,2.74,0,0,1-1.47-.18c-.45-.27-.72-.13-.87.33-.8-.25-1.66,0-2.44-.31-.15-.35.06-.33.3-.33,1,0,1-.1,1.12-1a1.6,1.6,0,0,0-.62-1.69c-.29-.22-.11-.6.05-.89.31-.57.63-1.12.06-1.75-.19-.22,0-.52.12-.76a.84.84,0,0,0-.18-1.22c-.26-.2-.3-.43,0-.65.5-.37.23-.7-.13-.87a5.14,5.14,0,0,1-.92-.74c-.55-.45-.37-.9-.14-1.36s.78-.44,1.22-.33c.61.16,1.18.58,1.87.28h.65a4,4,0,0,0,1.39.12A.75.75,0,0,1,17.9,48.07Z"/><path class="cls-85" d="M36.4,15.59c1-1.72,1.89-3.45,3.79-4.32a2.72,2.72,0,0,1,1.36,0,16,16,0,0,1,3.57.54c.81.24,1,.54.46,1.21-1,1.38-1.91,2.85-2.86,4.29a8.16,8.16,0,0,1-2.39,2.57c-.58.18-.65-.41-.71-.64-.14-.46-.4-.87-.51-1.34a1.28,1.28,0,0,0-.82-.88c-.65-.32-.83-1.09-1.1-1.74-.23.23-.08.78-.53.84C36.41,16.1,36.35,15.83,36.4,15.59Z"/><path class="cls-86" d="M58.5,86.54a2.27,2.27,0,0,0,.42-.87c.06-.31-.19-.49-.37-.67s-.29,0-.4.11c-.69.8-1.37.43-2,0-.49-.37-.93-.56-1.34.09-.11.17-1-.08-1.06-.29s.18-.27.35-.2c.43.17.58,0,.74-.4a1.81,1.81,0,0,1,.83-1.13c.52-.26.19-.63-.09-.9-.75-.73-.93-1.83-1.74-2.53-.39-.34,0-.9.56-1a.54.54,0,0,0,.44-.31c.13-.31-.18-.23-.31-.33a1.65,1.65,0,0,1-.75-.89c-.11-.47-.31-.71.5-.79a13.31,13.31,0,0,1,3-.25c.23,0,.43,0,.46-.31,1,0,1.39.45,1.46,1.58.12,1.69.2,3.37.18,5.06a22.75,22.75,0,0,1,.07,2.61C59.31,85.69,59.19,86.3,58.5,86.54Z"/><path class="cls-87" d="M64.64,103.44a4,4,0,0,1,.34-3c.09-.19.13.21.33,0,.42-.44,1.11-.24,1.62-.54.13-.07.33,0,.45-.15a5.45,5.45,0,0,1,3.71-1.06c.36,0,.68-.17,1-.21a2.58,2.58,0,0,1,.48,0c1.23,0,1.23,0,.89,1.18,0,.13-.08.26,0,.37a1.66,1.66,0,0,1,0,2.46c-.18.22,0,.47,0,.71s0,.4-.17.5-.31,0-.41-.16-.35-.16-.51,0a3.21,3.21,0,0,1-3.06.82c-.74-.07-1,.5-1.61.54-.11,0-.24.29-.4.15-.55-.45-.94-.11-1.31.25a.51.51,0,0,1-.59.1c-.55-.35-.46-1-.65-1.5C64.77,103.83,64.84,103.59,64.64,103.44Z"/><path class="cls-88" d="M70.18,87.19c-.56.7-.65,1.64-1.15,2.36A1.44,1.44,0,0,0,69,91.23c.25.48.74,1-.07,1.45-.18.1.06.28.12.28,1,0,1,1.13,1.62,1.49.07-.24.13-.59.58-.5.29,0,.38-.14.45-.36s.28-.16.45-.1c.52.18,0,.18-.06.28s0,.19.18.18.36.18.54-.09.48-.62.83-.1c.16.23.29.06.45,0,.78-.5,1-.4,1.19.47.05.2,1.24.63,1.3.47.28-.76,1-.37,1.45-.55.11,0,.27.26.36,0s-.09-.23-.2-.29c-.74-.38-.85-.85-.13-1.11s.74-1.08,1.22-1.51c.09-.08.11-.24.37-.3-.33.43,0,.7.15,1-.49,1-1,2-1.47,2.93a2.33,2.33,0,0,1-1.92,1.31,48.37,48.37,0,0,1-7.31.5,17.38,17.38,0,0,1-1.77-.17,1.19,1.19,0,0,1-.94-1.32c.29-1.8.59-3.59.92-5.38a9.5,9.5,0,0,1,.46-1.26.6.6,0,0,1,.61-.06c.59.27.76.19.65-.42s.14-.69.55-.79Z"/><path class="cls-89" d="M70.35,23.23A4.15,4.15,0,0,1,71.52,23c1.11,0,1.58-.78,2.13-1.5a.73.73,0,0,0,.06-.7,5,5,0,0,1-.3-1.34.47.47,0,0,0-.33-.48,6.67,6.67,0,0,1-2.89-2.47,25.27,25.27,0,0,1-1.39-2.14c-.55-.89-.25-1.53.76-1.63a7.25,7.25,0,0,0,1.64-.22c.53-.17,1,.47,1.42.79a3.81,3.81,0,0,1,.32.24,7.48,7.48,0,0,0,1.31,1.93c.9.71,1,1.78,1.29,2.77a8.61,8.61,0,0,0,.73,2.69,2.28,2.28,0,0,1-.1,1.73c-.21.67-.77.65-1.3.84-1.46.54-2.93.07-4.38.23C70.1,23.73,70.28,23.42,70.35,23.23Z"/><path class="cls-90" d="M104.77,75.18c.25-.14.67-.49.42-.58s-.54-.84-1.09-.5c-.14.09-.25.25-.4.11s.21-.13.15-.28-.2-.22-.23-.16c-.23.4-.75.11-1,.45s-.39,0-.57,0-.71-.47-.83.21c-1-.37-.65.83-1.16,1,.1-1.62.54-2.15,2.09-2.51l3.9-.89a1.17,1.17,0,0,0,.82-.11c1.56-.19,1.74.06,1.5,1.69A31.83,31.83,0,0,1,105.5,82a1.85,1.85,0,0,1-1.62,1.18,30.51,30.51,0,0,0-3.5.8,3.94,3.94,0,0,1-1.6.09,2.88,2.88,0,0,0-1-1c-.14-.1-.15-.19,0-.31.55-1.26.76-2.63,1.25-3.91a4.15,4.15,0,0,1,0,1.79,9.44,9.44,0,0,0-.29,1.48c0,.65.47.95,1.29,1a7,7,0,0,0,2.4-.55c.33-.11.61-.45,1-.12.13.12.19-.11.28-.19.41-.32.37-.89.77-1.26s-.32-.25-.39-.55c.88.12.4-.6.41-.83,0-.69.16-1.37.18-2.06a4.71,4.71,0,0,0-.21-2c0-.06.22-.21.21-.4Z"/><path class="cls-37" d="M31.06,62c.19.49,1.15.25,1,1.09a2.87,2.87,0,0,0-1.51.3c-.38.21-.26.86-.56.81-.55-.09-.78.27-1.1.51A2.51,2.51,0,0,0,28,67.5a.94.94,0,0,1,0,.62.73.73,0,0,0,.14.83c.38.34.28.68.11,1.09a1.52,1.52,0,0,0,1.28,2,1.62,1.62,0,0,1,1.5,1.37,8.52,8.52,0,0,1-1.79.32,1.22,1.22,0,0,0-.79-.39,2.29,2.29,0,0,1-1.87-1.13c-.7-1-1.68-1.83-1.71-3.14a43,43,0,0,1,0-4.54,1.52,1.52,0,0,0-.07-.79c-.33-.67-.11-1.27.64-1.39a1.31,1.31,0,0,0,.94-.72,3.81,3.81,0,0,1,1.5-.13,1.8,1.8,0,0,1,.4,0A26.38,26.38,0,0,1,30.9,62Z"/><path class="cls-91" d="M101.69,31.85c0-.36.46-.66.48-.83.06-.58,1-.84.51-1.58-.3-.43-.62-.53-.82,0-.3.77-1,.65-1.55.77-.36.08-.46-.21-.54-.54s0-1.28-1-.65c-.45.3-1.23-.24-1.18-.78s-.37-1.18.24-1.65c-.72-.6.29-1.29,0-1.68s-.37-1.28-1.08-1.49c-.46-.13-.22-.32-.08-.51s.18-.58.54-.28c.09.08.11.3.27.17s.07-.25.07-.38-.08-.2-.24-.25a3.25,3.25,0,0,0-2.75.3c-.26.17-.63.3-.74-.22.21-.47.6-.39,1-.32.53-.23,1.08-.46,1.6-.71,1.52-.75,2.34-.57,3.39.73a5,5,0,0,0,.53.49c1,2,2.12,3.86,3,5.9a4,4,0,0,1,.31,1.49,1.47,1.47,0,0,1-1,1.53C102.34,31.49,102,31.68,101.69,31.85Z"/><path class="cls-92" d="M39,50.35c.14.41.26.84.41,1.25.09.22.54.39,0,.64-.16.08,0,.28.11.38a3.57,3.57,0,0,0,.66.46.68.68,0,0,1,.45,1,1.36,1.36,0,0,0,.14,1.52.33.33,0,0,1,.1.37.88.88,0,0,0,.34,1.14A3.77,3.77,0,0,1,42.35,59c.26.67.76.8,1.25,1,.13.06.38,0,.37.2a.87.87,0,0,1-.24.49c-.18.19-.33,0-.48-.1s-.26-.35-.57-.36c0,.42.41.67.38,1.06a41.78,41.78,0,0,1-5.48-.12,1.06,1.06,0,0,1-.85-.5.84.84,0,0,1,.25-.31c1-.83,1-1.09.11-2.08-.23-.26-1-.62.09-.76.22,0,.17-.21.14-.38-.16-.87-.16-.88.78-.92-.52-.37-.44-1.07-1-1.4-.26-.15,0-.46.12-.64.46-.55.12-1.08,0-1.6s-.4.16-.59,0a11.17,11.17,0,0,1,.18-1.18C37,50.52,37.44,50.33,39,50.35Z"/><path class="cls-93" d="M70.47,54.41h-.08c-.39-.17-.38.4-.58.37-.58-.1-.15-.38-.06-.61s-.35-.55.21-.59c0,0-.16-.35-.38-.39a2.91,2.91,0,0,1-1-.52c-.13.43-.24.81-.37,1.27-.24-.34-.48-.69-.9-.64-.1,0,0,.38-.44.28s-.6-.15-.65-.67a1.42,1.42,0,0,1-1.62.68c.44.24.36.62.49,1-.3-.11-.46-.45-.7.07s-1.12.27-1.69.41c-.16,0-.43-.14-.41.17s0,.52.27.64.25-.17.35-.29.26-.48.46-.18.6.4,1,0c-.41.78-.41.78-1.15.68-.14,0-.19.07-.21.17s0,.28.16.31.51.09.77.14A.14.14,0,0,1,64,57c-.5.64-.5.64.3.77a.3.3,0,0,1,.2.12,8.91,8.91,0,0,0,.56,1.51c.12.2,0,.44.34.38a.89.89,0,0,1,.6,0c.52.19.53.16.13.7.74-.16,1.38-.16,1.78.53-.1.34-.21.64-.67.43l-1.5.25c-.22.1-.35-.06-.5-.17a1.38,1.38,0,0,0-.94-.29c-.19.26.15.51,0,.77a2.27,2.27,0,0,1-1.51-1.19A10.94,10.94,0,0,1,61.52,55c0-.61-.14-1.23-.11-1.85A1.44,1.44,0,0,1,63,51.65h.9A33.91,33.91,0,0,0,68,51.36c2.14-.2,2.17,0,2.31,2.09C70.37,53.77,70.43,54.09,70.47,54.41Z"/><path class="cls-94" d="M95.34,87.67c0-.29.23-.42.38-.62.08,0,.19,0,.21.07.23.84.66.84,1.24.3a.26.26,0,0,1,.42,0c.22.28.58.45.75.68a5.39,5.39,0,0,0,2.15,1.49,4.75,4.75,0,0,0,.63.14c.16,0,.2.17.06.3l-.5.83c-.45,0,0-.55-.28-.55-.05.47.06,1-.49,1.34-.07,0,.16.24,0,.36l-2,2.43a5.27,5.27,0,0,0-2.2-.13.34.34,0,0,1-.37-.09c-.3-.42-.54-.41-1-.14s-.57.23-.46.65,0,.51-.28.55-.48-.19-.59-.45c0-.07.2-.43-.19-.12s-.93.06-1.39-.07c-.14-.13-.16-.25,0-.35s.07-.24.13-.26c.37-.13.11-.26,0-.39,1-1.85,2.2-3.57,3.29-5.35C95.09,88.15,95.34,88,95.34,87.67Z"/><path class="cls-95" d="M54.76,105.69c-.37,0-.26-.53-.64-.62-.12,0-.23-.46,0-.63a.84.84,0,0,0,.39-1c-.17-.58-.71-.42-1.06-.63-.08,0-.28.16-.33,0s.11-.43.16-.42c.43,0,.7-1,1.24-.2a3.19,3.19,0,0,0,.61-.27c-.47.59-.57,1,0,1.47a1.78,1.78,0,0,1,.52-1.7c.24.07,0,.45.25.52s.05-.43.39-.47c.2.39-.14.66-.23,1l.12,0a1.9,1.9,0,0,1,1.92-1.33c.74-.06,1.43-.77,2.28-.27a1.21,1.21,0,0,0,1.1,0c.2-.15.39-.5.67-.23a1.6,1.6,0,0,1,.47.81c.1.53.05.54.5.67-.11.48-.64.61-.88,1a1.08,1.08,0,0,0,1.44-.64c0,.43,0,.86,0,1.29a.37.37,0,0,0-.07.14c0,.68-1.33.1-.93.94.31.68-.49.89-.37,1.46.06.3-.25.27-.45.12s-.27-.4-.42-.59-.15-.16-.18-.14c-.92.57-1.08-.48-1.59-.75,0,0,0-.1,0-.15l0,0c.12.57-.31,1.15.05,1.77.11.18-.14.43-.39.53a1.81,1.81,0,0,1-1.22-.52c-.1-.09-.19-.23-.33-.21-1.26.18-.35-.53-.35-.86-.41.34-.7-.08-1-.12s-.47.58-1,.47A1.08,1.08,0,0,1,54.76,105.69Z"/><path class="cls-96" d="M75.54,18.2c-.64-.83-.65-1.94-1.29-2.77.58,0,.65-.18.37-.67-.64-1.13-.5-1.47.74-1.82a3.69,3.69,0,0,1,3-.1,2.52,2.52,0,0,1,1.23,2.23,1.14,1.14,0,0,0,.33.73,2.21,2.21,0,0,1,.38,1.92A8.6,8.6,0,0,0,80.07,20a5.83,5.83,0,0,1-.38,2.06c-.13.38-.35.55-.74.32a3.65,3.65,0,0,1-1.79-1.9,5.59,5.59,0,0,1-.71-1.59A.81.81,0,0,0,75.54,18.2Z"/><path class="cls-97" d="M36.4,15.59l.26.43c.33-.41.09-1,.76-1.32-.23.82.58,1.21.63,1.91,0,.15.1.27.27.21.63-.21.81.35.87.68.11.55.58,1,.49,1.55.49,0,.22.7.65.78a1.46,1.46,0,0,1-.75,1C39,21,39,21.45,39,21.94h0a18.27,18.27,0,0,1-6-.78c-.85-.28-1.11-.75-.77-1.57a5.53,5.53,0,0,1,1.13-2,2.18,2.18,0,0,1,1.82-.85C36,16.79,36,16,36.4,15.59Z"/><path class="cls-98" d="M65.15,96.44c.22,1.14-.78,2-2.33,1.71a5.64,5.64,0,0,0-2.35.08,10.29,10.29,0,0,1-4.78,0,1.82,1.82,0,0,1-1.23-.94,18.92,18.92,0,0,1-1.79-5.73c-.08-.37-.13-.74-.19-1.11a2.13,2.13,0,0,1,2.39-2.59,33.19,33.19,0,0,0,4.77.28c.11,0,.21,0,.32,0,.14.57-.29.55-.62.55a5.82,5.82,0,0,0-2.89.72,4.47,4.47,0,0,0-1.31.89.92.92,0,0,0-.2.57c-.18.37-.15.81-.55,1.12s-.14,1.3.32,1.67c.85.7,1.17,1.88,2.24,2.35.14.06.06.22.06.35,0,.62.24.8.83.59a2.49,2.49,0,0,1,.83-.29,1.22,1.22,0,0,1,.5.4c0,.06,0,.2.07.19,1.46-.42,3.06-.16,4.42-1a1.72,1.72,0,0,0,.77-.69c.07-.16.13-.4.38-.35s.27.29.26.52S65,96.25,65.15,96.44Z"/><path class="cls-99" d="M104.28,56.67c.2.24.44.06.42-.08-.07-.43,1-1-.15-1.36-.43-.14-.1-1.6.42-1.76a1,1,0,0,0,.57-.5c.4-.63,1-.7,1.37-.14s1.06.43,1.29,1c.36-.33.71-.58.26-1.07-.29-.32,0-.5.24-.76s0-.63.48-.26c.16.12.33-.11.18-.26a2.61,2.61,0,0,1-.72-1.72,1.46,1.46,0,0,0-1.33-.91c-.09,0-.19-.06-.44-.15a2.78,2.78,0,0,1,.64-.24c.92-.07.7-1,1.18-1.46,0,0,0-.18,0-.2-.26-.12-.38-.23,0-.41a.37.37,0,0,1,.6.16c.12.2.14.58.55.39.39,2.72.23,5.51,1.06,8.19a1.35,1.35,0,0,1-.82,1.65c-.92.16-1.43.8-2.13,1.2-.59-.29-.59-.21-2-.21a2.55,2.55,0,0,1-1.9-.73C103.75,56.77,103.85,56.56,104.28,56.67Z"/><path class="cls-100" d="M87.88,72.58c-.47-.21-.9-.62-1.54-.35.63-.61.17-1.47.66-2.17-.74.11-1.66,1-2-.64.27.84-.12.78-.59.87-.85.16-1.13,1-1.52,1.86-.07-.39-.11-.58-.19-1-.13.7-.34.94-.67.39-.2-.35-.41-.17-.72,0,.26-.69-.2-1.39.31-2a.17.17,0,0,0-.08-.27c-.76-.33-.63-.77-.15-1.28.25.2,0,.53.26.8a4,4,0,0,0,.34-.9c0-.13,0-.19.13-.18.65.07.63-.44.9-1-.3.19-.42.29-.55.36s-.2.3-.39.17-.08-.19-.07-.29a.29.29,0,0,1,.31-.3c.37,0,.57-.22.84-.46a1.49,1.49,0,0,1,1.74,0c.33.17.54.27.66-.16,0-.17.1-.31.31-.28a.38.38,0,0,1,.33.4c0,.63.27.38.65.3,1-.21,1.5-1,2.09-1.7a23.38,23.38,0,0,1-.69,5.52C88.17,71.07,88,71.82,87.88,72.58Z"/><path class="cls-101" d="M28,23.72a1.51,1.51,0,0,0-.38.06c-.71.29-.83-.14-.87-.68s-.6-.57-.9-.84-.37.19-.59.23a.15.15,0,0,0-.06.05c-.5.84-1.29.81-2.12.78a1.26,1.26,0,0,0-1.06.22c-.25.23-.71-.46-1.22-.39-.12.11,0,.23,0,.36.1.55.31,1.17-.69.88a1,1,0,0,0-.68.15c-.06,0-.71.39,0,.54a.35.35,0,0,1,.19.61c-.3.35-.49,1-1.19.72-.09,0-.36-.13-.31.26s0,.4-.55.13c1.16-2.3,2.51-4.5,3.85-6.7a1,1,0,0,1,1-.45,64.35,64.35,0,0,1,7.45,1c.62.12.8.56.3.94C29.34,22.19,28.8,23.09,28,23.72Z"/><path class="cls-102" d="M75.38,24.69c.24.26.08.39-.17.44a3.67,3.67,0,0,0-2.61,1.79.49.49,0,0,1-.17.15c-.66.33-.79.78-.19,1.17.92.61.76,1.49.76,2.33,0,.35-.07.64.34.78.18,0,.3.17.19.35a.6.6,0,0,1-.34.31c-.39.08-.92.7-.75,1.06s-.23.6.06.9c.06.06-.19.58-.4.68s-.38-.21-.45-.46c0-.1-.19-.22-.19-.17,0,.35-.51,0-.47.41a.47.47,0,0,1-.17.51.79.79,0,0,1-.65-.73c-.38-2.13-.61-4.3-1.09-6.42a4.44,4.44,0,0,1,.09-2,.94.94,0,0,1,1-.78c1-.07,1.94-.15,2.91-.13C73.84,24.88,74.6,24.7,75.38,24.69Z"/><path class="cls-103" d="M54.77,90.92c0-.29-.2-.74.41-.73,0,0,.12-.07.11-.09-.39-1.21.68-.43,1-.71a3.42,3.42,0,0,1,1.86-.74,2.33,2.33,0,0,1,1.17-.1A.48.48,0,0,0,60,88.2a51.29,51.29,0,0,1,5.4.31c.33,0,.37.31.4.52a6,6,0,0,1,0,1.2c-.17,2.08-.26,4.16-.62,6.21-.54-.19.14-.81-.42-1-.29,1.16-1.31,1.32-2.23,1.56a4.2,4.2,0,0,1-2.86.2l-.07,0c-.26.12-.07.55-.31.6-.46.09-.24-.29-.22-.48s-.45-.22-.39-.53a3.19,3.19,0,0,1,2.78-.62c.6.1,1,.16,1.37-.44.14-.25.44-.27.71-.34a1.06,1.06,0,0,0,.89-1.32,1,1,0,0,1,0-.69.93.93,0,0,0-.08-.85,6.1,6.1,0,0,1-.93-2.12.56.56,0,0,0-.68-.44,2.51,2.51,0,0,0-1.63.76c-.71.92-.75.88-1.79.34-.35-.19-.75-.43-1.09.08-.11.16-.35.28-.49.13s-.53-.09-.8-.08-.53.14-.57-.33c0-.32-.39-.16-.6-.15S55.13,91,54.77,90.92Z"/><path class="cls-104" d="M41.21,105.68c-.28.2-.8-.14-1,.4.5.13,1.17.12.73,1-.13.26.34.39.32.68-.52.23-1-1-1.6,0-.05-.57-.64-.5-1-.94.06.33.09.5.13.7-.59-.06-.39-.56-.55-.9-.17.75-.89-.07-1.09.71-.2-.7.48-.86.28-1.36-.38.5-.72.71-1.1,0-.18-.36-.35.31-.69.16.67-1-.89-.62-.75-1.32-.45.24-.91-.51-1.32.11-.19-.51.82-.37.38-.93-.32-.41-.29.25-.54.15a.5.5,0,0,1,.25-.59c.06,0,.3-.06.17-.13-.72-.45-.08-.82,0-1.2s-.33-.38-.38-.67c.16-.17.26.13.37.08.35-.18.94.17,1.06-.29.07-.26-.32-.65-.72-1a8.51,8.51,0,0,1,1.82.25c-.24.71.76.61.75,1.17.63,0,.43.42.42.77a.77.77,0,0,0,.4-.74c.4-.26.65.68,1.05,0a.86.86,0,0,1,.49.5C39.74,103.48,40.57,104.53,41.21,105.68Z"/><path class="cls-105" d="M85.28,57.81c.34.17.79.67.68-.3,0-.26.35-.48.61-.56.45-.16.45-.12.59-.68,0-.12.22-.21.36-.33.1.23.17.44.28.64a.32.32,0,0,0,.27.13c.56-.1.55-.11.67.47,0,0,.06.09.09.13A11.48,11.48,0,0,1,88.32,60a1.11,1.11,0,0,1-1.1.9,24.09,24.09,0,0,0-2.56.2,3.66,3.66,0,0,1-1.72.29c-2,.15-4.09.13-6.12.3-.21,0-.46.07-.46-.27a3.14,3.14,0,0,0,1.11-1.69c.08-.18.29-.28.36-.2.71.77,1-.21,1.52-.28a2.88,2.88,0,0,0,.3.57c.21.26.48.35.72,0s.48-.82,1-.92c.13,0,.06-.33,0-.49,1.3-.22,1.3-.22,1,.67a.73.73,0,0,0,.81-.86c0-.28,0-.43.29-.41s.22.31.15.46c-.17.4.34.68.15,1.08.66-.75.82-1.78,1.55-2.53v1c-.06.08-.16.14-.17.25A1.32,1.32,0,0,0,85.28,57.81Z"/><path class="cls-106" d="M8,68.18l-.25-.35c.27.85-.77.72-.92,1.23,0,0-.06,0-.08,0a3.59,3.59,0,0,1-2.09-1.34,2.22,2.22,0,0,0,.18-.23c-.31-.3-.31-.54.1-.78.24-.14.13-.43.21-.7-.3.07-.17.47-.52.51,0-.5-.46-.77-.52-1.34s.47-.82.37-1.3c-.2,0-.28.1-.28.25s-.1.18-.22.15a.17.17,0,0,1-.1-.26,2.86,2.86,0,0,1,.41-.69c.35-.37.21-.68-.22-.94-.25-.15-.73-.35-.28-.87a2.69,2.69,0,0,0,.11-.88c0-.47.34-.64.7-.88s.57-.1.94.07a1.09,1.09,0,0,1,.76,1.08c0,.21-.34.49-.37.85s.14.72.65.59.91-.24,1.11.38a.37.37,0,0,0,.13.16c.82-.32.67.42.86.78C8.43,65.16,8.21,66.67,8,68.18Z"/><path class="cls-107" d="M15.14,47.76a1.06,1.06,0,0,1-1.25.07c-.61-.55-1.78-.21-1.81.59A1.26,1.26,0,0,0,13,49.59c.6.1.72.54.84.89s-.48.3-.66.64c.84.43.94,1,.35,1.78-.25.33,0,.56.2.76s.42.61,0,1-.18.67-.47.92c-.06,0,0,.29,0,.29.8.11.56,1.13,1.36,1.42-.82.06-.66.45-.51.9s-.66,1.07-1.31.9c-.14,0-.31-.34-.38.06A1.14,1.14,0,0,1,11.05,58,14.67,14.67,0,0,1,11.13,54c.08-1.53.18-3.06.26-4.59a8.58,8.58,0,0,1,.31-1.74c.16-.56.41-.8,1.05-.56S14.34,47.53,15.14,47.76Z"/><path class="cls-75" d="M38.53,87.71c0,.53-.58.4-.64.36-.88-.65-1.13.09-1.47.7-.31-.31,0-.83-.4-1a3,3,0,0,0-1.11-.07c-.22,0-.48,0-.51.27s.27.19.42.24.42.09.62.13h0c-.25.69-.38.73-1.74.58.18,1,.2,1,1,1,.11.21-.42.54,0,.62s.09.59.48.61c.19-.16-.31-.58.15-.62.29,0,.49.19.26.54,0,0,.15.2.25.29s.35.37.1.6-.44,0-.61-.23c-.12.3.16.67-.32.83-.23.08-.17.47.07.6s.19-.18.27-.3c.37-.56.9-.34,1.37-.24a.17.17,0,0,1,0,.32c-.58.28-.48.88-.72,1.32.36.23.33-.2.55-.22-.07.25.22.59-.24.73a.21.21,0,0,0-.11.37c.1.12.18.25,0,.31a.37.37,0,0,1-.36-.07c-.21-.27-.55-.43-.65-.8a.31.31,0,0,0-.48-.16c-.37.24.13.23.12.34a4.79,4.79,0,0,1-.19.72,1.93,1.93,0,0,1-.54-1c0-.24.28-.38.22-.63-.24-.08-.31.3-.55.17a47.46,47.46,0,0,0-2.7-4,3.53,3.53,0,0,1-.46-1,1.29,1.29,0,0,1,1.23-1.65,28.87,28.87,0,0,1,4.74.28A17.88,17.88,0,0,0,38.53,87.71Z"/><path class="cls-108" d="M77.17,51.8a.33.33,0,0,1-.17-.32c-.16-.35-.3-.76-.74-.23-.12.14-.29.06-.45,0s-.5-.38-.52-.33c-.23.51-1.07.45-1.05,1.15-.32.14-.73,0-1,.48-.1.2-.56.13-.8-.14a1.19,1.19,0,0,1,.57-.93,6.6,6.6,0,0,1,4.65-1.45,21.69,21.69,0,0,0,3.76-.32c1.61-.12,3.21-.27,4.81-.54a5.39,5.39,0,0,1,2.07.23.93.93,0,0,1,.82.89c-.11,2,0,4-.28,6,0-1.16,0-2.32,0-3.47,0-.18.31-.9-.48-.56-.14.06-.31-.25-.16-.42s.14-.7.49-.92c-.5-.23-.94,0-1.39-.08-.28,0-.34.14-.18.48s-.07.22-.17.26-.23-.1-.28-.21-.16-.57-.51-.53,0,.48-.31.57c-.29-.06-.6-.89-.87,0-.08.26.28.52,0,.87l-.56-1.5c-.36.24-.73.49-1.11.72,0,0-.21-.05-.27-.11a1.07,1.07,0,0,0-1-.33,1,1,0,0,1-.85-.34c-.11-.14-.22-.14-.32,0h0c-.54-.63-.82.14-1,.31a1.43,1.43,0,0,1-1.57.28C77.91,51.29,77.54,51.67,77.17,51.8Z"/><path class="cls-109" d="M101.18,90.07c-.71-.35-1.65-.27-2.05-1.16,0,0,0,0-.06,0-.22.22-.27.34-.49-.09s-.39-.18-.27-.62c-.27,0-.71.3-.66-.35,0-.21-.32-.51-.53-.12s-.69.22-1,.38S96,88,96,87.88a1.34,1.34,0,0,0-.3-.83,2.31,2.31,0,0,1,1.9-1.18,49.31,49.31,0,0,0,4.94-1.05c.3-.08.61-.41.9-.14s0,.64-.1,1A9.84,9.84,0,0,1,101.18,90.07Z"/><path class="cls-110" d="M48.59,12a2,2,0,0,1-.75,1.66,1.45,1.45,0,0,0-.75,1.69,3.62,3.62,0,0,1-.56,2.52,16.5,16.5,0,0,0-1.39,2.79c-.18.58-.78,1-.6,1.74a3.42,3.42,0,0,1-1.64-.36,1.07,1.07,0,0,1-.59-1.64A28,28,0,0,1,45.65,15c.68-.85,1.4-1.68,2.12-2.52A1,1,0,0,1,48.59,12Z"/><path class="cls-111" d="M26.35,61.7c-.09.38.36,1.18-.7.76-.42-.17-.54.61-1.08.65.6.39.6.85.53,1.48a13.75,13.75,0,0,0,0,3.14c.08.65-.15,1.33.13,2A9.17,9.17,0,0,0,27.71,73c.21.18.46.11.7.11.46,0,.79.14.86.65-1.36.05-2.72.1-4.08.18-.53,0-.71-.26-1-.68a4.15,4.15,0,0,1-.34-2.35c.05-1.86,0-3.72,0-5.58.21-.48-.21-1,.14-1.47,0-.16,0-.33,0-.49,0-1.61,0-1.61,1.62-1.62A.46.46,0,0,1,26.35,61.7Z"/><path class="cls-112" d="M76.36,61.39c.79,0,1.59,0,2.39,0,1.37,0,2.74-.06,4.11-.18a9,9,0,0,1,1.8-.1l.11.11c.2.25.78-.13.76.37s-.45.58-.78.75a5.09,5.09,0,0,1-2.11.49,65.22,65.22,0,0,1-6.85.38c-.69,0-1.39-.12-2.08-.22a1.54,1.54,0,0,1-1.11-1.57c.06-.54.55,0,.67-.33A3.45,3.45,0,0,0,76.36,61.39Z"/><path class="cls-113" d="M20.69,76.31c-.82.06-1.07-.75-1.62-1.23,0,.36.37.38.17.7-.52-.42-.63-.07-.72.38s-.34.86-.1,1.33a.42.42,0,0,1-.18.5.75.75,0,0,0-.23.84c-.27,0-.31-.21-.25-.29.32-.47-.19-1,.12-1.46,0,0,0-.17-.09-.19-.24-.07-.21.3-.48.27l.1-.55c-.35.15-.69.26-.77.65-.11.56-.51.54-.93.49a.21.21,0,0,1-.2-.22c0-.13.08-.16.2-.19A.66.66,0,0,0,16,76.22c-.22-.17-.47-.45-.72-.46a2.21,2.21,0,0,1-1.8-1.18.37.37,0,0,0-.49-.16c-.22.11-.46.41-.67,0s-.64-.55,0-1c-.59,0-.61.4-.87.55-.13-.36-.48-.73-.12-1.09a1.55,1.55,0,0,1,1.35-.34c2.26.13,4.07,1.45,6.08,2.22.57.22,1.29.09,1.68.76C20.53,75.82,20.73,76,20.69,76.31Z"/><path class="cls-46" d="M79,22.42c1,0,.65-1,.75-1.37.3-1.19,0-2.46.37-3.68a1.52,1.52,0,0,0-.47-1.55c-.13-.12-.3-.35-.26-.48.29-1.11-.62-1.7-1-2.5.69,0,1,.79,1.66.93.22,0,.2.53.06.73-.35.55.06.87.37,1.05a14.78,14.78,0,0,1,2.17,1.78c-.36.24-.68.38-.95-.12-.12-.22-.18-.55-.53-.51-.18,0-.15.26-.22.4A.62.62,0,0,0,81,18a2.22,2.22,0,0,0,1.77.51l-.87,1.08c1,0,1.15.31.59,1,0,0-.08.11-.07.14.28.71.5,1.22-.58,1.65a6.55,6.55,0,0,1-1.61.71A1.67,1.67,0,0,1,79,22.42Z"/><path class="cls-114" d="M65.64,105.37c.44.11.38-.78.92-.46.45-.66.66,0,1,.17.26-.11.17-.82.78-.41.24.16.27-.25.34-.43a.41.41,0,0,1,.45-.26c.48,0-.06.3,0,.31a5.21,5.21,0,0,0,.79,0H71.1c.07,0,.19,0,.21,0,.21-.36.75-.38.91-.67.43-.74.7-.68,1,.22.12-.4.2-.67.06-.86s-.1-.44,0-.49c.69-.33.4-1,.47-1.47,0-.15.14-.47-.14-.57-.77-.26-.52-.65-.18-1.09.11-.15.32-.37,0-.54-.14-.07-.41-.6-.46.07a2.09,2.09,0,0,0-.92-.2.79.79,0,0,1,1-.85,4.13,4.13,0,0,0,2.6,0s.1,0,.15,0a5.51,5.51,0,0,1-.6,2.7,22.7,22.7,0,0,1-2,3.94,1.57,1.57,0,0,0-1.52.45,2,2,0,0,1-1.38.37,1.46,1.46,0,0,0-1.18.56c-.3.47-.67.46-1.14.41-.24,0-.65-.3-.71.32,0,.34-.33.45-.64.12a3.49,3.49,0,0,0-.92-.65C65.42,105.94,65.3,105.68,65.64,105.37Z"/><path class="cls-115" d="M13.84,60.1a1.19,1.19,0,0,1-1,.92c-.65.16-1.23.92-.85,1.5s0,1.29.47,1.79c0,0,0,.15-.07.2A2.55,2.55,0,0,0,12,65.69c0,.54.4,1.18-.31,1.6-.11.07,0,.19.11.2.4,0,.3.29.34.56a3.22,3.22,0,0,1,0,1.63c-.2.59,1.07,2.11,1.73,2.41h-.64a2.2,2.2,0,0,1-1.11-1c-1.21-1.93-1.41-4.13-1.67-6.3a20.5,20.5,0,0,1-.33-3c.06-1.43.83-2.09,2.22-1.77C12.83,60.11,13.34,60,13.84,60.1Z"/><path class="cls-116" d="M101.35,32.79c0,.38.12.54.45.24s.43.11.62.22c-.31.52.18.71.41,1a1.34,1.34,0,0,1,.11.37c-.49.19-.33-.44-.78-.43.49,1.1-1,1.1-1,2-.21-.23,0-.66-.49-.72a22.29,22.29,0,0,1,.34,5.09.22.22,0,0,1-.13.26c-.16,0-.25,0-.31-.17s0-.43-.34-.27a31.71,31.71,0,0,1-1.59-5c-.27-1,.48-1.55,1.29-1.95a3.43,3.43,0,0,0,1.28-.64Z"/><path class="cls-30" d="M26.35,61.7H25.7c.19-.67,0-1.11-.74-1.14s-.95-.81-1.19-1.4c-.08-.18.05-.5-.27-.49s-.32.31-.39.54.21.74-.33.87c-.18-.92.34-1.74.33-2.64a47.75,47.75,0,0,0-.31-6.87,2.19,2.19,0,0,0-.34-.88,2.22,2.22,0,0,1,.95,2,21.52,21.52,0,0,0,.18,3.21.94.94,0,0,0,.35.65c.34-.63-.14-1.42.46-1.91l-.24,5.21A1,1,0,0,0,25,60a15.86,15.86,0,0,0,5.81.69,5.69,5.69,0,0,0,1.93,0c.47-.15.82-.46,1.28-.58-.35.9-1.23.91-2,1.12a4.34,4.34,0,0,1-.81,0c-.28,0-.68-.14-.81.18s.37.38.51.63a7.62,7.62,0,0,1-2.6-.33c-.26-.63-.88-.43-1.3-.53.26.19.94-.2,1,.53Z"/><path class="cls-117" d="M14.82,33c0,.82-.56,1.51-.31,2.48a5.77,5.77,0,0,1-.16,2.84A15.65,15.65,0,0,0,13.86,43a2.62,2.62,0,0,0,.63,1.82c.46.42.59,1,1.15,1.43.41.27,0,.46-.33.48a4.44,4.44,0,0,1-2.77-1.87.55.55,0,0,1-.06-.45c.59-2.89.91-5.82,1.23-8.75C13.81,34.72,13.84,33.62,14.82,33Z"/><path class="cls-71" d="M50.19,106.67c-.28.16-.71.18-.63.68,0,.07-.06.15-.09.22-.43-.37-.75.39-.89.23-.47-.55-.89-.09-1.22,0-.78.33-.84-.1-.88-.66,0-.38.2-.78-.28-1.1-.17-.11-.06-.58.31-.7.13,0,.29-.08.22-.26s-.25-.14-.39,0c-.31.25-.46-.08-.69-.18s-.39-.31-.23-.56.38-.25.58,0,.53.19.55-.06c.05-.43.5-.53.58-.89h0l.27-.38c.11.48.05.8-.5.92.36.27.72.47.7-.15,0-.47.53-.53.52-1,0-.12.34.07.47.24s.47.43.08.72c-.15.1-.38.12-.38.44.32-.24.69.23,1-.16A8.94,8.94,0,0,1,50.19,106.67Z"/><path class="cls-118" d="M75.84,97.91c-.7.73-1.61.21-2.41.36-.21,0-.53-.21-.87-.13a.5.5,0,0,0-.44.56c-.78.37-1.68,0-2.43.35s-1.6,0-2.08.86c-.1.17-.49.36-.63.29-.37-.18-.53.07-.63.27s-.2.16-.35,0-.48-.19-.65.12c-.31.55-.17-.29-.37-.12.45-1.59,1.82-2,3.16-2.39A18.9,18.9,0,0,1,75,97.26.86.86,0,0,1,75.84,97.91Z"/><path class="cls-119" d="M61.57,106c.26.17.15.65.61.7-.08-.36-.2-.77.21-1s.21-.27,0-.49c-.39-.46-.1-.83.36-.8s.62-.21.9-.38a13.36,13.36,0,0,1,0,2.28.88.88,0,0,1-.46.7,1.2,1.2,0,0,0-.64,1.39.16.16,0,0,1-.12,0,2.09,2.09,0,0,0-1.93-.2c-.36.16-.63-.21-1-.26a9.41,9.41,0,0,1-1.67-.14,4.48,4.48,0,0,1-2-.84c-.27-.29-.51-.36-.76.09.1-.55-.41-.91-.3-1.43.45,0,1,.87,1.3-.26.07-.31.59,0,.6,0,.48,1,.54-.19,1,0,.3.37-.22.69-.45,1.09,1-.35,1.35.75,2.13.8.55-.35,1.19.09,1.74-.2.43,0,.42-.27.37-.58A.52.52,0,0,1,61.57,106Z"/><path class="cls-120" d="M83.69,101.33c-.11-.29-.4,0-.61-.2.56-.59,1.09-1.18,1.65-1.73a.73.73,0,0,0,0-1.15,1.66,1.66,0,0,0-2.76,0c-.27.29-.68-.16-.93.2-.19.66-.73,1-1.23,1.39s-.73.19-.89-.27a11.36,11.36,0,0,0-.44-1.28c.69-1.7,2.19-1.6,3.56-1.41,1.15.15,2.29.19,3.43.3.53.06.61.29.63.72a2,2,0,0,1-.54,1.4C85,100,84.33,100.64,83.69,101.33Z"/><path class="cls-121" d="M91.42,94.68c.19,0,.3-.44.63,0,.15.18.82.07,1.08-.38.21.21-.06.38,0,.54s.21.43.45.36c.41-.12-.08-.27,0-.41a1.81,1.81,0,0,0,0-1.05c.44.34.79.46,1.06,0,0-.1.28-.32.38-.12.54,1,1.4.4,2.13.5a1.09,1.09,0,0,1,.8.44c-1.18,1.55-3,1.64-4.66,1.91a6,6,0,0,1-1,0c-1,0-1.26-.43-.91-1.36A2.66,2.66,0,0,0,91.42,94.68Z"/><path class="cls-122" d="M65.64,105.37c-.15.34,0,.56.32.69a2.4,2.4,0,0,1,1.08.81c.12-.37.44-.63.42-1,.22,0,.14.43.23.34.39-.39,1.08.06,1.06,0-.26-.73,1-.32.71-1,.4.17.75-.09,1.13-.11a1.72,1.72,0,0,0,1.42-.6c.35-.46.84-.34,1.25,0a3.91,3.91,0,0,1-3,2.11,15,15,0,0,0-2.3.71c-1.75.7-2.55.26-2.93-1.56a15.94,15.94,0,0,1-.35-2.37c.56.37.37,1.06.66,1.56C65.39,105.16,65.41,105.35,65.64,105.37Z"/><path class="cls-123" d="M36.6,52.62l.72-.59c.06,1,.87,1.88-.29,2.71.54.18.93.35.81.92-.06.26.22.26.36.36s.36.2.24.43a.34.34,0,0,1-.55.12c-.17-.12-.33-.19-.51,0s0,.33.08.48.29.44.12.74-.53-.12-.77,0c1.52,1.61,1.84,2.11-.08,2.94-.43-.34-.21-.91-.48-1.31-.21-.64.06-1.32-.15-2A20.73,20.73,0,0,1,36.6,52.62Z"/><path class="cls-124" d="M90.81,73.54c0-.18,0-.49.24-.39,1,.36,1.87-.6,2.82-.1,1.25-.62,2.68-.18,4-.73.9-.38.8-1.17,1.24-1.71a3.93,3.93,0,0,0,.3-.66c.19-.38.22.17.34.09s.1-.21.05-.28c-.57-.84,0-1.5.37-2.17a2.47,2.47,0,0,0,.14-1.72c-.12-.39.33-.51.46-.8.06-.12.23-.19.35-.28-.7-.75.6-1.09.37-1.79-.09-.29.37-.2.55-.32a49.68,49.68,0,0,1-2.65,9.18,1.59,1.59,0,0,1-1.17.87,6.25,6.25,0,0,1-1.42.27,35.11,35.11,0,0,0-4.69.56A7,7,0,0,1,90.81,73.54Z"/><path class="cls-125" d="M64.34,62c-.38-.33-.51-.95-.15-1.07a1.25,1.25,0,0,1,1.38.68c.33-.14,0-.5.28-.62s.52,1,1.07.16c.12-.2.71.42,1-.14a2.74,2.74,0,0,0,1.38.34,1,1,0,0,0,.77-.36c.23-.33-.26-.4-.31-.66.37-.21.53.51.91.19s.13-.55.19-.83A7.45,7.45,0,0,1,71,62.22c0,.52-.45.67-.88.61a42.66,42.66,0,0,1-5.51-.64A1.22,1.22,0,0,1,64.34,62Z"/><path class="cls-11" d="M34.63,108.12c.55-.15,1.11,0,1.67-.16s.21.26.22.45c0,.49.18.22.32.06.12.41.51.39.79.42a22.19,22.19,0,0,1,3.58,1,3.82,3.82,0,0,0,1.34.13c.19,0,.25.13.33.29s.44.11.3.36-.29-.14-.43-.07-.55-.06-.82.2a1.19,1.19,0,0,1-1.25.09c-.36-.12-1,.16-.91-.64,0,0-.12-.13-.15-.12-.95.3-1.65-.25-2.37-.7-.24-.15-.25,0-.35.13-.86.84-1.21.77-1.68-.3,0-.07-.1-.16-.16-.16C34.14,109.12,34.58,108.54,34.63,108.12Z"/><path class="cls-126" d="M92.91,59.46c.18-.17-.07-.36.08-.59a.48.48,0,0,0,.65.2c.39-.24.74-.07,1.1,0s.55.23.71-.17c.12.37.65-.59.66.21,0,.12.16,0,.24,0a15.67,15.67,0,0,1,2.46.13,2.76,2.76,0,0,0,2.71-.68,4.51,4.51,0,0,1,.83-.57c0,1.49,0,1.65-2,1.86a31.89,31.89,0,0,1-6.91.23C93.24,59.87,92.9,59.81,92.91,59.46Z"/><path class="cls-30" d="M35.44,51.31c-.35-.22-.7-.59-1.07,0a.16.16,0,0,1-.27,0,.24.24,0,0,1,0-.3c.42-.71-.07-.86-.61-1a15,15,0,0,0-2.76-.13A3.48,3.48,0,0,1,28.14,49,22.39,22.39,0,0,0,31,48.63c1.25-.1,2.35-.18,3.22,1C34.6,50.17,35.45,50.41,35.44,51.31Z"/><path class="cls-30" d="M23.91,31.18a44.53,44.53,0,0,1,1.83-4.41,1.58,1.58,0,0,1,.6-.63c.06.34-.15.82.36.95.66.16,1.11-.29,1.53-.69.22-.21.33-.55.71-.57a52.68,52.68,0,0,0-3.35,5.27.94.94,0,0,1-.37.42Z"/><path class="cls-127" d="M104.28,56.67c-.24,0-.39.17-.08.3a13.91,13.91,0,0,0,1.33.47,1.13,1.13,0,0,0,1.51-.58l.83,1.13-2,.93-.32,0c-1.74-.05-2.37-.83-2.25-2.78C103.71,56.22,104.26,55.93,104.28,56.67Z"/><path class="cls-36" d="M35.44,33.78c.58,0,1.15-.13,1.46.64.14.35.74.26,1.05.13a1,1,0,0,1,1.2.32c.35.65.94.62,1.45.74.76.18,1.44.85,2.31.43-.81.6-1.73.24-2.6.34-.69.41-1.26-.11-1.82-.31a8.42,8.42,0,0,1-2.9-1.86A.39.39,0,0,1,35.44,33.78Z"/><path class="cls-30" d="M37.38,27a11,11,0,0,0-1.87,3.6,2.16,2.16,0,0,1-.38,1c-.11-.23-.39-.41-.33-.7.12-.57-.29-.54-.64-.6A50.53,50.53,0,0,1,38,25.34l.48-.61.13.09Z"/><path class="cls-128" d="M101.16,91.72c.22.09.42.24.27.47-.25.4-.07.81-.18,1.23a3.15,3.15,0,0,0,1.37-1c.07-.11.55.06.84.12a4.17,4.17,0,0,1,.42.13c.07.29-.32.36-.27.65l.54.07a1.6,1.6,0,0,1-1,.12c-.65-.28-1,.16-1.28.59-.41.1-.82.17-1.21.3s-.46.2-.65,0-.34-.49-.13-.8A9,9,0,0,1,101.16,91.72Z"/><path class="cls-129" d="M111.77,59.93c.37.19.37.44.34.85-.06.81-.33,1.68.26,2.43.09.11.14.21,0,.34-.39.36-.5.81-.18,1.09.62.52.21.87-.11,1.26-.12.14-.41.13-.42.34s.21.17.37.16c0,.31-.14.66-.45.72a.67.67,0,0,0-.45.26l-.06-1A58.14,58.14,0,0,0,111.77,59.93Z"/><path class="cls-130" d="M81.7,92.37a28.76,28.76,0,0,0,.66,3.91c-.59.45-1.16-.12-1.75-.06-.2,0-.18-.29-.2-.47a3.65,3.65,0,0,1,.49-1.91C81.15,93.34,81.43,92.86,81.7,92.37Z"/><path class="cls-131" d="M78.51,98.24c.66.23.41.93.69,1.37s.17.31.44.06a8.23,8.23,0,0,0,1.43-1.27.44.44,0,0,1,0,.16c-.18.33.56.48.2.74a8.06,8.06,0,0,1-1.77,1c-.2.08-.33.4-.64.22-.11-.13.06-.28,0-.43s-.2-.11-.31-.15-.26,0-.17.14.39.55,0,.61c-.24,0-.77.14-.94-.36,0-.07-.11-.11-.17-.17A7.79,7.79,0,0,1,78.51,98.24Z"/><path class="cls-30" d="M35.44,33.78a9.59,9.59,0,0,0,4.18,2.55,2.65,2.65,0,0,0,.69.05c-.21.41-.55.35-.91.27-1-.22-1.68-1-2.72-1.06-.26,0-.23-.33-.36-.5-.37-.48-.8-.74-1.36-.26-.16.14-.35.36-.54.15s-.37-.53-.13-.8.29-.62.51-.89C34.82,33.71,35.24,33.6,35.44,33.78Z"/><path class="cls-36" d="M60.93,66.57c-.12-1-1-1.46-1.76-1.9s-.84-.55-.35-1.34C60.43,63.74,60.94,64.52,60.93,66.57Z"/><path class="cls-30" d="M17.9,48.07a4.12,4.12,0,0,1-2.11-.32h.87c.45,0,.62-.22.6-.64.79,0,1.58.16,2.38.2.41,0,.79-.44,1.19,0-.21.24-.66.37-.32.82C19.64,47.74,18.77,48.12,17.9,48.07Z"/><path class="cls-37" d="M23.11,71.61V63.32c.22.15.45.28.42.62-.21,2.29-.08,4.58-.11,6.88C23.42,71.1,23.59,71.49,23.11,71.61Z"/><path class="cls-115" d="M19.86,61.05c-.22.53-.53.65-1,.25-.12-.1-.31-.26-.41-.22-1.24.45-2.29-.44-3.45-.48a1.67,1.67,0,0,0-.39,0c-.14,0-.24.3-.4.1a.35.35,0,0,1,.11-.5A51.37,51.37,0,0,1,19.86,61.05Z"/><path class="cls-30" d="M37.71,64.46a16.73,16.73,0,0,0,0,5.69.63.63,0,0,1-.76-.78c.34-.94,0-1.89.2-2.82C37.3,65.85,37.14,65.06,37.71,64.46Z"/><path class="cls-30" d="M40.64,49c.47-.39,1-.07,1.48,0,1.14,0,2.36-.24,3.39.54A12.16,12.16,0,0,1,40.64,49Z"/><path class="cls-132" d="M92.91,59.46c.16.21.54.23.5.6a1.12,1.12,0,0,1-1.47-1,10.6,10.6,0,0,1,0-3.89c.16,1.13.1,2.28.37,3.4A1.07,1.07,0,0,0,92.91,59.46Z"/><path class="cls-71" d="M62.55,108.44c-.61-.64-.13-1.06.33-1.42a2.36,2.36,0,0,0,.77-.67,2.46,2.46,0,0,1-.23,1.62A.68.68,0,0,1,62.55,108.44Z"/><path class="cls-57" d="M69.54,87.21c-.23.22-.62.31-.29.81s-.14.69-.43.91-.42,0-.52-.3-.38-.09-.57-.15A2,2,0,0,1,69.54,87.21Z"/><path class="cls-107" d="M14.83,59.41v-1.2c.93,1.09,2.1.83,3.16.94l0,.29H15.47Z"/><path class="cls-30" d="M25.86,49a2.41,2.41,0,0,0-1,1.46c-.71-.24-.61-1-.9-1.48-.08-.14.2-.35.39-.2C24.84,49.18,25.37,49,25.86,49Z"/><path class="cls-46" d="M80.25,36.39H79.6a5.56,5.56,0,0,0-1.29-.16c-.4-.16-.41-.47-.32-.82h.63c0,.36.29.61.58.46.7-.38,1.16.11,1.7.35a.39.39,0,0,0-.33.16A.22.22,0,0,1,80.25,36.39Z"/><path class="cls-133" d="M97.81,82.82c.34.28.66.58,1,.83s0,.29,0,.43a.94.94,0,0,1-1.35-.17C97.15,83.52,97.51,83.13,97.81,82.82Z"/><path class="cls-30" d="M49.08,63.8c-1.4-.21-2.81-.23-4.22-.32.09,0,.19-.14.28-.14,1.19.06,2.39-.15,3.59,0C49.14,63.35,49.16,63.49,49.08,63.8Z"/><path class="cls-75" d="M27.66,87.18c-.48.39-1.19,0-1.67.52-.06,0-.69,0-.47-.55a.44.44,0,0,0,0-.44A8.56,8.56,0,0,1,27.66,87.18Z"/><path class="cls-46" d="M87.23,36.7a.88.88,0,0,0-1-.6c-.92,0-1.85,0-2.78-.05a.79.79,0,0,1,1-.33,4.52,4.52,0,0,0,1.93.13C87.32,35.68,87.41,36,87.23,36.7Z"/><path class="cls-61" d="M20.85,93.66c.37-.31-.14-.71.07-1.06.88.65,1,1.17.56,1.89A2.35,2.35,0,0,1,20.85,93.66Z"/><path class="cls-109" d="M99.9,92.05c-.05-.16-.63-.31,0-.49.29-.09,0-.51.2-.7.37-.31.09-.43-.15-.56s-.29-.22-.16-.38.27,0,.4.09c.35.2.27.62.47.89A1.89,1.89,0,0,1,99.9,92.05Z"/><path class="cls-37" d="M23.1,45.79c.22-.16.39-.74.71-.07.15.31.45,0,.65.12s.43.23.34.47-.31.06-.48,0L23.1,46Z"/><path class="cls-19" d="M101.86,94.09c-.09-.29-.19-.54.29-.61s.66-.69,1,0Z"/><path class="cls-69" d="M33.78,94c.27-.1.12-.58.46-.57a.62.62,0,0,1,.41.34c.21.51-.47.37-.54.69A.74.74,0,0,1,33.78,94Z"/><path class="cls-53" d="M101.2,32.81c-.3.7-.8.95-1.28.64A1.57,1.57,0,0,1,101.2,32.81Z"/><path class="cls-30" d="M24.89,50.83a19.94,19.94,0,0,1-.49,2.76,16.49,16.49,0,0,1,.17-2.33A.5.5,0,0,1,24.89,50.83Z"/><path class="cls-30" d="M25.06,32a2,2,0,0,0,0,1.45C24.26,33.07,24.26,32.64,25.06,32Z"/><path class="cls-99" d="M103,55.05a1,1,0,0,1,.24,0c.22.06.45-.26.66,0a.35.35,0,0,1,0,.3.61.61,0,0,1-.78.18Z"/><path class="cls-30" d="M28,49H26.19A1.25,1.25,0,0,1,28,49Z"/><path class="cls-30" d="M25.06,33.45a9.33,9.33,0,0,1,2.74.17C26.89,33.52,26,33.82,25.06,33.45Z"/><path class="cls-30" d="M35,57.32c-.27-.71.19-1.23.48-1.79A6.59,6.59,0,0,1,35,57.32Z"/><path class="cls-37" d="M23.1,62.84c-.16-.48-.33-1-.49-1.46.31,0,.51.08.5.44S23.1,62.5,23.1,62.84Z"/><path class="cls-37" d="M24.06,63.81c0,.49.17,1-.14,1.47C24,64.79,23.35,64.23,24.06,63.81Z"/><path class="cls-30" d="M21.15,32.66c.5,0,.94.39,1.46.29C22.07,33.16,21.51,33.44,21.15,32.66Z"/><path class="cls-30" d="M32.83,32.8a2.15,2.15,0,0,1,.66-1.3A1.28,1.28,0,0,1,32.83,32.8Z"/><path class="cls-121" d="M91.59,93.68c.13,0,.25.14.38,0s.3-.12.35.1-.08.31-.27.23-.41.17-.61.28C91.53,94.12,91.35,93.85,91.59,93.68Z"/><path class="cls-30" d="M28.62,33.78a3.56,3.56,0,0,1,1.64.32C29.7,34.05,29.09,34.29,28.62,33.78Z"/><path class="cls-78" d="M55.91,113.5c.13.33.84,0,.68.39s-.49-.2-.8-.15c-.12,0-.26-.07-.39-.1A.53.53,0,0,1,55.91,113.5Z"/><path class="cls-30" d="M38.37,72.25c.31.19.42.55.64.82C38.52,73,38.07,72.92,38.37,72.25Z"/><path class="cls-30" d="M41.94,63.3l-1.3-.15C41.1,63,41.56,62.75,41.94,63.3Z"/><path class="cls-30" d="M36.1,57.46c.32.64.07,1.32.15,2C35.92,58.8,36.17,58.12,36.1,57.46Z"/><path class="cls-30" d="M21.16,47.09c.33-.31.28-.84.64-1.13C21.82,46.47,21.85,47,21.16,47.09Z"/><path class="cls-30" d="M46,61.38l1.14-.49C47.05,61.76,46.38,61.22,46,61.38Z"/><path class="cls-109" d="M95.34,87.67c.13,0,.4,0,.2.26a1,1,0,0,1-.66.4A1.15,1.15,0,0,1,95.34,87.67Z"/><path class="cls-134" d="M80.9,10.73c.13-.17.25-.08.41,0a1.34,1.34,0,0,0,1.41-.06c.54-.48.9-.28,1.39,0s1,.94,1.7.47a.17.17,0,0,1,.26.1c.19.92.87,1.12,1.67,1.15a.36.36,0,0,1,.25.19,2.57,2.57,0,0,0,2.45,1.24c.51,0,.43.43.26.71s-.31.46-.11.72.46-.09.77-.11a.71.71,0,0,1-.5.47.53.53,0,0,0-.25.68c0,.19.09.41.44.25s.3.33.5.43c.5.25.73.9,1.42.87.23,0,.28.28.27.51a.65.65,0,0,0,.33.69c.37.19.37-.3.6-.38l.31-.13c-.34,1,.46,1.1,1,1.25a1,1,0,0,0,1.32-.61v.62l-.81.67a.24.24,0,0,1-.32,0l-.68.23c-1.24.36-1.45.28-2.19-.79-.33-.48-.69-.94-1-1.41-.89-.5-1.25-1.46-1.93-2.15A41.26,41.26,0,0,0,86.63,13a12.52,12.52,0,0,0-3-1.78,22,22,0,0,1,5.93,5.52c.47.56,1,1.07,1.48,1.61a1,1,0,0,1,.4.84,1.88,1.88,0,0,0,.48,1,.33.33,0,0,1,.16.31c0,.36-.33.43-.48.65a3.17,3.17,0,0,1-2,0,2.29,2.29,0,0,1-1.78-.9c-.2-.21-.43-.39-.65-.58a2.41,2.41,0,0,1-1-1,62,62,0,0,1-4.33-4.55,2,2,0,0,1-.17-2.76Z"/><path class="cls-44" d="M71.16,4.89a10.21,10.21,0,0,1,4.55,1.46A6.6,6.6,0,0,1,74,6.09a1.76,1.76,0,0,0-2,.42c-.31.28-.59.56-1,.5-.17,0-.41,0-.41.19.06,1.11-1,1.43-1.48,2.12,0,0,0,.14-.08.26.56.16.82-.26,1.13-.55.16-.14.3-.3.47-.44s.3-.18.42,0,0,.23-.16.32a1.3,1.3,0,0,0-.34.32c-.14.26.31.79-.29.83a2.59,2.59,0,0,1-1.89-.24,2.66,2.66,0,0,0-.31-.26c-.29-.16-.58-.23-.65.24-.11.68-.49.58-.82.23s-.63-.24-1-.26c-.18-.56.15-1.23-.42-1.7-.12-.11-.06-.32.06-.44.29-.3.71-.45.61-1.08,0-.33.47-.13.72,0,.44.14.82.32.85-.43,0-.45.39-.34.67-.17s.6.49,1,.68c.67.35,1.22.59,1.7-.23.11-.21.38-.17.59-.16a.63.63,0,0,0,.65-.39c.13-.34-.21-.34-.4-.47S71.27,5,71.16,4.89Z"/><path class="cls-3" d="M91.46,19.17c-.79-.94-1.61-1.85-2.37-2.81-.93-1.17-2-2.15-3.06-3.23a10.89,10.89,0,0,0-2.36-1.68c-.2-.12-.45-.18-.58-.57a7.55,7.55,0,0,1,3,1.43,33.19,33.19,0,0,1,5.67,6.22Z"/><path class="cls-3" d="M96.81,19.84c.41-.65,0-1.24-.11-1.86,0-.21-.16-.41-.17-.62a.87.87,0,0,1,.45-.81c.25-.13.49.13.6.29a8.41,8.41,0,0,1,1.51,2.81c0,.52-.12,1.06-.74,1S96.92,20.87,96.81,19.84Z"/><path class="cls-3" d="M94.87,21.91c-.28.27-.72.05-1,.32-.24,0-.45,0-.48-.29s-.38-.16-.58-.17-.43,0-.44-.25.15-.39.41-.4c.51,0,1,0,1.53,0S94.85,21.53,94.87,21.91Z"/><path class="cls-44" d="M56.87,5.21A1.14,1.14,0,0,1,58,4.6c.58,0,1-.54,1.51-.84-.23,1.38-.78,1.75-2.12,1.48A3.75,3.75,0,0,0,56.87,5.21Z"/><path class="cls-44" d="M68.72,4.12c0,.24,0,.44-.29.42-.56,0-.79-.5-1.09-.87a.44.44,0,0,1,.06-.59c.24-.22.39,0,.54.13C68.24,3.49,68.76,3.59,68.72,4.12Z"/><path class="cls-44" d="M65.07,11.57c.27-.38.08-1,.65-1.14.21,0,.57.11.53.37C66.14,11.42,65.48,11.32,65.07,11.57Z"/><path class="cls-44" d="M64.68,6.19c-.22,0-.53,0-.54-.23s.28-.42.58-.42.54,0,.52.34S64.91,6.17,64.68,6.19Z"/><path class="cls-44" d="M61.28,8.47c.42,0,.73,0,1,0s.39.12.34.35a.27.27,0,0,1-.44.18C62,8.84,61.59,8.86,61.28,8.47Z"/><path class="cls-44" d="M61.1,8.83a.49.49,0,0,1,.37.47c0,.21-.14.28-.31.27a.46.46,0,0,1-.43-.5C60.73,8.9,60.94,8.86,61.1,8.83Z"/><path class="cls-46" d="M89.67,21.13h2C91,21.72,90.32,21.39,89.67,21.13Z"/><path class="cls-46" d="M86.27,18.67a4.1,4.1,0,0,1,1,1C86.7,19.54,86.28,19.31,86.27,18.67Z"/><path class="cls-3" d="M92.1,20.47a.33.33,0,0,1-.16-.31c0-.29.28-.54.46-.35S92.34,20.31,92.1,20.47Z"/><path class="cls-44" d="M65.48,10.41c-.23,0-.55-.06-.55-.33s.32-.28.55-.32Z"/><path class="cls-3" d="M95.68,20.5l.32,0c.19,0,.38.06.42.29,0,0-.07.15-.12.16C96,21,95.84,20.71,95.68,20.5Z"/><path class="cls-44" d="M66.28,5.18c-.28.27-.49.18-.78.1C65.74,5,66,5,66.28,5.18Z"/><path class="cls-11" d="M37.07,111.37c-.24-.18-.17-.46-.33-.72.88,0,.53.39.33.72Z"/><path class="cls-9" d="M92.11,98.82c-.15-.4.22-.29.35-.34.28-.1.28.14.29.32s-.06.51-.36.53S92.31,98.93,92.11,98.82Z"/><path class="cls-9" d="M91.2,99.74c-.17-.23-.54-.28-.53-.64,0-.17.09-.33.29-.28a.64.64,0,0,1,.47.65A.25.25,0,0,1,91.2,99.74Z"/><path class="cls-3" d="M68.83,18.68c-.31,0-1.21-.94-1.13-1.27a1.36,1.36,0,0,1,.85-1.09c.38-.11,1.29,1.06,1.26,1.57A1,1,0,0,1,68.83,18.68Z"/><path class="cls-3" d="M61.93,25.34H60.52c-.23,0-.44-.05-.51-.3a.31.31,0,0,1,.06-.28c.16-.15.38-.29.58-.12C61,25,61.51,25,61.93,25.34Z"/><path class="cls-3" d="M66.61,19.82a1.76,1.76,0,0,1-.12-.53c0-.28,0-.62.36-.72a.3.3,0,0,1,.38.31c0,.32.22.72-.22.92a1,1,0,0,1-.4,0Z"/><path class="cls-29" d="M64.34,25.83c-.27-.06-.54.19-.81,0a3.53,3.53,0,0,1,2.76.17Z"/><path class="cls-3" d="M59.47,25.49l-.65-.17c0-.37.28-.55.61-.42S59.54,25.29,59.47,25.49Z"/><path class="cls-100" d="M84.05,72.08c.35-.4.51-.63.36-1s.11-.4.31-.42.27.24.23.39C84.84,71.48,84.77,71.92,84.05,72.08Z"/><path class="cls-77" d="M78.79,52.93l0-.07c.13-.23-.15-.62.31-.71.25,0,.27.18.27.28,0,.39-.32.44-.61.51Z"/><path class="cls-108" d="M80.9,50.83a.66.66,0,0,1,.21.57l-.81-.06c.18-.27.55-.22.6-.51Z"/><path class="cls-88" d="M70.19,92.93c-.2-.14-.57-.26-.6-.45-.06-.34.36-.3.58-.38s.49,0,.49.31S70.47,92.83,70.19,92.93Z"/><path class="cls-22" d="M4.06,57.33l-.56-1A.78.78,0,0,1,4.06,57.33Z"/><path class="cls-71" d="M47.13,103.42c-.1,0-.21,0-.31,0s-.4.11-.44-.14a.52.52,0,0,1,.18-.41c.2-.17.33,0,.43.17a1.13,1.13,0,0,1,.14.36Z"/><path class="cls-75" d="M35.44,88.32c0-.15-.24-.34,0-.45a.34.34,0,0,1,.46.18c.08.14.19.29,0,.42s-.32-.23-.54-.15Z"/><path class="cls-99" d="M103.48,52.39a4.19,4.19,0,0,0,.46.54.4.4,0,0,1,.12.5c-.09.17-.26.15-.42.14s-.33-.14-.33-.36A1.11,1.11,0,0,1,103.48,52.39Z"/><path class="cls-48" d="M80.25,36.39l.32,0h1a.73.73,0,0,1,.82.61,1.5,1.5,0,0,0,.86,1.08.47.47,0,0,1,0,.88.67.67,0,0,0-.39.79,8.47,8.47,0,0,1,0,1.67,1.89,1.89,0,0,1-.31-1C82.21,38.84,81.79,37.3,80.25,36.39Z"/><path class="cls-80" d="M48,94.59c.05-.47.09-.72.4-.8,0,0,.11,0,.12.08C48.58,94.21,48.27,94.28,48,94.59Z"/><path class="cls-52" d="M74.24,52.12c0-.13-.37-.2-.09-.34s0-.44.08-.77c.33.35.59.43.8,0,.11-.25.18-.22.51.07s.69.12.8-.48a5.79,5.79,0,0,0,.72.5c.46.23.08.29-.06.42s-.26.63-.59.87c-.17-.46-.55-.39-1-.45A1.38,1.38,0,0,0,74.24,52.12Z"/><path class="cls-52" d="M77.81,55.18c.23-.16.36-.25.54-.18s.44,0,.53.29a.22.22,0,0,1-.07.19c-.2.09-.34-.07-.5-.16A3.65,3.65,0,0,0,77.81,55.18Z"/><path class="cls-90" d="M104.77,75.17c-.38,0-.89.25-1-.5.38.07.87-.14,1,.51Z"/><path class="cls-57" d="M68.31,90.46c-.18.17.12.52-.25.58,0,0-.36-.1-.24-.17.47-.29-.28-.81.19-1C68.21,89.84,68.31,90.21,68.31,90.46Z"/><path class="cls-3" d="M28,61.7c-.4-.58-1.16-.24-1.63-.79.62.09,1.25.15,1.86.27.32.07.19.32.1.52Z"/><path class="cls-135" d="M61.57,106c0,.22,0,.44,0,.66a1.57,1.57,0,0,0-.46.5c-.14.13-.13.46-.48.24s-.9.24-1.31-.1c0-.21.39-.45.23-.55-.83-.54,0-1.09,0-1.62,0-.25.26-.37.65-.69-.72,1.07,0,1,.49,1l-.31.69C60.8,106.12,61.12,105.14,61.57,106Z"/><path class="cls-136" d="M54.77,90.92a2.45,2.45,0,0,1,2-.41c.08.23-.21.32-.19.57.45-.06.9-.4,1.31.09.08.09.28-.13.36-.26a.73.73,0,0,1,1-.19c1.15.62,1.12.63,2-.35a2,2,0,0,1,2-.57c.42.08.36.52.46.85a3.17,3.17,0,0,0,.72,1.47.94.94,0,0,1,.23,1,4.73,4.73,0,0,0-.07,1.06c-.07.72,0,.76-.69,1.23-.46.3-1.23.21-1.22,1-.41-.14-.82,0-1.26-.16-.92-.28-1.82.22-2.73.44-.28.17-.56.35-.86.5-.55.27-.88-.06-1.07-.5a10.45,10.45,0,0,0-1.53-2.1A3.33,3.33,0,0,1,54,92.06a1.92,1.92,0,0,0,0-.2C54.7,91.86,54.49,91.2,54.77,90.92Z"/><path class="cls-70" d="M109.25,47.59a.53.53,0,0,1-.5.59C108.72,47.84,108.9,47.71,109.25,47.59Z"/><path class="cls-47" d="M86.07,66.57l-.53.91C85.46,66.88,85.6,66.62,86.07,66.57Z"/><path class="cls-52" d="M85.28,57.81c.11.24.3.52-.18.56-.14,0-.39.14-.4-.08s.23-.52.59-.48Z"/><path class="cls-65" d="M46.92,107.61l-.1-.78C47.3,107.09,47.3,107.09,46.92,107.61Z"/><path class="cls-95" d="M61.12,107.17c0-.31.11-.51.46-.5.12.29-.35.54,0,.85C61.26,107.52,61.29,107.24,61.12,107.17Z"/><path class="cls-3" d="M24.76,30.61c.07-.68-.08-1.33.66-1.33.42,0,.56.48.53.78-.05.52-.63.52-1,.7S24.76,30.56,24.76,30.61Z"/><path class="cls-3" d="M25.7,28.4c0-.43,0-.83.53-.88.17,0,.61,0,.52.33s-.22,1-.72,1.09S25.75,28.6,25.7,28.4Z"/></g></g></g></g></svg>