<svg xmlns="http://www.w3.org/2000/svg" viewBox="0 0 589.18 97.82"><defs><style>.cls-1{fill:#1c1a1a;}.cls-2{fill:#2d2b2c;}</style></defs><g id="Capa_2" data-name="Capa 2"><g id="Capa_1-2" data-name="Capa 1"><path class="cls-1" d="M40.24,59.6a1,1,0,0,1-.06.47l-.22.58A1,1,0,0,1,38.1,60l.22-.59a1,1,0,0,1,1.28-.58A1,1,0,0,1,40.24,59.6Z"/><path class="cls-1" d="M44.17,11.51a1,1,0,0,1-1.88.56c-.12-.26-3.06-6.36-1.68-11.34A1,1,0,0,1,41.84,0a1,1,0,0,1,.69,1.22c-1.18,4.27,1.52,9.88,1.55,9.94A.91.91,0,0,1,44.17,11.51Z"/><path class="cls-1" d="M58.43,75.35a1.23,1.23,0,0,1-.14.72,1.19,1.19,0,0,1-1.62.47c-9-4.94-23.2-4.48-23.34-4.47a1.2,1.2,0,0,1-1.24-1.15,1.19,1.19,0,0,1,1.15-1.23c.61,0,15-.5,24.58,4.76A1.21,1.21,0,0,1,58.43,75.35Z"/><path class="cls-1" d="M73.39,67.59a1.21,1.21,0,0,0-.1,1.69c8.62,9.7,22.31,15.3,31.93,18.24,3,.62,6,1.41,8.91,2.32l1.37.28c-.09-.46-.17-.92-.22-1.38a8.44,8.44,0,0,1-.06-1.11c-5.86-1.23-28.37-6.69-40.14-19.94A1.21,1.21,0,0,0,73.39,67.59Z"/><path class="cls-1" d="M113.86,87.26a46.91,46.91,0,0,1-5.59-1.51,57.65,57.65,0,0,1-5.39-2.08A51.57,51.57,0,0,1,92.77,77.8a35.49,35.49,0,0,1-4.49-3.94,25.52,25.52,0,0,1-3.78-4.77,19.93,19.93,0,0,1-2.39-5.71,16.06,16.06,0,0,1-.25-6.13,1.21,1.21,0,0,1,1.4-1,1.18,1.18,0,0,1,.95.81l0,.06A40.6,40.6,0,0,0,86.14,62a33.51,33.51,0,0,0,2.56,4.37,35.72,35.72,0,0,0,7.1,7.57A66.35,66.35,0,0,0,104.73,80a108.67,108.67,0,0,0,9.81,5l0,0a1.2,1.2,0,0,1-.72,2.27Z"/><path class="cls-1" d="M35.61,51.66A1.18,1.18,0,0,1,35,52.83c-6.44,3.87-13.62,2.81-20.76-3.06A4.26,4.26,0,0,1,12.46,46c.34-3.18,4.64-5.48,5.13-5.74a1.19,1.19,0,0,1,1.09,2.12c-1.41.73-3.7,2.43-3.85,3.87,0,.21-.09.84,1,1.71,6.38,5.25,12.44,6.21,18,2.85a1.19,1.19,0,0,1,1.8.88Z"/><path class="cls-1" d="M33.25,47.51a16.29,16.29,0,0,1-4.37.37A14.49,14.49,0,0,1,24.52,47a11,11,0,0,1-3.88-2.45,12.19,12.19,0,0,1-2.56-3.8,17.85,17.85,0,0,1-1.19-4.28,22.54,22.54,0,0,1-.21-4.38,9,9,0,0,1,1.61-4.63c.13-.18.26-.36.41-.53l.51-.46a5.52,5.52,0,0,1,1.12-.79,7.41,7.41,0,0,1,1.24-.52,11.67,11.67,0,0,1,1.28-.27,10.38,10.38,0,0,1,4.73.65,17.26,17.26,0,0,1,4,2.09,20.26,20.26,0,0,1,5.84,6.52A18.34,18.34,0,0,1,38,51a1.19,1.19,0,0,1-1.58.57,1.18,1.18,0,0,1-.63-1.45h0a18.61,18.61,0,0,0,.91-7.36,16.76,16.76,0,0,0-2.24-6.9,19.16,19.16,0,0,0-2.17-3,18.47,18.47,0,0,0-2.72-2.44,13.33,13.33,0,0,0-3.12-1.69,7.21,7.21,0,0,0-3.19-.51A3.22,3.22,0,0,0,21,29.51a5.73,5.73,0,0,0-1,2.89,19.74,19.74,0,0,0,.08,3.67,14.35,14.35,0,0,0,.86,3.5,8.93,8.93,0,0,0,1.83,2.91,8.83,8.83,0,0,0,2.81,1.94,13.92,13.92,0,0,0,7.17.77l.09,0a1.19,1.19,0,0,1,.43,2.34Z"/><path class="cls-1" d="M44.47,53.15A39.53,39.53,0,0,0,47,58.42a35,35,0,0,0,3.27,4.83,19,19,0,0,0,8.91,6.62,13.65,13.65,0,0,0,5.39.52,10.37,10.37,0,0,0,1.36-.2,12.06,12.06,0,0,0,1.35-.32,15.32,15.32,0,0,0,2.59-1,6.88,6.88,0,0,0,3.53-3.32,7.26,7.26,0,0,0,0-4.89,19.1,19.1,0,0,0-2.49-5,32.43,32.43,0,0,0-3.65-4.49,29.55,29.55,0,0,0-4.34-3.76,10.79,10.79,0,0,0-2.28-1.27,1.51,1.51,0,0,0-.4-.1s0,0,0,0l.07,0h0a1.21,1.21,0,0,0-.35.47,7.84,7.84,0,0,0-.7,2.43A20,20,0,0,0,59,51.79a30.78,30.78,0,0,0,.51,5.74,20.48,20.48,0,0,0,1.73,5.39,6.33,6.33,0,0,0,3.49,3.47h0a1.19,1.19,0,0,1-.63,2.3A6.87,6.87,0,0,1,61,66.85a11.58,11.58,0,0,1-2-2.74,22.94,22.94,0,0,1-2.14-6,31.63,31.63,0,0,1-.66-6.3,22,22,0,0,1,.2-3.22,10.76,10.76,0,0,1,.95-3.36,3.89,3.89,0,0,1,1.64-1.75l.35-.16a3.63,3.63,0,0,1,.45-.1,2.84,2.84,0,0,1,.71,0,4.75,4.75,0,0,1,1.07.23,12.44,12.44,0,0,1,3,1.6,33.09,33.09,0,0,1,4.82,4.13,36.91,36.91,0,0,1,4,4.88,22.69,22.69,0,0,1,2.91,5.8,12.29,12.29,0,0,1,.57,3.4,8.67,8.67,0,0,1-.67,3.59,8.53,8.53,0,0,1-2.15,3,12.33,12.33,0,0,1-2.89,1.9,19.21,19.21,0,0,1-3.1,1.12,14.12,14.12,0,0,1-1.59.37,15,15,0,0,1-1.64.23,16.28,16.28,0,0,1-6.57-.7,18.52,18.52,0,0,1-5.73-3.16A25.64,25.64,0,0,1,48.08,65a37.17,37.17,0,0,1-3.36-5.29,41.13,41.13,0,0,1-2.51-5.75,1.19,1.19,0,0,1,2.24-.81Z"/><path class="cls-1" d="M54.5,46.35a5.67,5.67,0,0,0-1.06-.26A5.3,5.3,0,0,0,52.32,46a3.59,3.59,0,0,0-1.94.7,4.35,4.35,0,0,0-1.3,1.73,5.17,5.17,0,0,0-.29,2.22,14.25,14.25,0,0,0,1.51,4.86A30.35,30.35,0,0,0,53,60.09l0,0a.76.76,0,0,1-.17,1.07.77.77,0,0,1-1-.15,31.81,31.81,0,0,1-3.1-4.7,16.15,16.15,0,0,1-1.91-5.48,7.11,7.11,0,0,1,.33-3.17A6.57,6.57,0,0,1,49,45a5.88,5.88,0,0,1,3.09-1.26,8.08,8.08,0,0,1,3.22.35,1.19,1.19,0,0,1-.74,2.27h-.05Z"/><path class="cls-1" d="M34.37,69.93v0c.37,4.39-.8,7.6-3.5,9.52C23.14,85,5.47,77.32,4.72,77a1.19,1.19,0,0,1-.12-2.12C5,74.65,13.84,69.41,20.42,67c7-2.56,13.22,1.9,13.48,2.1A1.19,1.19,0,0,1,34.37,69.93ZM7.94,75.71c4.87,1.83,16.37,5.54,21.56,1.84,1.88-1.34,2.71-3.57,2.54-6.8-1.4-.87-5.94-3.26-10.8-1.49A103,103,0,0,0,7.94,75.71Z"/><path class="cls-1" d="M13.91,64.18a6.48,6.48,0,0,1,0,1.69C13,72.12,6.7,73.56,3.47,73.44a1.19,1.19,0,1,1,.09-2.38c.3,0,7.19.15,8-5.51.16-1.19-.07-1.49-.08-1.49a3.84,3.84,0,0,0-2.27,1.31c-.88.89-1.1,1.62-1,1.78l.06,0a1.19,1.19,0,0,1-1.26,2,2.65,2.65,0,0,1-.86-3.54c.88-2,3.81-4.53,6.05-3.9A2.52,2.52,0,0,1,13.91,64.18Z"/><path class="cls-1" d="M6.79,59.38A50.36,50.36,0,0,1,15.64,58a43.28,43.28,0,0,1,9.09.19,25.17,25.17,0,0,1,4.59,1.06,15.25,15.25,0,0,1,4.41,2.22,9.72,9.72,0,0,1,3.19,4.1,9.06,9.06,0,0,1,.49,5,1.08,1.08,0,0,1-2.11.08v-.08A12.31,12.31,0,0,0,33.9,67a8.93,8.93,0,0,0-2.42-2.52,18.23,18.23,0,0,0-7.32-2.71,52.81,52.81,0,0,0-8.4-.66c-2.85,0-5.75.11-8.59.34h0a1.06,1.06,0,0,1-.34-2.08Z"/><path class="cls-1" d="M51.82,35.43a6.34,6.34,0,0,1-2.39.66,2.58,2.58,0,0,1-.8-.09,1.83,1.83,0,0,1-1.38-1.66,3,3,0,0,1,0-.86,6.1,6.1,0,0,1,.43-1.29,7.45,7.45,0,0,1,.61-1.13,6.25,6.25,0,0,1,2-1.85,7.47,7.47,0,0,1,2.49-.87,7.11,7.11,0,0,1,2.68,0,5.3,5.3,0,0,1,2.67,1.36,3.89,3.89,0,0,1,.93,1.46,4.21,4.21,0,0,1,.22,1.66,6.52,6.52,0,0,1-.87,2.68,11.61,11.61,0,0,1-1.46,2,17.08,17.08,0,0,1-3.61,3,8.52,8.52,0,0,1-4.74,1.38,6,6,0,0,1-2.47-.6,5.85,5.85,0,0,1-2-1.52.67.67,0,0,1,.91-1l.08.06a5.13,5.13,0,0,0,1.65.78,4.54,4.54,0,0,0,1.79.14A6.9,6.9,0,0,0,52,38.38a17.49,17.49,0,0,0,2.84-2.74,6.05,6.05,0,0,0,1.52-3,1,1,0,0,0-.29-.83,2.38,2.38,0,0,0-1.15-.58,5.32,5.32,0,0,0-3.28.36,3.52,3.52,0,0,0-1.27.93,5.73,5.73,0,0,0-.9,1.45,1.59,1.59,0,0,1-.08.21s0,0-.08-.06,0,.07.22.1a6.34,6.34,0,0,0,1.87-.08h.06a.67.67,0,0,1,.77.55A.68.68,0,0,1,51.82,35.43Z"/><path class="cls-1" d="M78.64,22.54a13.25,13.25,0,0,1-2.78-1.61,8.88,8.88,0,0,0-3.09-.58,7.34,7.34,0,0,0-2.21.35,6.94,6.94,0,0,0-2,1.07A8.78,8.78,0,0,0,66,25.21,15,15,0,0,0,65,29c-.12.64-.15,1.27-.21,1.9l0,1.92a20.66,20.66,0,0,0,1.52,7.54,18.45,18.45,0,0,0,4.39,6.29,18.64,18.64,0,0,0,6.42,4,.91.91,0,0,0,.8-1.61L77.78,49a22.11,22.11,0,0,1-8.61-9.86,18,18,0,0,1-1.3-6.38V31.13c.06-.55.08-1.12.17-1.65a12.52,12.52,0,0,1,.76-3.08,6,6,0,0,1,1.6-2.29,4.08,4.08,0,0,1,2.42-.88,6.22,6.22,0,0,1,2.82.61,5.45,5.45,0,0,1,2.2,1.69,1.72,1.72,0,0,1,.22.52,6.29,6.29,0,0,1,.2.71,4.35,4.35,0,0,1,0,1.34A2.5,2.5,0,0,1,77,30.05a2.07,2.07,0,0,1-2.19,0,2.24,2.24,0,0,1-.48-2.3v0a.91.91,0,0,0-1.76-.44,5.54,5.54,0,0,0-.23,2.14,3.36,3.36,0,0,0,1.1,2.19,3.72,3.72,0,0,0,2.27.92A4.69,4.69,0,0,0,78,32.11a4.79,4.79,0,0,0,1.85-1.5c.15-.3.29-.61.47-.9a3.28,3.28,0,0,1,.2-.31,4.75,4.75,0,0,0,.25-.87,6.83,6.83,0,0,0,0-2.21,7,7,0,0,0-.24-1,4.09,4.09,0,0,0-.46-1.12A6.75,6.75,0,0,0,78.64,22.54Z"/><path class="cls-1" d="M65.94,21.15a1.19,1.19,0,0,1-.89,1.3A9.23,9.23,0,0,1,58,21.21c-2.05-1.5-3.19-4-3.39-7.44a1.2,1.2,0,0,1,1.12-1.26,1.18,1.18,0,0,1,1.26,1.12c.16,2.68,1,4.58,2.4,5.64a6.84,6.84,0,0,0,5.13.86,1.19,1.19,0,0,1,1.44.87A.4.4,0,0,1,65.94,21.15Z"/><path class="cls-1" d="M6.11,62.87a1.2,1.2,0,0,1-.75,1.25,4.41,4.41,0,0,0-2.84,2.46A4.12,4.12,0,0,0,3,69.66,1.19,1.19,0,0,1,1,71a6.56,6.56,0,0,1-.75-5.1c.56-1.73,2-3,4.23-3.95A1.2,1.2,0,0,1,6,62.57,1.67,1.67,0,0,1,6.11,62.87Z"/><path class="cls-1" d="M38.93,25.85a12.27,12.27,0,0,1-2.42-1,16,16,0,0,1-2.15-1.38,16.63,16.63,0,0,1-3.52-3.73,16.43,16.43,0,0,1-2.22-4.6,18.1,18.1,0,0,1-.79-5V10a1.13,1.13,0,0,1,1.11-1.14,1.22,1.22,0,0,1,.43.08h0a41.73,41.73,0,0,1,5.73,2.29,26.4,26.4,0,0,1,2.73,1.54l.66.45q.32.23.66.51a9.65,9.65,0,0,1,1.2,1.19,19,19,0,0,1,3.1,5.56,34.86,34.86,0,0,1,1.67,6,1.18,1.18,0,0,1-.95,1.39,1.19,1.19,0,0,1-1.39-.95h0v0a32.06,32.06,0,0,0-1.55-5.53,16.82,16.82,0,0,0-2.68-4.86,8.44,8.44,0,0,0-2-1.7A23,23,0,0,0,34,13.35a39.19,39.19,0,0,0-5.36-2.15h0L30.21,10a23.64,23.64,0,0,0,1.15,4.24,18.48,18.48,0,0,0,2,3.77,18.43,18.43,0,0,0,2.88,3.17A20,20,0,0,0,38,22.47a18.1,18.1,0,0,0,1.77,1.14l.11.06a1.19,1.19,0,0,1-.92,2.18Z"/><path class="cls-1" d="M541.27,44.74a1,1,0,0,1-.34-.31l-.34-.52a1,1,0,1,1,1.65-1.1l.35.52a1,1,0,0,1-1.32,1.41Z"/><path class="cls-1" d="M577.85,76.21a1,1,0,0,1,.66-1.84c.28,0,6.94,1.26,10.16,5.31a1,1,0,0,1-1.56,1.23c-2.75-3.46-8.89-4.57-9-4.59A.82.82,0,0,1,577.85,76.21Z"/><path class="cls-1" d="M517.84,50.19a1.22,1.22,0,0,1-.5-.53,1.2,1.2,0,0,1,.57-1.59c9.27-4.35,17.27-16.13,17.35-16.25a1.19,1.19,0,0,1,2,1.33c-.34.51-8.44,12.45-18.31,17.08A1.19,1.19,0,0,1,517.84,50.19Z"/><path class="cls-1" d="M515.31,66.86a1.19,1.19,0,0,0-1.3-1.07c-12.92,1.26-25.5,9-33.53,15.08a90.82,90.82,0,0,1-7.13,5.85c-.42.38-.76.69-1,.94.42.19.84.41,1.25.63s.63.4.93.61c4.44-4,22.09-19,39.73-20.74A1.18,1.18,0,0,0,515.31,66.86Z"/><path class="cls-1" d="M475.6,88a46.64,46.64,0,0,1,4.51-3.64c1.56-1.12,3.19-2.16,4.86-3.13a51.71,51.71,0,0,1,10.68-4.73,36.5,36.5,0,0,1,5.83-1.31,25.78,25.78,0,0,1,6.09-.25,20.26,20.26,0,0,1,6,1.42,16.52,16.52,0,0,1,5.11,3.41,1.22,1.22,0,0,1-1.23,2l-.07,0a41.32,41.32,0,0,0-5.06-1.34,32.83,32.83,0,0,0-5-.49A35.83,35.83,0,0,0,497,81.24a65.78,65.78,0,0,0-10.16,3.67,107.15,107.15,0,0,0-9.78,5l-.05,0A1.2,1.2,0,0,1,475.6,88Z"/><path class="cls-1" d="M550.42,45.68a1.21,1.21,0,0,1-.61-1.15c.66-7.49,5.74-12.68,14.69-15a4.27,4.27,0,0,1,4.14.77c2.37,2.14,1.71,7,1.62,7.52a1.19,1.19,0,1,1-2.35-.36c.23-1.57.2-4.42-.87-5.39-.16-.14-.63-.57-1.95-.23-8,2.07-12.33,6.41-12.9,12.9a1.19,1.19,0,0,1-1.3,1.08A1.07,1.07,0,0,1,550.42,45.68Z"/><path class="cls-1" d="M555.16,46.2a17,17,0,0,1,2.27-3.75,14.87,14.87,0,0,1,3.26-3,11.14,11.14,0,0,1,4.27-1.7,12.14,12.14,0,0,1,4.58.16,17.08,17.08,0,0,1,4.15,1.56,23.09,23.09,0,0,1,3.67,2.4,9,9,0,0,1,2.8,4,4.67,4.67,0,0,1,.18.64l.08.69a5.24,5.24,0,0,1,0,1.37,7.34,7.34,0,0,1-.31,1.31,11.61,11.61,0,0,1-.53,1.19,10.54,10.54,0,0,1-3.31,3.45,17.29,17.29,0,0,1-4,2,20.07,20.07,0,0,1-8.7.89,18.38,18.38,0,0,1-14-9.43,1.19,1.19,0,0,1,2-1.27h0A18.63,18.63,0,0,0,557,51.77a16.76,16.76,0,0,0,6.9,2.24,19.56,19.56,0,0,0,3.67,0,17.76,17.76,0,0,0,3.56-.76,14,14,0,0,0,3.21-1.53,7.08,7.08,0,0,0,2.28-2.28,3.19,3.19,0,0,0,.35-2.57,5.77,5.77,0,0,0-1.77-2.49,19.79,19.79,0,0,0-3-2.09,14.52,14.52,0,0,0-3.34-1.37,9.08,9.08,0,0,0-3.43-.23,8.7,8.7,0,0,0-3.22,1.14,13.86,13.86,0,0,0-4.84,5.34l0,.09a1.2,1.2,0,0,1-2.15-1Z"/><path class="cls-1" d="M544,52a38.28,38.28,0,0,0-5.74-1.07,34.37,34.37,0,0,0-5.82-.2A19.1,19.1,0,0,0,521.84,54a13.53,13.53,0,0,0-3.58,4.06,8.84,8.84,0,0,0-.64,1.22,11.15,11.15,0,0,0-.54,1.28,15,15,0,0,0-.75,2.65,6.82,6.82,0,0,0,.61,4.81,7.29,7.29,0,0,0,4,2.85,19,19,0,0,0,5.5.93,33,33,0,0,0,5.78-.32,30.6,30.6,0,0,0,5.6-1.29,11.28,11.28,0,0,0,2.36-1.1,1.67,1.67,0,0,0,.32-.27s0,0,0,0a.09.09,0,0,0,0,.07h0a1.11,1.11,0,0,0-.16-.56,8.17,8.17,0,0,0-1.56-2,18.19,18.19,0,0,0-2.15-1.83,29.42,29.42,0,0,0-4.94-3,20.33,20.33,0,0,0-5.38-1.77,6.27,6.27,0,0,0-4.85.78h0a1.18,1.18,0,0,1-1.67-.2,1.2,1.2,0,0,1,.17-1.66,7,7,0,0,1,3.33-1.44,11.33,11.33,0,0,1,3.39,0,22.79,22.79,0,0,1,6.15,1.83,31.17,31.17,0,0,1,5.48,3.16,22.76,22.76,0,0,1,2.48,2.06A10.4,10.4,0,0,1,542.9,67a3.82,3.82,0,0,1,.44,2.35,2.45,2.45,0,0,1-.08.37c0,.15-.11.29-.17.43a4.15,4.15,0,0,1-.41.58,4.79,4.79,0,0,1-.82.73A12.74,12.74,0,0,1,538.77,73a32.75,32.75,0,0,1-6.17,1.47,35.78,35.78,0,0,1-6.3.37,22.06,22.06,0,0,1-6.41-1.06,12.29,12.29,0,0,1-3.08-1.53,8.84,8.84,0,0,1-2.51-2.65,8.59,8.59,0,0,1-1.13-3.48,12.4,12.4,0,0,1,.17-3.46,18.25,18.25,0,0,1,.91-3.16c.17-.52.42-1,.64-1.51a14.66,14.66,0,0,1,.78-1.46,16.09,16.09,0,0,1,4.43-4.9A18.43,18.43,0,0,1,526,48.85a25.77,25.77,0,0,1,6.31-.9,36.25,36.25,0,0,1,6.26.39,40.54,40.54,0,0,1,6.13,1.35,1.19,1.19,0,0,1-.67,2.29Z"/><path class="cls-1" d="M543.61,64.08a6,6,0,0,0,1.53-1.58,3.56,3.56,0,0,0,.58-2,4.47,4.47,0,0,0-.63-2.07,5.15,5.15,0,0,0-1.63-1.54,14.24,14.24,0,0,0-4.82-1.64,30.31,30.31,0,0,0-5.29-.45h0a.77.77,0,0,1,0-1.54,33,33,0,0,1,5.62.26,16.3,16.3,0,0,1,5.55,1.68,7.2,7.2,0,0,1,2.38,2.14,6.47,6.47,0,0,1,1,3.07,5.85,5.85,0,0,1-.79,3.24,8.91,8.91,0,0,1-1,1.3,7.76,7.76,0,0,1-1.22,1.1,1.19,1.19,0,1,1-1.4-1.93l0,0Z"/><path class="cls-1" d="M536.37,33.93l0,0c-3.78-2.28-5.68-5.12-5.65-8.43C530.77,16,547.4,6.21,548.1,5.8a1.18,1.18,0,0,1,1.25,0,1.2,1.2,0,0,1,.54,1.11c0,.44-1,10.69-3,17.42-2.07,7.2-9.31,9.56-9.62,9.66A1.19,1.19,0,0,1,536.37,33.93ZM547.25,9.15c-4.35,2.86-14.12,10-14.17,16.35,0,2.31,1.29,4.3,4,6.06,1.52-.62,6.13-2.89,7.56-7.86A103.55,103.55,0,0,0,547.25,9.15Z"/><path class="cls-1" d="M553.05,20.76a6.7,6.7,0,0,1-1.34-1c-4.56-4.35-2-10.32,0-12.87a1.19,1.19,0,0,1,1.88,1.47c-.18.24-4.35,5.73-.22,9.68.87.82,1.25.81,1.25.81a3.81,3.81,0,0,0,.27-2.61c-.19-1.23-.66-1.84-.82-1.89l-.07,0a1.19,1.19,0,0,1-1.56-.65,1.21,1.21,0,0,1,.66-1.56,2.64,2.64,0,0,1,3.37,1.39c1.11,1.9,1.42,5.75-.4,7.18A2.54,2.54,0,0,1,553.05,20.76Z"/><path class="cls-1" d="M561.13,17.83a51.26,51.26,0,0,1-4.06,8,42.81,42.81,0,0,1-5.5,7.24A24.62,24.62,0,0,1,548,36.14a15.35,15.35,0,0,1-4.39,2.27,9.82,9.82,0,0,1-5.19.17A9.11,9.11,0,0,1,534.12,36a1.09,1.09,0,0,1,0-1.53,1.1,1.1,0,0,1,1.13-.22l.07,0a11.93,11.93,0,0,0,3.65.94,8.77,8.77,0,0,0,3.46-.48A17.88,17.88,0,0,0,549,30.46a51.52,51.52,0,0,0,5.48-6.41c1.69-2.29,3.3-4.71,4.78-7.14l0,0a1.06,1.06,0,0,1,1.89.95Z"/><path class="cls-1" d="M554,68.33a6.26,6.26,0,0,1,.88-2.32,2.66,2.66,0,0,1,.54-.6,1.84,1.84,0,0,1,1-.41,1.94,1.94,0,0,1,1.13.27,2.94,2.94,0,0,1,.67.55,5.67,5.67,0,0,1,.79,1.1,7.84,7.84,0,0,1,.56,1.16,6.14,6.14,0,0,1,.3,2.71,7.62,7.62,0,0,1-.75,2.54,7.49,7.49,0,0,1-1.6,2.15,5.36,5.36,0,0,1-2.66,1.36,4.06,4.06,0,0,1-1.73-.1,4.11,4.11,0,0,1-1.47-.81A6.3,6.3,0,0,1,550,73.65a11.24,11.24,0,0,1-.75-2.35,16.39,16.39,0,0,1-.33-4.7A8.37,8.37,0,0,1,550.62,62a5.85,5.85,0,0,1,1.93-1.64,5.6,5.6,0,0,1,2.41-.72.67.67,0,0,1,.24,1.3l-.09,0a5.11,5.11,0,0,0-1.6.87,4.77,4.77,0,0,0-1.17,1.37,6.93,6.93,0,0,0-.81,3.56,17.64,17.64,0,0,0,.55,3.92,6.08,6.08,0,0,0,1.5,3,1.05,1.05,0,0,0,.85.26,2.39,2.39,0,0,0,1.14-.6,5.29,5.29,0,0,0,1.64-2.86,3.37,3.37,0,0,0,0-1.58,5.5,5.5,0,0,0-.64-1.58l-.13-.18s0,0,.1,0,0-.06-.21.13a6,6,0,0,0-1,1.56l0,0a.67.67,0,0,1-1.26-.44Z"/><path class="cls-1" d="M548.66,97.6a13.51,13.51,0,0,1,2.94-1.3,8.81,8.81,0,0,0,2.28-2.16,7.07,7.07,0,0,0,1-2,6.89,6.89,0,0,0,.32-2.25,8.8,8.8,0,0,0-1.28-4.09,15.21,15.21,0,0,0-2.48-3.09c-.45-.47-.94-.87-1.42-1.29l-1.54-1.14a20.7,20.7,0,0,0-7-3.21,19,19,0,0,0-14.69,2.68.9.9,0,0,0,.83,1.59l.09,0a22.19,22.19,0,0,1,13-1.16,18.11,18.11,0,0,1,5.93,2.71l1.34,1c.41.37.85.72,1.23,1.11a11.87,11.87,0,0,1,2,2.43,5.87,5.87,0,0,1,.92,2.63,4.11,4.11,0,0,1-.71,2.48,6.25,6.25,0,0,1-2.15,1.92,5.4,5.4,0,0,1-2.67.78,1.52,1.52,0,0,1-.55-.12,5,5,0,0,1-.68-.26,4.12,4.12,0,0,1-1.13-.75,2.5,2.5,0,0,1-.8-2.2,2.09,2.09,0,0,1,1.3-1.77,2.27,2.27,0,0,1,2.14,1v0a.91.91,0,0,0,1.39-1.17,5.6,5.6,0,0,0-1.6-1.44,3.31,3.31,0,0,0-2.41-.4,3.7,3.7,0,0,0-2.08,1.29,4.56,4.56,0,0,0-1,2.09,4.81,4.81,0,0,0,.12,2.38c.15.3.32.6.46.91,0,.12.08.23.13.35a4.27,4.27,0,0,0,.56.71,6.55,6.55,0,0,0,1.78,1.31,9.88,9.88,0,0,0,1,.41,4.34,4.34,0,0,0,1.19.28A6.6,6.6,0,0,0,548.66,97.6Z"/><path class="cls-1" d="M557.25,88.15a1.19,1.19,0,0,1-.52-1.48,9.18,9.18,0,0,1,5.18-5c2.42-.78,5.12-.22,8,1.64a1.19,1.19,0,0,1-1.29,2c-2.26-1.46-4.28-1.92-6-1.38a6.85,6.85,0,0,0-3.71,3.64,1.21,1.21,0,0,1-1.55.66Z"/><path class="cls-1" d="M558.71,15.22a1.2,1.2,0,0,1-.58-1.34,4.4,4.4,0,0,0-.32-3.75A4.16,4.16,0,0,0,555,8.72a1.19,1.19,0,1,1,.14-2.38,6.54,6.54,0,0,1,4.56,2.39c1.07,1.47,1.31,3.4.7,5.75a1.18,1.18,0,0,1-1.45.85A.86.86,0,0,1,558.71,15.22Z"/><path class="cls-1" d="M569.34,63.54a12.3,12.3,0,0,1,2.23-1.37,14.74,14.74,0,0,1,2.39-.92,16.38,16.38,0,0,1,5.08-.66,16.86,16.86,0,0,1,5,.91,17.71,17.71,0,0,1,4.48,2.29l.15.11a1.12,1.12,0,0,1,.27,1.57,1.06,1.06,0,0,1-.31.29h0a41.25,41.25,0,0,1-5.23,3.28,24.56,24.56,0,0,1-2.85,1.3c-.24.1-.5.18-.75.27a7.59,7.59,0,0,1-.8.24,9.84,9.84,0,0,1-1.67.27,19.12,19.12,0,0,1-6.32-.76,35.51,35.51,0,0,1-5.82-2.17,1.19,1.19,0,1,1,1-2.15h0l0,0a33.3,33.3,0,0,0,5.38,2,16.52,16.52,0,0,0,5.51.69,8.07,8.07,0,0,0,2.56-.63,22.22,22.22,0,0,0,2.59-1.18,39.14,39.14,0,0,0,4.9-3.07h0l.11,2a23.89,23.89,0,0,0-4.11-1.56A18,18,0,0,0,579,63.7a18.54,18.54,0,0,0-4.26.47,18.87,18.87,0,0,0-2.08.58,19.11,19.11,0,0,0-2,.76l-.12.06A1.2,1.2,0,0,1,569,65,1.22,1.22,0,0,1,569.34,63.54Z"/><path class="cls-2" d="M135.4,82.6c0-.06,0-.24,0-.52s.05-.49.05-.62q2-6.58,4.34-13.5a112.72,112.72,0,0,1,5.53-13.45,70.85,70.85,0,0,1,7.49-12.12A39.83,39.83,0,0,1,163.16,33a3.17,3.17,0,0,1,1.38.19,5.37,5.37,0,0,1,1.1,1.14q2.38,3.15,4.19,5.77a34.22,34.22,0,0,1,3.06,5.39,28.31,28.31,0,0,1,1.86,5.87,36.82,36.82,0,0,1,.62,7.11,30.15,30.15,0,0,1-1.58,8.77,40.63,40.63,0,0,1-4,8.68,46,46,0,0,1-6,7.78,38.59,38.59,0,0,1-7.44,6.06,29.45,29.45,0,0,1-8.4,3.57,19,19,0,0,1-8.77.15,6.07,6.07,0,0,1-1.91-2.1,11.26,11.26,0,0,1-1.15-2.91,21.57,21.57,0,0,1-.52-3.1C135.44,84.35,135.4,83.43,135.4,82.6Zm6.1,3.15a1.59,1.59,0,0,0,.38,1.15,2.08,2.08,0,0,0,1,.52,4.62,4.62,0,0,0,1.19.14h1.19A16.06,16.06,0,0,0,155,84.27a32.31,32.31,0,0,0,7.73-8.11,42.34,42.34,0,0,0,5.06-10.25,31.67,31.67,0,0,0,1.81-9.83,48,48,0,0,0-.24-5.15,13.87,13.87,0,0,0-1.05-4A15.79,15.79,0,0,0,166,43.2a36.69,36.69,0,0,0-4-4,21.88,21.88,0,0,0-4.82,5.15,70.9,70.9,0,0,0-4.72,7.77c-1.52,2.9-3,6-4.29,9.21s-2.5,6.41-3.48,9.49-1.77,5.93-2.34,8.54A31.35,31.35,0,0,0,141.5,85.75Z"/><path class="cls-2" d="M191.58,92.62a.89.89,0,0,1,.1-.29Q197.31,80,203.18,68t12.63-24c.13-.26.32-.72.58-1.39s.51-1.38.76-2.14.48-1.5.67-2.2.32-1.21.38-1.52h-1.29c-.6,0-1.27,0-2,0s-1.42-.05-2-.05h-1.34c-1.46,0-3.07.08-4.82.24s-3.51.38-5.29.67a43.62,43.62,0,0,0-5.2,1.14,30.07,30.07,0,0,0-4.53,1.67A7.53,7.53,0,0,0,188.39,43c-.61,1-1.16,1.91-1.67,2.77a7,7,0,0,1-2.05,2.19c-.86.61-2.37.91-4.53.91h-.58a18.81,18.81,0,0,0,2.68-3.43l2.52-4.11c.86-1.39,1.75-2.73,2.67-4a11.68,11.68,0,0,1,3-3,48.23,48.23,0,0,1,7.2-2.53,64,64,0,0,1,7.63-1.52q3.87-.53,7.73-.72c2.58-.13,5.1-.16,7.58-.09a12.16,12.16,0,0,1,2.82.71,3.27,3.27,0,0,1,1.48,1.15,4.25,4.25,0,0,1,.62,1.86,24.85,24.85,0,0,1,.14,2.86q-6.87,14.88-12.54,26.14t-9.83,18.74q-4.16,7.5-6.53,11c-1.6,2.35-2.48,3.31-2.68,2.86a3.39,3.39,0,0,1-1.71-.43,1.54,1.54,0,0,1-.77-1.47Z"/><path class="cls-2" d="M233.35,87.09a14.87,14.87,0,0,1,2.91.28,6.65,6.65,0,0,1,2.43,1,2.23,2.23,0,0,1,1,2,4.59,4.59,0,0,1-1.14,3.24,4.05,4.05,0,0,1-3.15,1.24h-1a7.63,7.63,0,0,1-1.48-.14,5.41,5.41,0,0,1-1.34-.43.85.85,0,0,1-.57-.76V87.09Z"/><path class="cls-2" d="M253.59,82.6c0-.06,0-.24,0-.52s.05-.49.05-.62q2-6.58,4.34-13.5a112.72,112.72,0,0,1,5.53-13.45,70.85,70.85,0,0,1,7.49-12.12A39.79,39.79,0,0,1,281.35,33a3.25,3.25,0,0,1,1.39.19,5.41,5.41,0,0,1,1.09,1.14q2.39,3.15,4.2,5.77a33.38,33.38,0,0,1,3.05,5.39,27.16,27.16,0,0,1,1.86,5.87,36,36,0,0,1,.62,7.11A30.12,30.12,0,0,1,292,67.24a41.63,41.63,0,0,1-4.05,8.68,46.56,46.56,0,0,1-6,7.78,38.35,38.35,0,0,1-7.45,6.06,29.52,29.52,0,0,1-8.39,3.57,19,19,0,0,1-8.78.15,6.17,6.17,0,0,1-1.91-2.1,10.89,10.89,0,0,1-1.14-2.91,20.27,20.27,0,0,1-.52-3.1C253.64,84.35,253.59,83.43,253.59,82.6Zm6.11,3.15a1.55,1.55,0,0,0,.38,1.15,2.05,2.05,0,0,0,.95.52,4.7,4.7,0,0,0,1.2.14h1.19a16.09,16.09,0,0,0,9.73-3.29,32.49,32.49,0,0,0,7.73-8.11,42.31,42.31,0,0,0,5.05-10.25,31.38,31.38,0,0,0,1.81-9.83,51.08,51.08,0,0,0-.23-5.15,13.87,13.87,0,0,0-1.05-4,16.13,16.13,0,0,0-2.29-3.68,36.69,36.69,0,0,0-4-4,21.67,21.67,0,0,0-4.82,5.15,69.38,69.38,0,0,0-4.72,7.77c-1.53,2.9-3,6-4.29,9.21s-2.5,6.41-3.49,9.49-1.76,5.93-2.33,8.54A30.66,30.66,0,0,0,259.7,85.75Z"/><path class="cls-2" d="M298.14,91.09c0-.19,0-.58.1-1.19a6.1,6.1,0,0,1,.19-1.19q5.43-4.59,9.3-8.59T314.88,72q3.3-4.16,6.44-8.83c2.1-3.11,4.52-6.68,7.25-10.68,1.53-3,2.25-5,2.15-6s-.72-1.4-1.86-1.15a18.41,18.41,0,0,0-4.58,2q-2.86,1.64-6.06,3.49c-2.13,1.24-4.24,2.33-6.34,3.29a11.25,11.25,0,0,1-5.44,1.24,5.28,5.28,0,0,1,1.43-3.1,22.73,22.73,0,0,1,3.72-3.53,53.57,53.57,0,0,1,5.15-3.48q2.86-1.73,5.58-3.1a39.89,39.89,0,0,1,5.06-2.2,12.08,12.08,0,0,1,3.67-.81,5.8,5.8,0,0,1,2.15.43,7.46,7.46,0,0,1,2,1.14,6.28,6.28,0,0,1,1.43,1.72,4.3,4.3,0,0,1,.57,2.15,16.89,16.89,0,0,1-1.62,6.87,46.65,46.65,0,0,1-4.06,7.2,78.72,78.72,0,0,1-5.29,6.92c-1.91,2.22-3.67,4.27-5.3,6.15s-3,3.51-4.05,4.91-1.62,2.42-1.62,3c2.29,1.6,4.45,3,6.49,4.11,1.71,1,3.38,1.94,5,2.76a9.17,9.17,0,0,0,3.49,1.24,8.92,8.92,0,0,0,3.43-.62c1-.41,2-.76,3-1a7.69,7.69,0,0,1,3-.28,7.19,7.19,0,0,1,3.53,1.67q0,.09-.66.66c-.45.39-1,.83-1.63,1.34s-1.3,1-2,1.57-1.27,1-1.72,1.29a11.79,11.79,0,0,1-4.58,1.86,11.24,11.24,0,0,1-4.29-.14,16,16,0,0,1-4.1-1.57c-1.34-.73-2.66-1.5-4-2.29s-2.61-1.56-3.91-2.29a22.31,22.31,0,0,0-4.05-1.77,4.7,4.7,0,0,0-3.68,1.34,14.45,14.45,0,0,0-2.05,3,18.21,18.21,0,0,1-1.91,3,3.75,3.75,0,0,1-3.14,1.33c-1.4,0-2.29-.31-2.68-1A5.48,5.48,0,0,1,298.14,91.09Z"/><path class="cls-2" d="M352.27,87.09a14.8,14.8,0,0,1,2.91.28,6.63,6.63,0,0,1,2.44,1,2.25,2.25,0,0,1,1,2,4.55,4.55,0,0,1-1.15,3.24,4.05,4.05,0,0,1-3.15,1.24h-1a7.7,7.7,0,0,1-1.48-.14,5.19,5.19,0,0,1-1.33-.43.85.85,0,0,1-.57-.76V87.09Z"/><path class="cls-2" d="M372.27,91.09c0-.19,0-.58.09-1.19a7,7,0,0,1,.19-1.19,123.07,123.07,0,0,0,9.3-8.59q3.87-4,7.16-8.15t6.44-8.83c2.1-3.11,4.51-6.68,7.25-10.68,1.52-3,2.24-5,2.14-6s-.71-1.4-1.86-1.15a18.41,18.41,0,0,0-4.58,2q-2.85,1.64-6,3.49c-2.13,1.24-4.25,2.33-6.35,3.29a11.24,11.24,0,0,1-5.43,1.24,5.21,5.21,0,0,1,1.43-3.1,22,22,0,0,1,3.72-3.53,51.18,51.18,0,0,1,5.15-3.48q2.86-1.73,5.58-3.1a39.28,39.28,0,0,1,5.06-2.2,12,12,0,0,1,3.67-.81,5.75,5.75,0,0,1,2.14.43,7.3,7.3,0,0,1,2,1.14,6.28,6.28,0,0,1,1.43,1.72,4.3,4.3,0,0,1,.57,2.15,16.89,16.89,0,0,1-1.62,6.87,47.41,47.41,0,0,1-4.05,7.2,78.85,78.85,0,0,1-5.3,6.92L395,71.68c-1.62,1.88-3,3.51-4.06,4.91s-1.62,2.42-1.62,3c2.29,1.6,4.45,3,6.49,4.11,1.72,1,3.39,1.94,5,2.76a9.2,9.2,0,0,0,3.48,1.24,8.89,8.89,0,0,0,3.43-.62c1-.41,2-.76,3-1a7.75,7.75,0,0,1,3-.28,7.27,7.27,0,0,1,3.53,1.67c0,.06-.23.28-.67.66s-1,.83-1.62,1.34-1.31,1-2,1.57-1.27,1-1.71,1.29a11.85,11.85,0,0,1-4.58,1.86,11.23,11.23,0,0,1-4.29-.14,16,16,0,0,1-4.11-1.57c-1.33-.73-2.65-1.5-4-2.29s-2.6-1.56-3.91-2.29a22,22,0,0,0-4-1.77,4.66,4.66,0,0,0-3.67,1.34,14.07,14.07,0,0,0-2.05,3,18.89,18.89,0,0,1-1.91,3,3.76,3.76,0,0,1-3.15,1.33c-1.4,0-2.29-.31-2.67-1A5.48,5.48,0,0,1,372.27,91.09Z"/><path class="cls-2" d="M421.3,82.6a29.08,29.08,0,0,1,.14-3,7.61,7.61,0,0,1,1.2-3l24.13-43.5h.38a.9.9,0,0,0,.34-.05,1.06,1.06,0,0,1,.33,0,8.63,8.63,0,0,1,2.58.42,1.92,1.92,0,0,1,1.33,2.06,5.08,5.08,0,0,1-.14,1.33,3,3,0,0,1-.48.91c-.22.28-.49.6-.81,1a10.11,10.11,0,0,0-1.14,1.67q-4.59,8.4-8.83,16.46T431,73c-.89,1.46-1.72,2.88-2.48,4.24a10,10,0,0,0-1.14,4.91,6.55,6.55,0,0,0,.76,3.44,5.1,5.1,0,0,0,2.1,1.91,9.71,9.71,0,0,0,3.1.9c1.17.16,2.43.27,3.77.34-.32.19-.53-.29-.62-1.43a18.54,18.54,0,0,1,.33-4.53,33.06,33.06,0,0,1,1.76-6.16,23.54,23.54,0,0,1,3.68-6.29,20.28,20.28,0,0,1,6-5,19.06,19.06,0,0,1,8.73-2.2c2.22,0,3.72.46,4.48,1.38a7.11,7.11,0,0,1,1.15,4.54,19.85,19.85,0,0,1-2.39,9.25A31.23,31.23,0,0,1,454,86.56a32.56,32.56,0,0,1-8.63,5.92,22.13,22.13,0,0,1-9.44,2.24,28.87,28.87,0,0,1-6-.57,11.53,11.53,0,0,1-4.58-2,9.35,9.35,0,0,1-3-3.77A14,14,0,0,1,421.3,82.6ZM454,68.2a8.2,8.2,0,0,0-4.1,2.24,21.15,21.15,0,0,0-3.53,4.29,27.35,27.35,0,0,0-2.48,5,12.27,12.27,0,0,0-1,4.15c0,.19,0,.61,0,1.24a3.82,3.82,0,0,0,.15,1.15,37,37,0,0,0,4.77-2.34,29.44,29.44,0,0,0,4.77-3.43,18.59,18.59,0,0,0,3.62-4.35A9.83,9.83,0,0,0,457.74,71a4.52,4.52,0,0,0-.52-2.43C456.87,68,455.8,67.88,454,68.2Z"/></g></g></svg>