<svg xmlns="http://www.w3.org/2000/svg" viewBox="0 0 119.52 90.31"><defs><style>.cls-1{fill:#f2f0e7;}.cls-2{fill:#f2ebdc;}.cls-3{fill:#f0e7d8;}.cls-4{fill:#eedbc1;}.cls-5{fill:#e6cfb4;}.cls-6{fill:#f1ebe0;}.cls-7{fill:#c5bca8;}.cls-8{fill:#d1cbba;}.cls-9{fill:#dcad80;}.cls-10{fill:#f3eee4;}.cls-11{fill:#998972;}.cls-12{fill:#ccc3b3;}.cls-13{fill:#beb39f;}.cls-14{fill:#af9d7c;}.cls-15{fill:#ddd9c9;}.cls-16{fill:#b5ab95;}.cls-17{fill:#e4d2bb;}.cls-18{fill:#b1a287;}.cls-19{fill:#c4b8a3;}.cls-20{fill:#7f5830;}.cls-21{fill:#ae9c81;}.cls-22{fill:#66391b;}.cls-23{fill:#bd8f66;}.cls-24{fill:#eae9e1;}.cls-25{fill:#f0e9e0;}.cls-26{fill:#a28c69;}.cls-27{fill:#573b1b;}.cls-28{fill:#ddb891;}.cls-29{fill:#d5b693;}.cls-30{fill:#958169;}.cls-31{fill:#927a59;}.cls-32{fill:#e3d2bc;}.cls-33{fill:#ad8c6a;}.cls-34{fill:#c8bea9;}.cls-35{fill:#efe7d8;}.cls-36{fill:#997e5c;}.cls-37{fill:#c0a17d;}.cls-38{fill:#d3ccba;}.cls-39{fill:#a99f88;}.cls-40{fill:#ead2b6;}.cls-41{fill:#472115;}.cls-42{fill:#e8dac0;}.cls-43{fill:#cabea8;}.cls-44{fill:#f4ece1;}.cls-45{fill:#e3e0d6;}.cls-46{fill:#c0a37f;}.cls-47{fill:#290f0d;}.cls-48{fill:#b1997c;}.cls-49{fill:#c3b098;}.cls-50{fill:#c5ab8e;}.cls-51{fill:#b0946f;}.cls-52{fill:#ac9a82;}.cls-53{fill:#6f4a26;}.cls-54{fill:#b3ab97;}.cls-55{fill:#916e50;}.cls-56{fill:#cebc9b;}.cls-57{fill:#6b583f;}.cls-58{fill:#9a7d69;}.cls-59{fill:#64513f;}.cls-60{fill:#c6baa3;}.cls-61{fill:#503c27;}.cls-62{fill:#4f4124;}.cls-63{fill:#a2876c;}.cls-64{fill:#b79773;}.cls-65{fill:#857253;}.cls-66{fill:#6d6240;}.cls-67{fill:#837361;}.cls-68{fill:#ead8c0;}.cls-69{fill:#efd8ba;}.cls-70{fill:#e6c49d;}.cls-71{fill:#dbbf9a;}.cls-72{fill:#eadbc2;}.cls-73{fill:#e8dcc6;}.cls-74{fill:#e5c7a3;}.cls-75{fill:#c49870;}.cls-76{fill:#e2cdb2;}.cls-77{fill:#e9d6bf;}.cls-78{fill:#e9d4ba;}.cls-79{fill:#e5c29e;}.cls-80{fill:#ebd7bd;}.cls-81{fill:#e9d9c1;}.cls-82{fill:#ac7954;}.cls-83{fill:#d8ccb8;}.cls-84{fill:#72634f;}.cls-85{fill:#88532a;}.cls-86{fill:#f4f3ee;}.cls-87{fill:#daac7b;}.cls-88{fill:#e0b88b;}.cls-89{fill:#d0a57b;}.cls-90{fill:#eddfc7;}.cls-91{fill:#e8d1ac;}.cls-92{fill:#eae0cc;}.cls-93{fill:#efe6d6;}.cls-94{fill:#dac0a3;}.cls-95{fill:#c3946b;}.cls-96{fill:#ccae8a;}.cls-97{fill:#e6cba8;}.cls-98{fill:#d3a577;}.cls-99{fill:#e5caa8;}.cls-100{fill:#d1a87d;}.cls-101{fill:#bead91;}.cls-102{fill:#dfc4a0;}.cls-103{fill:#a99478;}.cls-104{fill:#997a55;}.cls-105{fill:#c1b8a2;}.cls-106{fill:#f8f2ed;}.cls-107{fill:#f4ebde;}.cls-108{fill:#f6f3ed;}.cls-109{fill:#c7a383;}.cls-110{fill:#eee1d2;}.cls-111{fill:#ca8d63;}.cls-112{fill:#7e4721;}.cls-113{fill:#9a5e31;}.cls-114{fill:#d3a276;}.cls-115{fill:#d6b896;}.cls-116{fill:#d8b28e;}.cls-117{fill:#b77a4b;}.cls-118{fill:#a36e46;}.cls-119{fill:#f8f1e1;}.cls-120{fill:#b28d68;}.cls-121{fill:#cc925d;}.cls-122{fill:#d2a171;}.cls-123{fill:#edddcb;}.cls-124{fill:#947b5b;}.cls-125{fill:#e1bf97;}.cls-126{fill:#ebd1b5;}.cls-127{fill:#e3c9b1;}.cls-128{fill:#d1b797;}.cls-129{fill:#d3bfa5;}.cls-130{fill:#dcbe91;}.cls-131{fill:#f5f3eb;}.cls-132{fill:#846643;}.cls-133{fill:#c4a07d;}.cls-134{fill:#987f5e;}.cls-135{fill:#f4ede8;}.cls-136{fill:#fbfaf6;}.cls-137{fill:#bc9a71;}.cls-138{fill:#f0e8d8;}.cls-139{fill:#cc8f5b;}.cls-140{fill:#ebddcb;}.cls-141{fill:#b09470;}.cls-142{fill:#ada08a;}.cls-143{fill:#d5aa7d;}.cls-144{fill:#deb58c;}.cls-145{fill:#f0d7bc;}.cls-146{fill:#cb9760;}.cls-147{fill:#f5dec1;}.cls-148{fill:#f5e7cf;}.cls-149{fill:#8e5b2f;}.cls-150{fill:#2d110c;}.cls-151{fill:#e4c6a9;}.cls-152{fill:#edd9c6;}.cls-153{fill:#ead2b7;}.cls-154{fill:#e1c9a5;}.cls-155{fill:#a88253;}.cls-156{fill:#d5bb9a;}.cls-157{fill:#f3ddc1;}.cls-158{fill:#f3ede8;}.cls-159{fill:#ae7946;}.cls-160{fill:#c09d75;}.cls-161{fill:#724129;}.cls-162{fill:#dfc7ac;}.cls-163{fill:#f8e8d3;}.cls-164{fill:#e2d4b9;}</style></defs><g id="Capa_2" data-name="Capa 2"><g id="Capa_1-2" data-name="Capa 1"><path class="cls-1" d="M75.15,79a4.1,4.1,0,0,1-4.26.14c-.43-.26-.82-.76-1.44-.54-.51-.53-.19-1.38-.73-1.89a1.84,1.84,0,0,0-1.55-.12,2.11,2.11,0,0,1-1.29,0c-.87-.36-1.79-.57-2.67-.88a7.17,7.17,0,0,1-1-.54L62,75a13,13,0,0,0-3.29-.44,1.6,1.6,0,0,1-1.25-.35,3.9,3.9,0,0,0-3.66-2.13c-.76,0-1-.32-.93-1a11.52,11.52,0,0,0-.71-4A1.64,1.64,0,0,1,54,65.05a1.94,1.94,0,0,0,.48,0,.31.31,0,0,0,.26-.15,2.22,2.22,0,0,0-2.13-.24.93.93,0,0,1-.64-.12,2.34,2.34,0,0,0-2.08-.15c-.48.13-1,.38-1.48-.15-.17-.62-.55-1.23-.08-1.88a5.59,5.59,0,0,1,4-.26,19.2,19.2,0,0,0,3.19.56A1.15,1.15,0,0,0,56.73,62a24.69,24.69,0,0,0,1.78-3.36,7.21,7.21,0,0,0,.57-3.86c-.16,0-.22.09-.21.16.11,2.32-1.2,4.19-2,6.22-.25.66-.87.81-1.59.38a5.13,5.13,0,0,0-1.86-.67.89.89,0,0,1-.54-1.57.76.76,0,0,1,.21-.19c2.21-1,2.36-3.12,2.44-5.13a24.56,24.56,0,0,0-.13-5.35c.05-1.66-.94-2.67-2.19-3.53-.26-.18-.57-.34-.48-.74s.38-.38.67-.41A3.55,3.55,0,0,1,57,46.17a13.73,13.73,0,0,1,1.35,2.91,19.42,19.42,0,0,1,.28,3c0,.28,0,.67.36.69s.45-.37.47-.7a4.55,4.55,0,0,1,.12-1c.28-1,.73-1.88,1.91-2.06A5.52,5.52,0,0,0,63,48.17a13.45,13.45,0,0,1,3-1c.15-.06.32-.06.47-.11.35-.12.85-.18.91-.58s-.5-.49-.82-.65c-.52-.25-1.16-.4-.64-1.2.34-.3.6-.67,1-.94a1.65,1.65,0,0,0,.6-.94c.17-.76.56-1.17,1.36-1.1a4.76,4.76,0,0,0,2-.52,7.1,7.1,0,0,1,3.61-.57,5.58,5.58,0,0,1,3,2.69c.29.52,0,.84-.52,1-.35.11-.77-.05-1.07.27.1.12.23.06.35.08.39.07.91-.25,1.16.17s-.43.59-.47.91c-.14,1-1,1.52-1.22,2.46-.06.35-.28.65-.58.61a5.87,5.87,0,0,1,2.39.28,5.18,5.18,0,0,1,1.61,1c.83.73,1.88,1.25,2.62,2,1,1,2.39,1.33,3.2,2.55a1,1,0,0,0,0-1.35c-.24-.29-.67-.51-.41-1s.76-.37,1.2-.25a1.58,1.58,0,0,1,.36.14.86.86,0,0,1,.31.26,8.32,8.32,0,0,0,2.4,2.84c.54.57.17,1.17.07,1.76s-.27,1.34.1,1.94a1.52,1.52,0,0,0,1.72.86,3.26,3.26,0,0,1,.94,0c.72,0,1.46-.36,2.17.07.18.37-.13.45-.34.59-1,.13-2,.24-3,.31a5,5,0,0,0-1.22.19c-1.2.4-1.74.48-1.14,1.88a1.9,1.9,0,0,1,0,1.13A8.58,8.58,0,0,0,87.84,67a.84.84,0,0,1-.46,1,5.84,5.84,0,0,1-.82.22,3.51,3.51,0,0,0-.63.19A5.24,5.24,0,0,0,84.4,70a2.71,2.71,0,0,1-1.14.93c-.49.15-1,.4-1.43-.07s-.2-1.06.07-1.51a7.13,7.13,0,0,0,.81-3.87c0-.82-.58-1.38-.83-2.1-.16-.46-.41-.85.09-1.27.34-.29.07-.64-.14-.83-1.25-1.13-2-2.69-3.52-3.61a1.78,1.78,0,0,0-1.5-.34c-.86.22-1.33-.12-1.68-1a2,2,0,0,0-1.62-.95c-1.73.39-3.4.43-4.86-.82a.4.4,0,0,0-.37,0c-.47.12-.8.52-1.24.7-.81.1-.44-.33-.31-.67A6.65,6.65,0,0,1,70,51.2c-1.57.85-3.26,1.51-4.47,2.86a21.89,21.89,0,0,0-2.77,3.46A11.07,11.07,0,0,0,61,62.1a1.86,1.86,0,0,0,.34,1.44c.23.28.5.63.06,1,0,0,.06,0,.1,0a3.27,3.27,0,0,1,1.75,1.68c.21.37.4.77.65,1.14a6.52,6.52,0,0,0,2.49,3.07,3.29,3.29,0,0,0,1,.5,26.19,26.19,0,0,0,4.47,1c.53.2.8.07,1.11-.48.49-.87,1.4-1.43,2-2.29.25-.39.87-.32,1.34-.12a.87.87,0,0,1,.53.93c0,.69.12,1.47-.32,2s-.06.95.35,1c.82.2,1.51.84,2.48.61.69-.16.85.16.72.9s-.72.88-.81,1.47a3.91,3.91,0,0,1-2,1.43A5.28,5.28,0,0,0,75.15,79Z"/><path class="cls-2" d="M78.54,17.12c.37.49.88.46,1.44.53a9.13,9.13,0,0,1,3.47.85,25.16,25.16,0,0,0,2.75,1.07c1.6.66,3.74,3.69,2.5,5.93a.88.88,0,0,0,.44,1.35c.32.13.52.48.9.51a10.72,10.72,0,0,1,3.7,2.5c.12.11.21.24.36.38.19-.27,0-.78.48-.84,0,.44,0,.88,0,1.31s0,.69.51.47A6.39,6.39,0,0,0,96.4,32c.91,1.23,1.49,2.73,3,3.44.27.13.26.41.4.61.31.43.51,1,1.31.8.52-.13.9.17.87.82a1.09,1.09,0,0,0,.71,1.11,14.58,14.58,0,0,0,3,2.9c.36.24.08.7-.16,1a3.67,3.67,0,0,1-1.72,1.15,5.66,5.66,0,0,0-3.32,3.2,23.92,23.92,0,0,0-1.38,3.55.86.86,0,0,1-.26.34,2.23,2.23,0,0,1-1-1.68c-.11-1.46-.65-2.89-.66-4.3,0-1.86-1.22-3.15-1.65-4.77-.12-.47-.59-.82-.9-1.22a2.3,2.3,0,0,1-.23-2.88c.38-.61.17-.92-.37-1.22a7.14,7.14,0,0,1-2.67-1.77,2.64,2.64,0,0,0-1.57-2,10.13,10.13,0,0,1-1.63-1A1.26,1.26,0,0,0,87,29.89a2.48,2.48,0,0,1-1,0c-.46-.11-1-.24-1.14-.74s.38-.6.62-.87a1.57,1.57,0,0,0,.53-1,17.2,17.2,0,0,0-3.4,1.42,4.63,4.63,0,0,1-3.32.89c-.71-.08-1.42.59-2.1,0-.93-.82-2.06-.36-3.09-.51-.16,0-.34,0-.37.18s0,.4.12.53.3.06.45,0a.91.91,0,0,0,.16-.11c.29-.27.56-.73,1-.32A1.37,1.37,0,0,1,75.75,31a7.59,7.59,0,0,1-.66,1c-.55.93-1.59,1.64-1.28,3,.08.35-.25.7-.53,1A7.05,7.05,0,0,0,72,37.73a8.67,8.67,0,0,1-.79,1.3,3.46,3.46,0,0,1-3.52,1.18c-.9-.14-1.72-.2-1.92,1,0,.21-.27.35-.43.51a7.78,7.78,0,0,1-4.76,1.58,4.59,4.59,0,0,1-2.5-1.25c-.51-.36.12-.53.29-.77a4.94,4.94,0,0,1,1-.53c.85-.35,1-.87.39-1.59-.23-.29-.63-.45-.65-.89.05-.22.22-.28.42-.28s.46.1.69.15a2.19,2.19,0,0,0,2.1-.43,1.6,1.6,0,0,1,1.11-.41c.22,0,.43.11.65.15.48.09,1,.16,1.06.76s-.55.66-1,.77a2.1,2.1,0,0,0,1.46-.45.48.48,0,0,1,.35-.13,4.48,4.48,0,0,0,3-.91c.34-.2.58-.31.57-.73a3.32,3.32,0,0,1,.32-1.48c.31-.63-.16-1.17-.23-1.75a.73.73,0,0,0-.46-.45c-.67-.26-.39-.94-.49-1.36s.56,0,.83-.21a.72.72,0,0,1,.81.63c0,.25.09.59.4.56s.3-.42.35-.68c.09-.41,0-.73-.46-.89s-.48-.58-.29-.93a2.44,2.44,0,0,0,.3-2.25.59.59,0,0,1,.3-.73c.22-.05.36.08.54.21a2.2,2.2,0,0,1-.4-2.32c.34-1.54.71-3.08,1-4.63.82-.7.82-1.41,0-2.3a2.73,2.73,0,0,1-.64-1.56,6.78,6.78,0,0,0-1.13-3.19c-.51-.73-.29-1.17.58-1.32a2,2,0,0,1,1.4.15,9.14,9.14,0,0,1,1.17,2.79A5.94,5.94,0,0,0,74,16.19a1.35,1.35,0,0,0,1.81.73A3.61,3.61,0,0,1,78.54,17.12Z"/><path class="cls-3" d="M21.56,29.84a.92.92,0,0,1-.14-.9c.36-2.25,1.55-4.53,4-5a3.89,3.89,0,0,1,2.33.24c.37.16.52.24.65-.35a22.79,22.79,0,0,1,1.23-4.56,1.1,1.1,0,0,1,1.68-.63c.14.08.23.22.36.31,1,.79,1.41.83,2.4,0A3.73,3.73,0,0,1,37,18c.28,0,.31.08.39.34a.54.54,0,0,0,.84.31c.41-.22.32-.43,0-.72s0-.69.1-1c.32-.86.47-1.88,1.58-2.17a.54.54,0,0,1,0,.7,3,3,0,0,0,.37,3.89c1.14-1.11,1.44-2.66,1.83-4.17,0-.18.09-.36.15-.54.14-.39.62-.84,0-1.15a1.24,1.24,0,0,0-1.63.33c-.2.24-.28.68-.76.57-.25-.91.25-1.2,1-1.54a13.45,13.45,0,0,1,3.2-.82,1,1,0,0,0,.66-.5,5.27,5.27,0,0,1,2.35-1.73c2-.93,3.74-.06,5.56.36a27.64,27.64,0,0,1,4.54,1.21c.6.28,1.25.51,1.36,1.3C59,14,59,14,60.2,13.78c.81-.16.92.3,1,.93a2,2,0,0,1,1.31-.43c.36.07.57.46.74.81a1,1,0,0,1-.68.81c-1.16,0-.25.75-.41,1.11a1.89,1.89,0,0,0,1.18,2.23.48.48,0,0,1,.28.36c-.24.91.63,1.24,1,1.73a4.65,4.65,0,0,0,2,1.55c.54.19.2.74.37,1.09a2.17,2.17,0,0,0,.3.85.64.64,0,0,1,0,.41c-.33.48-.65.12-1,0a1.62,1.62,0,0,1-.76-.77A2.61,2.61,0,0,0,64.25,23a3.94,3.94,0,0,0-1.38-1.15c-.78-.36-1.56-.68-1.83-1.65-.14-.49-.71-.4-1.09-.28a3.11,3.11,0,0,1-2-.1,2.8,2.8,0,0,0-2.63.33,4.39,4.39,0,0,1-2.39.55c-1,0-1,0-.67.94.19.61.1,1.28.67,1.8.35.31.64.63,1.12.61,1.24,0,1.35,1.21,2,1.8.23.2-.14.4-.4.46-1.34.3-1.43.44-1.23,1.88a1.38,1.38,0,0,1,0,.54c-.24.39-.64.72-.46,1.26,0,.31-.18.54-.55.51a3.27,3.27,0,0,1-.28-2.54c.06-.55,0-.75-.64-.65s-1.22,0-1.6.6c-1.19.11-1.65-.16-1.94-1.16-.08-.26,0-.64-.38-.68s-.5.33-.78.67c.48-.08.87-.08,1.08.34a1.17,1.17,0,0,1-.1,1.15,7.68,7.68,0,0,0-1.06,3.31.85.85,0,0,1-.67.92c-.67.14-1-.26-1.2-.82a.58.58,0,0,1,0-.26,2.06,2.06,0,0,0-.07-1.84.73.73,0,0,1-.08-.25c.24-.64-.16-1.07-.5-1.51a2.58,2.58,0,0,1,1.07-2.07,1.2,1.2,0,0,0,1.22-1,1.57,1.57,0,0,1,1.15-1A1,1,0,0,1,50,24.76c0,.45-.06.89-.09,1.33s.24.81.75.51,1.14-.09,1.42-.39-.42-.84-.35-1.36c.13-.91-.74-1.34-1-2.07-.15-.36-.95,0-1.31.27-.62.53-1,.39-1.33-.28,0-.32.2-.52.38-.73a4.31,4.31,0,0,0,1.1-1.77A1.81,1.81,0,0,0,49,18.35c-.48-.57-1-.42-1.55-.19a1.52,1.52,0,0,1-1.2,0c-2.54-1.1-4.41-.14-5,2.55a9.24,9.24,0,0,1-1.06,2.51c-.34.45-.19,1-.29,1.56-.75.51-.83.3-1.26-.35-.77-1.19-.28-2.27-.14-3.42a1.62,1.62,0,0,0-.89-1.48,1.22,1.22,0,0,0-1.51-.09,5.1,5.1,0,0,1-3.05.92,6.92,6.92,0,0,0-2.52.82c-.52.2-.49.75-.06,1.28.26.31,1,.34.75.94-.14.41-.67.45-1,.66a.54.54,0,0,0-.25.28c.64.12,1.18.37,1.79-.24a2.09,2.09,0,0,1,2.43,0c.21.25.44.55.14.84C33.24,26,32.16,27,30.53,27.11a.87.87,0,0,1-.26-.08c-.9-.65-2.05-.27-3-.74-.13-.06-.3.05-.43.15a1.83,1.83,0,0,1-2.29,0c-.49-.31-.82-.1-.88.42a1.29,1.29,0,0,1-1.32,1.31c-.34,0-.3.27-.39.45-.16.35-.08.77-.28,1.11Z"/><path class="cls-4" d="M16.93,41l.56.39c.14.3-.09.55-.11.83s.06.55.42.38c.76-.37,1.18.13,1.47.64s.75.67,1.24.34c.67-.44,1.37-.17,2-.16.4,0,.64.49.64.84,0,1,.58.64,1,.46a2.24,2.24,0,0,1,1.06-.33c.93.06,1.44-.5,1.19-1.4a.79.79,0,0,1,.27-1,1,1,0,0,0,.4-.74c0-.44.29-.65.66-.84a2,2,0,0,0,.41-3c-.21-.2-.33-.1-.48,0a2.29,2.29,0,0,1-2.18.22c-.22-.06-.46-.12-.47-.4s.25-.41.5-.5a1.17,1.17,0,0,1,.37,0c.26,0,.55.05.63-.27s-.15-.6-.46-.74a3.21,3.21,0,0,1-1-.67.39.39,0,0,1-.06-.52c.37-.25.74,0,1.11,0a6.12,6.12,0,0,0,2.71-.37,4.37,4.37,0,0,1-3.14.14,1.75,1.75,0,0,1-.84-.62,1,1,0,0,1,.06-1.17.77.77,0,0,1,1-.22c1.17.46,1.76.17,2.31-1.06a.59.59,0,0,1,.31-.27.51.51,0,0,1,.27,0,.53.53,0,0,1,.13.38,1.69,1.69,0,0,0,.4,1.43,3.8,3.8,0,0,0,2,1.08c.78,0,1.07.91,1.9.75a3.67,3.67,0,0,0-.89-1.7c-.45-.67-1.19-1.21-.8-2.18.05-.13-.06-.24-.14-.34s-.81-.45-.33-.87a.9.9,0,0,1,1.3.09,10.57,10.57,0,0,1,1.86,2.15c.48.9.82,1.87,1.37,2.73.18.37.32.79.89.6a.36.36,0,0,1,.44.1c.46.82,1.24.56,1.87.46A3.31,3.31,0,0,1,42,36.85a1,1,0,0,0,.74.36,5.13,5.13,0,0,1,1.66.69,17.83,17.83,0,0,1,2,.8c.27.16.61.24.68.61a4.58,4.58,0,0,1-3.47,0c-.11-.63-.44-1-1.12-.73a2.11,2.11,0,0,1-1.29-.09c-.94-.31-1.27-.16-1.64.72-.19.48-.56.84-.75,1.33.23-.42.46-.81.94-.27.21.24.56,0,.79.25.12.41-.15.6-.45.72s-.81.5-1.24.71a1,1,0,0,0-.46.3c-.31.45-.61.34-.88,0a2.27,2.27,0,0,0-.8-.77,16.88,16.88,0,0,0-1.9,1.69.76.76,0,0,0-.23.7,1.68,1.68,0,0,1-.58,1.54.89.89,0,0,0-.23,1.13c.66,1.18.3,2.51.65,3.73,0,.11-.47.71.28.42.14-.06.22.27.27.44s.27.48.1.76-.56,0-.84,0a3.41,3.41,0,0,0-3,1.07,6.25,6.25,0,0,1-2.07,1.48c-.71.28-.58,1.2-1.18,1.55-.58-.42-.55-1.08-.67-1.68a1.58,1.58,0,0,0-1-1.7,8.13,8.13,0,0,0-5.36-.52c-1.33.26-1.42,1.37-1.72,2.35-.1.32,0,.7-.24,1-.26.14-.41-.05-.56-.21a3.26,3.26,0,0,1-.11-3.56,10.62,10.62,0,0,0,1-1.13,1.64,1.64,0,0,1,1.13-1c-1.21-.53-1.29-1.9-2.46-2.26-.41-.13-.23-.6-.09-.92s.53-.85.72-1.37c-.6-.15-1.19.84-1.61-.12.22-.72-.53-1-.69-1.57.25-.32.13-.73.27-1.08S16.58,41.31,16.93,41Z"/><path class="cls-5" d="M91.4,33a9.25,9.25,0,0,0,2.8,1.67.9.9,0,0,1,.35,1.51,1.93,1.93,0,0,0,.06,2.47,10.93,10.93,0,0,1,1.86,3.31c1.13,2.33,1.24,4.88,1.51,7.38.07.67.82.89.78,1.55.26.36-.29.83.17,1.15-.47.4-.09,1.2-.72,1.53-.28.14-.46.72-.83.38s.5-.33.33-.71c-1.19.66-1.19.66-1.7,1.7a4.54,4.54,0,0,0,3.25-1.73.76.76,0,0,1,0,1.31c-.43.3-.1.54-.18.78a14.31,14.31,0,0,1-2.46.85c-.63.13-1.09.7-1.78.7-.24,0-.63.06-.72-.1-.2-.39-.42,0-.6-.08a5.18,5.18,0,0,0-2.89-.21c-.22,0-.44.08-.66.1s-.68.09-.81-.31.29-.48.55-.62A6.52,6.52,0,0,1,92,54.93c1.13-.12,2.1-.87,2.86-.79a6.1,6.1,0,0,1-2.93-.57,11.49,11.49,0,0,0-4.23-1c-.71,0-1-.88-1.62-1.24a3.23,3.23,0,0,0-1.23-.43,3.21,3.21,0,0,1-2.49-1.14c-.33.36,0,.65-.18.91-.28.34-.56.57-.85,0a1.41,1.41,0,0,0-.45-.49,3.2,3.2,0,0,1-1.05-3.68c.2-.44,0-.63-.18-1-.86-1.43-2.41-2.26-3.18-3.77-.38-.75-.37-1,.43-1.25s.39-.77.29-1.07a2.16,2.16,0,0,1,0-1.92c.17-.29,0-.69,0-1a5.7,5.7,0,0,1,.07-1.43c.11-.74.47-1,1.2-.77a2.21,2.21,0,0,0,2.75-2c0-.74.78-.89.9-1.48.3-.5,1-.73,1-1.44a.26.26,0,0,1,.36-.21c.62.36,1.36.41,2,.79.1.06.09.22.07.35a.47.47,0,0,1-.73.24,27.83,27.83,0,0,1,3.13,1.4c.79.36.88,1.13,1,1.82a3.16,3.16,0,0,0,2.73,2.55c.56.11,1-.2,1.61-.26-.72-.72-1.64-.56-2.39-.84-1.36-.5-1.52-.6-1.35-2a1.22,1.22,0,0,0-.27-1,.65.65,0,0,1-.15-.86c1-.4,1.3.6,1.85,1.06C91.14,32.53,91.15,32.85,91.4,33Z"/><path class="cls-6" d="M29.09,54.28a25,25,0,0,0,2.12-1.64,3.68,3.68,0,0,1,3.93-.84,13.6,13.6,0,0,1,2.52,1,28.59,28.59,0,0,1,5.13,2.34c.55.44,1.07.84,1.86.54.54-.21.89.16,1.11.62A2.72,2.72,0,0,1,46,57.38,2.42,2.42,0,0,0,46,58c.12.88.46,1.71.64,2.59a2.13,2.13,0,0,0,1,1.23c.26.18.58.28.73.59-.28.6.18,1.14.13,1.72-.52,0-1-.29-1.56-.13-.41.11-.77-.28-1.07-.56a54.63,54.63,0,0,1-4.33-4.41,1.12,1.12,0,0,1-.29-.49C41,57,39.69,56.36,38.4,55.77a4.92,4.92,0,0,1-1.35-.69,7,7,0,0,0-3.68-1.17c-.21,0-.63-.11-.49.32.3,1-.39,1.05-1,1.26-.25.09-.6,0-.72.34.88,1.24.27,2.48-.18,3.59s.16,2,.23,3.06c0,.12.16.17.27.24,1.24.72,1.26.78.55,1.92-.25.56,0,1,.37,1.37a1.17,1.17,0,0,1,.24,1.54c-.58.68-1,1.4-.53,2.27a3.68,3.68,0,0,1,.61-1.59c.33-.28.65-.72,1.13-.37s.2.85.06,1.3a2.92,2.92,0,0,0-.41,1.16c1-.4,1.93,0,2.86-.3.25-.19.47-.44.83-.41A3.2,3.2,0,0,1,38.07,71c.16.67.45.63.93.43s1-.47,1.45.08c.42.86,1.23,1.52,1.34,2.54-.08.55-.37.6-.8.36s-.57-.61-.92-.74c-.68,1.26-2.12,1.62-3,2.62a2.86,2.86,0,0,0,1.74,2.94c.29.13.62.21.89.35a1.51,1.51,0,0,0,1.8-.34c.64-.11.87-.63,1.12-1.13.14-.25.14-.55.26-.81a1.54,1.54,0,0,1,1.89-1c.63.06,1.21.34,1.86.36.34,0,.54.3.61.64A5.51,5.51,0,0,1,45,81.16c-.51.35-1,.67-1.56,1-.54-.33-.9,0-1.25.34a5.89,5.89,0,0,1-2.25,1.16,1.12,1.12,0,0,1-.93,0c-.18-.09-.5,0-.51-.34s.21-.3.39-.38c.46-.21.53-.78,1.2-1-1.1-.32-1.75-1.32-2.92-.81-.29.13-.32-.35-.51-.46-.45-.27-1.07-.84-1.4-.52-.49.5.28.9.61,1.15.63.46.78,1.3,1.54,1.74-.87-.2-.61.59-.92.86-.6-1.63-1.93-2.78-2.86-4.19A1.89,1.89,0,0,0,32.8,79a5.75,5.75,0,0,1-3.2-2.81c-.33-.58-.91-1-1.06-1.65.76-.15.16-.64.24-1a.34.34,0,0,1,.43.11c1.2,2,3.41,2.51,5.31,3.61A6.13,6.13,0,0,0,32.62,76c-.68-.33-1.36-.67-2-1.06A3.23,3.23,0,0,1,29,72.67a26.69,26.69,0,0,1-.91-3.78,6.36,6.36,0,0,0-.92-2.79,6.37,6.37,0,0,1-.86-2.8,6.91,6.91,0,0,1,.3-2.07c.22-.89,1.08-.65,1.59-1l.08,0c1.71-.93,1.8-1.26.77-2.81A18.64,18.64,0,0,0,29.09,54.28Z"/><path class="cls-7" d="M83.3,70.8a10.18,10.18,0,0,0,1.8-2c.22-.26.38-.59.8-.56a2.58,2.58,0,0,1,.62.09c.08,0,.14,0,.12,0s-.12-.13-.17-.21c.22-.25.51-.16.77-.17.54.23,1-.11,1.57-.1s.74-.28,1.15-.23c.24.06.2.45.56.42,1.72-.19,3.46.32,5.18-.15-.07.34,0,.51.41.58a6.6,6.6,0,0,1,3.65,1.85,2.29,2.29,0,0,0,1.12.69,1.36,1.36,0,0,1,1,.9,4.22,4.22,0,0,1,.84,3,50.86,50.86,0,0,0,.84,9.37,11.12,11.12,0,0,1,.23,3.31c0,.18,0,.42-.19.48a.37.37,0,0,1-.32-.14c-1.77-2-4.18-3.2-5.88-5.26a13.56,13.56,0,0,0-2.31-2.36,7.55,7.55,0,0,1-2.36-3.31c-1.31-3.22-4-4.85-7-6.16-.63-.28-1,.07-1.25.64.13.88-.7.87-1.06.84a1.14,1.14,0,0,0-1.39.91c-.13.19-.24.43-.55.33a1.8,1.8,0,0,1,1.35-2.39A1.18,1.18,0,0,0,83.3,70.8Z"/><path class="cls-8" d="M100.27,46.88a4.38,4.38,0,0,0,.37-.67,4.19,4.19,0,0,1,2.44-2.32,6.44,6.44,0,0,0,2.23-1.37c.42-.44.41-.77-.14-1a5,5,0,0,1-2.49-2.73,17.49,17.49,0,0,1,.78-4.66c.61-2.08,3.23-4.21,5.67-3.91a11.44,11.44,0,0,1,1.53,1.42c.17.23.38.5.08.75s-.49,0-.67-.17a5.85,5.85,0,0,0-1.38-.82,1,1,0,0,0-1.56.49c1.23-.47,2.22.18,3.24.65.22.11.36.29.67.23.84-.18,1,.31.84,1a13,13,0,0,1-3,7.93c-.42.47-.35.77,0,1.19a2.57,2.57,0,0,0,1.77.81c1.62.05,3.24.66,4.93.07a12.47,12.47,0,0,1-6.34,4.67,8.25,8.25,0,0,1-7-.68C101.69,47.34,100.8,47.56,100.27,46.88Z"/><path class="cls-9" d="M51.09,81.54a2.45,2.45,0,0,0,.53.49h.07a4.14,4.14,0,0,0,2.51-.65c.64-.48.93-1.25,1.54-1.76a3.41,3.41,0,0,1,1.34-.68,2.43,2.43,0,0,1,.34-1.37.51.51,0,0,0,0-.62,3.18,3.18,0,0,0-.77-.36c-.29-.15-.56-.08-.51.26.06.51-.24.57-.58.78a1.35,1.35,0,0,0-.75,1c-.07.66-.67.78-1.19.29-.16-.15-.31-.32-.57-.21-.47.59-1.18.51-1.82.65s-1,.53-.48,1.19C51.37,80.71,50.74,81.29,51.09,81.54Z"/><path class="cls-10" d="M25,34.57a1.79,1.79,0,0,0,1.31,1c.6.19.59.61.52,1.06s-.41.57-.85.38-.59,0-.89.37c1,.18,2,.69,2.74-.39.14-.2.35-.23.48.1a8.43,8.43,0,0,1,.6,1.84A1.34,1.34,0,0,1,28,40.6c-.44.14-.75.26-.62.83a.75.75,0,0,1-.26.59c-.34.3-1,.32-.25,1,.48.48-.74,1.81-1.5,1.62-.37-.1-.64-.17-.92.19-.51.64-1.1.13-1.66.05-.12,0-.21-.18-.12-.38.28-.56,0-.61-.57-.84-.82-.32-1.37.09-2,.34-.39.15-.65.15-.84-.28-.31-.7-.65-1.33-1.61-.86-.27.14-.51.13-.53-.38a1.67,1.67,0,0,1,.37-1.13,2,2,0,0,0,1.77-1.32c.08-.33.1-.67.15-1-.34-.07-.41.13-.49.36s.06.31-.13.26-.16-.25-.24-.37c-.27-.71.11-1.15.64-1.52.49,0,.48,1.08,1.35.52a1.3,1.3,0,0,0,.73-1.06,2.93,2.93,0,0,0-.33-1.71,1.65,1.65,0,0,1,.48-1.69,1.72,1.72,0,0,0,1.76-.9A3.78,3.78,0,0,1,25,34.57Z"/><path class="cls-11" d="M78.54,17.12c-.75.21-1.49-.29-2.25-.06-.12,0-.25,0-.38,0-.45.08-.89.61-1.32.24a3.71,3.71,0,0,1-1.28-1.85,26.33,26.33,0,0,0-1.12-3.12c-.28-.44-1-.83-.14-1.38a18.7,18.7,0,0,1,2-6.23,3.09,3.09,0,0,0,2.09-.67c.14,1.66.66,3.25.74,4.94a18.15,18.15,0,0,1-.72,4.36c-.05.3-.22.64-.15.91s.23-.07.36-.08c.46-.4,1-.6,1.5-1,.82-.59,1.87-.83,2.52-1.7.06-.09.23-.07.34,0,.63.15,1.24-.27,1.86-.06a1.85,1.85,0,0,0,1.32,1.34c.66.16.46.59.06.87s-.43.39-.09.64c.19.13.33.68.68.12.15-.24.39-.18.56,0a.69.69,0,0,1,0,1.08c-.68.38-1.43.07-2.14.19A13.72,13.72,0,0,0,78.54,17.12Z"/><path class="cls-1" d="M68.89,76.47c-.48-.35-1,0-1.44,0a5.46,5.46,0,0,1-4.26-1L62.26,75c-.25-.07-.58-.32-.75,0s.16.53.4.67c.89.53,1.57,1.33,2.58,1.82-.84.68-1.54,1.27-2.69,1a6.68,6.68,0,0,0-1.94-.44c-.19,0-.56.2-.58-.22s.22-.49.56-.49.73.12.8-.28a1,1,0,0,0-.49-1s-.37.15-.17-.21c.44-.79-.15-1.13-.74-1.43-.71.06-1.41-.43-2.14-.08,0,.59.45.6.81.73s.66,0,.74.47c0,1.39-.14,1.49-1.11,1.27l-.13,0c0,.27-.22.44-.3.65-.19.47-.67.93-.48,1.47A4.14,4.14,0,0,1,59.28,79a4.25,4.25,0,0,1,1.28.54,2.63,2.63,0,0,1,1.52.4,2.66,2.66,0,0,1,.8,0,7.37,7.37,0,0,0,4.26-.66,2.61,2.61,0,0,1,2.24-.09c0-.2.05-.4.07-.6C69.3,77.85,69.62,77,68.89,76.47Z"/><path class="cls-12" d="M29.5,84.72a3.73,3.73,0,0,1-2.85,3.54c-1.29.39-2.62.67-3.92,1-1,.28-2,.6-3,.93-.47.16-.73.11-.73-.47,0-1.37,0-2.73-.08-4.09a4.46,4.46,0,0,1,2.17-3.81,10.14,10.14,0,0,1,3.2-1.47,3.48,3.48,0,0,1,2.32.08c-.52.8-.44,1.21.41,1.8a10,10,0,0,0,2.43,1.52C29.61,84.09,29.31,84.42,29.5,84.72Z"/><path class="cls-13" d="M33.9,12.65C33.83,16.1,31.67,17.33,29,18a3.09,3.09,0,0,1-2.82-1.79c-.34-1-.93-2-1.17-3.07a2.68,2.68,0,0,1,.2-1.85,33.75,33.75,0,0,0,2.06-4.07c.12-.36.39-.35.7-.26a9,9,0,0,1,5.29,3.48A2.69,2.69,0,0,1,33.9,12.65Z"/><path class="cls-14" d="M81.87,73c.14-.91.57-1.19,1.43-1.06a.93.93,0,0,0,1.15-.62,15.19,15.19,0,0,1,4.24,8.29c-.13.4-.29.78-.38,1.18-.15.59-.78.45-1.16.69s-.36-.32-.44-.58-.37-.44-.66-.23a3.92,3.92,0,0,1-1.51.58.72.72,0,0,0-.48.29c-1,1.6-2.66,1.81-4.29,2.1-.15,0-.32,0-.46.06-.76.46-.8.05-.7-.56,0-.19.08-.47-.12-.52-.93-.23-.71-1.18-1.11-1.75s.62-1.84,1.35-2.2a3.09,3.09,0,0,0,.79-.34c.2-.18.46-.2.29-.74a2,2,0,0,1,.82-1.82c.67-.57,1.14-1.44,2.15-1.57.2,0,.37-.25.5-.44s.22-.33.1-.52-.27-.13-.43-.12C82.58,73.16,82.19,73.4,81.87,73Z"/><path class="cls-15" d="M102.73,74.79l-.84-3,.16-.14a.37.37,0,0,1,.38,0,32.45,32.45,0,0,1,3.19.82c.78.29,1.29-.5,1.89-.86a34.89,34.89,0,0,0,3.85-3.11,5.58,5.58,0,0,0,2,1.55c1.66,1.12,3.18,2.54,5.3,2.83.38.05.92.2.9.7s-.48.59-.86.77a19.68,19.68,0,0,1-7.93,1.62A19.65,19.65,0,0,1,102.73,74.79Z"/><path class="cls-16" d="M95.7,67.82a4.64,4.64,0,0,1-1.74.43c-1.12.24-2.12-.33-3.21-.14-.31.06-.4.39-.73.36,0-.28.14-.61-.09-.88-.21-.1.36-.29,0-.34a1,1,0,0,0-1.12.68c-.5-.32-1.06,1.16-1.55-.05.21-.18.51-.32.39-.68A5.79,5.79,0,0,1,87.79,64a2.47,2.47,0,0,0-.14-1.83c-.38-.7,0-1,.6-1.25a16.41,16.41,0,0,1,5.2-.7,2.15,2.15,0,0,1,.74-.17c.36,0,.9-.11,1,.33s-.37.83-.81.88a.76.76,0,0,0-.65.38c-.06.09-.22.11-.32.19.15,0,.24-.14.39-.13.31,0,.33.24.3.48a3.36,3.36,0,0,1-.32.79c-.2.56.35,1,.58.81.78-.5,1,.18,1.45.48l1.2.89c-.09,1.29-.83,1.84-2.24,1.71a2.7,2.7,0,0,0,1.53.66C96.14,67.77,95.91,67.77,95.7,67.82Z"/><path class="cls-17" d="M72.05,11c-.42.51.13.92.14,1.38H72c-.62,0-1.43-.27-1.72.39-.13.3.41,1,.75,1.38.59.72.31,1.66.73,2.4.31.55-.09,1.44.87,1.68a5.84,5.84,0,0,1,.4,2.12c-.1.54-.67-.24-.74.29-.61-.21-.55-.81-.68-1.26A3.87,3.87,0,0,0,69,16.49c-1-.29-1.76-.88-2.69-1.21a4.38,4.38,0,0,0-3.22-.19c-.88-1.1-1.62-.36-2.31.3-.24-.4.17-.52.12-.69s.19-1.1-.67-.64c-.15.08-.41,0-.54,0-.64.43-.89.19-1-.49,0-.28-.42-.49-.29-.85.44-.27.84,0,1.25.11a2.07,2.07,0,0,0,1.83-.15A7.74,7.74,0,0,1,64.22,12c.77-.06,1-.61.6-1.23s-.21-.9.29-1.2c.85-.52,1.69-.89,2.61-.1.58.49,1.29.05,1.93.12C70.45,10,71.07,10.79,72.05,11Z"/><path class="cls-18" d="M102.24,71.89l-.19-.19a5.38,5.38,0,0,0-1.53-2.15A2.67,2.67,0,0,1,100,66a9.64,9.64,0,0,1,3-3.51c.89.45,1.16.86.84,1.6-.12.28.07.25.13.31a1,1,0,0,1,.3.92c-.07.55.38.8.88.69a2,2,0,0,1,2.38.89,3.92,3.92,0,0,0,1.9,1.63,1.63,1.63,0,0,1,.76.55c.13.2.23.55,0,.58-.69.11-1,.89-1.72.9-.57,0-.77.6-1.22.85A7,7,0,0,1,102.24,71.89Z"/><path class="cls-19" d="M102.24,71.89a8,8,0,0,0,4.76-.66,4,4,0,0,0,.63-.45,10.9,10.9,0,0,1,2-1.1c.17-.09.5.08.52-.25a.53.53,0,0,0-.41-.48c-.77-.13-1.23-.75-1.87-1.08a.77.77,0,0,1-.43-.56c-.18-.91-1.11-.93-1.67-1.39,0,0-.18,0-.25.07-.68.52-1.93.06-1.64-.53.5-1-.69-1-.63-1.59.22-.3.42.37.61,0s-.1-.46-.26-.65l-.59-.74c1.58-2.29,6-2.27,7.49.74a8.75,8.75,0,0,1,.91,5.33,8.87,8.87,0,0,1-3.1,2.8c-.59.3-1,.9-1.57,1.25-.42.24-.94.41-1.25.22a6.52,6.52,0,0,0-2.6-.74C102.62,72.08,102.39,72.11,102.24,71.89Z"/><path class="cls-20" d="M19.19,37.8c-.21.51-.43,1-.64,1.52-.26,0-.13.84-.6.37-1.32-1.34-3-2.23-4.23-3.72a17.55,17.55,0,0,1-3.58-8.1,13.44,13.44,0,0,0-.42-1.66,1.94,1.94,0,0,1,.16-1.59C14,28.35,16.72,33,19.19,37.8Z"/><path class="cls-21" d="M9.69,50.63c-.07,1.61-1.36,2.65-3.26,2.83a4.13,4.13,0,0,1-4.15-1.71A10.43,10.43,0,0,0,.43,50.11c-.59-.51-.6-1,.13-1.19a8.6,8.6,0,0,0,3.33-2.3c1.24-1.2,3.19-.51,4.2.27A4,4,0,0,1,9.69,50.63Z"/><path class="cls-22" d="M23.85,66.75l1.14,0c.55,0,1.14-.08,1.58.4.15,1.12-.28,2.23,0,3.37.1.43-.32.74-.72.88s-.78.21-1.17.33C21,73.31,16.86,73.89,14,77.08a18.55,18.55,0,0,1,3-6,32.83,32.83,0,0,1,3.21-2.66,1.09,1.09,0,0,1,.84-.34.58.58,0,0,0,.67-.41c.18-.66.57-.83,1.22-.81A1.87,1.87,0,0,0,23.85,66.75Z"/><path class="cls-23" d="M29.5,84.72c-.27-.27-.1-.61-.16-.92-.1-.63-.08-1.29-.85-1.6-.22-.09-.23-.54-.14-.79a4.84,4.84,0,0,0,0-2.11c.11-.15.3-.31.29-.45s-.26-.13-.41-.11a14.77,14.77,0,0,1-4.62-.67A3.62,3.62,0,0,0,21.93,78a1.93,1.93,0,0,1-1.37-1c.89-.47,1.49-1.44,2.75-1.34.42,0,1-.5,1.55-.38.19-.78,1.08-.25,1.41-.76l2.27.06A3.44,3.44,0,0,1,29.74,76,5.33,5.33,0,0,0,33,78.82a1.26,1.26,0,0,1,.73.72c0,.22-.13.26-.27.32s-.55.17-.65.38c-.53,1.1-1.64,1.9-1.7,3.24,0,.3-.29.4-.44.7a1.14,1.14,0,0,1,1.08.86c.14.46-.31.7-.58,1A.38.38,0,0,1,30.8,86c-.92-.46-.62-1.45-.94-2.18A1.87,1.87,0,0,0,29.5,84.72Z"/><path class="cls-24" d="M41,11.12C41,9.93,40.12,9.46,39.39,9a2.58,2.58,0,0,1-.85-3.85c.9-1.44,1.3-3.08,2.06-4.57.33-.66.69-.73,1.15-.38A5.85,5.85,0,0,1,43.5,1.93a3.29,3.29,0,0,0,.61.73,3.18,3.18,0,0,1,.61,4.18C44.08,8.13,43.34,9,41.79,9c-.6,0-.75.61-.66,1.16C41.19,10.46,41.33,10.78,41,11.12Z"/><path class="cls-25" d="M17,44.82c.32.3.62.36.94,0s.56-.43.89-.09-.08.53-.21.77l-.56,1c-.22.39-.23.69.32.7a.78.78,0,0,1,.67.47,5,5,0,0,0,1.76,1.94c-1.36.63-1.92,1.91-2.82,2.86-.24.25.4.69.22,1.13-.32.83.18,1.35.69,1.87.54.68.05,1.5.3,2.23a2.73,2.73,0,0,1,.07.64,32.22,32.22,0,0,1,.29,3.41.36.36,0,0,1-.16.25c-.53-.12-.74-1-1.47-.63-.33-.31-1-.31-.9-1,.26-.14.57-.18.46-.67A11,11,0,0,1,16.89,57c0-.35-.35-.3-.58-.36a1.35,1.35,0,0,0-.21-1.57,4.5,4.5,0,0,1-.79-1.82A2.42,2.42,0,0,0,14.67,52a2.3,2.3,0,0,1-.34-1.68c.42-.75.49-1.69,1.2-2.28,1-.21,1.27-.87,1.24-1.81A6.9,6.9,0,0,1,17,44.82Z"/><path class="cls-26" d="M81.87,73l1.86-.22c0,.69,0,1.35-.7,1.54-1,.28-1.5,1.13-2.28,1.64-.14.09-.84.29-.15.72.27.17,0,.26-.21.31-.37.12-1,.2-.08.54a.54.54,0,0,1,.1.32c-.37.2-.44.78-.9.81-1.08.07-1.37,1-1.91,1.66a.44.44,0,0,0,.06.67c.29.27.57.51.36,1a.27.27,0,0,0,.07.25c.79.79.79.79.68,1.87.27-.76.56-.76,1-.7a5.87,5.87,0,0,0,2.81-.79c.24-.09.38-.54.8-.5.23,0,.37,0,.24-.32s.18-.47.3-.51c.82-.33,1.64-.71,2.47-1s.37.73.61,1.07c.39.06.12-.5.4-.4.73.27.64-.22.74-.66,0-.24.33-.44.51-.66.42,1.38-.34,2.32-1.2,3.22a.66.66,0,0,1-.36-.3c-.82-1.06-1.36-1.12-2.37-.28-.08.06-.11.06,0,.07-.48,1.28-.61,1.4-2,1.86,0,.27.46.58.08.79s-.83.35-1,0-.46-.23-.75-.09c-.78.36-1.64.45-2.44.74-.61.22-.94-.38-1.21-.86a8.32,8.32,0,0,0-1.31-2.15,7.74,7.74,0,0,1-.62-3.18c0-.19.32-.72-.35-.55-.09,0-.33-.09-.21-.18.62-.42,1-1.18,1.78-1.35A5.79,5.79,0,0,0,79.09,76c.84-.82,1.63-1.68,2.4-2.57Z"/><path class="cls-27" d="M80.72,11.49A7.73,7.73,0,0,1,78,13.33c-.79-.48-.4-1.28-.47-1.93A3.53,3.53,0,0,1,77.66,10c-.16-1.66.89-2.86,1.81-4a30.48,30.48,0,0,1,3.71-3.83c.25-.2.47-.51.81-.34a.85.85,0,0,1,.49.86,15.81,15.81,0,0,1-2.35,7.82C81.79,11.09,81.19,11.17,80.72,11.49Z"/><path class="cls-28" d="M51.36,79.59c-.91-.12-.56.54-.6,1-.24.56-.23,1.3-1,1.49,0,0-.05,0-.08,0-2.38.17-2.59,0-1.71-2.19.58-1.44,1.48-2.73,2.07-4.18a11.87,11.87,0,0,0,.82-3.89,2.15,2.15,0,0,0-.59-1.65,6.09,6.09,0,0,1,.09,2.07c-.05.33-.07.74-.6.67-1.41-1.75-1.41-3,0-4.55.27-.3.18-.45-.14-.52a6.41,6.41,0,0,0-2-.28c-.95.06-1.14-.25-.82-1.21,1.06-.27,2.06.19,3.1.24.36,0,.73.17,1.12.19s.67.18.66.63c0,.17-.17.24-.3.33s-.24.16-.15.29.28,0,.43,0c.43.13.43.48.45.84a9.44,9.44,0,0,0,.29,2.54,1.88,1.88,0,0,1,.11,1.47c-.15.86.28,1.23,1.14,1,.46-.15.9-.33,1.33.06.11.5-.33.46-.59.56-.48.19-1,.33-1.23.84-.24.36-.42.75-.63,1.14A5.46,5.46,0,0,0,51.36,79.59Z"/><path class="cls-29" d="M31.21,86c0-.19,0-.39.15-.53s.33-.1.26-.31c0,0-.22,0-.33,0s-.2-.14-.1-.27c.47-.6-.13-.3-.3-.34s-.81,0-.53-.34c.69-.79.51-2,1.28-2.65a1.62,1.62,0,0,0,.56-.88c.19-.75.88-1,1.55-1.12,1,.91,1.48,2.16,2.49,3,.26.22.16.84.23,1.27-.57,1.37-1.12,2.74-1.71,4.1-.44,1-.79,1-1.75.38-.35-.62-1.14-.76-1.52-1.37C31.29,86.64,31,86.38,31.21,86Z"/><path class="cls-30" d="M96.52,56A6.2,6.2,0,0,1,99,55.24a.85.85,0,0,1,.53-.14,8.29,8.29,0,0,1,2.15,2.6A5.07,5.07,0,0,1,97,60.05c-1.07.74-2.08,0-3.12-.13-.76-.19-1.51.15-2.27.06-.13-.9.65-1.25,1.09-1.81a.8.8,0,0,1,.21-.15C94,57.14,95.35,56.74,96.52,56Z"/><path class="cls-31" d="M76.12,82.68c.21-.28.39-.19.48.08.21.67.73,1.17,1,1.84.36,1,.81,1.13,1.71.57a1.13,1.13,0,0,1,.6-.17c.43,0,.91,0,1.25-.45.24-.35.58-.17.81.23s.62-.22,1,.16c-.55-.69-.59-1,.35-1.15.61-.12,1.41-.5,1.22-1.44,0-.24,0-.16.13-.18a2.07,2.07,0,0,0,.44-.15c1.51-.92,1.75-.83,2.44.85a12.71,12.71,0,0,1-4,4.19,8,8,0,0,1-1,.36c-.41-.17-.72.14-1.06.25a1.93,1.93,0,0,1-2.35-.59A4,4,0,0,0,78,86,8.62,8.62,0,0,1,76.12,82.68Z"/><path class="cls-32" d="M24.64,71.76l.84-.4c.66-.29,1-.59.75-1.48a5.17,5.17,0,0,1,.26-2.65c-.35-1.6-.94-3.14-1.15-4.78a1.91,1.91,0,0,0-.74-1.2.65.65,0,0,1-.28-.9.51.51,0,0,1,.45,0c.46.26.76.62,1.42,0a2,2,0,0,1,2.12,0c-.13.08-.27.24-.4.23-1.15,0-1.18.84-1.32,1.65a6,6,0,0,0,.91,4,15.52,15.52,0,0,1,1,3.61c.53,2.11.65,4.63,3.34,5.49a11.88,11.88,0,0,1,3.07,1.81c.2.14.37.33.19.55s-.32,0-.48-.13l-1.95-.93a8,8,0,0,1-3.85-3c-.47-.67-.91-1.36-1.4-2-.24-.31-.59-1-.86,0-.06.25-.33.44-.5.31C25.57,71.58,25.08,72,24.64,71.76Z"/><path class="cls-33" d="M96.4,32c-.71.19-1.1-.16-1.33-.79,1.12-2.62,3-4.79,4.52-7.13a3,3,0,0,1,.93-.95c.28-.17.53-.59.9-.29a1,1,0,0,1,.39,1.1c-.94,2.86-1.8,5.79-4.69,7.44A4.64,4.64,0,0,0,96.4,32Z"/><path class="cls-34" d="M93.83,59.92c1-.13,2.07.42,3.12.13-.18.23-.07.3.17.34q1.48.24,3,.51c.21,0,.48,0,.56.24s-.12.41-.29.55a15.8,15.8,0,0,1-2.25,2.15A2.53,2.53,0,0,0,97,65.18a3.18,3.18,0,0,1-2.06-1.46c-.34-.08,0,.86-.59.43-.41-.28-1.15-.28-.94-1.06.11-.4.54-.68.51-1.18-.11,0-.17,0-.22,0-.23.11-.17.6-.58.47-.09,0-.16-.2-.18-.32-.08-.41.22-.46.52-.49.13,0,.28-.06.23-.22-.38-1.22-.16-.94.52-.27.22.23.61-.35,1-.8l-1.75-.06Z"/><path class="cls-35" d="M69.65,9.55a1.72,1.72,0,0,1-2.31-.11c-.45-.45-2.33,0-2.6.63-.11.23.07.37.24.43.34.11.33.32.37.64.12,1-.74,1.21-1.24,1.14-1.13-.15-1.91.55-2.85.82-.51.14-1,.35-1.51,0a.64.64,0,0,1,.26-.38c1.51-1.3,1.67-2.23.65-3.82a1.07,1.07,0,0,1,.92-.6c2.27-.09,4.55-.54,6.79.27A2,2,0,0,1,69.65,9.55Z"/><path class="cls-36" d="M15.53,48a9,9,0,0,1-1,2.26c-.39.11-.4.37-.35.72a6.77,6.77,0,0,1,.07,1.62,5.22,5.22,0,0,1-1.61,2c-.41-.07-.48-.62-1-.63-.36,0-.19-.49-.11-.78a12.64,12.64,0,0,0-.62-5.49c-.23-.84,0-1.06.85-1C13.16,46.71,14.29,47.51,15.53,48Z"/><path class="cls-37" d="M93.57,30c-1-1.07-2.43-1.65-3.53-2.63a4.36,4.36,0,0,0,.3-3.73c-.1-.27-.28-.59,0-.79s.55.06.74.24a28.89,28.89,0,0,1,3.27,3.18c.39.5.93,1.1.35,1.85a3.52,3.52,0,0,1-.79,1.82C93.79,30,93.7,30.08,93.57,30Z"/><path class="cls-38" d="M25,34.57A8.12,8.12,0,0,1,23.18,33a5.5,5.5,0,0,1-1.62-3.12h0a9.1,9.1,0,0,0,1.52-1.46c.22-.34.71-.34,1.12-.3.49.21.77.4.23.93-.75.74-.62,1.12.34,1.58a13.51,13.51,0,0,0,3.62.65,1.63,1.63,0,0,1-2.65,1.22.46.46,0,0,0-.71.19c-.24.38-.3.82.13,1.1a2.94,2.94,0,0,0,2.52.52,2.62,2.62,0,0,1,2-.14A7.78,7.78,0,0,1,25,34.57Z"/><path class="cls-39" d="M85.14,15.49c-.09-.36.2-.85-.35-1.07-.29.82-.32.85-.9.2-.3-.33-1.39-.79,0-1.15a.37.37,0,0,0,.21-.29c0-.3-.25-.21-.42-.23a1.21,1.21,0,0,1-1.1-1.52,13.83,13.83,0,0,1,7,2.65c.18.13.46.28.3.61a.87.87,0,0,1-.68.6A15,15,0,0,1,85.14,15.49Z"/><path class="cls-40" d="M49.69,72.83c.8-.59.44-1.44.37-2.14a2.3,2.3,0,0,1,.07-1.24,4.1,4.1,0,0,1,.92,3.48,15.36,15.36,0,0,1-2,5.38c-.51.92-.88,1.88-1.32,2.81-.35.71,0,.78.46.84s1,.06,1.53.08c-.25.3-.59.2-.89.16a1.35,1.35,0,0,0-1.58.69c-.43.72-2.92.44-3.57-.32a3.37,3.37,0,0,1-.28-.38c.17-.72.88-.77,1.36-1.11a.9.9,0,0,0,1.38-.25c.46-.88,1.35-1.31,1.9-2.1a8.69,8.69,0,0,0,1.38-5.25C49.44,73.24,49.19,72.88,49.69,72.83Z"/><path class="cls-41" d="M16.58,67.62l-6.29.6a.7.7,0,0,1-.82-.61c-.1-.52.38-.39.61-.52a13.17,13.17,0,0,1,5.1-1.53,7.43,7.43,0,0,1,3.34.22c.07.33-.31.24-.43.51a1.12,1.12,0,0,1,1.27-.05.74.74,0,0,1,.36,1c-.12.37-.39.4-.76.35a23,23,0,0,0-2.63-.06h0A.33.33,0,0,1,16.58,67.62Z"/><path class="cls-42" d="M40,14.42c.27-.1.33-.35.45-.58a1.77,1.77,0,0,1,2.25-.55.53.53,0,0,1,.26.73,21,21,0,0,0-1.13,3.74c-.17.74-1,1.26-1.27,2-.09.2-.42.45-.41-.11a1.13,1.13,0,0,0-.33-.67,2.82,2.82,0,0,1,0-3.56,2.22,2.22,0,0,0,.15-.64Z"/><path class="cls-43" d="M99.58,55.29l-.58,0-.45-.45c.56-.34,1.19-.71.71-1.61.45-1.77,2-2.92,3.52-2.21a.9.9,0,0,0,.28,0c1.4.17,1.44.2.66,1.34-.41.6-.51,1.47-1.36,1.72C101.57,54.8,100.78,55.51,99.58,55.29Z"/><path class="cls-44" d="M24.27,60.45c.4.49.65,1.1,1.24,1.44a.44.44,0,0,1,.14.32,13.87,13.87,0,0,0,1,4.35c.09.26.15.49-.13.67L25,66.78c.22-.3-.11-.72.27-1s-.11-.39-.26-.47c-.5-.29-.12.19-.21.26-.34.27-.57-.21-.88-.16a3.62,3.62,0,0,0-.17-2,3.3,3.3,0,0,0-.32-.86,8.66,8.66,0,0,0-2.09-2.42c-.34-.35-1-.8-.64-1.24s.89.12,1.31.32,1.09.5,1.64.73C23.92,60,24.21,60.09,24.27,60.45Z"/><path class="cls-45" d="M111.88,33.72c-.11-.61-.2-1.08-1.08-.7-.21.09-1-.48-1.44-.74a9.85,9.85,0,0,0-1.45-.41c-.16-.07-.45-.07-.48.15-.05.38-.19.47-.47.24a.41.41,0,0,1,.05-.72c.36-.19.47-.89.74-.77a7.34,7.34,0,0,1,2.15.93c.23.2.39.5.83.61-.16-.71-.68-1-1.09-1.39-.21-.2-.75-.21-.51-.74.35-.34.79-.18,1.18-.14a6,6,0,0,0,1.58.06c.89-.14,1.13.93,1.88,1.12.09,0,0,.23-.07.33s-.29.36-.48.45A2.24,2.24,0,0,0,111.88,33.72Z"/><path class="cls-46" d="M60.66,8.85c1.25.72,1.2,2.71-.09,3.71a8.45,8.45,0,0,1-.82.49l-1.32-.28c-.09-.37-.2-.69-.64-.81-.25-.07-.52-.21-.52-.56A10.85,10.85,0,0,1,60.66,8.85Z"/><path class="cls-47" d="M16.58,67.62l-.86-.09c.5-.24,1,.08,1.28-.15.41-.39.61.09.88.05.49-.06.95-.49,1.44,0,.08-.09.24-.18.23-.26s.11-.55-.15-.69-.56-.38-.88-.19-.39.54-.78.35c-.18-.09-.06-.26-.06-.41,0-.68.64-.15.84-.44a28.4,28.4,0,0,1,5.33,1c-.53,0-.88.8-1.53.29-.2-.15-.16.17-.21.29-.25.57-.36,1.36-1.32.91-.37.66-1.22.65-1.66,1.27A7.25,7.25,0,0,1,17,71.06a13.18,13.18,0,0,1,3.12-3.31Z"/><path class="cls-48" d="M100.27,46.88a8.46,8.46,0,0,1,2.69.9,7.32,7.32,0,0,0,5.42.7,5.76,5.76,0,0,1,.94-.09c-2.31,1.14-4.57.69-6.76-.31-.6-.27-.78-.42-1.07.38a5.69,5.69,0,0,1-2.33,3.21c-.31-.06-.51-.18-.34-.54a.69.69,0,0,0,0-.61A16.31,16.31,0,0,1,100.27,46.88Z"/><path class="cls-49" d="M17,60.33c.16.46.79.5.9,1a16.22,16.22,0,0,1-4.63-.88,2.88,2.88,0,0,1-1.82-2.05c-.2-.57.13-.64.52-.53.81.24,1.61.54,2.41.81a3.76,3.76,0,0,0,1.67.89C16.66,59.47,16.52,60.31,17,60.33Z"/><path class="cls-50" d="M28.34,79.3a1.58,1.58,0,0,1,.24,1.91.93.93,0,0,0,.59,1.25c.52.24.58.21.34.61a2.42,2.42,0,0,0-.17.73c-1.6-.21-2.52-1.38-3.49-2.48-.17-.2.12-.51.76-.85Z"/><path class="cls-51" d="M14.87,52a1.62,1.62,0,0,1,.67,1.18,3.9,3.9,0,0,0,.92,2c.64.62.46,1-.15,1.44s-1,.09-1.39-.27a1.68,1.68,0,0,1-.74-1.87,8.64,8.64,0,0,0,.61-2A.31.31,0,0,1,14.87,52Z"/><path class="cls-52" d="M99.58,55.29a8,8,0,0,0,2.78-1.22c-.55.57-.52,1,.24,1.39.58.28.53.69.12,1.14a7.21,7.21,0,0,1-1,1.1A19.19,19.19,0,0,1,99.58,55.29Z"/><path class="cls-53" d="M16.7,42.32c-.17.29.41.91-.4.93-1.05-1.75-2.64-3.16-3.21-5.26l2.75,2.18A3.71,3.71,0,0,1,16.7,42.32Z"/><path class="cls-54" d="M76.13,4.07c-.76.81-.92.87-2.09.67A23.32,23.32,0,0,1,76,1.24c.07-.13.19-.3.38-.2s.14.33.09.5A7.74,7.74,0,0,0,76.13,4.07Z"/><path class="cls-55" d="M26.27,74.51c0,.12.44.35,0,.33-.85,0-1.37.88-2.29.65-.32-.08-.41.39-.34.86-.57-.55-.91-.78-1.48-.14a2.5,2.5,0,0,1-1.58.76.29.29,0,0,1-.38,0A8.2,8.2,0,0,1,26.27,74.51Z"/><path class="cls-56" d="M20.21,76.94l.38,0c.41.39,1,.52,1.34,1a27.73,27.73,0,0,1-2.89.72c-.2,0-.39,0-.49-.15s.15-.29.22-.43A1.92,1.92,0,0,1,20.21,76.94Z"/><path class="cls-57" d="M77.66,10A11.58,11.58,0,0,0,78,13.33c-.3.66-1.28.53-1.5,1.29l-.09-.42C76.8,12.81,77.23,11.41,77.66,10Z"/><path class="cls-58" d="M24,63.3c.1.42.21.83.32,1.25a.65.65,0,0,1-.37.83A5.73,5.73,0,0,1,19.39,62l0-.2c.13-.12.38-.18.42-.07.24.65,1,.79,1.29,1.49a2.8,2.8,0,0,0,2.08,1.5c.37.09.61,0,.48-.49C23.6,63.87,23.38,63.44,24,63.3Z"/><path class="cls-59" d="M21.42,33.86c0,.62-.48,1.08-.48,1.69-.7-.15-.91-.8-1.28-1.27-.19-.25.13-.28.27-.35A2.79,2.79,0,0,1,21.42,33.86Z"/><path class="cls-60" d="M11.49,53.22c.16.14-.33.73.43.52.4-.1.65.43.69.89l-1.35,1.21A6.85,6.85,0,0,1,11.49,53.22Z"/><path class="cls-61" d="M78,86a1.62,1.62,0,0,1,1,.68,2,2,0,0,0,2.81.76c.22-.09.46-.24.68,0l-.35.16c-2.32.85-2.66.47-3.76-1Z"/><path class="cls-62" d="M14.87,52l-.08.47-.57.18c-.43-.68-.2-1.49-.42-2.22-.07-.26.43-.22.7-.12C14.35,50.91,14.76,51.41,14.87,52Z"/><path class="cls-63" d="M31.21,86a3.58,3.58,0,0,0,1.61,1.86c.29.17.32.3.19.51a4.26,4.26,0,0,1-2.21-1.89.5.5,0,0,1,0-.49Z"/><path class="cls-64" d="M16.7,42.32a9.76,9.76,0,0,1-.86-2.15l1.09.83C16.89,41.44,17,41.92,16.7,42.32Z"/><path class="cls-65" d="M93.57,30a5.1,5.1,0,0,0,1.1-1.88l-.09,1.29c-.29.38,0,.86-.27,1.27C94,30.54,93.8,30.23,93.57,30Z"/><path class="cls-66" d="M98.84,50.52c.39.31-.18.88.32,1.15l-.23.34c-1.25-.2,0-.78-.17-1.15Z"/><path class="cls-67" d="M16.07,59.57a1.67,1.67,0,0,1-1.67-.89A4.16,4.16,0,0,1,16.07,59.57Z"/><path class="cls-68" d="M81.49,73.43A5.4,5.4,0,0,1,79.09,76c-.25-.68.49-.9.68-1.39.28-.72.16-.86-.55-.7-.31.06-.64-.06-.92.17-.09.08-.29.18-.33.07-.36-1.13-2-.52-2.16-1.74a3.82,3.82,0,0,0,.74-2.88.72.72,0,0,0-.79-.4c-.35,0-.79,0-1,.47a2.4,2.4,0,0,1-1.37,1.5c-.23.1-.27.32-.32.54-.15.72-.57.84-1.17.49-.19-.67.77-.63.73-1.24-.29.4-.6.41-.86,0a.61.61,0,0,1,.23-1c.63-.3,1.15-.56.66-1.39-.17-.28.14-.38.33-.47a3.41,3.41,0,0,1,.65-.14c.32-.06.79.25.93-.18s-.19-.77-.5-1.06-.51-.59-.09-.75c.86-.34.61-.88.41-1.45a1.11,1.11,0,0,1,0-.48,1.43,1.43,0,0,0-.17-1c-.42-.86-.8-1-1.67-.58a2.77,2.77,0,0,1-.61.27c-.52,0-.75-.14-.66-.7a3,3,0,0,1,.26-1.26.61.61,0,0,0,0-.78c.11-1.81,1.7-2.66,4-2.11A1.94,1.94,0,0,0,72.63,57c-.21.14-.4.33-.69.25-.45-.89-1.28-.83-2.09-.84-.7-.24-.89-1.1-1.64-1.34-.32-.1-.14-.48,0-.74.32-.35.61-.1.82.11,1.24,1.24,2.78,1,4.23.72.54-.1.84-.18,1.23.22a3.41,3.41,0,0,0,.87.56c.29.14.5.23,0,.45-.2.09,0,.24.08.35.32.29.74.63,1.09.47,1.65-.75,2.43.65,3.26,1.44.64.59,1.18,1.39,1.83,2a9.42,9.42,0,0,1,.83,1.16c.22.3.13.45-.24.48-.57,0-.54.43-.26.72.46.49.26,1.35,1,1.67.06,0,.1.18.09.25-.35,1.42.18,3-.83,4.3-.3.38-.69,1-.28,1.49s.9,0,1.35,0c-.09.12-.17.34-.28.36C81.68,71.37,81.58,72.39,81.49,73.43Z"/><path class="cls-69" d="M48.35,62.45A2.64,2.64,0,0,1,46.24,60c-.05-.72-.68-1.32-.4-2.1.14-.38.48-.36.79-.4a3.43,3.43,0,0,0,2.52-1.35,3.53,3.53,0,0,1,2.14-1.1c0,.09,0,.12.12.1-.22-.88.87-1.07,1-1.87a19.27,19.27,0,0,0,.13-3.72c0-.55.43-.63.87-.66.74,0,1.44-.38,2.2-.22a5.73,5.73,0,0,1,.38,1.9c-.22,1.45,0,2.9-.2,4.34-.24,1.78-.49,3.49-2.42,4.31a.79.79,0,0,0-.52.92c.12.46.48.55.9.53a2,2,0,0,1,1.46.53c.71.59,1.26.4,1.61-.46.81-2,2-3.81,1.84-6.09,0-.15,0-.34.18-.39a.39.39,0,0,1,.48.23,2.77,2.77,0,0,1,.16,1.57c-.21.74-.65,1.47-.35,2.3a.31.31,0,0,1,0,.25,14.64,14.64,0,0,0-2,3.41,1.44,1.44,0,0,1-1.74.87,25.4,25.4,0,0,1-3.35-.65A8,8,0,0,0,48.35,62.45Z"/><path class="cls-2" d="M82.27,30.92c-.28.18,0,1-.71.7,0,.15-.13.3-.1.43.37,1.69-1.16,2-2,2.71-.27.23-.67-.08-1-.21-.57-.22-.9-.23-1,.52a14.72,14.72,0,0,0-.07,1.49c0,.49.25,1-.25,1.5-.25.25-.09.87.19,1.13.45.41,0,.87.21,1.31.11.26-.33.2-.58.21-.59,0-.77.23-.44.84a10.49,10.49,0,0,0,2.36,2.61c.51.48.62,1.32,1.39,1.6,0,0,.09.31,0,.34-.68.46-.42,1.21-.44,1.78a2.37,2.37,0,0,0,.49,1.75c.39.4,1.17.41,1.19,1.19l.51-.16c.72.17,1.43.41,2.15.61a2.4,2.4,0,0,0,1.16.2c.54,0,.9.21.71.85a6.05,6.05,0,0,0-.73-.2c-.25,0-.54-.07-.69.19s.15.46.3.62c.8.83.72,1.39-.33,2-.14-.81-.79-1.13-1.45-1.4-.48-.19-1-.32-1.1-.92a.58.58,0,0,0-.31-.36,12.8,12.8,0,0,1-3.33-2.42A3.44,3.44,0,0,0,75.94,49c-.57.07-1.07-.4-1.65,0a4.49,4.49,0,0,0,2.16-3.32c.09-.42.77-.3.86-.88a7.3,7.3,0,0,1-2.4-.07c.74-.35,1.11-.75,1.8-.66.53.08.9-.24.43-.91a7.11,7.11,0,0,0-2.7-2.38,20.19,20.19,0,0,0,0-2.58,7.76,7.76,0,0,1,.25-2.64,7.44,7.44,0,0,1,1.23-3.78c.1-.13.19-.32.34-.31,1.27,0,2.09-1,3.18-1.34.63-.21,1.25-.56,1.92-.26A1.37,1.37,0,0,1,82.27,30.92Z"/><path class="cls-70" d="M58.53,41.36c0,.28-.27.32-.43.44,1.07.75,2.11,1.6,3.54,1.23a9.43,9.43,0,0,0,3.57-1.44A2.14,2.14,0,0,1,67,44c-.44.09-.48.71-1,.75-.14.08-.28.16-.29.34,0,.52.28,1.11-.54,1.41a3.88,3.88,0,0,1-1.45.53,3.9,3.9,0,0,0-1.47.35c-.45.19-1,.26-.88,1,0,.42-.41.68-.73.94A2.08,2.08,0,0,1,58,49.18a10.75,10.75,0,0,0-2.16-4,2.86,2.86,0,0,0-2.45-.95c-.18-.17-.41-.15-.62-.21-.88-.23-1-.5-.57-1.37a2.59,2.59,0,0,0,1.43-1.47c.94.09,1.49.93,2.29,1.17-.05-.08-.17-.19-.26-.33-.25-.39-.73-.87-.38-1.27s.76.17,1.11.37a1.57,1.57,0,0,0,1.1.21C57.86,41.27,58.21,41.07,58.53,41.36Z"/><path class="cls-71" d="M71.63,60a.53.53,0,0,1,.18.9c-.59.45,0,1.08-.35,1.49l.45.12c.08.87.32,1,1.44,1,.44,0,1-.19,1.19.41,0,.16.08.31.13.46.37,1.22.37,1.22-.71,1.74.12.38.65.35.75.78s.43.78.2,1.18-.61-.08-.94,0a1.85,1.85,0,0,1-.47,0c-.44.06-.79.19-.42.71.51.72,0,.89-.54,1.09a3.08,3.08,0,0,0-.53.21.37.37,0,0,0-.12.51c.08.16.18.36.39.36s.16-.21.22-.35.24-.44.56-.36A2,2,0,0,1,72,72.13a13.91,13.91,0,0,1-5-1.06A5.19,5.19,0,0,1,64,68.29c-.12-.29-.23-.59-.35-.88s.06-.24.2-.28a1,1,0,0,1,.72.42A10.43,10.43,0,0,0,68.31,70a1.26,1.26,0,0,0,1.52-.11,3.39,3.39,0,0,1-3.16-1.35.79.79,0,0,1,.68-.45c.72,0,.83-.41.76-1,.33-.31.21-.7.2-1.07-.06-2.54,1.35-4.33,3-6A.26.26,0,0,1,71.63,60Z"/><path class="cls-72" d="M82.27,30.92c-1.08-1.13-1.51-1.22-2.94-.44-.68.37-1.5.53-2,1.21-.06.06-.2.16-.24.13-1.21-.67-1,.78-1.58,1.06-.09,0-.2.28-.17.31.74.81-.38,1.22-.4,1.86,0,.09-.1.19-.08.26.46,1.33-.64,2.64,0,4,.27.62-.46,1-.37,1.51a7.93,7.93,0,0,0-3.66.64c-.53-.55-.54-.56,0-1,.14-.11,0-.12,0-.17-.31-.55.12-.88.44-1.08.5-.33.53-.93.94-1.3.14-.13-.2-.16-.28-.28a4.29,4.29,0,0,1,1.26-1.87A1.57,1.57,0,0,0,73.54,34c-.09-.25-.29-.5,0-.66,1-.49,1.29-1.59,1.92-2.4a1.12,1.12,0,0,0-.07-1.26c-.14-.29-.41-.42-.63,0-.13.23-.28.46-.55.5s-1.09.4-.8-.56c.1-.32-.31-.49-.16-.85a5.08,5.08,0,0,0,2.65,0c.36-.16,1,.78,1.69.81.08,0,.19.18.22.17,1.19-.69,2.7.17,3.81-.67a19.32,19.32,0,0,1,3.47-1.72c.39-.19.94-.56,1.2-.25s-.25.83-.49,1.2a8,8,0,0,1-.84.93,2,2,0,0,0,2.07.45,1.16,1.16,0,0,1,1.18.24,9,9,0,0,0,2.07,1.31A1.86,1.86,0,0,1,91.4,33c-.63-.21-.92-.81-1.35-1.23a1.1,1.1,0,0,0-.89-.38c-.15.06-.24,0-.33-.11a1.3,1.3,0,0,0-1.43-.52,3.87,3.87,0,0,1-2-.47c0-.21-.11-.39-.34-.38a1.75,1.75,0,0,1-1.69-.74C83.69,30.26,82.55,30.3,82.27,30.92Z"/><path class="cls-73" d="M63.9,67.21l-.21.2C63,67,63,66.2,62.55,65.66a3.93,3.93,0,0,0-1.73-1.13c.49-.08.9-.31.47-.68-1-.85-.54-1.89-.37-2.81s.79-1.49.94-2.27c.28-1.53,1.71-2.19,2.34-3.37,1.21-2.31,3.47-3.15,5.47-4.38.29-.18.63-.4.81,0s-.34.36-.53.46A7.41,7.41,0,0,0,66.73,55c-.14.28.17.09.28.1a.69.69,0,0,1,0,1,17,17,0,0,0-1.38,2.51,3.47,3.47,0,0,1-.85,1.13.85.85,0,0,0-.39.64c0,.68.11,1.35-.71,1.68-.18.07,0,.35,0,.53a4,4,0,0,1-.62,2.9c.52-.23.53-.59.7-.82s.23-.44.5-.15A7.19,7.19,0,0,1,63.9,67.21Z"/><path class="cls-74" d="M52.24,71.59a7.17,7.17,0,0,1-.3-2.68c0-.34,0-.62-.34-.79a.4.4,0,0,1,0-.57c0-.33-.14-.57-.49-.57a38,38,0,0,1-4-.51l-.28,0c-.51.23-.66-.2-.85-.5s-.24-.55-.53-.65A6.51,6.51,0,0,1,42,62a1.29,1.29,0,0,0-.59-.61c-.36-.32-.52-.79-.88-1.11a6.25,6.25,0,0,0-.7-1.42,1.28,1.28,0,0,1-.2-1c.35-.27-.08-.32-.15-.46-.33-.63-1.16-1-1.08-1.85,1.37.49,2.69,1.09,3,2.71a3,3,0,0,0,1.2,1.64,28.38,28.38,0,0,0,3.94,3.73c.16.11.33.32.48.18.65-.56,1,0,1.46.32s.79.11,1.15,0c.87-.21,1.71-.5,2.5.19.13.11.36.08.55.12s.63,0,.79.35a1.61,1.61,0,0,1-.88.3c-.5.1-.42.72-.84.87.53.19.28.7.4,1A9.24,9.24,0,0,1,52.6,71,.81.81,0,0,1,52.24,71.59Z"/><path class="cls-75" d="M92,53.34c1.05.28,2.05.95,3.2.34.16-.09.45-.1.5.09a1.11,1.11,0,0,1-.12.63c0,.15-.19.35-.35.21-.59-.53-1.09,0-1.58.15-1.28.46-2.71.41-3.91,1.14-.15.1-.53-.09-.42.31s.3.14.49.11a14.28,14.28,0,0,1,3.2-.2c.39,0,.62.06.59.5s-.42.52-.72.69a2.73,2.73,0,0,0-1.51,2,1.08,1.08,0,0,1-1.45.5,1.78,1.78,0,0,1-1.25-1.5,10.73,10.73,0,0,0,0-1.5c0-.51.54-1,0-1.52,0-.47-.51-.42-.67-.72s-.38-.3-.12-.55a.38.38,0,0,0,.06-.57.43.43,0,0,1,.07-.25c1.11-1,2.2-.2,3.28.07C91.51,53.37,91.72,53.62,92,53.34Z"/><path class="cls-76" d="M64.18,64.36a1.76,1.76,0,0,0-.4.94c-.08.34-.29.38-.57.36s-.4,0-.47-.25c-.14-.37.31-.25.38-.4a4.92,4.92,0,0,0,.18-3.3c.77.11,1-.19.89-1-.1-.61,0-1.21.73-1.43.47-.14.38-.64.5-.92.49-1.14,1.44-2,1.59-3.33.4-.23.68-.67,1.19-.72.26.06-.39,1,.47.49a.32.32,0,0,1,.22.1c0,.7.74.87,1,1.4s-.12.58-.31.81a3.1,3.1,0,0,1-1.06.8,7.25,7.25,0,0,0-3.84,5.29A1.74,1.74,0,0,1,64.18,64.36Z"/><path class="cls-77" d="M52.24,71.59a11.69,11.69,0,0,0-.39-5.22c-.07-.32-.2-.09-.32-.07a.26.26,0,0,1-.34-.23c0-.22.15-.25.31-.25s.34,0,.38-.38c.09-.71.8-.52,1.48-.53l-.68-.4c.71-.59,1.41,0,2.11,0,.3,0,.23.35.27.54s-.21.25-.39.26a.81.81,0,0,1-.38,0c-1.15-.53-1.6.17-1.93,1.09,0,.14-.13.37-.07.43.64.61.17,1.54.75,2.26.35.44.11,1.38.06,2.09s.08.54.64.61c.9.12,2-.27,2.69,1,.23.42,1.15.47,1.09,1.29,0,.27-.15.28-.25.17-.51-.51-1.06-.33-1.62-.15-.22,0-.45.11-.64-.1a1.21,1.21,0,0,0-1.15.1c-.44.34-1-.17-1.49.11-.23.12-.16-.43-.18-.69C52.15,72.87,52.77,72.24,52.24,71.59Z"/><path class="cls-1" d="M62.26,75c-.15.35-.47-.13-.72.22,1.25.52,2,1.84,3.46,2.13a18.9,18.9,0,0,1-1.49,1.22c-.67.54-1.2.08-1.78.14-1,.1-1.76-.84-2.76-.21.14-1.29.14-1.29,1.52-1.35-.1-.73-.56-1-1.38-.84,1.3-.46.84-1,.29-1.61a5.86,5.86,0,0,1,2.85.14A.86.86,0,0,1,62.26,75Z"/><path class="cls-78" d="M71.87,37.62c.26-.09.58-.33.77,0s-.26.36-.4.54c-.37.46-.43,1.2-1.14,1.37.39.17-1,.65.12.69.19,0,.11.18,0,.28s-.14.3-.34.28-.26-.3-.54-.18c-.13.38.76.34.39.82-.24.09-.84-.23-.52.49.1.21-.2.28-.27.18-.55-.78-1.2.16-1.8-.14-.26-.12-.28.24-.33.45A3.14,3.14,0,0,1,67,44c-.3-.57-.14-1.45-1.14-1.56-.36,0-.18-.76-.68-.8.21-.39.69-.59.56-1.23-.07-.3.51-.68,1-.54a12.35,12.35,0,0,0,1.33.16c1.76.29,2.83-.59,3.55-2.07A1.61,1.61,0,0,1,71.87,37.62Z"/><path class="cls-79" d="M52.33,42.66c-.27.6-.19,1,.55,1.14.25,0,.53.05.55.41-.2,0-.49,0-.53.27s.22.25.36.35c1.31,1,2.63,1.94,2.3,3.89a4.92,4.92,0,0,1-2.14.48c-1.16-.52-1.3-.8-1-2.13a2.7,2.7,0,0,0-.21-1.48A11.84,11.84,0,0,0,51.28,43c-.22-.35-.45-.73.07-1C51.82,42,52.07,42.34,52.33,42.66Z"/><path class="cls-80" d="M60.72,49.09c.2-.43.94-.75.3-1.39-.08-.07,0-.25.18-.27,1-.16,1.92-.92,3-.71.36.07,1.36-.9,1.41-1.31s-.07-.68.41-.71c-.22.38-.35.71.29.79a1.49,1.49,0,0,1,.43.19c.42.22,1.17.22,1,.89-.1.46-.74.68-1.2.75-1,.14-1.93.73-3,.75-.27,0-.35.24-.52.38a2,2,0,0,1-1.6.68C61.23,49.27,61,49.35,60.72,49.09Z"/><path class="cls-81" d="M60.72,49.09l.77,0c-.1.12-.18.32-.3.34-1.57.34-1.45,1.63-1.5,2.74,0,.61-.24.94-.73,1s-.65-.48-.64-.92a14.66,14.66,0,0,0-.28-3.1A3,3,0,0,0,60.72,49.09Z"/><path class="cls-82" d="M92,53.34c.28.69-.21.43-.46.34l-1.3-.46a2.64,2.64,0,0,0-2.25.12c-.18-.12-.45,0-.57-.27.11.25.36.21.55.3l.6.7c-.15.27-.44.07-.68.13a.77.77,0,0,0,.66.59c.57.13.32.31.09.54a5.86,5.86,0,0,1-2.33-2.82c.17-.47-.67-.85-.14-1.37a4.16,4.16,0,0,0,3.22,1.35A11.21,11.21,0,0,1,92,53.34Z"/><path class="cls-83" d="M68.89,76.47a15.45,15.45,0,0,1-4,.15c-.83,0-1.27-.62-1.74-1.16a14.56,14.56,0,0,1,2.45.79,1.92,1.92,0,0,0,1.48.07A1.72,1.72,0,0,1,68.89,76.47Z"/><path class="cls-84" d="M88.65,56.85c.31.44.06.93.1,1.39a1.68,1.68,0,0,0,1.09,1.45,1,1,0,0,0,1.37-.46c.37-.57.72-1.17,1.54-1.14.16.59-.51.61-.68,1a9,9,0,0,1-.51.9c-.61,0-1.19.32-1.85,0C88.29,59.25,88.47,58.07,88.65,56.85Z"/><path class="cls-83" d="M62.25,74.87l-2.85-.14c-.78.1-1.52-.55-2.32-.12a.2.2,0,0,1-.23,0c-.3-.47-1.1-.14-1.28-.8a1.75,1.75,0,0,1,2,.23c1.11.43,2.3.13,3.43.41C61.39,74.6,61.9,74.46,62.25,74.87Z"/><path class="cls-85" d="M86.16,51.14c-.23.49.46.88.14,1.37l-.18-.19c-.18-.36-.16-1-.89-.48-.17.12-.67-.23-1-.37s.16-.65-.36-.65c0-.17.13-.19.25-.19a2.55,2.55,0,0,1,.73.06A1.87,1.87,0,0,1,86.16,51.14Z"/><path class="cls-16" d="M86.47,68.05c.23,0,.54,0,.46.37s-.32.17-.48.1-.44-.08-.55-.3A.6.6,0,0,1,86.47,68.05Z"/><path class="cls-86" d="M65.65,24.37c.24.2.38.54.74.6-.09.57-.59.29-.92.45.4.39,1,.38,1.4.7s.57.85,1.19,1.06c-.52-.62-.45-1.42-.9-2V24.8c.17-.62.58-.34.88-.19A3.26,3.26,0,0,1,69.47,26a2.36,2.36,0,0,0,1.34,1.16l.1.09c0,.32-.22.59,0,1,.42.64,0,1.32-.3,1.89s-.5.73.25.86c.21,0,.69.05.52.5s.15,1.34-.54,1.62c-.44.19-.89-.37-.82-.69.14-.67-.35-.61-.66-.8-.17,0-.25-.06-.3-.2.18-.73.56-1.4.72-2.14.06-.26.15-.48-.06-.7a.31.31,0,0,0-.42-.09c-.13.09-.08.2,0,.33.37,1.21,0,1.55-1.2,1.28-.09,0-.23-.12-.26-.09-.61.6-1.56.44-2.18,1a.58.58,0,0,1-.66.1c-.34-.43-.42-1-.77-1.42A3.63,3.63,0,0,0,61,28.5c-.72-.79-.68-.91.31-1.23a2.18,2.18,0,0,1,1.85,0c1,.57,2.27.64,3.18,1.46a.88.88,0,0,0,.6.25.46.46,0,0,0,.4-.23c.11-.2-.07-.26-.2-.35a7.79,7.79,0,0,0-4.26-1.75,1,1,0,0,1-.79-.6,1.85,1.85,0,0,0-.79-.8c-.39-.17-.6-.29-.77.34-.24.93-1.19,1.22-2,1.45a6,6,0,0,0-2,1,1.82,1.82,0,0,1-2.29.08c-.44-1.49-.13-1.89,1.95-2.25a1.18,1.18,0,0,1-1.07-1c-.13-.56-.59-.65-1-.63a1.55,1.55,0,0,1-1.44-.82c-.38-.5-.79-.84-.5-1.52.08-.2-.15-.3-.31-.42-.31-.22-.18-.59-.1-.85s.41-.35.73-.32a4.65,4.65,0,0,0,3.23-.77,2.78,2.78,0,0,1,2.64.05,1.37,1.37,0,0,0,1.33,0,2.45,2.45,0,0,1,1.23-.07c.28,0,.61.2.58.41-.2,1.19.88,1.15,1.46,1.55s1.34.56,1.46,1.41C65,23.27,65.08,24,65.65,24.37Z"/><path class="cls-87" d="M58.53,41.36a2.56,2.56,0,0,1-3.08-.69,2.56,2.56,0,0,0,1.19,1.93c-.64.14-1.67-.36-2.93-1.41-.26.06-.42-.1-.57-.27a15.84,15.84,0,0,1-3-4.75,2.81,2.81,0,0,1-.06-2c.1-.3.18-.64.55-.7s.58.24.69.54c.68,1.88,2.26,2.92,3.81,4.06-.47-1.59-.85-3.13-2.2-4.26a4,4,0,0,1-1.44-3c.17-.26.46-.32.64-.12.41.44,1,.62,1.32,1.18s.72-.06,1.08-.07a1.51,1.51,0,0,1,1.69.79c.65.78,1.3,1.55,1.91,2.35.36.47.79,1,1.51.59.48-.12.74.15,1,.48.43.49.86,1,1.64,1a.36.36,0,0,1,.4.19c.08.21-.06.36-.2.49a.67.67,0,0,1-.49.26c-1.33-.16-2.73-.15-3.59-1.49-.25.47.57.51.37.89s.22.66.35,1c.38.55,1.22.7,1.11,1.71-.06.57-.19.74-.64.89S58.91,41.21,58.53,41.36Z"/><path class="cls-88" d="M59.19,38.31c-.65-.32-.65-.32-.55-1a.22.22,0,0,0,0-.13c-.77-.06-.4-.71-.58-1.13,1,0,1,1.4,2.2,1.33.77,0,1.58.64,2.41-.07-1.1.27-1.66-.49-2.15-1.17-.26-.36-.57-.33-.86-.47-.57-.07-.8-.59-1.15-.92s-.6-.81-.18-1.27a1.05,1.05,0,0,1,1.39-.15c.36.18.6.86,1.1.41s.21-.88,0-1.34a.7.7,0,0,1-.06-.55c.24-.57-.14-.64-.55-.71s-.95.1-1-.56c.17-.49-.36-.89-.16-1.38a1.74,1.74,0,0,1,1.88-.78C63.12,28,64.7,29,65,31a1.24,1.24,0,0,1,.52.83,6.56,6.56,0,0,1,.18,2.25,2.58,2.58,0,0,1-1,1.79c-.56.44-1.25.75-1.33,1.58-.75-.1-1.08.65-1.7.86a1.73,1.73,0,0,1-1.58,0c-.07-.11-.2-.16-.27-.26-.22-.3-.26-.08-.31.1A.33.33,0,0,0,59.19,38.31Z"/><path class="cls-89" d="M69.19,16.28a4.15,4.15,0,0,1,2.73,3.25,11.31,11.31,0,0,0,.37,1.07c-.38,1.78-.74,3.57-1.14,5.34-.13.6.26.93.53,1.35.14.22.57.54.13.78s-.43-.25-.58-.48a2.6,2.6,0,0,0-.32-.35h0a4.5,4.5,0,0,1-1.2-1.72,1.62,1.62,0,0,0-.61-1.05c-1.15-1.22-.75-2.52-.21-3.8.14-.3.35-.4-.11-.51-.15,0-.36-.19-.31-.31.42-1.11-.06-2.35.48-3.43C69,16.34,69.11,16.32,69.19,16.28Z"/><path class="cls-90" d="M63.44,37.49c-.27-.73.05-1.12.71-1.45a2.84,2.84,0,0,0,1.35-3.27c0-.32-.09-.63-.13-.94.16-.47.33-.07.36,0a5.89,5.89,0,0,0,1.49,2.19.74.74,0,0,1,0,1.17c-.3.28-.58.56-.28,1s.53.07.78,0c.63-.21.24-.63.12-.93-.2-.52-.16-.86.4-1.15s.78-1.28,1.71-.76a1.54,1.54,0,0,0,.18.91,1.08,1.08,0,0,1,0,1.26,1.44,1.44,0,0,0-.25.89c0,.69,0,1.37-1,1.36a.69.69,0,0,0-.45.33,1.12,1.12,0,0,1-1.37.54,1.52,1.52,0,0,0-1.65.45c-.46.61-1.29-.52-1.64.58-.12-.84.46-.72.77-.91s.6-.22.55-.56-.34-.44-.66-.44A1.59,1.59,0,0,1,63.44,37.49Z"/><path class="cls-91" d="M69.92,33.33c-.57-.06-1,.08-1.19.69,0,.09-.08.21-.15.24-1.47.54-.19,1.17-.09,1.79a5.51,5.51,0,0,1-1.67.67c-.2-.61-.8-1.2.25-1.7.57-.27.11-.75-.17-1a3.87,3.87,0,0,1-1.36-2.21.08.08,0,0,0-.08,0,.18.18,0,0,0-.09,0c-.11-.26-.23-.52-.34-.79l.58-.16A7.42,7.42,0,0,1,68,30.35c.74-.07,1.07.41,1.24,1l.18.2c-.12.65-.43-.23-.64.25s.5.24.67.51c-.1.35-.4-.19-.51.23C69.07,33,69.68,32.93,69.92,33.33Z"/><path class="cls-87" d="M59.58,38.17l-.54-.5c.72-.25,1,0,1.12.66C60,38.35,59.73,38.38,59.58,38.17Z"/><path class="cls-92" d="M30.49,26.91c1.19,0,2-.79,2.91-1.41a5.19,5.19,0,0,0,.45-.48c.18-.17.68-.2.32-.59s-.43-.89-1-.45a.88.88,0,0,1-1,.17.33.33,0,0,0-.32.09c-.45.51-1.8.84-2.24.45s0-.59.25-.74.85-.39,1.35-.62c-.41-.48-1-.58-1.28-1.23s0-1,.51-1.16a7.93,7.93,0,0,1,3.28-.85,3.07,3.07,0,0,0,1.94-.64,1.92,1.92,0,0,1,3,.79c.48.89-.07,1.66-.18,2.47-.07.54-.21,1,.43,1.24.23.08.14.13.1.31-.23.95.3.74.83.5.41-.05.53.3.67.55a3.5,3.5,0,0,0,1.23,1.41A.8.8,0,0,1,42,27.78,4.59,4.59,0,0,1,41.58,29c-.43.23-.45-.09-.54-.37a2.49,2.49,0,0,0-3.79-1.23,1.85,1.85,0,0,1-.37.19,3.12,3.12,0,0,0-1.43,2.14c-.09.46-.17,1-.75,1.1s-.85-.35-1.14-.73-.58-.83-.85-1.26a2.26,2.26,0,0,0-1.46-1C30.88,27.64,30.4,27.5,30.49,26.91Z"/><path class="cls-93" d="M51.6,30.94a6.83,6.83,0,0,0,2.15,3.39c1,.8,1,2.06,1.47,3.12.15.37.25.77.36,1.14a9.92,9.92,0,0,1-4.45-4.43c-.11-.23-.13-.53-.47-.47s-.24.31-.32.52a3.09,3.09,0,0,0,.23,2.38,17.69,17.69,0,0,0,3.14,4.6c-.08.85-.36,1.5-1.38,1.47-.51.1-.57-.48-.93-.61-1-.92-1.82-2.09-2.93-2.93a2.46,2.46,0,0,0-.89-.5,4,4,0,0,1-.8-.47,1.36,1.36,0,0,1-.52-1.86c.43-1.13-.13-2.13-.44-3.16.12-.54-.48-1.1,0-1.63.11.11.28.2.31.33.1.5.51.45.81.42s.47-.37.48-.72a6.5,6.5,0,0,1,1.28-3.72c.16-.24,0-.56-.17-.79a.34.34,0,0,0-.62,0c-.12.14-.23.37-.45.17s-.13-.4,0-.6.34-.45.49-.69.37-.21.58-.19.53.19.5.48c-.13,1.27.73,1.52,1.68,1.69C51.08,28.87,51.38,29.89,51.6,30.94Z"/><path class="cls-94" d="M45.85,31.5c-.24.53.43,1,.14,1.53-.33.09-.39-.19-.53-.37a2.18,2.18,0,0,1-.24-.94c0-.52,0-1.07-.83-.84a1.1,1.1,0,0,1-1-.26c-.55-.58-1.35-.84-1.86-1.46l0-.13a3.28,3.28,0,0,0-.85-2.83c-.34-.46-.61-1-.9-1.44a2.32,2.32,0,0,1,.52-2.19c.49-.51.27-1.29.74-1.79s.78-1.27,1.73-.92c.27.1.54-.12.82-.19.63-.16,1.32-.17,1.6.48.38.88,1.15,1,1.89,1.22.51.19,1.28,0,1.43.86l-.42.53c-1.37.53-1.45,1.86-1.82,3a4.64,4.64,0,0,0-1,2.07c.53.4-.05,1.17.52,1.56h0c.14.64.46,1.26.13,1.92Z"/><path class="cls-95" d="M69.19,16.28c-.36.41-.38.69.58.61-1.33.51-.88,1.34-.72,2,.08.32.06.45-.14.6s-.42.07-.3.36.27.23.48.16a.35.35,0,0,1,.5.29c.06.28-.08.37-.39.49-.68.27-.81,2.44-.24,3.12.31.37.6.76.9,1.15.15.18.16.34-.06.46a2.31,2.31,0,0,1-1.6-1.68,12.14,12.14,0,0,0-.36-1.17,2,2,0,0,1-.32-1c0-.39.53-.44.58-.87-.49-.16-.55.43-.88.5a18.62,18.62,0,0,1-3.69-1.55c-.06-.06-.12-.16-.2-.18A2,2,0,0,1,61.91,17c.13-.42.07-.93.57-1.16l.65-.71a2.08,2.08,0,0,1,2.25-.4A38.69,38.69,0,0,1,69.19,16.28Z"/><path class="cls-2" d="M60.91,28.4a3.53,3.53,0,0,0-1.77.9.3.3,0,0,1-.24.07c-.52-.31.06-.58,0-.94a1.16,1.16,0,0,0-.54,1.43,1.57,1.57,0,0,1-2,.08c-.41-.33-.67,0-1,.24-.07.22-.52.27-.26.63a.4.4,0,0,1,.13.31c-.12.45-.69.21-.86.58,0,.1,0,.21,0,.31-.71.65-.84.66-1.16.15.3-.57-.23-1.16.06-1.73a.58.58,0,0,0,.39-.56c.47-.4,1.21-.19,1.62-.72.12,0-.13-.16-.05-.07s0,.07,0,.09c-.57.35-.88,0-1.14-.44l0-.57A2.84,2.84,0,0,0,57,27.38c.67-.65,1.73-.53,2.51-1.06.58-.39,1.07-.71.57-1.59,1,.08,1.73.24,2.11,1.15a.86.86,0,0,0,.86.54,5.88,5.88,0,0,1,3.32,1.23c.25.2.52.37.78.55s.73-.07.68.31-.41.53-.68.75-.51,0-.74-.16c-1-.9-2.41-1-3.56-1.67-.76-.42-1.42,0-2.07.25S61.45,28.07,60.91,28.4Z"/><path class="cls-96" d="M48.5,22.23c-.76-.66-1.77-.64-2.66-.95-.37-.13-.6-.21-.7-.58-.22-.8-.73-1.13-1.48-.83a1.67,1.67,0,0,1-1.47.14c-.49-.19-.64.68-1.16.77.18-2.92,2.52-3.66,4.59-3.18a4.39,4.39,0,0,0,2.61,0C49,17.4,50.12,19,49.87,19.9A3.76,3.76,0,0,1,48.5,22.23Z"/><path class="cls-86" d="M46.26,25.76c-.16-1.69.41-2.64,1.82-3,.38.27.68.8,1.14,0,.27-.47,1-.14,1.44-.49,0,0,.21.1.21.16,0,.83,1.09,1.18,1,1.91s.51,1.12.57,1.77c0,.31.09.42-.18.41a2.89,2.89,0,0,0-1.79.44c-.45.32-.89,0-.89-.56A4.07,4.07,0,0,1,49.65,25c.31-.72,0-1.12-.53-1.23a1.31,1.31,0,0,0-1.49.9C47.38,25.35,47.27,26.14,46.26,25.76Z"/><path class="cls-92" d="M24.32,28.22c-.62.11-1.22.15-1.47.93-.17.52-.82.5-1.27.69a3.49,3.49,0,0,1,.09-1.13c.13-.32.14-.87.85-.75a.82.82,0,0,0,.83-.93,1.13,1.13,0,0,1,.54-1c.36-.24.57.15.83.3.69.38,1.36.61,2-.11.07-.08.25-.2.31-.17,1,.5,2.36,0,3.28.88-.25.5.19,1.27-.6,1.57a2.11,2.11,0,0,0-.85-.66c-.27-.53-.67-.55-1.14-.3-.56.08-1.21-.34-1.65.33C25.3,27.15,25,28.53,24.32,28.22Z"/><path class="cls-97" d="M53.37,30.43c.18.58.53,1.17-.06,1.73-.44-.59-.86-1.21-1.71-1.22a5,5,0,0,1-.84-3.1.75.75,0,0,1,.87-.78,4.17,4.17,0,0,0,1.27-.15c.59-.15.59.39.49.72A6.16,6.16,0,0,0,53.37,30.43Z"/><path class="cls-86" d="M67.64,21.59l.38.95c0,.49.19,1-.18,1.45s-.66.59-1,0c-.13-1-1-1.17-1.61-1.66a17,17,0,0,1-2-2.15c-.42-.49.22-.35.31-.53a14.15,14.15,0,0,1,3.77,1.5C67.54,21.22,67.6,21.4,67.64,21.59Z"/><path class="cls-2" d="M66.82,24c.63.2,1.07-.13,1.07-.88a1.2,1.2,0,0,1,.13-.6c.37,1.11.67,2.28,1.78,2.95.35.59,1,1,1.11,1.75a1.23,1.23,0,0,1-1.37-.72,5,5,0,0,0-1.46-1.64c-.31-.21-.57-.4-.91-.08C66.66,24.72,66.84,24.33,66.82,24Z"/><path class="cls-2" d="M67.16,25.18a.61.61,0,0,1,.62.61,1.85,1.85,0,0,0,.56,1.34c.11.16.26.33,0,.48s-.29,0-.42-.1a5.91,5.91,0,0,0-2.89-1.88c-.13,0-.18-.16-.14-.3s.16-.18.29-.2c.39-.08.83.18,1.19-.16C66.66,25,66.78,25.58,67.16,25.18Z"/><path class="cls-38" d="M29.68,28.4c.57-.35-.06-1.19.62-1.5h.19c.13.38.5.52.75.78-.26.81-.73,1.53-.95,2.37-.17.66-.94.73-1.49,1l-.19,0a.9.9,0,0,1,.17-1.21A8.66,8.66,0,0,0,29.68,28.4Z"/><path class="cls-86" d="M54.19,28.73c.43.09.79.88,1.39-.13-.33,1.21-.47,1.29-1.82,1.27C53.29,29.26,53.73,29,54.19,28.73Z"/><path class="cls-93" d="M45.73,29.39c-.52.2-.73-.26-.57-.5.27-.4-.06-.72.05-1.06C46.23,28.07,46,28.73,45.73,29.39Z"/><path class="cls-2" d="M65.65,24.37c-1,.05-.82-1-1.28-1.4A1.64,1.64,0,0,1,65.65,24.37Z"/><path class="cls-17" d="M62.48,15.8,61.91,17a3,3,0,0,0-.16-.53c-.14-.29-.23-.59,0-.84S62.2,15.89,62.48,15.8Z"/><path class="cls-93" d="M45.86,31.3c.13-.65-.35-1.26-.13-1.92A1.29,1.29,0,0,1,45.86,31.3Z"/><path class="cls-98" d="M47.69,38.48c.64-.14.87.45,1.23.75a8.72,8.72,0,0,1,2.48,2.82c-.2.12-.27.35-.14.48.57.57.46,1.45.86,2s.13,1.57.69,2.18a.19.19,0,0,1,0,.18c-.84,1-.07,1.67.62,2.31-.39,0-.83-.07-.76.56a4,4,0,0,1-.48,2.29.71.71,0,0,1-.73.41c-.05,0-.12-.09-.11-.14.11-2-.93-3.56-1.87-5.16a5,5,0,0,0-.95-.62.73.73,0,0,1-.45-.85.54.54,0,0,1,.16-.21c1-.39,1.08-.81.48-1.75A6.31,6.31,0,0,0,44.05,42a2,2,0,0,1-1.72.23c-.26-.1-.45-.27-.7-.36,0,.72-.76,1.24-.47,2,.08.22.27.23.46.26a4.57,4.57,0,0,1,1.1.29.47.47,0,0,1,.19.18c0,.21-.14.28-.3.35a.74.74,0,0,0-.45.36c-.22.32-.33.73-.75.86-1-.47.1-.81,0-1.13a19.33,19.33,0,0,0-1.81,1.26.67.67,0,0,1-.95,0,3.23,3.23,0,0,1,0-2.67,1,1,0,0,0,0-1.07.56.56,0,0,1,.09-.77c.47-.59,1.42-.52,1.78-1.27.29-.54.85-.74,1.31-1.07.1-.07,0,0,.08-.05.51-.23.61.1.68.49-.13-.48,0-.82.5-1a.48.48,0,0,1,.52.14,7.85,7.85,0,0,0,3.41.17C47.35,39.06,48.05,39.21,47.69,38.48Z"/><path class="cls-99" d="M38.78,41.79c0,.07,0,.16,0,.19.8.85.15,1.63-.09,2.45-.18.65.13,1.29.11,2a.69.69,0,0,1,.14.67,5.36,5.36,0,0,0-.11,3.45A2.63,2.63,0,0,0,40,52.07a3,3,0,0,1,.56.5c.67.67,1,1.65,2.14,1.85a.83.83,0,0,1,.5.66c0,.29-.17.46-.48.25A37.41,37.41,0,0,0,37,52.82a5.65,5.65,0,0,1-1.9-1c-.12-.2-.4-.29-.37-.59s.08-.45,0-.7a5.34,5.34,0,0,1,.47-5.32,1.61,1.61,0,0,0,.3-.89,6.73,6.73,0,0,1,1.34-3.17c.11.11.21.23.33.34A3.14,3.14,0,0,0,38.78,41.79Z"/><path class="cls-100" d="M36.81,27.34h.37a1.9,1.9,0,0,1,2.39.6,3.07,3.07,0,0,0,1.09,1.65,1.74,1.74,0,0,1,.5,2.38s.08.09.13.14a.53.53,0,0,1,0,.25c-1,.82-.55,1.66,0,2.5a2.43,2.43,0,0,0,1.71,1,3.07,3.07,0,0,1,1.88.93c.57.79.42,1.2-.57,1.35-.67-.08-1.08-1-1.94-.53-.18.1-.33-.33-.48-.52A2.75,2.75,0,0,0,39,35.94a7.31,7.31,0,0,1-1.81,0c-.24,0-.47,0-.36-.38s0-.38-.21-.24c-1,.67-1-.27-1.2-.77-.17-1.14,0-1.37,1.23-1.76-.23-.33-.94-.6-.18-1.09.38-.25-.16-.37-.23-.57-.13-.37-.53-.79.33-.75.33,0,.36-.3.07-.75A1.54,1.54,0,0,1,36.81,27.34Z"/><path class="cls-101" d="M19,57.75c-.35-.76,0-1.55-.11-2.32a6.43,6.43,0,0,1,.63-2.83c.17-.52.76-.62,1.23-.75a6.74,6.74,0,0,1,3.73-.19c1,.34,2.34.3,2.95,1.55a2.55,2.55,0,0,1,.14,1c-.45.39-.12.75.06,1.09s.21.71-.37.76a2.57,2.57,0,0,0-1.42.71,2.66,2.66,0,0,1-3.27.13,2,2,0,0,0-1.76-.13A7.41,7.41,0,0,0,19,57.75Z"/><path class="cls-102" d="M36.81,27.34c.11.48-.5.68-.43,1.16,0,.25-.12.62.11.72.9.39.52,1,.42,1.7l-.71-.48c-.13.64,1.57,1.25-.07,1.74.3.18.59.12.77.34s.2.25.12.43-.15.29-.35.25c-1.2-.28-1.11.67-1.29,1.36a3.78,3.78,0,0,1-.9-1.65c-.41-1.34-1.49-2.14-2.3-3.16-.32-.4-.74-.09-1.15-.06.09.43.45.42.64.61s.45.31.22.53c-.71.71,0,1.16.32,1.58a19.53,19.53,0,0,1,1.26,1.9c.12.18.26.42.09.62a.46.46,0,0,1-.69,0c-.19-.25-.83,0-.67-.61,0,0-.08-.13-.11-.13-1.29.36-2-.73-3-1.19,0-.53-.37-1-.34-1.54v-.38c.17-.19.3-.46.51-.54.54-.21,1.1-.35.72-1.12.88-.24.2-1.58,1.21-1.72s1.4.57,1.84,1.24c.29.44.57.9.9,1.32.16.21.33.5.68.42s.48-.4.49-.72a4,4,0,0,1,1.17-2.34A1.64,1.64,0,0,1,36.81,27.34Z"/><path class="cls-103" d="M19,57.75c.08-.31,0-.79.57-.61.27.08.39-.12.53-.29.67-.81,1.7-.13,2.46-.59-.1.76.56.54.92.71a2,2,0,0,0,2.27-.42,2.18,2.18,0,0,1,2.19-.64,2.74,2.74,0,0,1-.9-2.16c.45-.08.29.39.53.46a3.78,3.78,0,0,0,.51,1.73l.07.11c0,.59-.52.41-.85.51s-.88,0-.43.75a1,1,0,0,1-.82,1.55c-.58.11-.85.63-1.29.91a2.8,2.8,0,0,1-1.21.38l-2.86-1.32c.79,1.49,2.41,2.14,3,3.63-.38.28-.41.31-.74,0-.52-.53-1-1.17-1.49-1.65-.85-.79-1.25-2-2.42-2.49Z"/><path class="cls-104" d="M41.09,35a4.61,4.61,0,0,1-.66-1.31c-.28-.63.33-1,.79-1.38a5,5,0,0,1,2,0c.59.13,1.32.35,1.73-.45a.34.34,0,0,1,.48-.17l.18.94c.36,1.14.37,1.16-.67,1.81-.38.24-.22.61-.33,1,.21-.12.37-.35.64-.2a.53.53,0,0,1,.25.74c.33,0,.55-.48.91-.25s0,.41,0,.61c-.46,1.23.45,1.67,1.24,2.17a1.35,1.35,0,0,1,.48,1.05c-.46.07-.71-.39-1.11-.28L44.3,38.11c.26-.22.88-.19.68-.72s-.54-1-1.09-1.07c-.38,0-.59-.24-.89-.32A3.7,3.7,0,0,0,41.09,35Z"/><path class="cls-105" d="M29.68,28.4a1.15,1.15,0,0,1-.44,1.24,1.69,1.69,0,0,0-.63,1.41l-.2.19a1.13,1.13,0,0,1-1.3.07c-.24-.15-.6-.4-.91,0a.32.32,0,0,1-.56,0c-.17-.28-.42-.31-.7-.39-1.45-.42-1.58-1.11-.46-2.18.32-.3-.17-.32-.16-.51.45,0,.45-.65.72-.64.93.06,1.8-.72,2.75-.2a.93.93,0,0,1,1.14.43C29.6,27.48,29.67,27.91,29.68,28.4Z"/><path class="cls-106" d="M36.86,41.13c-.21.68-.21,1.46-.85,2a.43.43,0,0,0-.15.34c.27,1.38-.82,2.29-1.17,3.45a5.93,5.93,0,0,0,.05,2.9c.08.46.49.95,0,1.43v-.28c-.41,0-.61,0-.56-.54s-.23-.81-.2-1.2a4.6,4.6,0,0,0-.5-2.7,1,1,0,0,1,.35-1.27c.45-.36.76-.78.48-1.4a.53.53,0,0,1,0-.28A7,7,0,0,1,36.86,41.13Z"/><path class="cls-107" d="M43.65,39.08c-.63.05-1.29.07-.81,1,.06.12.15.32,0,.43a.43.43,0,0,1-.35,0c-.23-.08-.23-.27-.15-.46s.24-.38.05-.64c-.68.22-1.12.88-1.82,1.08-.45.12-1,.68-1.09-.49-.35.39-.43.8-.92,1.07a7.6,7.6,0,0,1,1.32-2.79c.33-.43,1-.2,1.41-.05a1.48,1.48,0,0,0,1.43,0c.54-.34.75.3,1.13.44S43.68,38.92,43.65,39.08Z"/><path class="cls-108" d="M36,39.11c0-1.12.29-2-.19-2.83a.34.34,0,0,1,0-.44c.18-.14.35,0,.52.07A1.34,1.34,0,0,1,37,37a11.39,11.39,0,0,0,.42,3c.08.25,0,.54-.33.56s-.95.13-1.08-.47A4.08,4.08,0,0,1,36,39.11Z"/><path class="cls-109" d="M29.09,54.28c.62,1,.21,2,.08,3.06-.62-.23-.66-.93-1.07-1.33l0-.07C28.3,55.31,28.21,54.5,29.09,54.28Z"/><path class="cls-38" d="M28.79,31.45c.12.51.76.91.34,1.54A1.53,1.53,0,0,1,28.79,31.45Z"/><path class="cls-110" d="M85.38,46a1,1,0,0,1-1.19-.49c-.21-.68-1.52-1-.75-2-.8-.37-.13-1.51-1-1.87-.35-.15-.51-.56-.29-.79.35-.38,0-1.27.88-1.22.18,0,.39,0,.38-.18,0-.82.77-1.53.15-2.45-.43-.64.33-2.85,1-3.3.13-.09.33-.23.41-.05.17.4.8.5.7,1-.15.76.18.85.79.65s1.13-.4,1.33.36-.37.85-.87,1.13-.79,0-1,.36a10.19,10.19,0,0,0-1.38,2.5A12.14,12.14,0,0,1,84.14,42c-.27.71.35,1.36.68,2S85.67,45.17,85.38,46Z"/><path class="cls-111" d="M93,43l.3.59c-.61-.51-1-.28-1.41.06a17.25,17.25,0,0,1-3.07,1.61c-.47.26-.91,0-1.36,0-.71,0-.65-.57-.77-1a.6.6,0,0,0-.19-.31c-.67-.54-.61-1.06.24-1.29a1.24,1.24,0,0,0,1-1.24,2.37,2.37,0,0,1,3-.82C91.62,41.06,92.87,41.63,93,43Z"/><path class="cls-112" d="M85.38,46a6.49,6.49,0,0,0-1-2.45,2,2,0,0,1,0-2.49c.19-.24-.2-.92,0-1.41.14-.09.34-.17.45-.1.67.44,1.18.19,1.67-.32a.27.27,0,0,1,.47.08c.15.32.64.54.34,1a2.36,2.36,0,0,1-.59.66c.16,0,.24-.21.41-.27.4-.14.57,0,.47.41s-.34.82-.68.86c-.56.08-.57.53-.84.79-.53.52-.18.83,0,1.33a3.6,3.6,0,0,0,2.45,1.86c0,.08-.07.19-.14.23-1.23.7-1.23.7-.51,1.83-.17.17-.43.05-.7.2a6.14,6.14,0,0,0,1.2.78c.57.27.63.58.14,1-1-1-2.51-1.57-2.84-3.2C85.6,46.49,85.7,46.14,85.38,46Z"/><path class="cls-113" d="M88.49,45.91a2.09,2.09,0,0,1-2.29-1.27.47.47,0,0,0,0-.09A2.38,2.38,0,0,1,86.09,42a2.44,2.44,0,0,1,.1-.24c.94.42.78-.63,1.33-.87-.63-.33-.93.92-1.56.08.89-.31,1.45-.78.6-1.79-.15,1.08-1.28.55-1.73,1.28-.14-.42.27-.48.25-.75-.25-.07-.55.17-.78-.1a4.86,4.86,0,0,1,1.58-2.44,1.12,1.12,0,0,1,1.25.59,4.26,4.26,0,0,0,.62.66,3.15,3.15,0,0,1,.61,1.71,2.42,2.42,0,0,1-.52,1.33c.2.75,0,1.24-.86,1.3a.8.8,0,0,0-.82.9c.2.35.65-.71.66.13,0,1.43,1.13,1.25,2,1.48C88.52,45.4,88.72,45.76,88.49,45.91Z"/><path class="cls-114" d="M88.35,48.19c1.56-.15,3,.68,4.57.56.7-.06,1.54.13,1.29-1.06a.18.18,0,0,1,.23-.22c.36.13.8.14.84.72A4,4,0,0,1,92.53,52a3,3,0,0,1-2.19-.59,11.84,11.84,0,0,1-1.41-1.9c.95-.35,1.69.31,2.52.54.56.16,1.1.46,1.71.07-1.44-.28-2.87-.62-4.28-1A.76.76,0,0,1,88.35,48.19Z"/><path class="cls-115" d="M89,31.16l.19.2c0,.22,0,.44.21.59a1,1,0,0,1,.37,1.41c-.21.53-.18,1,.43,1.25s1.46.79,2.27.59.71.95,1.45.64a3,3,0,0,1-1.91.78c-1.54-.24-3-.91-3.24-2.66S87.38,31.91,86,31.4a16.1,16.1,0,0,1-2.11-1c.49-.49,1,.32,1.44-.13l2.29.28A2,2,0,0,1,89,31.16Z"/><path class="cls-116" d="M88,38.21c-.22-.9.52-1.31,1-1.71s.71.31,1.08.49c.75.38,1.13,1.26,2,1.45.3.07.63.28.26.69s-.09.71.21.73c1.19.07.92.81.79,1.52a1.44,1.44,0,0,0,0,.46,2.42,2.42,0,0,1-1.64-1.06,3.67,3.67,0,0,0-2.07-1.45C89,39.08,88.27,39,88,38.21Z"/><path class="cls-117" d="M88,38.21a15.47,15.47,0,0,0,2.14,1,2.91,2.91,0,0,1,1.83,1.41,5.32,5.32,0,0,0,1.47,1.25c.77.71,0,.89-.41,1.18-.47-.55-.69-1.37-1.58-1.49a.34.34,0,0,1-.2-.19c-.23-.59-.68-.43-1.15-.55-1-.28-1.51.38-2.21.68.49-.51.07-1.18.3-1.78.13-.34-.62-.71-.39-1.26Z"/><path class="cls-118" d="M88.35,48.19l.56.78a.43.43,0,0,1,0,.57c1,.23,1.08,1.11,1.43,1.82-.75-.31-1.56-.54-1.86-1.43.11-.38.21-.72-.38-.82-.22,0-.42-.27-.62-.42s-.82-.3-.66-.66.67-.21,1-.06Z"/><path class="cls-119" d="M92.75,58.09l-1.54,1.14c0-1,.65-1.5,1.34-2,.33-.23.7-.41,1-.62s.79-.07,1.17.06a6.14,6.14,0,0,1-2,1.42Z"/><path class="cls-120" d="M84.83,50.69c-.53,0-.92.11-.62.78-.7-.28-1.57-.12-2.11-.81-.1-.22-.3-.46-.28-.67s.43-.81.62-.5C83,50.43,84,50.47,84.83,50.69Z"/><path class="cls-84" d="M92.76,58.1c.51-.69,1.36-.9,2-1.42.64-.09,1.08-.7,1.76-.7.18,0,.36.16.11.26a9.68,9.68,0,0,0-3.35,1.93C93.11,58.33,92.92,58.2,92.76,58.1Z"/><path class="cls-9" d="M41.49,61.24a.66.66,0,0,1,.58.41,13.17,13.17,0,0,0,1.56,2.16,2.71,2.71,0,0,0,1.09.84c.63.22,1.37.4,1.54,1.25a.62.62,0,0,0,.6.52c-.11.79.12,1.13,1,.88s1.44.39,2.21.28c.22,0,.2.28.25.45a.51.51,0,0,1-.27.56c-.67.48-1.56.88-.8,2-.72.93.47,1.49.44,2.29,0,.5-.08,1,0,1.49a7.94,7.94,0,0,1-1.69,5,2.07,2.07,0,0,1-.69.62c-.27.17-.71.31-.7.71s0,.78-.58.55c-.1,0-.31.08-.4.19-.58.64-.77.36-.81-.32a6.31,6.31,0,0,0,2.28-3.72c.06-1.4-.26-1.64-1.46-1.11-.88.38-1.22.16-1.23-.82a3.57,3.57,0,0,1,.12-1.12,2.91,2.91,0,0,0,.24-2.89.89.89,0,0,1,.35-1.35,2,2,0,0,1,.58-.31c.39.17.57,0,.48-.38-.4-1.68-.79-3.35-2.37-4.45a7.86,7.86,0,0,1-2.37-3.08A.49.49,0,0,1,41.49,61.24Z"/><path class="cls-121" d="M45.21,70.17c-.51.34-.56.69-.23,1.25a2.45,2.45,0,0,1-.31,2.77c-.37-.3-.07-.81-.37-1.2a18.58,18.58,0,0,1-1.49,1.34c-.49.4-.93.4-1.19-.28-.06-.73-.62-1.2-1-1.77a1.36,1.36,0,0,1-.33-.73A2.45,2.45,0,0,1,40,70a2.87,2.87,0,0,1-1.84-.39.68.68,0,0,0-1,.14l-.63.5c-1-.12-1.83-.9-2.87-1a.61.61,0,0,0,0-.18c0-.34.5-.72,0-1s-.61.29-.94.42a.91.91,0,0,1-.33-1c.37-.54.11-1-.29-1.33a1.17,1.17,0,0,1-.39-1.58,2.08,2.08,0,0,1,1.47-.41c.34.16.3.5.42.93.25-.8.7-.89,1.27-.49a4.5,4.5,0,0,0,2.37,1.16,3.24,3.24,0,0,1,2,1.41,1.63,1.63,0,0,0,1.09.66,4.28,4.28,0,0,1,2.09,1.1,1.77,1.77,0,0,0,1.36.49C44.43,69.35,45.09,69.34,45.21,70.17Z"/><path class="cls-122" d="M34.84,64.63c-.4-.13-.82-.3-.9.36,0,.21.09.5-.25.47s-.3-.3-.32-.52,0-.49,0-.74a19.26,19.26,0,0,1-1.68-1.82,2.47,2.47,0,0,1-.49-2.87,9.29,9.29,0,0,0,.52-2.29c.15-.61-.38-1.06-.73-1.52.11-.53.57-.32.88-.4,1.08-.29,1.18-.58.37-1.5a5.82,5.82,0,0,1,3.34.26c1.08.29,1.87,1.12,2.88,1.53a12.19,12.19,0,0,0,1.52,2c.4.5-.12.28-.26.35-.41.2-.56-.17-.77-.38a9,9,0,0,0-3.06-2.06,5.34,5.34,0,0,0-3,.09c-.42.08-.39.48-.26.79.39.91.45,1.92.76,2.83a4.75,4.75,0,0,0,2,2.23c.47.32.87-.2,1.24-.48a2.25,2.25,0,0,1,3.44.52c-.66.32-.46.94-.51,1.47a7.28,7.28,0,0,0-3.23,1.28A2.26,2.26,0,0,1,34.84,64.63Z"/><path class="cls-123" d="M41.62,74.05c.39.44.77.51,1.18,0a2.21,2.21,0,0,1,.57-.49c.45-.26.64-1.15,1.17-.89s0,1,.13,1.51,0,1-.05,1.51c0,.21-.07.47.21.56a.49.49,0,0,0,.6-.17c.48-.89,1.31-.42,1.73-.19s.12,1-.11,1.46c0-.27-.13-.61-.4-.56-.9.19-1.66-.47-2.53-.38s-.82.76-1.1,1.23c-.11.2,0,.52-.22.69a.83.83,0,0,0-1.19,0,.26.26,0,0,1-.24-.06c-.18-.33-.54-.51-.74-.82s.58-.79,0-1.09-.61.33-.9.54c-1,.72-1.59.67-2.34-.23A1.35,1.35,0,0,0,37,76.3l-.09-.1c.5-.35.6-1.1,1.46-1.17.44,0,.66-.92,1.38-1,.22,0-.39-.33-.3-.71.6-.16.93.24,1.34.59C41,74.05,41.22,74.84,41.62,74.05Z"/><path class="cls-124" d="M28.1,56c.69.17.75.86,1.07,1.33,1.43,1,1.1,2.06-.86,3-.56,0-1.13.09-1.69.1s-1,.1-.43.81c-.84,0-1.2-.81-1.92-.85l-.72-.3c.68-.38,1.55-.51,1.83-1.42.07-.24.32-.22.48-.14a.52.52,0,0,0,.82-.42c0-.22.49-.84-.31-.87a.24.24,0,0,1-.15-.38,1.19,1.19,0,0,1,.89-.62C27.45,56.27,27.9,56.54,28.1,56Z"/><path class="cls-125" d="M52,52l.66-2.27c.4,1.38,0,2.73-.13,4.1a.22.22,0,0,1-.09.16,1.54,1.54,0,0,0-.69,2.11c-.59-.35-.47-.76-.74-1.22-.09.85-.5,1-1.09.9a.29.29,0,0,0-.26.09c-.8,1.57-2.28,1.87-3.82,2-.2-.13-.19-.26,0-.38.21-.46-.12-1,.11-1.42.41-.4.41.19.68.29,0-1.1,1-1.2,1.72-1.49s1.12-.89,1.94-.64c.18.05.36-.32.53-.51A9,9,0,0,0,52,52Z"/><path class="cls-126" d="M31,55.7c1,.79,1.22,1.64.63,3.18-.45,1.15-.73,2.26.2,3.31.49.54,1,1.07,1.52,1.58.16.16.27.27,0,.43l-1.54.32c.73-1.06.72-1.1-.63-1.57-.19-.07-.41-.16-.32-.38a1.52,1.52,0,0,0-.21-1.32c-.57-1.18.45-2.08.49-3.17,0-.69.45-1.37-.17-2C30.9,56,31,55.83,31,55.7Z"/><path class="cls-127" d="M37.18,69.72c0-.75.32-.73.86-.45a2.54,2.54,0,0,0,2.13.4c0,.6.1,1.24.14,1.88-.66-.55-1.15.2-1.74.26-.32,0-.64.12-.62-.26C38,70.8,37.27,70.39,37.18,69.72Z"/><path class="cls-123" d="M41.6,79.44c-.73,1-1.69.54-2.44.21s-1.79-.45-1.95-1.72a5.48,5.48,0,0,0-.56-1.46c-.1-.2.11-.24.27-.27h0c.59.55,1,1.32,1.85,1.55A1.43,1.43,0,0,0,41,78.3a.27.27,0,0,1,.42,0l0,0A2,2,0,0,1,41.6,79.44Z"/><path class="cls-128" d="M33.68,69.19c1.17-.24,2,.56,2.87,1-.4.43-.89.11-1.34.17s-.94-.14-1.39.12c-.18.11-.38.3-.59.1s-.12-.46,0-.69S33.54,69.44,33.68,69.19Z"/><path class="cls-69" d="M46.12,56c-.14.5.14,1.07-.27,1.53a5.42,5.42,0,0,0-.25-1.09c-.22-.48-.49-.89-1.15-.49-.81.48-1.22-.33-1.77-.65a.34.34,0,0,0,.39-.36,5,5,0,0,1,2.82.58A.41.41,0,0,1,46.12,56Z"/><path class="cls-129" d="M32.48,67.43c.38.24.19.67.33,1a6.26,6.26,0,0,0-.56,2.19C31.4,69.38,31.46,68.67,32.48,67.43Z"/><path class="cls-130" d="M41.6,79.44a.94.94,0,0,1-.14-1.14c.69-.79.94-.78,1.34,0C42.5,78.82,42.31,79.42,41.6,79.44Z"/><path class="cls-131" d="M88.79,67.93c-.3-.6.06-.83.56-.89a9.33,9.33,0,0,1,1.17,0c-.08.33-.43.32-.59.52A1.16,1.16,0,0,1,88.79,67.93Z"/><path class="cls-9" d="M57,74.6h.11c.44.19.83.5,1.37.39s.32.47.53.67c-.13.08-.29.17-.28.34,0,.94-.48,1.15-1.29,1h0c-.42.16-.74-.08-1.16-.42.1.58.62,1.23-.42,1.2-.1,0-.82.36-.78.94s-.52.67-.95.86c-.65.28-.48-.25-.62-.52s-.22-.21-.34-.32a2.13,2.13,0,0,1-.69-2.33A2.33,2.33,0,0,1,53,75.25,4.68,4.68,0,0,1,57,74.6Z"/><path class="cls-1" d="M52.45,76.38a6.75,6.75,0,0,0,.69,2.33c.06.5-.24.68-.66.74l-1.12.14c-.16-.21-.47-.34-.29-.7A7.8,7.8,0,0,1,52.45,76.38Z"/><path class="cls-39" d="M81.86,12.55c0-.22-.5-.05-.35-.4a1.27,1.27,0,0,1,.24-.28c.11.18.38.25.37.5A.18.18,0,0,1,81.86,12.55Z"/><path class="cls-132" d="M57.41,77c1.05.2.92-1,1.57-1.3a1.11,1.11,0,0,0-.1.7.87.87,0,0,1-.51.9A.73.73,0,0,1,57.41,77Z"/><path class="cls-133" d="M19,58.3a1.56,1.56,0,0,1,1.4.93,3.2,3.2,0,0,0,1,1.1c.63.53.9,1.39,1.62,1.87.21.14.29.53.66.26l.29.84c-.32.27-.17.58,0,.87.34.77-.13.92-.68.77a3.16,3.16,0,0,1-2.5-2c0-.16-.07-.4-.23-.36-.62.13-.78-.11-.69-.68,0,0-.26-.06-.41-.1Z"/><path class="cls-134" d="M57,74.6c-.52-.14-.73,0-.36.56a2,2,0,0,1-.84-.43c-.26-.19-.78-.31-.85-.16-.43.87-1.31.33-1.88.68.14-.58.59-.69,1.09-.86.28-.1.7,0,.88-.4l.56-.14C55.91,74.34,56.85,73.71,57,74.6Z"/><path class="cls-9" d="M51.61,67.55c0,.19,0,.38,0,.57s-.05.41-.27.43-.32-.32-.42-.52a.3.3,0,0,1,.16-.46A2.42,2.42,0,0,1,51.61,67.55Z"/><path class="cls-135" d="M64.18,64.36c.41-2.84,1.46-5.25,4.2-6.62a3,3,0,0,0,1.48-1.4c.15,0,.34.06.45,0,1-.67,1.3.14,1.62.83.56.75.44,1.1-.53,1.58a.32.32,0,0,1-.25-.35c0-.84-.62-.74-1.13-.65a3,3,0,0,0-1.66,1.2A9.25,9.25,0,0,0,67,60.4a1.65,1.65,0,0,0-.39,1.82,1.46,1.46,0,0,1-.13,1.19c-.69,1.72-.92,3.42.23,5.06.93.59,1.69,1.57,3,1,.5-.21.39.32.29.52-.38.68-1,.56-1.58.32a11.81,11.81,0,0,1-4.58-3.12C63.65,66.23,64.14,65.31,64.18,64.36Z"/><path class="cls-1" d="M71.29,58.68c.61-.34,1-.75.64-1.52a.58.58,0,0,0,.19,0c1.32-1,2.13-1,3.37.08a1,1,0,0,1,.29,1.17c-2.11-1-3.69-.4-4.15,1.65a28.76,28.76,0,0,0-2,2.32,5.54,5.54,0,0,0-1,4c.07.45.1.77-.48.77a.89.89,0,0,1-.47-.94,8.22,8.22,0,0,1,.76-3.75,5.1,5.1,0,0,1,1.71-2.08c.32-.24.32-.65.48-1S70.79,58.68,71.29,58.68Z"/><path class="cls-136" d="M74.54,64c-.66-.58-1.45,0-2.19-.27-.91-.35-1-.35-.44-1.18.67-.26,1.27-1.18,2-.32C74.4,62.69,74.92,63.22,74.54,64Z"/><path class="cls-137" d="M68.65,62.41a10.54,10.54,0,0,0-.73,3.69,3.91,3.91,0,0,0,.21,1.06c.54.89.54.88-.49,1a7.3,7.3,0,0,0-.91.27c-1.21-.8-1.18-2-1-3.24a5.41,5.41,0,0,1,.61-2,1.32,1.32,0,0,0,1-.38A1.46,1.46,0,0,1,68.65,62.41Z"/><path class="cls-1" d="M68.64,67.22c.43.28.66.48.72.91C68.84,68,68.82,67.68,68.64,67.22Z"/><path class="cls-5" d="M89,31.16l-1.31-.62C88.32,30.27,88.67,30.67,89,31.16Z"/><path class="cls-138" d="M40,61.55a4.81,4.81,0,0,0-.67-.52c-1.32-.68-1.8-.62-2.65.18-1.06,1-1.34.78-2.31-.32a5.24,5.24,0,0,1-1.53-3.3,5,5,0,0,0-.4-1.05c-.35-1-.22-1.14.82-1.35,2.65-.53,4.54.67,6.16,2.57a1.2,1.2,0,0,0,.32.17c.13.85,1,1.39.91,2.33a1.2,1.2,0,0,1,.1,1.25C40.51,61.93,40.23,62,40,61.55Z"/><path class="cls-139" d="M40,61.55c.34.18.59.21.59-.29,0-.33,0-.67.06-1,.66,0,.59.65.89,1a6,6,0,0,0,2.81,3.63,2.06,2.06,0,0,1,.77.94,16.47,16.47,0,0,1,1.38,3.33c.08.34-.12.6-.14.91a.29.29,0,0,1-.34.27c-.27,0-.15-.39-.35-.52-1.27-.64-2.82-.72-3.85-1.9a2.71,2.71,0,0,0-1.61-.76c-.82-.16-1-.56-.65-1.28s0-1.25,0-1.87a4.75,4.75,0,0,1,0-1.13C39.32,62.31,38.69,61.62,40,61.55Z"/><path class="cls-75" d="M88,53.37c-.81.39-.68-.43-1.18-.81.73.06.84.6,1.2.78Z"/><path class="cls-2" d="M69.22,31.4c-.68-1.29-1.79-.67-2.77-.6a4.78,4.78,0,0,1-.84.08c0-.86.84-.45,1.24-.62a.86.86,0,0,0,.62-.78c.36.19.66.36,1,.49s.66.1.8-.28S69.68,29,69,29c-.2,0-.21-.26-.13-.47s.49-.41.78-.45.64.89.5,1.17C69.77,29.91,69.76,30.77,69.22,31.4Z"/><path class="cls-86" d="M59.3,30.46c.22.65.78.32,1.2.43s1.29.15.5.95c-.27.27,0,.4.11.56a1.43,1.43,0,0,1,.11,1.27c-.25.68-.67.77-1.19.27a3,3,0,0,0-.55-.52.82.82,0,0,0-1,.16c-.36.36-.08.65.13.91s.71.77,1.07,1.16c-.32.77-.73.34-1.07.05a33.44,33.44,0,0,1-2.44-2.86c-.13-.28-.16-.65.14-.74.77-.21.95-.93,1.38-1.43A1,1,0,0,1,59.3,30.46Z"/><path class="cls-140" d="M59.3,30.46a1.51,1.51,0,0,0-2,1.21c-.11.41-.09.63-.6.51s-.48.34-.55.66A1.59,1.59,0,0,0,54.47,32l-.21-.21c0-.45.33-.3.55-.36s.53,0,.44-.37l-.18-.2c-.09-.3.25-.47.21-.75.42-.58.78-1,1.48-.21.43.5,1.05-.17,1.6-.07.28-.09.36-.41.59-.55h.19a1.7,1.7,0,0,0,.38.83C59.73,30.39,59.47,30.41,59.3,30.46Z"/><path class="cls-94" d="M41.23,32.1c-.52,0-.12-.35-.09-.43.25-.84-.27-1.46-.65-2.07s-.25.45-.57.21a2.43,2.43,0,0,0-2.74-2.48.62.62,0,0,1,.46-.54,2.86,2.86,0,0,1,3.65,2.12c0,.05.15.08.23.12l0,0a6,6,0,0,1,.29,2.49C41.85,31.86,41.78,32.31,41.23,32.1Z"/><path class="cls-141" d="M46.45,36.31c-.15-.14,0-.84-.53-.26a1.19,1.19,0,0,1-.49.28.34.34,0,0,1-.4-.18c-.09-.14,0-.22.15-.26.32-.1.33-.29.1-.47s-.36-.28-.37.17c0,.17-.49.08-.48-.12,0-.47-.29-1.08.6-1.25s.74-.93.59-1.59c.13.13.25.27.37.4a5.16,5.16,0,0,1,.68,2.69A.81.81,0,0,1,46.45,36.31Z"/><path class="cls-142" d="M41.23,32.1c.58-.11.44-.59.37-.9a8,8,0,0,1-.05-2.13,7.87,7.87,0,0,1,1.85,1.26,1,1,0,0,0,1.52-.08c.32.44.68.85.52,1.44-.1.08-.25.13-.29.23-.26.55-.49.84-1.28.7s-1.77-.17-2.65-.34A1.09,1.09,0,0,1,41.23,32.1Z"/><path class="cls-89" d="M67.64,21.59a.61.61,0,0,1-.34-.41c0-.25,0-.53.26-.67s.43-.33.69-.15a.6.6,0,0,1,.2.4c0,.26,0,.53-.38.52S67.74,21.43,67.64,21.59Z"/><path class="cls-86" d="M59,29.29c-.05.34.06.85-.59.55-.11-.26-.74-.39-.41-.7s.48-1,1.11-1.09c.08,0,.21,0,.24.08a.6.6,0,0,1,0,.54C59.2,28.9,58.63,28.86,59,29.29Z"/><path class="cls-3" d="M55.25,31.07c.19.22.33.39-.12.49-.29.06-.64,0-.87.24-.31-.4,0-.47.3-.54S55.07,31.32,55.25,31.07Z"/><path class="cls-3" d="M55.28,30.12c.24.33-.1.51-.21.75-.14,0-.29.17-.41,0s0-.26.14-.36Z"/><path class="cls-102" d="M28.93,27.81l-1.14-.43C28.46,26.88,28.7,27,28.93,27.81Z"/><path class="cls-143" d="M46.12,56c-.36-.56-1-.47-1.51-.63L43.07,55c-.44-.15-.69-.58-1.29-.57s-.62-.89-1.06-1.3c-.86-.81-2-1.42-2.23-2.78a4.79,4.79,0,0,1,.26-3.19c.57.65.52,1.66,1.33,2.17.18-.18.27-.49.49-.71s.23-.25.4-.2c.79.2.8.21,1-.58.07-.25.12-.5.41-.59.83.46.48,1.1.13,1.59s-.5.87-.77,1.3c-.13.2-.2.4.06.56a1.13,1.13,0,0,0,.65.14c.67-.06.89.3.91.92a2.39,2.39,0,0,0,2.9,2c.32-.1.26-.3.24-.52a1.17,1.17,0,0,1,.56-.34c.73-.33,1.61,0,2.3-.57.13-.1.36.06.52.17.3.37.63.45,1,.09.13-.13.28-.25.48-.15L52,52a4.24,4.24,0,0,1-1.74,2.66.3.3,0,0,1-.48-.08c-.07-.11-.24-.37-.32-.14-.36,1-1.37.64-2,1.06-.27.18-.58.31-.57.68s.21.62-.23.66-.3-.44-.43-.69Z"/><path class="cls-144" d="M48.84,43.68a.86.86,0,0,1,.48,1.17c-.2.45-.44,1-1.12.72-.77-1.55-2.17-1-3.31-.85a3.23,3.23,0,0,1-2-.12c-.56-.08-1.12-.14-1.68-.25s-.47-1.49-.09-2c.12-.16.83-.18.14-.56-.09-.05,0-.14.12-.18a.34.34,0,0,1,.42,0,1.73,1.73,0,0,0,2.15.11c.82.45,1.78.46,2.62.84.67.29,1.42.4,1.83,1.11C48.48,43.86,48.67,43.55,48.84,43.68Z"/><path class="cls-145" d="M42.89,44.6s0-.07.06-.07c1.54.1,3-.35,4.57-.26.67,0,.5.83.68,1.3h0c-.37.54-.18.87.4,1.07.35.12.72.19,1.07.33a11.7,11.7,0,0,1,1.42,2.88,2.15,2.15,0,0,0,.49,1c.59.54-.14,1-.18,1.55-1,1-1.12,1-1.56.13,0-.35.3-.47.46-.69a.82.82,0,0,0,.27-.86l-.09-.23a4.13,4.13,0,0,0-.85-1.25c-.07-.11-.17-.3-.11-.35.55-.43.08-.68-.17-.94a1,1,0,0,0-1.25-.33c-.53.24-1.12.57-1.63-.08a1.47,1.47,0,0,1-.1-.56c-.08-1.64-.59-1.95-2.11-1.31-.12,0-.28,0-.33-.1-.17-.32-.31-.54-.61-.11a.23.23,0,0,1-.39,0c-.25-.35,0-.73,0-1.09Z"/><path class="cls-146" d="M42.4,47.28a2.84,2.84,0,0,1-1.29,2.12c-.28-.23,0-.6-.22-.9l-.78,1.18a3.55,3.55,0,0,1-1.36-2.55c0-.25,0-.5,0-.75,1.08-.13,1.5-1.41,2.71-1.36.11.17,0,.39-.22.61s-.14.4.17.45c.39.54-.23,1-.16,1.49.35-.09.42-.52.77-.59C42.26,47,42.44,47,42.4,47.28Z"/><path class="cls-147" d="M48.84,43.68c-.22,0-.31.38-.69,0a6.85,6.85,0,0,0-3.33-1.32c-.41-.09-.85,0-.87-.62,1.39-.49,2.48.35,3.61.89C48,42.88,48.82,42.84,48.84,43.68Z"/><path class="cls-144" d="M42.4,47.28a.36.36,0,0,0-.38-.2c-.43-.26,0-.4.08-.58.3-.2.18-.49.16-.76a1.06,1.06,0,0,1,.23-1,.43.43,0,0,0,.4-.18c.32.35.08.77.14,1.16a5,5,0,0,1-1.35,5.12c-.42-.06-.48-.43-.29-.62.46-.45.42-1.14,1-1.57A.92.92,0,0,0,42.4,47.28Z"/><path class="cls-148" d="M45.85,40.65a3.64,3.64,0,0,1,2.92,1.28c.19.24.45.6.19.84s-.47-.19-.64-.36A7.79,7.79,0,0,0,45.85,40.65Z"/><path class="cls-149" d="M42.2,46.67c-.13.11-.41.14-.18.41-.27.39-.48,1.13-1,.89s.15-.82.24-1.26c0-.21.12-.42.18-.63l.63-1A1.31,1.31,0,0,1,42.2,46.67Z"/><path class="cls-144" d="M49.67,47a6.87,6.87,0,0,1-1.2-.11c-.82-.2-.89-.6-.27-1.29C48.14,46.61,49.26,46.42,49.67,47Z"/><path class="cls-146" d="M42.2,46.67c-.2-.51.21-1.06-.12-1.56a.35.35,0,0,1,.41-.32A4.17,4.17,0,0,0,42.55,46C42.64,46.31,42.72,46.66,42.2,46.67Z"/><path class="cls-150" d="M41.09,35A1.62,1.62,0,0,1,43,36,2.18,2.18,0,0,1,41.09,35Z"/><path class="cls-151" d="M88.91,49.54V49c.35-.35.65,0,1,.09a13.14,13.14,0,0,0,3.69.59c-.16,1-.35,1.08-1.31.87C91.11,50.27,90.13,49.5,88.91,49.54Z"/><path class="cls-152" d="M39.53,62.86c.45.82.13,1.78.46,2.64,0,.1-.07.3-.15.42-.47.66-.36,1,.44,1a2.89,2.89,0,0,1,1.87,1A3.32,3.32,0,0,0,44.28,69c.59,0,.92.5,1.34.82,0,.24-.13.41-.41.37a1.38,1.38,0,0,0-1.67-.54.82.82,0,0,1-.95-.24A3.27,3.27,0,0,0,39.88,68c-.29,0-.37-.22-.47-.4a4.76,4.76,0,0,0-3.21-2,2.32,2.32,0,0,1-1.36-1c1.26-.54,2.38-1.37,3.7-1.79A1.08,1.08,0,0,1,39.53,62.86Z"/><path class="cls-153" d="M36.8,68.81c-.08.27-.23.53-.55.54s-.4-.08-.38-.33a.52.52,0,0,1,.51-.48C36.56,68.53,36.77,68.51,36.8,68.81Z"/><path class="cls-154" d="M38.79,77.82a2.06,2.06,0,0,1-1.85-1.61c.28-.17.45,0,.63.2.72.9,1.42,1,2.23.2.36-.35.59-1,1.17-.48s-.18.9-.26,1.36A1.38,1.38,0,0,1,38.79,77.82Z"/><path class="cls-6" d="M38.79,77.82a4,4,0,0,0,1.92-.33c.43.09.81.22.73.79-.63.1-.24.71-.57,1.06-.34-.89-1.3-.66-1.86-.75C37.87,78.43,38.65,78.13,38.79,77.82Z"/><path class="cls-6" d="M41.75,77.31c.19-.34-.37-.58,0-.89a.3.3,0,0,1,.41.12C42.33,76.88,42.28,77.16,41.75,77.31Z"/><path class="cls-155" d="M68.65,62.41a3,3,0,0,0-1.47.94c-.32.34-.6.29-.86-.07.08-.37.35-.68,0-1.13a1.16,1.16,0,0,1,.11-1.33,7.46,7.46,0,0,1,1.79-2A3.2,3.2,0,0,1,70.4,59.9c.27.23,0,.45-.13.65A6,6,0,0,0,68.65,62.41Z"/><path class="cls-156" d="M70.27,60.55c0-.21.2-.38-.14-.63a11.09,11.09,0,0,0-1.89-1.15,4.2,4.2,0,0,1,1.58-1.27c.57-.3,1,.39,1.48,0,0,0,.2.21.16.39s-.12.55-.17.83C70.69,59.16,70.93,60.1,70.27,60.55Z"/><path class="cls-157" d="M44.94,66.91c-.13,0-.29-.07-.37,0-1,.62-.91-.15-1-.72-.05-.23-.15-.46.13-.57a.41.41,0,0,1,.55.25c.11.47.63.62.72,1.07Z"/><path class="cls-157" d="M44.93,66.92c.48.26.16.76.32,1.11a.75.75,0,0,1-.31-1.12Z"/><path class="cls-158" d="M41.68,50.89a1.3,1.3,0,0,1,.53-1.15,2.36,2.36,0,0,0,.72-2.17,8.34,8.34,0,0,1,.1-1.8l.59-.65c.28.17.2.62.54.69.21.38-.12.84.17,1.22s.9.63.82,1.28a1,1,0,0,1-.48.56c-.47.22-.19.51-.09.77s.32.46.66.3.51-.29.77,0a6.12,6.12,0,0,1,.08,1.6,1.33,1.33,0,0,0,.48,1.68c.41.19.61.41.06.69a3.22,3.22,0,0,1-3.55-1.5.5.5,0,0,1,0-.27c.33-.87.14-1.28-.88-1C42.05,51.11,41.85,51,41.68,50.89Z"/><path class="cls-159" d="M46.57,53.2c-1.1-.15-.94-.85-.69-1.58.4-.28.68.17,1.06.19.18-.39,0-.61-.35-.79a.78.78,0,0,1-.44-.93.67.67,0,0,1,.46-.46.76.76,0,0,1,.69.38c.22.26.36.09.52-.07a.71.71,0,0,0,.5-.66,14.68,14.68,0,0,0-3.23-.72c-.09,0-.11-.14-.06-.23,0-.65-.69-.73-.94-1.16a.78.78,0,0,1,0-.56.69.69,0,0,1,.73-.43c.27,0,.29.3.24.53a.5.5,0,0,0,.24.56c.26.5.48.1.72,0,.64-.29.42.36.61.56A1.09,1.09,0,0,0,48,47.64c.75-.63,1.13,0,1.54.37s.86.62.16,1.1a1.78,1.78,0,0,0,.12.35,13,13,0,0,1,.89,1.38h0a1.83,1.83,0,0,1-.25,1.1l-.59.58-2.64.53Z"/><path class="cls-160" d="M46.6,47.8c-.26,0-.12-.65-.58-.39-.25-.35-.5-.89-.78,0-.61-.2-.61-.2-.39-1-.67.28-.67.28-.76.79a1.35,1.35,0,0,1,.07-1.36c.51-.43,1.07-.76,1.73-.39a1.51,1.51,0,0,1,.71,1.72A3.64,3.64,0,0,0,46.6,47.8Z"/><path class="cls-143" d="M50.69,50.84a2.88,2.88,0,0,1-.89-1.38A1.92,1.92,0,0,1,50.69,50.84Z"/><path class="cls-143" d="M50.43,51.94c0-.38-.11-.79.25-1.1C51,51.31,50.84,51.65,50.43,51.94Z"/><path class="cls-161" d="M45,48.33a12.15,12.15,0,0,1,3.57.85c-.23.19.14,1-.71.77-.39,0-.68-.52-1.13-.21a.63.63,0,0,0-.45.39c-.22.08-.27-.12-.38-.23a1.23,1.23,0,0,0-.28,0c-.32.15-.56.74-.94.44A2,2,0,0,1,44.08,49C44,48.29,44.93,48.86,45,48.33Z"/><path class="cls-162" d="M45.93,49.9l.38.23c-.08.27,0,.61.24.63,1,.09.67.81.66,1.38-.54.08-.86-.44-1.33-.52C45.89,51.05,45.91,50.47,45.93,49.9Z"/><path class="cls-163" d="M45.24,47.39c.09-.31-.44-.84.19-.93s.57.51.59.95c-.16.17-.19.54-.48.51S45.3,47.6,45.24,47.39Z"/><path class="cls-164" d="M46.76,49.74c.68-1.54.72.32,1.13.21-.06.23.07.57-.23.66s-.29-.26-.43-.41S46.92,49.9,46.76,49.74Z"/></g></g></svg>