<svg xmlns="http://www.w3.org/2000/svg" viewBox="0 0 726.14 173.26"><defs><style>.cls-1{fill:#2d2b2c;}</style></defs><g id="Capa_2" data-name="Capa 2"><g id="Capa_1-2" data-name="Capa 1"><path class="cls-1" d="M93.91,12.26a17,17,0,0,1,.47-3.77,14.55,14.55,0,0,1,1.43-3.76A8.94,8.94,0,0,1,98.3,1.84,5.85,5.85,0,0,1,101.94.68a8.08,8.08,0,0,1-.62,3.15c-.42,1-.89,1.93-1.4,2.86a30.94,30.94,0,0,0-1.4,2.83,7.5,7.5,0,0,0-.63,3.05,2,2,0,0,0,.25,1.06,6.44,6.44,0,0,0,.59.75,4.84,4.84,0,0,1,.6.77,2.15,2.15,0,0,1,.24,1.09q0,.32,0,.69a2.07,2.07,0,0,1-.15.65,1,1,0,0,1-.5.47,1.61,1.61,0,0,1-1,.06,6.37,6.37,0,0,1-2.24-.75,3,3,0,0,1-1.18-1.24A5.06,5.06,0,0,1,94,14.38C93.94,13.71,93.91,13,93.91,12.26Zm11.83-3.61a12.56,12.56,0,0,1,.43-3.33,7.74,7.74,0,0,1,1.37-2.77,6.5,6.5,0,0,1,2.4-1.87A8.13,8.13,0,0,1,113.39,0a4,4,0,0,1-.9,2.71c-.6.68-1.24,1.43-1.9,2.24A9.09,9.09,0,0,0,109,8.06a12.22,12.22,0,0,0,0,5.32.86.86,0,0,1-.31.5c-.21.21-.37.31-.5.31a1.84,1.84,0,0,1-1.55-.65,3.82,3.82,0,0,1-.69-1.56,9.33,9.33,0,0,1-.18-1.84Z"/><path class="cls-1" d="M129,56a21.68,21.68,0,0,0-3.8-.34,19.33,19.33,0,0,1-4.07-.47A6.2,6.2,0,0,1,118,53.55c-.81-.81-1.09-2.1-.84-3.89,0-.12-.14-.42-.28-.9s-.32-1-.5-1.49-.37-1-.53-1.47a3.34,3.34,0,0,1-.25-.87,1.32,1.32,0,0,1,.16-.84,2.57,2.57,0,0,1,.59-.74,2.52,2.52,0,0,1,.81-.53,3.3,3.3,0,0,1,.8-.25,7.1,7.1,0,0,1,.22.84,11.33,11.33,0,0,0,.44,1.37,7.5,7.5,0,0,0,.62,1.27c.23.38.47.56.72.56a.69.69,0,0,0,.49-.25,5.34,5.34,0,0,0,.72-1.08c.31-.57.72-1.37,1.24-2.43s1.23-2.47,2.12-4.23,2-3.93,3.36-6.51,3-5.66,5-9.27a10.69,10.69,0,0,1,1.93-2.33c.95-.94,2.07-1.93,3.36-3s2.68-2.12,4.17-3.18,3-2,4.39-2.86a32.55,32.55,0,0,1,4-2.05,8.47,8.47,0,0,1,3.11-.78l1.12,0q.63,0,.81.78c0,.21,0,.66,0,1.37s0,1.16,0,1.37a10.58,10.58,0,0,1-.72,4,13.39,13.39,0,0,1-1.93,3.3,21.12,21.12,0,0,1-2.8,2.89q-1.59,1.38-3.33,2.8a.81.81,0,0,1,0,.19,1.07,1.07,0,0,0,0,.25,7.89,7.89,0,0,0,.74.93,23.46,23.46,0,0,1,1.65,2.24,19.41,19.41,0,0,1,1.65,3.12,8.87,8.87,0,0,1,.75,3.54A14.42,14.42,0,0,1,149.64,43a26.64,26.64,0,0,1-5.6,6.57,30.24,30.24,0,0,1-7.41,4.67A18.86,18.86,0,0,1,129,56Zm-5.6-5.6a1.31,1.31,0,0,0,.65,1.24,3.87,3.87,0,0,0,1.53.47,10.12,10.12,0,0,0,1.74,0c.58,0,1-.06,1.24-.06A19.83,19.83,0,0,0,135.48,51a17.28,17.28,0,0,0,5.45-3.21,19.89,19.89,0,0,0,4.11-5,34.17,34.17,0,0,0,2.89-6.47c0-.08,0-.28,0-.59s0-.51,0-.59a8.11,8.11,0,0,0-.68-3.67,4.51,4.51,0,0,0-1.93-2,7.83,7.83,0,0,0-3-.81c-1.18-.1-2.48-.2-3.89-.28a2.17,2.17,0,0,1-.9-.66,2.27,2.27,0,0,1-.66-.9,1.69,1.69,0,0,1,.22-.9,1.61,1.61,0,0,1,.53-.72,15,15,0,0,0,5-1.05,17.09,17.09,0,0,0,4.67-2.71,14.63,14.63,0,0,0,3.42-4,9.73,9.73,0,0,0,1.34-5A9.32,9.32,0,0,0,147.34,14a27.92,27.92,0,0,0-4.86,3.77,44.06,44.06,0,0,0-4.26,4.73,31.4,31.4,0,0,0-2.92,4.35c-.3.58-.75,1.47-1.37,2.65s-1.33,2.52-2.12,4-1.61,3.07-2.46,4.73l-2.43,4.73c-.76,1.5-1.45,2.84-2,4.05l-1.34,2.67a1.32,1.32,0,0,0-.09.38A3.32,3.32,0,0,0,123.41,50.41Z"/><path class="cls-1" d="M158.76,52.77a9.54,9.54,0,0,1-.78-5.94,13.42,13.42,0,0,1,2.27-5.23,16.45,16.45,0,0,1,4-3.92,14,14,0,0,1,4.33-2.11,4.29,4.29,0,0,1,3.36.25c.89.51,1.23,1.56,1,3.14a6.09,6.09,0,0,1-1.5,4.11,23,23,0,0,1-3.26,3.14c-1.19.93-2.27,1.77-3.27,2.52s-1.49,1.45-1.49,2.12c0,.33.21.6.65.8a5.67,5.67,0,0,0,1.49.47,13.8,13.8,0,0,0,1.68.22c.56,0,1,.08,1.22.12Q174.19,51.29,177,51a9.83,9.83,0,0,1,3.58,0c.5.21.41.56-.28,1.06a12.44,12.44,0,0,1-3.08,1.49,36.21,36.21,0,0,1-4.79,1.34,30.94,30.94,0,0,1-5.41.69,16.41,16.41,0,0,1-4.92-.53A5.68,5.68,0,0,1,158.76,52.77ZM169.4,39a4.48,4.48,0,0,0-2.33.65,8.31,8.31,0,0,0-2,1.65,11,11,0,0,0-1.5,2.18,12.73,12.73,0,0,0-.93,2.24.45.45,0,0,0,.19.06h.18a3.71,3.71,0,0,0,2-.71,11.77,11.77,0,0,0,2.09-1.78A11.23,11.23,0,0,0,168.75,41,4.46,4.46,0,0,0,169.4,39Z"/><path class="cls-1" d="M178.92,50.41a4.74,4.74,0,0,1,.41-1.77,2.14,2.14,0,0,1,1.21-1.34,1.56,1.56,0,0,1,.34-.1,2.47,2.47,0,0,0,.41-.09,1.84,1.84,0,0,1,.43-.06v3.36a16.77,16.77,0,0,0,1.12-1.34c.5-.64,1-1.35,1.59-2.11s1.07-1.5,1.52-2.18.77-1.17.94-1.47L201,15.75a3.23,3.23,0,0,1,1.16-.91,1.23,1.23,0,0,1,1,.13,2.94,2.94,0,0,1,1,1.58l-8.65,17.37v.74a20.12,20.12,0,0,1,3.2.72,7.72,7.72,0,0,1,2.52,1.31,5.69,5.69,0,0,1,1.65,2.08,6.85,6.85,0,0,1,.59,3A10.67,10.67,0,0,1,202,47.33a16.78,16.78,0,0,1-4,4.51,20,20,0,0,1-5.35,3A15.73,15.73,0,0,1,187,56a10.78,10.78,0,0,1-2.58-.34,10.15,10.15,0,0,1-2.62-1,6.55,6.55,0,0,1-2-1.74A4,4,0,0,1,178.92,50.41Zm17.3-11.89a3,3,0,0,0-1.8.78,11.93,11.93,0,0,0-2,2,22.44,22.44,0,0,0-1.9,2.8c-.6,1-1.13,2.06-1.59,3.05A26.24,26.24,0,0,0,187.82,50a7.47,7.47,0,0,0-.44,2.15,11.23,11.23,0,0,0,3.86-.78,16.65,16.65,0,0,0,4-2.08,13.12,13.12,0,0,0,3.08-3,6.11,6.11,0,0,0,1.24-3.61,5.9,5.9,0,0,0-.68-2.86A2.72,2.72,0,0,0,196.22,38.52Z"/><path class="cls-1" d="M206.93,52a20.94,20.94,0,0,1,2-6.38,23.62,23.62,0,0,1,3.48-5.07,19.36,19.36,0,0,1,4.3-3.58,13.24,13.24,0,0,1,4.48-1.81,8.07,8.07,0,0,1,4,.22,5.52,5.52,0,0,1,3,2.43,6.18,6.18,0,0,1-.62,2.71,26.18,26.18,0,0,1-1.4,2.52,23,23,0,0,0-1.4,2.58,6.7,6.7,0,0,0-.62,2.89,4.26,4.26,0,0,0,.68,2.55,2.89,2.89,0,0,0,2.49.94,9.16,9.16,0,0,0,2.8-.44,9.19,9.19,0,0,1,2.8-.43l.78,0,.78,0A7.62,7.62,0,0,1,232.69,53a12.37,12.37,0,0,1-2.43,1.25,14.85,14.85,0,0,1-2.64.74,13.43,13.43,0,0,1-2.52.25,3.85,3.85,0,0,1-2-.5,4.86,4.86,0,0,1-1.47-1.27,6.4,6.4,0,0,1-.93-1.78,6,6,0,0,1-.34-2c-.62.71-1.28,1.43-2,2.18a17.41,17.41,0,0,1-2.24,2,12,12,0,0,1-2.55,1.53,7,7,0,0,1-2.83.59,3.61,3.61,0,0,1-2.74-1.18A3.92,3.92,0,0,1,206.93,52Zm4-1.93c0,.33,0,.7,0,1.12s.28.68.78.81a11.67,11.67,0,0,0,3.48-1.62,21.75,21.75,0,0,0,3.61-2.93,18.81,18.81,0,0,0,2.83-3.57,7.14,7.14,0,0,0,1.16-3.71,2.73,2.73,0,0,0,0-.4c0-.19,0-.32,0-.41a10.74,10.74,0,0,0-4.17.88,13.48,13.48,0,0,0-3.79,2.33A12.4,12.4,0,0,0,212,46,8.27,8.27,0,0,0,210.91,50.1Z"/><path class="cls-1" d="M262,56a4.8,4.8,0,0,1-2.05-.43,4.35,4.35,0,0,1-1.56-1.22,4.72,4.72,0,0,1-.87-1.8,4.37,4.37,0,0,1,.06-2.15,9.05,9.05,0,0,1,.72-3.61q.72-1.68,1.56-3.24c.56-1,1.08-2.07,1.55-3.11a7.72,7.72,0,0,0,.72-3.3,5.68,5.68,0,0,0-2.83.88,18,18,0,0,0-3.08,2.24,30,30,0,0,0-3.05,3.11q-1.5,1.74-2.77,3.48c-.85,1.16-1.6,2.26-2.24,3.3a28.62,28.62,0,0,0-1.47,2.61,1.63,1.63,0,0,1-.59.1l-.59,0c-.66.33-1.07.32-1.21,0a2.89,2.89,0,0,1,0-1.62,19.11,19.11,0,0,1,.68-2.46c.31-.91.63-1.77.94-2.58s.55-1.5.71-2.05.19-.85.06-.85a4.1,4.1,0,0,0,.44-.8l.5-1.16c.16-.39.31-.76.43-1.12a2.54,2.54,0,0,0,.19-.84.62.62,0,0,0-.4-.65,2.26,2.26,0,0,0-.78-.16q-1.12-.61-2.34.69a22.42,22.42,0,0,0-2.64,3.7c-1,1.6-2,3.43-3.11,5.48a66.72,66.72,0,0,1-3.67,5.94,4.77,4.77,0,0,1-2.15-.37c-.48-.25-.72-.87-.72-1.87a23.23,23.23,0,0,0,1.47-2.52q1-1.83,2.17-4.07c.81-1.5,1.67-3,2.59-4.55a40.3,40.3,0,0,1,2.61-3.92,8.65,8.65,0,0,1,2.27-2.21c.69-.39,1.21-.19,1.59.59a12.05,12.05,0,0,1,2.3-1.15,7.07,7.07,0,0,1,2.49-.46,2.1,2.1,0,0,1,1.4.49,3.53,3.53,0,0,1,.93,1.25,7.53,7.53,0,0,1,.53,1.58,6.65,6.65,0,0,1,.19,1.47c.46-.29,1.19-.8,2.21-1.53s2.12-1.44,3.3-2.14,2.35-1.34,3.51-1.9a7,7,0,0,1,2.87-.84,2.27,2.27,0,0,1,1.68.71,2.42,2.42,0,0,1,.68,1.71q-2.18,5.36-3.39,8.56a39.34,39.34,0,0,0-1.62,5,4.28,4.28,0,0,0,0,2.59A2.66,2.66,0,0,0,263.62,52a9.08,9.08,0,0,0,3.14-.56c1-.38,2-.78,3-1.22s2-.84,3-1.21a9.34,9.34,0,0,1,3.21-.56,2.25,2.25,0,0,1-1.31,2.12c-.33.2-.92.52-1.77.93s-1.76.86-2.71,1.34l-2.74,1.37c-.87.43-1.49.73-1.87.9a10.35,10.35,0,0,1-1.05.47l-.81.25A4.88,4.88,0,0,1,263,56C262.7,56,262.38,56,262,56Z"/><path class="cls-1" d="M274.7,50.85c0-.17,0-.5,0-1s0-.83,0-1a37.05,37.05,0,0,1,5-8.21,42.1,42.1,0,0,1,6.82-6.72,2.25,2.25,0,0,0,.4-.06,1.74,1.74,0,0,1,.4-.07,4.65,4.65,0,0,1,2.68.72,5.65,5.65,0,0,1,1.71,1.8,7.1,7.1,0,0,1,.9,2.46,14.62,14.62,0,0,1,.25,2.68,12.4,12.4,0,0,1-1.12,4.95,18.52,18.52,0,0,1-2.95,4.72,16.14,16.14,0,0,1-4.2,3.52A9.73,9.73,0,0,1,279.74,56a4.89,4.89,0,0,1-3.83-1.37A5.51,5.51,0,0,1,274.7,50.85Zm4.73-.75A.91.91,0,0,0,280,51a2.45,2.45,0,0,0,1.09.25,5.86,5.86,0,0,0,2.92-.81,9.88,9.88,0,0,0,2.55-2,10.59,10.59,0,0,0,1.81-2.77,7.3,7.3,0,0,0,.68-3c0-.45,0-.95-.06-1.49a3.8,3.8,0,0,0-.4-1.46,2.3,2.3,0,0,0-1-1,2.56,2.56,0,0,0-1.77-.09,3.87,3.87,0,0,0-2,1.58,22.58,22.58,0,0,0-2.06,3.24,31.74,31.74,0,0,0-1.65,3.7A9.36,9.36,0,0,0,279.43,50.1Z"/><path class="cls-1" d="M295.17,49.23a5.35,5.35,0,0,1,.35-2q.33-.84,1.71-.84l.59,0a2,2,0,0,1,.59.09,7.15,7.15,0,0,0,.93,4.23c.67,1,1.89,1.43,3.68,1.43a14.14,14.14,0,0,0,4.26-.68,13.55,13.55,0,0,0,3.89-2,10,10,0,0,0,2.8-3.15A8.58,8.58,0,0,0,315,42.07a2.24,2.24,0,0,0-1-2,9.09,9.09,0,0,0-2.21-1,17.61,17.61,0,0,1-2.21-.84,1.62,1.62,0,0,1-1-1.59A3.46,3.46,0,0,1,310.33,34a20.13,20.13,0,0,1,4-2.27,29.19,29.19,0,0,1,4.57-1.59,15.68,15.68,0,0,1,3.49-.59,3.35,3.35,0,0,1-.78,2.49,5.41,5.41,0,0,1-1.83,1.15l-2.18.81a3.8,3.8,0,0,0-1.87,1.52,12.78,12.78,0,0,1,1.62,1.43,7.27,7.27,0,0,1,1,1.4,5.09,5.09,0,0,1,.49,1.59A13.73,13.73,0,0,1,319,42a12.12,12.12,0,0,1-1.37,5.75A14.73,14.73,0,0,1,314,52.12,16.07,16.07,0,0,1,309,55a16.5,16.5,0,0,1-5.69,1,11.45,11.45,0,0,1-3.08-.4,7.7,7.7,0,0,1-2.59-1.25,6.35,6.35,0,0,1-1.8-2.11A6.26,6.26,0,0,1,295.17,49.23Z"/><path class="cls-1" d="M355.42,49.91A11.39,11.39,0,0,1,357.16,44a20.35,20.35,0,0,1,4.42-5.14,23.67,23.67,0,0,1,5.88-3.61,15.64,15.64,0,0,1,6.13-1.36,6.05,6.05,0,0,1,2.18.4,6,6,0,0,0,2.18.4h.37c.21-.45.6-1.24,1.18-2.36s1.2-2.31,1.87-3.58,1.31-2.45,1.93-3.55,1.06-1.87,1.3-2.33c.46-.75,1.08-1.7,1.87-2.86l2.3-3.4c.75-1.09,1.4-2,2-2.8a4.8,4.8,0,0,1,1-1.15L394.06,15a6.17,6.17,0,0,1-.46,1.12c-.31.66-.72,1.5-1.22,2.52s-1.05,2.15-1.68,3.39-1.25,2.5-1.89,3.77l-1.87,3.61-1.53,2.89c-1.24,1.91-2.51,3.84-3.79,5.79a36.4,36.4,0,0,0-3.05,5.47A10.88,10.88,0,0,0,377.48,48a2.72,2.72,0,0,0,2,2.62,26.08,26.08,0,0,1,5.45-.53,3.86,3.86,0,0,1,2.33.59c.33.33.28.74-.16,1.21a5.62,5.62,0,0,1-1.92,1.28,10.23,10.23,0,0,1-3,.74,7.69,7.69,0,0,1-6.5-2.39,9,9,0,0,1-2.12-4.2l-9.46,7.84c-.62.17-1.14.29-1.56.37l-1.27.25c-.44.09-.8.15-1.09.19h-.38a4.64,4.64,0,0,1-2.3-.5,3.52,3.52,0,0,1-1.34-1.34,5.69,5.69,0,0,1-.62-1.93A16.54,16.54,0,0,1,355.42,49.91Zm3.92-.62q0,.38,0,.84a3.08,3.08,0,0,0,.06.87,1.65,1.65,0,0,0,.37.72,1.11,1.11,0,0,0,.84.31,4.36,4.36,0,0,0,1.93-.59,20,20,0,0,0,2.21-1.37c.73-.52,1.4-1,2-1.59l1.37-1.18,1.56-1.56,2.39-2.36q1.28-1.25,2.37-2.37c.73-.74,1.23-1.28,1.52-1.62v-.18a.13.13,0,0,1,0-.1.12.12,0,0,0,0-.09,1.11,1.11,0,0,0-.31-.84,1.58,1.58,0,0,0-.78-.37,3.47,3.47,0,0,0-1-.06l-.81,0a13.35,13.35,0,0,0-4.66.9A16.65,16.65,0,0,0,364,41.14a14,14,0,0,0-3.36,3.67A8.17,8.17,0,0,0,359.34,49.29Z"/><path class="cls-1" d="M387.28,52.77a9.61,9.61,0,0,1-.78-5.94,13.56,13.56,0,0,1,2.27-5.23,16.32,16.32,0,0,1,4-3.92,13.81,13.81,0,0,1,4.32-2.11,4.29,4.29,0,0,1,3.36.25c.89.51,1.24,1.56,1,3.14A6.13,6.13,0,0,1,400,43.07a23.63,23.63,0,0,1-3.27,3.14q-1.77,1.4-3.27,2.52c-1,.75-1.49,1.45-1.49,2.12,0,.33.22.6.65.8a5.79,5.79,0,0,0,1.49.47,13.71,13.71,0,0,0,1.69.22c.55,0,1,.08,1.21.12q5.73-1.17,8.56-1.46a9.77,9.77,0,0,1,3.57,0c.5.21.41.56-.28,1.06a12.44,12.44,0,0,1-3.08,1.49A35.78,35.78,0,0,1,401,54.92a30.82,30.82,0,0,1-5.41.69,16.41,16.41,0,0,1-4.92-.53A5.74,5.74,0,0,1,387.28,52.77ZM397.92,39a4.48,4.48,0,0,0-2.33.65,8.31,8.31,0,0,0-2,1.65,11.4,11.4,0,0,0-1.5,2.18,12.73,12.73,0,0,0-.93,2.24.49.49,0,0,0,.19.06h.18a3.71,3.71,0,0,0,2-.71,11.43,11.43,0,0,0,2.09-1.78A11.23,11.23,0,0,0,397.27,41,4.46,4.46,0,0,0,397.92,39Z"/><path class="cls-1" d="M438.62,50.41a11,11,0,0,1,.1-1.28q.09-.84.21-1.74c.09-.6.17-1.13.25-1.59a3.26,3.26,0,0,1,.25-.87l11-22.09a8.25,8.25,0,0,1,.93-1.37q.69-.87,1.53-1.8c.56-.63,1.11-1.22,1.65-1.78s1-1,1.36-1.34a1.07,1.07,0,0,1,.63.44,2.22,2.22,0,0,1,.25.68,3.14,3.14,0,0,1,0,.75c0,.25,0,.46,0,.62v.88c0,.37,0,.55-.07.55a28.42,28.42,0,0,1-1.89,3.86c-.86,1.5-1.81,3.09-2.87,4.79s-2.14,3.48-3.23,5.33-2.12,3.67-3.05,5.47a39.75,39.75,0,0,0-2.27,5.2,13.65,13.65,0,0,0-.88,4.54,2.36,2.36,0,0,0,.63,1.75,7.15,7.15,0,0,0,1.4,1.08,12.87,12.87,0,0,1,1.4,1,1.69,1.69,0,0,1,.62,1.34.92.92,0,0,1-.5.84,2.32,2.32,0,0,1-1.18.28,7.09,7.09,0,0,1-4.42-1.43A4.9,4.9,0,0,1,438.62,50.41Z"/><path class="cls-1" d="M454.87,52a20.94,20.94,0,0,1,2.05-6.38,23.3,23.3,0,0,1,3.49-5.07A19.09,19.09,0,0,1,464.7,37a13.24,13.24,0,0,1,4.48-1.81,8.07,8.07,0,0,1,4.05.22,5.52,5.52,0,0,1,3,2.43,6.18,6.18,0,0,1-.62,2.71,28.54,28.54,0,0,1-1.4,2.52,23,23,0,0,0-1.4,2.58,6.85,6.85,0,0,0-.62,2.89,4.26,4.26,0,0,0,.68,2.55,2.89,2.89,0,0,0,2.49.94,9.16,9.16,0,0,0,2.8-.44,9.19,9.19,0,0,1,2.8-.43l.78,0,.78,0A7.62,7.62,0,0,1,480.63,53a12.37,12.37,0,0,1-2.43,1.25,14.85,14.85,0,0,1-2.64.74,13.43,13.43,0,0,1-2.52.25,3.85,3.85,0,0,1-2-.5,4.86,4.86,0,0,1-1.47-1.27,6.4,6.4,0,0,1-.93-1.78,6,6,0,0,1-.34-2c-.62.71-1.28,1.43-2,2.18a17.41,17.41,0,0,1-2.24,2,12,12,0,0,1-2.55,1.53,7,7,0,0,1-2.84.59A3.6,3.6,0,0,1,456,54.83,3.92,3.92,0,0,1,454.87,52Zm4-1.93c0,.33,0,.7,0,1.12s.28.68.78.81a11.56,11.56,0,0,0,3.48-1.62,21.75,21.75,0,0,0,3.61-2.93,18.81,18.81,0,0,0,2.83-3.57,7.14,7.14,0,0,0,1.16-3.71c0-.08,0-.21,0-.4a2.71,2.71,0,0,1,0-.41,10.74,10.74,0,0,0-4.17.88,13.48,13.48,0,0,0-3.79,2.33A12.4,12.4,0,0,0,459.94,46,8.27,8.27,0,0,0,458.85,50.1Z"/><path class="cls-1" d="M480.76,49.23a5.36,5.36,0,0,1,.34-2q.34-.84,1.71-.84l.59,0a2,2,0,0,1,.59.09,7.07,7.07,0,0,0,.94,4.23c.66,1,1.88,1.43,3.67,1.43a14.14,14.14,0,0,0,4.26-.68,13.55,13.55,0,0,0,3.89-2,10,10,0,0,0,2.8-3.15,8.48,8.48,0,0,0,1.06-4.29,2.22,2.22,0,0,0-1-2,9.09,9.09,0,0,0-2.21-1,17.61,17.61,0,0,1-2.21-.84,1.62,1.62,0,0,1-1-1.59A3.46,3.46,0,0,1,495.91,34a20.13,20.13,0,0,1,4-2.27,29,29,0,0,1,4.58-1.59A15.52,15.52,0,0,1,508,29.5a3.35,3.35,0,0,1-.78,2.49,5.32,5.32,0,0,1-1.83,1.15l-2.18.81a3.8,3.8,0,0,0-1.87,1.52,11.52,11.52,0,0,1,1.62,1.43,6.86,6.86,0,0,1,1,1.4,4.84,4.84,0,0,1,.49,1.59,13.73,13.73,0,0,1,.13,2.06,12.12,12.12,0,0,1-1.37,5.75,14.73,14.73,0,0,1-3.55,4.42,16.07,16.07,0,0,1-5,2.86,16.46,16.46,0,0,1-5.69,1,11.45,11.45,0,0,1-3.08-.4,7.56,7.56,0,0,1-2.58-1.25,6.38,6.38,0,0,1-1.81-2.11A6.26,6.26,0,0,1,480.76,49.23Z"/><path class="cls-1" d="M552.42,35.66a22.78,22.78,0,0,0-3.52,3.8,25.36,25.36,0,0,0-2.83,4.79A11.65,11.65,0,0,0,544.92,49a2.83,2.83,0,0,0,.93,2.46,4.57,4.57,0,0,0,2.62.65,14.54,14.54,0,0,0,3.54-.43c1.16-.29,2.32-.62,3.46-1s2.29-.67,3.45-1a14.57,14.57,0,0,1,3.55-.44,3.92,3.92,0,0,1-.22,1.4,5.21,5.21,0,0,1-.71,1.28c-2.12,1-4.3,1.91-6.54,2.74A19.88,19.88,0,0,1,548,56a7.43,7.43,0,0,1-2.3-.4,8.22,8.22,0,0,1-2.27-1.15,6.92,6.92,0,0,1-1.72-1.78,4,4,0,0,1-.68-2.27,18.27,18.27,0,0,1,.78-5.32,20.29,20.29,0,0,1,2.21-4.89,24.41,24.41,0,0,1,3.36-4.26,21.36,21.36,0,0,1,4.29-3.39v-.06a19.29,19.29,0,0,1,2.09-1.09,5.89,5.89,0,0,1,2.17-.59,2.47,2.47,0,0,1,1.75.49,2.7,2.7,0,0,1,.71,2.18q0,.38,0,.87c0,.34,0,.68-.09,1a3.56,3.56,0,0,1-.25,1,2,2,0,0,1-.44.69,2.19,2.19,0,0,1-.59.31l-.65.25a5.15,5.15,0,0,1-.75.19V33.92A6.68,6.68,0,0,0,552.42,35.66Z"/><path class="cls-1" d="M562.53,50.85c0-.17,0-.5,0-1s0-.83,0-1a37.05,37.05,0,0,1,5-8.21,42.51,42.51,0,0,1,6.82-6.72,2.25,2.25,0,0,0,.4-.06,1.72,1.72,0,0,1,.41-.07,4.64,4.64,0,0,1,2.67.72,5.65,5.65,0,0,1,1.71,1.8,7.32,7.32,0,0,1,.91,2.46,15.52,15.52,0,0,1,.24,2.68,12.4,12.4,0,0,1-1.12,4.95,18.52,18.52,0,0,1-2.95,4.72,16.14,16.14,0,0,1-4.2,3.52A9.73,9.73,0,0,1,567.57,56a4.89,4.89,0,0,1-3.83-1.37A5.51,5.51,0,0,1,562.53,50.85Zm4.73-.75a.93.93,0,0,0,.53.93,2.45,2.45,0,0,0,1.09.25,5.86,5.86,0,0,0,2.92-.81,9.88,9.88,0,0,0,2.55-2,10.59,10.59,0,0,0,1.81-2.77,7.14,7.14,0,0,0,.68-3c0-.45,0-.95-.06-1.49a3.63,3.63,0,0,0-.4-1.46,2.3,2.3,0,0,0-1-1,2.56,2.56,0,0,0-1.77-.09,3.87,3.87,0,0,0-2,1.58,22.58,22.58,0,0,0-2.06,3.24,31.74,31.74,0,0,0-1.65,3.7A9.36,9.36,0,0,0,567.26,50.1Z"/><path class="cls-1" d="M575.48,72.94a1.34,1.34,0,0,1,0-.22,1.34,1.34,0,0,0,0-.22c0-.12.09-.3.15-.53a6.8,6.8,0,0,1,.25-.71,5.37,5.37,0,0,0,.25-.69,2.93,2.93,0,0,1,.16-.43c.25-.58.66-1.5,1.24-2.74l2-4.2q1.1-2.34,2.27-4.89l2.27-4.88,2-4.2c.59-1.25,1-2.16,1.31-2.74a25.93,25.93,0,0,1,2.24-3c1-1.12,2-2.26,3.21-3.42s2.43-2.31,3.76-3.46a38.65,38.65,0,0,1,4-3,25.71,25.71,0,0,1,3.85-2.12,8.62,8.62,0,0,1,3.37-.81,4.89,4.89,0,0,1,3.11.78c.62.52.93,1.59.93,3.2a14.21,14.21,0,0,1-1,5.2,20.6,20.6,0,0,1-2.7,4.89,24.69,24.69,0,0,1-4,4.2,22.88,22.88,0,0,1-4.82,3.11,20.07,20.07,0,0,1-5.23,1.68,12.25,12.25,0,0,1-5.16-.16l-.75.81-7.9,19.67a1.21,1.21,0,0,1-1.06.71,7.76,7.76,0,0,1-1.37.16,2.83,2.83,0,0,1-1.59-.53A1.66,1.66,0,0,1,575.48,72.94Zm28.44-29.56a23.61,23.61,0,0,0,3.67-4.83c.58-1.18.71-2,.4-2.52s-1-.68-2-.56a11.55,11.55,0,0,0-3.3,1,22.34,22.34,0,0,0-3.67,2.21,13.36,13.36,0,0,0-3,3c-.37.41-.83,1-1.37,1.65s-1,1.36-1.55,2-.93,1.26-1.28,1.77a3.66,3.66,0,0,0-.53.91v1.3a18,18,0,0,0,7.13-1.27A13.94,13.94,0,0,0,603.92,43.38Z"/><path class="cls-1" d="M614.5,52a20.94,20.94,0,0,1,2-6.38A23.3,23.3,0,0,1,620,40.58,19.09,19.09,0,0,1,624.33,37a13.24,13.24,0,0,1,4.48-1.81,8.07,8.07,0,0,1,4.05.22,5.52,5.52,0,0,1,3,2.43,6.18,6.18,0,0,1-.62,2.71,28.54,28.54,0,0,1-1.4,2.52,23,23,0,0,0-1.4,2.58,6.7,6.7,0,0,0-.62,2.89,4.26,4.26,0,0,0,.68,2.55A2.89,2.89,0,0,0,635,52a9.16,9.16,0,0,0,2.8-.44,9.19,9.19,0,0,1,2.8-.43l.78,0,.78,0A7.62,7.62,0,0,1,640.26,53a12.37,12.37,0,0,1-2.43,1.25,14.85,14.85,0,0,1-2.64.74,13.43,13.43,0,0,1-2.52.25,3.85,3.85,0,0,1-2-.5,4.86,4.86,0,0,1-1.47-1.27,6.4,6.4,0,0,1-.93-1.78,6,6,0,0,1-.34-2c-.62.71-1.28,1.43-2,2.18a17.41,17.41,0,0,1-2.24,2,12,12,0,0,1-2.55,1.53,7,7,0,0,1-2.84.59,3.6,3.6,0,0,1-2.73-1.18A3.92,3.92,0,0,1,614.5,52Zm4-1.93c0,.33,0,.7,0,1.12s.28.68.78.81a11.56,11.56,0,0,0,3.48-1.62,21.75,21.75,0,0,0,3.61-2.93,18.81,18.81,0,0,0,2.83-3.57,7.14,7.14,0,0,0,1.16-3.71,2.73,2.73,0,0,0,0-.4c0-.19,0-.32,0-.41a10.74,10.74,0,0,0-4.17.88,13.48,13.48,0,0,0-3.79,2.33A12.4,12.4,0,0,0,619.57,46,8.27,8.27,0,0,0,618.48,50.1Z"/><path class="cls-1" d="M640.39,49.23a5.36,5.36,0,0,1,.34-2q.35-.84,1.71-.84l.59,0a2,2,0,0,1,.59.09,7.07,7.07,0,0,0,.94,4.23c.66,1,1.88,1.43,3.67,1.43a14.14,14.14,0,0,0,4.26-.68,13.55,13.55,0,0,0,3.89-2,10,10,0,0,0,2.8-3.15,8.48,8.48,0,0,0,1.06-4.29,2.22,2.22,0,0,0-1-2A9.09,9.09,0,0,0,657,39a17.61,17.61,0,0,1-2.21-.84,1.62,1.62,0,0,1-1-1.59A3.46,3.46,0,0,1,655.54,34a20.13,20.13,0,0,1,4-2.27,29,29,0,0,1,4.58-1.59,15.52,15.52,0,0,1,3.48-.59A3.35,3.35,0,0,1,666.8,32,5.32,5.32,0,0,1,665,33.14l-2.18.81a3.8,3.8,0,0,0-1.87,1.52,11.52,11.52,0,0,1,1.62,1.43,6.86,6.86,0,0,1,1,1.4,4.84,4.84,0,0,1,.49,1.59,13.73,13.73,0,0,1,.13,2.06,12.12,12.12,0,0,1-1.37,5.75,14.73,14.73,0,0,1-3.55,4.42,16.07,16.07,0,0,1-5,2.86,16.46,16.46,0,0,1-5.69,1,11.45,11.45,0,0,1-3.08-.4,7.56,7.56,0,0,1-2.58-1.25,6.38,6.38,0,0,1-1.81-2.11A6.26,6.26,0,0,1,640.39,49.23Z"/><path class="cls-1" d="M29.56,130.69a4.77,4.77,0,0,1-2-.43A4.35,4.35,0,0,1,26,129a4.72,4.72,0,0,1-.87-1.8,4.15,4.15,0,0,1,.06-2.15,9.09,9.09,0,0,1,.72-3.61,35.65,35.65,0,0,1,1.55-3.23q.84-1.56,1.56-3.12a7.72,7.72,0,0,0,.72-3.3,5.81,5.81,0,0,0-2.84.88A19.41,19.41,0,0,0,23.77,115a32.21,32.21,0,0,0-3.05,3.11c-1,1.16-1.92,2.32-2.76,3.48s-1.6,2.27-2.25,3.3a26.91,26.91,0,0,0-1.46,2.62,2,2,0,0,1-.59.09l-.59,0c-.66.33-1.07.32-1.21,0a2.89,2.89,0,0,1,0-1.62,19.56,19.56,0,0,1,.68-2.46q.46-1.36.93-2.58c.32-.81.55-1.49.72-2s.19-.84.06-.84a4.59,4.59,0,0,0,.44-.81c.16-.38.33-.76.5-1.15s.31-.77.43-1.12a2.65,2.65,0,0,0,.19-.84.64.64,0,0,0-.41-.66,2.24,2.24,0,0,0-.78-.15c-.74-.42-1.52-.19-2.33.68a22.42,22.42,0,0,0-2.64,3.7c-1,1.6-2,3.43-3.11,5.48a65.41,65.41,0,0,1-3.68,5.94,4.75,4.75,0,0,1-2.14-.37c-.48-.25-.72-.87-.72-1.87a22,22,0,0,0,1.46-2.52c.65-1.22,1.37-2.58,2.18-4.07s1.67-3,2.58-4.55a42.13,42.13,0,0,1,2.62-3.92,8.5,8.5,0,0,1,2.27-2.21q1-.59,1.59.6A11.53,11.53,0,0,1,15,109a7.07,7.07,0,0,1,2.49-.46,2.07,2.07,0,0,1,1.4.5,3.52,3.52,0,0,1,.93,1.24,7.61,7.61,0,0,1,.53,1.59,6.57,6.57,0,0,1,.19,1.46c.45-.29,1.19-.8,2.21-1.53s2.11-1.44,3.29-2.14,2.36-1.34,3.52-1.9a7,7,0,0,1,2.86-.84,2.24,2.24,0,0,1,1.68.71,2.39,2.39,0,0,1,.69,1.72q-2.17,5.36-3.39,8.55a39.34,39.34,0,0,0-1.62,5,4.28,4.28,0,0,0,0,2.59,2.63,2.63,0,0,0,1.43,1.18,9.08,9.08,0,0,0,3.14-.56c1-.37,2-.78,3-1.21s2-.84,3-1.22a9.29,9.29,0,0,1,3.2-.56,2.24,2.24,0,0,1-1.3,2.12c-.34.21-.93.52-1.78.93l-2.7,1.34L35,128.92c-.87.43-1.5.74-1.87.9a10.39,10.39,0,0,1-1.06.47c-.29.1-.56.18-.81.25a4.59,4.59,0,0,1-.77.12C30.26,130.68,29.93,130.69,29.56,130.69Z"/><path class="cls-1" d="M42.26,126.71a20.94,20.94,0,0,1,2.05-6.38,23.3,23.3,0,0,1,3.49-5.07,19.36,19.36,0,0,1,4.29-3.58,13.41,13.41,0,0,1,4.48-1.8,8.07,8.07,0,0,1,4,.21,5.52,5.52,0,0,1,3,2.43,6,6,0,0,1-.62,2.71,26.18,26.18,0,0,1-1.4,2.52,23,23,0,0,0-1.4,2.58,6.7,6.7,0,0,0-.62,2.89,4.32,4.32,0,0,0,.68,2.56,2.92,2.92,0,0,0,2.49.93,9.16,9.16,0,0,0,2.8-.44,9.19,9.19,0,0,1,2.8-.43l.78,0,.78,0A7.62,7.62,0,0,1,68,127.64a11.6,11.6,0,0,1-2.43,1.25,14.85,14.85,0,0,1-2.64.74,13.43,13.43,0,0,1-2.52.25,3.85,3.85,0,0,1-2-.5A4.71,4.71,0,0,1,57,128.11a6.24,6.24,0,0,1-.94-1.77,6.09,6.09,0,0,1-.34-2c-.62.71-1.28,1.44-2,2.18a18.24,18.24,0,0,1-2.24,2.06A12.36,12.36,0,0,1,49,130.1a6.87,6.87,0,0,1-2.83.59,3.61,3.61,0,0,1-2.74-1.18A3.92,3.92,0,0,1,42.26,126.71Zm4-1.93c0,.33,0,.71,0,1.12s.28.68.78.81a11.67,11.67,0,0,0,3.48-1.62,21.68,21.68,0,0,0,3.61-2.92A19.33,19.33,0,0,0,57,118.59a7.21,7.21,0,0,0,1.15-3.71c0-.08,0-.21,0-.4a2.73,2.73,0,0,1,0-.4,10.94,10.94,0,0,0-4.17.87,13.72,13.72,0,0,0-3.79,2.33,12.7,12.7,0,0,0-2.77,3.42A8.27,8.27,0,0,0,46.24,124.78ZM59.43,96.9c.67,0,1,.37.91,1a6.5,6.5,0,0,1-.84,2.28,21.46,21.46,0,0,1-1.93,2.8,24.28,24.28,0,0,1-2.34,2.52,9.58,9.58,0,0,1-2,1.49c-.58.29-.91.19-1-.31a21.47,21.47,0,0,1,1.09-2.09c.56-1,1.21-2,1.93-3s1.48-2,2.24-2.9A7.83,7.83,0,0,1,59.43,96.9Z"/><path class="cls-1" d="M68.15,123.91a5.3,5.3,0,0,1,.34-2q.35-.84,1.71-.84l.59,0a2,2,0,0,1,.59.09,7.07,7.07,0,0,0,.94,4.23c.66,1,1.88,1.43,3.67,1.43a13.83,13.83,0,0,0,4.26-.68,13.55,13.55,0,0,0,3.89-2,9.9,9.9,0,0,0,2.8-3.14,8.54,8.54,0,0,0,1.06-4.3,2.22,2.22,0,0,0-1-2,9.09,9.09,0,0,0-2.21-1,18.22,18.22,0,0,1-2.21-.84,1.62,1.62,0,0,1-1-1.58,3.46,3.46,0,0,1,1.71-2.65,20.13,20.13,0,0,1,4-2.27,31.11,31.11,0,0,1,4.58-1.59,15.52,15.52,0,0,1,3.48-.59,3.39,3.39,0,0,1-.77,2.49,5.46,5.46,0,0,1-1.84,1.15l-2.18.81a3.77,3.77,0,0,0-1.87,1.53,10.38,10.38,0,0,1,1.62,1.43,6.36,6.36,0,0,1,1,1.4,5,5,0,0,1,.5,1.58,15.45,15.45,0,0,1,.12,2.06,12.12,12.12,0,0,1-1.37,5.75A14.46,14.46,0,0,1,87,126.8a16.29,16.29,0,0,1-5,2.87,16.64,16.64,0,0,1-5.69,1,11.45,11.45,0,0,1-3.08-.4A7.56,7.56,0,0,1,70.64,129a6.38,6.38,0,0,1-1.81-2.11A6.26,6.26,0,0,1,68.15,123.91Z"/><path class="cls-1" d="M128,125.09c0-.29,0-.71.09-1.27s.13-1.15.22-1.75.16-1.13.25-1.58a3,3,0,0,1,.24-.88l11-22.09a9,9,0,0,1,.93-1.37q.69-.87,1.53-1.8c.56-.63,1.11-1.22,1.65-1.78s1-1,1.37-1.33a1,1,0,0,1,.62.43,2,2,0,0,1,.25.69,3,3,0,0,1,0,.74c0,.25,0,.46,0,.62v.88c0,.37,0,.56-.06.56a29.85,29.85,0,0,1-1.9,3.85q-1.28,2.25-2.87,4.8t-3.23,5.32c-1.1,1.84-2.12,3.67-3,5.47a41.15,41.15,0,0,0-2.27,5.2,13.87,13.87,0,0,0-.87,4.54,2.36,2.36,0,0,0,.62,1.75,7.6,7.6,0,0,0,1.4,1.09,10.85,10.85,0,0,1,1.4,1,1.69,1.69,0,0,1,.62,1.34.9.9,0,0,1-.5.84,2.32,2.32,0,0,1-1.18.28,7.09,7.09,0,0,1-4.42-1.43A4.88,4.88,0,0,1,128,125.09Z"/><path class="cls-1" d="M143.45,126.71a5.43,5.43,0,0,1,.19-1.53,9.79,9.79,0,0,1,.68-1.64c.29-.42.8-1.19,1.52-2.31s1.52-2.31,2.37-3.58l2.4-3.57c.74-1.12,1.26-1.91,1.55-2.37s.6-.77.81-.81a7.5,7.5,0,0,1,1.18-.06c.34,0,.72,0,1.15.06a.92.92,0,0,1,.84.81,15.6,15.6,0,0,1-2.24,3.92q-1.43,1.88-2.83,3.67a26.15,26.15,0,0,0-2.42,3.74,8.52,8.52,0,0,0-1,4.1c.16,0,.42,0,.78.07l1.12.12,1.12.13a2.47,2.47,0,0,0,.78,0l1.24-.25c.58-.13,1.21-.27,1.9-.44s1.32-.33,1.9-.5,1-.29,1.24-.37c0,.08,0,.22,0,.4s0,.33,0,.41a2.28,2.28,0,0,1-1.12,2,10,10,0,0,1-2.61,1.21,15.17,15.17,0,0,1-3.05.63q-1.56.15-2.37.15a7.88,7.88,0,0,1-1.86-.22,5,5,0,0,1-1.65-.68,3.73,3.73,0,0,1-1.18-1.25A3.37,3.37,0,0,1,143.45,126.71Zm17.67-35.66c.5,0,1,0,1.43.06a4.29,4.29,0,0,1,1.22.28,1.67,1.67,0,0,1,.81.72,2.89,2.89,0,0,1,.28,1.37v.81a2.92,2.92,0,0,1-.1.8,1.49,1.49,0,0,1-.34.66,1,1,0,0,1-.81.28,1.68,1.68,0,0,1-1.37-.62A4.28,4.28,0,0,1,161.5,94a7.09,7.09,0,0,1-.31-1.64C161.14,91.76,161.12,91.34,161.12,91.05Z"/><path class="cls-1" d="M159,127.89v-.81a2,2,0,0,1,.09-.59,3.12,3.12,0,0,1,.28-.59c.12-.21.29-.48.5-.81s.56-1,1.06-1.74,1.05-1.67,1.68-2.65l2-3.08c.68-1.08,1.34-2.1,2-3.08l1.68-2.64c.5-.79.87-1.37,1.12-1.74,0,0,.15-.07.34-.07h.84c.21,0,.33,0,.37.07a4.11,4.11,0,0,1,.28.31l.47.53c.17.18.32.35.47.49a.57.57,0,0,0,.34.22,2.13,2.13,0,0,0,1.15-.37l1.25-.81c.43-.29.88-.56,1.33-.81a2.85,2.85,0,0,1,1.37-.37,3.28,3.28,0,0,1,2.65,1.24,4.07,4.07,0,0,1,1,2.61,8.68,8.68,0,0,1-.4,2.65q-.4,1.28-.87,2.52t-.87,2.49a8.39,8.39,0,0,0-.41,2.61,4.42,4.42,0,0,0,.31,1.9c.21.4.77.59,1.69.59a9.6,9.6,0,0,0,3.11-.5,9.78,9.78,0,0,1,3.11-.49,3.51,3.51,0,0,1-.87,2.45,6,6,0,0,1-2.18,1.53,11.58,11.58,0,0,1-2.8.78,20,20,0,0,1-2.74.22,4,4,0,0,1-3.39-1.31,5.45,5.45,0,0,1-1-3.49,7,7,0,0,1,.53-2.7c.35-.85.74-1.68,1.15-2.49s.8-1.63,1.15-2.46a6.24,6.24,0,0,0,.44-3.58c-.06-.39-.32-.59-.78-.59a5.77,5.77,0,0,0-3.67,1.27,13.67,13.67,0,0,0-2.9,3.21,36.45,36.45,0,0,0-2.36,4.2q-1.09,2.28-2,4.2a22.81,22.81,0,0,1-1.78,3.21,2.34,2.34,0,0,1-1.8,1.27,2.76,2.76,0,0,1-2.05-.81A2.7,2.7,0,0,1,159,127.89Z"/><path class="cls-1" d="M185.33,124.59a11.39,11.39,0,0,1,1.74-5.94,20.54,20.54,0,0,1,4.42-5.13,23.44,23.44,0,0,1,5.88-3.61,15.48,15.48,0,0,1,6.13-1.37,6,6,0,0,1,2.18.4,6.06,6.06,0,0,0,2.18.41h.37c.21-.46.6-1.25,1.19-2.37l1.86-3.58c.67-1.26,1.31-2.44,1.93-3.54s1.06-1.88,1.31-2.34c.46-.75,1.08-1.7,1.87-2.86s1.55-2.29,2.3-3.39,1.4-2,2-2.8.88-1.16,1-1.16L224,89.68a6.71,6.71,0,0,1-.47,1.12c-.31.66-.71,1.5-1.21,2.52s-1.06,2.15-1.68,3.39-1.26,2.5-1.9,3.77-1.26,2.47-1.87,3.61-1.11,2.1-1.52,2.89c-1.25,1.91-2.51,3.84-3.8,5.79a37.8,37.8,0,0,0-3.05,5.48,11,11,0,0,0-1.09,4.41,2.74,2.74,0,0,0,2,2.62,26.71,26.71,0,0,1,5.44-.53,3.9,3.9,0,0,1,2.34.59c.33.33.28.74-.16,1.21a5.63,5.63,0,0,1-1.93,1.28,10.47,10.47,0,0,1-3,.75,7.86,7.86,0,0,1-3.39-.38,7.69,7.69,0,0,1-3.11-2,9,9,0,0,1-2.12-4.2L194,129.82c-.62.17-1.14.29-1.55.37l-1.28.25c-.43.09-.8.15-1.09.19h-.37a4.64,4.64,0,0,1-2.3-.5,3.45,3.45,0,0,1-1.34-1.34,5.48,5.48,0,0,1-.62-1.93A15.07,15.07,0,0,1,185.33,124.59Zm3.92-.62q0,.38,0,.84a3.08,3.08,0,0,0,.06.87,1.67,1.67,0,0,0,.38.72,1,1,0,0,0,.84.31,4.36,4.36,0,0,0,1.93-.59,21,21,0,0,0,2.21-1.37c.72-.52,1.4-1,2-1.59L198,122l1.55-1.56,2.4-2.36c.85-.83,1.64-1.62,2.36-2.37s1.24-1.28,1.53-1.61v-.19a.12.12,0,0,1,0-.09.15.15,0,0,0,0-.1,1.07,1.07,0,0,0-.31-.84,1.67,1.67,0,0,0-.78-.37,3.82,3.82,0,0,0-1-.06l-.81,0a13.44,13.44,0,0,0-4.67.9,16.81,16.81,0,0,0-4.45,2.46,14.12,14.12,0,0,0-3.36,3.67A8.25,8.25,0,0,0,189.25,124Z"/><path class="cls-1" d="M217.32,126.71a21.22,21.22,0,0,1,2.05-6.38,23.3,23.3,0,0,1,3.49-5.07,19.82,19.82,0,0,1,4.29-3.58,13.5,13.5,0,0,1,4.48-1.8,8.07,8.07,0,0,1,4.05.21,5.58,5.58,0,0,1,3,2.43,6.06,6.06,0,0,1-.63,2.71,26.18,26.18,0,0,1-1.4,2.52,24.67,24.67,0,0,0-1.4,2.58,6.85,6.85,0,0,0-.62,2.89,4.25,4.25,0,0,0,.69,2.56,2.88,2.88,0,0,0,2.48.93,9.27,9.27,0,0,0,2.81-.44,9.15,9.15,0,0,1,2.8-.43l.77,0,.78,0a7.62,7.62,0,0,1-1.87,1.74,11.78,11.78,0,0,1-2.42,1.25,14.72,14.72,0,0,1-2.65.74,13.43,13.43,0,0,1-2.52.25,3.87,3.87,0,0,1-2-.5,4.71,4.71,0,0,1-1.46-1.27,6,6,0,0,1-.93-1.77,6.11,6.11,0,0,1-.35-2c-.62.71-1.27,1.44-2,2.18a17.54,17.54,0,0,1-2.24,2.06A12.36,12.36,0,0,1,224,130.1a6.84,6.84,0,0,1-2.83.59,3.63,3.63,0,0,1-2.74-1.18A3.92,3.92,0,0,1,217.32,126.71Zm4-1.93c0,.33,0,.71,0,1.12s.28.68.78.81a11.71,11.71,0,0,0,3.49-1.62,22.1,22.1,0,0,0,3.61-2.92,19.27,19.27,0,0,0,2.83-3.58,7.12,7.12,0,0,0,1.15-3.71c0-.08,0-.21,0-.4s0-.32,0-.4A10.91,10.91,0,0,0,229,115a13.77,13.77,0,0,0-3.8,2.33,12.89,12.89,0,0,0-2.77,3.42A8.37,8.37,0,0,0,221.3,124.78Z"/><path class="cls-1" d="M243.21,123.91a5.3,5.3,0,0,1,.34-2q.34-.84,1.71-.84l.59,0a2.11,2.11,0,0,1,.6.09,7.07,7.07,0,0,0,.93,4.23c.66,1,1.89,1.43,3.67,1.43a13.83,13.83,0,0,0,4.26-.68,13.42,13.42,0,0,0,3.89-2,9.78,9.78,0,0,0,2.8-3.14,8.54,8.54,0,0,0,1.06-4.3,2.23,2.23,0,0,0-1-2,9.26,9.26,0,0,0-2.21-1,17,17,0,0,1-2.21-.84,1.61,1.61,0,0,1-1-1.58,3.46,3.46,0,0,1,1.71-2.65,19.93,19.93,0,0,1,4-2.27,31,31,0,0,1,4.57-1.59,15.68,15.68,0,0,1,3.49-.59,3.35,3.35,0,0,1-.78,2.49,5.36,5.36,0,0,1-1.84,1.15l-2.18.81a3.79,3.79,0,0,0-1.86,1.53,11.39,11.39,0,0,1,1.62,1.43,6.65,6.65,0,0,1,1,1.4,4.72,4.72,0,0,1,.5,1.58,15.45,15.45,0,0,1,.12,2.06,12,12,0,0,1-1.37,5.75,14.58,14.58,0,0,1-3.54,4.42,16.53,16.53,0,0,1-5,2.87,16.73,16.73,0,0,1-5.7,1,11.51,11.51,0,0,1-3.08-.4A7.74,7.74,0,0,1,245.7,129a6.09,6.09,0,0,1-2.49-5.13Z"/><path class="cls-1" d="M303.45,167.78a32.41,32.41,0,0,1,.72-6.75,54.16,54.16,0,0,1,1.87-6.72q1.14-3.33,2.55-6.5t2.83-6.1v-1.62h-3.3a2.75,2.75,0,0,1,.56-1.8,4.33,4.33,0,0,1,1.4-1.13,7.55,7.55,0,0,1,1.84-.65c.66-.14,1.28-.26,1.86-.34l3.92-7.1v-.62a6.48,6.48,0,0,0-2.05.34c-.66.23-1.33.49-2,.78s-1.35.55-2.06.78a7.15,7.15,0,0,1-2.24.34q-5.16,0-5.16-5.23a14.15,14.15,0,0,1,2-4.94,24.22,24.22,0,0,1,3.92-4.92,25.94,25.94,0,0,1,5.1-3.86,14.38,14.38,0,0,1,5.48-1.9,8.22,8.22,0,0,1,5.07,1,9.6,9.6,0,0,1,3.86,4.89,7.92,7.92,0,0,1-.47,2.7,12.55,12.55,0,0,1-1.24,2.59,13.78,13.78,0,0,1-1.81,2.3,14.69,14.69,0,0,1-2.08,1.8l-6.29,12.57a.81.81,0,0,1,0,.19,1.07,1.07,0,0,0,0,.25,3.07,3.07,0,0,0,.41,1.49q.4.75.9,1.5c.33.5.67,1,1,1.46a7.22,7.22,0,0,1,.84,1.46,20.18,20.18,0,0,1,1.08,8,23.45,23.45,0,0,1-1.86,7.75,28.37,28.37,0,0,1-4.27,6.94,31.57,31.57,0,0,1-6,5.6,2.73,2.73,0,0,1-1.12.72,4.79,4.79,0,0,1-1.24.15,3.47,3.47,0,0,1-1.9-.5,3.89,3.89,0,0,1-1.25-1.27,5.24,5.24,0,0,1-.65-1.78A9.94,9.94,0,0,1,303.45,167.78Zm4,1a5.74,5.74,0,0,0,3.23-1,11.88,11.88,0,0,0,2.86-2.7,23.94,23.94,0,0,0,2.4-3.8,32.8,32.8,0,0,0,1.84-4.26,34.33,34.33,0,0,0,1.15-4.11,16.9,16.9,0,0,0,.4-3.33,9.07,9.07,0,0,0-1.09-4.39,10.92,10.92,0,0,0-2.89-3.45Zm.74-44a2.17,2.17,0,0,0,.44,1.59,2.42,2.42,0,0,0,1.62.4,7.28,7.28,0,0,0,2.36-.5,27.53,27.53,0,0,0,3.08-1.3,28.8,28.8,0,0,0,3.27-1.9,23.17,23.17,0,0,0,2.95-2.34,12.91,12.91,0,0,0,2.15-2.48,4.46,4.46,0,0,0,.81-2.43q0-3.3-3.67-3.3a7.56,7.56,0,0,0-3.64,1.34,27.08,27.08,0,0,0-4.3,3.26,26.41,26.41,0,0,0-3.57,4A6.57,6.57,0,0,0,308.18,124.78Z"/><path class="cls-1" d="M332.2,127.58a8.78,8.78,0,0,1,.56-2.58c.38-1.1.85-2.3,1.44-3.61s1.24-2.63,2-4a41.67,41.67,0,0,1,2.27-3.64,18.14,18.14,0,0,1,2.21-2.68,2.87,2.87,0,0,1,1.8-1q1.68,0,1.68,1.62a2.76,2.76,0,0,1-.25,1.25,3.7,3.7,0,0,1-.62.9q-.37.4-.81.81a3.72,3.72,0,0,0-.74,1c-.38.62-.83,1.45-1.37,2.49s-1.06,2-1.56,3-.92,1.88-1.27,2.65a7.43,7.43,0,0,0-.53,1.27v.81a10.88,10.88,0,0,0,4.54-2.05,30,30,0,0,0,4.17-3.8,54.16,54.16,0,0,0,3.76-4.6c1.19-1.62,2.3-3.11,3.33-4.45a31.18,31.18,0,0,1,3-3.37,4,4,0,0,1,2.65-1.33,9.11,9.11,0,0,1-.91,4.07c-.6,1.23-1.25,2.43-2,3.61s-1.36,2.39-2,3.61a9.32,9.32,0,0,0-.9,4.14,2.14,2.14,0,0,0,1.18,1.71,11.8,11.8,0,0,0,2.74,1.31,27.58,27.58,0,0,0,3,.84c1,.21,1.63.33,2,.37v1.56c-.91,0-2.07,0-3.46,0a21.34,21.34,0,0,1-4.13-.47,12.11,12.11,0,0,1-3.74-1.43,4.82,4.82,0,0,1-2.24-2.92,24.82,24.82,0,0,0-3,2.42c-1,.92-2,1.79-3,2.62a17,17,0,0,1-3.24,2.08,8.44,8.44,0,0,1-3.77.84,2.46,2.46,0,0,1-2-1A3.36,3.36,0,0,1,332.2,127.58Z"/><path class="cls-1" d="M361.64,127.46a9.65,9.65,0,0,1-.78-5.95,13.46,13.46,0,0,1,2.27-5.22,16.18,16.18,0,0,1,4-3.93,14,14,0,0,1,4.32-2.11,4.34,4.34,0,0,1,3.36.25c.89.52,1.24,1.56,1,3.14a6.13,6.13,0,0,1-1.49,4.11,23.63,23.63,0,0,1-3.27,3.14q-1.77,1.39-3.27,2.52c-1,.75-1.49,1.45-1.49,2.12,0,.33.22.6.65.81a6.15,6.15,0,0,0,1.5.46,13.55,13.55,0,0,0,1.68.22c.56,0,1,.08,1.21.12q5.73-1.17,8.56-1.46a10,10,0,0,1,3.57,0c.5.21.41.56-.28,1.06a12.44,12.44,0,0,1-3.08,1.49,35.78,35.78,0,0,1-4.79,1.34,29.9,29.9,0,0,1-5.41.69,16.41,16.41,0,0,1-4.92-.53A5.73,5.73,0,0,1,361.64,127.46Zm10.64-13.82a4.48,4.48,0,0,0-2.33.65,8.31,8.31,0,0,0-2,1.65,11.72,11.72,0,0,0-1.5,2.18,13.05,13.05,0,0,0-.93,2.24.49.49,0,0,0,.19.06h.18a3.63,3.63,0,0,0,2-.71,11.43,11.43,0,0,0,2.09-1.78,11.23,11.23,0,0,0,1.65-2.24A4.42,4.42,0,0,0,372.28,113.64Z"/><path class="cls-1" d="M413,124.72a9.66,9.66,0,0,1,.69-3.52,34.09,34.09,0,0,1,1.58-3.51c.61-1.17,1.22-2.31,1.84-3.43a17.26,17.26,0,0,0,1.43-3.3,5.84,5.84,0,0,1-2,.72,18.42,18.42,0,0,1-2,.09l-.75,0-.81,0a5.71,5.71,0,0,1,1.34-2.4,11.14,11.14,0,0,1,2.21-1.8,14.35,14.35,0,0,1,2.61-1.28q1.38-.49,2.49-.81a34.49,34.49,0,0,0,3-5.75q1.16-2.9,2.37-5.67a39.87,39.87,0,0,1,2.8-5.29,18,18,0,0,1,4.32-4.63l.31,2.3-7.59,17.8a16.15,16.15,0,0,1,1.59-.37c.64-.13,1.3-.24,2-.35s1.34-.2,2-.31a14.62,14.62,0,0,0,1.62-.34l.37,0,.44,0a3.17,3.17,0,0,1,1.43.28,2.26,2.26,0,0,1,.93,1.34q-4.17,1.25-7.5,2.58a20.54,20.54,0,0,0-5.82,3.48,16.1,16.1,0,0,0-4,5.48,26.85,26.85,0,0,0-2.12,8.43v1.09a3,3,0,0,0,.13.94,1.49,1.49,0,0,0,.46.71,1.71,1.71,0,0,0,1,.38,6.65,6.65,0,0,0,2.61-.53,22.32,22.32,0,0,0,2.4-1.19c.77-.43,1.55-.82,2.36-1.18a6.45,6.45,0,0,1,2.59-.53,3.71,3.71,0,0,1-1.28,2.68,11.83,11.83,0,0,1-3.08,2.12,20.33,20.33,0,0,1-3.7,1.36,12.39,12.39,0,0,1-3.08.5,4.47,4.47,0,0,1-2.18-.5,5,5,0,0,1-1.59-1.33,6.14,6.14,0,0,1-1-1.9A7.19,7.19,0,0,1,413,124.72Z"/><path class="cls-1" d="M429.66,127.46a9.65,9.65,0,0,1-.78-5.95,13.47,13.47,0,0,1,2.28-5.22,16.14,16.14,0,0,1,4-3.93,14.15,14.15,0,0,1,4.32-2.11,4.37,4.37,0,0,1,3.37.25c.89.52,1.23,1.56,1,3.14a6.13,6.13,0,0,1-1.49,4.11,23.63,23.63,0,0,1-3.27,3.14q-1.77,1.39-3.27,2.52c-1,.75-1.49,1.45-1.49,2.12,0,.33.22.6.65.81a6.29,6.29,0,0,0,1.5.46,13.8,13.8,0,0,0,1.68.22c.56,0,1,.08,1.21.12q5.73-1.17,8.56-1.46a10.08,10.08,0,0,1,3.58,0c.49.21.4.56-.28,1.06a12.62,12.62,0,0,1-3.08,1.49,36,36,0,0,1-4.8,1.34,29.9,29.9,0,0,1-5.41.69,16.49,16.49,0,0,1-4.92-.53A5.73,5.73,0,0,1,429.66,127.46Zm10.64-13.82a4.5,4.5,0,0,0-2.33.65,8.51,8.51,0,0,0-2,1.65,11.21,11.21,0,0,0-1.49,2.18,12.38,12.38,0,0,0-.94,2.24.55.55,0,0,0,.19.06H434a3.65,3.65,0,0,0,2-.71,11.72,11.72,0,0,0,2.08-1.78,10.5,10.5,0,0,0,1.65-2.24A4.31,4.31,0,0,0,440.3,113.64Z"/><path class="cls-1" d="M451,127.89v-.81a2,2,0,0,1,.09-.59,3.12,3.12,0,0,1,.28-.59c.13-.21.29-.48.5-.81s.56-1,1.06-1.74l1.68-2.65,2-3.08c.68-1.08,1.34-2.1,2-3.08l1.68-2.64c.5-.79.87-1.37,1.12-1.74,0,0,.16-.07.34-.07h.84c.21,0,.33,0,.38.07l.27.31.47.53c.17.18.32.35.47.49a.57.57,0,0,0,.34.22,2.13,2.13,0,0,0,1.15-.37l1.25-.81c.43-.29.88-.56,1.33-.81a2.85,2.85,0,0,1,1.37-.37,3.28,3.28,0,0,1,2.65,1.24,4.08,4.08,0,0,1,1,2.61,8.69,8.69,0,0,1-.41,2.65q-.4,1.28-.87,2.52t-.87,2.49a8.39,8.39,0,0,0-.41,2.61,4.25,4.25,0,0,0,.32,1.9c.2.4.76.59,1.68.59a9.6,9.6,0,0,0,3.11-.5,9.78,9.78,0,0,1,3.11-.49,3.51,3.51,0,0,1-.87,2.45,6,6,0,0,1-2.18,1.53,11.45,11.45,0,0,1-2.8.78,20,20,0,0,1-2.74.22,4,4,0,0,1-3.39-1.31,5.45,5.45,0,0,1-1-3.49,7,7,0,0,1,.53-2.7c.35-.85.74-1.68,1.15-2.49s.8-1.63,1.15-2.46a6.49,6.49,0,0,0,.53-2.62,6.69,6.69,0,0,0-.09-1c-.06-.39-.32-.59-.78-.59a5.77,5.77,0,0,0-3.67,1.27,13.63,13.63,0,0,0-2.89,3.21,36.48,36.48,0,0,0-2.37,4.2q-1.1,2.28-2,4.2a22.86,22.86,0,0,1-1.77,3.21c-.59.85-1.19,1.27-1.81,1.27a2.77,2.77,0,0,1-2.05-.81A2.7,2.7,0,0,1,451,127.89Z"/><path class="cls-1" d="M477.58,127.46a9.65,9.65,0,0,1-.78-5.95,13.47,13.47,0,0,1,2.28-5.22,16.14,16.14,0,0,1,4-3.93,14.15,14.15,0,0,1,4.32-2.11,4.37,4.37,0,0,1,3.37.25c.89.52,1.23,1.56,1,3.14a6.13,6.13,0,0,1-1.49,4.11,23.63,23.63,0,0,1-3.27,3.14q-1.77,1.39-3.27,2.52c-1,.75-1.49,1.45-1.49,2.12,0,.33.22.6.65.81a6.29,6.29,0,0,0,1.5.46,13.8,13.8,0,0,0,1.68.22c.56,0,1,.08,1.21.12q5.73-1.17,8.56-1.46a10.08,10.08,0,0,1,3.58,0c.49.21.4.56-.28,1.06a12.62,12.62,0,0,1-3.08,1.49,36,36,0,0,1-4.8,1.34,29.9,29.9,0,0,1-5.41.69,16.49,16.49,0,0,1-4.92-.53A5.73,5.73,0,0,1,477.58,127.46Zm10.64-13.82a4.5,4.5,0,0,0-2.33.65,8.51,8.51,0,0,0-2,1.65,11.21,11.21,0,0,0-1.49,2.18,12.38,12.38,0,0,0-.94,2.24.55.55,0,0,0,.19.06h.19a3.65,3.65,0,0,0,2-.71,11.72,11.72,0,0,0,2.08-1.78,10.86,10.86,0,0,0,1.65-2.24A4.31,4.31,0,0,0,488.22,113.64Z"/><path class="cls-1" d="M527.37,130.69a4.77,4.77,0,0,1-2-.43,4.19,4.19,0,0,1-1.56-1.22,4.44,4.44,0,0,1-.87-1.8,4.15,4.15,0,0,1,.06-2.15,9.09,9.09,0,0,1,.72-3.61,35.65,35.65,0,0,1,1.55-3.23q.84-1.56,1.56-3.12a7.86,7.86,0,0,0,.71-3.3,5.81,5.81,0,0,0-2.83.88,19.41,19.41,0,0,0-3.08,2.24,31.08,31.08,0,0,0-3.05,3.11c-1,1.16-1.92,2.32-2.77,3.48s-1.59,2.27-2.24,3.3a26.91,26.91,0,0,0-1.46,2.62,2,2,0,0,1-.59.09l-.59,0c-.67.33-1.07.32-1.22,0a3.08,3.08,0,0,1,0-1.62,21.66,21.66,0,0,1,.69-2.46q.47-1.36.93-2.58c.31-.81.55-1.49.72-2s.18-.84.06-.84a5.36,5.36,0,0,0,.44-.81c.16-.38.33-.76.49-1.15s.31-.77.44-1.12a3,3,0,0,0,.19-.84.64.64,0,0,0-.41-.66,2.24,2.24,0,0,0-.78-.15c-.74-.42-1.52-.19-2.33.68a23,23,0,0,0-2.65,3.7q-1.43,2.4-3.11,5.48a63.16,63.16,0,0,1-3.67,5.94,4.83,4.83,0,0,1-2.15-.37c-.47-.25-.71-.87-.71-1.87a22,22,0,0,0,1.46-2.52q1-1.83,2.18-4.07c.81-1.5,1.67-3,2.58-4.55a38.49,38.49,0,0,1,2.62-3.92,8.36,8.36,0,0,1,2.27-2.21c.68-.39,1.21-.19,1.58.6a11.89,11.89,0,0,1,2.31-1.16,7.07,7.07,0,0,1,2.49-.46,2.09,2.09,0,0,1,1.4.5,3.52,3.52,0,0,1,.93,1.24,8.25,8.25,0,0,1,.53,1.59,7.22,7.22,0,0,1,.19,1.46c.45-.29,1.19-.8,2.2-1.53s2.12-1.44,3.3-2.14,2.36-1.34,3.52-1.9a7,7,0,0,1,2.86-.84,2.24,2.24,0,0,1,1.68.71,2.39,2.39,0,0,1,.69,1.72q-2.19,5.36-3.39,8.55a39.34,39.34,0,0,0-1.62,5,4.28,4.28,0,0,0,0,2.59,2.59,2.59,0,0,0,1.43,1.18,9.12,9.12,0,0,0,3.14-.56c1-.37,2-.78,3-1.21s2-.84,3-1.22a9.25,9.25,0,0,1,3.2-.56,2.24,2.24,0,0,1-1.3,2.12c-.34.21-.93.52-1.78.93l-2.71,1.34-2.73,1.37c-.88.43-1.5.74-1.87.9a11.46,11.46,0,0,1-1.06.47c-.29.1-.56.18-.81.25a4.88,4.88,0,0,1-.78.12Q527.92,130.69,527.37,130.69Z"/><path class="cls-1" d="M540.06,125.53c0-.17,0-.5,0-1s0-.83,0-1a36.16,36.16,0,0,1,5-8.22A42.45,42.45,0,0,1,552,108.6a2.32,2.32,0,0,0,.41-.06,2.39,2.39,0,0,1,.4-.07,4.67,4.67,0,0,1,2.68.72,5.8,5.8,0,0,1,1.71,1.81,7.39,7.39,0,0,1,.9,2.45,14.7,14.7,0,0,1,.25,2.68,12.36,12.36,0,0,1-1.12,5,18.61,18.61,0,0,1-3,4.73,16,16,0,0,1-4.2,3.51,9.57,9.57,0,0,1-4.91,1.37,4.84,4.84,0,0,1-3.83-1.37A5.52,5.52,0,0,1,540.06,125.53Zm4.73-.75a.93.93,0,0,0,.53.93,2.51,2.51,0,0,0,1.09.25,5.9,5.9,0,0,0,2.93-.81,10.4,10.4,0,0,0,4.35-4.82,7.16,7.16,0,0,0,.69-3c0-.45,0-1-.06-1.49a3.81,3.81,0,0,0-.41-1.46,2.33,2.33,0,0,0-1-1,2.59,2.59,0,0,0-1.78-.09,3.89,3.89,0,0,0-2,1.59,21.89,21.89,0,0,0-2,3.23,29.33,29.33,0,0,0-1.65,3.7A9.21,9.21,0,0,0,544.79,124.78Z"/><path class="cls-1" d="M560.54,123.91a5.3,5.3,0,0,1,.34-2q.35-.84,1.71-.84l.59,0a2.11,2.11,0,0,1,.6.09,7,7,0,0,0,.93,4.23c.66,1,1.89,1.43,3.67,1.43a13.83,13.83,0,0,0,4.26-.68,13.42,13.42,0,0,0,3.89-2,9.78,9.78,0,0,0,2.8-3.14,8.54,8.54,0,0,0,1.06-4.3,2.23,2.23,0,0,0-1-2,9.26,9.26,0,0,0-2.21-1,17,17,0,0,1-2.21-.84,1.61,1.61,0,0,1-1-1.58,3.46,3.46,0,0,1,1.71-2.65,19.93,19.93,0,0,1,4-2.27,31,31,0,0,1,4.57-1.59,15.68,15.68,0,0,1,3.49-.59,3.35,3.35,0,0,1-.78,2.49,5.36,5.36,0,0,1-1.84,1.15l-2.18.81a3.79,3.79,0,0,0-1.86,1.53,11.39,11.39,0,0,1,1.62,1.43,6.65,6.65,0,0,1,1,1.4,4.72,4.72,0,0,1,.5,1.58,15.45,15.45,0,0,1,.12,2.06,12,12,0,0,1-1.37,5.75,14.58,14.58,0,0,1-3.54,4.42,16.53,16.53,0,0,1-5,2.87,16.73,16.73,0,0,1-5.7,1,11.51,11.51,0,0,1-3.08-.4A7.74,7.74,0,0,1,563,129a6.09,6.09,0,0,1-2.49-5.13Z"/><path class="cls-1" d="M641.57,130.69a4,4,0,0,1-2.8-.5,5.51,5.51,0,0,1-2-2,6.05,6.05,0,0,1-.84-2.74,4.49,4.49,0,0,1,.65-2.7,34.5,34.5,0,0,0,3.64-5.51,4.56,4.56,0,0,0,.69-2.86q-.28-.84-1.53-.66a10.17,10.17,0,0,0-3,1.12,30,30,0,0,0-3.79,2.43,30.72,30.72,0,0,0-3.8,3.33,26,26,0,0,0-3.08,3.83,11,11,0,0,0-1.68,3.85,11.42,11.42,0,0,1-1,.6,2.25,2.25,0,0,1-1,.21c-.58,0-.94-.2-1.06-.62a4.32,4.32,0,0,1-.19-1.31,6,6,0,0,1,.94-3.11,20.93,20.93,0,0,1,2.17-3c.83-1,1.63-1.84,2.4-2.65a15.63,15.63,0,0,0,1.65-2c1-1.66,2-3.45,3-5.38l3-5.88q1.51-3,3.14-6t3.36-5.63A2.3,2.3,0,0,1,641,93a1.06,1.06,0,0,1,.65-.16,1.34,1.34,0,0,1,1.19.81,6.12,6.12,0,0,1-.1.81c-.06.37-.12.77-.19,1.18a9.83,9.83,0,0,1-.24,1.18c-.11.38-.18.63-.22.75-.21.5-.6,1.35-1.18,2.55s-1.21,2.5-1.87,3.89L637.15,108c-.62,1.3-1.06,2.29-1.31,2.95a14.18,14.18,0,0,1,1.65-1,7.17,7.17,0,0,1,1.4-.5,9.53,9.53,0,0,1,1.46-.19c.52,0,1.09,0,1.72,0a4.44,4.44,0,0,1,2.86,1.59,3.44,3.44,0,0,1,.4,2.55,11.36,11.36,0,0,1-1.18,3.18c-.6,1.14-1.24,2.28-1.93,3.42s-1.28,2.26-1.8,3.36a6.33,6.33,0,0,0-.72,3,1.08,1.08,0,0,0,.25.77,1.25,1.25,0,0,0,.62.38,3.47,3.47,0,0,0,.81.09h.75a7.38,7.38,0,0,0,2.46-.4c.76-.27,1.54-.56,2.33-.88s1.58-.6,2.37-.87a7.54,7.54,0,0,1,2.48-.4,2.91,2.91,0,0,1-1.15,2.15,11.83,11.83,0,0,1-2.77,1.8,19.93,19.93,0,0,1-3.36,1.25A11.63,11.63,0,0,1,641.57,130.69Z"/><path class="cls-1" d="M649.91,125.53c0-.17,0-.5,0-1s0-.83,0-1a36.89,36.89,0,0,1,5-8.22,42.45,42.45,0,0,1,6.81-6.72,2.2,2.2,0,0,0,.41-.06,2.57,2.57,0,0,1,.4-.07,4.67,4.67,0,0,1,2.68.72A5.8,5.8,0,0,1,667,111a7,7,0,0,1,.9,2.45,14.7,14.7,0,0,1,.25,2.68,12.36,12.36,0,0,1-1.12,5,18.58,18.58,0,0,1-2.95,4.73,16.3,16.3,0,0,1-4.2,3.51,9.64,9.64,0,0,1-4.92,1.37,4.85,4.85,0,0,1-3.83-1.37A5.51,5.51,0,0,1,649.91,125.53Zm4.73-.75a.91.91,0,0,0,.53.93,2.44,2.44,0,0,0,1.08.25,5.87,5.87,0,0,0,2.93-.81,10,10,0,0,0,2.55-2.05,10.59,10.59,0,0,0,1.81-2.77,7.3,7.3,0,0,0,.68-3c0-.45,0-1-.06-1.49a3.64,3.64,0,0,0-.41-1.46,2.28,2.28,0,0,0-1-1,2.57,2.57,0,0,0-1.77-.09,3.86,3.86,0,0,0-2,1.59,21.89,21.89,0,0,0-2,3.23,32.5,32.5,0,0,0-1.65,3.7A9.14,9.14,0,0,0,654.64,124.78Z"/><path class="cls-1" d="M666.27,149a28,28,0,0,1,4.48-5.63q2.57-2.46,5.26-4.64c1.81-1.45,3.6-2.87,5.39-4.26a46.92,46.92,0,0,0,4.94-4.45,26.42,26.42,0,0,0,3.93-5.26,20.24,20.24,0,0,0,2.27-6.69c0-.08,0-.22,0-.41a2.61,2.61,0,0,1,0-.4q-1.43,1.68-3.39,3.73a39.33,39.33,0,0,1-4.26,3.86,28.56,28.56,0,0,1-4.76,3,10.65,10.65,0,0,1-4.82,1.25,14.94,14.94,0,0,1-1.59-.1,7.79,7.79,0,0,1-1.87-.4,4.77,4.77,0,0,1-1.55-.87,1.8,1.8,0,0,1-.66-1.43,10.81,10.81,0,0,1,.44-2.46c.29-1.1.67-2.3,1.15-3.61s1-2.66,1.65-4a38.14,38.14,0,0,1,1.93-3.79,15.14,15.14,0,0,1,2-2.8,2.81,2.81,0,0,1,1.9-1.09,2.84,2.84,0,0,1,1.46.34,1.29,1.29,0,0,1,.59,1.21,5.16,5.16,0,0,1-1.09,3c-.72,1-1.52,2.1-2.39,3.24a27.47,27.47,0,0,0-2.4,3.76,9.53,9.53,0,0,0-1.09,4.55A15.84,15.84,0,0,0,681,123a23.41,23.41,0,0,0,5.85-4.17,38.11,38.11,0,0,0,4.61-5.42q2-2.9,3.58-5.41c1-1.68,1.92-3.07,2.64-4.17s1.36-1.65,1.9-1.65c.79,0,1.25.23,1.4.68a5.74,5.74,0,0,1,.22,1.75c-.38,1.24-.88,2.71-1.53,4.42s-1.3,3.46-2,5.28-1.3,3.66-1.83,5.48a28.67,28.67,0,0,0-1.06,5,1,1,0,0,0,0,.19.82.82,0,0,1,0,.18,6.13,6.13,0,0,0,2-1.27c.67-.6,1.32-1.23,2-1.87s1.28-1.21,1.9-1.71a3.13,3.13,0,0,1,2-.75,3.49,3.49,0,0,1,.47.87,2.63,2.63,0,0,1,0,2.06c-.37.29-1,.77-2,1.46s-2,1.41-3,2.18-2,1.5-3,2.21a22.22,22.22,0,0,0-1.9,1.55,10.07,10.07,0,0,0-1.77,2.4c-.6,1.06-1.2,2.25-1.8,3.58s-1.21,2.72-1.81,4.2l-1.74,4.29c-.56,1.39-1.11,2.69-1.65,3.89a27.8,27.8,0,0,1-1.49,2.93l-1.25,1.93c-.62,1-1.31,2-2,3.08s-1.49,2.13-2.21,3.11-1.26,1.67-1.59,2.08c-.17.21-.61.69-1.34,1.44l-2.46,2.52q-1.36,1.39-2.73,2.7c-.92.87-1.62,1.54-2.12,2-.5.29-1.15.65-2,1.06a17.44,17.44,0,0,1-2.52,1.06,10.45,10.45,0,0,1-2.55.53,2.88,2.88,0,0,1-2-.5,3,3,0,0,1-1-2.08,11,11,0,0,1,.65-4.24,50.41,50.41,0,0,1,2.84-6.84Q662.72,154.9,666.27,149Zm19.11-13.07a1.48,1.48,0,0,0-.4.09l-.41.16a4.76,4.76,0,0,1-.56.43l-.93.69-1,.71a6.49,6.49,0,0,0-.65.53A33.68,33.68,0,0,0,677.6,142c-1.45,1.47-3,3.11-4.51,4.91s-3.09,3.71-4.61,5.7-2.86,3.91-4,5.76a48.62,48.62,0,0,0-2.9,5.1,9.91,9.91,0,0,0-1.15,3.73,1.43,1.43,0,0,0,1.19,1.65c.8.17,2.18-.23,4.13-1.18.42-.37,1-.92,1.72-1.65l2.2-2.21,2.06-2.05c.62-.63,1-1,1.12-1.19.33-.41.88-1.18,1.65-2.3s1.56-2.3,2.39-3.55,1.61-2.42,2.34-3.54,1.21-1.91,1.46-2.37c.37-.66.83-1.58,1.37-2.77s1.06-2.41,1.56-3.7.92-2.52,1.27-3.7A10.59,10.59,0,0,0,685.38,135.92Z"/><path class="cls-1" d="M715.94,84.58V86a9.2,9.2,0,0,1-.16,1.68,3.39,3.39,0,0,1-.59,1.4,1.6,1.6,0,0,1-1.37.59c-.08,0-.22-.1-.4-.28a.75.75,0,0,1-.28-.47,11.45,11.45,0,0,0,0-4.88,9.39,9.39,0,0,0-1.37-2.84c-.56-.74-1.1-1.43-1.62-2.05a3.75,3.75,0,0,1-.78-2.49,6.44,6.44,0,0,1,3,.65,6,6,0,0,1,2,1.75,7.15,7.15,0,0,1,1.18,2.52A12,12,0,0,1,715.94,84.58Zm10.2,3.3q0,1.05-.06,1.92a4.43,4.43,0,0,1-.4,1.59,2.92,2.92,0,0,1-1,1.18,4.78,4.78,0,0,1-1.93.66c-.75.12-1.17,0-1.28-.44a5.26,5.26,0,0,1-.15-1.24,1.93,1.93,0,0,1,.22-1,5.71,5.71,0,0,1,.49-.72,4.33,4.33,0,0,0,.5-.71,1.78,1.78,0,0,0,.22-.93,7.38,7.38,0,0,0-.56-2.84c-.37-.89-.78-1.77-1.21-2.64s-.83-1.75-1.19-2.65a7.65,7.65,0,0,1-.52-2.83,4.82,4.82,0,0,1,3.11,1.06A8.37,8.37,0,0,1,724.49,81a14,14,0,0,1,1.25,3.48A16.3,16.3,0,0,1,726.14,87.88Z"/></g></g></svg>