<svg xmlns="http://www.w3.org/2000/svg" viewBox="0 0 203.64 23.01"><defs><style>.cls-1{fill:#282828;}</style></defs><g id="Capa_2" data-name="Capa 2"><g id="Capa_1-2" data-name="Capa 1"><path class="cls-1" d="M1,5.63.44,2.05A5.54,5.54,0,0,1,2,1,10.32,10.32,0,0,1,4,.27,8.57,8.57,0,0,1,6.1,0,8.21,8.21,0,0,1,9.75.76a5.63,5.63,0,0,1,2.42,2.15A6.27,6.27,0,0,1,13,6.26a8.36,8.36,0,0,1-.71,3.27,17.26,17.26,0,0,1-1.85,3.26A35.8,35.8,0,0,1,8,15.85c-.89,1-1.75,1.89-2.6,2.72S3.82,20.14,3.19,20.8h7.27A4.15,4.15,0,0,0,12,20.54a2.67,2.67,0,0,0,1.1-.85,10.58,10.58,0,0,0,1-1.58h.32L13,22.57H0v-.32c.74-.67,1.58-1.5,2.51-2.48s1.88-2,2.83-3.18A38.08,38.08,0,0,0,8,13.08a21.88,21.88,0,0,0,2-3.52,8.19,8.19,0,0,0,.74-3.18,6.05,6.05,0,0,0-1.22-4A3.93,3.93,0,0,0,6.1,1,5.07,5.07,0,0,0,2.59,2.18,4.4,4.4,0,0,0,1.33,5.63Z"/><path class="cls-1" d="M34.48,0a6,6,0,0,1,4,1.39,8.89,8.89,0,0,1,2.56,4,18.66,18.66,0,0,1,.9,6.14,18.64,18.64,0,0,1-.9,6.15,8.89,8.89,0,0,1-2.56,4,6.35,6.35,0,0,1-7.93,0,8.81,8.81,0,0,1-2.56-4,18.37,18.37,0,0,1-.91-6.15A18.39,18.39,0,0,1,28,5.36a8.81,8.81,0,0,1,2.56-4A5.93,5.93,0,0,1,34.48,0Zm0,1q-2.4,0-3.81,2.83a17.66,17.66,0,0,0-1.4,7.72,17.68,17.68,0,0,0,1.4,7.73q1.41,2.84,3.81,2.83t3.83-2.83A17.84,17.84,0,0,0,39.7,11.5a17.82,17.82,0,0,0-1.39-7.72Q36.92.94,34.48,1Z"/><path class="cls-1" d="M56.23,10.59a1.42,1.42,0,0,1-1-.41,1.4,1.4,0,0,1-.41-1,1.4,1.4,0,0,1,1.43-1.43,1.4,1.4,0,0,1,1,.41,1.42,1.42,0,0,1,.41,1,1.4,1.4,0,0,1-1.42,1.42Zm0,12.1a1.43,1.43,0,0,1-1-2.43,1.42,1.42,0,0,1,1-.41,1.4,1.4,0,0,1,1,.41,1.45,1.45,0,0,1,0,2A1.36,1.36,0,0,1,56.23,22.69Z"/><path class="cls-1" d="M77.94,0a6,6,0,0,1,4,1.39,8.89,8.89,0,0,1,2.56,4,18.66,18.66,0,0,1,.9,6.14,18.64,18.64,0,0,1-.9,6.15,8.89,8.89,0,0,1-2.56,4,6.36,6.36,0,0,1-7.94,0,8.89,8.89,0,0,1-2.56-4,18.64,18.64,0,0,1-.9-6.15,18.66,18.66,0,0,1,.9-6.14,8.89,8.89,0,0,1,2.56-4A6,6,0,0,1,77.94,0Zm0,1q-2.4,0-3.81,2.83a17.52,17.52,0,0,0-1.4,7.72,17.54,17.54,0,0,0,1.4,7.73q1.41,2.84,3.81,2.83c1.62,0,2.9-.94,3.82-2.83a17.68,17.68,0,0,0,1.4-7.73,17.66,17.66,0,0,0-1.4-7.72C80.84,1.89,79.56,1,77.94,1Z"/><path class="cls-1" d="M105.94,0a6,6,0,0,1,4,1.39,8.81,8.81,0,0,1,2.56,4,18.66,18.66,0,0,1,.9,6.14,18.64,18.64,0,0,1-.9,6.15,8.81,8.81,0,0,1-2.56,4,6.35,6.35,0,0,1-7.93,0,8.81,8.81,0,0,1-2.56-4,18.64,18.64,0,0,1-.9-6.15,18.66,18.66,0,0,1,.9-6.14,8.81,8.81,0,0,1,2.56-4A5.93,5.93,0,0,1,105.94,0Zm0,1q-2.4,0-3.81,2.83a17.66,17.66,0,0,0-1.4,7.72,17.68,17.68,0,0,0,1.4,7.73q1.41,2.84,3.81,2.83c1.63,0,2.9-.94,3.83-2.83a17.84,17.84,0,0,0,1.39-7.73,17.82,17.82,0,0,0-1.39-7.72C108.84,1.89,107.57,1,105.94,1Z"/><path class="cls-1" d="M146.27,5.63h-.09a1.71,1.71,0,0,0-.56-1.22,1.77,1.77,0,0,0-1.28-.49H144V3.6h2.31Zm0,14.91v2H144v-.32h.38a1.77,1.77,0,0,0,1.28-.5,1.74,1.74,0,0,0,.56-1.21ZM148.2,3.6v19h-2V3.6Zm12,9.14v.95H147.85v-.95ZM148.11,5.63v-2h2.3v.32H150a1.84,1.84,0,0,0-1.29.49,1.58,1.58,0,0,0-.54,1.22Zm0,14.91h.09a1.6,1.6,0,0,0,.54,1.21,1.85,1.85,0,0,0,1.29.5h.38v.32h-2.3ZM160,5.63h-.1a1.7,1.7,0,0,0-.55-1.22A1.78,1.78,0,0,0,158,3.92h-.38V3.6H160Zm0,14.91v2h-2.31v-.32H158a1.79,1.79,0,0,0,1.28-.5,1.73,1.73,0,0,0,.55-1.21ZM161.89,3.6v19h-2V3.6Zm-.1,2v-2h2.31v.32h-.38a1.78,1.78,0,0,0-1.28.49,1.7,1.7,0,0,0-.55,1.22Zm0,14.91h.1a1.73,1.73,0,0,0,.55,1.21,1.79,1.79,0,0,0,1.28.5h.38v.32h-2.31Z"/><path class="cls-1" d="M182.68,3.16c.59,0,1.11,0,1.55.06s.83.09,1.15.15a5.29,5.29,0,0,1,.86.19l.65.2,0,3.13h-.38a2.54,2.54,0,0,0-.89-2A5,5,0,0,0,180.2,5a2.52,2.52,0,0,0-1.09,2.13,3.46,3.46,0,0,0,.11.84,2.84,2.84,0,0,0,.38.84,4.53,4.53,0,0,0,.74.82l6.39,4.93a3.57,3.57,0,0,1,1.07,1.53,5.87,5.87,0,0,1,.38,1.85,4.39,4.39,0,0,1-.73,2.56,5.33,5.33,0,0,1-2,1.85,6,6,0,0,1-2.83.68,13,13,0,0,1-2-.16,10,10,0,0,1-2-.49,4.89,4.89,0,0,1-1.52-.84,5.58,5.58,0,0,1-.1-1.12,10.66,10.66,0,0,1,.11-1.44,9.43,9.43,0,0,1,.31-1.36h.37a4.34,4.34,0,0,0,.42,2.44,3.49,3.49,0,0,0,1.58,1.53,5.06,5.06,0,0,0,2.43.49,4.93,4.93,0,0,0,3.08-1,3.07,3.07,0,0,0,1.12-2.49,3.38,3.38,0,0,0-.27-1.37,3.24,3.24,0,0,0-.86-1.15L179,11.19a3.93,3.93,0,0,1-1.2-1.68,5.32,5.32,0,0,1-.31-1.73,4.12,4.12,0,0,1,.69-2.34A5,5,0,0,1,180,3.78,5.65,5.65,0,0,1,182.68,3.16Zm4.17.29,0,.56h-2.25V3.45Z"/><path class="cls-1" d="M202.21,22.69a1.36,1.36,0,0,1-1-.41,1.45,1.45,0,0,1,0-2,1.4,1.4,0,0,1,1-.41,1.42,1.42,0,0,1,1,.41,1.42,1.42,0,0,1-1,2.43Z"/></g></g></svg>