<svg xmlns="http://www.w3.org/2000/svg" viewBox="0 0 78 943.36"><defs><style>.cls-1{fill:#1d1d1b;}</style></defs><g id="Capa_2" data-name="Capa 2"><g id="Capa_1-2" data-name="Capa 1"><path class="cls-1" d="M45.41,940.52c-18.62-11.34-33.1-28-39.14-49.24-5.13-18-4.11-37.32.82-55.24,5.95-21.7,18.63-40.45,29.75-59.75,12-20.78,24.8-44.45,22.22-69.28-.39-3.7-.57-8.42-3-11.43s-6.83-5-10.55-6c-3.09-.89-18.23-3.08-16.43,4,1.34,5.31,13.36,5.66,17.37,5.93,8.69.58,19.53-.26,26.22-6.55,5.59-5.26,5.37-13.93,5.27-21a110.31,110.31,0,0,0-4.82-29.62c-6.2-21-16.71-40.47-26.86-59.75-11.54-21.91-23.78-44.3-28.87-68.76A97.87,97.87,0,0,1,15.3,495.9c-.09-4.63-.7-11.19,1.83-15.31,3.29-5.36,11.37-6.21,17.06-6.26,1,0,14.88,1.54,14.23,2.59a1.48,1.48,0,0,0,0,1.52c0-.05-5.71,1.17-6.05,1.2a32.67,32.67,0,0,1-7,0c-2.81-.34-6.32-1.15-8.2-3.44s-1.69-6-1.9-8.79A149.14,149.14,0,0,1,28,425.88,175.49,175.49,0,0,1,43,383.6c6-12.1,12.94-23.71,19-35.8,8.81-17.67,16.34-37.56,11.53-57.48-4.4-18.21-18-32.26-33.14-42.4a142.08,142.08,0,0,0-16.82-9.62c-3.47-1.69-8.45.19-10.79,3.32a4.34,4.34,0,0,0-.1,5.48c2.53,3.5,10.45,2.66,14.2,2.66,10.47,0,22-1.43,31.47-6,8.16-4,12.15-10.65,11.82-19.64-.57-15.18-4.43-30.36-8-45-4.7-19.15-10-38.16-14.51-57.35C42.4,99.89,37.76,77.72,36.68,55.3c-.87-18,.4-37.52,10.45-53.07C48.19.59,45.57-.93,44.52.7c-8.33,12.9-10.8,28.57-11.05,43.67C33.15,62.79,36,81.23,39.56,99.26c7.25,36.49,19.44,72,25.66,108.64,1.15,6.77,2.94,14.94,1.6,21.81-2.23,11.46-17.14,14.59-26.88,16.06a83.9,83.9,0,0,1-19.13.73c-1.11-.09-4.89.14-5.49-.9-1.32-2.27,1.08-3.33,2.51-4,3.74-1.86,6.91.68,10.2,2.47,10.25,5.58,20,12.32,28,20.92,12.14,13.13,18.11,30.12,15.24,47.9-4.34,26.79-21.72,49.62-33,73.7S20.64,437.26,22,464c.46,8.87.73,16.08,10.82,18.24,3.53.75,17,2,18.6-3.1.19-.64-.26-2.79-.19-1.12,0-.74.42-1.25.16-2.08-.69-2.25-3.88-3-5.85-3.52-7.82-1.95-17.7-2-25.08,1.55-7.6,3.66-8.06,10.63-8.22,18.22a104.2,104.2,0,0,0,3.65,28.43c10.9,41.7,38.93,76.32,52.57,117a116.47,116.47,0,0,1,6.32,30.63c.44,8.12,1.42,19.17-6.39,24.15-8.51,5.43-20.9,5.09-30.38,2.86-1.41-.33-3.6-.66-4.76-1.59-.28-.23-1.23-.5-1.26-.93-.07-.77,4.37-1.24,4.49-1.25,5.38-.43,12.21,1.34,16.28,5,3.48,3.16,3.38,10.38,3.53,14.78A71,71,0,0,1,54,730.94c-3.16,12.43-8.84,24.08-15,35.29-10.69,19.52-24,38-31.69,59-11.88,32.54-10.52,70.72,12.7,98a97.84,97.84,0,0,0,23.84,19.86c1.66,1,3.18-1.59,1.52-2.61Z"/></g></g></svg>