<svg xmlns="http://www.w3.org/2000/svg" viewBox="0 0 421.41 56.83"><defs><style>.cls-1{fill:#1d1d1b;}</style></defs><g id="Capa_2" data-name="Capa 2"><g id="Capa_1-2" data-name="Capa 1"><path class="cls-1" d="M0,45.79v-1A4.76,4.76,0,0,1,.14,43.6a3.73,3.73,0,0,1,.38-1,.84.84,0,0,1,.8-.41c.37,0,.77.32,1.22,1s1,1.38,1.66,2.19a10.77,10.77,0,0,0,2.54,2.19,7.05,7.05,0,0,0,3.82,1,19.62,19.62,0,0,0,4.2-.56,38.77,38.77,0,0,0,5.08-1.53A43.66,43.66,0,0,0,25,44.09a26.65,26.65,0,0,0,4.59-3,16.46,16.46,0,0,0,3.27-3.57,7.15,7.15,0,0,0,1.25-3.93,19.13,19.13,0,0,0-4.66.56,20.69,20.69,0,0,1-5,.55,3.29,3.29,0,0,1,.21-1.18,1.44,1.44,0,0,1,.9-.83l12.3-5.28,1.8-1.81c.19-.42.53-1.17,1-2.26s1-2.25,1.57-3.47,1.08-2.38,1.59-3.44.88-1.81,1.12-2.23a2.17,2.17,0,0,1,.27-.48l.59-.84a9,9,0,0,0,.56-.8,4.4,4.4,0,0,0,.31-.52,5.58,5.58,0,0,0-.07-1c0-.28-.32-.56-.83-.83q-6.47,2.36-12.44,4.37T21.19,18.55a.8.8,0,0,0-.21,0,1.24,1.24,0,0,1-.27,0,1.2,1.2,0,0,1-.94-.42,1.35,1.35,0,0,1-.38-1c0-.46.75-1.15,2.25-2.05s3.42-1.9,5.74-3S32.24,10,35,8.86s5.44-2.17,8-3.09,4.79-1.68,6.74-2.26a17.41,17.41,0,0,1,3.89-.87,4.62,4.62,0,0,1,2.54.69,2.7,2.7,0,0,1,1.07,2.44,1.13,1.13,0,0,1-.31.86,3.44,3.44,0,0,1-.73.56,7,7,0,0,1-.87.42,2.91,2.91,0,0,0-.73.38c-.28.23-.65.57-1.11,1s-.93.9-1.39,1.39l-1.25,1.28a4.2,4.2,0,0,0-.62.7,29.35,29.35,0,0,0-1.53,2.78c-.61,1.2-1.18,2.42-1.74,3.64s-1,2.33-1.42,3.3A8.05,8.05,0,0,0,45,23.83v1.25a4.78,4.78,0,0,0,1-.17,7.45,7.45,0,0,1,1.46-.21,3.11,3.11,0,0,1,1.32.21c.39.16.59.54.59,1.15a1.38,1.38,0,0,1-.9,1.32c-.23.09-.63.26-1.18.52l-1.81.8-1.87.8L42.31,30A83.24,83.24,0,0,1,36,38.94a39.86,39.86,0,0,1-7.26,7A31.38,31.38,0,0,1,20,50.44,34.19,34.19,0,0,1,9.17,52a13.37,13.37,0,0,1-2.92-.35,10.89,10.89,0,0,1-3-1.11A7.49,7.49,0,0,1,.94,48.64,4.43,4.43,0,0,1,0,45.79Z"/><path class="cls-1" d="M47.25,47.59a6.23,6.23,0,0,1,.21-1.7,11.5,11.5,0,0,1,.76-1.84c.32-.46.89-1.32,1.7-2.57s1.69-2.58,2.64-4l2.68-4L57,30.85q.56-.84.9-.9a7.63,7.63,0,0,1,1.32-.07,12.43,12.43,0,0,1,1.28.07,1,1,0,0,1,.94.9,17.84,17.84,0,0,1-2.5,4.38l-3.16,4.1a28.55,28.55,0,0,0-2.71,4.17,9.64,9.64,0,0,0-1.15,4.58c.19,0,.48,0,.87.07l1.25.14,1.25.14a2.45,2.45,0,0,0,.87,0l1.39-.28c.65-.14,1.36-.3,2.12-.49s1.47-.37,2.12-.55,1.11-.32,1.39-.42c0,.1,0,.24,0,.45a3.39,3.39,0,0,1,0,.45A2.58,2.58,0,0,1,62,49.82a11.39,11.39,0,0,1-2.92,1.35,17.26,17.26,0,0,1-3.4.7C54.5,52,53.62,52,53,52a9.22,9.22,0,0,1-2.08-.24A5.63,5.63,0,0,1,49.09,51a4.19,4.19,0,0,1-1.32-1.39A3.86,3.86,0,0,1,47.25,47.59ZM67,7.78c.56,0,1.09,0,1.6.07a4.78,4.78,0,0,1,1.35.31,1.83,1.83,0,0,1,.91.8,3.12,3.12,0,0,1,.31,1.53v.9a3.73,3.73,0,0,1-.1.91,1.67,1.67,0,0,1-.39.73,1.13,1.13,0,0,1-.9.31,1.86,1.86,0,0,1-1.53-.69,4.78,4.78,0,0,1-.83-1.6,8.3,8.3,0,0,1-.35-1.84C67,8.58,67,8.11,67,7.78Z"/><path class="cls-1" d="M64.62,48.92V48a2.07,2.07,0,0,1,.1-.66,3.31,3.31,0,0,1,.32-.66c.13-.23.32-.53.55-.9s.63-1.07,1.18-1.95l1.88-3,2.19-3.44L73,34c.69-1.09,1.32-2.07,1.87-2.95s1-1.53,1.25-1.95a.71.71,0,0,1,.38-.07h.94a.81.81,0,0,1,.42.07l.31.35.52.59.52.56c.17.16.29.24.39.24a2.4,2.4,0,0,0,1.28-.42c.44-.27.9-.58,1.39-.9s1-.63,1.49-.9a3.15,3.15,0,0,1,1.53-.42,3.66,3.66,0,0,1,3,1.39,4.55,4.55,0,0,1,1.14,2.92A9.72,9.72,0,0,1,89,35.47c-.3,1-.62,1.89-1,2.81s-.67,1.86-1,2.78A9.15,9.15,0,0,0,86.57,44a4.8,4.8,0,0,0,.35,2.12c.23.44.86.66,1.88.66a10.91,10.91,0,0,0,3.47-.55,10.66,10.66,0,0,1,3.48-.56,3.91,3.91,0,0,1-1,2.74,6.93,6.93,0,0,1-2.43,1.71,12.56,12.56,0,0,1-3.13.86,20.26,20.26,0,0,1-3,.25,4.54,4.54,0,0,1-3.79-1.46,6.15,6.15,0,0,1-1.15-3.89,7.85,7.85,0,0,1,.59-3c.4-1,.83-1.88,1.29-2.78s.89-1.82,1.29-2.75A7.43,7.43,0,0,0,85,34.39a7.28,7.28,0,0,0-.11-1.07.76.76,0,0,0-.87-.66,6.45,6.45,0,0,0-4.1,1.42,15.16,15.16,0,0,0-3.23,3.58A39.5,39.5,0,0,0,74,42.35Q72.82,44.89,71.81,47a25.28,25.28,0,0,1-2,3.58,2.62,2.62,0,0,1-2,1.42,3.11,3.11,0,0,1-2.29-.9A3,3,0,0,1,64.62,48.92Z"/><path class="cls-1" d="M106.76,29.32a25.67,25.67,0,0,0-3.93,4.24,28.51,28.51,0,0,0-3.16,5.35,13,13,0,0,0-1.28,5.35,3.11,3.11,0,0,0,1,2.74,5,5,0,0,0,2.92.73,16.51,16.51,0,0,0,4-.48c1.29-.33,2.58-.69,3.85-1.08s2.56-.75,3.86-1.08a16.51,16.51,0,0,1,4-.48,4.57,4.57,0,0,1-.24,1.56,6.11,6.11,0,0,1-.8,1.42c-2.36,1.12-4.8,2.14-7.3,3.06A22.12,22.12,0,0,1,101.86,52a8.34,8.34,0,0,1-2.57-.45,9,9,0,0,1-2.54-1.29,7.65,7.65,0,0,1-1.91-2,4.43,4.43,0,0,1-.76-2.53A20.43,20.43,0,0,1,95,39.85a23.1,23.1,0,0,1,2.46-5.46,27.63,27.63,0,0,1,3.76-4.76A24,24,0,0,1,106,25.85v-.07a23.85,23.85,0,0,1,2.33-1.22,7,7,0,0,1,2.43-.66,2.82,2.82,0,0,1,2,.56,3,3,0,0,1,.79,2.43c0,.28,0,.6,0,1s-.06.76-.1,1.15a3.91,3.91,0,0,1-.28,1.07,2.27,2.27,0,0,1-.49.77,2.74,2.74,0,0,1-.66.35l-.73.27a4.21,4.21,0,0,1-.83.21v-4.3A7.42,7.42,0,0,0,106.76,29.32Z"/><path class="cls-1" d="M118.05,47.59a23.79,23.79,0,0,1,2.29-7.12,26.08,26.08,0,0,1,3.89-5.66,21.77,21.77,0,0,1,4.8-4,14.74,14.74,0,0,1,5-2,9,9,0,0,1,4.52.24,6.17,6.17,0,0,1,3.33,2.71,6.86,6.86,0,0,1-.69,3c-.47.95-1,1.88-1.57,2.81a26.69,26.69,0,0,0-1.56,2.88,7.65,7.65,0,0,0-.7,3.23,4.71,4.71,0,0,0,.77,2.85,3.22,3.22,0,0,0,2.78,1,10.43,10.43,0,0,0,3.13-.48,10.33,10.33,0,0,1,3.12-.49l.87,0,.87,0a8.5,8.5,0,0,1-2.09,2A13.57,13.57,0,0,1,144.1,50a16.42,16.42,0,0,1-2.95.83,14.94,14.94,0,0,1-2.81.28,4.42,4.42,0,0,1-2.23-.56,5.31,5.31,0,0,1-1.63-1.42,6.92,6.92,0,0,1-1-2,6.64,6.64,0,0,1-.38-2.22l-2.19,2.43a20.89,20.89,0,0,1-2.5,2.29,14.4,14.4,0,0,1-2.85,1.7,7.75,7.75,0,0,1-3.16.66,4,4,0,0,1-3.06-1.32A4.41,4.41,0,0,1,118.05,47.59Zm4.45-2.15c0,.37,0,.79,0,1.25s.31.77.87.9a12.7,12.7,0,0,0,3.89-1.8,24.87,24.87,0,0,0,4-3.27,21.39,21.39,0,0,0,3.16-4,7.93,7.93,0,0,0,1.29-4.14c0-.09,0-.24,0-.45s0-.36,0-.45a12.17,12.17,0,0,0-4.66,1,15.33,15.33,0,0,0-4.24,2.61,14.11,14.11,0,0,0-3.09,3.82A9.26,9.26,0,0,0,122.5,45.44Z"/><path class="cls-1" d="M232.28,48.85a31.37,31.37,0,0,1,1-7.93A61.7,61.7,0,0,1,236,33c1.07-2.62,2.22-5.17,3.47-7.64s2.41-4.81,3.48-7v-.9c-.51.56-1.3,1.4-2.36,2.54s-2.26,2.43-3.58,3.89-2.72,3-4.21,4.58L228.56,33q-2,2.16-3.54,3.89l-2.33,2.58a8.58,8.58,0,0,0-1.46,2.43c-.46,1.06-1,2.14-1.49,3.23A15.6,15.6,0,0,1,218,48a2.81,2.81,0,0,1-2.22,1.21,4.75,4.75,0,0,1-1.6-.21,1.49,1.49,0,0,1-.83-.66,2.6,2.6,0,0,1-.35-1.11c0-.44-.07-1-.07-1.63a28.34,28.34,0,0,1,.42-4.9c.28-1.6.62-3.19,1-4.79s.89-3.2,1.43-4.8,1.07-3.2,1.63-4.83v-.9l-.45.45a2.63,2.63,0,0,0-.39.45c-1.11,1.63-2.22,3.36-3.33,5.21S211,35.18,209.73,37a55,55,0,0,1-4,5.28,32.89,32.89,0,0,1-4.55,4.45,20.38,20.38,0,0,1-5.32,3.09A16.92,16.92,0,0,1,189.55,51c-.51,0-1.17,0-2-.07a12.13,12.13,0,0,1-2.4-.38,5.31,5.31,0,0,1-2-1,2.62,2.62,0,0,1-.87-2.12,2.69,2.69,0,0,1,.63-1.43A5,5,0,0,1,184,44.75a7.68,7.68,0,0,0,1.56,2.12,3.08,3.08,0,0,0,1.91.52,15.42,15.42,0,0,0,4.34-.66A25,25,0,0,0,196.18,45a26.56,26.56,0,0,0,4-2.5,19.29,19.29,0,0,0,3.19-3c.7-.88,1.53-2,2.5-3.48s2-3,3.13-4.69l3.41-5.21c1.15-1.78,2.29-3.46,3.4-5s2.14-3,3.09-4.27a21.47,21.47,0,0,1,2.47-2.88,2.51,2.51,0,0,1,1.42.31,1.81,1.81,0,0,1,.66.87,3.62,3.62,0,0,1,.21,1.28v1.57a18.89,18.89,0,0,1-.83,5.55c-.56,1.81-1.18,3.56-1.88,5.25s-1.32,3.36-1.87,5a15,15,0,0,0-.84,4.83,3.15,3.15,0,0,0,0,.45c0,.21,0,.36,0,.46q6.39-7,11-12.16l7.82-8.79c2.15-2.44,3.91-4.4,5.28-5.91s2.45-2.69,3.26-3.54a13.23,13.23,0,0,1,1.88-1.74,2.1,2.1,0,0,1,1.08-.45,1.23,1.23,0,0,1,1,.38,2.08,2.08,0,0,1,.42.94,4.79,4.79,0,0,1,.07,1.14c0,.4,0,.73,0,1a16.75,16.75,0,0,1-1.07,5.8,56.46,56.46,0,0,1-2.64,6.05c-1,2.06-2.19,4.15-3.44,6.25s-2.4,4.26-3.44,6.46a53.45,53.45,0,0,0-2.64,6.74,23.48,23.48,0,0,0-1.08,7.06c0,1.2,0,2.09.07,2.67a3.26,3.26,0,0,0,.42,1.43A6.14,6.14,0,0,0,237.31,54c.49.44,1.2,1.15,2.12,2.12a5.13,5.13,0,0,1-3.05.66,4.16,4.16,0,0,1-2.5-1.18,5.89,5.89,0,0,1-1.53-2.74A8.87,8.87,0,0,1,232.28,48.85Z"/><path class="cls-1" d="M246.87,47.59a23.79,23.79,0,0,1,2.29-7.12,26.08,26.08,0,0,1,3.89-5.66,22,22,0,0,1,4.8-4,14.74,14.74,0,0,1,5-2,9,9,0,0,1,4.52.24,6.17,6.17,0,0,1,3.33,2.71,6.86,6.86,0,0,1-.69,3c-.47.95-1,1.88-1.57,2.81a26.69,26.69,0,0,0-1.56,2.88,7.65,7.65,0,0,0-.7,3.23,4.71,4.71,0,0,0,.77,2.85,3.22,3.22,0,0,0,2.78,1,10.43,10.43,0,0,0,3.13-.48,10.33,10.33,0,0,1,3.12-.49l.87,0,.87,0a8.5,8.5,0,0,1-2.09,2A13.57,13.57,0,0,1,272.92,50a16.42,16.42,0,0,1-2.95.83,14.94,14.94,0,0,1-2.81.28,4.42,4.42,0,0,1-2.23-.56,5.43,5.43,0,0,1-1.63-1.42,6.92,6.92,0,0,1-1-2,6.64,6.64,0,0,1-.38-2.22l-2.19,2.43a20.89,20.89,0,0,1-2.5,2.29,14.4,14.4,0,0,1-2.85,1.7,7.75,7.75,0,0,1-3.16.66,4,4,0,0,1-3.06-1.32A4.41,4.41,0,0,1,246.87,47.59Zm4.45-2.15c0,.37,0,.79,0,1.25s.31.77.87.9a12.7,12.7,0,0,0,3.89-1.8,24.87,24.87,0,0,0,4-3.27,21.39,21.39,0,0,0,3.16-4,7.93,7.93,0,0,0,1.29-4.14,3.39,3.39,0,0,0,0-.45q0-.31,0-.45a12.17,12.17,0,0,0-4.66,1,15.33,15.33,0,0,0-4.24,2.61,14.11,14.11,0,0,0-3.09,3.82A9.26,9.26,0,0,0,251.32,45.44Z"/><path class="cls-1" d="M290.71,46.76a8.51,8.51,0,0,1,.84-3.75,29.43,29.43,0,0,1,1.87-3.34c.7-1.06,1.32-2.12,1.88-3.16a7,7,0,0,0,.83-3.3c0-.23,0-.54,0-.94a9.34,9.34,0,0,0-.14-1.11,2,2,0,0,0-.42-.9,1,1,0,0,0-.8-.38l-.24,0c-.12,0-.17.06-.17.11-.65.83-1.42,1.78-2.3,2.84S290.23,35,289.25,36s-1.94,2-2.92,3a34.44,34.44,0,0,1-2.57,2.36q-.83.71-2.22,2c-.93.86-1.84,1.72-2.74,2.57s-1.72,1.6-2.44,2.23a5.61,5.61,0,0,1-1.21.93L272,46.48a2.65,2.65,0,0,0,1.18-.27q.56-.28,1.11-.63a40.83,40.83,0,0,0,7.4-6.25q3.3-3.55,6.43-7.58c.09-.14.32-.53.7-1.18l1.28-2.26c.49-.85.95-1.7,1.39-2.53s.78-1.48,1-2a5.44,5.44,0,0,0,.52-1.39c.07-.37.13-.66.17-.87a.67.67,0,0,1,.39-.45,3.2,3.2,0,0,1,1.14-.14l.66.07a3.17,3.17,0,0,1,.66.14c.56,1.21,1.07,2.28,1.53,3.23a27.32,27.32,0,0,1,1.15,2.68,16.36,16.36,0,0,1,.69,2.53,15.85,15.85,0,0,1,.24,2.89q-.9,2.22-1.94,4.55c-.69,1.55-1.3,3-1.81,4.45a14.8,14.8,0,0,0-.9,3.82,3.36,3.36,0,0,0,.76,2.67,4.24,4.24,0,0,0,3.13,1,22.78,22.78,0,0,0,6.25-1.15c.74.37.81.83.21,1.36a9,9,0,0,1-2.67,1.49,21.15,21.15,0,0,1-3.93,1.11,11.07,11.07,0,0,1-3.61.21,4.58,4.58,0,0,1-2.12-.45,3.83,3.83,0,0,1-1.39-1.18,4.5,4.5,0,0,1-.73-1.7A9.24,9.24,0,0,1,290.71,46.76Z"/><path class="cls-1" d="M301.76,45.37a10.82,10.82,0,0,1,.76-3.92,40.21,40.21,0,0,1,1.77-3.93c.68-1.3,1.36-2.57,2-3.82a19,19,0,0,0,1.6-3.68,6.77,6.77,0,0,1-2.22.8c-.6.06-1.34.1-2.22.1l-.84,0-.9,0a6.29,6.29,0,0,1,1.49-2.68,12.47,12.47,0,0,1,2.47-2,15.44,15.44,0,0,1,2.92-1.42c1-.37,1.94-.68,2.78-.91a39.9,39.9,0,0,0,3.3-6.42q1.27-3.24,2.64-6.33a44.21,44.21,0,0,1,3.12-5.9A20.36,20.36,0,0,1,325.31,0l.35,2.57-8.48,19.87A16.73,16.73,0,0,1,319,22c.71-.14,1.46-.27,2.22-.39l2.19-.34q1-.18,1.8-.39l.42,0,.49,0a3.56,3.56,0,0,1,1.6.32,2.53,2.53,0,0,1,1,1.49q-4.67,1.39-8.37,2.88a23,23,0,0,0-6.5,3.9,18,18,0,0,0-4.52,6.11A30.25,30.25,0,0,0,307,45v1.21a3.64,3.64,0,0,0,.14,1,1.79,1.79,0,0,0,.52.8,2,2,0,0,0,1.15.42,7.42,7.42,0,0,0,2.91-.59,26.66,26.66,0,0,0,2.68-1.32A27.08,27.08,0,0,1,317,45.2a7,7,0,0,1,2.88-.59,4.11,4.11,0,0,1-1.42,3A13,13,0,0,1,315,50a22.59,22.59,0,0,1-4.13,1.53,14.26,14.26,0,0,1-3.44.55,5.14,5.14,0,0,1-2.44-.55,5.54,5.54,0,0,1-1.77-1.5,6.81,6.81,0,0,1-1.11-2.12A8.18,8.18,0,0,1,301.76,45.37Z"/><path class="cls-1" d="M319.62,47.59a6.25,6.25,0,0,1,.2-1.7,11.7,11.7,0,0,1,.77-1.84c.32-.46.89-1.32,1.7-2.57s1.69-2.58,2.64-4l2.68-4c.83-1.25,1.41-2.13,1.73-2.64s.67-.86.91-.9a7.63,7.63,0,0,1,1.32-.07,12.43,12.43,0,0,1,1.28.07,1,1,0,0,1,.94.9,18.16,18.16,0,0,1-2.5,4.38l-3.16,4.1a27.75,27.75,0,0,0-2.71,4.17,9.52,9.52,0,0,0-1.15,4.58c.19,0,.48,0,.87.07l1.25.14,1.25.14a2.47,2.47,0,0,0,.87,0l1.39-.28c.65-.14,1.35-.3,2.12-.49s1.47-.37,2.12-.55,1.11-.32,1.39-.42c0,.1,0,.24,0,.45s0,.36,0,.45a2.58,2.58,0,0,1-1.25,2.23,11.39,11.39,0,0,1-2.92,1.35,17.21,17.21,0,0,1-3.41.7c-1.16.11-2,.17-2.64.17a9.22,9.22,0,0,1-2.08-.24,5.54,5.54,0,0,1-1.84-.77,4,4,0,0,1-1.32-1.39A3.86,3.86,0,0,1,319.62,47.59ZM339.35,7.78c.55,0,1.09,0,1.6.07a4.78,4.78,0,0,1,1.35.31,1.8,1.8,0,0,1,.9.8,3.11,3.11,0,0,1,.32,1.53v.9a3.72,3.72,0,0,1-.11.91A1.76,1.76,0,0,1,343,13a1.16,1.16,0,0,1-.9.31,1.86,1.86,0,0,1-1.53-.69,5,5,0,0,1-.84-1.6,8.29,8.29,0,0,1-.34-1.84C339.37,8.58,339.35,8.11,339.35,7.78Z"/><path class="cls-1" d="M337,48.92V48a2.07,2.07,0,0,1,.1-.66,3.23,3.23,0,0,1,.31-.66l.56-.9c.23-.42.62-1.07,1.18-1.95s1.18-1.86,1.87-3,1.43-2.23,2.19-3.44L345.39,34l1.88-2.95c.55-.88,1-1.53,1.25-1.95a.66.66,0,0,1,.38-.07h.94a.81.81,0,0,1,.42.07l.31.35.52.59c.18.21.36.39.52.56a.67.67,0,0,0,.38.24,2.4,2.4,0,0,0,1.29-.42c.44-.27.9-.58,1.39-.9a17.33,17.33,0,0,1,1.49-.9,3.15,3.15,0,0,1,1.53-.42,3.64,3.64,0,0,1,2.95,1.39,4.51,4.51,0,0,1,1.15,2.92,9.72,9.72,0,0,1-.45,2.95c-.3,1-.63,1.89-1,2.81s-.68,1.86-1,2.78a9.44,9.44,0,0,0-.45,2.92,4.8,4.8,0,0,0,.35,2.12c.23.44.86.66,1.88.66a10.91,10.91,0,0,0,3.47-.55,10.65,10.65,0,0,1,3.47-.56,3.91,3.91,0,0,1-1,2.74,6.93,6.93,0,0,1-2.43,1.71,12.68,12.68,0,0,1-3.13.86,20.28,20.28,0,0,1-3.06.25,4.52,4.52,0,0,1-3.78-1.46,6.09,6.09,0,0,1-1.15-3.89,7.85,7.85,0,0,1,.59-3c.4-1,.82-1.88,1.29-2.78s.89-1.82,1.28-2.75a7.26,7.26,0,0,0,.59-2.92,7,7,0,0,0-.1-1.07.76.76,0,0,0-.87-.66,6.45,6.45,0,0,0-4.1,1.42A15.16,15.16,0,0,0,349,37.66a39.5,39.5,0,0,0-2.64,4.69q-1.22,2.53-2.22,4.69a27.45,27.45,0,0,1-2,3.58,2.62,2.62,0,0,1-2,1.42,3.1,3.1,0,0,1-2.29-.9A3,3,0,0,1,337,48.92Z"/><path class="cls-1" d="M366.65,48.43a10.68,10.68,0,0,1-.86-6.64A14.81,14.81,0,0,1,368.32,36a18,18,0,0,1,4.45-4.38,15.52,15.52,0,0,1,4.83-2.36,4.81,4.81,0,0,1,3.75.28c1,.57,1.38,1.74,1.15,3.5a6.85,6.85,0,0,1-1.67,4.59,25.73,25.73,0,0,1-3.65,3.51q-2,1.56-3.65,2.81c-1.11.84-1.66,1.62-1.66,2.36,0,.38.24.68.72.91a7.11,7.11,0,0,0,1.67.52,15.1,15.1,0,0,0,1.88.24c.62.05,1.07.1,1.35.14q6.39-1.32,9.56-1.63a10.86,10.86,0,0,1,4,0c.56.24.45.63-.31,1.18a14.11,14.11,0,0,1-3.44,1.67,40.53,40.53,0,0,1-5.35,1.5,34.29,34.29,0,0,1-6.05.76,18.09,18.09,0,0,1-5.48-.59A6.37,6.37,0,0,1,366.65,48.43ZM378.54,33a5,5,0,0,0-2.61.73,9.32,9.32,0,0,0-2.19,1.84A13.17,13.17,0,0,0,372.07,38a13.75,13.75,0,0,0-1,2.5.63.63,0,0,0,.21.07h.21a4.13,4.13,0,0,0,2.19-.8,12.79,12.79,0,0,0,2.32-2,12.33,12.33,0,0,0,1.85-2.5A5,5,0,0,0,378.54,33Z"/><path class="cls-1" d="M390.49,48.92v-.28a.27.27,0,0,1,.07-.21,57.39,57.39,0,0,1,4.2-4.2,52.17,52.17,0,0,1,4.62-3.72l14.94-17.58h-.9a13.73,13.73,0,0,0-2.78.28c-.93.18-1.85.4-2.75.66s-1.81.47-2.71.66a14.32,14.32,0,0,1-2.81.27,6,6,0,0,1-2.61-.79.94.94,0,0,1-.38-1.19,3.3,3.3,0,0,1,1.25-1.32,12.25,12.25,0,0,1,2.26-1.18,13.59,13.59,0,0,1,2.67-.76,8.71,8.71,0,0,1,2.57-.1,31.79,31.79,0,0,1,4.59-.8q1.95-.18,4.38-.18a6,6,0,0,1,3.12.7c.79.46,1.19,1.43,1.19,2.91a5.06,5.06,0,0,1-1.19,2q-1.17,1.53-3,3.65t-4.06,4.58l-4.28,4.76q-2,2.3-3.68,4.17c-1.09,1.25-1.86,2.18-2.33,2.78a2.38,2.38,0,0,0,.42.45l.49.46a18.74,18.74,0,0,0,4.06.86c1.51.17,3,.26,4.59.28s3,0,4.44-.07,2.61-.15,3.58-.24a1.92,1.92,0,0,1,.77.59,1.28,1.28,0,0,1,.21.73,2.22,2.22,0,0,1-1.29,2.12,9.33,9.33,0,0,1-2.92.9,19.35,19.35,0,0,1-3.19.21l-2.12,0a18,18,0,0,1-3.13-.27c-1-.19-2-.41-3-.66s-2-.48-2.95-.66a16.16,16.16,0,0,0-3-.28A3.12,3.12,0,0,0,398,49a10.65,10.65,0,0,0-1.5,1.26c-.46.46-.91.88-1.35,1.25a2.26,2.26,0,0,1-1.5.55,3.49,3.49,0,0,1-3.12-3.12Z"/></g></g></svg>