<svg xmlns="http://www.w3.org/2000/svg" viewBox="0 0 104.84 95.81"><defs><style>.cls-1{isolation:isolate;}.cls-2{fill:#e9dbc0;}.cls-3{fill:#d1b796;}.cls-4{fill:#e9dcc0;}.cls-5{fill:#e6d8bc;}.cls-6{fill:#dcc2a2;}.cls-7{fill:#e3ceb2;}.cls-8{fill:#dec7aa;}.cls-9{fill:#d5bb9a;}.cls-10{fill:#decfa5;}.cls-11{fill:#b08e69;}.cls-12{fill:#bf9d7a;}.cls-13{fill:#d7c3a7;}.cls-14{fill:#d0ae89;}.cls-15{fill:#c9ae8f;}.cls-16{fill:#dccba0;}.cls-17{fill:#9f7b52;}.cls-18{fill:#cab195;}.cls-19{fill:#c3a584;}.cls-20{fill:#b59874;}.cls-21{fill:#a27b57;}.cls-22{fill:#b79a76;}.cls-23{fill:#b38e69;}.cls-24{fill:#be9873;}.cls-25{fill:#ddd0aa;}.cls-26{fill:#d6c2a9;}.cls-27{fill:#ac8c66;}.cls-28{mix-blend-mode:multiply;}</style></defs><g class="cls-1"><g id="Capa_2" data-name="Capa 2"><g id="Capa_1-2" data-name="Capa 1"><path class="cls-2" d="M77.73,94.35a3.05,3.05,0,0,1-1.38.54,18.9,18.9,0,0,1-6.34.9,21.78,21.78,0,0,1-10.24-3,16.12,16.12,0,0,1-5.46-5.34,9.14,9.14,0,0,1-1.23-6.48,16.7,16.7,0,0,1,.45-2.89,9.81,9.81,0,0,1,3-4.09,10.49,10.49,0,0,1,7.06-2.62c1,0,1.94-.25,2.92-.28a20.19,20.19,0,0,1,4.71.53,10.51,10.51,0,0,1,4.57,1.68c.43.33.73.16.78-.42a8.16,8.16,0,0,0-.37-2.26c-.52-2.46-1.08-4.91-1.74-7.33-.55-2-1.36-4-1.87-6-.76-3-1.82-6-2.14-9.08-.16-1.59-.56-3.17-.81-4.76-.4-2.61-.92-5.2-1.23-7.82-.23-1.94-.57-3.86-.88-5.79-.12-.76-.12-1.53-.18-2.29a39.13,39.13,0,0,1-.18-6.12A9.15,9.15,0,0,1,68,17.89a2.12,2.12,0,0,1,.43,1.33,1.83,1.83,0,0,1,1.84,0c.31.2.54-.14.8-.23.77-.27,1-.15,1.25.64a17.6,17.6,0,0,1,.43,2.3,25.9,25.9,0,0,0,3.85,8.47,37.42,37.42,0,0,0,2.65,3.63c1.14,1.22,2.39,2.32,3.6,3.47,1.64,1.57,3.54,2.84,5.26,4.32,0,.24.54.41.26.64a.9.9,0,0,1-1,0c-.09-.06-.07-.18-.12-.26-.08.16.09.19.14.28.23.18.56.18.72.47s.22.43.06.67a.53.53,0,0,1-.57.18c-.93-.1-.94-.1-1,.83,0,.21-.07.37-.27.43s-.34-.09-.44-.26-.06-.32-.15-.55c-.12.65-.44,1.27-.47,1.75a12.15,12.15,0,0,1-.51,2.2c-.1.43.18.69.46.94A2,2,0,0,1,86,50.77,30.56,30.56,0,0,1,82,48.67a11.22,11.22,0,0,1-2.84-2.11,1.12,1.12,0,0,0-1.58-.2c-.84.58-1.22,1.18-1,2,.51,2.16,1,4.31,1.55,6.47.6,2.68,1.13,5.38,1.78,8,1,4.24,2.2,8.43,3.36,12.63a31.58,31.58,0,0,1,1.4,9.61c0,.28.09.59-.16.83-.19-.15-.18-.37-.21-.58s0-.41-.14-.43c-1-.19-1-1.25-1.62-1.8-.7.85-.54,1.85-.59,2.8a1.67,1.67,0,0,1-.06.63c-.08.2-.18.42-.44.38s-.26-.29-.25-.51a1.16,1.16,0,0,0-.09-.82c-.24,0-.29.18-.36.31a2.34,2.34,0,0,1-2.25,1.18c-.49,0-1,.29-1.46-.12-.17-.14-.45.1-.42.41s.2.87-.42.9-.65-.37-.62-.82-.14-.38-.39-.29-.93,0-1,.53a8.92,8.92,0,0,0,0,1c0,.47.28.53.61.67s.6,1,.34,1.64c-.33.85-.3.8.48,1.32A12.81,12.81,0,0,1,77.73,94.35Z"/><path class="cls-3" d="M44.44,18.53c.63.41.94,1.14,1.52,1.61,0,.13-.13.2-.13.23.27,1.47-1.38,2.05-1.55,3.32A.38.38,0,0,1,44,24c-.95.1-1.41,1-2.21,1.34a.72.72,0,0,0-.5.72c0,.87-.15,1-1.08,1.08C39,26.76,38.28,25.74,37.38,25a21.36,21.36,0,0,0-2.5-1.83A19.92,19.92,0,0,1,31.6,20.5a8.74,8.74,0,0,0-2.08-1.6c-.79-.4-1.39-.14-1.52.73a27.57,27.57,0,0,0-.31,5.95,4.19,4.19,0,0,0,1.73,2.94,10.75,10.75,0,0,1,2.06,2.2,1.07,1.07,0,0,1,.07.39c0,.32.11.45.37.14a1.08,1.08,0,0,1,.58.4c1.21,1.22,2.42,2.44,3.69,3.62a21.11,21.11,0,0,1,2.73,3.09c.34.47.91.76,1.06,1.37-.12.4-.36.16-.54.09s-.58-.06-.8-.27a1.78,1.78,0,0,0-2.36-.33c-.72.37-2.53-.39-2.68-1.16A1,1,0,0,1,34.28,37c.78-.4.81-.56.2-1.14,0,0-.06,0-.06-.06-.12-1-1.18-1-1.6-1.62a4,4,0,0,0-2-1.42c-.45-.18-.51-.65-.68-1-.38-.85-.53-.89-1.26-.35a.93.93,0,0,1-.9.19c-.26-.1-.3-.24-.36-.9-.23-.09-.31.14-.46.22a2,2,0,0,1-2.64-.15c-.13-.1-.22-.41-.41-.27s-.75.07-1.06.28-.08.28,0,.41a2.09,2.09,0,0,1,.45.66c.09.31.13.66-.21.85s-.55,0-.78-.2a2.83,2.83,0,0,1-.69-2.66,1.58,1.58,0,0,1,.09-.31c0-.17.17-.36-.08-.48a.49.49,0,0,0-.53.09,1.32,1.32,0,0,0-.47.8c-.05.24-.05.48-.09.71s0,.63-.39.57-.4-.37-.29-.69c.28-3.4.4-6.81.76-10.2.29-2.7.84-5.37,1-8.09a1.49,1.49,0,0,1,.13-.37c.2-.14.43-.15.53-.48a1.18,1.18,0,0,1,1.38-.81,1.62,1.62,0,0,1,1.55,1.14,7.07,7.07,0,0,1,.15,3.09c.82-.76,1.72-.48,2.57-.49a7.21,7.21,0,0,0,.85.13c.39-.05.42.32.49.6s-.12.62,0,1a2.47,2.47,0,0,1,3.28,1.5c0-.54.26-.7.64-.7s1.09-.21,1.2.29c.19.81.77.79,1.32.93a1.39,1.39,0,0,1,.95,1c.16.42-.11.75-.48,1a2.86,2.86,0,0,0,.8-.36c.65-.34,1.28-.51,1.87.14.24.26.5.31.71,0a.52.52,0,0,1,.55-.23,1.39,1.39,0,0,0,1.25-.57c.14-.17.26-.34.52-.29.05,0,.17.08.16,0-.09-.62.21-.67.75-.79s.76.31,1.08.55A1,1,0,0,0,44.44,18.53Z"/><path class="cls-4" d="M98.64,51.72c.72.5,1,1.36,1.52,2s1.16,1.5,1.78,2.21A10.51,10.51,0,0,1,104,61.11a41.8,41.8,0,0,1,.81,7.72,27.41,27.41,0,0,1-.77,5.33,27,27,0,0,1-1.6,5.72,41.49,41.49,0,0,1-2.33,4.3c-.78,1.32-1.73,2.53-2.43,3.89a15.77,15.77,0,0,1-2.29,3,1.69,1.69,0,0,1-1.6.52c-.88-.09-1-.46-.69-1.29,1-2.25,2.51-4.22,3.48-6.49.41-1,.86-1.92,1.29-2.89a44.05,44.05,0,0,0,2.46-7,18.93,18.93,0,0,0,.49-7.15,9,9,0,0,0-1.61-3.59,40.87,40.87,0,0,0-4.56-5.77c-.5-.53-1.17-.82-1.64-1.36a.78.78,0,0,1,1.16-.27c.64.33.83.22.87-.52,0-.57,0-1.16.85-1.08a.72.72,0,0,0-.23-.39c-.22-.26-.73-.46-.36-.89a1,1,0,0,1,1.3-.24,7,7,0,0,1,.8.64.5.5,0,0,0,.41.12c0-.34-.3-.69-.08-1A2.2,2.2,0,0,1,98.64,51.72Z"/><path class="cls-5" d="M40.21,27c.65-.13,1.18-.3.84-1.2-.15-.4.31-.62.61-.69.47-.1.78-.26.91-.74a.48.48,0,0,1,.68-.35c.46.13.76-.18.94-.54.38-.75.52-1.59,1.36-2.09.31-.18.25-.87-.22-1.23.24-.2.44.32.63,0a34,34,0,0,1,2.78,3.64A39.13,39.13,0,0,1,51,27.21a12.7,12.7,0,0,1,1.68,3.64,11.13,11.13,0,0,0,.59,1.39,26.15,26.15,0,0,1,1.18,11.42c-.33,3.76-.94,7.48-1.63,11.19-.28,1.5-.85,2.92-1.26,4.39-.45,0-.33-.39-.4-.63-.17-.67,0-1.37-.19-2a1.43,1.43,0,0,1,.15-.93,37.89,37.89,0,0,0,1.44-4.88,12.79,12.79,0,0,0-1.32-9.4,42.24,42.24,0,0,0-4.86-7.55c-.79-1-1.59-1.92-2.3-2.95a13.69,13.69,0,0,0-2.65-2.39C41,28.06,40.3,27.76,40.21,27Z"/><path class="cls-6" d="M20.1,30.49c0,.23.07.47.4.59.22-.65,0-1.37.5-2a.88.88,0,0,1,1.1-.29c.46.15.1.48,0,.77a2.74,2.74,0,0,0,.51,2.74c.2.2.46.41.68.19a.59.59,0,0,0,0-.74,4.87,4.87,0,0,1-.4-.5c-.1-.15-.52-.08-.34-.4s.36-.6.66-.47c.52.22.71-.12,1-.5a1.45,1.45,0,0,0,1.37,1.2,1.64,1.64,0,0,0,1.67-.67.32.32,0,0,1,.39-.19c.24.08.19.3.18.47s-.28.59.17.73a.75.75,0,0,0,.78-.28c.71-.73,1.08-.69,1.41.33a1.73,1.73,0,0,0,1.86,1.45c.21,0,.23.17.29.32.29.74.7,1.31,1.61,1.3.21,0,.35.14.31.44a.74.74,0,0,0,.62.92c.34.09.63.41.13.72-.3.18-.28.83-.9.58a1.09,1.09,0,0,0-.46.66,1,1,0,0,0,.69.85c.66.07,1.3,1,2.06.07.15-.19.85,0,1.25,0,.64-.08.68.5,1,.69-.34.43-.83.17-1.26.22a1.28,1.28,0,0,1-1.07,1.71c-.25,0-.48,0-.61.34a.59.59,0,0,1-1.08.18,8,8,0,0,1-1.16-2.12c-.05-.19-.08-.37-.25-.47a1,1,0,0,1-.47-1,.59.59,0,0,0-.56-.65c-.9-.32-1.19-1.24-1.78-1.86s-.81-.72-1.46-.22-.93.56-1.39-.06a.53.53,0,0,0-.7-.08c.12.35.6.58.4,1a.67.67,0,0,1-.71.4,2.37,2.37,0,0,1,0,2.95,1.32,1.32,0,0,0-.4.48c-.13.37-.28.7-.76.67s-.59-.46-.68-.74a18.84,18.84,0,0,0-3.43,1.5c1.27.42.94,1.75,1.24,2.79.07.24,0,.45.39.44s.58.34.47.72a4.4,4.4,0,0,1-1.3,2.13c-.82.71-2.35.15-3-1q0-5.28.45-10.55c.14-1.71.23-3.43.35-5.14C20,30.88,19.92,30.66,20.1,30.49Z"/><path class="cls-7" d="M19.16,46.78a3.78,3.78,0,0,0,1.9,1.06c.76.1,1.22-.1,1.45-.82.17-.51.74-.76.8-1.35s.05-.68-.49-.46c-.38.15-.5-.07-.44-.3.2-.69-.33-1.27-.18-2,.08-.42-.39-.76-.84-1-.25-.11-.62-.33-.51-.62s.51.06.65,0a11.9,11.9,0,0,0,1.55-.79c.17-.1.29-.38.53-.25.53.28.86.26.86-.45,0-.14.09-.24.26-.23a.33.33,0,0,1,.3.22,4.86,4.86,0,0,0,.07.55c.14.44.64.53.78.25.48-1,1.45-1.76,1.15-3.07-.13-.57-.63-.48-.88-.78.16-.34.39-.19.62-.14a.44.44,0,0,0,.51-.28.42.42,0,0,0-.19-.55c-.19-.13-.67-.11-.43-.46s.74-.6,1-.19c.59.83,1,.4,1.58,0a.91.91,0,0,1,1.42.32,5.79,5.79,0,0,0,1.75,2,24,24,0,0,0,1.31,2.93c.09.25.2.49.3.73.2.56.23,1-.37,1.35-.26.15-.32.48-.47.73a.93.93,0,0,1-1.51.15,4.81,4.81,0,0,0-1.95-.82,5.58,5.58,0,0,0-1.16-.26c-.77-.54-1.36-.38-1.71.48a8.21,8.21,0,0,0-.33,1.1,4.18,4.18,0,0,0-.32,1.43c-.05.47-.23.72-.72.57-.23-.08-.44-.11-.48.19s.24.29.45.29.57.07.87.07c-.11,3.31-.21,6.63-.32,10,0,.09-.08.18-.12.28-.2-.61-.8-.64-1.22-.64a.84.84,0,0,1-1-.82c0-.07-.07-.13-.23-.19-.05.43,0,1-.67,1-.45,0-.88,0-1.19-.43s-.71-.33-1.09-.42c-1-.23-1.07-.42-1.19-1.38S19.08,52,19,51.11C18.9,49.66,19.23,48.23,19.16,46.78Z"/><path class="cls-8" d="M28.55,42.34c.61-.28,1.16,0,1.71.2a5.53,5.53,0,0,0,1.53.47c.08,0,.2,0,.16.08-.13.27-.25.54.23.49s.8,0,.89-.58a.8.8,0,0,1,.31-.53c1-.55.48-1.22.16-1.84a8.09,8.09,0,0,0-1.22-2.35c-.22-.23.09-.49.08-.75.54,0,.79.25.68.83a.61.61,0,0,0,.31.73c.31.18.79.29.35.82,0,0,.08.26.18.31.45.24.51.73.72,1.11s.25.68.72.67.19-.42.26-.63.22-.27.43-.2c.73.24,1-.44,1.42-.76A.25.25,0,0,0,37.4,40c-.12-.06-.38,0-.19-.28s.27-.42.5-.27.72,0,1.07,0l1.13.3c.48,0,.7.36,1,.64,1.38,1.58,2.73,3.2,4.12,4.78a1.21,1.21,0,0,1,.41.83c-.08.37-.38.49-.69.59a2.38,2.38,0,0,0-.81.48c-.45.39-.9.68-.07,1.18.36.21.24.61-.14.84s-.3.51.09.62a1.18,1.18,0,0,1,.93,1.44,1.35,1.35,0,0,0,.54,1.33c.5.36.41.77,0,1.12a2.21,2.21,0,0,0-.82,1A.48.48,0,0,1,44,55c-.68-.06-1.32.36-2,.09a4,4,0,0,0-1.5,0c-.27,0-.59,0-.72-.27s.21-.43.35-.64a2.1,2.1,0,0,1,1.38-.84s0,0,0-.05l0-.06c.17-.27.51-.08.76-.28-.37-.86-1.23-1.22-1.91-1.7-1.28-.9-2.39-2-3.63-2.95a11.58,11.58,0,0,0-3.2-1.73,7.8,7.8,0,0,1-4.61-3.65A6,6,0,0,0,28.55,42.34Z"/><path class="cls-9" d="M41.5,53.17c.08,0,.17,0,.23,0,.21.11,0,.12,0,.15a3.66,3.66,0,0,0-1.81,1.33,1.68,1.68,0,0,0,1.07.13,3.89,3.89,0,0,1,1.31.1c.59.11,1.5.13,1.79-.22.43-.52.87-1,1.34-1.52.19-.21,0-.44-.21-.51-.76-.33-.72-1-.67-1.62s-.12-1.08-.86-1.11a.53.53,0,0,1-.53-.56c0-.24.07-.46.33-.45s.43,0,.43-.31a.48.48,0,0,0-.41-.43c-1-.24-.43-.55-.1-1,.53-.62,1.36-.73,2-1.23a.51.51,0,0,1,.39.24c1.15,1.65,2.6,3.09,3.63,4.83a2.19,2.19,0,0,1,.29.57c.37,1.65,1,3.22,1.43,4.87.34.17.34.44.28.79a3.63,3.63,0,0,0,.24,2,12,12,0,0,1-.78,2.56c-.51,0-1,.09-1.38-.49s-.4-.89.37-1.19a1.17,1.17,0,0,0-1.37-.78c-.65.06-1.31,0-2,.11s-1.36.13-1.71-.66c0-.07-.08-.18-.16-.14-1,.47-1.27-.6-1.93-.86a2.9,2.9,0,0,0-1.33-.36,5.12,5.12,0,0,1-1.41,0,1.14,1.14,0,0,0-1.21,1.46,1.06,1.06,0,0,1-.18,1,1.53,1.53,0,0,0-.11,1.83A1,1,0,0,1,38,63.3c-.2.12-.42.27-.65.06a.49.49,0,0,1-.08-.65c.15-.31.31-.62,0-1-.2,1.52-.6,1.38.64,2,.29.15.49.41.28.71s-.76.46-.89.23c-.44-.8-1.25-.54-1.86-.81-1.42-2.61-.78-5,.83-7.27a9.16,9.16,0,0,1,4.47-3.3A2.1,2.1,0,0,1,41.5,53.17Z"/><path class="cls-10" d="M98.64,51.72c0,.1,0,.27-.1.29-1.09.39-.66,1-.22,1.7a1.22,1.22,0,0,1-1.19-.37,4.22,4.22,0,0,0-.58-.54.87.87,0,0,0-1.09.19c-.35.35.23.4.35.61a1.79,1.79,0,0,0,.38.4c.1.1.18.21,0,.34s-.17.23-.32.15c-.71-.42-.61.15-.64.53,0,.21,0,.42,0,.63,0,.45-.61.78-.89.49A1,1,0,0,0,93,56.05a69.4,69.4,0,0,0-6.42-4.91c-.19-.13-.4-.25-.6-.37A4.65,4.65,0,0,0,84.66,49c-.47-.33-.18-.83,0-1.24s.7-1,.17-1.59c.7-.56.49-1.47.82-2.17.05-.1.16-.18.26-.1a.42.42,0,0,1,.14.27c0,.15-.1.31-.07.46s.07.41.33.34.14-.23,0-.37c-.25-.39,0-.66.23-.92s.54-.26.86-.1.46.3.61,0-.07-.51-.28-.67-.43-.1-.42-.4h0c.33.07.64-.29,1,0,.16-.3-.38-.34-.16-.62a51.11,51.11,0,0,1,10.3,9.4A.8.8,0,0,1,98.64,51.72Z"/><path class="cls-11" d="M24.3,78a6.21,6.21,0,0,1-.37,2.34,4.16,4.16,0,0,1-2.15.73c-.15,0-.36-.13-.43,0-.32.83-1.25.7-1.75,1.16s-.68.39-1,0a3.6,3.6,0,0,1-.58-.32c-.19-.27-.07-.57-.08-.86,0-.61.21-.83.84-.6-.33-.48-1-.32-1.25-.83-.07-.15-.08,0-.12,0a2.1,2.1,0,0,1-1.8.08c-.05,0-.11-.08-.14,0-.37.43-1,.24-1.35.5-.53.44-1.16.31-1.69.58-.26.13-.72,0-.49-.41a1.3,1.3,0,0,0-.26-1.86c-.26.55-.68,1-1.37.72-.27-.1-.55,0-.77-.15s-.49.45-.62,0-.48-.18-.69-.28-.21-.47,0-.7.56-.17.37-.48-.5-.09-.74,0a6.91,6.91,0,0,0-2.1,1.5c-.31.12-.6.34-1,.17.17.27.45.44.27.73s-.38.07-.57,0a3,3,0,0,1-2.75-2.6c-.09-.37-.47-.59-.46-1,.6-.62.63-.62,1.15.08,0,0,.07.12.09.12,1.37-.08.8.92.87,1.56v0c.08-.35-.19-.92.31-1s.49.41.45.78c-.1.06.15.1.06.06s0,0,0-.06A.53.53,0,0,1,4.81,78c.5.23.66,0,.76-.44A1.35,1.35,0,0,1,6,76.86c.33-.3.86-.52.4-1.12a.23.23,0,0,1,.06-.29c.3-.18.64-.67.56-.73-.5-.37-.34-1.16-1-1.4a1,1,0,0,1-.52-.56c-.17-.34-.49-.68-.86-.61S4,72,3.68,71.8c-.6-.3-.47-.6,0-.91-.18-.29-.63-.28-.73-.64s-.17,0-.25,0-.47.27-.49-.18A8.77,8.77,0,0,1,7.41,66a11.37,11.37,0,0,1,2-.5.18.18,0,0,1,.14-.06,16.27,16.27,0,0,0,2.05.89c.15,0,.22.22.31.34.37.51.15,1.12.3,1.68.08.34-.62.69-1.07.94.58,0,.56.38.44.79s-.4.39-.74.27-.3-.29-.49-.39c-.42-.48.12-1-.16-1.56A1.51,1.51,0,0,0,10.44,70c.19.6-.27.44-.56.47.37.19.54.5.28.83a12,12,0,0,1-.95,1.27c-.21.2-.53.59-.94-.12.28.51.38.87,0,1.17a.62.62,0,0,0-.16.59c.07.77.07.77-.5,1.37a1.84,1.84,0,0,0,1.11.36c.74,0,1.09.7,1.51,1.18s.53.64,1,.2a.47.47,0,0,1,.76.08,1,1,0,0,0,1.21.33c.32-.13.57,0,.82.17a5.25,5.25,0,0,0,1.47.46c.76.14,1.19.07,1.33-.74a11.74,11.74,0,0,0,2.55-2,.91.91,0,0,1,1.05-.19c.06.07,0-.18,0-.08s0,0-.08,0c-.25-.18-.24-.45-.26-.71a.48.48,0,0,1,.9-.28,3.57,3.57,0,0,1,.55,1.48c.12-.33.42-.42.78-.29a.63.63,0,0,1,.47.73,1.07,1.07,0,0,0,.13.76c.11.17.16.41.46.19s.47-.6.77-.41S24.34,77.56,24.3,78Z"/><path class="cls-12" d="M44.44,18.53c-.2,0-.43,0-.49-.2-.28-.74-.93,0-1.29-.36,0,0-.06,0-.06.05,0,.49-.41.69-.76,1s-.87.84-1.56.63c-.21-.06-.26,0-.29.2-.1.67-.6.46-.86.24-.84-.73-1-.78-1.94-.19a1.19,1.19,0,0,1-1.47.05c.57-.13,1.24-.23,1.07-.83a1.16,1.16,0,0,0-1.14-1c-.27,0-1.32,0-1.06-.94,0-.15-.11-.24-.25-.24A3.14,3.14,0,0,0,33,17c-.14.36.54.06.31.45s-.37.13-.57.08a.82.82,0,0,1-.54-.53c-.37-.84-.79-1-1.73-1a1.23,1.23,0,0,0-.91.23c-.29.23-.38-.11-.38-.37,0-1.08,0-1.13-.76-1.37a4.76,4.76,0,0,0-2.06-.05.56.56,0,0,0-.51.32c-.07.18-.12.4-.37.29s-.09-.26-.07-.41a9.75,9.75,0,0,0-.14-3c-.18-.86-.85-.79-1.37-1a.92.92,0,0,0-1.23.69c-.08.57-.38.41-.69.4a17.77,17.77,0,0,1,.31-4c.08-.52.31-.67.85-.49s1.12.06,1.57.54c.23.24.61,0,.91,0a.37.37,0,0,1,.13.17,10.57,10.57,0,0,0,.75,1.46,2.09,2.09,0,0,0,1.27.76c.21,0,.3.2.36.39a1,1,0,0,1-.67,1c.34-.37.88-.27,1.32-.51s.51.15.44.48A3.53,3.53,0,0,0,29,13c0,.22.11.66.23.57.3-.22.73.21.91-.23a1.61,1.61,0,0,1,.17-.28c.29-.36.52-.33.63.14s.16.51.71.46a2.27,2.27,0,0,0,1.92-1.19c.08-.12.19-.23.31-.2.32.1.57.13.69-.28s0-.68-.37-.94-.42-1.22,0-1.22.61-.19.93,0a42.7,42.7,0,0,1,5.94,5.38c.41.46.92.8,1.33,1.25Z"/><path class="cls-13" d="M19,51.11a18.11,18.11,0,0,1,.47,2.81c0,.63.28.85.77,1s1.38,0,1.74.84c.06.14.78.1,1.14,0s0-.41-.05-.61a.32.32,0,0,1,.08-.43c.16-.11.31,0,.44.07a1,1,0,0,1,.35.76c0,.18-.05.81.38.15.09-.14.24,0,.33.06.34.37.71.43,1.15-.09,0,.47,0,.76.06,1.05-.14,3.29-.21,6.59-.63,9.86A9.42,9.42,0,0,1,25.07,69c-.19-.23,0-.6-.28-.75,0,0,.07.06.09.13.08.34.31.8-.11,1s-.81-.23-.94-.64-.32-.77-.9-.78c-.41,0-.64-.43-.89-.73A3.82,3.82,0,0,0,19.57,66c-.46-.08-1,.08-1.37-.24,0-3.39.26-6.77.59-10.15C18.94,54.13,18.94,52.61,19,51.11Z"/><path class="cls-14" d="M35.42,63.87c.55-.29,1.08.22,1.63,0,.1,0,.24.12.24.27s-.22.57.28.38c.18-.07.48,0,.53-.26s-.24-.32-.43-.45c-.45-.29-1.26-.43-.73-1.29a.39.39,0,0,0,0-.3c-.11-.31-.21-.61.19-.8.12-.05.26-.16.34,0a1.24,1.24,0,0,1,.16,1c-.07.17-.25.29-.31.46s0,.44.3.39a.93.93,0,0,0,.7-1.25.53.53,0,0,0-.08-.22c-.66-.74-.33-1.41.14-2.07.24-.33.42-.63,0-.93-.14-.1-.14-.24-.07-.42a1.74,1.74,0,0,1,2-1.13,4,4,0,0,0,1.33-.1.78.78,0,0,1,.74.19c.39.61,1.22.54,1.61,1.21.23.39.45-.37.88-.34.16.24-.13.79.37.92a2.7,2.7,0,0,0,1.64,0c.76-.29,1.55,0,2.34-.06.31,0,.94.68.91,1.39-.3,0-.5-.31-.77-.07a.23.23,0,0,0,0,.35c.32.26.48,1.06.79.84s.43.33.68.16a5.62,5.62,0,0,1-1.16,2.51c-.22-.48-.68-.3-1-.31-.62,0-1.33-.46-1.84.34-.14.22-.44,0-.66-.08-.49-.21-.81-.14-1,.45-.33.87-.92.9-1.52.14a2.08,2.08,0,0,0-1.95-.28c-.27.16-.08.31,0,.46.56,1.08.35,1.54-.82,1.75a4.86,4.86,0,0,0-1.5.73A5.7,5.7,0,0,1,35.42,63.87Z"/><path class="cls-15" d="M18.2,65.78a5.48,5.48,0,0,1,1.72,0c.78.28,1.7.38,2.23,1.18.3.45.57,1,1.3.72.24-.08.37.17.43.38s0,.37.09.54a1,1,0,0,0,.58.61.29.29,0,0,0,.27-.08.72.72,0,0,0-.12-.81,6.89,6.89,0,0,1-.44-.71c.7.36.77.47.81,1.35-.11,1.43-.21,2.87-.32,4.31-.15-.09-.29-.29-.48-.08-.48.53-1,.17-1.47,0a.52.52,0,0,1-.35-.7c.13-.36.42-.34.72-.18s.43.2.57,0a1,1,0,0,0,.06-1c-.13-.27-.36-.12-.55,0s-.35,0-.42-.2a5.16,5.16,0,0,0-1.27-1.83c-.38-.37-.14-.72.61-.94a1.94,1.94,0,0,0-.41-.76c-.26-.32-.63-.36-.83,0-.37.72-1,.62-1.64.65s-.34-.62-.7-.76c-.33.11-.18.5-.41.65-.75,0-.92.93-1.59,1,.69-.08,1-.81,1.6-1,.71,0,.87.21.67,1a2.09,2.09,0,0,1-.54,1c.66-.06.39.48.51.78a3.6,3.6,0,0,1-.42,3.25.94.94,0,0,1-.34.42A1.18,1.18,0,0,0,17.49,76c.08.44,0,.68-.5.76s-.91.48-1.56.21a1.48,1.48,0,0,0-1.5.52c-1.15.51-1.71-.33-2.15-1.08-.31-.54-1-.56-1.22-1.18-.06-.17-.37.06-.53.18a.91.91,0,0,1-1,.14.62.62,0,0,1-.32-.22A3.26,3.26,0,0,1,9,73.16a3.29,3.29,0,0,0,.63-.6c.4-.64.81-1,1.58-.51.25.17.43-.08.42-.3s.42-.46,0-.7-.42-.57,0-.81a.39.39,0,0,1,.23-.07c.85.09,1.39-.1,1.2-1.14-.06-.34.37-.43.58-.37s.3-.06.45-.1a1.32,1.32,0,0,1,.85.54c.31.33.51.26.58-.16a.9.9,0,0,1,1-.9,1.51,1.51,0,0,0,1.29-.94c-.53.22-1.17-.16-1.12-.66a.34.34,0,0,1,.05-.14c.12-.2.27,0,.41,0-.06-.33.18-.4.41-.47S18,66.06,18.2,65.78Z"/><path class="cls-16" d="M77.73,94.35c-.83-.24-1.2-1.06-1.87-1.52a3.25,3.25,0,0,0-.85-.49c-.54-.2-.82-.57-.33-1.07s.21-.94.26-1.41a.38.38,0,0,0-.49-.39c-.56.18-.56-.15-.56-.53a2.67,2.67,0,0,0,0-.4c0-1.54,0-1.57,1.51-1.79.29,0,.39.13.38.37s-.11.36-.11.54a.39.39,0,0,0,.45.44c.36,0,.37-.27.28-.51s-.35-.7.15-.83c.26-.07.78-.54.89.23,0,0,.08.06.11.1.43-.62,1.08-.15,1.63-.34a2.14,2.14,0,0,0,1.35-1c.13-.22.15-.69.54-.55s.3.52.33.84-.25.49,0,.86a2.47,2.47,0,0,0,.28-1.92c0-.41-.14-.75.21-1.07s.13-.5.16-.75.12-.36.34-.39a.32.32,0,0,1,.41.28c0,.49.67.7.56,1.26,0,0,.14.2.21.2,1.2-.08.77.83.87,1.42A9.28,9.28,0,0,1,79,93.75C78.57,93.94,78.26,94.37,77.73,94.35Z"/><path class="cls-17" d="M25.7,8.16c0-.05,0-.1,0-.16-.3-.73-.26-.89.33-1.4-.62.16-1.21.12-1.75.32a.29.29,0,0,1-.4-.16c-.1-.21-.27-.45-.07-.66a1,1,0,0,0,.25-.87c-.12.18.11.59-.3.58s-.41-.34-.49-.53a.65.65,0,0,1-.63.68,2.71,2.71,0,0,1,0-1.17,15.35,15.35,0,0,1,.86-4A1.07,1.07,0,0,1,24.74,0,2.69,2.69,0,0,1,27,1.13,36.77,36.77,0,0,0,31.13,6c.12.14.23.29.34.43a.36.36,0,0,0,.06.37c.54.57.24.57.18,1.23s-.8,1.08-.86,1.77c0,.45-.28.61-.69.33-.23-.16-.37-.16-.49.15a.49.49,0,0,1-.63.22c-.39-.14-.65.09-.95.24l-.32-.32c-1-.77-1.17-.94-.73-1.76-.36.21-.71.14-.78-.25S25.87,8.25,25.7,8.16Z"/><path class="cls-18" d="M18.68,82.06l.48.42c.23-.07-.27-1.11.51-.41.26-.68,1.38-.2,1.5-1.13.06-.51.47-.06.55-.1.55-.26,1.23,0,1.71-.46a.41.41,0,0,1,.5-.09l-.48,1.28c-.59.11-1.14.4-1.74.5a.78.78,0,0,0-.58.38,3.48,3.48,0,0,1-2.2,1.43,1.24,1.24,0,0,0-.75.53,1,1,0,0,1-.37.42c-.61.3-1,.65-.75,1.45.12.39-.25.52-.65.5.3.35.59.22.88.08s.31-.16.42,0-.06.29-.16.41a7.76,7.76,0,0,1-4,1,12.67,12.67,0,0,1-8.68-3.12,20.17,20.17,0,0,1-2.07-2c.1-.57.46-.37.78-.25s.33.34.48.52c.61.71.81.76,1.63.32.4-.22.74-.26,1,.13s.59.27.87-.1a2.13,2.13,0,0,1,2-.71c.67,0,1,.52.92,1.37.68-.65,1.41-.33,2.07-.45s1.46-.64,2.23-.12c.14.1.29-.08.38-.21a.68.68,0,0,1,.67-.35.7.7,0,0,0,.76-.27.57.57,0,0,1,.51-.19C18,83.05,18.31,82.56,18.68,82.06Z"/><path class="cls-19" d="M18.19,68.17c0-.1-.05-.21-.06-.31a.63.63,0,0,1,.43-.69c.29-.07.35.3.44.48s.19.65.63.45,1,.17,1-.61c0-.37.93-.54,1.18-.24s.32.71.66,1c.18.14.05.35-.18.39a7.85,7.85,0,0,1-.82.08c.36.94,1.47,1.43,1.52,2.58.25-.26.45-.49.79-.35s.3.46.28.75c0,1.1-.05,1.1-1.15.72a.28.28,0,0,0-.29,0,.29.29,0,0,0-.06.36,1.17,1.17,0,0,0,1.53.26c.14-.15.23-.42.48-.34s.09.38.15.57L24.3,78c-.07-.33,0-.69-.21-1a4.63,4.63,0,0,0-1.17,1c0-.71-.76-1.1-.33-1.83.09-.16-.23-.4-.48-.43-.46-.06-.58.27-.66.66.14-.68-.49-1.06-.54-1.64,0-.26-.14-.46-.44-.45-.15,0-.31.13-.25.24s-.12.61.25.73c.12,0,.35-.1.31.17a.29.29,0,0,1-.43.22c-.55-.22-.91.13-1.22.46a3.43,3.43,0,0,1-1.72,1.28c-.19,0-.33.25-.49.39-.67,0-1.32.16-2,.22a2.81,2.81,0,0,1-1-.11c-.3-.08-.29-.26,0-.43a1.46,1.46,0,0,1,1.95-.49.36.36,0,0,0,.49-.08c.18-.33.38-.46.76-.32s.34-.13.27-.32A1.41,1.41,0,0,1,18,74.38a1.4,1.4,0,0,0,.61-1.67c-.12-.24,0-.4.19-.55a.42.42,0,0,0,0-.64,1,1,0,0,1-.22-1.11c-.29-.21-.36.2-.58.13s-.26-.1-.28-.24.09-.15.18-.21c.61-.39.44-.68.56-1.35.08-.51-.15-.43-.34-.57Z"/><path class="cls-20" d="M18.68,82.06c-.13.69-.36,1.2-1.25,1-.27-.06-.8-.14-.74.5,0,.22-.11.15-.25.09-.46-.22-.86-.27-1.11.34-.1.25-.45.44-.64.15-.34-.49-.68-.17-1-.14-.74,0-1.43.62-2.22.25-.07,0-.19-.05-.23,0-.63.68-.85.5-.79-.36,0-.26-.19-.41-.43-.51a2,2,0,0,0-2.17.69c-.33.53-.74.56-1.1,0-.26-.37-.48-.4-.84-.15a1.24,1.24,0,0,1-2-.51c-.24-.43-.55-.62-1-.23A10.62,10.62,0,0,1,.18,77.75c.16,0,.26-.17.41-.22s.2,0,.3,0a.69.69,0,0,1,.18-1.26c.13-.05.25,0,.21.21A7.13,7.13,0,0,1,2.4,78.75c.3.72,1,.87,1.61,1a2,2,0,0,1,.87.28c.1-.37-.06-.5-.28-.56s-.16-.15,0-.26.19-.41.25-.31c.29.56.63-.09.92.08A.48.48,0,0,1,6,79.1c.22.16.62.21.55.58s-.51,0-.72.23c.67.17.69,1,1.22,1.27.06,0,0,.15,0,.23a1,1,0,0,0,.45,0,1.37,1.37,0,0,1,2.23.19,1,1,0,0,0,1.08.51c.93-.21,1.8.22,2.71.12.32,0,.58-.08.73-.36a.74.74,0,0,1,1-.36c.5.2,1-.1,1.49,0s.71.51,1.19.38A1,1,0,0,1,18.68,82.06Z"/><path class="cls-21" d="M1.28,76.47c-.07-.1-.26-.13-.24,0,.12.43-.19.46-.46.47,0,.45.44.17.5.45s.25.33.11.52-.31,0-.4-.12c-.22-.35-.39.51-.61,0a8.84,8.84,0,0,1,2.05-7.68c.21.3.35,0,.52-.07s.34-.1.55-.16c-.16.4.34.8.92.82l-.13.2c-.17.26-.64.17-.67.58.49-.12.58.89,1.23.45a1.18,1.18,0,0,1,.83.4c.24.28.29.72.83.86.25.06.59.61.65,1.16s.2.62-.33,1.17c-.15.15-.1.36,0,.39.89.28.14.58,0,.76-.38.43-1,.65-.92,1.44,0,.36-.44.29-.75.15s-.58-.41-.62.2c0,0-.18.1-.27.09s-.17-.17-.12-.31c.14-.36-.06-.58-.35-.93L3.41,78.9c-.22-.51-.47-.88-.22-1.29.38-.59-.16-.74-.44-.71-.47,0-.47-.24-.62-.5C1.82,75.83,1.57,76.49,1.28,76.47Z"/><path class="cls-22" d="M13.89,77.43c.22.55.65.43,1,.3a4.24,4.24,0,0,1,2,0c-.31.24-.06.53-.07.76-.63.39-1.29-.2-1.93.12-.2.11-.32-.12-.46-.23A1.52,1.52,0,0,0,12.93,78a.84.84,0,0,1-1.08-.4c-.27-.52-.45-.29-.68,0-.38.51-.76.35-.94-.13s-.86-.6-1-1.17c0,0-.53-.44-.9-.12-.21.18-.44.21-.52-.16a.65.65,0,0,0-.08-.17c-.13.11-.26.48-.43.11a.62.62,0,0,1,.32-.74c.35-.19.43-.41.27-.83s-.25-.74.31-1-.15-.78,0-1.2c.35,0,.14.67.52.52s.7-.31.71-.77c0-.27.18-.33.38-.43a.5.5,0,0,0,.29-.66c-.15-.39-.4.22-.61-.11.26,0-.05-.92.7-.38.19.14.17-.23.2-.39h0c.24-.32.35.41.59.07.22.17.4.32.48-.12.05-.29.13-.5-.29-.28a1.07,1.07,0,0,1-.44-.59c.57,0,.89-.21,1.47-.89-.19-.17-.42.18-.57,0s.13-.34.22-.51a.77.77,0,0,0-.7-1.14c-.36,0-.39-.3-.63-.39s-.22-.67-.45,0c0,0-.07.06-.11.09s0-.15,0-.22c0-.3-.23-.4-.49-.43a12.51,12.51,0,0,1,6.4-.18,3.56,3.56,0,0,0,.47,0c-.06.41-.39.36-.66.33s-.52-.14-.74.15c.07.21.29.17.44.22s.61,0,.62.43-.57.6-.69.57c-.9-.19-.81.5-.9,1-.06.25,0,.53-.3.66-.2-.15,0,.68-.38.14-.06.23-.67-.13-.44.51.3.87,0,1.07-.92,1a2.65,2.65,0,0,0-.69.05.44.44,0,0,0-.2.31c0,.05.12.14.19.21s.36-.21.35.07a3,3,0,0,1-.22,1.24c-.22.45-.54.09-.78-.07-.48-.32-.77-.39-.94.34-.07.3-.55.51-.85.75s-.53.56-.25.94a.44.44,0,0,1,0,.51c-.09.22-.34.48.08.65s.59.25.86-.07a1.44,1.44,0,0,1,.43-.35c.17-.09.45-.11.51,0,.25.75,1.13.94,1.4,1.63S13.16,77.52,13.89,77.43Z"/><path class="cls-23" d="M28.09,10.71c.12-.32.28-.69.7-.5.75.34.89,0,.78-.7.25.38.77.2,1,.66a4.71,4.71,0,0,1,.9-1.77,3.8,3.8,0,0,0,.32-1.19C31.8,7,31.56,7,31.44,7c-.28-.19-.48-.39,0-.55l3.7,3.34c-.32-.05-.47.63-.91.19-.1-.11-.1.12-.11.2s-.22.42,0,.66c1,1,1,1,0,2-.29-.07.24-.35-.08-.37-.11,0-.32,0-.39.15-.32.89-.84,1.21-1.94,1.2l-.07,0c-.8.15-.8.15-1-.78-.28.14-.31.41-.39.66s-.31.44-.46.27-.3-.14-.49,0-.27,0-.36-.2a2.36,2.36,0,0,1,0-1.88c.06-.16.28-.31,0-.47s-.28.19-.34.18c-.53-.06-1,.55-1.6.1C27.91,11.77,27.88,11.11,28.09,10.71Z"/><path class="cls-24" d="M39.27,67.51a1.64,1.64,0,0,1,1.51-.92c.39,0,.69-.07.89-.49s0-.65-.22-.93c-.55-.72-.53-.64.36-.86a3,3,0,0,1,1.69.18c.15,0,.41.07.35.23-.28.65.38.47.52.49.32,0,.47-.3.55-.58.24-.75.63-1,1.29-.54.46.3.62.14.69-.28s.14-.46.49-.21,1.16-.08,1.67.31l0-.44a1.11,1.11,0,0,1,.54.84C47.71,66.94,42.65,68.77,39.27,67.51Z"/><path class="cls-25" d="M72.3,19.65c-.41-.71-.86-.81-1.54-.24-.31.27-.43.29-.75,0a1,1,0,0,0-1.35,0c-.12.09-.21.26-.4.13s-.19-.24-.1-.46c.16-.4-.32-.74-.18-1.16,0-.16,0-.32,0-.47a1.77,1.77,0,0,0,.6-1.28,7.2,7.2,0,0,1,1.81-2.85c.7-.63,1.36-.36,2,0s.61.86.51,1.44C72.7,16.36,72.1,18,72.3,19.65Z"/><path class="cls-26" d="M17.55,87.29c0-.11.08-.23,0-.31s-.15,0-.22,0c-.34.26-.68.39-1,0-.14-.15-.36-.3-.23-.52s.3,0,.47,0,.51-.13.3-.5c-.39-.72-.11-1,.57-1.15a.2.2,0,0,0,.13-.08c.55-1,1.62-1.23,2.59-1.59a.58.58,0,0,0,.3-.35c.52-1,1.57-1.07,2.47-1.41.19-.08.35,0,.52.11a7.36,7.36,0,0,1-2.9,3.67C19.6,86,18.55,86.61,17.55,87.29Z"/><path class="cls-19" d="M14,68.65a3.59,3.59,0,0,1,.75-2.2l.3.62c.14-.45.16-.49.38-.36s.28,0,.31-.17.16-.44-.24-.23c-.07,0-.23-.12-.35-.12-.3,0-.62-.12-.57-.39a.54.54,0,0,1,.79-.42.72.72,0,0,0,.86-.06,2.45,2.45,0,0,1,1.28.46c-.29.14-.22.69-.72.62,0,0,.11.26.19.38s.27.43.56.3.3-.23.54-.22a1.85,1.85,0,0,1-2,1.4c-.53-.05-.27.47-.43.7s.05.57-.29.67-.47-.25-.68-.43S14.27,68.83,14,68.65Z"/><path class="cls-27" d="M22.65,4.79v1c.49-.09.49-.44.52-.84l.57.84L24,4.94c.5.32.37.74.16,1.07a.58.58,0,0,0-.09.66c.08.21.14.16.26.07a2.28,2.28,0,0,0,.22-.22c.39.41.76-.28,1.18,0,.08,0,.34-.19.58-.34,0,.71-.91,1.1-.59,1.84-.53.26-1,.38-1.44-.23-.28-.42-.7.1-1-.16s-.69-.2-.9.24A11.26,11.26,0,0,1,22.65,4.79Z"/><path class="cls-6" d="M26.31,46.47a2.48,2.48,0,0,1-1.45.11c-.12,0-.27-.15-.22-.28a3.06,3.06,0,0,1,.43-.82c.13-.18.22,0,.33.14.31.35.53.27.62-.19s.23-1,.35-1.52c0,0,.05,0,.07,0l.07,0A15.48,15.48,0,0,0,26.31,46.47Z"/><path class="cls-2" d="M68.6,16.14c.42.71-.09,1-.6,1.28A5,5,0,0,1,68.6,16.14Z"/><path class="cls-10" d="M87.3,42.47c-.2,0-.49.05-.43-.29a.36.36,0,0,1,.49-.27c.4.2-.19.35-.06.57Z"/><path class="cls-12" d="M38.36,20.75c-.24-.07-.52-.12-.62-.4s.12-.22.26-.21a1,1,0,0,1,.71.37C38.78,20.6,38.55,20.74,38.36,20.75Z"/><path class="cls-6" d="M31.44,30.83a.9.9,0,0,1,.49.47c-.35.18.13.39,0,.63C31.52,31.64,31.18,31.37,31.44,30.83Z"/><path class="cls-12" d="M33.8,17.57a.59.59,0,0,1,.29.82c0,.06-.19.12-.25.1s-.06-.26,0-.4A4.45,4.45,0,0,0,33.8,17.57Z"/><path class="cls-13" d="M25.28,55.32c-.23-.18-.56-.31-.65-.61s.21-.34.4-.38.48.13.5.44S25.56,55.2,25.28,55.32Z"/><path class="cls-13" d="M22.15,53.4c-.12-.41.06-.58.45-.67C22.6,53.11,22.34,53.24,22.15,53.4Z"/><path class="cls-9" d="M43.72,53.87a.41.41,0,0,1,.14.33.2.2,0,0,1-.25.21.34.34,0,0,1-.33-.36C43.28,53.91,43.37,53.82,43.72,53.87Z"/><path class="cls-14" d="M37.32,57.47c0,.12,0,.26-.14.25-.3,0-.34-.3-.41-.51s.07-.2.18-.18S37.24,57.3,37.32,57.47Z"/><path class="cls-21" d="M18,81.9c-.22.62-.6.21-.79,0a1.17,1.17,0,0,0-1.22-.2c-.05,0-.11.1-.13.09-.83-.47-1.22.08-1.84.55-.42.31-1.35,0-2.05-.09-.25,0-.58-.67-.79.11-.05.18-1.66-.56-1.74-.86a.71.71,0,0,0-1.1-.38c-.18.1-.15.79-.65.28-.05,0,.15.43,0,.65L6.63,81a3.57,3.57,0,0,0-.28-.27c-.19-.16,0-.73-.57-.52-.08,0-.37-.36-.27-.58s.35-.05.54,0,.26.19.47,0c-.15-.37-.63-.34-.79-.66.16-.39.72-.49.7-1a9.49,9.49,0,0,1,2.07-.77c.18.15.49.19.53.45s-.27.35-.46.47-.34,0-.39.23,0,.28,0,.3.13-.2.2-.17c.28.11.84-.09.56.6.44-.09.12-.34.28-.47s.41.8.67,0c0-.12.21.57.62.36,0,0,.6-.3.65-.34l1-.78c-.31.7-.29,1.06.34,1,0,.35-.08.7-.14,1,0,.09-.13.16-.2.24a.49.49,0,0,0-.17.42c.17-.08.38.15.56-.12s.48-.07.73,0,.46-.23.6-.46.18-.28.37-.21c.37.15.74.37.88-.27,0-.18.33-.16.42-.07.42.47,1,.09,1.43.26s-.07-.54.4-.51.06.7.44.63.71.53,1.2.44c.14,0,.13.14.1.24s-.17.3-.28.23c-1.16-.64-.57.49-.79.79C18,81.59,18,81.76,18,81.9Z"/><path class="cls-22" d="M9,71.89c-.47-.43-.9-.16-1.33.14-.11-.72.64-1.07.59-1.78C8.86,70.67,9.45,71,9,71.89Z"/><path class="cls-22" d="M10.37,69.93a1.38,1.38,0,0,1-.46-1.52l.4-.44c.43.65-.08,1.31.06,2Z"/><path class="cls-27" d="M25.7,8.16c.22-.15.33-.46.65-.52.26.28-.27.77.26,1,.28.1.31-.18.67-.43-.6,1.05,0,1.62.49,2.22,0,.23-.16.41-.35.21C26.94,10.09,26,9.91,26,9,26.06,8.61,25.21,8.67,25.7,8.16Z"/><path class="cls-19" d="M18.19,68.17c0,.13,0,.35-.06.38a1.61,1.61,0,0,0-1,.93c-.05.14-.77,0-1-.33s.09-.33.3-.27.59.19.62-.09c.07-.91.72-.54,1.17-.62Z"/><path class="cls-14" d="M42.9,65.47c-.06.16-.15.28-.34.25s-.2-.11-.16-.22.18-.33.4-.29S42.93,65.36,42.9,65.47Z"/><g class="cls-28"><path class="cls-2" d="M77.73,94.35a3.05,3.05,0,0,1-1.38.54,18.9,18.9,0,0,1-6.34.9,21.78,21.78,0,0,1-10.24-3,16.12,16.12,0,0,1-5.46-5.34,9.14,9.14,0,0,1-1.23-6.48,16.7,16.7,0,0,1,.45-2.89,9.81,9.81,0,0,1,3-4.09,10.49,10.49,0,0,1,7.06-2.62c1,0,1.94-.25,2.92-.28a20.19,20.19,0,0,1,4.71.53,10.51,10.51,0,0,1,4.57,1.68c.43.33.73.16.78-.42a8.16,8.16,0,0,0-.37-2.26c-.52-2.46-1.08-4.91-1.74-7.33-.55-2-1.36-4-1.87-6-.76-3-1.82-6-2.14-9.08-.16-1.59-.56-3.17-.81-4.76-.4-2.61-.92-5.2-1.23-7.82-.23-1.94-.57-3.86-.88-5.79-.12-.76-.12-1.53-.18-2.29a39.13,39.13,0,0,1-.18-6.12A9.15,9.15,0,0,1,68,17.89a2.12,2.12,0,0,1,.43,1.33,1.83,1.83,0,0,1,1.84,0c.31.2.54-.14.8-.23.77-.27,1-.15,1.25.64a17.6,17.6,0,0,1,.43,2.3,25.9,25.9,0,0,0,3.85,8.47,37.42,37.42,0,0,0,2.65,3.63c1.14,1.22,2.39,2.32,3.6,3.47,1.64,1.57,3.54,2.84,5.26,4.32,0,.24.54.41.26.64a.9.9,0,0,1-1,0c-.09-.06-.07-.18-.12-.26-.08.16.09.19.14.28.23.18.56.18.72.47s.22.43.06.67a.53.53,0,0,1-.57.18c-.93-.1-.94-.1-1,.83,0,.21-.07.37-.27.43s-.34-.09-.44-.26-.06-.32-.15-.55c-.12.65-.44,1.27-.47,1.75a12.15,12.15,0,0,1-.51,2.2c-.1.43.18.69.46.94A2,2,0,0,1,86,50.77,30.56,30.56,0,0,1,82,48.67a11.22,11.22,0,0,1-2.84-2.11,1.12,1.12,0,0,0-1.58-.2c-.84.58-1.22,1.18-1,2,.51,2.16,1,4.31,1.55,6.47.6,2.68,1.13,5.38,1.78,8,1,4.24,2.2,8.43,3.36,12.63a31.58,31.58,0,0,1,1.4,9.61c0,.28.09.59-.16.83-.19-.15-.18-.37-.21-.58s0-.41-.14-.43c-1-.19-1-1.25-1.62-1.8-.7.85-.54,1.85-.59,2.8a1.67,1.67,0,0,1-.06.63c-.08.2-.18.42-.44.38s-.26-.29-.25-.51a1.16,1.16,0,0,0-.09-.82c-.24,0-.29.18-.36.31a2.34,2.34,0,0,1-2.25,1.18c-.49,0-1,.29-1.46-.12-.17-.14-.45.1-.42.41s.2.87-.42.9-.65-.37-.62-.82-.14-.38-.39-.29-.93,0-1,.53a8.92,8.92,0,0,0,0,1c0,.47.28.53.61.67s.6,1,.34,1.64c-.33.85-.3.8.48,1.32A12.81,12.81,0,0,1,77.73,94.35Z"/><path class="cls-3" d="M44.44,18.53c.63.41.94,1.14,1.52,1.61,0,.13-.13.2-.13.23.27,1.47-1.38,2.05-1.55,3.32A.38.38,0,0,1,44,24c-.95.1-1.41,1-2.21,1.34a.72.72,0,0,0-.5.72c0,.87-.15,1-1.08,1.08C39,26.76,38.28,25.74,37.38,25a21.36,21.36,0,0,0-2.5-1.83A19.92,19.92,0,0,1,31.6,20.5a8.74,8.74,0,0,0-2.08-1.6c-.79-.4-1.39-.14-1.52.73a27.57,27.57,0,0,0-.31,5.95,4.19,4.19,0,0,0,1.73,2.94,10.75,10.75,0,0,1,2.06,2.2,1.07,1.07,0,0,1,.07.39c0,.32.11.45.37.14a1.08,1.08,0,0,1,.58.4c1.21,1.22,2.42,2.44,3.69,3.62a21.11,21.11,0,0,1,2.73,3.09c.34.47.91.76,1.06,1.37-.12.4-.36.16-.54.09s-.58-.06-.8-.27a1.78,1.78,0,0,0-2.36-.33c-.72.37-2.53-.39-2.68-1.16A1,1,0,0,1,34.28,37c.78-.4.81-.56.2-1.14,0,0-.06,0-.06-.06-.12-1-1.18-1-1.6-1.62a4,4,0,0,0-2-1.42c-.45-.18-.51-.65-.68-1-.38-.85-.53-.89-1.26-.35a.93.93,0,0,1-.9.19c-.26-.1-.3-.24-.36-.9-.23-.09-.31.14-.46.22a2,2,0,0,1-2.64-.15c-.13-.1-.22-.41-.41-.27s-.75.07-1.06.28-.08.28,0,.41a2.09,2.09,0,0,1,.45.66c.09.31.13.66-.21.85s-.55,0-.78-.2a2.83,2.83,0,0,1-.69-2.66,1.58,1.58,0,0,1,.09-.31c0-.17.17-.36-.08-.48a.49.49,0,0,0-.53.09,1.32,1.32,0,0,0-.47.8c-.05.24-.05.48-.09.71s0,.63-.39.57-.4-.37-.29-.69c.28-3.4.4-6.81.76-10.2.29-2.7.84-5.37,1-8.09a1.49,1.49,0,0,1,.13-.37c.2-.14.43-.15.53-.48a1.18,1.18,0,0,1,1.38-.81,1.62,1.62,0,0,1,1.55,1.14,7.07,7.07,0,0,1,.15,3.09c.82-.76,1.72-.48,2.57-.49a7.21,7.21,0,0,0,.85.13c.39-.05.42.32.49.6s-.12.62,0,1a2.47,2.47,0,0,1,3.28,1.5c0-.54.26-.7.64-.7s1.09-.21,1.2.29c.19.81.77.79,1.32.93a1.39,1.39,0,0,1,.95,1c.16.42-.11.75-.48,1a2.86,2.86,0,0,0,.8-.36c.65-.34,1.28-.51,1.87.14.24.26.5.31.71,0a.52.52,0,0,1,.55-.23,1.39,1.39,0,0,0,1.25-.57c.14-.17.26-.34.52-.29.05,0,.17.08.16,0-.09-.62.21-.67.75-.79s.76.31,1.08.55A1,1,0,0,0,44.44,18.53Z"/><path class="cls-4" d="M98.64,51.72c.72.5,1,1.36,1.52,2s1.16,1.5,1.78,2.21A10.51,10.51,0,0,1,104,61.11a41.8,41.8,0,0,1,.81,7.72,27.41,27.41,0,0,1-.77,5.33,27,27,0,0,1-1.6,5.72,41.49,41.49,0,0,1-2.33,4.3c-.78,1.32-1.73,2.53-2.43,3.89a15.77,15.77,0,0,1-2.29,3,1.69,1.69,0,0,1-1.6.52c-.88-.09-1-.46-.69-1.29,1-2.25,2.51-4.22,3.48-6.49.41-1,.86-1.92,1.29-2.89a44.05,44.05,0,0,0,2.46-7,18.93,18.93,0,0,0,.49-7.15,9,9,0,0,0-1.61-3.59,40.87,40.87,0,0,0-4.56-5.77c-.5-.53-1.17-.82-1.64-1.36a.78.78,0,0,1,1.16-.27c.64.33.83.22.87-.52,0-.57,0-1.16.85-1.08a.72.72,0,0,0-.23-.39c-.22-.26-.73-.46-.36-.89a1,1,0,0,1,1.3-.24,7,7,0,0,1,.8.64.5.5,0,0,0,.41.12c0-.34-.3-.69-.08-1A2.2,2.2,0,0,1,98.64,51.72Z"/><path class="cls-5" d="M40.21,27c.65-.13,1.18-.3.84-1.2-.15-.4.31-.62.61-.69.47-.1.78-.26.91-.74a.48.48,0,0,1,.68-.35c.46.13.76-.18.94-.54.38-.75.52-1.59,1.36-2.09.31-.18.25-.87-.22-1.23.24-.2.44.32.63,0a34,34,0,0,1,2.78,3.64A39.13,39.13,0,0,1,51,27.21a12.7,12.7,0,0,1,1.68,3.64,11.13,11.13,0,0,0,.59,1.39,26.15,26.15,0,0,1,1.18,11.42c-.33,3.76-.94,7.48-1.63,11.19-.28,1.5-.85,2.92-1.26,4.39-.45,0-.33-.39-.4-.63-.17-.67,0-1.37-.19-2a1.43,1.43,0,0,1,.15-.93,37.89,37.89,0,0,0,1.44-4.88,12.79,12.79,0,0,0-1.32-9.4,42.24,42.24,0,0,0-4.86-7.55c-.79-1-1.59-1.92-2.3-2.95a13.69,13.69,0,0,0-2.65-2.39C41,28.06,40.3,27.76,40.21,27Z"/><path class="cls-6" d="M20.1,30.49c0,.23.07.47.4.59.22-.65,0-1.37.5-2a.88.88,0,0,1,1.1-.29c.46.15.1.48,0,.77a2.74,2.74,0,0,0,.51,2.74c.2.2.46.41.68.19a.59.59,0,0,0,0-.74,4.87,4.87,0,0,1-.4-.5c-.1-.15-.52-.08-.34-.4s.36-.6.66-.47c.52.22.71-.12,1-.5a1.45,1.45,0,0,0,1.37,1.2,1.64,1.64,0,0,0,1.67-.67.32.32,0,0,1,.39-.19c.24.08.19.3.18.47s-.28.59.17.73a.75.75,0,0,0,.78-.28c.71-.73,1.08-.69,1.41.33a1.73,1.73,0,0,0,1.86,1.45c.21,0,.23.17.29.32.29.74.7,1.31,1.61,1.3.21,0,.35.14.31.44a.74.74,0,0,0,.62.92c.34.09.63.41.13.72-.3.18-.28.83-.9.58a1.09,1.09,0,0,0-.46.66,1,1,0,0,0,.69.85c.66.07,1.3,1,2.06.07.15-.19.85,0,1.25,0,.64-.08.68.5,1,.69-.34.43-.83.17-1.26.22a1.28,1.28,0,0,1-1.07,1.71c-.25,0-.48,0-.61.34a.59.59,0,0,1-1.08.18,8,8,0,0,1-1.16-2.12c-.05-.19-.08-.37-.25-.47a1,1,0,0,1-.47-1,.59.59,0,0,0-.56-.65c-.9-.32-1.19-1.24-1.78-1.86s-.81-.72-1.46-.22-.93.56-1.39-.06a.53.53,0,0,0-.7-.08c.12.35.6.58.4,1a.67.67,0,0,1-.71.4,2.37,2.37,0,0,1,0,2.95,1.32,1.32,0,0,0-.4.48c-.13.37-.28.7-.76.67s-.59-.46-.68-.74a18.84,18.84,0,0,0-3.43,1.5c1.27.42.94,1.75,1.24,2.79.07.24,0,.45.39.44s.58.34.47.72a4.4,4.4,0,0,1-1.3,2.13c-.82.71-2.35.15-3-1q0-5.28.45-10.55c.14-1.71.23-3.43.35-5.14C20,30.88,19.92,30.66,20.1,30.49Z"/><path class="cls-7" d="M19.16,46.78a3.78,3.78,0,0,0,1.9,1.06c.76.1,1.22-.1,1.45-.82.17-.51.74-.76.8-1.35s.05-.68-.49-.46c-.38.15-.5-.07-.44-.3.2-.69-.33-1.27-.18-2,.08-.42-.39-.76-.84-1-.25-.11-.62-.33-.51-.62s.51.06.65,0a11.9,11.9,0,0,0,1.55-.79c.17-.1.29-.38.53-.25.53.28.86.26.86-.45,0-.14.09-.24.26-.23a.33.33,0,0,1,.3.22,4.86,4.86,0,0,0,.07.55c.14.44.64.53.78.25.48-1,1.45-1.76,1.15-3.07-.13-.57-.63-.48-.88-.78.16-.34.39-.19.62-.14a.44.44,0,0,0,.51-.28.42.42,0,0,0-.19-.55c-.19-.13-.67-.11-.43-.46s.74-.6,1-.19c.59.83,1,.4,1.58,0a.91.91,0,0,1,1.42.32,5.79,5.79,0,0,0,1.75,2,24,24,0,0,0,1.31,2.93c.09.25.2.49.3.73.2.56.23,1-.37,1.35-.26.15-.32.48-.47.73a.93.93,0,0,1-1.51.15,4.81,4.81,0,0,0-1.95-.82,5.58,5.58,0,0,0-1.16-.26c-.77-.54-1.36-.38-1.71.48a8.21,8.21,0,0,0-.33,1.1,4.18,4.18,0,0,0-.32,1.43c-.05.47-.23.72-.72.57-.23-.08-.44-.11-.48.19s.24.29.45.29.57.07.87.07c-.11,3.31-.21,6.63-.32,10,0,.09-.08.18-.12.28-.2-.61-.8-.64-1.22-.64a.84.84,0,0,1-1-.82c0-.07-.07-.13-.23-.19-.05.43,0,1-.67,1-.45,0-.88,0-1.19-.43s-.71-.33-1.09-.42c-1-.23-1.07-.42-1.19-1.38S19.08,52,19,51.11C18.9,49.66,19.23,48.23,19.16,46.78Z"/><path class="cls-8" d="M28.55,42.34c.61-.28,1.16,0,1.71.2a5.53,5.53,0,0,0,1.53.47c.08,0,.2,0,.16.08-.13.27-.25.54.23.49s.8,0,.89-.58a.8.8,0,0,1,.31-.53c1-.55.48-1.22.16-1.84a8.09,8.09,0,0,0-1.22-2.35c-.22-.23.09-.49.08-.75.54,0,.79.25.68.83a.61.61,0,0,0,.31.73c.31.18.79.29.35.82,0,0,.08.26.18.31.45.24.51.73.72,1.11s.25.68.72.67.19-.42.26-.63.22-.27.43-.2c.73.24,1-.44,1.42-.76A.25.25,0,0,0,37.4,40c-.12-.06-.38,0-.19-.28s.27-.42.5-.27.72,0,1.07,0l1.13.3c.48,0,.7.36,1,.64,1.38,1.58,2.73,3.2,4.12,4.78a1.21,1.21,0,0,1,.41.83c-.08.37-.38.49-.69.59a2.38,2.38,0,0,0-.81.48c-.45.39-.9.68-.07,1.18.36.21.24.61-.14.84s-.3.51.09.62a1.18,1.18,0,0,1,.93,1.44,1.35,1.35,0,0,0,.54,1.33c.5.36.41.77,0,1.12a2.21,2.21,0,0,0-.82,1A.48.48,0,0,1,44,55c-.68-.06-1.32.36-2,.09a4,4,0,0,0-1.5,0c-.27,0-.59,0-.72-.27s.21-.43.35-.64a2.1,2.1,0,0,1,1.38-.84s0,0,0-.05l0-.06c.17-.27.51-.08.76-.28-.37-.86-1.23-1.22-1.91-1.7-1.28-.9-2.39-2-3.63-2.95a11.58,11.58,0,0,0-3.2-1.73,7.8,7.8,0,0,1-4.61-3.65A6,6,0,0,0,28.55,42.34Z"/><path class="cls-9" d="M41.5,53.17c.08,0,.17,0,.23,0,.21.11,0,.12,0,.15a3.66,3.66,0,0,0-1.81,1.33,1.68,1.68,0,0,0,1.07.13,3.89,3.89,0,0,1,1.31.1c.59.11,1.5.13,1.79-.22.43-.52.87-1,1.34-1.52.19-.21,0-.44-.21-.51-.76-.33-.72-1-.67-1.62s-.12-1.08-.86-1.11a.53.53,0,0,1-.53-.56c0-.24.07-.46.33-.45s.43,0,.43-.31a.48.48,0,0,0-.41-.43c-1-.24-.43-.55-.1-1,.53-.62,1.36-.73,2-1.23a.51.51,0,0,1,.39.24c1.15,1.65,2.6,3.09,3.63,4.83a2.19,2.19,0,0,1,.29.57c.37,1.65,1,3.22,1.43,4.87.34.17.34.44.28.79a3.63,3.63,0,0,0,.24,2,12,12,0,0,1-.78,2.56c-.51,0-1,.09-1.38-.49s-.4-.89.37-1.19a1.17,1.17,0,0,0-1.37-.78c-.65.06-1.31,0-2,.11s-1.36.13-1.71-.66c0-.07-.08-.18-.16-.14-1,.47-1.27-.6-1.93-.86a2.9,2.9,0,0,0-1.33-.36,5.12,5.12,0,0,1-1.41,0,1.14,1.14,0,0,0-1.21,1.46,1.06,1.06,0,0,1-.18,1,1.53,1.53,0,0,0-.11,1.83A1,1,0,0,1,38,63.3c-.2.12-.42.27-.65.06a.49.49,0,0,1-.08-.65c.15-.31.31-.62,0-1-.2,1.52-.6,1.38.64,2,.29.15.49.41.28.71s-.76.46-.89.23c-.44-.8-1.25-.54-1.86-.81-1.42-2.61-.78-5,.83-7.27a9.16,9.16,0,0,1,4.47-3.3A2.1,2.1,0,0,1,41.5,53.17Z"/><path class="cls-10" d="M98.64,51.72c0,.1,0,.27-.1.29-1.09.39-.66,1-.22,1.7a1.22,1.22,0,0,1-1.19-.37,4.22,4.22,0,0,0-.58-.54.87.87,0,0,0-1.09.19c-.35.35.23.4.35.61a1.79,1.79,0,0,0,.38.4c.1.1.18.21,0,.34s-.17.23-.32.15c-.71-.42-.61.15-.64.53,0,.21,0,.42,0,.63,0,.45-.61.78-.89.49A1,1,0,0,0,93,56.05a69.4,69.4,0,0,0-6.42-4.91c-.19-.13-.4-.25-.6-.37A4.65,4.65,0,0,0,84.66,49c-.47-.33-.18-.83,0-1.24s.7-1,.17-1.59c.7-.56.49-1.47.82-2.17.05-.1.16-.18.26-.1a.42.42,0,0,1,.14.27c0,.15-.1.31-.07.46s.07.41.33.34.14-.23,0-.37c-.25-.39,0-.66.23-.92s.54-.26.86-.1.46.3.61,0-.07-.51-.28-.67-.43-.1-.42-.4h0c.33.07.64-.29,1,0,.16-.3-.38-.34-.16-.62a51.11,51.11,0,0,1,10.3,9.4A.8.8,0,0,1,98.64,51.72Z"/><path class="cls-11" d="M24.3,78a6.21,6.21,0,0,1-.37,2.34,4.16,4.16,0,0,1-2.15.73c-.15,0-.36-.13-.43,0-.32.83-1.25.7-1.75,1.16s-.68.39-1,0a3.6,3.6,0,0,1-.58-.32c-.19-.27-.07-.57-.08-.86,0-.61.21-.83.84-.6-.33-.48-1-.32-1.25-.83-.07-.15-.08,0-.12,0a2.1,2.1,0,0,1-1.8.08c-.05,0-.11-.08-.14,0-.37.43-1,.24-1.35.5-.53.44-1.16.31-1.69.58-.26.13-.72,0-.49-.41a1.3,1.3,0,0,0-.26-1.86c-.26.55-.68,1-1.37.72-.27-.1-.55,0-.77-.15s-.49.45-.62,0-.48-.18-.69-.28-.21-.47,0-.7.56-.17.37-.48-.5-.09-.74,0a6.91,6.91,0,0,0-2.1,1.5c-.31.12-.6.34-1,.17.17.27.45.44.27.73s-.38.07-.57,0a3,3,0,0,1-2.75-2.6c-.09-.37-.47-.59-.46-1,.6-.62.63-.62,1.15.08,0,0,.07.12.09.12,1.37-.08.8.92.87,1.56v0c.08-.35-.19-.92.31-1s.49.41.45.78c-.1.06.15.1.06.06s0,0,0-.06A.53.53,0,0,1,4.81,78c.5.23.66,0,.76-.44A1.35,1.35,0,0,1,6,76.86c.33-.3.86-.52.4-1.12a.23.23,0,0,1,.06-.29c.3-.18.64-.67.56-.73-.5-.37-.34-1.16-1-1.4a1,1,0,0,1-.52-.56c-.17-.34-.49-.68-.86-.61S4,72,3.68,71.8c-.6-.3-.47-.6,0-.91-.18-.29-.63-.28-.73-.64s-.17,0-.25,0-.47.27-.49-.18A8.77,8.77,0,0,1,7.41,66a11.37,11.37,0,0,1,2-.5.18.18,0,0,1,.14-.06,16.27,16.27,0,0,0,2.05.89c.15,0,.22.22.31.34.37.51.15,1.12.3,1.68.08.34-.62.69-1.07.94.58,0,.56.38.44.79s-.4.39-.74.27-.3-.29-.49-.39c-.42-.48.12-1-.16-1.56A1.51,1.51,0,0,0,10.44,70c.19.6-.27.44-.56.47.37.19.54.5.28.83a12,12,0,0,1-.95,1.27c-.21.2-.53.59-.94-.12.28.51.38.87,0,1.17a.62.62,0,0,0-.16.59c.07.77.07.77-.5,1.37a1.84,1.84,0,0,0,1.11.36c.74,0,1.09.7,1.51,1.18s.53.64,1,.2a.47.47,0,0,1,.76.08,1,1,0,0,0,1.21.33c.32-.13.57,0,.82.17a5.25,5.25,0,0,0,1.47.46c.76.14,1.19.07,1.33-.74a11.74,11.74,0,0,0,2.55-2,.91.91,0,0,1,1.05-.19c.06.07,0-.18,0-.08s0,0-.08,0c-.25-.18-.24-.45-.26-.71a.48.48,0,0,1,.9-.28,3.57,3.57,0,0,1,.55,1.48c.12-.33.42-.42.78-.29a.63.63,0,0,1,.47.73,1.07,1.07,0,0,0,.13.76c.11.17.16.41.46.19s.47-.6.77-.41S24.34,77.56,24.3,78Z"/><path class="cls-12" d="M44.44,18.53c-.2,0-.43,0-.49-.2-.28-.74-.93,0-1.29-.36,0,0-.06,0-.06.05,0,.49-.41.69-.76,1s-.87.84-1.56.63c-.21-.06-.26,0-.29.2-.1.67-.6.46-.86.24-.84-.73-1-.78-1.94-.19a1.19,1.19,0,0,1-1.47.05c.57-.13,1.24-.23,1.07-.83a1.16,1.16,0,0,0-1.14-1c-.27,0-1.32,0-1.06-.94,0-.15-.11-.24-.25-.24A3.14,3.14,0,0,0,33,17c-.14.36.54.06.31.45s-.37.13-.57.08a.82.82,0,0,1-.54-.53c-.37-.84-.79-1-1.73-1a1.23,1.23,0,0,0-.91.23c-.29.23-.38-.11-.38-.37,0-1.08,0-1.13-.76-1.37a4.76,4.76,0,0,0-2.06-.05.56.56,0,0,0-.51.32c-.07.18-.12.4-.37.29s-.09-.26-.07-.41a9.75,9.75,0,0,0-.14-3c-.18-.86-.85-.79-1.37-1a.92.92,0,0,0-1.23.69c-.08.57-.38.41-.69.4a17.77,17.77,0,0,1,.31-4c.08-.52.31-.67.85-.49s1.12.06,1.57.54c.23.24.61,0,.91,0a.37.37,0,0,1,.13.17,10.57,10.57,0,0,0,.75,1.46,2.09,2.09,0,0,0,1.27.76c.21,0,.3.2.36.39a1,1,0,0,1-.67,1c.34-.37.88-.27,1.32-.51s.51.15.44.48A3.53,3.53,0,0,0,29,13c0,.22.11.66.23.57.3-.22.73.21.91-.23a1.61,1.61,0,0,1,.17-.28c.29-.36.52-.33.63.14s.16.51.71.46a2.27,2.27,0,0,0,1.92-1.19c.08-.12.19-.23.31-.2.32.1.57.13.69-.28s0-.68-.37-.94-.42-1.22,0-1.22.61-.19.93,0a42.7,42.7,0,0,1,5.94,5.38c.41.46.92.8,1.33,1.25Z"/><path class="cls-13" d="M19,51.11a18.11,18.11,0,0,1,.47,2.81c0,.63.28.85.77,1s1.38,0,1.74.84c.06.14.78.1,1.14,0s0-.41-.05-.61a.32.32,0,0,1,.08-.43c.16-.11.31,0,.44.07a1,1,0,0,1,.35.76c0,.18-.05.81.38.15.09-.14.24,0,.33.06.34.37.71.43,1.15-.09,0,.47,0,.76.06,1.05-.14,3.29-.21,6.59-.63,9.86A9.42,9.42,0,0,1,25.07,69c-.19-.23,0-.6-.28-.75,0,0,.07.06.09.13.08.34.31.8-.11,1s-.81-.23-.94-.64-.32-.77-.9-.78c-.41,0-.64-.43-.89-.73A3.82,3.82,0,0,0,19.57,66c-.46-.08-1,.08-1.37-.24,0-3.39.26-6.77.59-10.15C18.94,54.13,18.94,52.61,19,51.11Z"/><path class="cls-14" d="M35.42,63.87c.55-.29,1.08.22,1.63,0,.1,0,.24.12.24.27s-.22.57.28.38c.18-.07.48,0,.53-.26s-.24-.32-.43-.45c-.45-.29-1.26-.43-.73-1.29a.39.39,0,0,0,0-.3c-.11-.31-.21-.61.19-.8.12-.05.26-.16.34,0a1.24,1.24,0,0,1,.16,1c-.07.17-.25.29-.31.46s0,.44.3.39a.93.93,0,0,0,.7-1.25.53.53,0,0,0-.08-.22c-.66-.74-.33-1.41.14-2.07.24-.33.42-.63,0-.93-.14-.1-.14-.24-.07-.42a1.74,1.74,0,0,1,2-1.13,4,4,0,0,0,1.33-.1.78.78,0,0,1,.74.19c.39.61,1.22.54,1.61,1.21.23.39.45-.37.88-.34.16.24-.13.79.37.92a2.7,2.7,0,0,0,1.64,0c.76-.29,1.55,0,2.34-.06.31,0,.94.68.91,1.39-.3,0-.5-.31-.77-.07a.23.23,0,0,0,0,.35c.32.26.48,1.06.79.84s.43.33.68.16a5.62,5.62,0,0,1-1.16,2.51c-.22-.48-.68-.3-1-.31-.62,0-1.33-.46-1.84.34-.14.22-.44,0-.66-.08-.49-.21-.81-.14-1,.45-.33.87-.92.9-1.52.14a2.08,2.08,0,0,0-1.95-.28c-.27.16-.08.31,0,.46.56,1.08.35,1.54-.82,1.75a4.86,4.86,0,0,0-1.5.73A5.7,5.7,0,0,1,35.42,63.87Z"/><path class="cls-15" d="M18.2,65.78a5.48,5.48,0,0,1,1.72,0c.78.28,1.7.38,2.23,1.18.3.45.57,1,1.3.72.24-.08.37.17.43.38s0,.37.09.54a1,1,0,0,0,.58.61.29.29,0,0,0,.27-.08.72.72,0,0,0-.12-.81,6.89,6.89,0,0,1-.44-.71c.7.36.77.47.81,1.35-.11,1.43-.21,2.87-.32,4.31-.15-.09-.29-.29-.48-.08-.48.53-1,.17-1.47,0a.52.52,0,0,1-.35-.7c.13-.36.42-.34.72-.18s.43.2.57,0a1,1,0,0,0,.06-1c-.13-.27-.36-.12-.55,0s-.35,0-.42-.2a5.16,5.16,0,0,0-1.27-1.83c-.38-.37-.14-.72.61-.94a1.94,1.94,0,0,0-.41-.76c-.26-.32-.63-.36-.83,0-.37.72-1,.62-1.64.65s-.34-.62-.7-.76c-.33.11-.18.5-.41.65-.75,0-.92.93-1.59,1,.69-.08,1-.81,1.6-1,.71,0,.87.21.67,1a2.09,2.09,0,0,1-.54,1c.66-.06.39.48.51.78a3.6,3.6,0,0,1-.42,3.25.94.94,0,0,1-.34.42A1.18,1.18,0,0,0,17.49,76c.08.44,0,.68-.5.76s-.91.48-1.56.21a1.48,1.48,0,0,0-1.5.52c-1.15.51-1.71-.33-2.15-1.08-.31-.54-1-.56-1.22-1.18-.06-.17-.37.06-.53.18a.91.91,0,0,1-1,.14.62.62,0,0,1-.32-.22A3.26,3.26,0,0,1,9,73.16a3.29,3.29,0,0,0,.63-.6c.4-.64.81-1,1.58-.51.25.17.43-.08.42-.3s.42-.46,0-.7-.42-.57,0-.81a.39.39,0,0,1,.23-.07c.85.09,1.39-.1,1.2-1.14-.06-.34.37-.43.58-.37s.3-.06.45-.1a1.32,1.32,0,0,1,.85.54c.31.33.51.26.58-.16a.9.9,0,0,1,1-.9,1.51,1.51,0,0,0,1.29-.94c-.53.22-1.17-.16-1.12-.66a.34.34,0,0,1,.05-.14c.12-.2.27,0,.41,0-.06-.33.18-.4.41-.47S18,66.06,18.2,65.78Z"/><path class="cls-16" d="M77.73,94.35c-.83-.24-1.2-1.06-1.87-1.52a3.25,3.25,0,0,0-.85-.49c-.54-.2-.82-.57-.33-1.07s.21-.94.26-1.41a.38.38,0,0,0-.49-.39c-.56.18-.56-.15-.56-.53a2.67,2.67,0,0,0,0-.4c0-1.54,0-1.57,1.51-1.79.29,0,.39.13.38.37s-.11.36-.11.54a.39.39,0,0,0,.45.44c.36,0,.37-.27.28-.51s-.35-.7.15-.83c.26-.07.78-.54.89.23,0,0,.08.06.11.1.43-.62,1.08-.15,1.63-.34a2.14,2.14,0,0,0,1.35-1c.13-.22.15-.69.54-.55s.3.52.33.84-.25.49,0,.86a2.47,2.47,0,0,0,.28-1.92c0-.41-.14-.75.21-1.07s.13-.5.16-.75.12-.36.34-.39a.32.32,0,0,1,.41.28c0,.49.67.7.56,1.26,0,0,.14.2.21.2,1.2-.08.77.83.87,1.42A9.28,9.28,0,0,1,79,93.75C78.57,93.94,78.26,94.37,77.73,94.35Z"/><path class="cls-17" d="M25.7,8.16c0-.05,0-.1,0-.16-.3-.73-.26-.89.33-1.4-.62.16-1.21.12-1.75.32a.29.29,0,0,1-.4-.16c-.1-.21-.27-.45-.07-.66a1,1,0,0,0,.25-.87c-.12.18.11.59-.3.58s-.41-.34-.49-.53a.65.65,0,0,1-.63.68,2.71,2.71,0,0,1,0-1.17,15.35,15.35,0,0,1,.86-4A1.07,1.07,0,0,1,24.74,0,2.69,2.69,0,0,1,27,1.13,36.77,36.77,0,0,0,31.13,6c.12.14.23.29.34.43a.36.36,0,0,0,.06.37c.54.57.24.57.18,1.23s-.8,1.08-.86,1.77c0,.45-.28.61-.69.33-.23-.16-.37-.16-.49.15a.49.49,0,0,1-.63.22c-.39-.14-.65.09-.95.24l-.32-.32c-1-.77-1.17-.94-.73-1.76-.36.21-.71.14-.78-.25S25.87,8.25,25.7,8.16Z"/><path class="cls-18" d="M18.68,82.06l.48.42c.23-.07-.27-1.11.51-.41.26-.68,1.38-.2,1.5-1.13.06-.51.47-.06.55-.1.55-.26,1.23,0,1.71-.46a.41.41,0,0,1,.5-.09l-.48,1.28c-.59.11-1.14.4-1.74.5a.78.78,0,0,0-.58.38,3.48,3.48,0,0,1-2.2,1.43,1.24,1.24,0,0,0-.75.53,1,1,0,0,1-.37.42c-.61.3-1,.65-.75,1.45.12.39-.25.52-.65.5.3.35.59.22.88.08s.31-.16.42,0-.06.29-.16.41a7.76,7.76,0,0,1-4,1,12.67,12.67,0,0,1-8.68-3.12,20.17,20.17,0,0,1-2.07-2c.1-.57.46-.37.78-.25s.33.34.48.52c.61.71.81.76,1.63.32.4-.22.74-.26,1,.13s.59.27.87-.1a2.13,2.13,0,0,1,2-.71c.67,0,1,.52.92,1.37.68-.65,1.41-.33,2.07-.45s1.46-.64,2.23-.12c.14.1.29-.08.38-.21a.68.68,0,0,1,.67-.35.7.7,0,0,0,.76-.27.57.57,0,0,1,.51-.19C18,83.05,18.31,82.56,18.68,82.06Z"/><path class="cls-19" d="M18.19,68.17c0-.1-.05-.21-.06-.31a.63.63,0,0,1,.43-.69c.29-.07.35.3.44.48s.19.65.63.45,1,.17,1-.61c0-.37.93-.54,1.18-.24s.32.71.66,1c.18.14.05.35-.18.39a7.85,7.85,0,0,1-.82.08c.36.94,1.47,1.43,1.52,2.58.25-.26.45-.49.79-.35s.3.46.28.75c0,1.1-.05,1.1-1.15.72a.28.28,0,0,0-.29,0,.29.29,0,0,0-.06.36,1.17,1.17,0,0,0,1.53.26c.14-.15.23-.42.48-.34s.09.38.15.57L24.3,78c-.07-.33,0-.69-.21-1a4.63,4.63,0,0,0-1.17,1c0-.71-.76-1.1-.33-1.83.09-.16-.23-.4-.48-.43-.46-.06-.58.27-.66.66.14-.68-.49-1.06-.54-1.64,0-.26-.14-.46-.44-.45-.15,0-.31.13-.25.24s-.12.61.25.73c.12,0,.35-.1.31.17a.29.29,0,0,1-.43.22c-.55-.22-.91.13-1.22.46a3.43,3.43,0,0,1-1.72,1.28c-.19,0-.33.25-.49.39-.67,0-1.32.16-2,.22a2.81,2.81,0,0,1-1-.11c-.3-.08-.29-.26,0-.43a1.46,1.46,0,0,1,1.95-.49.36.36,0,0,0,.49-.08c.18-.33.38-.46.76-.32s.34-.13.27-.32A1.41,1.41,0,0,1,18,74.38a1.4,1.4,0,0,0,.61-1.67c-.12-.24,0-.4.19-.55a.42.42,0,0,0,0-.64,1,1,0,0,1-.22-1.11c-.29-.21-.36.2-.58.13s-.26-.1-.28-.24.09-.15.18-.21c.61-.39.44-.68.56-1.35.08-.51-.15-.43-.34-.57Z"/><path class="cls-20" d="M18.68,82.06c-.13.69-.36,1.2-1.25,1-.27-.06-.8-.14-.74.5,0,.22-.11.15-.25.09-.46-.22-.86-.27-1.11.34-.1.25-.45.44-.64.15-.34-.49-.68-.17-1-.14-.74,0-1.43.62-2.22.25-.07,0-.19-.05-.23,0-.63.68-.85.5-.79-.36,0-.26-.19-.41-.43-.51a2,2,0,0,0-2.17.69c-.33.53-.74.56-1.1,0-.26-.37-.48-.4-.84-.15a1.24,1.24,0,0,1-2-.51c-.24-.43-.55-.62-1-.23A10.62,10.62,0,0,1,.18,77.75c.16,0,.26-.17.41-.22s.2,0,.3,0a.69.69,0,0,1,.18-1.26c.13-.05.25,0,.21.21A7.13,7.13,0,0,1,2.4,78.75c.3.72,1,.87,1.61,1a2,2,0,0,1,.87.28c.1-.37-.06-.5-.28-.56s-.16-.15,0-.26.19-.41.25-.31c.29.56.63-.09.92.08A.48.48,0,0,1,6,79.1c.22.16.62.21.55.58s-.51,0-.72.23c.67.17.69,1,1.22,1.27.06,0,0,.15,0,.23a1,1,0,0,0,.45,0,1.37,1.37,0,0,1,2.23.19,1,1,0,0,0,1.08.51c.93-.21,1.8.22,2.71.12.32,0,.58-.08.73-.36a.74.74,0,0,1,1-.36c.5.2,1-.1,1.49,0s.71.51,1.19.38A1,1,0,0,1,18.68,82.06Z"/><path class="cls-21" d="M1.28,76.47c-.07-.1-.26-.13-.24,0,.12.43-.19.46-.46.47,0,.45.44.17.5.45s.25.33.11.52-.31,0-.4-.12c-.22-.35-.39.51-.61,0a8.84,8.84,0,0,1,2.05-7.68c.21.3.35,0,.52-.07s.34-.1.55-.16c-.16.4.34.8.92.82l-.13.2c-.17.26-.64.17-.67.58.49-.12.58.89,1.23.45a1.18,1.18,0,0,1,.83.4c.24.28.29.72.83.86.25.06.59.61.65,1.16s.2.62-.33,1.17c-.15.15-.1.36,0,.39.89.28.14.58,0,.76-.38.43-1,.65-.92,1.44,0,.36-.44.29-.75.15s-.58-.41-.62.2c0,0-.18.1-.27.09s-.17-.17-.12-.31c.14-.36-.06-.58-.35-.93L3.41,78.9c-.22-.51-.47-.88-.22-1.29.38-.59-.16-.74-.44-.71-.47,0-.47-.24-.62-.5C1.82,75.83,1.57,76.49,1.28,76.47Z"/><path class="cls-22" d="M13.89,77.43c.22.55.65.43,1,.3a4.24,4.24,0,0,1,2,0c-.31.24-.06.53-.07.76-.63.39-1.29-.2-1.93.12-.2.11-.32-.12-.46-.23A1.52,1.52,0,0,0,12.93,78a.84.84,0,0,1-1.08-.4c-.27-.52-.45-.29-.68,0-.38.51-.76.35-.94-.13s-.86-.6-1-1.17c0,0-.53-.44-.9-.12-.21.18-.44.21-.52-.16a.65.65,0,0,0-.08-.17c-.13.11-.26.48-.43.11a.62.62,0,0,1,.32-.74c.35-.19.43-.41.27-.83s-.25-.74.31-1-.15-.78,0-1.2c.35,0,.14.67.52.52s.7-.31.71-.77c0-.27.18-.33.38-.43a.5.5,0,0,0,.29-.66c-.15-.39-.4.22-.61-.11.26,0-.05-.92.7-.38.19.14.17-.23.2-.39h0c.24-.32.35.41.59.07.22.17.4.32.48-.12.05-.29.13-.5-.29-.28a1.07,1.07,0,0,1-.44-.59c.57,0,.89-.21,1.47-.89-.19-.17-.42.18-.57,0s.13-.34.22-.51a.77.77,0,0,0-.7-1.14c-.36,0-.39-.3-.63-.39s-.22-.67-.45,0c0,0-.07.06-.11.09s0-.15,0-.22c0-.3-.23-.4-.49-.43a12.51,12.51,0,0,1,6.4-.18,3.56,3.56,0,0,0,.47,0c-.06.41-.39.36-.66.33s-.52-.14-.74.15c.07.21.29.17.44.22s.61,0,.62.43-.57.6-.69.57c-.9-.19-.81.5-.9,1-.06.25,0,.53-.3.66-.2-.15,0,.68-.38.14-.06.23-.67-.13-.44.51.3.87,0,1.07-.92,1a2.65,2.65,0,0,0-.69.05.44.44,0,0,0-.2.31c0,.05.12.14.19.21s.36-.21.35.07a3,3,0,0,1-.22,1.24c-.22.45-.54.09-.78-.07-.48-.32-.77-.39-.94.34-.07.3-.55.51-.85.75s-.53.56-.25.94a.44.44,0,0,1,0,.51c-.09.22-.34.48.08.65s.59.25.86-.07a1.44,1.44,0,0,1,.43-.35c.17-.09.45-.11.51,0,.25.75,1.13.94,1.4,1.63S13.16,77.52,13.89,77.43Z"/><path class="cls-23" d="M28.09,10.71c.12-.32.28-.69.7-.5.75.34.89,0,.78-.7.25.38.77.2,1,.66a4.71,4.71,0,0,1,.9-1.77,3.8,3.8,0,0,0,.32-1.19C31.8,7,31.56,7,31.44,7c-.28-.19-.48-.39,0-.55l3.7,3.34c-.32-.05-.47.63-.91.19-.1-.11-.1.12-.11.2s-.22.42,0,.66c1,1,1,1,0,2-.29-.07.24-.35-.08-.37-.11,0-.32,0-.39.15-.32.89-.84,1.21-1.94,1.2l-.07,0c-.8.15-.8.15-1-.78-.28.14-.31.41-.39.66s-.31.44-.46.27-.3-.14-.49,0-.27,0-.36-.2a2.36,2.36,0,0,1,0-1.88c.06-.16.28-.31,0-.47s-.28.19-.34.18c-.53-.06-1,.55-1.6.1C27.91,11.77,27.88,11.11,28.09,10.71Z"/><path class="cls-24" d="M39.27,67.51a1.64,1.64,0,0,1,1.51-.92c.39,0,.69-.07.89-.49s0-.65-.22-.93c-.55-.72-.53-.64.36-.86a3,3,0,0,1,1.69.18c.15,0,.41.07.35.23-.28.65.38.47.52.49.32,0,.47-.3.55-.58.24-.75.63-1,1.29-.54.46.3.62.14.69-.28s.14-.46.49-.21,1.16-.08,1.67.31l0-.44a1.11,1.11,0,0,1,.54.84C47.71,66.94,42.65,68.77,39.27,67.51Z"/><path class="cls-25" d="M72.3,19.65c-.41-.71-.86-.81-1.54-.24-.31.27-.43.29-.75,0a1,1,0,0,0-1.35,0c-.12.09-.21.26-.4.13s-.19-.24-.1-.46c.16-.4-.32-.74-.18-1.16,0-.16,0-.32,0-.47a1.77,1.77,0,0,0,.6-1.28,7.2,7.2,0,0,1,1.81-2.85c.7-.63,1.36-.36,2,0s.61.86.51,1.44C72.7,16.36,72.1,18,72.3,19.65Z"/><path class="cls-26" d="M17.55,87.29c0-.11.08-.23,0-.31s-.15,0-.22,0c-.34.26-.68.39-1,0-.14-.15-.36-.3-.23-.52s.3,0,.47,0,.51-.13.3-.5c-.39-.72-.11-1,.57-1.15a.2.2,0,0,0,.13-.08c.55-1,1.62-1.23,2.59-1.59a.58.58,0,0,0,.3-.35c.52-1,1.57-1.07,2.47-1.41.19-.08.35,0,.52.11a7.36,7.36,0,0,1-2.9,3.67C19.6,86,18.55,86.61,17.55,87.29Z"/><path class="cls-19" d="M14,68.65a3.59,3.59,0,0,1,.75-2.2l.3.62c.14-.45.16-.49.38-.36s.28,0,.31-.17.16-.44-.24-.23c-.07,0-.23-.12-.35-.12-.3,0-.62-.12-.57-.39a.54.54,0,0,1,.79-.42.72.72,0,0,0,.86-.06,2.45,2.45,0,0,1,1.28.46c-.29.14-.22.69-.72.62,0,0,.11.26.19.38s.27.43.56.3.3-.23.54-.22a1.85,1.85,0,0,1-2,1.4c-.53-.05-.27.47-.43.7s.05.57-.29.67-.47-.25-.68-.43S14.27,68.83,14,68.65Z"/><path class="cls-27" d="M22.65,4.79v1c.49-.09.49-.44.52-.84l.57.84L24,4.94c.5.32.37.74.16,1.07a.58.58,0,0,0-.09.66c.08.21.14.16.26.07a2.28,2.28,0,0,0,.22-.22c.39.41.76-.28,1.18,0,.08,0,.34-.19.58-.34,0,.71-.91,1.1-.59,1.84-.53.26-1,.38-1.44-.23-.28-.42-.7.1-1-.16s-.69-.2-.9.24A11.26,11.26,0,0,1,22.65,4.79Z"/><path class="cls-6" d="M26.31,46.47a2.48,2.48,0,0,1-1.45.11c-.12,0-.27-.15-.22-.28a3.06,3.06,0,0,1,.43-.82c.13-.18.22,0,.33.14.31.35.53.27.62-.19s.23-1,.35-1.52c0,0,.05,0,.07,0l.07,0A15.48,15.48,0,0,0,26.31,46.47Z"/><path class="cls-2" d="M68.6,16.14c.42.71-.09,1-.6,1.28A5,5,0,0,1,68.6,16.14Z"/><path class="cls-10" d="M87.3,42.47c-.2,0-.49.05-.43-.29a.36.36,0,0,1,.49-.27c.4.2-.19.35-.06.57Z"/><path class="cls-12" d="M38.36,20.75c-.24-.07-.52-.12-.62-.4s.12-.22.26-.21a1,1,0,0,1,.71.37C38.78,20.6,38.55,20.74,38.36,20.75Z"/><path class="cls-6" d="M31.44,30.83a.9.9,0,0,1,.49.47c-.35.18.13.39,0,.63C31.52,31.64,31.18,31.37,31.44,30.83Z"/><path class="cls-12" d="M33.8,17.57a.59.59,0,0,1,.29.82c0,.06-.19.12-.25.1s-.06-.26,0-.4A4.45,4.45,0,0,0,33.8,17.57Z"/><path class="cls-13" d="M25.28,55.32c-.23-.18-.56-.31-.65-.61s.21-.34.4-.38.48.13.5.44S25.56,55.2,25.28,55.32Z"/><path class="cls-13" d="M22.15,53.4c-.12-.41.06-.58.45-.67C22.6,53.11,22.34,53.24,22.15,53.4Z"/><path class="cls-9" d="M43.72,53.87a.41.41,0,0,1,.14.33.2.2,0,0,1-.25.21.34.34,0,0,1-.33-.36C43.28,53.91,43.37,53.82,43.72,53.87Z"/><path class="cls-14" d="M37.32,57.47c0,.12,0,.26-.14.25-.3,0-.34-.3-.41-.51s.07-.2.18-.18S37.24,57.3,37.32,57.47Z"/><path class="cls-21" d="M18,81.9c-.22.62-.6.21-.79,0a1.17,1.17,0,0,0-1.22-.2c-.05,0-.11.1-.13.09-.83-.47-1.22.08-1.84.55-.42.31-1.35,0-2.05-.09-.25,0-.58-.67-.79.11-.05.18-1.66-.56-1.74-.86a.71.71,0,0,0-1.1-.38c-.18.1-.15.79-.65.28-.05,0,.15.43,0,.65L6.63,81a3.57,3.57,0,0,0-.28-.27c-.19-.16,0-.73-.57-.52-.08,0-.37-.36-.27-.58s.35-.05.54,0,.26.19.47,0c-.15-.37-.63-.34-.79-.66.16-.39.72-.49.7-1a9.49,9.49,0,0,1,2.07-.77c.18.15.49.19.53.45s-.27.35-.46.47-.34,0-.39.23,0,.28,0,.3.13-.2.2-.17c.28.11.84-.09.56.6.44-.09.12-.34.28-.47s.41.8.67,0c0-.12.21.57.62.36,0,0,.6-.3.65-.34l1-.78c-.31.7-.29,1.06.34,1,0,.35-.08.7-.14,1,0,.09-.13.16-.2.24a.49.49,0,0,0-.17.42c.17-.08.38.15.56-.12s.48-.07.73,0,.46-.23.6-.46.18-.28.37-.21c.37.15.74.37.88-.27,0-.18.33-.16.42-.07.42.47,1,.09,1.43.26s-.07-.54.4-.51.06.7.44.63.71.53,1.2.44c.14,0,.13.14.1.24s-.17.3-.28.23c-1.16-.64-.57.49-.79.79C18,81.59,18,81.76,18,81.9Z"/><path class="cls-22" d="M9,71.89c-.47-.43-.9-.16-1.33.14-.11-.72.64-1.07.59-1.78C8.86,70.67,9.45,71,9,71.89Z"/><path class="cls-22" d="M10.37,69.93a1.38,1.38,0,0,1-.46-1.52l.4-.44c.43.65-.08,1.31.06,2Z"/><path class="cls-27" d="M25.7,8.16c.22-.15.33-.46.65-.52.26.28-.27.77.26,1,.28.1.31-.18.67-.43-.6,1.05,0,1.62.49,2.22,0,.23-.16.41-.35.21C26.94,10.09,26,9.91,26,9,26.06,8.61,25.21,8.67,25.7,8.16Z"/><path class="cls-19" d="M18.19,68.17c0,.13,0,.35-.06.38a1.61,1.61,0,0,0-1,.93c-.05.14-.77,0-1-.33s.09-.33.3-.27.59.19.62-.09c.07-.91.72-.54,1.17-.62Z"/><path class="cls-14" d="M42.9,65.47c-.06.16-.15.28-.34.25s-.2-.11-.16-.22.18-.33.4-.29S42.93,65.36,42.9,65.47Z"/></g></g></g></g></svg>