<svg xmlns="http://www.w3.org/2000/svg" viewBox="0 0 337.2 23.04"><defs><style>.cls-1{fill:#282828;}</style></defs><g id="Capa_2" data-name="Capa 2"><g id="Capa_1-2" data-name="Capa 1"><path class="cls-1" d="M2.62,20.35V22.6H0v-.32H.6A1.85,1.85,0,0,0,2,21.71a1.85,1.85,0,0,0,.57-1.36ZM2.56,0,4,1.77,4,22.6H2.53V4A33.76,33.76,0,0,0,2.24,0Zm0,0L20.92,19.6,21.21,23,2.84,3.48ZM4,20.35a1.95,1.95,0,0,0,1.93,1.93h.6v.32H3.89V20.35ZM17.23.47h2.62V2.72h-.06a2,2,0,0,0-.59-1.38A1.9,1.9,0,0,0,17.83.79h-.6Zm4,0V19c0,.67,0,1.32.06,1.94s.12,1.32.22,2.1h-.28l-1.42-1.67V.47Zm2.53,0V.79h-.57a1.91,1.91,0,0,0-1.36.55,2,2,0,0,0-.6,1.38h-.1V.47Z"/><path class="cls-1" d="M38,3.63V5.31H37.9a1.37,1.37,0,0,0-.46-1A1.49,1.49,0,0,0,36.38,4h-.47V3.63Zm2,0v12a7.06,7.06,0,0,0,1.56,4.84,5.44,5.44,0,0,0,4.29,1.77,6.47,6.47,0,0,0,4.72-1.68,6.07,6.07,0,0,0,1.72-4.58V3.63h1.46v12.3a6.69,6.69,0,0,1-2.1,5.2A8.3,8.3,0,0,1,45.8,23,8.33,8.33,0,0,1,40,21.14,6.57,6.57,0,0,1,37.9,16V3.63Zm2,0V4h-.47a1.54,1.54,0,0,0-1.06.4,1.2,1.2,0,0,0-.46,1h-.06V3.63Zm10.37,0V5.31h-.07a1.21,1.21,0,0,0-.44-1A1.51,1.51,0,0,0,50.7,4h-.48V3.63Zm3.38,0V4h-.48a1.49,1.49,0,0,0-1,.4,1.35,1.35,0,0,0-.47,1H53.6V3.63Z"/><path class="cls-1" d="M70.32,5.63h-.06a1.65,1.65,0,0,0-.54-1.2A1.79,1.79,0,0,0,68.43,4H68V3.63h2.75Zm0,15,.41,2H68v-.32h.45a1.78,1.78,0,0,0,1.83-1.7Zm2-16.95v19h-2v-19Zm8.47,0v1H72.22v-1Zm-1.45,9v.95H72.22v-.95Zm1.49,9-.07,1h-8.5v-1Zm1.76-3.54L80.82,22.6H76l1.08-1a5.89,5.89,0,0,0,2.54-.46A4.24,4.24,0,0,0,81.2,19.9a9.7,9.7,0,0,0,1-1.82ZM80.75,3.13V4l-3.6-.32a13.05,13.05,0,0,0,2.09-.17A7.74,7.74,0,0,0,80.75,3.13ZM79.3,10.9v1.81H77.66v-.07a1.2,1.2,0,0,0,1-.39,1.47,1.47,0,0,0,.31-.93V10.9Zm0,2.63v1.8H79v-.41a1.43,1.43,0,0,0-.31-.93,1.18,1.18,0,0,0-1-.4v-.06Zm1.45-9V6.7h-.34V6.23A1.66,1.66,0,0,0,80,5.09a1.47,1.47,0,0,0-1.15-.47v-.1Z"/><path class="cls-1" d="M100.38,3.19a14.09,14.09,0,0,1,1.55.07c.44,0,.83.09,1.15.14a5.54,5.54,0,0,1,.86.19l.64.2,0,3.13h-.38a2.54,2.54,0,0,0-.89-2A5,5,0,0,0,97.9,5a2.52,2.52,0,0,0-1.09,2.13,3.46,3.46,0,0,0,.11.84,2.73,2.73,0,0,0,.38.84,4.22,4.22,0,0,0,.74.82l6.39,4.93a3.57,3.57,0,0,1,1.07,1.53,5.93,5.93,0,0,1,.38,1.85,4.39,4.39,0,0,1-.73,2.56,5.33,5.33,0,0,1-2,1.85,6,6,0,0,1-2.83.68,12.85,12.85,0,0,1-2-.16,9.79,9.79,0,0,1-2-.49,5,5,0,0,1-1.52-.83,5.08,5.08,0,0,1-.1-1.13A10.4,10.4,0,0,1,94.83,19a10.29,10.29,0,0,1,.3-1.36h.38a4.39,4.39,0,0,0,.41,2.43A3.49,3.49,0,0,0,97.5,21.6a5.13,5.13,0,0,0,2.44.49,4.93,4.93,0,0,0,3.08-1,3.06,3.06,0,0,0,1.12-2.48A3.16,3.16,0,0,0,103,16.09l-6.32-4.87a3.9,3.9,0,0,1-1.2-1.67,5.38,5.38,0,0,1-.31-1.74,4.12,4.12,0,0,1,.69-2.34,5,5,0,0,1,1.88-1.66A5.65,5.65,0,0,1,100.38,3.19Zm4.17.29,0,.57h-2.24V3.48Z"/><path class="cls-1" d="M117.54,3.1a8.81,8.81,0,0,0,.87.22c.39.08.83.15,1.31.2a11.08,11.08,0,0,0,1.36.08l-3.54.32Zm17.35.5v.95H117.54V3.6Zm-15.42.89v.06a1.61,1.61,0,0,0-1.15.49,1.57,1.57,0,0,0-.43,1.12v.51h-.35V4.49Zm5.78,16.09v2H123v-.32h.38a1.85,1.85,0,0,0,1.29-.5,1.71,1.71,0,0,0,.57-1.2Zm2-16.85V22.6h-2.06V3.73Zm-.1,16.85h.1a1.74,1.74,0,0,0,.56,1.2,1.85,1.85,0,0,0,1.3.5h.35v.32h-2.31ZM134.89,3.1v.82l-3.54-.32a10.71,10.71,0,0,0,1.35-.08c.47,0,.91-.12,1.31-.2A7.82,7.82,0,0,0,134.89,3.1Zm0,1.39V6.67h-.34V6.16A1.57,1.57,0,0,0,133,4.55V4.49Z"/><path class="cls-1" d="M148.86,5.63h-.06a1.65,1.65,0,0,0-.54-1.2A1.75,1.75,0,0,0,147,4h-.44V3.63h2.68Zm0,15,.38,2h-2.68v-.32H147a1.73,1.73,0,0,0,1.26-.5,1.76,1.76,0,0,0,.54-1.2Zm1.93-16.95v19h-2v-19Zm-.09,17h.09a1.78,1.78,0,0,0,1.8,1.7H153l0,.32h-2.72Zm3.79-16.95a9.54,9.54,0,0,1,2.67.35,5.9,5.9,0,0,1,2,1,4.37,4.37,0,0,1,1.28,1.62,5,5,0,0,1,.45,2.15,4.91,4.91,0,0,1-.64,2.46,5.11,5.11,0,0,1-1.75,1.86A5.68,5.68,0,0,1,156,14a4,4,0,0,1,1.24,1,12.92,12.92,0,0,1,1.22,1.49c.55.73,1,1.37,1.47,1.91s.86,1,1.28,1.53.85.91,1.22,1.26a4.35,4.35,0,0,0,1.2.84,3.52,3.52,0,0,0,1.5.3v.32h-1a8,8,0,0,1-2.86-.44,5.9,5.9,0,0,1-1.82-1.09,17,17,0,0,1-1.2-1.25c-.08-.11-.28-.38-.58-.81l-1-1.4c-.36-.51-.68-1-1-1.38s-.47-.66-.54-.74A8.07,8.07,0,0,0,153.7,14a2.79,2.79,0,0,0-1.74-.65v-.32a17.93,17.93,0,0,0,1.8,0,17.58,17.58,0,0,0,1.77-.14,3.44,3.44,0,0,0,1.66-.68,3.75,3.75,0,0,0,1.22-1.89,4.25,4.25,0,0,0,.19-.83,5.27,5.27,0,0,0,0-1A4.36,4.36,0,0,0,158.3,7a3.64,3.64,0,0,0-.85-1.2A4.14,4.14,0,0,0,156.13,5a5.25,5.25,0,0,0-1.7-.31c-1-.05-1.86-.06-2.6,0a7.6,7.6,0,0,1-1.1,0,1.69,1.69,0,0,0-.08-.27q-.08-.24-.24-.72Z"/><path class="cls-1" d="M178.64,20.29a1.41,1.41,0,0,0,.09,1.47,1.3,1.3,0,0,0,1,.52H180v.32h-6v-.32h.25a2.44,2.44,0,0,0,1.36-.46,3.6,3.6,0,0,0,1.2-1.53Zm6.1-17.1L185,5.37,177.72,22.5h-2l7.49-16c.23-.51.43-1,.58-1.31s.3-.74.43-1.09a3.72,3.72,0,0,0,.22-.86Zm3.73,12v.95h-8.38v-.95Zm-3.73-12,8.69,19.22h-2.5L184.2,6Zm5.34,17.1h2.4a3.41,3.41,0,0,0,1.17,1.53,2.4,2.4,0,0,0,1.33.46h.25v.32h-6.48v-.32H189a1.26,1.26,0,0,0,1-.52A1.41,1.41,0,0,0,190.08,20.29Z"/><path class="cls-1" d="M226.05,5.66H226a1.65,1.65,0,0,0-.55-1.23A1.92,1.92,0,0,0,224.05,4h-.37V3.63h2.37Zm0,14.92v2h-2.37v-.32h.37a1.89,1.89,0,0,0,1.35-.5,1.72,1.72,0,0,0,.55-1.2Zm1.89-16.95v19h-2v-19Zm2.18,0a15.38,15.38,0,0,1,2,.16,7.79,7.79,0,0,1,2.16.64A4.28,4.28,0,0,1,236,5.85a4.13,4.13,0,0,1,.7,2.53,3.31,3.31,0,0,1-.51,1.77,4.81,4.81,0,0,1-1.29,1.37,4.91,4.91,0,0,1-1.68.77,6.7,6.7,0,0,1,2.74.87A5.64,5.64,0,0,1,237.83,15a4.19,4.19,0,0,1,.7,2.34,4.53,4.53,0,0,1-2.34,4.2,7.57,7.57,0,0,1-2.27.86,12.73,12.73,0,0,1-2.41.25h-3.85c0-.32,0-.63,0-1h3.79a6.15,6.15,0,0,0,2.45-.46,3.62,3.62,0,0,0,1.72-1.44,4.37,4.37,0,0,0,.64-2.46,4.08,4.08,0,0,0-.67-2.45,4.18,4.18,0,0,0-1.74-1.42,8.27,8.27,0,0,0-2.37-.67,20.36,20.36,0,0,0-2.59-.17v-.32a15.31,15.31,0,0,0,1.84-.12,6.31,6.31,0,0,0,1.81-.52A3.55,3.55,0,0,0,234,10.45a3.57,3.57,0,0,0,.54-2.07,3.46,3.46,0,0,0-1.17-2.9,5.19,5.19,0,0,0-3.23-.9h-3.44a2.73,2.73,0,0,0-.08-.27c-.06-.15-.12-.38-.21-.68Z"/><path class="cls-1" d="M261.82,3.19A12.12,12.12,0,0,1,266,3.9a10.46,10.46,0,0,1,3.41,2,9.39,9.39,0,0,1,2.29,3.15,9.62,9.62,0,0,1,.83,4,9.65,9.65,0,0,1-.83,4,9.26,9.26,0,0,1-2.29,3.14,10.13,10.13,0,0,1-3.41,2,12.12,12.12,0,0,1-4.16.71,12,12,0,0,1-4.14-.71,10.14,10.14,0,0,1-3.39-2,9.42,9.42,0,0,1-2.3-3.14,9.81,9.81,0,0,1-.82-4,9.77,9.77,0,0,1,.82-4,9.56,9.56,0,0,1,2.3-3.15,10.48,10.48,0,0,1,3.39-2A12,12,0,0,1,261.82,3.19Zm0,18.9a8,8,0,0,0,7.24-4.3,9.51,9.51,0,0,0,1.11-4.67,9.58,9.58,0,0,0-1.11-4.7,8.31,8.31,0,0,0-3-3.14,8.09,8.09,0,0,0-4.24-1.14,8,8,0,0,0-4.2,1.14,8.24,8.24,0,0,0-3,3.14,9.58,9.58,0,0,0-1.11,4.7,9.51,9.51,0,0,0,1.11,4.67,8.18,8.18,0,0,0,3,3.17A8.09,8.09,0,0,0,261.82,22.09Z"/><path class="cls-1" d="M287.08,5.69H287a1.73,1.73,0,0,0-.55-1.25A1.78,1.78,0,0,0,285.18,4h-.38V3.63h2.28Zm0,14.85V22.6H284.8v-.32h.41a1.69,1.69,0,0,0,1.27-.52,1.84,1.84,0,0,0,.53-1.22Zm2-16.91v19H287v-19Zm6.29,0a11.92,11.92,0,0,1,5.4,1.14A8.17,8.17,0,0,1,304.27,8a10,10,0,0,1,1.23,5.08,9.87,9.87,0,0,1-1.23,5.05,8.25,8.25,0,0,1-3.51,3.28,11.91,11.91,0,0,1-5.4,1.15h-6.74l-.06-1h6.8a7.42,7.42,0,0,0,5.76-2.29,8.85,8.85,0,0,0,2.11-6.24,8.82,8.82,0,0,0-2.11-6.24,7.42,7.42,0,0,0-5.76-2.3h-7.11v-1Z"/><path class="cls-1" d="M320.61,20.29a1.41,1.41,0,0,0,.1,1.47,1.28,1.28,0,0,0,1,.52H322v.32h-6v-.32h.26a2.41,2.41,0,0,0,1.35-.46,3.54,3.54,0,0,0,1.21-1.53Zm6.1-17.1.22,2.18L319.69,22.5h-2l7.49-16,.59-1.31c.16-.37.3-.74.43-1.09a4.32,4.32,0,0,0,.22-.86Zm3.73,12v.95h-8.38v-.95Zm-3.73-12,8.69,19.22h-2.49L326.17,6Zm5.34,17.1h2.4a3.41,3.41,0,0,0,1.17,1.53,2.42,2.42,0,0,0,1.33.46h.25v.32h-6.48v-.32H331a1.29,1.29,0,0,0,1-.52A1.43,1.43,0,0,0,332.05,20.29Z"/></g></g></svg>