<svg xmlns="http://www.w3.org/2000/svg" viewBox="0 0 294.73 75.68"><defs><style>.cls-1{fill:#ecdac0;}.cls-2{fill:#1d1d1b;}</style></defs><g id="Capa_2" data-name="Capa 2"><g id="Capa_1-2" data-name="Capa 1"><path class="cls-1" d="M10.21,49.93a14.33,14.33,0,0,1,11-12.75,3.86,3.86,0,0,1,3.1.34c1.31,1,1.18,2.93.81,4.51A39.43,39.43,0,0,1,9.41,65.14"/><path class="cls-1" d="M10.25,50.94a13.46,13.46,0,0,0-2-8.87c-1.54-2.36-5-4.23-7-2.31C-.08,40.93-.09,42.9.08,44.61c.75,7.53,2.18,13.5,9.33,20.53"/><path class="cls-2" d="M87,61.71a7.8,7.8,0,0,1-4.9-1.43,9,9,0,0,1-2.81-3.78A20.07,20.07,0,0,1,78,51.15q-.35-3-.45-6.08t-.14-6a33,33,0,0,0-.42-5.21,8.54,8.54,0,0,0-1.32-3.58,2.79,2.79,0,0,0-2.81-1.11c-.33.56-.8,1.44-1.43,2.64s-1.34,2.55-2.15,4-1.66,3.06-2.54,4.73S65,43.77,64.16,45.28L62,49.34c-.65,1.21-1.14,2.09-1.46,2.64a8.31,8.31,0,0,0-.76,1.46,2.52,2.52,0,0,1-.46.83,1,1,0,0,1-.59.35,5.91,5.91,0,0,1-1.11.07,3.16,3.16,0,0,1-1.91-.42c-.35-.27-.52-.87-.52-1.8a56.12,56.12,0,0,1,3.13-8.65q1.93-4.27,4.3-8.51t5-8.45q2.64-4.2,5.21-8.3,1.66-2.43,3.82-5.63a50.51,50.51,0,0,1,4.83-6.08A29.36,29.36,0,0,1,87.26,2,12.38,12.38,0,0,1,94,0a5.36,5.36,0,0,1,2.36.38,5.2,5.2,0,0,1,1.91,1.32,4.73,4.73,0,0,1,1.12,2.05,5.54,5.54,0,0,1,0,2.5A15.16,15.16,0,0,1,98,12.65a27.66,27.66,0,0,1-3.47,5.7A39.18,39.18,0,0,1,90,23.18q-2.43,2.19-4.52,3.75C84.13,28,83,28.8,82.05,29.4a10.13,10.13,0,0,0-1.39,1q0,.84,0,3.09c0,1.51.1,3.24.21,5.18s.28,4,.49,6.15a57.26,57.26,0,0,0,.9,6.05,23,23,0,0,0,1.5,4.79A4.33,4.33,0,0,0,86,58.1c.14,0,.46.11,1,.21l1.64.27c.57.1,1.13.18,1.66.25a7.15,7.15,0,0,1,1,.17,2.76,2.76,0,0,1,.49.42,2.31,2.31,0,0,1,.41.48,10.08,10.08,0,0,1-1.39,1,8.73,8.73,0,0,1-1.18.55,3.81,3.81,0,0,1-1.18.24C88,61.7,87.54,61.71,87,61.71ZM75.38,23.15a2.61,2.61,0,0,0,.35,1.49,1.81,1.81,0,0,0,.93.73,4.65,4.65,0,0,0,1.36.24c.51,0,1.06,0,1.67,0a9.4,9.4,0,0,0,5.45-1.95,22.86,22.86,0,0,0,4.93-4.76,26.74,26.74,0,0,0,3.55-6A14.69,14.69,0,0,0,95,7.3c0-.46,0-.91,0-1.35a3.72,3.72,0,0,0-.14-1.22,1.87,1.87,0,0,0-.59-.9A1.94,1.94,0,0,0,93,3.48a7.36,7.36,0,0,0-3.51,1.05,21.54,21.54,0,0,0-3.86,2.74,37.46,37.46,0,0,0-3.78,3.86,44,44,0,0,0-3.3,4.34,26.37,26.37,0,0,0-2.33,4.2A9.06,9.06,0,0,0,75.38,23.15Z"/><path class="cls-2" d="M95.18,50.94a10.69,10.69,0,0,1-.87-6.64,15,15,0,0,1,2.54-5.83,18,18,0,0,1,4.45-4.38,15.52,15.52,0,0,1,4.83-2.36,4.81,4.81,0,0,1,3.75.28c1,.58,1.37,1.74,1.14,3.5a6.82,6.82,0,0,1-1.66,4.59,26.28,26.28,0,0,1-3.65,3.51q-2,1.56-3.65,2.81c-1.11.84-1.67,1.63-1.67,2.37,0,.37.25.67.73.9a6.55,6.55,0,0,0,1.67.52,15.1,15.1,0,0,0,1.88.24c.62,0,1.07.1,1.35.14,4.26-.88,7.45-1.42,9.55-1.63a10.92,10.92,0,0,1,4,0c.56.24.45.63-.31,1.19a14.52,14.52,0,0,1-3.44,1.66,40.53,40.53,0,0,1-5.35,1.5,34.4,34.4,0,0,1-6,.76,18.19,18.19,0,0,1-5.49-.59A6.38,6.38,0,0,1,95.18,50.94Zm11.88-15.43a5,5,0,0,0-2.6.73,9.37,9.37,0,0,0-2.19,1.85,12.33,12.33,0,0,0-1.67,2.43,13.75,13.75,0,0,0-1,2.5.46.46,0,0,0,.21.07H100a4.13,4.13,0,0,0,2.18-.8,12.84,12.84,0,0,0,2.33-2,12.27,12.27,0,0,0,1.84-2.5A4.9,4.9,0,0,0,107.06,35.51Z"/><path class="cls-2" d="M130.93,31.83A26.11,26.11,0,0,0,127,36.07a28.51,28.51,0,0,0-3.16,5.35,13,13,0,0,0-1.28,5.35,3.14,3.14,0,0,0,1,2.75,5.08,5.08,0,0,0,2.92.72,16.51,16.51,0,0,0,4-.48c1.29-.33,2.58-.68,3.85-1.08s2.56-.75,3.86-1.08a16.51,16.51,0,0,1,4-.48,4.57,4.57,0,0,1-.24,1.56,6,6,0,0,1-.8,1.43c-2.36,1.11-4.8,2.13-7.3,3A22.12,22.12,0,0,1,126,54.55a8.39,8.39,0,0,1-2.57-.45,9.19,9.19,0,0,1-2.54-1.28,8,8,0,0,1-1.91-2,4.48,4.48,0,0,1-.76-2.54,20.43,20.43,0,0,1,.87-5.94,23.1,23.1,0,0,1,2.46-5.46,27.63,27.63,0,0,1,3.76-4.76,24.4,24.4,0,0,1,4.79-3.78v-.07a25.06,25.06,0,0,1,2.33-1.22,7,7,0,0,1,2.43-.66,2.82,2.82,0,0,1,2,.56,3,3,0,0,1,.8,2.43c0,.28,0,.6,0,1s-.06.76-.1,1.15a4.08,4.08,0,0,1-.28,1.08,2.32,2.32,0,0,1-.49.76,2.29,2.29,0,0,1-.66.35c-.25.09-.5.18-.73.28a5,5,0,0,1-.83.2v-4.3A7.55,7.55,0,0,0,130.93,31.83Z"/><path class="cls-2" d="M142.08,50.94a10.69,10.69,0,0,1-.87-6.64,15,15,0,0,1,2.54-5.83,18,18,0,0,1,4.45-4.38A15.59,15.59,0,0,1,153,31.73a4.83,4.83,0,0,1,3.76.28c1,.58,1.37,1.74,1.14,3.5a6.82,6.82,0,0,1-1.66,4.59,26.28,26.28,0,0,1-3.65,3.51q-2,1.56-3.65,2.81c-1.11.84-1.67,1.63-1.67,2.37,0,.37.25.67.73.9a6.55,6.55,0,0,0,1.67.52,15,15,0,0,0,1.87.24c.63,0,1.08.1,1.36.14,4.26-.88,7.45-1.42,9.55-1.63a10.92,10.92,0,0,1,4,0c.55.24.45.63-.31,1.19a14.52,14.52,0,0,1-3.44,1.66,41,41,0,0,1-5.35,1.5,34.4,34.4,0,0,1-6.05.76,18.19,18.19,0,0,1-5.49-.59A6.35,6.35,0,0,1,142.08,50.94ZM154,35.51a5,5,0,0,0-2.6.73,9.37,9.37,0,0,0-2.19,1.85,12.33,12.33,0,0,0-1.67,2.43,13.75,13.75,0,0,0-1,2.5.46.46,0,0,0,.21.07h.21a4.13,4.13,0,0,0,2.18-.8,12.84,12.84,0,0,0,2.33-2,12.27,12.27,0,0,0,1.84-2.5A4.9,4.9,0,0,0,154,35.51Z"/><path class="cls-2" d="M156.67,73.45a1,1,0,0,1,0-.24,1.84,1.84,0,0,0,0-.24q.07-.21.18-.6a5.69,5.69,0,0,1,.27-.79,7.46,7.46,0,0,0,.28-.77,4.48,4.48,0,0,1,.17-.48c.28-.65.75-1.67,1.39-3.06l2.19-4.69,2.54-5.46c.88-1.9,1.72-3.71,2.54-5.45s1.53-3.3,2.18-4.69,1.14-2.41,1.46-3.06a28.74,28.74,0,0,1,2.5-3.33q1.6-1.87,3.58-3.83c1.32-1.29,2.72-2.58,4.21-3.85a43.36,43.36,0,0,1,4.44-3.37A29.11,29.11,0,0,1,189,27.18a9.64,9.64,0,0,1,3.75-.91,5.48,5.48,0,0,1,3.48.87c.69.58,1,1.77,1,3.58a16,16,0,0,1-1.11,5.8,23.25,23.25,0,0,1-3,5.46,28.12,28.12,0,0,1-4.45,4.69,25.35,25.35,0,0,1-5.39,3.47A22.8,22.8,0,0,1,177.45,52a13.79,13.79,0,0,1-5.77-.18l-.83.91L162,74.7a1.33,1.33,0,0,1-1.18.8,9,9,0,0,1-1.53.18,3.09,3.09,0,0,1-1.77-.6A1.85,1.85,0,0,1,156.67,73.45Zm31.76-33a25.89,25.89,0,0,0,4.09-5.39c.65-1.32.8-2.26.46-2.81s-1.08-.77-2.19-.63a12.57,12.57,0,0,0-3.69,1.15A24.73,24.73,0,0,0,183,35.24a14.86,14.86,0,0,0-3.41,3.4c-.42.46-.93,1.08-1.53,1.84s-1.18,1.52-1.73,2.26-1,1.4-1.43,2a4.31,4.31,0,0,0-.59,1v1.46a20,20,0,0,0,8-1.43A15.49,15.49,0,0,0,188.43,40.45Z"/><path class="cls-2" d="M212.57,31.83a26.11,26.11,0,0,0-3.93,4.24,28.51,28.51,0,0,0-3.16,5.35,13.15,13.15,0,0,0-1.28,5.35,3.17,3.17,0,0,0,1,2.75,5.08,5.08,0,0,0,2.92.72,16.51,16.51,0,0,0,4-.48c1.3-.33,2.58-.68,3.86-1.08s2.55-.75,3.85-1.08a16.51,16.51,0,0,1,4-.48,4.57,4.57,0,0,1-.24,1.56,6,6,0,0,1-.8,1.43q-3.54,1.66-7.3,3a22.12,22.12,0,0,1-7.78,1.39,8.39,8.39,0,0,1-2.57-.45,9.19,9.19,0,0,1-2.54-1.28,8,8,0,0,1-1.91-2,4.48,4.48,0,0,1-.76-2.54,20.43,20.43,0,0,1,.87-5.94,22.73,22.73,0,0,1,2.47-5.46A27.09,27.09,0,0,1,207,32.14a24.4,24.4,0,0,1,4.79-3.78v-.07a25.06,25.06,0,0,1,2.33-1.22,7,7,0,0,1,2.43-.66,2.81,2.81,0,0,1,1.95.56,3,3,0,0,1,.8,2.43c0,.28,0,.6,0,1s-.06.76-.1,1.15a4.08,4.08,0,0,1-.28,1.08,2.32,2.32,0,0,1-.49.76,2.29,2.29,0,0,1-.66.35c-.25.09-.5.18-.73.28a5,5,0,0,1-.83.2v-4.3A7.55,7.55,0,0,0,212.57,31.83Z"/><path class="cls-2" d="M223,50.11a6.25,6.25,0,0,1,.21-1.71,11.5,11.5,0,0,1,.76-1.84c.32-.46.89-1.32,1.7-2.57s1.69-2.58,2.64-4L231,36l1.74-2.64q.56-.84.9-.9a7.63,7.63,0,0,1,1.32-.07,12.43,12.43,0,0,1,1.28.07,1,1,0,0,1,.94.9,17.84,17.84,0,0,1-2.5,4.38l-3.16,4.1A28.55,28.55,0,0,0,228.76,46a9.64,9.64,0,0,0-1.15,4.58c.19,0,.48,0,.87.07l1.25.14,1.25.14a2.45,2.45,0,0,0,.87,0l1.39-.28,2.12-.48c.77-.19,1.47-.37,2.12-.56s1.11-.32,1.39-.42q0,.15,0,.45a3.38,3.38,0,0,1,0,.46,2.57,2.57,0,0,1-1.25,2.22,11.07,11.07,0,0,1-2.92,1.35,17.26,17.26,0,0,1-3.4.7c-1.16.11-2,.17-2.64.17a9.31,9.31,0,0,1-2.09-.24,5.85,5.85,0,0,1-1.84-.76,4.29,4.29,0,0,1-1.32-1.39A3.91,3.91,0,0,1,223,50.11Zm19.73-39.82c.56,0,1.09,0,1.6.07a4.78,4.78,0,0,1,1.35.31,1.83,1.83,0,0,1,.91.8,3.15,3.15,0,0,1,.31,1.53v.91a3.71,3.71,0,0,1-.1.9,1.67,1.67,0,0,1-.39.73,1.13,1.13,0,0,1-.9.31,1.86,1.86,0,0,1-1.53-.69,4.78,4.78,0,0,1-.83-1.6,8.3,8.3,0,0,1-.35-1.84C242.71,11.09,242.69,10.62,242.69,10.29Z"/><path class="cls-2" d="M239.91,48.79c0-.19,0-.56,0-1.12s0-.92,0-1.11a41.28,41.28,0,0,1,5.59-9.17,47.78,47.78,0,0,1,7.61-7.5,3,3,0,0,0,.45-.07,2.12,2.12,0,0,1,.46-.07,5.13,5.13,0,0,1,3,.8,6.22,6.22,0,0,1,1.91,2,7.94,7.94,0,0,1,1,2.75,16.22,16.22,0,0,1,.28,3A13.92,13.92,0,0,1,259,43.82a21.28,21.28,0,0,1-3.3,5.28A17.85,17.85,0,0,1,251,53a10.8,10.8,0,0,1-5.49,1.53A5.41,5.41,0,0,1,241.27,53,6.11,6.11,0,0,1,239.91,48.79Zm5.28-.84a1,1,0,0,0,.59,1,2.79,2.79,0,0,0,1.22.28,6.55,6.55,0,0,0,3.26-.9,11.22,11.22,0,0,0,2.85-2.29,11.74,11.74,0,0,0,2-3.1,8,8,0,0,0,.76-3.3c0-.51,0-1.06-.07-1.66a4,4,0,0,0-.45-1.64,2.59,2.59,0,0,0-1.11-1.11,2.92,2.92,0,0,0-2-.1,4.38,4.38,0,0,0-2.19,1.77,24.63,24.63,0,0,0-2.29,3.61A34.24,34.24,0,0,0,246,44.69,10.25,10.25,0,0,0,245.19,48Zm11.33-32.79c.74,0,1.07.41,1,1.11a6.76,6.76,0,0,1-.93,2.53,22.69,22.69,0,0,1-2.16,3.13,25.89,25.89,0,0,1-2.6,2.81,10.3,10.3,0,0,1-2.26,1.67c-.65.33-1,.21-1.11-.35a22,22,0,0,1,1.21-2.32c.63-1.09,1.35-2.21,2.16-3.37a38.74,38.74,0,0,1,2.5-3.23A8.47,8.47,0,0,1,256.52,15.16Z"/><path class="cls-2" d="M263.6,51.43v-.91a2.08,2.08,0,0,1,.11-.66,3.23,3.23,0,0,1,.31-.66c.14-.23.32-.53.56-.9s.62-1.07,1.18-1.95,1.18-1.86,1.87-3,1.43-2.23,2.19-3.44L272,36.52l1.88-3c.55-.88,1-1.53,1.25-1.95a.66.66,0,0,1,.38-.07h.94a.74.74,0,0,1,.41.07l.32.35.52.59c.18.21.36.4.52.56a.67.67,0,0,0,.38.24,2.4,2.4,0,0,0,1.29-.42c.44-.27.9-.57,1.39-.9a17.33,17.33,0,0,1,1.49-.9,3.15,3.15,0,0,1,1.53-.42,3.64,3.64,0,0,1,2.95,1.39A4.51,4.51,0,0,1,288.41,35,9.72,9.72,0,0,1,288,38c-.3,1-.63,1.89-1,2.82s-.67,1.85-1,2.77a9.44,9.44,0,0,0-.45,2.92,4.8,4.8,0,0,0,.35,2.12c.23.44.85.66,1.87.66a10.93,10.93,0,0,0,3.48-.55,10.92,10.92,0,0,1,3.47-.56,4,4,0,0,1-1,2.75,7,7,0,0,1-2.43,1.7,13.27,13.27,0,0,1-3.13.87,21.57,21.57,0,0,1-3.06.24,4.52,4.52,0,0,1-3.78-1.46,6.09,6.09,0,0,1-1.15-3.89,7.85,7.85,0,0,1,.59-3c.39-1,.82-1.88,1.29-2.78s.89-1.82,1.28-2.75A7.43,7.43,0,0,0,284,36.9a7,7,0,0,0-.1-1.07.76.76,0,0,0-.87-.66,6.43,6.43,0,0,0-4.1,1.42,15,15,0,0,0-3.23,3.58A39.5,39.5,0,0,0,273,44.86q-1.22,2.53-2.22,4.69a26.26,26.26,0,0,1-2,3.58,2.61,2.61,0,0,1-2,1.42,3.1,3.1,0,0,1-2.29-.9A3,3,0,0,1,263.6,51.43Z"/></g></g></svg>