<?xml version="1.0" standalone="no"?>
<!DOCTYPE svg PUBLIC "-//W3C//DTD SVG 20010904//EN"
 "http://www.w3.org/TR/2001/REC-SVG-20010904/DTD/svg10.dtd">
<svg version="1.0" xmlns="http://www.w3.org/2000/svg"
 width="1024.000000pt" height="1024.000000pt" viewBox="0 0 1024.000000 1024.000000"
 preserveAspectRatio="xMidYMid meet">

<g transform="translate(0.000000,1024.000000) scale(0.100000,-0.100000)"
fill="#000000" stroke="none">
<path d="M3525 8169 c-215 -31 -383 -175 -455 -389 -31 -93 -40 -158 -40 -305
-1 -118 2 -141 34 -252 55 -197 161 -372 315 -521 118 -115 284 -235 391 -284
19 -9 66 -30 104 -48 38 -17 67 -32 65 -33 -2 -1 -80 0 -174 3 -93 3 -379 5
-635 5 -508 0 -500 1 -544 -58 -20 -28 -21 -40 -24 -435 -1 -224 1 -459 4
-522 6 -112 7 -115 39 -147 32 -32 35 -33 120 -33 79 0 86 -2 80 -17 -5 -10
-8 -25 -8 -33 1 -8 3 -144 6 -302 3 -158 8 -292 12 -298 3 -5 3 -10 -2 -10 -9
0 -7 -2135 3 -2246 4 -59 10 -77 35 -107 18 -22 45 -40 67 -47 55 -15 4327
-14 4373 1 40 14 84 52 107 94 15 27 17 115 19 964 2 729 0 938 -10 950 -10
12 -9 13 1 7 10 -6 12 55 12 311 0 175 0 416 0 536 l0 217 76 0 c83 0 132 20
157 63 9 17 13 146 15 513 3 484 3 492 -18 527 -13 22 -38 44 -65 57 -41 20
-57 21 -391 20 -832 -2 -903 0 -864 17 273 123 432 230 570 384 270 302 368
654 274 989 -60 213 -219 371 -424 420 -73 18 -243 19 -300 1 -121 -36 -202
-68 -270 -109 -248 -145 -470 -378 -627 -657 -85 -152 -139 -266 -168 -355
-48 -148 -44 -141 -65 -120 -20 20 -106 72 -130 78 -8 3 -46 5 -85 5 -70 1
-140 -23 -201 -68 -21 -15 -22 -14 -59 87 -39 104 -96 220 -167 336 -21 34
-38 64 -38 67 0 7 -111 168 -148 215 -233 291 -506 482 -752 526 -84 15 -128
16 -215 3z m185 -109 c0 -5 -5 -10 -11 -10 -5 0 -7 5 -4 10 3 6 8 10 11 10 2
0 4 -4 4 -10z m3080 -20 c0 -5 -2 -10 -4 -10 -3 0 -8 5 -11 10 -3 6 -1 10 4
10 6 0 11 -4 11 -10z m-470 -17 c0 -10 -4 -14 -8 -8 -4 6 -11 13 -16 18 -5 4
-2 7 7 7 10 0 17 -8 17 -17z m-120 -63 c0 -5 -5 -10 -11 -10 -5 0 -7 5 -4 10
3 6 8 10 11 10 2 0 4 -4 4 -10z m-2495 -21 c208 -39 408 -179 620 -434 105
-126 167 -226 278 -450 92 -187 124 -306 118 -445 l-1 -35 -158 160 c-255 258
-461 412 -538 403 -38 -4 -69 -48 -60 -85 10 -36 158 -181 356 -348 85 -71
202 -170 261 -220 58 -49 117 -99 130 -110 l24 -20 -28 -3 c-34 -4 -308 42
-407 69 -179 48 -461 173 -557 246 -21 16 -64 49 -96 73 -169 126 -316 355
-377 585 -19 76 -29 259 -16 321 20 97 50 156 111 216 45 44 92 68 165 83 59
13 83 12 175 -6z m3067 -11 c164 -76 245 -279 208 -518 -42 -265 -207 -524
-450 -704 -250 -185 -507 -279 -950 -350 -19 -3 -50 -8 -68 -11 -42 -7 -35 8
25 56 55 43 365 297 452 369 123 102 243 224 263 267 19 40 19 45 4 68 -27 41
-60 42 -135 5 -118 -58 -374 -272 -534 -448 -87 -96 -99 -105 -107 -92 -8 13
15 168 35 238 98 342 388 778 647 974 169 128 303 178 463 175 74 -2 100 -7
147 -29z m168 -8 c0 -11 -5 -20 -11 -20 -6 0 -8 7 -5 16 4 12 2 15 -9 10 -8
-3 -15 -1 -15 4 0 6 9 10 20 10 13 0 20 -7 20 -20z m50 16 c0 -3 -4 -8 -10
-11 -5 -3 -10 -1 -10 4 0 6 5 11 10 11 6 0 10 -2 10 -4z m-3843 -192 c-3 -3
-12 -4 -19 -1 -8 3 -5 6 6 6 11 1 17 -2 13 -5z m3963 -34 c0 -5 -2 -10 -4 -10
-3 0 -8 5 -11 10 -3 6 -1 10 4 10 6 0 11 -4 11 -10z m-3925 -130 c3 -5 2 -10
-4 -10 -5 0 -13 5 -16 10 -3 6 -2 10 4 10 5 0 13 -4 16 -10z m-64 -153 c-10
-9 -11 -8 -5 6 3 10 9 15 12 12 3 -3 0 -11 -7 -18z m69 -287 c0 -5 -2 -10 -4
-10 -3 0 -8 5 -11 10 -3 6 -1 10 4 10 6 0 11 -4 11 -10z m-10 -70 c0 -5 -5
-10 -11 -10 -5 0 -7 5 -4 10 3 6 8 10 11 10 2 0 4 -4 4 -10z m65 -30 c3 -5 1
-10 -4 -10 -6 0 -11 5 -11 10 0 6 2 10 4 10 3 0 8 -4 11 -10z m1964 -258 c64
-39 102 -118 103 -214 0 -55 -4 -75 -26 -113 -40 -68 -95 -100 -171 -100 -106
0 -175 48 -208 146 -37 111 34 269 135 301 40 13 132 1 167 -20z m1471 4 c0
-2 -7 -7 -16 -10 -8 -3 -12 -2 -9 4 6 10 25 14 25 6z m-2960 -160 c0 -3 -4 -8
-10 -11 -5 -3 -10 -1 -10 4 0 6 5 11 10 11 6 0 10 -2 10 -4z m2415 -246 c3 -5
1 -10 -4 -10 -6 0 -11 5 -11 10 0 6 2 10 4 10 3 0 8 -4 11 -10z m-1945 -10 c0
-5 -2 -10 -4 -10 -3 0 -8 5 -11 10 -3 6 -1 10 4 10 6 0 11 -4 11 -10z m-1155
-80 c3 -5 1 -10 -4 -10 -6 0 -11 5 -11 10 0 6 2 10 4 10 3 0 8 -4 11 -10z
m4220 0 c3 -5 1 -10 -4 -10 -6 0 -11 5 -11 10 0 6 2 10 4 10 3 0 8 -4 11 -10z
m-4045 -10 c0 -5 -5 -10 -11 -10 -5 0 -7 5 -4 10 3 6 8 10 11 10 2 0 4 -4 4
-10z m1000 0 c0 -5 -5 -10 -11 -10 -5 0 -7 5 -4 10 3 6 8 10 11 10 2 0 4 -4 4
-10z m2350 0 c0 -5 -2 -10 -4 -10 -3 0 -8 5 -11 10 -3 6 -1 10 4 10 6 0 11 -4
11 -10z m-3320 -10 c0 -5 -5 -10 -11 -10 -5 0 -7 5 -4 10 3 6 8 10 11 10 2 0
4 -4 4 -10z m3372 -42 c-7 -7 -12 -8 -12 -2 0 14 12 26 19 19 2 -3 -1 -11 -7
-17z m-3597 2 c3 -5 1 -10 -4 -10 -6 0 -11 5 -11 10 0 6 2 10 4 10 3 0 8 -4
11 -10z m3315 -10 c0 -5 -5 -10 -11 -10 -5 0 -7 5 -4 10 3 6 8 10 11 10 2 0 4
-4 4 -10z m265 -40 c3 -6 -1 -7 -9 -4 -18 7 -21 14 -7 14 6 0 13 -4 16 -10z
m-2480 -10 c3 -5 1 -10 -4 -10 -6 0 -11 5 -11 10 0 6 2 10 4 10 3 0 8 -4 11
-10z m2950 0 c3 -5 1 -10 -4 -10 -6 0 -11 5 -11 10 0 6 2 10 4 10 3 0 8 -4 11
-10z m-2668 -34 c3 -3 -16 -15 -43 -27 -134 -59 -380 -317 -488 -512 -13 -23
-42 -87 -66 -142 l-42 -100 -196 2 c-108 1 -324 2 -480 2 l-282 1 -10 25 c-10
28 -15 711 -5 737 4 9 14 18 23 20 31 6 1583 1 1589 -6z m383 -28 c0 -56 -26
-230 -43 -293 -24 -87 -78 -202 -134 -285 -12 -19 -34 -52 -48 -72 -40 -60
-209 -222 -308 -296 -118 -87 -349 -232 -370 -232 -14 0 -14 54 -1 120 41 202
148 452 263 615 71 101 223 252 331 330 86 61 261 154 293 155 13 0 17 -9 17
-42z m480 -907 c0 -781 -2 -951 -13 -960 -8 -6 -16 -9 -18 -6 -3 2 -58 5 -122
6 -100 1 -119 3 -127 18 -7 14 -8 1194 -1 1768 l1 112 103 3 c56 2 119 4 140
5 l37 2 0 -948z m248 930 c190 -70 423 -249 558 -431 128 -172 224 -382 275
-600 40 -174 42 -167 -38 -125 -283 147 -458 280 -617 470 -112 133 -203 349
-220 525 -9 86 -16 180 -13 180 1 0 26 -9 55 -19z m1933 -10 c18 -22 19 -39
14 -360 -7 -411 3 -383 -141 -393 -54 -4 -267 -8 -471 -10 l-373 -3 -11 30
c-7 17 -27 63 -45 103 -19 41 -34 76 -34 78 0 7 -96 161 -133 214 -45 64 -202
225 -267 274 -30 22 -76 52 -101 66 l-47 25 795 0 795 0 19 -24z m-3121 -141
c0 -5 -2 -10 -4 -10 -3 0 -8 5 -11 10 -3 6 -1 10 4 10 6 0 11 -4 11 -10z m-20
-30 c0 -5 -2 -10 -4 -10 -3 0 -8 5 -11 10 -3 6 -1 10 4 10 6 0 11 -4 11 -10z
m1602 -22 c-7 -7 -12 -8 -12 -2 0 14 12 26 19 19 2 -3 -1 -11 -7 -17z m-3255
-70 c-3 -7 -5 -2 -5 12 0 14 2 19 5 13 2 -7 2 -19 0 -25z m2293 -168 c0 -5 -2
-10 -4 -10 -3 0 -8 5 -11 10 -3 6 -1 10 4 10 6 0 11 -4 11 -10z m-40 -34 c0
-3 -4 -8 -10 -11 -5 -3 -10 -1 -10 4 0 6 5 11 10 11 6 0 10 -2 10 -4z m2690
-56 c0 -5 -2 -10 -4 -10 -3 0 -8 5 -11 10 -3 6 -1 10 4 10 6 0 11 -4 11 -10z
m-2808 -717 l-2 -638 -881 2 c-485 1 -883 4 -885 6 -8 8 -4 881 4 889 7 7 680
13 688 5 2 -2 -1 -19 -6 -38 -16 -54 -40 -253 -40 -330 0 -61 3 -73 25 -94 13
-14 34 -25 47 -25 29 0 108 30 108 41 0 5 7 9 15 9 35 0 272 142 470 280 165
115 353 324 427 473 16 31 30 57 31 57 1 0 1 -287 -1 -637z m734 500 c152
-223 491 -487 840 -653 119 -57 165 -63 209 -28 25 20 27 25 21 77 -11 109
-35 277 -46 320 -6 24 -9 45 -7 48 6 6 668 6 674 0 2 -3 5 -206 6 -451 2 -390
0 -446 -13 -446 -8 0 -368 -1 -800 -2 -432 -1 -820 -4 -863 -8 -43 -3 -82 -3
-85 0 -4 3 -7 283 -7 622 0 694 -8 637 71 521z m1599 -92 c-6 -5 -25 10 -25
20 0 5 6 4 14 -3 8 -7 12 -15 11 -17z m-3975 5 c0 -2 -7 -7 -16 -10 -8 -3 -12
-2 -9 4 6 10 25 14 25 6z m3680 0 c0 -3 -4 -8 -10 -11 -5 -3 -10 -1 -10 4 0 6
5 11 10 11 6 0 10 -2 10 -4z m330 -6 c0 -5 -2 -10 -4 -10 -3 0 -8 5 -11 10 -3
6 -1 10 4 10 6 0 11 -4 11 -10z m-4470 -14 c0 -3 -4 -8 -10 -11 -5 -3 -10 -1
-10 4 0 6 5 11 10 11 6 0 10 -2 10 -4z m607 -22 c-3 -3 -12 -4 -19 -1 -8 3 -5
6 6 6 11 1 17 -2 13 -5z m3293 -74 c0 -5 -2 -10 -4 -10 -3 0 -8 5 -11 10 -3 6
-1 10 4 10 6 0 11 -4 11 -10z m-3630 -60 c0 -5 -2 -10 -4 -10 -3 0 -8 5 -11
10 -3 6 -1 10 4 10 6 0 11 -4 11 -10z m2350 -114 c0 -3 -4 -8 -10 -11 -5 -3
-10 -1 -10 4 0 6 5 11 10 11 6 0 10 -2 10 -4z m740 -16 c-8 -5 -19 -10 -25
-10 -5 0 -3 5 5 10 8 5 20 10 25 10 6 0 3 -5 -5 -10z m1240 -64 c0 -3 -4 -8
-10 -11 -5 -3 -10 -1 -10 4 0 6 5 11 10 11 6 0 10 -2 10 -4z m-1876 -41 c3 -8
1 -15 -4 -15 -6 0 -10 7 -10 15 0 8 2 15 4 15 2 0 6 -7 10 -15z m-61 -10 c-3
-9 -8 -14 -10 -11 -3 3 -2 9 2 15 9 16 15 13 8 -4z m865 -40 c-3 -3 -9 2 -12
12 -6 14 -5 15 5 6 7 -7 10 -15 7 -18z m-858 -19 c0 -3 -4 -8 -10 -11 -5 -3
-10 -1 -10 4 0 6 5 11 10 11 6 0 10 -2 10 -4z m55 -37 c11 -16 1 -19 -13 -3
-7 8 -8 14 -3 14 5 0 13 -5 16 -11z m15 -207 c0 -1 -9 2 -20 8 -11 6 -20 15
-20 20 0 6 9 2 20 -7 11 -10 20 -19 20 -21z m-2593 -24 c-3 -8 -6 -5 -6 6 -1
11 2 17 5 13 3 -3 4 -12 1 -19z m2108 -188 c3 -5 1 -10 -4 -10 -6 0 -11 5 -11
10 0 6 2 10 4 10 3 0 8 -4 11 -10z m-10 -88 c-3 -3 -11 0 -18 7 -9 10 -8 11 6
5 10 -3 15 -9 12 -12z m-1638 -64 c2 -17 0 -19 -7 -8 -5 8 -6 18 -4 22 8 12
10 10 11 -14z m3038 -17 c-6 -5 -25 10 -25 20 0 5 6 4 14 -3 8 -7 12 -15 11
-17z m-2005 9 c0 -5 -5 -10 -11 -10 -5 0 -7 5 -4 10 3 6 8 10 11 10 2 0 4 -4
4 -10z m1490 0 c0 -5 -2 -10 -4 -10 -3 0 -8 5 -11 10 -3 6 -1 10 4 10 6 0 11
-4 11 -10z m-2910 -10 c0 -5 -2 -10 -4 -10 -3 0 -8 5 -11 10 -3 6 -1 10 4 10
6 0 11 -4 11 -10z m360 0 c0 -5 -5 -10 -11 -10 -5 0 -7 5 -4 10 3 6 8 10 11
10 2 0 4 -4 4 -10z m-400 -20 c0 -5 -5 -10 -11 -10 -5 0 -7 5 -4 10 3 6 8 10
11 10 2 0 4 -4 4 -10z m1420 0 c0 -5 -5 -10 -11 -10 -5 0 -7 5 -4 10 3 6 8 10
11 10 2 0 4 -4 4 -10z m2060 -36 c0 -2 -7 -4 -15 -4 -8 0 -15 4 -15 10 0 5 7
7 15 4 8 -4 15 -8 15 -10z m-1220 -4 c0 -5 -2 -10 -4 -10 -3 0 -8 5 -11 10 -3
6 -1 10 4 10 6 0 11 -4 11 -10z m361 -43 c-10 -9 -11 -8 -5 6 3 10 9 15 12 12
3 -3 0 -11 -7 -18z m1411 -27 c166 1 305 -3 310 -8 5 -5 9 -377 9 -861 0 -953
6 -882 -70 -899 -27 -6 -1338 -8 -1648 -3 l-43 1 0 880 c0 484 1 880 3 881 1
0 254 3 562 5 423 4 561 8 564 17 3 9 5 9 9 -1 3 -10 69 -12 304 -12z m-2012
0 c0 -5 -5 -10 -11 -10 -5 0 -7 5 -4 10 3 6 8 10 11 10 2 0 4 -4 4 -10z m-137
-8 l37 -2 -2 -882 -3 -883 -859 3 c-746 2 -863 4 -883 17 l-23 15 0 865 0 865
652 2 c666 3 1013 3 1081 0z m498 1 c18 -5 19 -36 19 -887 l0 -881 -133 2
c-72 1 -137 2 -144 2 -9 1 -11 206 -10 881 l2 879 30 4 c42 6 214 5 236 0z
m2074 -293 c-3 -5 -12 -10 -18 -10 -7 0 -6 4 3 10 19 12 23 12 15 0z m-2455
-234 c0 -3 -4 -8 -10 -11 -5 -3 -10 -1 -10 4 0 6 5 11 10 11 6 0 10 -2 10 -4z
m2410 -201 c0 -5 -5 -3 -10 5 -5 8 -10 20 -10 25 0 6 5 3 10 -5 5 -8 10 -19
10 -25z m-2410 -255 c0 -5 -4 -10 -10 -10 -5 0 -10 5 -10 10 0 6 5 10 10 10 6
0 10 -4 10 -10z m-2020 -115 c-7 -9 -15 -13 -17 -11 -6 6 20 36 26 30 2 -2 -2
-10 -9 -19z m73 -32 c-7 -2 -19 -2 -25 0 -7 3 -2 5 12 5 14 0 19 -2 13 -5z
m4337 -343 c0 -5 -4 -10 -10 -10 -5 0 -10 5 -10 10 0 6 5 10 10 10 6 0 10 -4
10 -10z m-4291 -54 c-2 -2 -15 -9 -29 -15 -24 -11 -24 -11 -6 3 16 13 49 24
35 12z m4361 -52 c0 -2 -7 -4 -15 -4 -8 0 -15 4 -15 10 0 5 7 7 15 4 8 -4 15
-8 15 -10z m-4415 -72 c-3 -3 -11 0 -18 7 -9 10 -8 11 6 5 10 -3 15 -9 12 -12z
m3695 -162 c-8 -5 -17 -7 -19 -4 -3 3 1 9 9 14 8 5 17 7 19 4 3 -3 -1 -9 -9
-14z m-1535 -10 c3 -5 1 -10 -4 -10 -6 0 -11 5 -11 10 0 6 2 10 4 10 3 0 8 -4
11 -10z m-625 -80 c0 -5 -5 -10 -11 -10 -5 0 -7 5 -4 10 3 6 8 10 11 10 2 0 4
-4 4 -10z m1935 0 c3 -5 2 -10 -4 -10 -5 0 -13 5 -16 10 -3 6 -2 10 4 10 5 0
13 -4 16 -10z m-458 -6 c-3 -3 -12 -4 -19 -1 -8 3 -5 6 6 6 11 1 17 -2 13 -5z
m320 0 c-3 -3 -12 -4 -19 -1 -8 3 -5 6 6 6 11 1 17 -2 13 -5z m-1547 -24 c0
-5 -5 -10 -11 -10 -5 0 -7 5 -4 10 3 6 8 10 11 10 2 0 4 -4 4 -10z m-1019 -17
c13 -16 12 -17 -3 -4 -17 13 -22 21 -14 21 2 0 10 -8 17 -17z m389 13 c0 -3
-4 -8 -10 -11 -5 -3 -10 -1 -10 4 0 6 5 11 10 11 6 0 10 -2 10 -4z m2170 -6
c0 -5 -5 -10 -11 -10 -5 0 -7 5 -4 10 3 6 8 10 11 10 2 0 4 -4 4 -10z m-2930
-4 c0 -3 -4 -8 -10 -11 -5 -3 -10 -1 -10 4 0 6 5 11 10 11 6 0 10 -2 10 -4z"/>
</g>
</svg>
