<svg xmlns="http://www.w3.org/2000/svg" viewBox="0 0 143.04 184.67"><defs><style>.cls-1{fill:#fbf2e5;}.cls-2{fill:#faf1e3;}.cls-3{fill:#f8e7d8;}.cls-4{fill:#fcf6ef;}.cls-5{fill:#f8edde;}.cls-6{fill:#faf1e5;}.cls-7{fill:#edd8be;}.cls-8{fill:#f0dbc1;}.cls-9{fill:#e5cbac;}.cls-10{fill:#8c6b45;}.cls-11{fill:#ecd6bb;}.cls-12{fill:#efd7bf;}.cls-13{fill:#a38768;}.cls-14{fill:#ddbc99;}.cls-15{fill:#7d5731;}.cls-16{fill:#f3e4ce;}.cls-17{fill:#b0977d;}.cls-18{fill:#b37b4c;}.cls-19{fill:#bca690;}.cls-20{fill:#dbbc9b;}.cls-21{fill:#e0c1a5;}.cls-22{fill:#977a5a;}.cls-23{fill:#b09880;}.cls-24{fill:#d8b68d;}.cls-25{fill:#f2e1cb;}.cls-26{fill:#a88e73;}.cls-27{fill:#e0c7aa;}.cls-28{fill:#8d6e4d;}.cls-29{fill:#b39d82;}.cls-30{fill:#e2c7a5;}.cls-31{fill:#52321a;}.cls-32{fill:#cca17d;}.cls-33{fill:#ceab81;}.cls-34{fill:#f2e2d2;}.cls-35{fill:#422919;}.cls-36{fill:#583e1e;}.cls-37{fill:#4c341c;}.cls-38{fill:#482919;}.cls-39{fill:#361e11;}.cls-40{fill:#372817;}.cls-41{fill:#e4c7a9;}.cls-42{fill:#e5c7a8;}.cls-43{fill:#d7b693;}.cls-44{fill:#ddbc9a;}.cls-45{fill:#e7d1b1;}.cls-46{fill:#d5b493;}.cls-47{fill:#d1b28e;}.cls-48{fill:#e9d3b8;}.cls-49{fill:#f3e1cb;}.cls-50{fill:#dbbe9d;}.cls-51{fill:#c69c72;}.cls-52{fill:#ba8a5d;}.cls-53{fill:#cfaa82;}.cls-54{fill:#efdac3;}.cls-55{fill:#d7b492;}.cls-56{fill:#e6ceb4;}.cls-57{fill:#f5e5d4;}.cls-58{fill:#d0b08e;}.cls-59{fill:#e2c6a6;}.cls-60{fill:#d5b997;}.cls-61{fill:#f8e8d8;}.cls-62{fill:#edddc8;}.cls-63{fill:#e0c2a0;}.cls-64{fill:#e8d2b7;}.cls-65{fill:#eedcc4;}.cls-66{fill:#f6e6d6;}.cls-67{fill:#d9b795;}.cls-68{fill:#caa780;}.cls-69{fill:#cfa67e;}.cls-70{fill:#d2a880;}.cls-71{fill:#b28457;}.cls-72{fill:#cba478;}.cls-73{fill:#b98f65;}.cls-74{fill:#a9743e;}.cls-75{fill:#f0d8be;}.cls-76{fill:#d1a983;}.cls-77{fill:#c5986f;}.cls-78{fill:#d4b089;}.cls-79{fill:#d1ae88;}.cls-80{fill:#ebd4bc;}.cls-81{fill:#725133;}.cls-82{fill:#b58657;}.cls-83{fill:#9f724a;}.cls-84{fill:#c0986c;}.cls-85{fill:#efdcca;}.cls-86{fill:#e8cdaf;}.cls-87{fill:#82674e;}.cls-88{fill:#7b5f45;}.cls-89{fill:#b37947;}.cls-90{fill:#d1ad88;}.cls-91{fill:#e9d1b6;}.cls-92{fill:#c19466;}.cls-93{fill:#a76127;}.cls-94{fill:#f5e5d2;}.cls-95{fill:#ddc09f;}.cls-96{fill:#f0ddc5;}.cls-97{fill:#e8ccb1;}.cls-98{fill:#dab998;}.cls-99{fill:#cfac8b;}</style></defs><g id="Capa_2" data-name="Capa 2"><g id="Capa_1-2" data-name="Capa 1"><path class="cls-1" d="M7.33,170.2c-.35-.38-.21-.84-.2-1.26.2-4.28-.39-8.54-.54-12.81s-.34-8.51-.34-12.77a.75.75,0,0,1,.21-.7c.73.77.9.77,1.4-.11s.87-1.42.09-2.28a1.93,1.93,0,0,1-.15-1.91A9.92,9.92,0,0,0,8.16,135a3.32,3.32,0,0,1,.12-1.09c.32-.91,1.12-1.27,1.79-.62A24.92,24.92,0,0,0,15.5,137c.13.07,0-.05.08.07,1.51,2.53,3.92,1.74,6.12,1.64A4.19,4.19,0,0,0,25,137.47a1.36,1.36,0,0,1,.79-.37c2.89-.39,5.57-1.8,8.56-1.78a9,9,0,0,1,2.93.08.72.72,0,0,0,.81-.23c.7-.92,1.87-1.28,2.63-2.14.6-.66,1.51-.71,2.28-1a29.35,29.35,0,0,1,4.24-1.52,6.64,6.64,0,0,1,4.18,0c1.45.51,3.07.64,4.58,1.07,1.88.53,3.77.91,5.35,2.29,1.21,1.05,2.43,2.06,3.58,3.2s2.47,2.55,4.48,2.42a2.08,2.08,0,0,1,1.8.93,1.35,1.35,0,0,0,1.75.45,10.13,10.13,0,0,1,1.88-.63c1-.13,1.35.19,1.35,1.17,0,1.9,1.17,2.78,3,2.26,1-.29,1.2-1,.49-1.78-.1-.11-.22-.2-.31-.31-.23-.28-.57-.54-.35-1a.87.87,0,0,1,1-.4,5.6,5.6,0,0,1,2.43.67,2.72,2.72,0,0,0,1.78.22c1.19-.12,2.29-.16,3.17-1.2a1.42,1.42,0,0,1,1.71-.28c.43.36-.19.92-.21,1.43,0,.88-.93,1.16-1.48,2,1.12-.6,2.12-.14,3.1-.35a.81.81,0,0,1,1,.75c.08.8.59.93,1.23.92.15,0,0,0,.11,0,.6.07,1.48-.07,1.39.81s-1,.69-1.55.62c-1.13-.15-2.07-.89-3.18-1.15-.17,0-.32-.18-.5-.22a.46.46,0,0,0-.51.11c-.15.18,0,.36.1.47.63.51.88,1.52,1.94,1.45.18,0,.42.13.41.31,0,1.09.8.89,1.42,1,.22.05.44.08.65.14s.47.1.5.36a.67.67,0,0,1-.37.62,1.15,1.15,0,0,1-.72.23,46.87,46.87,0,0,1-5-.14c-.27,0-.65-.17-.74.24s.21.56.47.67c1,.43,2,.52,3.06.85.33.1.56-.3.85-.45.89-.46,1.48-.14,1.57.84a4.64,4.64,0,0,0,.12.76c.23.71-.06,1.12-.74,1.33-.32.11-.84.08-.71.63a.9.9,0,0,0,1,.66,3.51,3.51,0,0,0,.65-.09,1.76,1.76,0,0,1,1.35.34c.29.18.59.4.55.76s-.41.39-.68.49c-1,.39-2,.62-2.56,1.72-.21.42-.79.32-1.3.46a1.23,1.23,0,0,0,1,.44c.62.05,1.25,0,1.87,0a2.31,2.31,0,0,1,1.08.14c.59.29,1.26.58,1.34,1.33s-.44.89-.92,1.1c-.68.31-1.36.61-2-.09s-1.43-1.39-2.59-1a1,1,0,0,1-.83-.23,3.5,3.5,0,0,0-2-.49,3.58,3.58,0,0,1,1.93,2.69c.14.81-.93,1.75-1.55,1.31-1-.73-1.86-.3-2.8-.06a1.17,1.17,0,0,1-.33,0,2.86,2.86,0,0,1-.86-.17,37.22,37.22,0,0,0-13-1.91A36.23,36.23,0,0,0,58.26,163a6.71,6.71,0,0,1-1.18.26A12,12,0,0,0,51,165.89a8.25,8.25,0,0,1-3.66,1.93,6.53,6.53,0,0,1-4.81-1.46c-1.91-1.37-3.6-3-5.48-4.41a7.25,7.25,0,0,0-4.81-1.59,44.6,44.6,0,0,0-9.57,1,5.25,5.25,0,0,0-1.34.49,4.52,4.52,0,0,1-1.9.51,20.76,20.76,0,0,0-8.8,2.54c-.87.47-1.4,1.46-2.49,1.55a.69.69,0,0,1-.61-.4,10.93,10.93,0,0,1,.14,2.49C7.59,169.08,7.82,169.71,7.33,170.2Z"/><path class="cls-2" d="M33.12,55.86a11.69,11.69,0,0,1-.38-3.76c-.1-2.26,0-4.53.07-6.8a47.83,47.83,0,0,1,1-7.08c.57-2.92,2.19-4.32,5.14-4.64,3.14-.33,6.26-.83,9.38-1.25,2.2-.29,4.4-.43,6.62-.52s4.26-.47,6.41-.42c.23,0,.65-.14.67-.28.08-.41-.34-.61-.61-.82a23.71,23.71,0,0,1-4.77-5.23,12,12,0,0,1-2.13-6.56,20.61,20.61,0,0,1-.07-3.69,21.36,21.36,0,0,1,2-5.53c1.5-3.36,4.1-5.6,7.16-7.45A14.84,14.84,0,0,1,72.47.05,24.43,24.43,0,0,1,79.6,1.91a1.88,1.88,0,0,1,1.11.84,18.78,18.78,0,0,0,2.54,4.33,12.73,12.73,0,0,1,2.15,8.76c-.09.93-.56,1.46-1.55,1.27-2.13-.42-3.42.64-4.73,2.08-1.12,1.24-2.36,2.39-3.55,3.56a6.66,6.66,0,0,1-2.12,1.35c-.14.06,0,0-.1,0a16.36,16.36,0,0,1-5.25,2.57c-1.34.39-2.09,2.52-1.75,3.93a1.13,1.13,0,0,0,.75.75,6.75,6.75,0,0,0,2.55.59c2.21.07,4.39-.2,6.59-.31a22.09,22.09,0,0,1,4.38.16c2.89.42,5.34,4.31,4.64,7.14-.16.64-.51.45-.91.25a5.9,5.9,0,0,0-4.83-.59,34.82,34.82,0,0,0-5.22,3c-1.67,1-2.91,2.71-4.9,3.24a6.6,6.6,0,0,1-6.93-3.32c-.79-1.28-1.56-2.53-3.13-3a3.83,3.83,0,0,0-3.16,0,14.7,14.7,0,0,0-4.8,4.3,5,5,0,0,1-6.8,1.4,43.79,43.79,0,0,1-4.95-4.06c-1.47-1.36-2.67-1.4-4.14-.13a3.57,3.57,0,0,1-.45.5,4,4,0,0,0-.81,1.77c-.32,2.15-1,4.27-.85,6.48.12,2,0,3.95.06,5.92A1.49,1.49,0,0,1,33.12,55.86Z"/><path class="cls-3" d="M84.66,163.15a3.09,3.09,0,0,0,1.35-.42c.51-.19,1-.3,1.34.27s.76.34,1.15.09.71-.54.46-1.07c-.49-1-.68-2.32-2.25-2.26a.23.23,0,0,1-.22-.3c.05-.22.23-.27.42-.27a3.73,3.73,0,0,1,2.44.45c.23.15.45.51.76.32,1.35-.84,2,.3,2.77,1,.29.25.51.59.91.37s1.35-.27,1.62-1c.15-.43-.89-1.3-1.62-1.34s-1.47,0-2.2,0a3.44,3.44,0,0,1-1.39-.26c-.27-.1-.61-.24-.52-.6s.37-.37.71-.3a1,1,0,0,0,1.34-.89c0-.36.34-.46.62-.56s.77-.24,1.14-.39a2.43,2.43,0,0,1,1.29-.32c-.64-.8-1.24-1.2-2.13-.86a1.23,1.23,0,0,1-1.56-.41c-.64-.85-.51-1.2.53-1.36.76-.12,1.21-.35.73-1.2a1.14,1.14,0,0,1-.13-.63c0-.3.34-.67-.19-.79s-.87-.15-1.09.28c-.37.7-.85.62-1.36.26s-1.42-.3-2.11-.53a2,2,0,0,1-.94-.5,1,1,0,0,1-.33-1.08c.19-.38.66-.23,1-.2a11.41,11.41,0,0,0,4.24,0,1,1,0,0,1,.62.15c.61.29,1,0,1.33-.54-.72-.11-1.35-.2-2-.31s-1.46.29-.68-.85c.25-.36-.18-.51-.49-.44a.9.9,0,0,1-1.23-.73,1.47,1.47,0,0,0-.5-.56c-.34-.28-1-.44-.51-1.05s.9-.27,1.47-.08c1.21.4,2.25,1.3,3.6,1.28.38,0,1,.12.94-.44s-.59-.4-1-.43-.74,0-1.1,0-.9-.25-.78-.83c.2-1-.3-1-1-.81a1.75,1.75,0,0,1-1.08.06c-.53-.18-1-.26-1.34.31-.19.28-.54.2-.75-.08a.44.44,0,0,1,.08-.68c.85-.57,1.71-1.1,1.49-2.36,0-.17.4-.2.37-.57-1,.37-2.16.3-2.54,1.59a.35.35,0,0,1-.53.22,2.36,2.36,0,0,0-2.19,0,1.23,1.23,0,0,1-1.24-.26,5.28,5.28,0,0,0-2.69-.79c-.26,0-.56,0-.66.27s.18.37.32.53a1.21,1.21,0,0,0,.16.16c.46.4,1.13.76.83,1.5A1.77,1.77,0,0,1,78.57,144c-2.29-.13-3-.55-2.68-2.67.12-1-.34-1-1-.89s-1.38.49-2.08.71-1.35.38-1.82-.55a2.08,2.08,0,0,0-1.87-.93,4.68,4.68,0,0,1-3-1.21c-2.17-1.93-4.06-4.24-6.71-5.59a11.72,11.72,0,0,0-2.83-.93,34,34,0,0,1-5-1.13c-3.13-1.19-5.49.58-8.16,1.23-1.7.42-2.88,1.63-4.29,2.47a1.22,1.22,0,0,0-.49.43,1.26,1.26,0,0,1-1.91.62c-.78-.36-1.54.15-2.21.08-1.48-.14-2.8.4-4.19.56a7.15,7.15,0,0,0-1.34.38c-.8.27-1.53.81-2.5.58a1.61,1.61,0,0,0-1.31.45c-1.58,1.81-3.72,1.27-5.69,1.51-1.18.14-2.39.23-3.12-.72a10.06,10.06,0,0,0-2-1.84s-.05-.07-.08-.07c-2-.28-3-2-4.43-3.11a.73.73,0,0,0-1.25.28.88.88,0,0,0-.16.41,27.11,27.11,0,0,1-.47,5.4,1,1,0,0,0,.23.82c.27.31.88.5.58,1-.46.86-.72,2-1.61,2.4-.63.29-.67-.6-.75-1.11a20.42,20.42,0,0,0-.21-3.75,4.55,4.55,0,0,0,0-2.2c0-.81,0-1.62,0-2.43A3.84,3.84,0,0,0,6.59,132a2.82,2.82,0,0,1,.16-1.41.93.93,0,0,1,1.13-.6,9.28,9.28,0,0,1,5.64,3.7,3.22,3.22,0,0,0,1.44,1,1.83,1.83,0,0,1,.69.32c.91,1,2,.64,2.9.21a3.77,3.77,0,0,1,3.17.05,2.84,2.84,0,0,0,1,.25,16.22,16.22,0,0,0,6.26-.76c1.45-.37,2.92-.72,4.37-1.11a36,36,0,0,0,5.12-2.37,3.75,3.75,0,0,1,1.49-.6,1.46,1.46,0,0,0,1.26.11,1.83,1.83,0,0,1,1.77.05.6.6,0,0,0,.63,0c1-.57,2.29-.71,3.29-1.41,2-.77,4.06-.39,6.08-.69a5.34,5.34,0,0,1,3.32.6c1.89,1,3.84,1.91,5.69,3,1.29.75,2.31,2,4,2.18a1.91,1.91,0,0,1,1.19.74,4.25,4.25,0,0,0,3.24,1.59,2.45,2.45,0,0,1,2.35,1.33c.42.77,1.39.61,2.1.56a48.49,48.49,0,0,1,5.26.23,12.72,12.72,0,0,0,4.28-.7,4.29,4.29,0,0,1,2.23-.37,1.92,1.92,0,0,0,1.09,0c1.84-.78,3.83-1.05,5.65-1.94a38.31,38.31,0,0,1,6.58-2.47c1.39-.38,2.65.38,4,.72.57.15,1.12.66,1.73.1,1.82.57,4-.73,5.56,1,1.11,1.22,2.57,2,3.69,3.2a30.67,30.67,0,0,1,4.32,5c.83,1.35,1.74,2.66,2.55,4a2,2,0,0,1,.1,2,3.32,3.32,0,0,0-.09,2.77,5.68,5.68,0,0,1-.21,4c-.14.33,0,.56.08.84a5.69,5.69,0,0,1,0,3.44c-.54.53-1.11,0-1.66.05a42.35,42.35,0,0,1-4.91.21,9.57,9.57,0,0,1-1.41.2,57.1,57.1,0,0,0-6.64,1.24,25.47,25.47,0,0,0-8.66,4.14,9,9,0,0,1-3,1.35c-1.8.59-3.15-.39-4.53-1.27-.92-.75-2.15-.91-3.1-1.62a16.26,16.26,0,0,0-2.16-1C85.13,163.73,84.65,163.69,84.66,163.15Z"/><path class="cls-4" d="M5.14,129.22a6.33,6.33,0,0,1-.4-3.53c.31-1.83.16-3.79,1.43-5.41a4.29,4.29,0,0,1,2.32-1.53,19.87,19.87,0,0,1,5.3-.73,26.1,26.1,0,0,0,6-1c.69-.17.64-.82.51-1.37a2.3,2.3,0,0,1,.07-1.89c.76.23.54.92.64,1.44a5.64,5.64,0,0,0,.06,1.08c.17.45.43.79,1,.62a4.71,4.71,0,0,1,2.58,0,6.83,6.83,0,0,0,2.51,0,18.45,18.45,0,0,1,4.45-.28,2.76,2.76,0,0,0,.84-.23,13.59,13.59,0,0,1,2.63-.09c2.43.26,4.86.49,7.3.59,1.55.06,3.1.15,4.65.09a5.36,5.36,0,0,1,2.86.58,12.17,12.17,0,0,0,3.68,1c1,.19,2.09-.47,3.18-.58A6.72,6.72,0,0,1,59,118c.94.72,1,.91.16,1.9a7.89,7.89,0,0,1,2.2.18,2.22,2.22,0,0,1,1.22.68,5.3,5.3,0,0,0,4,2.09,1,1,0,0,1,.93,1.58c-.37.66-.24,1,.37,1.27a1,1,0,0,1,.58,1c-.07.68.15.87.81.68s1.11,0,.85.81c-.18.57.21.82.63,1a6.32,6.32,0,0,0,2.24.47c1,0,1.19.18,1.08,1.22,0,.47.11.61.52.59a2.72,2.72,0,0,1,1.54.5c.26.16.51.35.44.7a.76.76,0,0,1-.62.55,2,2,0,0,1-1,.14c-1.82-.46-3.73-.16-5.53-.78-.9-.31-1.63-1-2.63-1.05a1.05,1.05,0,0,1-.7-.25c-1.13-1.27-2.79-1.78-4.08-2.81a40.16,40.16,0,0,0-8.9-3.86.87.87,0,0,0-.22,0c-2.31,0-4.72-.59-6.91.32s-4.57,1.55-6.64,2.82c-3.17,1.51-6.4,2.91-9.56,4.44a8.29,8.29,0,0,1-4.24.95c-1.5-.1-3,.05-4.5-.07a13,13,0,0,1-7.74-3.5,32.51,32.51,0,0,0-2.81-2.28A4.39,4.39,0,0,0,7.36,126a1.14,1.14,0,0,0-1.29.92,5,5,0,0,0-.39,1.48A.72.72,0,0,1,5.14,129.22Z"/><path class="cls-5" d="M32.47,85.81c.11,0,.26,0,.32,0C35,87.91,38,88,40.66,88.94a15.54,15.54,0,0,1,1.8,1,9,9,0,0,0,5.71,1.34c.26-.05.64-.14.66-.48s-.34-.34-.56-.47a4.92,4.92,0,0,0-2-.56c-1.31-.13-2.68-.25-3.59-1.47a1.41,1.41,0,0,0-.75-.43,1.67,1.67,0,0,1-1.36-1.26c-.06-.23-.22-.55-.42-.62-1.39-.53-1.54-1.87-2-3a2.65,2.65,0,0,0-.45-.62,4.1,4.1,0,0,1-1.29-3.13c.09-1-.74-1.27-1.5-1.41a4.93,4.93,0,0,0-1.41.12c-.25,0-.6.37-.71-.09a.77.77,0,0,1,.5-.78.54.54,0,0,1,.21,0c.57,0,1.39.14,1.47-.59s-.78-.81-1.33-1.05A2.28,2.28,0,0,1,33,75a2.14,2.14,0,0,0-2.63-.34,1.74,1.74,0,0,1-1.07.14.61.61,0,0,1-.57-.68c0-.36.05-.72.44-.79,1-.17,2-.53,3,0a2.47,2.47,0,0,0,2.92-.47c1,0,1.49.78,2,1.42,1.53,2,2.16,2.15,4.42,1.24a4.67,4.67,0,0,1,3.09-.24,20.52,20.52,0,0,0,4.57.32,45.64,45.64,0,0,1,4.82.13,46.65,46.65,0,0,0,8.19.4,33,33,0,0,1,7.22.37,6.19,6.19,0,0,0,2.74-.1,1.49,1.49,0,0,1,1.61.32,1.28,1.28,0,0,0,1.63.26,4.08,4.08,0,0,1,3.69-.27c1.45.41,3,.19,4.38.87.19.1.44.09.63.2.45.26.77.62.51,1.17a.78.78,0,0,1-1.13.34A5.82,5.82,0,0,0,81,78.61c-.21,0-.47,0-.57.22s.13.48.35.6a4,4,0,0,0,2.68.21,2.5,2.5,0,0,1,1.51.06c.58.26.77.72.3,1.22a14.77,14.77,0,0,1-1.52,1.57C86.21,82.76,88,85,90.54,85a1,1,0,0,1,.61.21c1,.78.64,1.88.58,2.86a1.43,1.43,0,0,1-1.36,1.36,4.53,4.53,0,0,0-1.59.39,2.62,2.62,0,0,1-1.85,0c-.68-.47-1.49-.23-2.23-.36a11.71,11.71,0,0,1-1.17-.28,1.08,1.08,0,0,1-.28-.15c-.63-.58-1.45-.31-2.18-.48-2-.49-3.36-2.07-5-3.17-.21-.14-.4-.3-.6-.46a7,7,0,0,1-1.61-1.31,2.14,2.14,0,0,0-3.57.48c-.32.58-.58,1.19-.88,1.77a5.42,5.42,0,0,1-2.54,2.51c-2.16,1-4.15,2.3-6.3,3.31a5.7,5.7,0,0,1-1.44.49,24.48,24.48,0,0,0-6.23,1.75,7,7,0,0,1-4.53.2c-1.8-.35-3.49-1.13-5.31-1.42a32.91,32.91,0,0,1-7.57-3.06,1.69,1.69,0,0,1-.49-.43,9.49,9.49,0,0,1-2.29-2.56C32.57,86.35,32.31,86.14,32.47,85.81Z"/><path class="cls-6" d="M32.24,116.69c-.48.75-1.15.17-1.69.17-1.85,0-3.65.62-5.51.45-1.16-.1-2.31-.52-3.47.12-.36.2-1.11-1-.95-1.67a2.82,2.82,0,0,0-.28-2c-.21-2.79-.42-5.57-.81-8.34a47.88,47.88,0,0,1-.48-6c0-2.19-.38-4.36-.26-6.55a5.4,5.4,0,0,0-.2-1.18c.36-.09.5.17.65.41a2.12,2.12,0,0,1,.14.31c.55,1,1.59,1.73,1.28,3.12-.15.64.88,1.11,1.46.65a2.71,2.71,0,0,1,2-.64.5.5,0,0,0,.32-.06c1.87-1.25,4.08-1.19,6.17-1.59a2.33,2.33,0,0,1,1.31,0,6.39,6.39,0,0,0,3.67.24,1.11,1.11,0,0,1,1,.17,19.47,19.47,0,0,0,2.91,1.74,9.34,9.34,0,0,0,4.84,1.27,5.81,5.81,0,0,1,2.55.53,4,4,0,0,0,2.26.33c3.21-.35,6.44-.19,9.66-.36a3.18,3.18,0,0,1,2.68,1c1,1.18,2.39,1.1,3.65,1.47.47.13,1.22-.33,1.38.43s-.53,1.06-1,1.46c-.22.2-.53.1-.79.19s.09.19,0,.07,0-.08.07-.08a3,3,0,0,1,2.2.46,1.56,1.56,0,0,1,.73,1.61c-.1.57-.4.87-1,.55-.26-.13-.49-.32-.76-.44-.61-.25-1.14-.35-1.35.51a1.24,1.24,0,0,1-1.31,1c-1,0-1.89.24-2.85.24a30.44,30.44,0,0,1-3.11-.72c-4-.36-8,.09-12,.13a19.76,19.76,0,0,0-5.5,1.39,7.83,7.83,0,0,1-2.15.38,13.47,13.47,0,0,0-3.68.94c-1,.49-2,.72-3.05,1.13s-2.17.87-3.28,1.23a9.11,9.11,0,0,0-4.84,3.76c-.48.7-.4.88.47,1.08a28,28,0,0,0,7.41.67C31.22,116.35,31.81,116.21,32.24,116.69Z"/><path class="cls-7" d="M119,117.31a45.28,45.28,0,0,1,10.13.93c2.19.43,4.33,1.22,5.63,3.26.92,1.45,1,3.16,1.45,4.78.79,3.18.41,6.42.42,9.63,0,8.37,0,16.73,0,25.1,0,.43.12.89-.18,1.28a1.3,1.3,0,0,1-.38-1.1c0-8.5-.07-17,0-25.49,0-.32,0-.65,0-1,0-1.42-.06-1.51-1.46-1.75a7.94,7.94,0,0,1-3.49-1.77c-.83-.66-1.73-1.22-2.58-1.86a1.89,1.89,0,0,0-2.43,0,2.59,2.59,0,0,0-.6.48,6.23,6.23,0,0,1-3.39,2.27c-1.38.6-2.83.27-4.24.29a3.56,3.56,0,0,1-2-.29,6.05,6.05,0,0,0-2.7-1.35,10.25,10.25,0,0,1-3.26-1.92,13.25,13.25,0,0,0-5.89-2.71,3.18,3.18,0,0,1-1.13-.4c-.2-.14-.46-.3-.16-.59a1.65,1.65,0,0,1,1.39,0,33.42,33.42,0,0,0,6.1,1.36c.69.13,1.28.54,2,.67a2.55,2.55,0,0,1-1.8-2.83,1.84,1.84,0,0,0-1-1.56c-1.52-1-3.22-1.69-4.77-2.66a7.68,7.68,0,0,0-5-1.27.74.74,0,0,1-.21,0,10.83,10.83,0,0,0-5,.16,13.34,13.34,0,0,1-4.46-.13,64.85,64.85,0,0,0-8-.31c-3.52,0-7,.06-10.56,0-2.85-.06-5.71,0-8.56-.23-.37,0-.93.12-.91-.58a1.33,1.33,0,0,1,.74-.26c3.27,0,6.53-.11,9.8,0a5.4,5.4,0,0,0,2.59.1,1.75,1.75,0,0,1,.56,0,13.67,13.67,0,0,0,3.67,0,2,2,0,0,1,.59,0c2-.14,3.92-.1,5.88-.13a9.61,9.61,0,0,0,2.83-.15c3.18,0,6.33-.52,9.54-.15,1.41.16,2.91-.2,4.38-.14,2.67.11,5.3-.59,8-.45a1.71,1.71,0,0,0,.53-.13c2.24-.24,4.49,0,6.73-.23C118.57,116.1,118.94,116.6,119,117.31Z"/><path class="cls-8" d="M79.39,38.46c2-1,3.74-.09,5.52.67.25-1.78.31-3.65-1.32-5-1.22-1-2.35-2.05-4.19-2.12-3.29-.12-6.55.43-9.83.28a3.18,3.18,0,0,1-1.4-.19c-.81-.42-2.19-.23-2.19-1.57,0-3,1.31-4.12,2.8-4.43,1.24-.26,2.53-.45,3.34-1.62a2,2,0,0,1,.93-.56c1.46-.65,2.88-1.36,3.56-3,.19-.44.76-.36,1.07-.71.63-.71,1.36-1.33,2-2a3.57,3.57,0,0,1,3.76-1.38c1.25.3,1.69-.11,1.69-1.36,0-.62,0-1.25,0-1.87A8.56,8.56,0,0,0,83.39,8c-.87-1.23-1.34-2.73-2.51-3.79a1.08,1.08,0,0,1-.17-1.42A14.51,14.51,0,0,1,85.5,7a12.88,12.88,0,0,1,2.73,6.78,27.23,27.23,0,0,1-2,12.28,11.6,11.6,0,0,1-3.44,4.87,1.36,1.36,0,0,0-.61.78,34.36,34.36,0,0,0,5.52.52c2.77.22,5.56.14,8.33.29a34.21,34.21,0,0,1,6.85.66c3.36.89,4.27,2.1,4.52,5.5a8.68,8.68,0,0,1,0,.88c-.21.21.05.69-.42.76a3.37,3.37,0,0,1-1.53-.8c-1-1-1-1.19.58-1.74-.31-.72-1.6-.64-1.44-1.73,0-.07-.18-.06-.28,0-.65.17-1.3.17-1.62-.52s.38-1.09.87-1.67c-1.79.52-3.4,1.12-5,1.74a2.71,2.71,0,0,1-1.91-.13,10.5,10.5,0,0,0-6.76,0,5.11,5.11,0,0,1-.86.2c-.31,0-.73-.06-.8.39a.73.73,0,0,0,.52.77c1.48.49,1.76,1.77,2.11,3a5.15,5.15,0,0,0,.66,1.38,2.16,2.16,0,0,0,1.67,1.07,8.64,8.64,0,0,1,3,.53c.48.23,1.46-.26,1.86-.89s.57-1.28,1.33-.88A1.44,1.44,0,0,1,99.89,43a1.21,1.21,0,0,1-.18.28A15.73,15.73,0,0,1,94,45.85a7.71,7.71,0,0,1-6.13-1.33,10.23,10.23,0,0,1-2.45-2,12,12,0,0,0-2.13-3.14,2.7,2.7,0,0,0-2.53-.74C80.27,38.69,79.79,38.85,79.39,38.46Z"/><path class="cls-9" d="M108,50.13a13.61,13.61,0,0,1,.15,4.8c-.15,1.64.11,3.26-.07,4.9-.27,2.39-.14,4.82-.32,7.23a38.06,38.06,0,0,1-.62,5.31c-.29,1.32-.29,1.32,1.08,1.35.21.76-.49.74-.85.94a.78.78,0,0,1-1.18-.32c-.08-.2.18-.5-.21-.63a6.15,6.15,0,0,1-2.6-2.27,12.44,12.44,0,0,0-1.84-1.86,6.75,6.75,0,0,0-1.91-.65,44.68,44.68,0,0,1-6.78-2.73c-.51-.52-1.53-.37-1.7-1.33.14-.43.5-.44.81-.32a7.49,7.49,0,0,0,2.7.38,5.31,5.31,0,0,1,2.2.67c.29.15.73.25.85-.14s-.35-.37-.6-.49A12.8,12.8,0,0,1,92,60.61a1.09,1.09,0,0,1,.42-1.75c.81-.45,1.33-1.25,2.13-1.74.45-.27-.07-1.5-.76-1.65-1.67-.36-2.39-1.81-3.4-2.9A4,4,0,0,1,89.17,50a1.63,1.63,0,0,0-.76-1.18,8.88,8.88,0,0,1-2-1.85,1.68,1.68,0,0,0-1.16-.55,25.28,25.28,0,0,0-6-.4,3.71,3.71,0,0,1-2-.31,2.56,2.56,0,0,0-2.23-.19c-.58.26-.89-.09-.94-.68a5.36,5.36,0,0,1,3.15-2.09,5.12,5.12,0,0,1,3.1.19,4,4,0,0,0,2.27-.15,2.91,2.91,0,0,1,3.1,1.29,5.17,5.17,0,0,1,.39.53c1,1.7,2.24,3,4.46,2.86a7,7,0,0,1,1.61.27,27.08,27.08,0,0,0,3.83.25c.4.05.68-.26.91-.54a7.9,7.9,0,0,1,3.13-2,1.57,1.57,0,0,1,1.89.46c.53.6.2,1.22-.27,1.77-.28.32-.73.5-.85,1,.32.35.76.23,1.14.33a1.92,1.92,0,0,1,1.64,1.42c.09.38.26.85.77.77s.5-.57.56-1c0-.15,0,0,0-.11.2-.58-.22-1.08-.19-1.6s1,0,1.24-.77.69-.39,1,.11C107.32,48.53,107.51,49.41,108,50.13Z"/><path class="cls-10" d="M113.31,183.63l-.68-.08c-2.13,0-4.27-.56-6.39.1-.51,0-1.07.22-1.53-.21s-1.26-.21-1.85-.3a16.38,16.38,0,0,0-5.41,0c-.56.48-1.19.21-1.79.18a10.14,10.14,0,0,0-4.14-.2,23.21,23.21,0,0,1-4.64.2c-.34-.32-.44-.78.12-.74.86.06,1.52.07,1.6-1,.91-.15,1.59-1,2.62-.82.62.14,1.49.71,1-.74-.14-.46.66-.47.66-1-.34-.07-.53.26-.81.37s-.81.37-1.08-.07a.85.85,0,0,1,.26-1.17c.26-.14.4-.25.34-.47s-.39-.16-.56-.13c-.61.12-1.43.77-1.75,0s.52-1.33,1.2-1.72c.2.17.47.18.69.32-.14-.2-.41-.1-.57-.25a.23.23,0,0,1,0-.27c.68-.34,1.34-.73,2.12-.15.57.43.69-.3,1-.49a2.74,2.74,0,0,1,2.55,0c-.27.46-.27.46-1.09.66.09.15.25.12.38.11a13.69,13.69,0,0,1,4.56.08,5,5,0,0,0,1.64,0c.39,0,.9-.19,1.17.33s.51,1,1.22.5c.21-.16.5,0,.74,0,1.91.24,3.83-.34,5.76.15a2.75,2.75,0,0,0,2.14-.59c.25,0,.38.14.51.3a3.14,3.14,0,0,0,3.88-.26.42.42,0,0,1,.29,0c.52.22.83,1,1.59.56.15-.08.36.06.48.21.37.44.62.61,1.07,0s1.19-.25,1.78-.6a1.08,1.08,0,0,1,1.6.63c.17.38.57.14.88,0a1.72,1.72,0,0,1,2.31,1.77c0,.27-.07.29-.82.36.54.29.8.67.49,1.21a1,1,0,0,1-1.17.61l-2.35.57c-.47.76-1.28.48-1.92.69-1.09.37-2-.11-2.93-.2.55.84.45,1.17-.48,1.14a25.58,25.58,0,0,1-3.16,0A1.87,1.87,0,0,0,113.31,183.63Z"/><path class="cls-11" d="M106.26,74.15c.9,1,1.37-.06,2-.43a17.45,17.45,0,0,1,6.69.85.9.9,0,0,1,.58.46,12,12,0,0,1-2.31,1.2c-.57.13-.45.46-.08.76a3.17,3.17,0,0,0,.76.43c.34.16.57.41.45.78-.25.81.14,1.58.11,2.38,0,.22.14.47,0,.65-.93,1.43.17,2.17,1,2.87a19.75,19.75,0,0,1,3,2.69c.11.1.22-.16.12-.06s0,0-.06,0-.16-.06-.16-.12c-.1-1.68-1.41-2.9-1.68-4.51,0-.15-.11-.33,0-.43,1.08-1.19.64-2.83,1.23-4.16a.77.77,0,0,1,.19-.27c.64.91.56,2,.83,3a35.64,35.64,0,0,1,.75,4.49c.22,1.57.4,3.15.53,4.72.07.73-.64,1.1-1,1.66a13.56,13.56,0,0,1-1.75.64,16.2,16.2,0,0,1-7.26-.43,9,9,0,0,1-2.78-1.47,10,10,0,0,0-4.31-2.26,2.58,2.58,0,0,0-2.61.55c-.25.11-.51.26-.78,0a2.29,2.29,0,0,1,2-2A4.66,4.66,0,0,1,105,87c1.17.75,2.42.38,3.61.38a14.61,14.61,0,0,0,2.24-.5c.49-.08.5-.35.24-.69a2.27,2.27,0,0,0-.83-.71,24.27,24.27,0,0,1-7.4-5.38c-.72-.69-1.51-1.28-2.26-1.92-.2-.17-.48-.29-.57-.52C99.41,76,98,76,96.59,75.75s-2.84-.23-4.13-.94c-.16-.08-.33-.15-.36-.37a.51.51,0,0,1,.25-.27,3.21,3.21,0,0,1,1.41-.11c1.67.17,3.34-.06,5,0,2,.09,4.08-.21,6.12-.24A1.66,1.66,0,0,1,106.26,74.15Z"/><path class="cls-12" d="M7.33,170.2l0-1.77c.55,0,.43.48.48.8s0,.8.39,1.05a.71.71,0,0,1,.15.3c0,1,.56,1.88.67,2.88,0,.55,1,.78,1.58.38a8.39,8.39,0,0,1,5-1.4,3.56,3.56,0,0,0,1.38-.35,6.61,6.61,0,0,1,2.48-.46c3.11.1,6.21-.29,9.33-.2a10.45,10.45,0,0,1,2.73.25,1.32,1.32,0,0,0,.76,0c2.31-.69,4.66-.28,7-.26a4.19,4.19,0,0,0,1.73.11,1.41,1.41,0,0,1,1.51.43c.46.73,1.17.79,1.86,1a22.3,22.3,0,0,0,6.62.4.76.76,0,0,0,.43-.08c1.37-1,2.88-.71,4.39-.51a2.64,2.64,0,0,0,1.08-.14,1.39,1.39,0,0,1,.7,0,3.86,3.86,0,0,0,3,.37c1-.26,2.08.23,3.14.27a2.16,2.16,0,0,0,1.37-.27,9.36,9.36,0,0,1,4.38-1.2c2-.2,4.09,0,6.09-.45a1.1,1.1,0,0,1,.54,0,4.21,4.21,0,0,0,2.36,0c.85-.13,1.74-.36,2.47.39-.24.75-.94.66-1.46.69-2.45.12-4.83.76-7.31.68-1.35-.05-2.7.52-4.08.57-2.31,1.93-5,.56-7.48.86a20.74,20.74,0,0,1-4.91-.45,4.14,4.14,0,0,0-1.85.15,5,5,0,0,1-2,.24,6,6,0,0,0-4,1.37,2.42,2.42,0,0,1-1.42.29,9.68,9.68,0,0,0-2-.1,10.08,10.08,0,0,0-2.63.13q-6.46.21-12.94,0c-2.26-.06-4.52.05-6.78,0a39.15,39.15,0,0,1-7.42-.46c-.62-.13-1.25.13-1.83-.18-1.06-.39-2.15-.08-3.23-.17-.46,0-.94,0-1.41,0a.94.94,0,0,1-.72-.3Z"/><path class="cls-13" d="M8.24,175.07c1.6,0,3.21-.27,4.79.2,0-.14,0,.21-.09.08s-.13,0-.16.08a2.73,2.73,0,0,0,1,.3,9.24,9.24,0,0,1,2,.19,51.42,51.42,0,0,0,8.5.43c2.51.07,5,.13,7.51.26.68,0,1.38-.26,2,.11-.06.85-.51,1.23-1.2,1-.46-.13-.93-.39-1.33.08-.22.26-.94.21-.53.88s.68,1.5,1.52,1.26a.86.86,0,0,1,1.08.3c.49.49.84.42.92-.31,0-.32,0-.76.4-.79s.46.47.57.8c0,.14.07.29.11.42.24.71.25,1.26-.76,1.15a.59.59,0,0,0-.46.18,6.23,6.23,0,0,1,4.27.81c.53.34,1.2.14,1.81.2s1.23.15,1.86.16c.34,0,.58.15.35.55a94,94,0,0,1-9.5.05,51.1,51.1,0,0,0-7.92.09c-.32-.28-.05-.7-.28-1.19-.12.67-.44.9-.94.72a1.51,1.51,0,0,1-1.1-1,.39.39,0,0,1,.26-.53c.22,0,.36,0,.21-.31s-.05-.52-.44-.41c0,0-.09-.07-.1,0,0,.48,0,.49-.35.5s-.72-.38-1.15-.27c-.07,1.43-.1,1.47-1.6,1.28-.69-.09-1,.37-1.35.77s-.88.87-1.14-.11c-.1-.41-.15-.16-.34-.08-.65.3-1.29.44-1.45-.56a4.91,4.91,0,0,1,.36-.47c-.19.08-.22.27-.32.41s-.17.24-.23.21c-1.71-.74-3,.58-4.46,1a18.76,18.76,0,0,1-3.57.19,18.16,18.16,0,0,1-3.06-.53c-.86-.08-1.19-1-1.5-1.68a4.35,4.35,0,0,0-.69-1.46.82.82,0,0,1-.19-.92c.05-.11.31-.21.12-.34-1-.66-.19-1.14.11-1.73s.79-.65,1.35-.36.8.59.28,1.1c-.22.22-.48.47-.19.74s.46-.13.64-.31.33-.46.62-.28.19.45.09.7a1,1,0,0,0,0,1.11c.31.45-.24.63-.5.93.79-.26,1.34-.29,1.41.73,0,.45.48.32.8.32,1,0,1.72-.83,2.7-.87.44,0,.9-.43,1.3.11.07.1,0-.05,0-.08a.69.69,0,0,1,.73-.66c.11,0,.29-.06.25-.16-.39-1,.54-1.13,1-1.57a1.92,1.92,0,0,1,2.3-.34c.1,0,0-.06,0-.1.14-.7.82-1,1.79-.72.44.11.49.35.23,1.21.43-.78.27-1.44-.47-1.45-1.87-.05-3.63-1-5.56-.63a9.92,9.92,0,0,1-2.25-.29C7.62,176.16,7.61,175.79,8.24,175.07Z"/><path class="cls-14" d="M136.42,135.38q0,12.63,0,25.26c0,.55,0,1.1,0,1.65-.14,1.47.19,3-.21,4.41a.47.47,0,0,1-.37-.35c-.12-.32,0-.83-.51-.84s-.49.48-.76.71-.28.85-.8.95a5.52,5.52,0,0,1-1.41-1.84c.8-.74.62-2,1.38-2.75.35-.37,0-.78-.25-1.09a2.09,2.09,0,0,1,0-2.72,4,4,0,0,0-.6-4.27c-1.09-1.07-1.11-1.25,0-2.22a1.07,1.07,0,0,0,.3-1.54,1,1,0,0,1,.2-1.47c.28-.26.58-.59.33-1-.58-.85-.3-1.79-.3-2.68a21.22,21.22,0,0,0-.27-5.56c-.22-.89.15-1.91-.37-2.86-.33-.6-.64-.9-1.36-.75a1.69,1.69,0,0,1-2.08-.75c-.35-.61-1.07-.6-1.7-.5a5.21,5.21,0,0,1-4-.77,1.21,1.21,0,0,0-1.15-.14c-2.17.76-4.28.24-6.36-.38a22.12,22.12,0,0,1-4.56-1.88c-.51-.29-1.18-.52-1.19-1.3.47-.39.87-.1,1.31.09a23.89,23.89,0,0,0,5.28,1.95,7.66,7.66,0,0,0,2.7.05,1.57,1.57,0,0,1,.3-.05c.64,0,1.13,1,1.87.25l.28-.1a4.55,4.55,0,0,0,1.4-.43c.76-.36,1.48-.79,2.21-1.2a5.28,5.28,0,0,1,5.85.34,8.37,8.37,0,0,1,1.22.93,12.69,12.69,0,0,1,1.72,2.07A1.8,1.8,0,0,0,136.42,135.38Z"/><path class="cls-15" d="M113.31,183.63c.2-1.32,1.19-.71,1.88-.72,1,0,2.08.08,3.12.12.52,0,.44-.28.23-.53a3.89,3.89,0,0,0-.66-.52c.47-.55,1-.06,1.29.07a4.61,4.61,0,0,0,3.13-.11,18.5,18.5,0,0,0,2.76-1.14c.19-.1.23-.51.54-.13.47.57.81.07,1-.22s.33-.72-.27-.9a.3.3,0,0,1,0-.58c.2-.1,1,.57.56-.27-.29-.59-.15-2.11-1.66-1.41-.78.36-.79.34-1.53-.53-.19-.21-.42-.12-.61-.07-.83.23-1.83,0-2.41.94-.33.52-.7.47-1,0s-.39-.78-1.1-.28-.68-.66-1.09-1c.59-.59,1.38-.43,2.07-.48,1.75-.14,3.51.06,5.27-.24a10,10,0,0,1,2.38.31,37.23,37.23,0,0,1,6.35.61c1.14.28,2.1-.1,3.13-.08a23.69,23.69,0,0,1,4.21.16,3.9,3.9,0,0,1,1.78.8c.19.43.62.82.16,1.32h-.31c-.2,0-.45,0-.51.22,0,0,.32.09.41.26a.4.4,0,0,0,0,.15c.23.85-.56.78-.92.82-.66.07-1,.08-.73.93.22.69-.28,1.12-1,1.33a24.71,24.71,0,0,1-2.94.72c-.52.21-1,.82-1.62.09-.21-.25-.48.26-.76.1a7.76,7.76,0,0,0-3.74,0c-.4.59-1,.16-1.45.18a6.14,6.14,0,0,1-3-.12,12.72,12.72,0,0,0-5,.15,4.58,4.58,0,0,0-1.88,0C117.35,183.7,115.33,183.63,113.31,183.63Z"/><path class="cls-16" d="M36.86,74.15l-1.77-1.34c-.5-3.11-1.18-6.2-1.44-9.33a49.8,49.8,0,0,1-.53-7.62c0-2.8-.21-5.62-.07-8.4a18.55,18.55,0,0,1,1.46-7c.11-.24.37-.2.59-.22.39.6-.23,1-.22,1.56A12.14,12.14,0,0,1,36,41.12c1.47-.58,2.47-.33,3.8,1.27.5.61,1.44,1.06,1.24,2.12-.61.29-1.15,0-1.69-.22a.77.77,0,0,0-1.12.52A20.42,20.42,0,0,0,37.32,49a18.27,18.27,0,0,1-.8,4.81,4.93,4.93,0,0,0-.45,2.14,13.14,13.14,0,0,1-.45,3.69,2.6,2.6,0,0,0,.5,2.38,1.06,1.06,0,0,1,.24,1.28,1.78,1.78,0,0,0,.46,2.2,2.72,2.72,0,0,1,.87,3.06c-.26.74,0,1.23.79,1.5a2.07,2.07,0,0,1,1.34.89c0,.15,0,.34-.13.39-1.12.38-2.13,1-3.15,1.41.56.13,1.27.23,2,.42.31.09.79,0,.78.54-.18.25-.51.24-.72.47C37.79,75,37.72,75,36.86,74.15Z"/><path class="cls-17" d="M42.38,183.44c0-.44-.29-.26-.53-.27a13.44,13.44,0,0,0-3.23-.14c-.19,0-.21-.16-.32-.23a5.27,5.27,0,0,0-3.62-.82,2.57,2.57,0,0,1-1.13-.23c.58-.08.86-1.11,1.77-.26l-.57-2.16c-.32.09-.33.3-.28.46.19.55-.18.88-.46,1.24-.35-.27-.94-.19-1.1-.75,0-.17-.18-.45-.34-.23-.31.43-.59.6-1,.21a3.14,3.14,0,0,1-1.3-2.18c.71.07.83-1.07,1.65-.79s1.42.32,1.87-.49c0-.27.18-.29.36-.29,2.65.08,5.28-.46,7.94-.27a15.34,15.34,0,0,0,3,0c.48-.07,1.15-.24,1.31.57-.48.59-.65,1,.19,1.57s.91.85,0,1.72c-.51.52-.21,1.07.06,1.48s.8.8,1.31.32c.92-.86,2-.65,3-.45s1.41.88,1,1.78c-1.23.07-2.47.2-3.71.22C46.37,183.47,44.38,183.44,42.38,183.44Z"/><path class="cls-18" d="M119,117.31a1.12,1.12,0,0,0-1.33-.84,49.54,49.54,0,0,1-6.56.22,3.74,3.74,0,0,1-1.16.08c-.42-.45.05-.49.29-.56a10.67,10.67,0,0,1,3.63-.68c.1,0,.21,0,.28-.22a2.27,2.27,0,0,0-1.24-.06,1.45,1.45,0,0,1-1.64-1.49,5.92,5.92,0,0,0,0-1.83c-.1-.31.2-.5.48-.65.8-.45.89-.86.13-1.37-.59-.41-.87-1.06-1.44-1.47a.77.77,0,0,1-.34-1,.91.91,0,0,1,1.24-.34c.3.1.71.44,1,0s0-.67-.33-.94c-.49-.48-.73-1.15-1.2-1.65-.31-.32-.4-1.23-1.07-.33,0,.07-.24,0-.32,0a20.56,20.56,0,0,0-2.26-1.44s.06-.2.16-.26a4.26,4.26,0,0,1,2.37.14,5.72,5.72,0,0,1,4.31,2.87c.89,1.37,2.47,2,3.75,3,.55.42,1,.82.9,1.6.08,1.25.17,2.5.25,3.74.21.88-.07,1.8.16,2.68Z"/><path class="cls-19" d="M52.07,183.21c0-1.05-.42-1.37-1.47-1.59a2.71,2.71,0,0,0-2.66.7c-.31.3-1.83-.41-1.76-.83a1.53,1.53,0,0,0-.21-1.11c-.13-.21,0-.36.27-.48,1.08-.56,1.08-.82.09-1.53s-1-.75,0-1.57a.3.3,0,0,1,.27-.08c.84.36,1.55-.09,2.28-.4a35.43,35.43,0,0,1,3.57,0l2,.43c.29.06.65.09.77.37.36.86,1.15,1,1.89,1.11.89.21,1.61.78,2.48,1a2.16,2.16,0,0,1,.86,3c-.21.32-.45.26-.76.15a5.41,5.41,0,0,0-2.35-.48c-.48.05-1,0-1.26.5s.63.44.55.9C55.15,183.09,53.59,183.84,52.07,183.21Z"/><path class="cls-20" d="M118.6,110.05c-.23-1.24-1.39-1.57-2.22-2.2a10.31,10.31,0,0,1-3.32-3.22c-.66-1.24-2-1.48-3.28-1.87-.33-.11-.63-.24-.32-.68a1.13,1.13,0,0,1,1.52-.51c1.67,1,3.67,1.25,5.29,2.36a1.72,1.72,0,0,1,.84,1.09,1.66,1.66,0,0,0,.39-1,22.93,22.93,0,0,0-.75-7.51c-.07-.25-.16-.62-.42-.56-1,.21-1.81-.33-2.81-.12a24.39,24.39,0,0,1-4.2.38,1.23,1.23,0,0,1-1.1-.61,4.22,4.22,0,0,0-2.37-1.43c-1.48-.46-3.11-.56-4.38-1.59-.47-.38-1.11-.39-1.6-.73a.36.36,0,0,1-.05-.32,4,4,0,0,1,2.27-1.13,6.1,6.1,0,0,1,3.9,1.56c2.13,2,4.76,2.26,7.39,2.6a7.75,7.75,0,0,0,5.85-1.89c0,5.61,0,11.22-.4,16.82A.71.71,0,0,1,118.6,110.05Z"/><path class="cls-21" d="M136,174.38c.15.52-.22,1.05,0,1.57-.36.65-.76.23-1.16.06-.35-1.24-1.48-1-2.35-1.19-1.86-.28-3.72-.55-5.59-.79a1.17,1.17,0,0,0-1.08.38c-.29.3-.71.75-.86-.13,0-.08,0-.18-.1-.14-1,.76-2-.17-3,0-1.34.27-2.73-.26-4.13-.24-1.05,0-2.11-.11-3.16,0-.81.08-1.48-.37-2.26-.37a88,88,0,0,1-10.87-1.13,33.88,33.88,0,0,0-3.77-.54,35.39,35.39,0,0,0-4.37,0c-.52,0-1,.11-1.27-.54a.7.7,0,0,1,.64-.64,13.58,13.58,0,0,0,1.87-.82,9.05,9.05,0,0,1,1,0c2.66.51,5.36.59,8,.86.81-.08,1.58.27,2.39.21s1.38,0,2.07,0a1.89,1.89,0,0,1,.53.08,2.84,2.84,0,0,0,1.89.35c.5-.06,1.12.2,1.42.09a9.18,9.18,0,0,1,1.7-.21c1.37.28,2.74-.24,4.12,0,2.28.42,4.67.1,6.89,1a3.92,3.92,0,0,0,1.62.16c1.6,0,3,1,4.53,1,.21,0,.43.18.64.13,1.51-.39,2.82.58,4.27.61C135.83,174.2,135.92,174.3,136,174.38Z"/><path class="cls-22" d="M90.61,175.73a1.21,1.21,0,0,0,0,.19h0c-.46.11-.33.73-.75.87s-.54.56-.35.77.82.27,1,0c.33-.7,1,.11,1.33-.39,0,0,.35.2.29.38-.11.36-.23.79-.61,1s-.33.49-.33.69c0,.41.32.23.56.18.53-.11.79-.89,1.52-.51a1.31,1.31,0,0,1-.69,1c-.3.13-.12.26-.09.4s.91.15.29.7c-.37.32-.69.68-1.23.3s-1.08-.28-1.69.25c-.43.38-1.21.26-1.35,1.15-.06.34-.57.64-1.14.2s-.58.08-.47.51c-.87.6-1.77-.18-2.64.06-.34-.4-.34-.4.18-.8a2.58,2.58,0,0,0,1-3c-.44,0-.87.81-1.21.32s-1.6-.85-1.15-2c.23-.58-.15-.71-.65-.63a4.43,4.43,0,0,1-2.56-.38c-.17-.07-.4-.2-.52-.12-.88.59-1.88.25-2.82.38-.14,0-.36.09-.39,0-.23-.81-.79-.34-1.22-.34a1.59,1.59,0,0,1-.48.07c-.58-.31-1.3-.13-1.86-.52,0-.56.46-.51.79-.52a64.94,64.94,0,0,1,7-.18c1.26.07,2.53-.28,3.8-.19,2.13.16,4.28-.56,6.4.1Z"/><path class="cls-23" d="M8.24,175.07c0,.31-.45.55-.22.76s.76.09,1,.18c1.27.54,2.59-.27,3.86.29a7,7,0,0,0,3,.42c1,0,1.06.9,1.44,1.45s-.4.37-.55.63-.45.23-.66,0c-.38-.39.2-.32.27-.5s.27-.39.16-.61c-.21-.4-.42,0-.62,0s-.47-.19-.7-.19a.65.65,0,0,0-.46.25c-.13.14,0,.26.15.31s.5.33.19.54a.45.45,0,0,1-.7-.24c-.13-.62-.3-.44-.58-.09s-.32.57-.6,0c-.2-.38-.45,0-.6.13-.27.33-.44.78-1,.77a.14.14,0,0,0-.11,0c-.4.44.34.66.2,1.06-.23.67-.82-.16-1.06.23a12.4,12.4,0,0,0-.5,1.25c.07-1-.34-.8-1-.73-1.13.12-1.92,1.11-3.1,1-.6-.06-1.14,0-.94-.87.1-.39-.2-.65-.39-.45-.9,1-.91,0-1.24-.44.56-.11.56-.18.42-.69-.06-.21.09-.48.17-.72s.42-.43.34-.77c0,0-.05-.06-.08-.09-.27,0-.28.29-.4.46s-.07.74-.58.65-.51-.55-.7-.88.22-.46.42-.58c.83-.47.3-.68-.16-.92-.14-.29,0-.48.22-.68,1-.67,2.28-.42,3.37-.85a6,6,0,0,1,1-.23Z"/><path class="cls-24" d="M108,50.13c-.67-.28-.8-.92-1-1.53a8.77,8.77,0,0,0-.72-1.3c-.34.69-.26,1.92-1.63,1,1.15.79.29,1.71.41,2.51a1,1,0,0,1-.78.8,1,1,0,0,1-1-.89c-.2-1.43-1.2-1.55-2.29-1.57a.74.74,0,0,1-.72-.39c-.2-.39.14-.48.36-.66a8.47,8.47,0,0,0,.88-.82c.39-.38.53-.94.15-1.26s-.88-.76-1.55-.42a9.93,9.93,0,0,0-3.57,2.54c-.08.1-.26.25-.34.22-1.33-.4-2.75.15-4.06-.39.33-.69,1-.35,1.52-.54A15,15,0,0,0,97.52,46c1.9-1.29,3.58-2.9,5.82-3.68a2.9,2.9,0,0,1,2.81.15c.29.19.65.5,1,.23s.09-.62,0-.94a1.14,1.14,0,0,1,.09-.85.19.19,0,0,1,.28,0c.54,1.69.21,3.47.43,5.2A34,34,0,0,1,108,50.13Z"/><path class="cls-25" d="M5.14,129.22c.62-.59.13-1.41.54-2.13.79-1.43.74-1.62,2.43-1.37a3.31,3.31,0,0,1,2.54,1.3c-.37.37-.82.22-1.25.2s-.78-.11-.64.42-.13,1.25.75,1c1.18-.34,1.86.33,2.74.93,2.77,1.91,5.5,3.92,8.75,5a13.18,13.18,0,0,0,6,.22c.62-.17,1.37-.54,2,.16a11.41,11.41,0,0,1-7.47.5,3.36,3.36,0,0,0-2.91.1c-.6.35-2,1.3-2.8-.21,0,0,0-.05-.09-.06-2.12-.46-3.1-2.37-4.59-3.64a3.66,3.66,0,0,0-1.95-.93,2.25,2.25,0,0,1-1.29-.39c-.55-.43-.76.13-.91.53a8.55,8.55,0,0,0,0,2c-.06.55.07,1.2-.64,1.47A7.75,7.75,0,0,0,5.14,129.22Z"/><path class="cls-26" d="M74.75,176.59a2.47,2.47,0,0,1,1.38-.32c.8-.05-.2.52.14.85a.71.71,0,0,1,1.23-.07c.3.31.64.06.86-.18a1.23,1.23,0,0,1,1.67-.14,3.16,3.16,0,0,0,2.5.28.69.69,0,0,1,.82.23c.29.27.2.52,0,.77-.4.53-.25.84.37,1a.37.37,0,0,1,.25.2c.49,1.3,1,.28,1.42,0,1.29.68-.24,1.85.59,2.59-.39.29-.72-.42-.67-.17.22,1.09-.73,1.07-1.2,1.5,0,0,.08.17.13.26-.65.49-1.32.05-2,0-1-.07-1.93.31-2.88,0a2.2,2.2,0,0,0-1.29-1.73c-.66-.26-1.1-.56-.86-1.25s.93-.45,1.49-.29a1.75,1.75,0,0,0-1.68-.2c-.6.22-1.09-.1-1.62-.11s-.74-.69-.65-1.14A6.9,6.9,0,0,0,74.75,176.59Z"/><path class="cls-27" d="M19,92.2l-.44-.44L18,91a.57.57,0,0,1,.8.08,4.6,4.6,0,0,0,4.55-1.31c1.19-1.18,2.25-2.51,3.51-3.59s2.7-2,4.49-1l1.1.67a13,13,0,0,0,2.64,3.09c-.11.86.82.67,1.13,1.12s1,.36.46,1c-2,.26-3.93.79-5.71-.61a2.06,2.06,0,0,0-2-.32,5.24,5.24,0,0,1-1,.18c-1.87.22-3.71.31-5.4,1.47A3.4,3.4,0,0,1,19,92.2Z"/><path class="cls-28" d="M3.16,176.12c-.07.23-.15.45-.22.68-.55-.32-.94,0-1,.46s-.25.7-.81.81c.22.18.45.35.68.52-.17.17,1.05.58-.12.65-.18,0,.07.65.37.86a.88.88,0,0,1,.45,1c-.12.72.69,1,.91,1.57.15.42.52.44,1.47.11.1,0,.17-.1.28,0a10,10,0,0,0,2.79.72c1.66.31,3-.56,4.56-.82.25,0,.31-.21.45-.3.39-.25.79-1.1,1.36-.12a.71.71,0,0,0,.91.09h0c.06.69.55.69,1,.63s.15-.55.29-.86c.67.26.49.93.73,1.37.4,0,.52-.37.68-.62a1.29,1.29,0,0,1,1.91-.56.55.55,0,0,0,.77-.12c.21-.23.16-.42-.11-.62s0-.44.12-.64.35-.15.57-.13c.44,0,.68.61,1.28.37-.07-.21-.54-.21-.41-.55a.88.88,0,0,0,.16,0c1-.32,1,.53,1.25,1.05.09.16.28.25.09.43s-.32.22-.44,0-.13-.4-.36-.19a.33.33,0,0,0,.06.49,7.55,7.55,0,0,0,1,.63c.1.05.44.14.37-.15s0-.83.42-.73.51.62.29,1.09a1.44,1.44,0,0,0-.06.43c-1.7.06-3.39.14-5.09.18-1,0-1.85.5-2.86.49-1.31,0-2.66.13-4,.17-1.68.06-3.5.67-5.14-.3-.54-.32-.85.32-1.38.3a6,6,0,0,1-3-.57c-1.64-1-3.3-2-3.51-4.32S.88,176.11,3.16,176.12Z"/><path class="cls-29" d="M74.75,176.59a1.6,1.6,0,0,1,.32,2c-.12.24.2.69.28.93.42.51.2-.66.49-.07s.38.35.74.25c.81-.22,1.66-.45,2.37.31.08.09.41-.09.32.23a.32.32,0,0,1-.45.19c-.26-.11-.44-.32-.8-.27s-.66,0-.62.49c0,.35.08.64.53.69a1.53,1.53,0,0,1,1.46,2h-.66c-.38-.4-.74.05-1.11,0l-.66,0a1.53,1.53,0,0,0-1.76,0c-.77.08-1.54.18-2.31.23a1.49,1.49,0,0,1-1.22-.27c-.25-.29-.14-.52.12-.72a1.66,1.66,0,0,0-.84.16c-.36.14-.67.06-.78-.34a3.4,3.4,0,0,0-1.41-1.88c-.43-.31-.67-.68.11-1s.63-1.29.92-2c.54-.65,1.29-.25,1.94-.37.2,0,.56.15.62,0,.55-1.09,1.43-.46,2.19-.47Z"/><path class="cls-30" d="M118.15,77.23c.11,1.45-.71,2.78-.54,4.26,0,.48-.45,0-.73.11.38,1.91,1.91,3.41,1.8,5.58-.07.06-.3-.12-.45-.31-1.12-1.44-2.78-2.25-4-3.57-.37-.39-.66-.86-.43-1.25a3.5,3.5,0,0,0,.06-3.12.51.51,0,0,1,.13-.5c.36-.5.17-.71-.38-.8a1,1,0,0,1-.54-.34c-.25-.28-.88-.3-.75-.82s.61-.56,1.08-.58c.8,0,1.17-1.17,2.12-.86C116.74,75.35,117.38,76.38,118.15,77.23Z"/><path class="cls-31" d="M134.9,175.93c.38,0,.76.26,1.14,0a32.77,32.77,0,0,1,5.14.39,2,2,0,0,1,1.5,1.11,11.65,11.65,0,0,0-4.12-.76,8.42,8.42,0,0,0-1.89.16c-.69.09-1.35-.17-1.85.57-.09.14-.13-.16-.18-.25a.62.62,0,0,0-.64-.35,11,11,0,0,1-3.29-.27,38.27,38.27,0,0,1-5.24-.52c-.17,0-.35-.21-.49-.17-2.47.62-5,0-7.49.51h-.21a18.84,18.84,0,0,1-4.17.4.42.42,0,0,0-.24-.41c-2.4-.1-4.8.07-7.19-.06-1-.05-2,.35-2.93,0-.81-.53-1.68.06-2.53-.17a13.24,13.24,0,0,0-4.7-.16c-.35,0-.93.2-.89-.43s.56-.29.89-.33a8.31,8.31,0,0,1,.87,0,4.1,4.1,0,0,1,3-.42,37.43,37.43,0,0,0,5.8.08c1-.05,2.09.13,3.14.15,1.86,0,3.71.25,5.57.36a15.39,15.39,0,0,0,3,0c2.69-.35,5.4,0,8.1-.42,1.57-.25,3.18.35,4.8.35a40.76,40.76,0,0,1,4.26.35A1.35,1.35,0,0,1,134.9,175.93Z"/><path class="cls-29" d="M56.68,183.35s0-.06-.08-.07c-.45-.08-1-.25-1-.64s.56-1,.87-1a6.23,6.23,0,0,1,3.8.7c.21-1.11.64-2.46-.76-2.87-.79-.23-1.39-.75-2.16-1s-2,.07-2.25-1.28c-.08-.4-.73-.16-1.09-.34s-.88-.05-1.26-.32c.07-.6.55-.47.92-.5a7.61,7.61,0,0,1,1.71.26,4.24,4.24,0,0,0,1.73.23l.3.08c.78.23,1.66.32,1.86,1.36a.48.48,0,0,0,.63.3,5.25,5.25,0,0,1,2.78-.07c.2,0,.32-.15.46-.25a.41.41,0,0,1,.56,0c.43.6,1.15.52,1.74.76a.77.77,0,0,1,.38.26c.15.38-.06.63-.35.82-.91.59-1.2,1.66-1.88,2.43-.22.24-.25.64.31.64.34,0,.77-.08.74.5a14.38,14.38,0,0,1-3.19.08C59.8,183.07,58.24,183.75,56.68,183.35Z"/><path class="cls-32" d="M136,174.38a17.11,17.11,0,0,1-3.12-.54c-1.06-.2-2.25-.17-3.38-.28-.25,0-.62,0-.73-.11-.78-1-2-.57-2.93-.69-.73-.1-1.46-.27-2.15-.43a53.57,53.57,0,0,0-7.88-.81c-.69-.06-1.38.57-2.06,0a.24.24,0,0,1,0-.31.84.84,0,0,1,.78-.29c1.76,0,3.51-.11,5.26,0,2.62.26,5.18.92,7.8,1.08a18.22,18.22,0,0,1,3.1.67,4.07,4.07,0,0,0,2.78.28c.58-.08.73-.81.66-1.4-.16-1.23-.08-2.49-.34-3.71-.06-.24-.15-.5.09-.71.14-.78.89-1.2,1.09-1.94.06-.23.28-.18.46-.09.35.18.81.34.72.83a1,1,0,0,0,.13.81Q136.13,170.54,136,174.38Z"/><path class="cls-17" d="M64.62,183.39c-.42-.68-1.13.14-1.65-.38a6.54,6.54,0,0,1,2.54-3.52c.13-.08.15-.32.22-.48-.07-.66.66-.95.72-1.61,0-.39.66-.31,1.06-.2.57.17.63.54.31,1,.85.18,1.32-.75,2.09-.56.3.83-.71,1.45-.27,2.25-.41.24-.7-.43-1.11.07.73.73,1.85,1.23,1.89,2.52,0,.21.27.12.45.07s.44-.68.9-.18-.33.61-.1,1c-1.11-.12-2.19.6-3.31.09-.52-.73-1,.29-1.57,0Z"/><path class="cls-33" d="M119.23,92.65a1.82,1.82,0,0,1-1,1.15,9.84,9.84,0,0,1-7.88.49c-1.24-.39-2.63-.42-3.62-1.35A9.73,9.73,0,0,0,103.64,91a4.16,4.16,0,0,0-1.57-.35c.13-.61.65-.47,1-.48a10.44,10.44,0,0,1,4.43,1.11,12.82,12.82,0,0,0,5.83,1.31,28.78,28.78,0,0,0,3.83-.08c.61-.1,1-.31.5-1,.38-.3.94-.24,1.3-.66.17-.2.23.12.3.26C119.27,91.64,119.25,92.14,119.23,92.65Z"/><path class="cls-34" d="M31.37,85.14c-2.14-.53-4,.72-5.44,2.44s-3.05,3.85-5.8,3.91a1.81,1.81,0,0,1-1.31-.4A15.19,15.19,0,0,1,21,91c.84.07,1.47-.78,1.8-1.51a3.85,3.85,0,0,1,2.34-2.13c.65-.24.95-.9,1.48-1.27,1.25-.87,2.5-1.78,4.18-1.37A.87.87,0,0,1,31.37,85.14Z"/><path class="cls-35" d="M136.85,183.21c.14-.22.15-.6.57-.49,1,.24,1.74-.47,2.65-.57.4-.05.67-.62.43-1.16-.32-.7-.58-1.3.68-1a1,1,0,0,0,1.22-.59c.21.1.61.37.47.43-.92.36-.6,1.5-1.15,1.86a7.11,7.11,0,0,1-2.64,1.38C138.34,183.22,137.63,183.7,136.85,183.21Z"/><path class="cls-36" d="M97.45,183.18c0-.19-.35-.49.2-.45a31.79,31.79,0,0,0,4.78-.07.92.92,0,0,1,.64.13,1,1,0,0,0,1.26.17c.51-.26.36.23.38.48a27.78,27.78,0,0,1-4.65-.15C99.19,183.29,98.32,183.22,97.45,183.18Z"/><path class="cls-37" d="M106.24,183.65c.13-.23.3-.48.59-.38.84.3.23-.44.43-.59a3.67,3.67,0,0,0,2.77.57c.87-.1,1.69.16,2.54.1,0,0,0,.13.06.2A27.32,27.32,0,0,1,106.24,183.65Z"/><path class="cls-38" d="M130.73,183.38c-.1-.25-.4-.6.18-.58a11.83,11.83,0,0,0,3.41-.05c.54-.15.24.38.15.65A15.1,15.1,0,0,1,130.73,183.38Z"/><path class="cls-39" d="M121.24,183.59a1.77,1.77,0,0,1,1.49-.44c1.17.09,2.34,0,3.51,0,.54,0,.21.16,0,.26A44.48,44.48,0,0,0,121.24,183.59Z"/><path class="cls-40" d="M91.52,183.16a5.85,5.85,0,0,1,4.14.2A40.84,40.84,0,0,0,91.52,183.16Z"/><path class="cls-35" d="M142.43,179.26h-.94c.54-1,.56-1,1.35-.49C142.69,178.92,142.71,179.22,142.43,179.26Z"/><path class="cls-26" d="M75.2,183.4c.65-.77,1.1-.78,1.76,0Z"/><path class="cls-29" d="M66.79,183.43c.52,0,1-1.14,1.57,0C67.84,183.17,67.31,183.87,66.79,183.43Z"/><path class="cls-26" d="M77.62,183.41l.91-.54c.19-.11.38-.08.46.11s-.2.25-.26.4A1.43,1.43,0,0,1,77.62,183.41Z"/><path class="cls-7" d="M119,116.47a5.92,5.92,0,0,1-.16-2.68A6.54,6.54,0,0,1,119,116.47Z"/><path class="cls-1" d="M6.25,136.71a2.5,2.5,0,0,1,0,2.2Z"/><path class="cls-41" d="M107.56,40.89h-.23c-.42-.06-.52-.31-.41-.68l.43-.65Z"/><path class="cls-42" d="M39.29,171.73a25.55,25.55,0,0,0-5.17,0c-2.56.51-5.06-.33-7.56,0-2.91.37-5.9-.22-8.74.54-1.62.43-3.26.4-4.87.81A4.64,4.64,0,0,0,11,174a1.56,1.56,0,0,1-1.71.22c-.61-.19-.75-.6-.68-1.23a1.5,1.5,0,0,0-.3-1.13c-.54-.5-.29-1-.11-1.44a.49.49,0,0,1,.69-.07,1.86,1.86,0,0,0,1.46.29,1.64,1.64,0,0,1,1,.34c1.75,1.08,3.29.28,3.46-1.82,0-.22,0-.5.19-.61.91-.5.4-1,.07-1.59a11.39,11.39,0,0,0-1-1.29c-.45-.57-.41-1,.31-1.41s1.7-.41,2.46-1a1.15,1.15,0,0,1,1.83.43,1.22,1.22,0,0,0,1.83.36,1.62,1.62,0,0,1,1.66-.24c.68.34,1.06.13,1.44-.47.29-.45.67-.83,1.06-1.53a4.21,4.21,0,0,1-2.56.71c-.61,0-1-.22-.94-.91a7.84,7.84,0,0,1,3.51-1c2.24-.3,4.52-.33,6.78-.52a8.83,8.83,0,0,1,6.85,2.52,54.35,54.35,0,0,0,4.75,3.85,5.86,5.86,0,0,0,4.11,1.15c0,.35.11.48.52.45,1.06-.07,1.56.48,1.29,1.5-.23.84,0,1.09.83,1.21a22.39,22.39,0,0,1,2.72.29,6.72,6.72,0,0,0,1.61.22c.48,0,1,.1,1.06.72-.18.56-.64.38-1,.35-1-.08-2-.18-3.06-.28a41.11,41.11,0,0,0-6.47,0,6.6,6.6,0,0,1-2.18-.13A13.5,13.5,0,0,0,39.29,171.73Z"/><path class="cls-43" d="M52.29,171.29a10.68,10.68,0,0,0-2.76-.31c-.87-.1-1.09-.42-.89-1.16.35-1.31.15-1.59-1.15-1.43a.72.72,0,0,1-.77-.29c-.2-.43.43-.25.5-.54a8.81,8.81,0,0,0,3.54-1.89,12.5,12.5,0,0,1,5.9-2.66c2.39-.45,4.7-1.34,7.15-1.54,3.84-.32,7.69-.83,11.55-.15,2.37.42,4.81.33,7.12,1.11a8.09,8.09,0,0,0,2.18.72c1,.7,2.2.76,3.12,1.52-.37.82.26,1.06.78,1.4s1.26.33,1,1.05-1,.74-1.67.77c-.4,0-.78-.16-1.19-.18s-1.07,0-1.36.62a1.12,1.12,0,0,1-1.3.62,3.38,3.38,0,0,0-2.28.55c-.5.25-.9.55-.46,1.18a.36.36,0,0,1-.12.56c-.4.2-.81,0-1.22.06a15.83,15.83,0,0,0-2.18.08H77.3a3.36,3.36,0,0,0-1.78.09c-.28.14-.57,0-.86.06a16.92,16.92,0,0,1-2.36.07,2,2,0,0,1-.34,0c-.39-.09-.73-.26-.6-.74s.51-.35.83-.31a13,13,0,0,0,2-.28,9.44,9.44,0,0,0,4.55-1.39c.62-.33,1.43-.24,2-.73.81-.64.81-1.17.06-1.88a1.63,1.63,0,0,0-2.14-.43c-.43.22-1,.54-1.47.23a8.62,8.62,0,0,0-2.94-.79,2.63,2.63,0,0,0-1.67.18c-.7.31-1.54-.12-2.32-.2-.28,0-.55-.23-.85-.11-1.28.5-2.62,0-3.92.25a5.87,5.87,0,0,1-3.82-.46c-.47-.24-.78.16-.92.55a1.68,1.68,0,0,1-1.59,1.1,4,4,0,0,0-3.13,2.25,1,1,0,0,0,0,1.13c.56.78.1,1.15-.61,1.34a5.08,5.08,0,0,1-2.39,0C52.83,171.24,52.57,171.09,52.29,171.29Z"/><path class="cls-44" d="M21.22,161.59a2,2,0,0,0,2.68.28c.39-.35.82-.52,1.12-.15s-.11.67-.49.81-.1.42-.3.63c-.68.76-1.21,1.71-2.45.76-.17-.13-.7.11-1,.28a1.61,1.61,0,0,1-2.54-.77c-.14-.31-.24-.25-.46-.2-1.27.31-1.27.31-1.26,1.16-.88-.79-1.53.06-2.26.25-.5.12-.2.67,0,.78.86.5,1,1.52,1.65,2.14.37.35.4.72-.2.86s-.65.4-.53,1a2.16,2.16,0,0,1-1.49,2.16c-1,.37-1.85.49-2.58-.45-.08-.1-.3-.21-.39-.17-1,.4-1.67-.28-2.48-.5h0a4.32,4.32,0,0,1-.16-2c0-.36.09-.75-.19-1-.61-.62-.23-.9.36-1.13A17.18,17.18,0,0,1,13,163.41a19.13,19.13,0,0,1,6.25-1.36A6,6,0,0,0,21.22,161.59Z"/><path class="cls-45" d="M33.34,143.33c0,.74-.21,1.37-1,1.43-1.54.1-2.3-.45-2.32-1.5a1.85,1.85,0,0,1,2-1.71C32.88,141.56,33.35,142.19,33.34,143.33Z"/><path class="cls-42" d="M8.23,166.24c-.3.33-.37.53-.09,1,.5,1,.13,2.07.08,3.13-.54,0-.66-.27-.66-.74s.16-.88-.2-1.25v-2.67C7.71,165.9,7.86,166.28,8.23,166.24Z"/><path class="cls-3" d="M85.86,153.43a2.61,2.61,0,0,1,1.63-1.24c.13-.06.43,0,.49.05a.4.4,0,0,1-.18.55A3.67,3.67,0,0,1,85.86,153.43Z"/><path class="cls-3" d="M88.52,156.31c-.36,0-.69-.1-.72-.51a.46.46,0,0,1,.53-.54c.38.06.87.14.86.66C89.19,156.28,88.82,156.3,88.52,156.31Z"/><path class="cls-3" d="M87,145.91c-.1.26-.29.4-.44.35a1.3,1.3,0,0,1-.88-.87c0-.15.24-.36.39-.27A9,9,0,0,1,87,145.91Z"/><path class="cls-46" d="M85.54,44.19c-.07,0-.18,0-.21-.06-1-1.63-2.62-1.18-4-.87-1.07.24-1.85-.71-2.78-.47s-2.13,0-3,.9a11,11,0,0,1-1.46,1.15c-1.73,2-6.82,3.17-9.23,2.18-1-1-1.33-2.34-2-3.48a.47.47,0,0,1,0-.61c.25-.21.5,0,.7.11s.64.6,1,.88a4.17,4.17,0,0,0,4.92.66c1.93-.75,3.25-2.38,5-3.44a25.72,25.72,0,0,1,5-2.68c1.07,0,2.15-.36,3.23.15a2,2,0,0,1,1.27,1.09,7.77,7.77,0,0,0,1.22,1.64c.23.32.53.63.44,1.08-.55.13-.76-.33-1.06-.63-1.78-1.78-3-2-5.33-1-2.47,1-4.86,2.2-7.43,3.29a21.53,21.53,0,0,0,3.06-1.35c2-.78,3.95-1.55,6-2.19a2.89,2.89,0,0,1,3.21.77A4.17,4.17,0,0,1,85.54,44.19Z"/><path class="cls-27" d="M41.06,44.39a23.56,23.56,0,0,0-2.39-2.62,2.4,2.4,0,0,0-3.12-.12c-.37.27-.72.56-1.19.93,0-1,.66-1.58.74-2.37a.48.48,0,0,1,.23-.43c.55-.24,1-.7,1.62-.8a3,3,0,0,1,2.79,1c1.75,1.15,3.12,2.76,4.84,4,.25.57-.06.58-.46.43a3.22,3.22,0,0,1-1.11-.7c-.82-.78-1.8-1.38-2.61-2.18-.09-.11-.11.16,0,0s0,0,.09,0c1.19,1,2.09,2.23,3.37,3.08a7.46,7.46,0,0,0,3.83,1.23,4.76,4.76,0,0,0,2.86-1.25,9.69,9.69,0,0,0,1.57-1.07,9.64,9.64,0,0,1,1.49-1.38c.56-.49,1.27-.73,1.86-1.17.06,0,.15-.11.2-.09,1,.45,1.64-.51,2.46-.77s1.57.39,1.77,1.8a.49.49,0,0,1-.48.19c-2.05-.41-3.47.66-4.78,2-.38.39-.77.78-1.14,1.18A6.7,6.7,0,0,1,50.21,47c-2.57.7-4.87-.12-7.2-1C42.39,45.43,41.37,45.34,41.06,44.39Z"/><path class="cls-47" d="M59.77,42a.71.71,0,0,0,0-.21c-1-1.88-1.21-1.92-2.83-.56-.31.25-.29.24-.75-.12-.23-.17-.48,0-.68.14-1,.65-2,1.32-3,2,0,.34.48.18.57.48-.1.07-.21.21-.27.19a1.79,1.79,0,0,0-1.89.73,4.84,4.84,0,0,1-5.12,1.18,11.48,11.48,0,0,1-2.08-.88c-1.25-.87-2.08-2.15-3.24-3.1a1.74,1.74,0,0,1-.65-.94c.92.67,1.88,1.28,2.74,2a19.71,19.71,0,0,0,1.76,1.28c.26.18.27-.09.3-.26a9.31,9.31,0,0,0,3,.72A4,4,0,0,0,50.81,43,16.91,16.91,0,0,1,56,38.23a3.94,3.94,0,0,1,2.25-.14,1.56,1.56,0,0,1,1.41,1.4,6.32,6.32,0,0,0,.69,2c.17.33.42.75-.14,1C59.92,42.49,59.71,42.35,59.77,42Z"/><path class="cls-27" d="M60.21,42.43c.41-.44-.07-.73-.2-1.06a7.43,7.43,0,0,1-.6-2.11c0-.48-.63-.86-1.2-.92s-1.45-.07-2.18-.11a3.11,3.11,0,0,1,2.72-.29,6.1,6.1,0,0,1,3.88,3.23,6.38,6.38,0,0,0,6.82,3.41c-1,1.18-2.62,1.19-4.42.13-.78-.46-1.15-1.39-2.21-1.76l2,3.87c-.86.41-1.48-.23-2-.63C61.47,45.29,60.29,44.22,60.21,42.43Z"/><path class="cls-16" d="M39.74,40c-.85-.28-1.46-1-2.53-.91-.74.08-1.18.7-1.88.71C36.79,38.33,38.61,38.41,39.74,40Z"/><path class="cls-48" d="M110.45,130.76a6.05,6.05,0,0,0,2.91,1.85,24.23,24.23,0,0,0,6,1.78,6.85,6.85,0,0,0,3.13-.4,1.34,1.34,0,0,1,1.34.16,4.74,4.74,0,0,0,3.79.8c.9-.11,1.79-.18,2.29,1,.32.73,1.11.41,1.65.26.82-.24,1.13,0,1.47.78.46,1,.22,2.15.45,3.08a19.12,19.12,0,0,1,.33,4.44,7.94,7.94,0,0,1-.15,2.57s0,.08,0,.11c.53,1,.91,2-.4,2.8-.22.13.15.52.31.74.6.81.26,1.42-.45,1.87-1,.61-1.05,1-.11,1.66s.94,1.74,1.2,2.7a2.91,2.91,0,0,1-.72,2.59c-.69.9.14,1.57.58,2.11s.29,1-.16,1.46c-.14.13-.52.1-.4.4.37,1-.31,1.42-1,1.87a2.14,2.14,0,0,1-2.19-.5c-3.54-2.83-7.7-3.7-12.09-3.8-.81,0-1.62,0-2.42,0-.37,0-.84,0-1-.5a41,41,0,0,0,5.08-.23c.54-.11,1,.53,1.55.2a.73.73,0,0,1,.81-.19c1,.48,1.84-.09,2.73-.26.13-.39-.16-.5-.33-.66a2.32,2.32,0,0,1-.53-3.06,1.15,1.15,0,0,0-.08-1.49,1,1,0,0,1,0-1.4c1.13-1,.51-2.14.14-3.21a4.94,4.94,0,0,1-.55-2.64.49.49,0,0,0-.23-.57c-1-.56-.58-1.09,0-1.61a4.32,4.32,0,0,0,1.27-1.77.7.7,0,0,0-.35-1c-1-.57-1-.58-.28-1.46-.09-.37-.46-.3-.69-.45-.51-.34-.78-.71-.2-1.21s.37-.95-.14-1.33a8.69,8.69,0,0,0-1.54-.81c-1.26-.58-2.44-1.29-3.91-.72-.25.1-.54-.18-.82-.28a4,4,0,0,0-3.09-.15c-1.26.5-1.48.36-2.32-.67a9.3,9.3,0,0,0-7.67-3.72,24.62,24.62,0,0,0-4.17.82c-.76.13-1.38.11-1.81-.62-.18-.3-.45-.54-.82-.42-2.28.73-4.61,1.3-6.48,3a5.41,5.41,0,0,1-4.32,1.06,1.59,1.59,0,0,0-1.06.21c-1.63.89-3.09,2.12-5.25,1.77a8.43,8.43,0,0,0-3.57,0c-1.72.45-3.38-.32-5-.69a.54.54,0,0,1-.48-.4,2.34,2.34,0,0,1,3-.67,2.38,2.38,0,0,0,1.35.33,35.14,35.14,0,0,0,6.82-1.33,18.26,18.26,0,0,0,6.33-4.16c.69-.65,1.66-.73,2.39-1.28.51-.09,1-.35,1.46-.47a26.41,26.41,0,0,1,9.12-.51,1.9,1.9,0,0,0,2-.83c.2-.31.35-.55.75-.48,1.66.57,3.06,1.71,4.73,2.27A2.91,2.91,0,0,1,110.45,130.76Z"/><path class="cls-49" d="M70.79,136.48c2,.61,4.06,1.48,6.25.64a1,1,0,0,1,.63,0,24,24,0,0,0,4.06.23c.56,0,.86-.41,1.21-.67.72-.53,1.83-.46,2.25-1.47.1-.25.37-.25.66-.09,1.22.64,3.63,0,4.64-.92a14.77,14.77,0,0,1,2.88-1.78c1-.58,2.23-.37,3.18-1.06a.82.82,0,0,1,1.36.35c.33.79.83.91,1.58.61a13,13,0,0,1,1.27-.29,11.09,11.09,0,0,1,6-.05,7.81,7.81,0,0,1,4.42,2.87c1,1.36,1.8,1.49,3.22.84a3.08,3.08,0,0,1,2.61.41,1.58,1.58,0,0,0,1.88,0,.91.91,0,0,1,1.48.26,1.78,1.78,0,0,0,1.5.76c.85,0,1.39.72,1.94,1.24a.69.69,0,0,1-.24,1.23c-.18.07-.46.14-.44.42s.32.38.55.48c1.15.51,1.15.51.13,1.4,0,.05-.08.11-.13.17a5.43,5.43,0,0,1,1.1.34c.46.24.65.54.36,1.15a5.37,5.37,0,0,1-1.61,2.16c-.79.59-.47.88.22,1.05.49.11.7.22.31.68s-.21.7-.06,1.11a24.5,24.5,0,0,0,1.24,3.42c.18.34,0,.47-.21.64-.76.78-1.42,1.55-.34,2.61.3.28.32.61-.11,1a2,2,0,0,0,.26,2.87c.31.25,1,.33.76.92s-.77.2-1,.39c-1,.8-2.07,0-3.09,0,0-.81,0-1.61,0-2.42a1.41,1.41,0,0,0-.34-1.12c-.32-.31-.54-.66.12-.89.33-.11.28-.37.33-.68a11.72,11.72,0,0,0-.51-4.6,1.31,1.31,0,0,1,.3-1.11,1.64,1.64,0,0,0-.14-2.28c-.67-.69-.74-1.83-1.82-2.24-.32-.13.09-.81-.26-1.28-1-1.31-2.25-2.35-3.18-3.66a13,13,0,0,0-2.75-2.65,38,38,0,0,0-3.06-2.67,3.09,3.09,0,0,0-2.54-.14c-.34.12-.71.33-1,.09s-.82-.84-1.09.16c-.06.23-.39,0-.58-.08a13.25,13.25,0,0,1-2.06-.73c-2-1-3.8-.31-5.56.46s-3.73,1.08-5.22,2.42c-2.13-.35-3.84,1.86-6.07,1a.37.37,0,0,0-.31,0c-1.26.81-2.77.65-4.12,1.11a2.12,2.12,0,0,1-1,.12c-2.49-.41-5-.22-7.49-.43-.32,0-.73.05-.74-.43,0-1.07-.84-1.26-1.59-1.3a4.67,4.67,0,0,1-4.09-2c0-.06-.11-.13-.17-.13-1.71-.09-2.82-1.41-4.25-2.07-.13-.06-.3-.06-.4-.15-1.71-1.57-3.93-2.25-5.92-3.3a6.47,6.47,0,0,0-4.19-.39,6.79,6.79,0,0,1-2,.07c-1.07-.15-2,.43-3,.46-.09-.66.43-.83.87-1s.77-.15,1.13-.29c2.28-.83,4.56-.26,6.83,0a1.82,1.82,0,0,1,.82.31,13.11,13.11,0,0,0,5.21,1.83,1.75,1.75,0,0,1,.8.35c1.35,1.15,2.93,2,4.29,3.16a8.51,8.51,0,0,0,3.8,2.23A.63.63,0,0,1,70.79,136.48Z"/><path class="cls-50" d="M70.79,136.48h-.2a31.41,31.41,0,0,1-4.79-3.23c-1.37-1.05-2.59-2.27-4-3.23a14.54,14.54,0,0,0-4-1.74,29.1,29.1,0,0,0-8.27-1.11,10.75,10.75,0,0,0-5.46,1.66c-.86.48-1.73.93-2.6,1.4-.47.26-.88.71-1.5.53a32.07,32.07,0,0,1-6.61,3.08c-2.65.09-5.28.64-7.94.56a18.49,18.49,0,0,0-2.35.49,5.72,5.72,0,0,1-2.26-.16,17.5,17.5,0,0,1-5.06-2.52c-1.52-1.11-3.31-1.83-4.64-3.25-.44-.46-1.11-.1-1.68,0s-.95.36-.83-.65c.16-1.37,0-1.38,1.52-1.31.18,0,.37,0,.55,0a17.06,17.06,0,0,1,3.19,2.48,13.14,13.14,0,0,0,8.1,3.25c.58,0,1.17,0,1.76,0a14.18,14.18,0,0,0,8-1.81c2.48-1.28,5.08-2.34,7.62-3.49.73-.34,1.49-.6,2.22-.92a2.77,2.77,0,0,1,2.43-.22,1.47,1.47,0,0,0,1.18,0c1.16-.49,2.42-.6,3.6-1a4.73,4.73,0,0,1,3.13-.08,4.79,4.79,0,0,0,2,0,4.06,4.06,0,0,1,2.71.69,3.85,3.85,0,0,0,1.6.69c1.56.17,2.73,1.16,4.09,1.75,1.36.8,2.89,1.35,3.94,2.61a.82.82,0,0,0,.68.26c1.75,1.17,3.52,2.28,5.71,2.38a1.17,1.17,0,0,1,.53.11.57.57,0,0,1,.42.56c-.67.74-1.34-.06-2.22.06a20.54,20.54,0,0,0,8.81-.16c1-.29,2.09-.62,3.12-1a9.92,9.92,0,0,0,4-2.38,6.18,6.18,0,0,1,3.19-1.5c.16.07.28.16.22.36-2.62,1.19-4.29,3.8-7,4.83-1.86.72-3.65,1.77-5.77,1.67a13.69,13.69,0,0,0-1.78.21,3.8,3.8,0,0,1-2.57-.24A2.38,2.38,0,0,0,70.79,136.48Z"/><path class="cls-51" d="M108.24,171.28H106c-.8-.17-1.55-.75-2.41-.22-1.71-.29-3.45-.18-5.18-.5-.93-.18-2-.15-3-.37a9.91,9.91,0,0,1-2.36-1.26.61.61,0,0,0-.69,0c-.73,0-1.06-.59-1.52-1s-1.06-1-.47-1.75a.23.23,0,0,1,.37,0c.69.37,1.37.75,2.06,1.1a3.35,3.35,0,0,0,2.37.2c.5-.1,1.07-.4.94.58-.07.45.37.37.64.36,1.34,0,2.65.26,4,.35.72,0,1.3-.68,2.1-.4.21.08.51-.09.68.19s.55.36.93.19a2.09,2.09,0,0,1,1.61.15,3.27,3.27,0,0,0,2.35-.1,33.43,33.43,0,0,1,4.72-1.34c.15,0,.31,0,.24-.24-.25-.84.55-1,.94-1.42-.18-.35-.43-.2-.66-.12a2.71,2.71,0,0,1-3-.85c-.22-.27-.14-.8-.62-.83s-.47.52-.77.63c-.24-.05-.33-.19-.34-.32a1.8,1.8,0,0,0-1.86-1.9c-.2,0-.44-.1-.38-.41,2.19-.86,4.54-.91,6.82-1.33,1.59.58,3.17,1.21,4.78,1.71,1.07.33,1.09.27.57,1.21a6.88,6.88,0,0,0,2.38-.22c.93-.18,1.12.08.79,1,0,.06-.11.15-.07.2.93,1.08-.14,2.43.47,3.55.28.5,0,.66-.45.67s-.73,0-1.1,0a9.38,9.38,0,0,0-3.76.43c-1.51.61-3.24.26-4.87.43a13.61,13.61,0,0,0-4,1.31C108.18,171,108.29,171.18,108.24,171.28Z"/><path class="cls-52" d="M108.24,171.28l-.51-.34c.46-.63,1.66-.15,1.83-1.23,0-.05.19-.11.28-.1a14.88,14.88,0,0,0,4-.36c1.11-.15,2.35.38,3.28-.22,1.71-1.12,3.47-.18,5.17-.53-.22-.64-.87-1.33-.11-2.21.28-.32-.2-.84-.41-1.27s-.83-.85.25-.93c.34,0,.19-.32,0-.43a.75.75,0,0,0-.74,0c-.82.45-1.78.06-2.61.43-.16.08-.28,0-.35-.18s0-.26.12-.37.45-.48.73-.79c-1.53.13-2.66-.83-4-1.19a7.05,7.05,0,0,0-1.64-.35c-.28,0-.27-.05,0-.52l1.3-.21a2.87,2.87,0,0,0,1.71.14,30.63,30.63,0,0,1,9.43,1.27c1.71.49,3.07,1.75,4.55,2.74-.17.6.21.75.65.64.61-.15.83.13.86.64a1.27,1.27,0,0,0,.5.81c.93,1,.71,2.15.68,3.28,0,.51-1.19.54-1.64,0-.25-.31-.38-.32-.78-.34a3.33,3.33,0,0,1-1.78-.45,1.14,1.14,0,0,0-1.15-.15,1.78,1.78,0,0,1-2-.46c-.49-.48-.55-.07-.81.12a4.27,4.27,0,0,1-2.29,1.09,7.79,7.79,0,0,0-2.67.35.72.72,0,0,1-.28.13,5.92,5.92,0,0,1-2.48.08,3.07,3.07,0,0,0-2.38.5,3,3,0,0,1-1.9.11,1.35,1.35,0,0,0-1.24.24,5.61,5.61,0,0,1-3.12,0Z"/><path class="cls-53" d="M106.71,162.06a1.69,1.69,0,0,0,.38.19c1.82.24,2,.4,2.08,2.26.29-.33.15-.93.87-.85s.55.44.69.84a2.44,2.44,0,0,0,2.85.95c.32-.18.63-.41,1,0,.12.16.48.09.45.4s-.29.28-.48.38c-.53.26-1.52.35-.52,1.28.23.21-.08.47-.26.39-.86-.39-1.56.1-2.3.32l-3.92,1.22c-.85.27-1.54-.43-2.35-.38-.12,0-.31-.18-.37-.14-.6.43-1.2,1-1.45-.3-.45.61-1-.29-1.61.19-.33.3-.91.88-1.44.1-1.17.58-2.23-.48-3.42-.21-1,.23-1,.08-.9-.85.08-.55-.49-.18-.73-.32a24.45,24.45,0,0,0,5.15-2.85A19.58,19.58,0,0,1,106.71,162.06Z"/><path class="cls-53" d="M90.8,166.24c-.51.57-.51.57.26,1.53,0,.59-.5.64-.89.76a18,18,0,0,1-4.66.92c-.15,0-.35,0-.42.07-.81,1.25-2.35.94-3.43,1.6a.31.31,0,0,1-.29-.06c-.88-1.06-.74-1.43.57-2a3,3,0,0,1,2.3-.36c.34.12.89-.12.91-.44.08-1.22.91-.82,1.56-.81.8,0,1.61.41,2.4-.12.14-.1.35-.11.36-.34s-.17-.27-.34-.36a13.75,13.75,0,0,0-1.25-.67c-1.08-.39-.75-.82-.1-1.31C88.71,165.34,89.93,165.46,90.8,166.24Z"/><path class="cls-54" d="M20.79,134.73c1.85.37,3.52-.72,5.34-.69a10.71,10.71,0,0,0,3.75-.23,7.1,7.1,0,0,1,3.46,0,18.57,18.57,0,0,1-4.4,1.11,12.06,12.06,0,0,0-2.53.3A10.39,10.39,0,0,1,20.79,134.73Z"/><path class="cls-25" d="M40,130.76l1.32-.66a9.28,9.28,0,0,1,2-.49c1.26-.21,2.59-.11,3.67-1.1a1.41,1.41,0,0,1,1.82.05c-.65.38-1.61.2-2,1.1-.91,1-2.5.7-3.44,1.68-.06.06-.27.06-.3,0-.73-1-1.54-.31-2.31-.1C40.29,131.36,40,131.22,40,130.76Z"/><path class="cls-49" d="M78.6,143.32c-.57-.19-1.53-.08-1.57-1,0-.66.66-.76,1.24-.72.74,0,1.44.24,1.52,1.08S79.19,143.31,78.6,143.32Z"/><path class="cls-5" d="M73.45,134.27c-.66-.79-1.64-.34-2.45-.61a8.25,8.25,0,0,1-4.17-2.46c1.32,0,2.25,1.14,3.57,1.28a8.79,8.79,0,0,0,2.16.25c1.1-.18,2.12.59,3.23.24.25-.07.56-.06.62-.35s-.27-.41-.49-.5c-.45-.19-.83-.58-1.43-.37-.89.32-1-.3-.73-.86.6-1.08-.08-1-.76-1a5.12,5.12,0,0,1-2.88-.75c-.46-.28-.68-.53-.31-1,.13-.16.38-.33.16-.55s-.4,0-.61.05c-1.18.41-1.25.34-1.1-.86.08-.64-.4-.93-.9-1-.74-.16-.93-.43-.34-1,.38-.35.64-.78.38-1.26s-.7-.31-1.16-.3a4.51,4.51,0,0,1-3.57-1.85,3.27,3.27,0,0,0-2.56-1.12c-.56-.07-1.14,0-1.79-.12.76-.48,1.79-.78.8-1.88l.11-.12a8,8,0,0,1,6.25,1.2,3.06,3.06,0,0,0,1,.43,4.43,4.43,0,0,1,2,1,1.64,1.64,0,0,0,2,.18,1.28,1.28,0,0,1,1.9.37c.71.86,1.59.62,1.93-.46a1.61,1.61,0,0,1,2.52-.52c.42.44-.09.7-.26,1,.68.37,1.08,0,1.43-.45a1.71,1.71,0,0,1,1.84-.66,15.45,15.45,0,0,0,2.72,0c1.41,0,2.82,0,4.24-.09a.92.92,0,0,1,1,.64,1.17,1.17,0,0,1-.52,1.34,7.54,7.54,0,0,1-1,.56A4.73,4.73,0,0,1,89.6,122a12.22,12.22,0,0,1,3.36.81.81.81,0,0,1,.51.88c0,.42-.36.44-.67.58-1.51.68-3.25.85-4.41,2.26a2.24,2.24,0,0,0-.7,1.42,3.9,3.9,0,0,1-1.88,1.62,19.57,19.57,0,0,0-3.72,2.73,6.25,6.25,0,0,1-2.64,1.51,16.35,16.35,0,0,1-5.2.73A.94.94,0,0,1,73.45,134.27Z"/><path class="cls-55" d="M32.24,116.69a38.32,38.32,0,0,1-9.13-.67c-1.2-.28-1.26-.41-.64-1.47,1.62-2.73,4.3-3.79,7.09-4.72.45-.14.9-.3,1.34-.45.67-.15,1.26.26,1.91.21s1.49-.06,1.88.81c.09.2.2-.1.31-.15a.81.81,0,0,1,1.26.4,1.65,1.65,0,0,0,1.86,1c.45,0,1-.17,1.15.34s-.28.81-.67,1c-1.18.47-2,1.53-3.24,1.89a1.39,1.39,0,0,0-.75.61,20.25,20.25,0,0,0,8.35,0,22.57,22.57,0,0,1,5.13-.07,3.19,3.19,0,0,0,.54-.07,1.46,1.46,0,0,1,1.17.22,1.92,1.92,0,0,0,1,.43c.63.21.58.53.08.86a4.88,4.88,0,0,1-2-.06,48.11,48.11,0,0,0-7.78.07,37.61,37.61,0,0,1-4.75-.26,2.18,2.18,0,0,0-1.16.05Z"/><path class="cls-56" d="M62.21,128.33c-1.78-.69-3.75-1-5.35-1.94s-3.14-.44-4.57-.85c-2.2-.64-4,.45-6,.61-.51,0-.89.49-1.43.5-.21,0-.49.19-.62.11-1.53-.93-2.79.14-4.14.51-.28.08-.57.13-.85.19a16.29,16.29,0,0,1,4.05-1.79c1.45-.52,2.77-1.53,4.36-1.48,2.15.08,4.3-.35,6.45.43,1.6.58,3.17,1.21,4.77,1.78A14.13,14.13,0,0,1,62.21,128.33Z"/><path class="cls-5" d="M35.09,116.65a2.89,2.89,0,0,1,1.92-.16,23.76,23.76,0,0,0,4,.17,8,8,0,0,1,2.18-.09,31.93,31.93,0,0,0,3.79.07c2.18.08,4.36.18,6.55.16,1,0,2.09.19,3.14.28a1.44,1.44,0,0,1,.36.15c.41.31.89.17,1.34.25s.93,0,.71.72h0a11.67,11.67,0,0,0-4.82.82,1,1,0,0,1-.75,0c-1.26-.6-2.75-.46-3.95-1.22a4.26,4.26,0,0,0-3.18-.42,1.37,1.37,0,0,1-.94-.08,1.47,1.47,0,0,0-.73-.22C41.5,117.56,38.31,116.79,35.09,116.65Z"/><path class="cls-57" d="M36.86,74.15c.53.06,1.24,1.15,1.53-.3.06-.32.59-.09.89-.15l.12.12c.12.62.39,1,1.11.81,1.42-.32,2.88-.12,4.31-.38,1.61,0,3.22,0,4.82.07a19.31,19.31,0,0,0,4.64.76c2.28.27,4.56.88,6.88.51,3-.48,6.06.14,9.1,0a2.74,2.74,0,0,0,.76,0c2.54-.84,5.08-.22,7.62,0a17.75,17.75,0,0,0,2.19-.12c2.33-.13,4.66.36,7-.16,1.14-.26,2.3.36,3.49.21a.64.64,0,0,1,.64.52c.07.29-.13.49-.32.65-.42.37-.85.73-1.49.5a.57.57,0,0,0,.77.33,2.34,2.34,0,0,1,2.31.66A2.27,2.27,0,0,0,96,78a2.5,2.5,0,0,1,3.13-.29c.77.4.88.87.39,1.59a4.61,4.61,0,0,1-2.44,1.51A4.15,4.15,0,0,0,100,81c.75-.23,1.35-.28,1.83.44a.83.83,0,0,0,.64.39c.58.06,1.16.17,1.19.89s.19,1.59-.53,2.25a4.16,4.16,0,0,1-3,1.1A1.45,1.45,0,0,1,99.22,88a7.06,7.06,0,0,1-1.5.33c-.79.14-1.63.24-1.89,1.22-.08.28-.37.29-.61.39-1.48.57-3,.2-4.45.08A4.9,4.9,0,0,0,89.24,90c-.25,0-.62.08-.61-.39a2.2,2.2,0,0,1,1.44-.44c1,0,1.45-.54,1.43-1.52,0-.37,0-.73,0-1.1,0-1-.4-1.43-1.41-1.26a3.3,3.3,0,0,1-2-.52c-1.48-.69-2.81-1.72-4.53-1.8-.22,0-.56-.09-.57-.41s.28-.35.47-.4c.78-.19.95-1,1.6-1.44.5-.3.07-.67-.38-.79-.93-.23-1.81.25-2.77.21a4.37,4.37,0,0,1-1.8-.61.54.54,0,0,1-.28-.75c.13-.31.34-.62.73-.53,1,.24,2.06.07,2.93.76.33.27.72.29.92-.14a.59.59,0,0,0-.51-.88c-1.09,0-2-1-3.17-.51a1,1,0,0,1-.92-.25,1.3,1.3,0,0,0-1.43-.26c-.12.06-.35.12-.42.06-1-.88-1.77,0-2.55.3a1.6,1.6,0,0,1-2-.49c-.21-.22-.34-.47-.71-.31-1.79.74-3.58.11-5.39,0a54.07,54.07,0,0,0-8,0,2.69,2.69,0,0,1-1.08.07,19.54,19.54,0,0,0-5.2-.63,38.23,38.23,0,0,0-4.28,0,10.5,10.5,0,0,1-4.24-.42,3.45,3.45,0,0,0-2.85.26,4.78,4.78,0,0,1-1.34.38A2.93,2.93,0,0,1,36.86,74.15Z"/><path class="cls-16" d="M88.63,89.56a13.87,13.87,0,0,0,2.42.18,8.1,8.1,0,0,0,4.26,0c.13,0,.32,0,.33-.19,0-1.6,1.37-1.23,2.28-1.48.59-.16,1.24-.11,1.73-.57s.73-.81,0-1.18c-.21-.1-.44-.17-.33-.45s.34-.19.56-.13a3.28,3.28,0,0,0,3.29-1.18c.44-.44.3-1.36.17-2s-.58-.18-.91-.21a1.05,1.05,0,0,1-1-.74c-.17-.57-.49-.63-1-.33-1,.58-2.08.14-3.12.18-.36,0-.57-.35-.57-.7s.32-.35.58-.35a2.62,2.62,0,0,0,2.08-1.24c.32-.4.6-.86-.3-1.06-.59-.13-1.06-.66-1.8-.38-.37.14-.69.14-1,.56-.51.79-2.46.82-3.15.23S92,77.23,91,77.78c-.52.29-1.4-.4-1.39-1a.35.35,0,0,1,.14-.27c.15-.11.25,0,.37.11a1.5,1.5,0,0,0,1.66-.49.35.35,0,0,0,0-.29c-.19-.18-.46-.39-.68-.24-.57.41-1.11.14-1.63,0-1.44-.43-2.82.09-4.21.21s-2.76-.35-4.18-.16a17.05,17.05,0,0,1-6.28-.32,3.47,3.47,0,0,0-1.71.11,18.94,18.94,0,0,1-7,.28c-2.19-.25-4.38.23-6.58.24a10.19,10.19,0,0,1-2.15-.14c-2-.41-4-.53-6.06-.79a3.35,3.35,0,0,1-1.35-.4c.5-.54,1.13-.31,1.72-.29a10.19,10.19,0,0,0,2.7.15,7.32,7.32,0,0,1,2.14.11,3.43,3.43,0,0,0,2.6.54c2.46-.33,4.95-.2,7.42-.35l10.38-.32c.6,0,1.25.43,1.82-.13,2.15-.25,4.3,0,6.45-.09,1.54-.08,3.07.09,4.61,0,.82,0,1.69-.22,2.45.33.82-.25,1.43.41,2.2.53a18,18,0,0,1,4.8,1c.19.09.52.15.56.29.52,1.83,2.37,2.38,3.51,3.61A25.72,25.72,0,0,0,108,83.92a9.18,9.18,0,0,0,1.94,1,2.36,2.36,0,0,1,1,.61c.32.38.94.63.79,1.23s-.83.21-1.22.4c-1.36.68-2.87.44-4.29.63-.68.09-1.46-.64-2.2-1-1.39-.68-3.49-.53-4.14,1.43-.07.79-.78.84-1.29,1.12a6.55,6.55,0,0,0-1.28.47,23.48,23.48,0,0,1-3.89,1,7.13,7.13,0,0,1-1.73-.09c-1.5-.29-3-.44-4.54-.66-.37,0-.84,0-1-.53a.51.51,0,0,1,.7,0C87.46,89.42,88.05,89.91,88.63,89.56Z"/><path class="cls-58" d="M86.19,89.57c1.7.54,3.52.37,5.23.86s3.48-.2,5.17-.68c.28-.08.56-.14.85-.21a.38.38,0,0,1,0,.44.84.84,0,0,1-.24.18A6.72,6.72,0,0,0,95,91l-.28.11a6.94,6.94,0,0,1-1.81.26c-1.39,0-1.48.1-.89,1.26-.41.43-.91.32-1.41.24a2.15,2.15,0,0,0-2.63-.06c-.29.18-.68.06-.93,0,1.34-.1,2.69.94,4.17.33a1.1,1.1,0,0,1,.31,0c1,.29,2-.43,3-.31.58.07,1.39-.32,1.52.72-1.15,1-2.63,1-4,1.11a34.72,34.72,0,0,1-9.69-.89,11.45,11.45,0,0,1-3.94-1.88c-.86-.61-1.67-1.31-2.48-2-1.12-1-2-1.1-3.07-.17-1.39,1.17-3,2-4.42,3.07A16.06,16.06,0,0,1,63,95.07a1.63,1.63,0,0,0-1.7,0c-.73.44-1.64,0-2.44.3-.18.08-.42-.09-.54-.29s.07-.4.22-.54a3.84,3.84,0,0,1,.67-.55,14.3,14.3,0,0,1,3.21-.71c3-.54,5.64-2,8.34-3.31a1.59,1.59,0,0,0,1-.65,5,5,0,0,1,.43-.5c1.15-1.18,1.15-1.19.13-2.56a29.11,29.11,0,0,1-4.69,3,.57.57,0,0,1-.71-.14c-.2-.26,0-.48.18-.68a2.84,2.84,0,0,1,.9-.79A2,2,0,0,0,69,86.48a1.47,1.47,0,0,1,.74-.79,3,3,0,0,0,1.27-1.46c.57-1.23,1.06-1.28,2.31-.74.81.35,1.39,1.09,2.3,1.21,1.56.93,2.77,2.38,4.46,3.15.32.15.67.27,1,.41.72.27,1.55.19,2.22.66h0C84.25,89.31,85.26,89.26,86.19,89.57Z"/><path class="cls-59" d="M71,90.22c-1.54.72-3.07,1.47-4.62,2.17a31.37,31.37,0,0,1-7.26,1.8,15.15,15.15,0,0,1-7.3.86,3.07,3.07,0,0,0-1.2-.09c-1.89.46-3.6-.31-5.36-.75a1.3,1.3,0,0,1-.49-.23c-.18-.14-.34-.31-.23-.56s.34-.19.56-.11c.4.14.78.41,1.08.32A23.66,23.66,0,0,0,43.53,93c-.26,0-.57-.21-.49-.6,1.89.09,3.57,1,5.4,1.35a7.74,7.74,0,0,0,5.33-.63A12.53,12.53,0,0,1,58,92a11.73,11.73,0,0,0,3.75-1.33c1.82-.91,3.56-2,5.39-2.88,1.5-.74,2-2.29,2.72-3.7.78-1.64,1.89-2.07,3.49-1.36a1,1,0,0,1,.45.29,6.56,6.56,0,0,0,1.83,1.65c-1,.19-1.62-.72-2.47-1s-1.63-.39-1.89.6A2.58,2.58,0,0,1,69.87,86c-.1.06-.26.09-.28.16-.33,1.45-1.9,1.77-2.81,3.07a5.57,5.57,0,0,0,2.66-1.28,4.17,4.17,0,0,1,1.67-1c.33-.08.64-.23.63-.63,0-.23-.49-.6.06-.62.36,0,.73.37,1.1.58-.32.57.3.72.46,1.07a.93.93,0,0,1-.4,1.15,4.26,4.26,0,0,0-1.07,1.09A1.15,1.15,0,0,0,71,90.22Z"/><path class="cls-60" d="M43,92.42c1.08.7,2.41.68,3.65,1.28-.75.26-1.33-.15-1.92-.37,0,.17-.07.28-.06.29,1.74.59,3.43,1.44,5.35,1a9.9,9.9,0,0,1,2.72.19,16,16,0,0,0,5.72-.79.93.93,0,0,1,.62.12,1.64,1.64,0,0,1-.16.29c-.15.2-.32.38-.49.57.38.31.65.18.9-.19.08-.13.22-.14.37,0a1.59,1.59,0,0,0,1.78-.15c.8-.46.82-.44,1.36.19,0,.44-.36.52-.66.6-1.33.36-2.62.84-4,1.13-.66,0-1.34-.19-1.94.3a1.15,1.15,0,0,1-.75.15,41.49,41.49,0,0,1-8.51-1.15,2.21,2.21,0,0,1-.88-.44c-1.22-1.14-2.81-1.51-4.31-2.06S39,92,37.52,91.56a.87.87,0,0,1-.66-.67,6.85,6.85,0,0,0-1.69-1.23c-.21-.14-.93-.44-.06-.76a20.82,20.82,0,0,0,4.78,2.41C40.94,91.67,42,92.05,43,92.42Z"/><path class="cls-57" d="M86.19,89.57a5.07,5.07,0,0,1-2.85-.66,16.27,16.27,0,0,0,3,.24c.27-.05.46.17.58.41Z"/><path class="cls-57" d="M83.34,88.92a5,5,0,0,1-2.22-.66c.6-.15,1.16.19,1.77.07C83.23,88.26,83.33,88.61,83.34,88.92Z"/><path class="cls-61" d="M58.23,96.38c1.49-.69,3.18-.78,4.65-1.52a13.57,13.57,0,0,0,4.76-2,1.2,1.2,0,0,1,.73-.19,11.26,11.26,0,0,1,9.4-.05,29.22,29.22,0,0,0,6.91,2.05c2,.4,4,.3,6,.56.9.13,1.82.17,2.73.27a4.43,4.43,0,0,1,3.22,2.06,10.35,10.35,0,0,1,1.4,3.21,5.51,5.51,0,0,1-.76,4.11c-1,1.83-2.35,3.46-3.34,5.3-.23.43-.75.58-1,1a.52.52,0,0,1-.31.14c-1.95.33-3.54-.58-5.28-1.24a14.84,14.84,0,0,0-5.81-.72,3.92,3.92,0,0,1-.76,0,22.76,22.76,0,0,1-4.43-.56c-.52-.17-.84.39-1.29.5a2.57,2.57,0,0,1-1.23-.15,14.78,14.78,0,0,0-4.16-.88,13.66,13.66,0,0,0-3.38-.34,11.38,11.38,0,0,1-5.39-1.3c-.22-.1-.48-.22-.43-.55,1,0,2-.32,3.05-.24a.77.77,0,0,0,.88-.8c-.18-1.4.71-.92,1.36-.82a1.56,1.56,0,0,1,1,.5c.13.16.29.4.53.31s.26-.4.27-.66c0-1-.64-1.34-1.41-1.57-.54-.15-1.12-.21-1.77-.33.44-.23,1,0,1.16-.46s1-.62.82-1.18-.83,0-1.26,0a1.63,1.63,0,0,1-1-.27,1.45,1.45,0,0,0-1.12-.38c-.72.1-1.07-.23-1.47-.83a3.28,3.28,0,0,0-3-1.15c-1.83,0-3.66.13-5.49.21a29,29,0,0,0-3.72.17,3.59,3.59,0,0,1-3-.65,1.38,1.38,0,0,0-1.06-.18c-1.68.17-3.24-.43-4.84-.76a2,2,0,0,1-1-.58c-.75-.94-2.05-.92-2.9-1.8-.48-.5-1.52.09-2.31.13a2.59,2.59,0,0,1-1.16-.11c-1.89-.83-3.68-.11-5.48.29a5.13,5.13,0,0,1-1.28.18c-.42,0-.74,0-1,.5s-1,.38-1.48.36-.79-.09-1,.36c-.52,1-1.29.53-1.9.22A.88.88,0,0,1,20.44,95a.47.47,0,0,0-.09-.69c-.64-.51-.82-1.32-1.32-1.92,1.49-.11,3,0,4.47,0a2.24,2.24,0,0,0,1-.1c1.48-.77,3.14-.69,4.69-1.1s2.62.2,3.9.64c3.09,1.07,5.67,3.19,8.84,4.1a31.71,31.71,0,0,0,7,1.24c2.27.12,4.53-.11,6.8-.15A10.91,10.91,0,0,0,58.23,96.38Z"/><path class="cls-62" d="M58.23,96.38c-.89.85-2,.77-3.12.88-1.83.17-3.65.21-5.47.24A26.72,26.72,0,0,1,37.2,94.28,8.09,8.09,0,0,1,35,92.88c-.12-.12-.32-.29-.46-.27-1.08.14-1.84-.67-2.79-.93-2.34-.66-4.5,0-6.61.77a9.08,9.08,0,0,1-3.08.29,8.65,8.65,0,0,1-3-.31V92.2a6.68,6.68,0,0,0,4.61-1.36c1.22-1,2.83-.4,4.21-.83H28a4.19,4.19,0,0,1,4.32.85,1.5,1.5,0,0,0,1.46.12c1-.3,2.08.15,3.12-.08,1.53.69,3,1.41,4.59,2s3.49,1.06,5,2.3a6.07,6.07,0,0,0,3.33.92,15.53,15.53,0,0,0,4,.32c.79-.11,1.84.64,2.57.08S57.59,96.38,58.23,96.38Z"/><path class="cls-63" d="M60.44,106.09a12.38,12.38,0,0,0,5.84,1.54,8.39,8.39,0,0,1,3.44.42,19.17,19.17,0,0,1-1.76.87c-.12.08-.35.14-.41.06-.62-.92-1.22-.13-1.79,0a20.59,20.59,0,0,1-6.36.53c-1.61-.05-3.2-.1-4.8-.26a11,11,0,0,1-2.91-.45,2,2,0,0,0-1.3-.11,7.37,7.37,0,0,1-3.9,0,5.09,5.09,0,0,0-.87-.06c-.75,0-1.43.14-1.6,1a1,1,0,0,1-.45.18,3.51,3.51,0,0,1-1-.09c-.3,0-.63-.1-.68-.44s.26-.46.6-.58c-.45-.15-.54.12-.63.35a.59.59,0,0,1-.87.38,5.1,5.1,0,0,0-3.52.31,1.77,1.77,0,0,1-.32,0,19.14,19.14,0,0,0-4.28,0,2.69,2.69,0,0,1-2-.45l2.87-1.1c3.1-1,6.28-.53,9.44-.66a76,76,0,0,0,9.27-.65,11.83,11.83,0,0,1,4.81.15,12.34,12.34,0,0,0,2.4.34,12.4,12.4,0,0,0-4.3-.84,4.76,4.76,0,0,1-1.71-.32c-.21-.09-.4-.24-.35-.49s.25-.34.49-.36a4.22,4.22,0,0,1,.87,0,12.45,12.45,0,0,0,2.66,0C58.44,105.36,59.36,106.09,60.44,106.09Z"/><path class="cls-64" d="M57.35,105.43c-1.23.5-2.53.27-3.83.38,2.18.94,4.82.11,6.83,1.79-.14.31-.35.36-.69.3-1.93-.36-3.85-1-5.85-.7-2.33.29-4.69.24-7,.5a46,46,0,0,1-8.3.06,26.19,26.19,0,0,0-3.32.42c-.47,0-.94.1-1.42.1a16.72,16.72,0,0,1,4.5-1.08,14,14,0,0,0,3.52-1,14.71,14.71,0,0,1,4-.8c1.53-.09,3.08-.15,4.6-.14,1.86,0,3.75-.43,5.59.1C56.47,105.52,56.92,104.94,57.35,105.43Z"/><path class="cls-65" d="M24.15,108.08c-1,0-1-1.12-1.18-1.89a1.38,1.38,0,0,1,1.21-1.72c1-.26,1.31.33,1.46,1.11.09.46.88.78.35,1.33S25.18,108.07,24.15,108.08Z"/><path class="cls-66" d="M59.12,118.2c-.08-.54-.51-.4-.85-.44s-1,.19-1.35-.23c.09-.06.17-.16.27-.18a10.9,10.9,0,0,1,4.78.43,24.87,24.87,0,0,0,6.15.28c.83-.08,1.58.17,2.38.16,4.37,0,8.74,0,13.1,0,2.19,0,4.36.23,6.52.34,2,.1,4.08.69,6.08-.26.47-.23,1.15,0,1.73,0,2.39.11,4.81.14,6.95,1.44a20.61,20.61,0,0,0,3.63,1.92,5.3,5.3,0,0,1,1.83,1.2,2.12,2.12,0,0,1,.55,1.72c0,1,.19,1.89,1.42,2.1a1.31,1.31,0,0,1,.64.39.51.51,0,0,1,.07.62c-.17.28-.36.06-.55,0a18.88,18.88,0,0,0-6-1.51,5.72,5.72,0,0,1-1.89-.54,3.42,3.42,0,0,0-1.9-.31c-.4.36-.83.18-1.25.08a32.5,32.5,0,0,0-5.56-.6,9.46,9.46,0,0,0-6,1.9c-.74.52-1.32,1.41-2.42,1.27a.83.83,0,0,1,.22-1.24c.77-.61,1.54-1.22,2.3-1.85a1.3,1.3,0,0,1,.93-.24c.48,0,1,0,1.21-.51a.58.58,0,0,1,.14-.17c.24-.28,1.15.56.88-.47-.16-.61-1-.77-1.42-.74a3.27,3.27,0,0,1-1.54-.37,3.6,3.6,0,0,0-2.4.08,10.64,10.64,0,0,0-2.11.76c.38-.5.69-1.06,1.36-1.23s.58-.64.58-1-.45-.49-.83-.49a4.24,4.24,0,0,0-1.84.21c-.17.07-.4.2-.52.14-1.62-.84-3.37.34-5-.32-.49-.2-.88.14-1.19.57-.84,1.15-1,1.16-2.34.3l1-.63a2.08,2.08,0,0,0-1.75-.48c-.37,0-.67.17-.54.62.27.91-.43,1-1,1.24a1.09,1.09,0,0,1-1.48-.56c-.4-.89-.83-.84-1.49-.27s-2.09.09-2.65-.58a2.54,2.54,0,0,0-1.44-.63,4.51,4.51,0,0,1-1.68-.84,5.09,5.09,0,0,0-2.7-1Z"/><path class="cls-67" d="M62,117.78l-5-.25,0-.19c-.86-.79-1.9-.54-2.89-.5a7,7,0,0,1-3-.19c.15-.35,0-.45-.33-.43s-.8,0-1-.44a2.55,2.55,0,0,1,2-.38,3.53,3.53,0,0,0,1.41,0,9.36,9.36,0,0,1,3.69-.12,3.17,3.17,0,0,0,1.71-.33,22.29,22.29,0,0,1,5-1.46,2.63,2.63,0,0,0-1.72-.62,10.35,10.35,0,0,1-3.21-1.1c-.43-.22-.9-.51-.71-1.08s.7-.26,1.06-.22a8.67,8.67,0,0,0,2.83-.12,2,2,0,0,1,1.27.22,3.68,3.68,0,0,0,3.08.16,2.94,2.94,0,0,1,2.52.33,2.05,2.05,0,0,0,1.48.23,4.38,4.38,0,0,1,3.93.91,2.23,2.23,0,0,0,2.57.14,11.21,11.21,0,0,0-4.66-1.31c-2.29-.07-4.53-.53-6.8-.63-1.28-.06-2.57,0-3.82,0-2.24-.13-4.45.35-6.73-.08-1.3-.25-2.64-.91-4.09-.58.06.48.47.67.69,1a.82.82,0,0,1,0,1.11A.79.79,0,0,1,50,112c-1.21-.57-2.52-.93-3.25-2.27-.37-.69-1.42-.43-1.65.35a1,1,0,0,1-1.29.82,5.55,5.55,0,0,0-2.37.44c.62.81,0,1.57,0,2.34,0,.32-.51.24-.85.14A3.16,3.16,0,0,0,37.13,115a4.91,4.91,0,0,1,1.84.24c1.79.33,3.38-.42,5-.89a2.92,2.92,0,0,1,2.52.18,2.55,2.55,0,0,0,1.32.5.69.69,0,0,1,.73.54,10.08,10.08,0,0,1-2.84.09,21.62,21.62,0,0,0-3.88.32,20.14,20.14,0,0,1-7-.11,10,10,0,0,0-1-.11c.83-.38,1.09-1.58,2.27-1.38.06,0,.19,0,.2-.05.26-1.33,1.69-1,2.4-1.67.18-.17.5-.26.42-.56a.43.43,0,0,0-.63-.24c-.9.6-1.5-.15-2.19-.44-.21-.09-.48-.15-.36-.54.21-.7-.51-.66-.67-.5-.51.52-.78.23-1-.19-.35-.6-1,0-1.36-.35,1.46-.32,2.91-.77,4.41-.22,0,.07,0,.21.12.21s.09-.13.1-.21a3.83,3.83,0,0,1,3.48-.43c.52.17.62.17.72-.32.15-.7.61-.61,1.08-.35.16.09.37.17.29.4a.31.31,0,0,1-.45.17c-.26-.1-.58-.15-.56.22s.34.12.53.15.57.11.86.16.29.4.44,0c.4-.45-.15-.67-.29-1a9.08,9.08,0,0,1,4.66.06.62.62,0,0,0,.32,0c1.68-.55,3.28-.07,4.93.18a14.14,14.14,0,0,0,3.67.38c1.9-.24,3.76.27,5.66-.07.93-.16,1.88-.3,2.82-.49a1.88,1.88,0,0,0,.71-.25c.55-.41.53-.42.87.12.22.36.46.22.72,0a2.27,2.27,0,0,1,1.73-.55,9.17,9.17,0,0,1,4.18.88,1.19,1.19,0,0,1-1.39.68,28.87,28.87,0,0,0,3.48.68A4,4,0,0,1,78.71,112a3.73,3.73,0,0,0,3.67,1.4c1.45-.21,2.85.52,4.25.89a11.67,11.67,0,0,0,1.57.41c.48.06,1.1.14,1.08.71a1.56,1.56,0,0,1-1,1.46c-.33.13-.72.06-1,.34.46.22,1,0,1.36.38-.33.33-.76.18-1.14.2-2.29.11-4.59-.2-6.87.21a.79.79,0,0,1-.81-.19,3.16,3.16,0,0,1,2.37-.57,16.3,16.3,0,0,0,2.72,0c-1-.7-2.09-.42-3-.94-.32-.18-.81-.21-1.13-.4a2.75,2.75,0,0,0-3-.06,3.23,3.23,0,0,1-2.63.06,1.42,1.42,0,0,0-1-.09c-.61.16-1.16.26-1.48-.47-.06-.14-.26-.29-.35-.23-.91.55-1.19-.27-1.74-.68a2.21,2.21,0,0,0-2.12,0,3.85,3.85,0,0,1-1.93.26,2.91,2.91,0,0,0-1.6.3,12.55,12.55,0,0,1-3.06,1.16,2.65,2.65,0,0,0-1.58,1.19c.54,0,1-.15,1.45-.18s.91,0,.93.61Z"/><path class="cls-68" d="M87.54,127.92a15.72,15.72,0,0,0,1.83-1.16c2.89-2.49,6.27-2.6,9.79-2.05l3.56.56a8.59,8.59,0,0,0,3.28,1c1.92.39,3.23,1.7,4.76,2.69a12.9,12.9,0,0,0,2.36,1.32c.95.39,2.17.53,2.87,1.49-.28.35-.55,0-.8,0a9.91,9.91,0,0,0,3.34.64c.5.07,1,.06,1.39.5-1.4.65-2.77.16-4.12-.18a17.77,17.77,0,0,1-4.5-1.87,2.37,2.37,0,0,0-.85-.15c-1.87-1.29-4.15-1.79-6-3.17a1.88,1.88,0,0,0-.62-.15c-1-.45-2.07-1-3.21-.71-1.69.49-3.45.43-5.14.89s-3.61.63-5.1,1.82c-2,.52-3.34,2.13-5.05,3.1a7.76,7.76,0,0,1-3.69,1.27c-.6,0-1.24.51-1.88.76a4.6,4.6,0,0,1-2.18.3,18.37,18.37,0,0,0-3.07,0,20.67,20.67,0,0,1-3.14-.43.76.76,0,0,1-.74-.5c1-.27,1.86.59,2.8.28a17.55,17.55,0,0,0,5-.48,6.84,6.84,0,0,0,3.72-1.95C83.71,130.2,85.91,129.44,87.54,127.92Z"/><path class="cls-69" d="M88.64,117.55a6.55,6.55,0,0,1-1,0c-.27,0-.75.26-.8-.23a.64.64,0,0,1,.74-.65c.74.07.94-.36,1.29-.9.47-.71.06-.7-.39-.75a31.6,31.6,0,0,1-4.87-1.33,2.6,2.6,0,0,0-1.51,0c-1.4.54-2.38-.21-3.2-1.07s-1.86-2.08-3.28-2.07-2.61-.78-4-.78c.7-.49,1.65-.14,2.28-.77l1.07.21a3.05,3.05,0,0,1,2.24.2A6.21,6.21,0,0,0,80.94,111a1.56,1.56,0,0,1,.84.23,22.63,22.63,0,0,0,4.73,1.94,3.91,3.91,0,0,0,4-.37c.31-.24.55-.22.77,0,.4.41.9.36,1.4.47A2.08,2.08,0,0,0,95,112.16c.1-.15.2-.43.34-.41,1.61.23,2-1.47,3.24-2a3.09,3.09,0,0,1,3,.73c.25.38.33.74-.08,1.07-.12.09,0-.06-.09.06A4.7,4.7,0,0,1,98,114.18c-.73.13-.87.85-1.12,1.39-.14.28,0,.48.46.7,1.24.56,2.27-.1,3.38-.16,1.36-.07,2.62.62,4,.52a22.28,22.28,0,0,1,3.83-.25c.43,0,.89-.07,1.26.27l1.31,0c-.13.06-.26.17-.39.17-3.25-.07-6.46.53-9.71.5C96.89,117.33,92.77,117.48,88.64,117.55Z"/><path class="cls-70" d="M62.65,117.74a.7.7,0,0,0-.93-.36,6.16,6.16,0,0,1-1.87.17c.92-1.32,1-1.27,2.68-1.82,1.1-.37,2.08-1.27,3.25-1.27s2.54-.42,3.83-.53c1-.09,1.59.23,1.76,1.2.5.15.14-.89.71-.45.3.23,1.06-.18.94.67,0,.32.2.49.5.35.71-.33,1.44.06,2,0,.8-.06,1.77.4,2.53-.26a1.46,1.46,0,0,1,2.22-.07,2.2,2.2,0,0,0,1.91.45c.07,0,.18,0,.2,0,.8,1.16,2.3.47,3.38,1.42-2,.74-4.06-.17-5.94.53h-.43a14.79,14.79,0,0,1-3.76,0h-.42a7,7,0,0,1-2.45,0Z"/><path class="cls-71" d="M119.92,133c-1.9-.33-3.86-.37-5.75-1.34.75-.34,1.25.28,1.82.2.61.43,1.3.13,2,.26a6.24,6.24,0,0,0,4.4-.23,9.26,9.26,0,0,0,3.21-2.35c1.22-1.28,2.15-1.09,3.55-.13,1.73,1.2,3.28,2.72,5.37,3.36.19.22.78.14.62.6s-.62.31-1,.18a5.41,5.41,0,0,1-1.44-.77c-.5-.36-1-.74-1.52-1.06-2.19-1.29-4.28-.89-6.31.41a12.83,12.83,0,0,1-1.22.64c-.48.24-1.11,0-1.54.44l-.21,0c-.7.32-1.27-.61-2-.23Z"/><path class="cls-72" d="M132.7,132.74c.78,0,1.4.68,2.21.65.11-.43-.41-.37-.44-.66h.32c1.63.07,1.67.11,1.66,1.66l0,1c-.64.61-1.09.49-1.74-.14S133.4,133.54,132.7,132.74Z"/><path class="cls-68" d="M122.34,131.85a4.39,4.39,0,0,1-4.4.23A13.56,13.56,0,0,0,122.34,131.85Z"/><path class="cls-67" d="M75.63,117.78h3.76A7.26,7.26,0,0,1,75.63,117.78Z"/><path class="cls-67" d="M72.76,117.78h2.45A3.34,3.34,0,0,1,72.76,117.78Z"/><path class="cls-41" d="M99.66,43.05a1.33,1.33,0,0,0-.36-1.58c-.11-.09-.07-.42-.38-.31s-.58.19-.54.47c.15.9-.52.91-1.08,1.09a6.43,6.43,0,0,0-1,.51c-.16.09-.41.31-.47.16-.59-1.29-1.9-.81-2.69-.78a2,2,0,0,1-1.9-1.12,6.09,6.09,0,0,1-1.12-3.22c0-.43-.29-.43-.54-.56A5.34,5.34,0,0,1,88,36.59a.88.88,0,0,1-.18-.92c.11-.38.46-.27.74-.3a2.71,2.71,0,0,0,.87-.09c1.74-.88,3.59-.54,5.42-.58,1,0,1.84.68,2.85.74.4,0,.66.1.86-.36.28-.63.87,0,1.38-.29a14.27,14.27,0,0,1,2.75-1c.33-.12.72-.38.93,0s-.08.56-.42.76-.63.65-.3,1a1.06,1.06,0,0,0,1.29.23c.24-.12.4-.52.74-.26s0,.48-.07.69c-.17.45.07.64.44.68.77.09,1,.64,1.23,1.43-.7-.4-1.17,0-1.64.27.05.42.59.42.69.8a9.85,9.85,0,0,0-4.79,3.25c-.26.29-.53.62-1,.52Z"/><path class="cls-73" d="M85.54,44.19c-.39-.7-.73-1.44-1.18-2.1A2.76,2.76,0,0,0,81,40.75a29.56,29.56,0,0,0-3,1.09c-1.23.58-2.63.74-3.83,1.44-.91.53-1.87.95-2.85,1.44-.19-.55.2-.76.6-.94,2.71-1.23,5.4-2.5,8.13-3.66,1.84-.77,3.2.35,4.52,1.42.33.28.65.59,1,.88a15.33,15.33,0,0,0,4.35,2.86c2.91,1,5.52.09,8-1.26.58-.31,1.14-.65,1.71-1a.76.76,0,0,0,0,.15c.18,1-.62,1.53-1.19,2.15-.26.28-.75.34-.77.85-.76,1-2.11.59-3,1.26a2.45,2.45,0,0,1-.94.23,1.09,1.09,0,0,0-.93-.17,8.06,8.06,0,0,1-5.93-2.17,4.68,4.68,0,0,0-1.09-.72A.48.48,0,0,1,85.54,44.19Z"/><path class="cls-74" d="M97.69,46.2c-.43-.41,0-.53.24-.71a4.65,4.65,0,0,0,1.72-2.3c1.38-1,2.38-2.42,3.88-3.29a2.89,2.89,0,0,1,2-.51l1.35.83.41.68c0,.77.71,1.74,0,2.25-.55.4-1.28-.43-1.91-.74a2.25,2.25,0,0,0-1.8.12C101.34,43.25,99.65,45,97.69,46.2Z"/><path class="cls-75" d="M60.21,42.43a6.58,6.58,0,0,0,4.64,4.39c2.9.93,5.45-.2,8-1.37.41-.19.84-.39,1.25-.61.24.2.35.79.79.42.84-.71,1.66-.2,2.32.12a3.93,3.93,0,0,0,2.45.31c2-.31,3.95.42,5.93.42a.82.82,0,0,1,.59.27c1,1.3,2.62,2,3.41,3.5a.87.87,0,0,1,0,.72c-.06.16-.08.48,0,.51.89.43.86,1.57,1.63,2.08a4.94,4.94,0,0,1,1.39,1.38c.09.15.24.42.34.41,1.46-.19,1.78,1.18,2.71,2-1.42.32-2.06,1.61-3.22,2.22-.47.24-.62.57-.31,1.06a8.71,8.71,0,0,0,2.72,2.91,3.37,3.37,0,0,1,.89.62,2.18,2.18,0,0,0,1.64,1c.43,0,1,.23.85.88A.89.89,0,0,1,97,66a5.6,5.6,0,0,0-3.74-.79c-.7.08-1.25-.81-2-.32-.39.32-.75.1-1.12,0A17.22,17.22,0,0,0,88.38,64a8.59,8.59,0,0,0-4.8-.39,8.37,8.37,0,0,1-2.67.24,17.55,17.55,0,0,0-5.73.46c-3,.61-6,.78-9,1.34a15.2,15.2,0,0,0-3.43.24c-.46.06-.87.06-1.06-.47.06-.77.65-.83,1.19-.82,3.15.08,6.21-.75,9.33-.93a11.05,11.05,0,0,0,1.37-.36,2.19,2.19,0,0,1,.36,0,5.87,5.87,0,0,0,2.7-.16,13.14,13.14,0,0,1,3.06-.31,6.29,6.29,0,0,0,3.23-.36,3.35,3.35,0,0,1,1.84-.11,17,17,0,0,0,4.83-.13c.94-.16,1.08-.4.59-1.24a5.37,5.37,0,0,1-.63-3.78c.24-1.56.55-3.28-.74-4.71a2.61,2.61,0,0,1-.58-2c0-.3,0-.73-.29-.78-1.38-.25-2.28-1.82-4-1.31a4.28,4.28,0,0,1-3.48-.64,2.62,2.62,0,0,0-2.89-.22,2,2,0,0,1-2-.12,3,3,0,0,0-2.75-.13c-1.22.48-2.54.19-3.8.39-.18,0-.38-.06-.55,0-2.4.81-4.42-.39-6.54-1.17-2.43-.9-4.88-1.82-7.57-1.36a1.1,1.1,0,0,1-1-.11,27.4,27.4,0,0,1,3-2.69c1.26-.87,2.27-.41,3.4-.4Z"/><path class="cls-76" d="M90.19,64.66l1.09.25c.37.71,1.32.49,1.75,1.09a1.79,1.79,0,0,0,.66,1.17c.1.1.34.17.33.27-.06,1.36,1.11,1.15,1.85,1.44,1.33.52,2.73.87,3.58,2.18.07.12,0,0,.07.08.26.26,1,.08.83.67s-.7.52-1.09.63a15.92,15.92,0,0,0-3.08.82c-2.07,1-4.33.3-6.48.65a10.45,10.45,0,0,1-1.42.34c.49.07,1.11-.52,1.45.31l-4.62,0c-.42-.26-1.25.09-1.3-.53s.81-.57,1.27-.81a4.17,4.17,0,0,1,2-.26c.58,0,1.15-.11,1.4-.68.4-1,.77-.81,1.12-.09,1.1-.71.78-1.58.28-2.48-.31-.58-.06-1.06.58-1.52a5.82,5.82,0,0,1-1.74-1.06,3.42,3.42,0,0,0-1.93-.94c-.5,0-1-.32-.91-.9s.59-.43,1-.39c.15,0,.36.11.43,0C88.2,63.86,89.24,64.7,90.19,64.66Z"/><path class="cls-77" d="M89.73,74.56c-.59-.42-1.29,0-1.9-.24a7.65,7.65,0,0,1,3.79-.68,10.72,10.72,0,0,1,3.15,0c.21.06.56-.27.81-.48s.35-.65.69-.11c0,.06.25.1.27.07.88-1.37,2.66-.28,3.63-1.42-.65,0-1-.34-1.32-.94a3.1,3.1,0,0,0-1.91-1.18,14.54,14.54,0,0,0-2.61-.78c-.43,0-1-.26-.51-.94.31-.39-.09-.25-.22-.33-.55-.34-.84-1.12-.57-1.51,1.43.72,3,1.14,4.42,1.82,1.67.8,3.75.61,5.09,2.17.85,1,1.74,2,2.61,2.94.3.33.61.65,1.13.53.18,0,.36-.09.4.18s-.12.46-.42.51l-1.35,0c-.48-.38-1-.09-1.48-.07-3.41.15-6.81.28-10.23.22-.34,0-.72-.14-1,.13a1.28,1.28,0,0,1,0,.19Z"/><path class="cls-78" d="M100.22,60a3.86,3.86,0,0,1-2.34,2.18c-.83,0-2.37-1.31-2.39-2.05A2.49,2.49,0,0,1,97.66,58C99.22,58,100.22,58.73,100.22,60Z"/><path class="cls-79" d="M85.77,44.63a.91.91,0,0,1,1.07.27,7.73,7.73,0,0,0,5.89,2.38c.37,0,.85-.17,1,.41l-1.56.25A15.51,15.51,0,0,1,89,47.65,5,5,0,0,1,85.77,44.63Z"/><path class="cls-80" d="M134.9,175.93c-1.67-.13-3.34-.37-5-.35s-3.59-.68-5.35-.3-3.46,0-5.18.21a42.93,42.93,0,0,1-6,.19c-1.57,0-3.14-.24-4.71-.36a3.15,3.15,0,0,0-.44,0c-2.64.19-5.29-.09-7.93-.08-1.29,0-2.6-.09-3.9,0a4.38,4.38,0,0,0-2.68,0,.93.93,0,0,1-1-.24c-.1-.21-.14-.51.06-.6,1-.52.3-.85-.12-1.16a4.69,4.69,0,0,0-2.61-.75c-2.49-.07-5-.27-7.46-.3-.45,0-1,.14-1.1-.58a2.7,2.7,0,0,1,2.35-.52,7.64,7.64,0,0,0,3.33-.29,15.34,15.34,0,0,1,3.89,0,1.57,1.57,0,0,1,1.08.45c.15.1.3.31.44.3,1.44-.16,2.93.25,4.28,0a5.25,5.25,0,0,1,2.09.25c2.1.38,4.24.34,6.31.78,2.51.52,5.08.35,7.58.7,2.28.31,4.58.06,6.81.38,1.55.23,3.16-.22,4.63.46.57.26.43-.54.87-.42l.08,1c.68-1.35,1.6-.78,2.57-.85,1.6-.11,3,.66,4.51.57a4.89,4.89,0,0,1,2.12.36C135.05,175.11,135.07,175.44,134.9,175.93Z"/><path class="cls-81" d="M102.75,176.34a10,10,0,0,1,3.61-.3c2,.07,4.1-.15,6.14.12a1.22,1.22,0,0,1,.37.2c-.49,1-1.41.9-2.22.76s-1.8.25-2.58-.41c0,0-.15,0-.2,0-1.1.85-2.23.21-3.35.1a.52.52,0,0,0-.31,0C103.33,177.73,103,177.07,102.75,176.34Z"/><path class="cls-81" d="M113.11,176.77a1.43,1.43,0,0,1,1.55-.26c.57.17,1.28-.4,2-.3a3,3,0,0,1,.61.16c.31,1.12-.84.78-1.13.86C115.14,177.53,114,177.85,113.11,176.77Z"/><path class="cls-31" d="M92.82,175l.89.23c.07.55-.49.9-.68.7-.79-.84-1.61-.28-2.42-.23v0a.45.45,0,0,1,0-.5C91.29,174.66,92,174.32,92.82,175Z"/><path class="cls-22" d="M90.62,175.92h1.07a.55.55,0,0,1-.31.72c-.43,0-.44-.54-.76-.72Z"/><path class="cls-82" d="M90.4,92.61c.52,0,1.07.23,1.54-.18-.06-.41.3-.4.5-.4a2.89,2.89,0,0,0,2.36-1.15h0c.24.09.49.36.64-.15a.48.48,0,0,1,.78-.28c.66.49.75-.12,1-.45h0a2.7,2.7,0,0,0,1.33-.86l1.32-.9.62-.24a3.74,3.74,0,0,1,2.68-.62,7.47,7.47,0,0,1,3.6,1.63,11.61,11.61,0,0,0,6.83,2.69,35.22,35.22,0,0,0,4.1-.16c.38.06.87.26.72.62s-.7.85-1,.81a35.06,35.06,0,0,0-4.1,0,15.21,15.21,0,0,1-6-1.42c-1.63-.7-3.35-1.49-5.24-.84-.84,0-1.41.72-2.18.91a.94.94,0,0,0-1.17,0c-1.54,1.1-3.37,1.16-5.16,1.39-.76.1-1.51.26-2.27.4h0a1.32,1.32,0,0,1-.73.12c-.24,0-.56.07-.64-.26S90.12,92.7,90.4,92.61Z"/><path class="cls-83" d="M92.16,74.39c.33-.44.81-.24,1.22-.25,3.3-.09,6.6-.18,9.89-.21.53,0,1.22-.89,1.64.18-2.11.21-4.22.27-6.34.28S94.3,74.39,92.16,74.39Z"/><path class="cls-84" d="M103.17,87.37l-2.68.62A2.23,2.23,0,0,1,103.17,87.37Z"/><path class="cls-85" d="M92.82,175c-.78-.38-1.47.1-2.19.25-.61.37-1.22-.06-1.82,0-2.61.24-5.23.19-7.84.39-1.33.1-2.67-.08-4,0-4.51.3-9,.88-13.54.54-2.74-.21-5.46.13-8.19-.15a22.78,22.78,0,0,0-4,.1c-1,.07-2.1-.17-3.15-.16-.12,0-.13-.15-.16-.26a4,4,0,0,1,3.06-1.55,13.63,13.63,0,0,0,3.35-.39,3.56,3.56,0,0,1,2.16.08,16,16,0,0,0,5.15.41c1.76,0,3.55.44,5.3-.11.39-.12.82,0,.71-.68s.34-.23.49-.2c.57.11,1.13.32,1.58-.28a.49.49,0,0,1,.61-.09c.17.07.42.25.49.2,1.17-.93,2.53-.06,3.79-.43a20.87,20.87,0,0,1,4-.5,6.34,6.34,0,0,0,2.32-.45.45.45,0,0,1,.66,0c.71.58,1.53.09,2.3.17,2,.22,4,.19,5.92.28a5,5,0,0,1,3.83,1.49c.16.18.47.25.32.59a.42.42,0,0,1-.61.26C92.8,174.31,92.84,174.7,92.82,175Z"/><path class="cls-26" d="M69.91,177.68a6.42,6.42,0,0,1-1.71.87c-.26.06-.55.4-.78.1s.09-.52.27-.74.1-.17.16-.27a1.31,1.31,0,0,0-.92-.28c-.2,0-.39,0-.45.2s.21.19.33.27a.37.37,0,0,1,.19.46c-.17.37-.33,0-.5,0-.51-.05-.32.69-.77.73h-.44c-.46-.56-1.34-.26-1.76-.88-.08-.15-.15-.15-.23,0a.32.32,0,0,1-.39.09c-1.71-1.05-3.65-1.17-5.56-1.41h-.21c-.46-.5-1.06.06-1.55-.22-1,.14-1.91-.62-2.86,0H48.54c-.66,0-1.32.17-2,.22h-.22c-.32-.74-1.07-.38-1.42-.3-.94.22-1.85-.07-2.76.06a.84.84,0,0,1,.77-.74,7.49,7.49,0,0,0,1.64-.09c.67,0,1.37-.25,2,.17a22.91,22.91,0,0,0,4.3.08c2.41,0,4.81.1,7.21,0,3-.09,6,.23,9,.23,1.41,0,2.84,0,4.25-.09.43,0,.89-.12,1.26.23a2.55,2.55,0,0,1,2,.43c-.5.87-.88,0-1.4-.12-.24,2-1.75.35-2.57.87C70.44,177.63,70.1,177.42,69.91,177.68Z"/><path class="cls-86" d="M39.29,171.73a1.4,1.4,0,0,1,.48-.2,69.85,69.85,0,0,0,7.23.11c2.75-.24,5.43.44,8.15.32a.69.69,0,0,1,.64-.2c.51.22,1.12.33,1.12,1.08-1,.59-2,.2-3,0-.28-.05-.52-.31-.81-.05a4.75,4.75,0,0,1-3.5.92,23.76,23.76,0,0,0-2.39.12,8.08,8.08,0,0,1-2.61-.55c-.82-.24-1.89,0-2.29-1.18-.1-.34-.83-.4-1.31-.27A2.78,2.78,0,0,1,39.29,171.73Z"/><path class="cls-87" d="M42.79,175.94l-.63.62c-2.06.13-4.16-.34-6.17.36-.78.28-1.46-.33-2.21-.12a21.7,21.7,0,0,1-4.83.06c-1.72-.08-3.44-.2-5.17-.2s-3.38-.24-5.08-.09c-1.51.13-2.93-.57-4.43-.52a2.7,2.7,0,0,1-1.94-.78H13c1.09,0,2.17.38,3.22.38,2.21,0,4.4.22,6.62.16,4.71-.13,9.43.09,14.14.18,1.64,0,3.28-.25,4.92-.08A.79.79,0,0,1,42.79,175.94Z"/><path class="cls-88" d="M72.56,176.37c-4.43.36-8.85-.17-13.28-.21-4.13,0-8.27,0-12.41,0a1.07,1.07,0,0,1-.3-.06s0-.12,0-.18l1.29-.17,5.28.07c4.86,0,9.72.06,14.58.11,1.91,0,3.81-.36,5.68-.31,2.34.06,4.62-.55,7-.2a27.5,27.5,0,0,0,4.4-.18c1.93-.05,3.88-.46,5.81.06l0,.43a15.91,15.91,0,0,0-3.78,0,10.82,10.82,0,0,1-3,.06c-1.37,0-2.71.22-4.08.16a14.11,14.11,0,0,0-4.2.11C74.57,176.33,73.51,175.84,72.56,176.37Z"/><path class="cls-86" d="M71.89,171.3h.22a6.57,6.57,0,0,0,2.65,0h.88c.07,0,.1.09.08.14s0,.08-.08.08c0,.31-.19.38-.52.39-2.29.07-4.59.07-6.86.32a5.71,5.71,0,0,0-2.93,1.05c-1.16.89-2.52.18-3.78.09a2.44,2.44,0,0,0-1.62.19c-.89.5-1.63-.25-2.36-.72.18-.6.63-.66,1.13-.55a10.25,10.25,0,0,0,3,.12,3.52,3.52,0,0,0,2.24-.68,2.31,2.31,0,0,1,1.12-.38,1.14,1.14,0,0,1,.32,0,3.61,3.61,0,0,0,2,.12C68.89,171.27,70.4,171.59,71.89,171.3Z"/><path class="cls-42" d="M65.29,171.51c-1.05,0-1.61,1.15-2.72,1.15-1.28,0-2.57.35-3.82-.08a1.16,1.16,0,0,0-1.18.26h-.66c-.24-.45-.74-.58-1.1-.88-.05-.34.19-.35.41-.35a5.49,5.49,0,0,1,1,.13c1.25.22,1.3.19,1.34-1a1.08,1.08,0,0,1,1-.23,21.59,21.59,0,0,0,5.2.37.81.81,0,0,1,.52.15A.37.37,0,0,1,65.29,171.51Z"/><path class="cls-86" d="M81.59,171.73h-.66a5.34,5.34,0,0,0-3.33.06,1.69,1.69,0,0,1-1.52-.28c.28-.36.8-.13,1.11-.43h.43a6.21,6.21,0,0,0,2.43,0l1.32,0h.21c1.84-.37,3.68-.78,5.52,0a4.19,4.19,0,0,1-2.92.36A5.65,5.65,0,0,0,81.59,171.73Z"/><path class="cls-63" d="M77.19,171.09c-.24.49-.69.42-1.11.43h-.44v-.22C76.1,170.82,76.67,171.12,77.19,171.09Z"/><path class="cls-17" d="M42.79,175.94l-.86,0a7.11,7.11,0,0,1,2.64-.18C44,176.11,43.38,175.82,42.79,175.94Z"/><path class="cls-23" d="M12.3,180.36a.86.86,0,0,1,.39-1.08A1,1,0,0,1,12.3,180.36Z"/><path class="cls-28" d="M15.27,182.31c-.3-1.14.58-.25.83-.71,0,.81-.61.46-.82.71Z"/><path class="cls-89" d="M119.92,170.19c0-.32.19-.7.49-.6.75.25,1.53-.31,2.1-.08a1.07,1.07,0,0,0,1.39-.43c.41-.93.53,0,.84.1-.31-.87.67-.79.8-1.35.44.3.39,1.42,1.3.7.53.75,1.21,0,1.75.17a4.51,4.51,0,0,0,2.1.66c.32,0,.33.1.66-.38,0,1.18.92,1.07,1.76,1.34-.17-.67-.46-1.19,0-1.72.15-.19,0-.48-.16-.71a6.37,6.37,0,0,1-1.26-2.2c-.08-.41-.23-.21-.43-.18a1.92,1.92,0,0,1-1.29-.08c.06-.37.34-.54.57-.76.54.57,1.33.38,2,.67a4.79,4.79,0,0,1,1.37,1.75c.62,1.58.36,3.28.61,4.91a.9.9,0,0,1-.68,1c-1,.29-2.1.63-3.1-.14a1.05,1.05,0,0,1,1-.27c.51,0,1,.15,1.33-.17a2,2,0,0,1-1.64-.11c-1.46-.8-3.16-.85-4.64-1.53-.51-.24-1.16.2-1.33-.08-.49-.79-1-.28-1.57-.27a2,2,0,0,0-1.16.26A1.86,1.86,0,0,1,119.92,170.19Z"/><path class="cls-68" d="M119.92,133c.73-.51,1.35-.09,2,.23C121.12,134.22,120.58,133.06,119.92,133Z"/><path class="cls-68" d="M122.11,133.17c.28-1,1-.3,1.54-.44A2.81,2.81,0,0,1,122.11,133.17Z"/><path class="cls-6" d="M73.88,63.57h-.22c-2.13.15-4.28-.16-6.39.43-1,.27-2,0-2.94.2-2,.45-4,.52-6,1.29a19.32,19.32,0,0,0-2.49.7c-.43.28-1,.34-1.37.65-.86.6-2,.43-2.86.88-3,.8-5.82,2.09-8.86,2.69-.63.15-1.22.43-1.83.64-.4.14-.81.36-1.22,0a2.6,2.6,0,0,0-1.5-.81c-1.36-.38-1-1.29-.76-2.08a2,2,0,0,0-.69-2.31A2.12,2.12,0,0,1,36.14,63c.14-.29.19-.37-.07-.61a2.47,2.47,0,0,1-.79-2.61,9.91,9.91,0,0,0,.47-3,7.05,7.05,0,0,1,.81-3.8,1.55,1.55,0,0,0,.12-.95,3.59,3.59,0,0,1,.23-1.82c.4-1,.08-2.11.34-3.18s.54-1.81.77-2.73c.13-.53.63-.63,1.16-.38a3.54,3.54,0,0,0,1.88.48l2,1.34a7.69,7.69,0,0,0,4.23,1.59,7.48,7.48,0,0,0,2.93-.24,2.15,2.15,0,0,1,2.5.87,4.8,4.8,0,0,0,4.47,2.19,8.26,8.26,0,0,0,4-1.19,3.11,3.11,0,0,1,4.32.61,1.32,1.32,0,0,0,1.53.52c1.71-.63,3.1.52,4.65.82a.73.73,0,0,1,.55.75c0,.45-.36.57-.73.69-.9.3-.93.41-.3,1.15a9.59,9.59,0,0,1,1.13,1.62c1,1.84,2.92,2.74,4.56,3.86a13,13,0,0,1,2.37,2.25c.48.56.31,1-.43,1.05C77.09,62.43,75.62,63.54,73.88,63.57Z"/><path class="cls-90" d="M39.73,71.07c1.1-.07,2-.85,3.09-.92.18.08-.27.35.13.4.24,0,.43.32.67.35,1.5.14,2.49.77,2.49,2.45,0,.33.31.33.57.37a15.37,15.37,0,0,0,4.22.33,2.15,2.15,0,0,1,1.4.28c0,.57-.39.33-.68.26l-1.76,0-5.29,0c-1-.23-2,0-3.08-.13a3.93,3.93,0,0,1-2.2-.75h0c-1.09-.5-2.37-.35-3.45-1.07C37.25,72.32,38.35,71.35,39.73,71.07Z"/><path class="cls-91" d="M92.82,111.16a3.35,3.35,0,0,1-.07-.4c.86-.27,1-1.12,1.43-1.74s1-1,.89-1.77a.31.31,0,0,1,.14-.28c1.65-1,2-2.82,2.59-4.49a4.08,4.08,0,0,0-.37-2.66,5.77,5.77,0,0,0-3.33-3.94c-1-.4-2.16-.16-3.25-.33-1.88-.28-3.79-.34-5.7-.45a9.46,9.46,0,0,1-2.31-.56c-1.32-.44-2.71-.65-4-1.2-1-.41-2-.68-3-1-1.16-.42-2.46-.92-3.54-.45-.88.4-1.81.26-2.63.68a3.17,3.17,0,0,1-1.3.11c.58-1,1.77-1.24,2.63-1.87a10,10,0,0,1,3.16-2,1.19,1.19,0,0,1,1.34.35,31.33,31.33,0,0,0,4.24,3.25,16.47,16.47,0,0,0,6.48,1.78,37.13,37.13,0,0,0,5.68.25,11.83,11.83,0,0,0,4-.88c1.31-.6,2.41-1.68,4-1.75a3,3,0,0,1,1.83.59,12.83,12.83,0,0,0,4.55,1.53c.8.18,1.73.56,2,1.2.54,1.33,1.49.64,2.28.75s1.59-.59,2.46-.14c.23.12.48-.06.7-.21a1,1,0,0,1,1.23,0,.87.87,0,0,0,1,.14c.78-.46.95.08,1.1.64a29,29,0,0,1,.83,7.81c0,.59-.43,1-.72,1.41a4.18,4.18,0,0,0-3.26-2.3,6.49,6.49,0,0,1-2.26-1.06c-.64-.39-1.36-.81-2,.14-.22.33.11.34.15.5-.88.08-1.72-.4-2.62-.17a.81.81,0,0,1-.43.32c-2.32.54-4.22,2-6.3,3-1.46.73-2.45,2.07-3.75,3a31.66,31.66,0,0,1-2.54,1.9C93.74,111.06,93.34,111.37,92.82,111.16Z"/><path class="cls-92" d="M92.82,111.16c2.24-.93,3.89-2.67,5.69-4.18a12.23,12.23,0,0,1,2.32-1.59c2-1,3.78-2.34,6-2.78.1,0,.22,0,.32,0,.71.31,1.58.28,2,1.14.1.21.46.49.6-.18.09-.4.82-.24.93,0a11.09,11.09,0,0,0,2,2.86c.25.27-.28.83,0,1.44a12.8,12.8,0,0,1-1.64-.56c-.55-.3-.62.11-.87.3.31.21.15.83.62.83.31,0,.49-.11.44.32s.33.71.72.84c.68.24.7.91.84,1.42s-.3.46-.67.47c-.69,0-.95.32-.4.9.24.26.17.4,0,.63-.47.52-.07,1.11.08,1.57a1.07,1.07,0,0,0,1.33.39,1.49,1.49,0,0,1,.76,0c.35,0,.88-.1.86.4s-.61.65-.93.59c-1.44-.27-2.67.46-4,.75-2.3-.15-4.58.36-6.89.21-.58,0-.82-.61-1.37-.49-.7.17-1.41-.11-2.15.41a1.47,1.47,0,0,1-2-.43c-.36.16.1.42-.14.58a4.37,4.37,0,0,1-1-1.28,3.49,3.49,0,0,1,3.2-2.17.48.48,0,0,0,.53-.26c.39-.71.57-1.48,1.39-2,.43-.28-.25-.86-.71-1-1.81-.59-2.79-.14-3.74,1.6a1.09,1.09,0,0,1-.28.29c-1.31-1-1.59.58-2.21,1s-.78.6-1.46.41-1.54.27-2-.65a.3.3,0,0,0-.28,0c-1.71,1.44-3.4.81-5.27.2-1.5-.49-2.82-1.59-4.3-1.7s-2.45-1-3.7-1.35c-.21-.06-.26-.23-.29-.42,1-.35,1.76.22,2.63.41A42.25,42.25,0,0,1,87,112.19c0-.55-.46-1.2.4-1.25a4.55,4.55,0,0,1,1.44.49c1.4.53,2.71.08,4-.27Z"/><path class="cls-17" d="M46.56,176.81a1.49,1.49,0,0,1,2-.22A1.26,1.26,0,0,1,46.56,176.81Z"/><path class="cls-84" d="M99.87,91.77c-1.35.5-2.46,1.57-4,1.75,0-.23-.16-.44-.41-.41-1,.13-2-.25-2.91.47-.45.35-.83-.32-1.3-.26.39-.92,1.3-.46,1.87-.52,1.42-.16,2.78-.56,4.18-.78.88-.14,1.57-1.08,2.57-1.25.29.27-.52.52,0,.79C99.88,91.63,99.88,91.7,99.87,91.77Z"/><path class="cls-43" d="M87.1,171.08H81.58a3.37,3.37,0,0,1,2.13-.91c.33,0,.65.05.76-.38.18-.69.64-.63,1.26-.63a12.1,12.1,0,0,0,3.71-.68c.54-.18,1.24-.11,1.62-.7l1.32,1.1A12.35,12.35,0,0,1,94.59,170c-.57.88-1.71.71-2.43,1.32A30.57,30.57,0,0,0,87.1,171.08Z"/><path class="cls-53" d="M108.68,171.29c1-.39,2.08.24,3.08-.2a2.48,2.48,0,0,1,2,.21v.22c-1.42.07-2.83.13-4.25.22C109.11,171.76,108.92,171.49,108.68,171.29Z"/><path class="cls-53" d="M94.59,170a3,3,0,0,1-2.21-1.11c.28-.6.46-.31.94-.1a25,25,0,0,1,2.15,1.42A1.36,1.36,0,0,1,94.59,170Z"/><path class="cls-52" d="M103.63,171.06a1.73,1.73,0,0,1,2.41.22Z"/><path class="cls-9" d="M103.47,47.94c-.08.34-.49.31-.73.44s-.47-.2-.54-.4.17-.44.44-.47S103.31,47.45,103.47,47.94Z"/><path class="cls-29" d="M76.85,177.69c.05.46-.07.76-.37.81s-.56-.32-.79-.71C76.13,177.78,76.5,178.15,76.85,177.69Z"/><path class="cls-17" d="M57.35,176.8c.11-.2.23-.39.51-.28s.34.22.5.21c1.27-.11,2.43.57,3.61.6.79,0,.66,1,1.33.79-.27.94-1,.34-1.42.32a3.19,3.19,0,0,0-1.75.16c-.39.2-1.1.14-1.17-.38-.12-.88-.48-1.21-1.33-1.1C57.55,177.13,57.45,176.91,57.35,176.8Z"/><path class="cls-17" d="M55.59,176.58c.52,0,1.15-.73,1.55.22C56.64,176.6,56,177.24,55.59,176.58Z"/><path class="cls-17" d="M63.53,178.12c.54.38,1.44,0,1.76.88C64.73,178.64,63.83,179,63.53,178.12Z"/><path class="cls-93" d="M119.92,170.19l1.61.79c.09,0,.28.07.31,0,.62-1,1.85-.64,2.71-1.14.25-.15.59.1.91.11s-.25.4,0,.71c.39-.62.77-.32,1.3-.21,1.17.26,2.22,1.2,3.54.75.56-.2-.16.47.38.55.72.1,1.38.62,2.19.42.23-.06.58-.1.62.27s-.33.06-.53.24c-.68.6-1.54-.1-2.31.15l-11-1.76c-.49-.45-.19-.7.24-.91Z"/><path class="cls-89" d="M119.92,170.19c-.14.29-.48.52-.24.91l-5.93.2c-.66-.11-1.36.19-2-.21.14-.67.69-.52,1-.4.54.18,1.12-.08,1.6.17.64.33.19-.5.69-.56a6.26,6.26,0,0,1,3.13,0C118.77,170.48,119.32,169.73,119.92,170.19Z"/><path class="cls-29" d="M68,181.11c-.28-.2-.62-.33-.76-.57s.11-.54.41-.51.68.17.65.59A.51.51,0,0,1,68,181.11Z"/><path class="cls-63" d="M65.29,171.51v-.43a4,4,0,0,1,2.89-1c1.08.13,2-.44,3.09-.64a23.84,23.84,0,0,0,5.43-1.91c-1.71-.48-3.2-1.12-4.86-.47-1.07.42-2.1-.08-3.11-.32-.57-.14-1.06-.38-1.64,0a1.12,1.12,0,0,1-1.15-.11c-1.09-.58-2.21-.08-3.29,0-.63.05-1.27.16-1.92.18a5.26,5.26,0,0,0-3,1c-.44.32-.76.72-.3,1.28.09.11.25.27.19.37-.61.92.32.94.73,1.26l.08.13c.1.29.81.16.5.76a.94.94,0,0,1-1,.57c-.74,0-1.42-.53-2.19-.22h-.66c-.21-.47-.62-.49-1-.44a10.18,10.18,0,0,1-1.83-.23c.27-.31.58-.2.9-.1a3.14,3.14,0,0,0,2.05-.11c.64-.24,1.59-.28.35-1.22-.53-.4.17-1.13.48-1.56s.57-.53.62-1,.3-.44.62-.47c.91-.07,1.63-.82,2.61-.7.39,0,.41-.4.55-.7.31-.69.58-1.35,1.67-.78a2.94,2.94,0,0,0,2.76.37,4.19,4.19,0,0,1,2.52,0,2.37,2.37,0,0,0,2-.34c.13-.08.28-.23.36-.13.54.64,1.3.27,1.88.46s.87.31,1.24-.2a.43.43,0,0,1,.4-.11c1.17.54,2.54.12,3.68.92.85.59,1.67-.12,2.45-.45.12,0,.31-.38.44-.21.5.66,1.35.93,1.77,1.58s.06,1.23-.51,1.72c-.84.73-1.92.65-2.87,1-.25.09-.58.12-.66.35-.32.91-1.15.86-1.74.72-1.45-.36-2.71,1-4.16.36-.15-.07-.25.1-.24.27s.21.26.39.3c-.23.51-.7.43-1.13.43H67.05c-.51-.13-1,0-1.54-.21Z"/><path class="cls-12" d="M33.05,168.82c-.82.3-2-.25-2.5,1-.23.52-1.06.71-1.64.72a15.07,15.07,0,0,1-5-.87c-.14,0-.35-.15-.36-.23a2.83,2.83,0,0,0-1.46-2.26c-.33-.23.09-.39.27-.54a3.25,3.25,0,0,1,3.22-.39c.52.18.9.27,1.17-.31.1-.21.34-.42.52-.32.65.37,1.15,0,1.63-.31,1.8-1,3.27-.1,4.76.74a13.28,13.28,0,0,1,1.53,1c.52.42.5.94-.11,1.2A13.84,13.84,0,0,1,33.05,168.82Z"/><path class="cls-63" d="M74.76,171.3a3.52,3.52,0,0,1-2.65,0Z"/><path class="cls-63" d="M80.05,171.08a3,3,0,0,1-2.43,0Z"/><path class="cls-94" d="M73.88,63.57c1.57-.48,3-1.36,4.69-1.55.24,0,.57.12.69-.18s-.21-.43-.36-.62a17.9,17.9,0,0,0-4.28-3.42,7.16,7.16,0,0,1-2.74-2.88c-.29-.67-.9-1.06-1.27-1.64-.14-.22-.58-.36-.32-.72s.39-.63.87-.5.84.12.85-.39-.42-.67-.86-.65a2.38,2.38,0,0,1-1.5-.52c-.93-.6-2-.25-3,0A1,1,0,0,1,65.45,50c-1.21-1.83-2.8-1.58-4.64-.49a4.19,4.19,0,0,1-2.88.9c-.66-.1-1.38.16-2,.08a4.86,4.86,0,0,1-3.26-2.09c-.91-1.19-1.27-1.32-2.78-.92a8.82,8.82,0,0,1-6.37-1,.81.81,0,0,1-.44-.72c1.59.47,3.21,1.39,4.76,1.29,1.92-.13,4.1-.27,5.6-2a9.49,9.49,0,0,1,5.36,0,43.28,43.28,0,0,1,5.37,2,3.85,3.85,0,0,0,3.47.43,4.63,4.63,0,0,1,2.24-.1c1.76.11,3.35-.92,5.11-.57.25,0,.49,0,.7.24a1.49,1.49,0,0,0,2.08.13,1.92,1.92,0,0,1,2.24,0A5,5,0,0,0,84.5,48a1.17,1.17,0,0,1,1.6.55c.22.45.68.47,1.14.52,1,.1,1.37.57,1.26,1.6a2.84,2.84,0,0,0,.9,2.25,2.23,2.23,0,0,1,.64,2c-.34,1.1.17,2.22-.39,3.31a2.4,2.4,0,0,0,.44,2.07,7.19,7.19,0,0,1,.6,1c.31.73.19,1-.74,1.2-2.28.43-4.63-.29-6.8.26-2.69.68-5.48,0-8.1.94C74.72,63.83,74.27,63.62,73.88,63.57Z"/><path class="cls-95" d="M90.4,129.44a4,4,0,0,1,2.85-1.67A26.8,26.8,0,0,1,97,127c1.84,0,3.57-1.16,5.45-.47.53.19,1.12.27,1.39.87-.1,0-.29-.08-.3,0-.59,1.25-1.32,1.47-2.68,1.28a19.54,19.54,0,0,0-3.9,0,28.26,28.26,0,0,1-3.06.12,5.32,5.32,0,0,0-2.24.68,2.62,2.62,0,0,1-1,.23Z"/><path class="cls-96" d="M48.76,128.56c-.95,0-1.85-.08-2.52.9-.37.52-1.18.11-1.78.26a15.46,15.46,0,0,1-3.19.38,23.68,23.68,0,0,1,5.44-2.83,11.51,11.51,0,0,1,7.29.13c1.27-.56,2.37.16,3.49.52a15.46,15.46,0,0,1,6.6,3.7,26.29,26.29,0,0,0,5.68,4.18,2.1,2.1,0,0,1,.82.68,13.64,13.64,0,0,1-2.71-1.19c-1.08-.72-1.74-2-3.15-2.34-.91-.23-1.43-1.33-2.33-1.77a3.6,3.6,0,0,0-.88-.43,10.81,10.81,0,0,1-5-1.72c-.95-.74-2.22-.31-3.29-.69C51.68,127.81,50.24,128.47,48.76,128.56Z"/><path class="cls-63" d="M48.54,115.56a15.23,15.23,0,0,1-3.06-1.14,1.41,1.41,0,0,0-1.35.19c-1,.62-2.31.4-3.4,1-.45.27-1.52-.09-2.3-.21-.48-.07-.94-.46-1.43,0a.24.24,0,0,1-.37-.1.51.51,0,0,1,0-.4,3.68,3.68,0,0,1,4.06-1.39c.21.11.38.25.58,0s.07-.38-.12-.53-.44-.39-.08-.6c1.36-.76-.09-.77-.37-1.23,1.19-.15,2.14-1,3.44-.6.84.27.71-.64.75-1s0-.59.6-.62a1.74,1.74,0,0,1,2,1.14,2,2,0,0,0,1.57,1.08,1.35,1.35,0,0,1,1.15.53c.21.35.5.19.72-.06s.33-.48,0-.76a3.21,3.21,0,0,1-.57-.65c-.16-.29-.8-.14-.63-.6s.7-.26,1.08-.31a6.42,6.42,0,0,1,1.87.39c2.29.32,4.62.85,6.91.4.83-.16,1.52.31,2.38,0a6.75,6.75,0,0,1,2.94,0c.93.09,2,.56,2.73.32,1.24-.41,2.11.54,3.29.35,1.94-.31,3.78.61,5.63,1.12a.58.58,0,0,1,.47.66c-.06.29-.35.31-.61.36a3.19,3.19,0,0,1-2.9-.6,3.43,3.43,0,0,0-3.54-.65,1.64,1.64,0,0,1-1.68-.38,2,2,0,0,0-2.24-.27,3.46,3.46,0,0,1-3.18-.13,2.07,2.07,0,0,0-1.67-.22,4.53,4.53,0,0,1-2.58,0c-.27-.06-.61-.31-.73.12s.2.52.47.66a9.61,9.61,0,0,0,3.07,1.08c.65.1,1.29.26,1.93.37.28,0,.51.1.52.44a.45.45,0,0,1-.35.5c-.69.09-1.32.62-2.06.29-.25-.11-.4,0-.6.13-1.83,1-3.72,1.75-5.87,1.09-.65-.2-1.19.3-1.83.37-1.21.12-2.41-.33-3.58,0C49.34,115.42,48.91,115.61,48.54,115.56Z"/><path class="cls-70" d="M51,116.65a17.18,17.18,0,0,1,2.38.13c.51.08.49-.56.7-.48,1,.4,2.13,0,3,.65.3.23.06.34-.18.39-3.3-.12-6.58-.49-9.89-.48-1.24-.25-2.52.06-3.77-.17l-2.18,0c.83-.47,1.72-.11,2.57-.22C46.08,116.1,48.52,116.52,51,116.65Z"/><path class="cls-63" d="M43.23,116.69c1.26,0,2.53-.25,3.77.17A14.91,14.91,0,0,1,43.23,116.69Z"/><path class="cls-16" d="M39.29,73.71c1.72.5,3.53.55,5.28.88-1.3.26-2.64,0-3.94.32S39.1,75,39.29,73.71Z"/><path class="cls-97" d="M52.29,74.36H50.75c-.21-.17-.49-.16-.71-.28a1,1,0,0,1-.27-1.71,3.38,3.38,0,0,1,2.06-1.16,4.86,4.86,0,0,0,2.3-1c.53-.45.51-.9,0-1.27S52.91,67.74,52,67.75a.48.48,0,0,1-.35-.23c.86-.6,2-.44,2.88-.87,1.23-.69,2.69-.45,4-1a1.32,1.32,0,0,1,.3-.09,8.63,8.63,0,0,0,2.57-.41.57.57,0,0,1,.43.17c.41.8,1.07.24,1.52.17a17.57,17.57,0,0,1,2.89-.16c0,.78-.64.66-1.12.7a11.46,11.46,0,0,0-3.54.9c.87.14,1.72.3,2.37-.54a1.06,1.06,0,0,1,1.21-.27,15.81,15.81,0,0,0,5.86.16,23,23,0,0,1,4.62-.2c1.74.15,3.34,1,5.13,1.13,1.1.08,1.27.78.6,1.66-.11.14-.35.29-.21.44.55.55.32,1.3.49,1.91.14,0,.21,0,.27,0,.45-.43.21-1.55,1.11-1.43,1.11.16,2.35.07,3.24,1,.3.33.29.56,0,.83A8.59,8.59,0,0,1,83,73.46c-.51.2-1-.16-1.42-.43s-1-.41-1.34.15c-.38.76-1.13,1-1.74,1.4-.11.1-.22.28-.33.28-3.93-.2-7.85.35-11.78.16-.62-.91-.34-1.69.74-1.71,1.36,0,2.65-.58,4-.37.24-.32,0-.45-.09-.64-.32-.82,0-1.29.92-1.16.54.07,1.08.25,1.58-.12a1.07,1.07,0,0,0,.59-.87c0-.48-.4-.55-.75-.68a26.47,26.47,0,0,0-3.73-1.17,1.29,1.29,0,0,0-1.4.35,2.82,2.82,0,0,1-3.21.63,29.61,29.61,0,0,0-6.09-.7A1.57,1.57,0,0,0,57,70c-.06.63-.65,1-1.16,1.41-.29.22-.63.38-.92.59-.86.62-.84,1,.11,1.46a8.09,8.09,0,0,0,1.65.58c.34.07.87.1.72.61s-.57.33-.92.12h-2.2C53.69,74.27,52.86,74.9,52.29,74.36Z"/><path class="cls-98" d="M78.5,74.58c-.27-1.19.82-.36,1.09-.76-.16-.08-.47-.16-.49-.29,0-.32.35-.16.45-.28,1-1.2,1.89-.87,2.89-.06a.72.72,0,0,0,.84,0c.94-.73,2.23-.9,2.9-1.84-.53-1.17-1.76-.81-2.65-1.24-.61-.29-1.06-.15-1.13.65,0,.23,0,.52-.2.71s-.37.52-.71.41a.56.56,0,0,1-.33-.73,1.51,1.51,0,0,0-.78-2c0-.28.2-.28.33-.3.45-.07.82-.29.82-.74s-.57-.7-.87-.67c-1.71.15-3.18-.71-4.76-1a3.5,3.5,0,0,0-2.13.13,1.79,1.79,0,0,1-1.37.1c-1-.41-1.86,0-2.77.16a10.56,10.56,0,0,1-4.54-.37c-.59-.18-.85-.21-1.19.43-.47.88-1.42.43-2.17.47-.31,0-.89.21-.93-.27s.54-.5.91-.61a15.14,15.14,0,0,1,3.65-.66.84.84,0,0,0,.81-.44c1.23,0,2.38-.49,3.61-.56,1.82-.11,3.61-.5,5.42-.77a20.8,20.8,0,0,0,3.23-.27A15.66,15.66,0,0,1,82.3,64a1.24,1.24,0,0,0,.75-.08,10.57,10.57,0,0,1,5.58-.1c.51.31,1.16.36,1.56.87-.43.15-.81,1.07-1.32,0-.19-.41-.71-.18-.89.16-.28.53-.5.81-1.1.35-.18-.14-.65-.2-.75.14a.54.54,0,0,0,.59.63c1.24-.14,1.85.84,2.73,1.38.43.26.75.88,1.39.48.27.85-1.38.83-.67,1.84.37.54.28,1.41,1.45,1.5-.85.45-1.88.45-1.58,1.59,0,.14-.16.26-.31.23a.49.49,0,0,1-.33-.24,9.75,9.75,0,0,0-.29-.94A1.72,1.72,0,0,1,87,73.25c-1.1-.16-2,.41-3,.62.21.65.9.31,1.18.71Z"/><path class="cls-75" d="M56.47,74.81c.27,0,.57.07.88-.33a7.24,7.24,0,0,1-2.55-.75c-.4-.17-1-.31-1-.74a1.57,1.57,0,0,1,.94-1.23,4.49,4.49,0,0,0,1.59-1.13,6.07,6.07,0,0,0,.49-.72c.27-.36-.4-1,.21-1.16s1.45-.71,2.21-.53c2.16.52,4.45.1,6.57,1A1.86,1.86,0,0,0,68,68.42,1.35,1.35,0,0,1,69.64,68c1.41.37,2.73.93,4.12,1.33a.87.87,0,0,1,.47,1.53,1.71,1.71,0,0,1-2.11.67c-.33-.14-.71-.35-1,.07s.06.65.36.89.4.39.26.66-.39.2-.59.15c-1.37-.29-2.65.45-4,.3-.91-.09-1.05.69-.73,1.47-.94.08-1.88.22-2.82.21a37.76,37.76,0,0,0-5.53.33A1.68,1.68,0,0,1,56.47,74.81Z"/><path class="cls-98" d="M52.29,74.36c.58,0,1.17,0,1.75,0,.37,0,.3.21.23.44-.88-.1-1.79.2-2.65-.21C51.86,74.57,52.13,74.62,52.29,74.36Z"/><path class="cls-84" d="M98.55,89.13c0,.9-.62,1-1.33.86l.22-.45A1.4,1.4,0,0,1,98.55,89.13Z"/><path class="cls-84" d="M90.4,92.61c-.1.17-.34.45-.3.5.32.39.79.12,1.18.21a1.54,1.54,0,0,1-1.41.33,14.09,14.09,0,0,1-3.43-1c.44,0,1.17.14,1.25,0,.38-.78,1.08-.19,1.47-.45C89.86,91.72,90.09,92.18,90.4,92.61Z"/><path class="cls-84" d="M94.8,90.88c-.31,1.7-1.86,1.11-2.86,1.55-.33-.15-.93-.11-.77-.66a1,1,0,0,1,1-.66C93,91.08,93.92,91,94.8,90.88Z"/><path class="cls-84" d="M97.22,90a3.5,3.5,0,0,1,0,.86c-.07.28-.3.61-.59.21-.75-1-1-.41-1.19.34a.58.58,0,0,1-.47.42c-.16-.3.33-.7-.13-1A3.47,3.47,0,0,1,97.22,90Z"/><path class="cls-60" d="M71,90.22c0-.59.15-1,.89-.66C71.73,90,71.34,90.05,71,90.22Z"/><path class="cls-91" d="M92.82,111.16c-1.58,1.24-3.23,1-4.91.23l-.59-.24a37.05,37.05,0,0,0-6.21-1.53.56.56,0,0,1-.43-.3c0-.06,0-.11,0-.17a17.82,17.82,0,0,1,7,.68,8.28,8.28,0,0,1,1.7.92,1.91,1.91,0,0,0,2.06.16C92.08,110.53,92.37,111.19,92.82,111.16Z"/><path class="cls-91" d="M79.82,110.28l-2.64-.67c-.68-.39-1.5-.18-2.21-.47a1.54,1.54,0,0,1,2.13-.45c1.12.55,2.45,0,3.62.46l0,0s0,.07,0,.1c0,.34.62.59.28,1S80.2,110.42,79.82,110.28Z"/><path class="cls-55" d="M37.53,109.61c.2.13.5.25.18.54a.48.48,0,0,1-.59.07c-.28-.26.18-.38.19-.61Z"/><path class="cls-55" d="M43.92,109.61c.18.1.39.2.34.46a.27.27,0,0,1-.22.16c-.4,0-.53-.27-.56-.62Z"/><path class="cls-55" d="M38.67,110.94c-.27,0-.65.06-.65-.38s.28-.49.6-.49.71.16.72.52S38.94,110.9,38.67,110.94Z"/><path class="cls-94" d="M61.76,65.33h-.44a11.3,11.3,0,0,0-2.64.44h0c-1,.07-2,.71-3.08.23a38.89,38.89,0,0,1,5.55-1.52c2-.43,4.13-.44,6.14-.83a37.54,37.54,0,0,1,5.78-.31.59.59,0,0,1,.59.23,57.75,57.75,0,0,1-6.78,1,25.29,25.29,0,0,1-4.42.32A.71.71,0,0,0,61.76,65.33Z"/><path class="cls-9" d="M88.63,63.79c-.46.35-1,.08-1.36,0-1.55-.45-3,.18-4.4.49-.68.15-1-.37-1.59-.35a31,31,0,0,0-5.27.32A.76.76,0,0,1,75.2,64,18.21,18.21,0,0,1,82,63.62a1.49,1.49,0,0,0,1.1-.23,1.31,1.31,0,0,1,.71-.24A12.21,12.21,0,0,1,88.63,63.79Z"/><path class="cls-17" d="M69.3,177c.13.28-.1.4-.25.52s-.31.53-.68.42a.25.25,0,0,1-.12-.16c-.08-.42.33-.41.54-.54S69,176.81,69.3,177Z"/><path class="cls-42" d="M65.51,171.52a1.9,1.9,0,0,1,1.54.21C66.51,171.84,66,172,65.51,171.52Z"/><path class="cls-86" d="M66,166.45c.61.21,1.2.32,1.63-.36.1-.16.34-.33.44-.15.59.95,1.65.57,2.45.92a1.44,1.44,0,0,0,1.17,0c1.85-.89,3.54-.07,5.26.48.22.06.45.17.39.44s-.27.15-.46.13a3.07,3.07,0,0,0-1.81.63c-1.56,1.09-3.51.79-5.14,1.64a1.94,1.94,0,0,1-2.06.09.58.58,0,0,0-.71.12,4.79,4.79,0,0,1-1.82.68,15.67,15.67,0,0,1-5.67-.27,3.2,3.2,0,0,0-1.16,0h0c-.19-.12-.42-.29-.33-.51a12.23,12.23,0,0,1,.92-2.45,2.21,2.21,0,0,1,1.8-1.06A43.43,43.43,0,0,1,66,166.45Z"/><path class="cls-98" d="M51.61,67.52c1.37-.35,2.12.74,3,1.42s.25,1.67-1.07,2.08a5.12,5.12,0,0,1-1.88.52c-.94-.07-1.29.83-1.92,1.25-.38.25.16.75.39,1.06s.53.2.66.51c-1.57.27-3.08-.44-4.64-.27A.89.89,0,0,1,45.8,74c.38-.68-.64-1.12-.32-1.74s0-.81-.52-.76a3,3,0,0,1-2.27-.89c-.33-.28.18-.29.13-.47l7.72-2.43A9.6,9.6,0,0,1,51.61,67.52Z"/><path class="cls-75" d="M55.6,66c1,.27,2-.6,3.08-.23-1.28.85-2.82.47-4.19.88C54.65,66.09,55.31,66.36,55.6,66Z"/><path class="cls-99" d="M79.82,110.28c.54-.06,1.58.22.62-.9-.11-.12.13-.18.26-.2,1.08.22,2.19.36,3.24.66a8.8,8.8,0,0,1,3.38,1.31c-.29.06-.55.16-.14.42.2.13.56.15.38.5a.64.64,0,0,1-.83.33,7.62,7.62,0,0,1-1.45-.44,17.41,17.41,0,0,0-5.09-1.48A1.48,1.48,0,0,1,79.82,110.28Z"/><path class="cls-42" d="M66,166.45c-1.27.58-2.64.2-4,.42-1,.17-2.12.08-2.67,1.13a5.61,5.61,0,0,0-.87,2.85c-.25-.06-.49-.14-.74-.19s-.81.07-.93-.4.54-.39.68-.71c-1-1-.54-2,1.19-2.59a7.4,7.4,0,0,1,2.23-.4,29.09,29.09,0,0,0,4.15-.45C65.47,166,65.75,166.05,66,166.45Z"/><path class="cls-6" d="M73.86,54.32c0,.33-.21.49-.51.36s-.78-.18-.69-.68a.46.46,0,0,1,.54-.42A.71.71,0,0,1,73.86,54.32Z"/><path class="cls-75" d="M58.68,65.77a2.73,2.73,0,0,1,2.64-.44C60.52,65.93,59.58,65.73,58.68,65.77Z"/></g></g></svg>