<svg xmlns="http://www.w3.org/2000/svg" viewBox="0 0 459.71 25.79"><defs><style>.cls-1{fill:#282828;}</style></defs><g id="Capa_2" data-name="Capa 2"><g id="Capa_1-2" data-name="Capa 1"><path class="cls-1" d="M5.66,5.5,3,5.53A3.11,3.11,0,0,0,1.77,4,3,3,0,0,0,.25,3.54H0V3.22H7.11v.32H6.83a1.38,1.38,0,0,0-1.06.51A1.34,1.34,0,0,0,5.66,5.5Zm6.26,20.29L2.12,3.41H4.8l7.75,19.38Zm0,0-.29-2.21L20,3.32h1.89L13.37,22.54c-.23.52-.43,1-.58,1.35s-.3.75-.42,1.11a3.11,3.11,0,0,0-.17.79ZM19.15,5.5A1.32,1.32,0,0,0,19,4.05,1.45,1.45,0,0,0,18,3.54h-.28V3.22H24v.32h-.28A3,3,0,0,0,22.25,4,3.26,3.26,0,0,0,21,5.53Z"/><path class="cls-1" d="M32.81,23a1.41,1.41,0,0,0,.09,1.47,1.3,1.3,0,0,0,1,.52h.26v.32h-6V25h.25a2.44,2.44,0,0,0,1.36-.46A3.6,3.6,0,0,0,30.94,23Zm6.1-17.1.22,2.18L31.89,25.25h-2l7.49-16c.23-.51.43-.95.58-1.31s.3-.74.43-1.09a3.72,3.72,0,0,0,.22-.86Zm3.73,12v.95H34.26V18Zm-3.73-12L47.6,25.16H45.1L38.37,8.76ZM44.25,23h2.4a3.41,3.41,0,0,0,1.17,1.53,2.4,2.4,0,0,0,1.33.46h.25v.32H42.92V25h.25a1.26,1.26,0,0,0,1-.52A1.41,1.41,0,0,0,44.25,23Z"/><path class="cls-1" d="M62.8,8.41h-.06a1.68,1.68,0,0,0-.57-1.22,1.89,1.89,0,0,0-1.33-.49h-.38V6.38H62.8Zm0,14.92.41,2H60.46V25h.45a1.78,1.78,0,0,0,1.29-.5,1.76,1.76,0,0,0,.54-1.2Zm2-16.95v19h-2v-19Zm-.09,2v-2H67V6.7h-.38a1.91,1.91,0,0,0-1.32.49,1.59,1.59,0,0,0-.55,1.22Zm8.59,16-.06,1H64.7v-1ZM75,20.83l-1.74,4.52h-4.8l1.08-1a5.89,5.89,0,0,0,2.54-.46,4.13,4.13,0,0,0,1.56-1.26,9.73,9.73,0,0,0,1-1.82Z"/><path class="cls-1" d="M88.47,8.38H88.4a1.72,1.72,0,0,0-.53-1.21,1.85,1.85,0,0,0-1.3-.47h-.44V6.38h2.75Zm0,14.95.41,2H86.13V25h.44a1.76,1.76,0,0,0,1.83-1.7Zm2-16.95v19h-2v-19Zm8.47,0v1H90.36v-1Zm-1.46,9v.95H90.36v-.95Zm1.49,9-.07,1h-8.5v-1Zm1.77-3.54L99,25.35h-4.8l1.07-1a5.89,5.89,0,0,0,2.54-.46,4.08,4.08,0,0,0,1.57-1.26,9.18,9.18,0,0,0,1-1.82ZM98.9,5.88V6.7l-3.61-.32a13,13,0,0,0,2.09-.17A7.89,7.89,0,0,0,98.9,5.88Zm-1.46,7.77v1.81H95.8v-.07a1.19,1.19,0,0,0,1-.39,1.47,1.47,0,0,0,.31-.93v-.42Zm0,2.63v1.8h-.35v-.41a1.43,1.43,0,0,0-.31-.93,1.17,1.17,0,0,0-1-.4v-.06Zm1.46-9V9.45h-.35V9a1.62,1.62,0,0,0-.43-1.14A1.46,1.46,0,0,0,97,7.36V7.27Z"/><path class="cls-1" d="M114.6,23.39v2h-2.37V25h.54a1.71,1.71,0,0,0,1.23-.47,1.55,1.55,0,0,0,.51-1.17Zm-.06-17.48,1.36,1.77,0,17.67h-1.42V9.86a33.76,33.76,0,0,0-.29-3.95Zm0,0,17.51,16.5.32,3.38L114.86,9.2Zm1.39,17.48a1.52,1.52,0,0,0,.52,1.17,1.75,1.75,0,0,0,1.22.47h.54v.32h-2.37v-2Zm15-15a1.69,1.69,0,0,0-.54-1.17,1.77,1.77,0,0,0-1.23-.47h-.54V6.38H131v2Zm1.39-2V21.75c0,.67,0,1.32.06,1.94s.11,1.32.22,2.1h-.28L131,24.12V6.38Zm-.1,2v-2h2.37V6.7h-.54a1.77,1.77,0,0,0-1.21.47,1.52,1.52,0,0,0-.52,1.17Z"/><path class="cls-1" d="M145.7,5.85a8.81,8.81,0,0,0,.87.22c.39.08.83.15,1.31.2a11.08,11.08,0,0,0,1.36.08l-3.54.32Zm17.36.5v1H145.7v-1Zm-15.43.89V7.3a1.61,1.61,0,0,0-1.15.49,1.57,1.57,0,0,0-.43,1.12v.51h-.35V7.24Zm5.79,16.09v2h-2.31V25h.38a1.85,1.85,0,0,0,1.29-.5,1.71,1.71,0,0,0,.57-1.2Zm2-16.85V25.35h-2.06V6.48Zm-.1,16.85h.1a1.71,1.71,0,0,0,.57,1.2,1.83,1.83,0,0,0,1.29.5h.35v.32h-2.31Zm7.75-17.48v.82l-3.54-.32a10.66,10.66,0,0,0,1.34-.08c.47,0,.91-.12,1.31-.2A8.79,8.79,0,0,0,163.06,5.85Zm0,1.39V9.42h-.35V8.91a1.57,1.57,0,0,0-.43-1.12,1.61,1.61,0,0,0-1.15-.49V7.24Z"/><path class="cls-1" d="M176.9,8.41h-.1a1.65,1.65,0,0,0-.5-1.22,1.7,1.7,0,0,0-1.23-.49h-.35V6.38h2.18Zm0,14.92v2h-2.18V25h.35a1.71,1.71,0,0,0,1.23-.5,1.67,1.67,0,0,0,.5-1.2Zm1.93-16.95v19h-2v-19Zm-1.2-2.24L179,2.7c.45-.47.89-.93,1.35-1.39s.9-.89,1.34-1.31c.23.25.46.52.69.79a4.53,4.53,0,0,1,.61.89l-1.71.94c-.57.32-1.13.62-1.69.9s-1.12.57-1.69.84Zm1.13,4.27v-2h2.18l0,.32h-.31a1.7,1.7,0,0,0-1.24.49,1.76,1.76,0,0,0-.53,1.22Zm0,14.92h.07a1.79,1.79,0,0,0,.53,1.2,1.71,1.71,0,0,0,1.24.5h.31l0,.32h-2.18Z"/><path class="cls-1" d="M195.61,23.39v2h-2.37V25h.54a1.72,1.72,0,0,0,1.23-.47,1.54,1.54,0,0,0,.5-1.17Zm-.06-17.48,1.36,1.77,0,17.67h-1.43V9.86a33.47,33.47,0,0,0-.28-3.95Zm0,0,17.51,16.5.31,3.38L195.86,9.2Zm1.39,17.48a1.52,1.52,0,0,0,.52,1.17,1.72,1.72,0,0,0,1.21.47h.54v.32h-2.37v-2Zm15-15a1.65,1.65,0,0,0-.54-1.17,1.73,1.73,0,0,0-1.23-.47h-.54V6.38H212v2Zm1.39-2V21.75c0,.67,0,1.32.07,1.94s.11,1.32.22,2.1h-.29L212,24.12V6.38Zm-.09,2v-2h2.37V6.7h-.54a1.79,1.79,0,0,0-1.22.47,1.56,1.56,0,0,0-.52,1.17Z"/><path class="cls-1" d="M262.27,15a11.46,11.46,0,0,1,.19,3.32,9.25,9.25,0,0,1-.78,2.92A7.73,7.73,0,0,1,260,23.55a7.54,7.54,0,0,1-2.52,1.56,9,9,0,0,1-3.25.56,16.77,16.77,0,0,1-3.37-.32,10.2,10.2,0,0,1-2.7-.93,7,7,0,0,1-2-1.52A6.05,6.05,0,0,1,245,20.84a7.41,7.41,0,0,1-.41-2.57,6.87,6.87,0,0,1,.2-1.69,5.74,5.74,0,0,1,.59-1.44,5.26,5.26,0,0,1,.9-1.18,9.07,9.07,0,0,1,1.15-1,8.18,8.18,0,0,1,1.36-.76l.44.7a5.38,5.38,0,0,0-1.07,1.12,6.18,6.18,0,0,0-.73,1.3,6.11,6.11,0,0,0-.41,1.42,9.29,9.29,0,0,0-.12,1.5,6.89,6.89,0,0,0,.48,2.61,5.76,5.76,0,0,0,1.43,2,6.55,6.55,0,0,0,2.3,1.32,9.56,9.56,0,0,0,3.15.48,6.15,6.15,0,0,0,2.86-.65,6.34,6.34,0,0,0,2.09-1.71,7.55,7.55,0,0,0,1.59-5,6,6,0,0,0-.63-2.45,3.13,3.13,0,0,0-.81-1,1.83,1.83,0,0,0-1.25-.41h-.47v-.32h6.29v.32h-.47a1.14,1.14,0,0,0-1,.41A1.25,1.25,0,0,0,262.27,15ZM253.54,2.78a7.64,7.64,0,0,1,2.09.29,7.91,7.91,0,0,1,1.86.77A5.08,5.08,0,0,1,258.92,5l-.57,3.57H258A5.58,5.58,0,0,0,257.46,6a4.16,4.16,0,0,0-1.56-1.68,4.59,4.59,0,0,0-2.36-.58,3.91,3.91,0,0,0-3,1.26,4.51,4.51,0,0,0-1.19,3.2,5.94,5.94,0,0,0,1.3,3.69,28.12,28.12,0,0,0,3.73,3.89q.69.6,1.53,1.38c.56.51,1.2,1.09,1.93,1.72s1.54,1.33,2.45,2.09c.67.54,1.36,1.12,2.07,1.73a14.5,14.5,0,0,0,2.18,1.58,5.21,5.21,0,0,0,2.32.76v.32l-1.72,0a9.62,9.62,0,0,1-2.48-.44A8.11,8.11,0,0,1,260,23.36l-2.2-1.82L255.93,20c-.56-.47-1.08-.93-1.56-1.36l-1.43-1.28c-1.22-1.14-2.26-2.16-3.11-3.08a11.19,11.19,0,0,1-2-2.81,7.62,7.62,0,0,1-.68-3.27A5.23,5.23,0,0,1,247.63,6a5,5,0,0,1,1.28-1.71,6.35,6.35,0,0,1,2-1.14A8,8,0,0,1,253.54,2.78Z"/><path class="cls-1" d="M313.34,16.12l-.38,5a9.51,9.51,0,0,1-2.07,2.42A9.39,9.39,0,0,1,308,25.17a11,11,0,0,1-3.87.62,12,12,0,0,1-5.84-1.45,10.13,10.13,0,0,1-4-4,12.3,12.3,0,0,1-1.44-6.09,12.26,12.26,0,0,1,1.42-6,10.15,10.15,0,0,1,4-4,12.2,12.2,0,0,1,6-1.44,13.51,13.51,0,0,1,4.22.62,13.75,13.75,0,0,1,3.27,1.53l.63,4.46h-.28a6.84,6.84,0,0,0-2.84-4.22A9.46,9.46,0,0,0,299.45,5a8.74,8.74,0,0,0-3.16,3.67,12.67,12.67,0,0,0-1.12,5.51,12.76,12.76,0,0,0,1.12,5.53,8.84,8.84,0,0,0,3.13,3.7,8.58,8.58,0,0,0,4.66,1.39,10.24,10.24,0,0,0,4.16-.84,7.5,7.5,0,0,0,3.21-2.74,11.3,11.3,0,0,0,1.64-5.14Z"/><path class="cls-1" d="M328.92,23a1.41,1.41,0,0,0,.1,1.47,1.28,1.28,0,0,0,1,.52h.25v.32h-6V25h.25a2.46,2.46,0,0,0,1.36-.46,3.6,3.6,0,0,0,1.2-1.53ZM335,5.94l.23,2.18L328,25.25h-2l7.49-16,.58-1.31c.16-.37.3-.74.43-1.09a4.32,4.32,0,0,0,.22-.86Zm3.73,12v.95h-8.37V18ZM335,5.94l8.7,19.22h-2.5l-6.73-16.4ZM340.37,23h2.4a3.28,3.28,0,0,0,1.17,1.53,2.37,2.37,0,0,0,1.32.46h.26v.32H339V25h.25a1.26,1.26,0,0,0,1-.52A1.41,1.41,0,0,0,340.37,23Z"/><path class="cls-1" d="M358.38,23.23v2.12h-3.29V25h.48a2.28,2.28,0,0,0,1.44-.47,1.89,1.89,0,0,0,.71-1.33Zm1.8-17.29h.32l.63,1.87-2,17.54h-1.74Zm-.85,17.77a1.55,1.55,0,0,0,.22.9,1.07,1.07,0,0,0,.95.45h.44v.29h-1.8V23.71ZM360.5,5.94l8.59,16.53-.72,3.32L359.9,9.42Zm16.4,0L377.19,8l-7.4,14.57c-.32.71-.56,1.32-.73,1.81a11.53,11.53,0,0,0-.38,1.41h-.31l-.44-2Zm.29,0L380,25.35h-2.4l-2.06-15.9,1.33-3.51Zm.22,17.77h.22v1.64H375.8v-.29h.47a1,1,0,0,0,1-.47A1.42,1.42,0,0,0,377.41,23.71Zm1.67-.48h.63a2,2,0,0,0,.76,1.33,2.3,2.3,0,0,0,1.43.47h.47v.32h-3.29Z"/><path class="cls-1" d="M396.5,8.41h-.1a1.57,1.57,0,0,0-.65-1.22,2.31,2.31,0,0,0-1.5-.49h-.44V6.38h2.69Zm0,14.92v2h-2.69V25h.44a2.32,2.32,0,0,0,1.5-.5,1.59,1.59,0,0,0,.65-1.2Zm1.89-16.95v19h-2v-19Zm-.09,2v-2H401l0,.32h-.41a2.31,2.31,0,0,0-1.5.49,1.6,1.6,0,0,0-.65,1.22Zm0,14.92h.09a1.62,1.62,0,0,0,.65,1.2,2.32,2.32,0,0,0,1.5.5H401l0,.32H398.3Z"/><path class="cls-1" d="M416.25,8.41h-.06a1.68,1.68,0,0,0-.57-1.22,1.89,1.89,0,0,0-1.33-.49h-.38V6.38h2.34Zm0,14.92.41,2h-2.75V25h.44a1.79,1.79,0,0,0,1.3-.5,1.76,1.76,0,0,0,.54-1.2Zm2-16.95v19h-2v-19Zm-.09,2v-2h2.34V6.7h-.38a1.91,1.91,0,0,0-1.32.49,1.56,1.56,0,0,0-.55,1.22Zm8.59,16-.06,1h-8.5v-1Zm1.77-3.54-1.74,4.52h-4.8l1.07-1a5.9,5.9,0,0,0,2.55-.46,4.13,4.13,0,0,0,1.56-1.26,9.73,9.73,0,0,0,1.05-1.82Z"/><path class="cls-1" d="M443.12,23a1.41,1.41,0,0,0,.09,1.47,1.3,1.3,0,0,0,1,.52h.26v.32h-6V25h.25a2.44,2.44,0,0,0,1.36-.46,3.6,3.6,0,0,0,1.2-1.53Zm6.1-17.1.22,2.18L442.2,25.25h-2l7.49-16c.23-.51.43-.95.58-1.31s.3-.74.43-1.09a3.72,3.72,0,0,0,.22-.86ZM453,18v.95h-8.38V18Zm-3.73-12,8.69,19.22h-2.5l-6.73-16.4ZM454.56,23H457a3.41,3.41,0,0,0,1.17,1.53,2.4,2.4,0,0,0,1.33.46h.25v.32h-6.48V25h.25a1.26,1.26,0,0,0,1-.52A1.41,1.41,0,0,0,454.56,23Z"/></g></g></svg>