<svg xmlns="http://www.w3.org/2000/svg" viewBox="0 0 640.7 71.27"><defs><style>.cls-1{fill:#2d2b2c;}</style></defs><g id="Capa_2" data-name="Capa 2"><g id="Capa_1-2" data-name="Capa 1"><path class="cls-1" d="M2.66,69.94v-.81c0-.41,0-.84,0-1.28s-.05-.86-.05-1.24v-.86a59.3,59.3,0,0,1,.57-8.18c.38-2.73.81-5.42,1.28-8.09s.92-5.34,1.34-8a54.61,54.61,0,0,0,.62-8.23v-3.9c0-.82,0-1.6,0-2.33s0-1.25,0-1.57a3,3,0,0,0-1.62-1.33l-2.09-.77a7.84,7.84,0,0,1-1.81-.9A2,2,0,0,1,0,20.65a2,2,0,0,1,.48-1.38,3.12,3.12,0,0,1,1.14-.81,4.28,4.28,0,0,1,1.47-.33c.54,0,1-.05,1.48-.05q4.56,0,6.75,2.86a11.83,11.83,0,0,1,2.19,7.42,44.21,44.21,0,0,1-.76,8.23q-.77,4-1.66,8c-.61,2.66-1.16,5.35-1.67,8a44.21,44.21,0,0,0-.76,8.23v.67c.25-.19.68-.57,1.28-1.14s1.23-1.18,1.86-1.81,1.24-1.25,1.81-1.86,1-1,1.14-1.28A107.84,107.84,0,0,0,24,42.58q4.1-6.7,7.52-12.94T37.87,18a54.44,54.44,0,0,1,5.9-8.85,14.94,14.94,0,0,1,6.14-4.61c2.13-.76,4.46-.45,7,.95a1.77,1.77,0,0,1-.77,1.62,6.59,6.59,0,0,1-1.8.76c-.7.19-1.38.39-2.05.62a2.48,2.48,0,0,0-1.47,1.19Q42,25.4,31.78,40.82A295.43,295.43,0,0,1,9.9,69.94,6.26,6.26,0,0,1,8.14,71a6.36,6.36,0,0,1-1.86.23A6.36,6.36,0,0,1,4.42,71,6.26,6.26,0,0,1,2.66,69.94Z"/><path class="cls-1" d="M34.83,65.18A32.33,32.33,0,0,1,38,55.43a35.81,35.81,0,0,1,5.33-7.76,30.62,30.62,0,0,1,6.56-5.47,20.76,20.76,0,0,1,6.86-2.76,12.17,12.17,0,0,1,6.18.34,8.4,8.4,0,0,1,4.57,3.71,9.38,9.38,0,0,1-1,4.14q-1,1.95-2.14,3.85a36.76,36.76,0,0,0-2.15,4,10.46,10.46,0,0,0-.95,4.43,6.45,6.45,0,0,0,1,3.9c.7.95,2,1.42,3.81,1.42a14.21,14.21,0,0,0,4.28-.66,14.12,14.12,0,0,1,4.28-.67l1.19,0,1.19.05a11.41,11.41,0,0,1-2.86,2.66,18,18,0,0,1-3.71,1.9,23.7,23.7,0,0,1-4,1.15,21.51,21.51,0,0,1-3.85.38,6,6,0,0,1-3-.76,7.52,7.52,0,0,1-2.24-2,9.5,9.5,0,0,1-1.42-2.72,9.27,9.27,0,0,1-.53-3q-1.43,1.62-3,3.33A26.9,26.9,0,0,1,49,68a19.07,19.07,0,0,1-3.9,2.33,10.67,10.67,0,0,1-4.33.9,5.56,5.56,0,0,1-4.19-1.8A6,6,0,0,1,34.83,65.18Zm6.09-3c0,.51,0,1.08,0,1.72s.42,1,1.19,1.23a17.69,17.69,0,0,0,5.32-2.47A33.36,33.36,0,0,0,53,58.24a29,29,0,0,0,4.33-5.47,10.88,10.88,0,0,0,1.76-5.67c0-.12,0-.33,0-.61a4.6,4.6,0,0,1,0-.62,16.67,16.67,0,0,0-6.38,1.33,21,21,0,0,0-5.8,3.57A19.34,19.34,0,0,0,42.58,56,12.67,12.67,0,0,0,40.92,62.23Z"/><path class="cls-1" d="M73.84,62.71a18.4,18.4,0,0,1,.15-2c.09-.86.2-1.74.33-2.67s.25-1.72.38-2.42a4.26,4.26,0,0,1,.38-1.33L91.92,20.55a14.56,14.56,0,0,1,1.43-2.09c.7-.89,1.48-1.81,2.33-2.76s1.7-1.85,2.52-2.71,1.53-1.54,2.1-2.05a1.56,1.56,0,0,1,1,.67,2.94,2.94,0,0,1,.38,1.05,4.84,4.84,0,0,1,.05,1.14c0,.38-.05.7-.05.95v1.33c0,.57,0,.86-.1.86a44.78,44.78,0,0,1-2.9,5.9c-1.3,2.28-2.76,4.73-4.37,7.33s-3.27,5.31-5,8.13-3.24,5.62-4.67,8.38a63,63,0,0,0-3.47,7.94,21.15,21.15,0,0,0-1.33,7,3.6,3.6,0,0,0,1,2.66,11,11,0,0,0,2.14,1.67,15.36,15.36,0,0,1,2.14,1.52,2.55,2.55,0,0,1,1,2,1.37,1.37,0,0,1-.76,1.28,3.59,3.59,0,0,1-1.81.43A10.76,10.76,0,0,1,76.7,69,7.42,7.42,0,0,1,73.84,62.71Z"/><path class="cls-1" d="M98.49,66.33a14.63,14.63,0,0,1-1.19-9.09,20.48,20.48,0,0,1,3.47-8,25.13,25.13,0,0,1,6.09-6A21.42,21.42,0,0,1,113.48,40a6.64,6.64,0,0,1,5.14.39q2,1.18,1.57,4.8a9.35,9.35,0,0,1-2.29,6.28,36,36,0,0,1-5,4.81c-1.81,1.42-3.48,2.71-5,3.85s-2.28,2.22-2.28,3.24c0,.5.33.92,1,1.23a9,9,0,0,0,2.28.72,22.58,22.58,0,0,0,2.57.33c.85.06,1.47.13,1.85.19q8.76-1.8,13.09-2.24c2.88-.28,4.71-.27,5.47,0s.62.86-.43,1.62a19.48,19.48,0,0,1-4.71,2.28,55.76,55.76,0,0,1-7.33,2,47.63,47.63,0,0,1-8.27,1,25.07,25.07,0,0,1-7.52-.81A8.71,8.71,0,0,1,98.49,66.33ZM114.76,45.2a6.79,6.79,0,0,0-3.57,1,12.56,12.56,0,0,0-3,2.52,17.73,17.73,0,0,0-2.29,3.33,19.5,19.5,0,0,0-1.43,3.43.81.81,0,0,0,.29.09h.29a5.61,5.61,0,0,0,3-1.09,17.67,17.67,0,0,0,3.19-2.71,16.88,16.88,0,0,0,2.52-3.43A6.67,6.67,0,0,0,114.76,45.2Z"/><path class="cls-1" d="M131.13,67V65.75a3,3,0,0,1,.14-.9,5.18,5.18,0,0,1,.43-.9c.19-.32.44-.73.76-1.24s.86-1.46,1.62-2.66,1.62-2.56,2.57-4l3-4.71q1.56-2.48,3-4.71l2.57-4c.76-1.21,1.33-2.1,1.72-2.67.06-.06.23-.09.52-.09h1.28a1,1,0,0,1,.57.09c.07.07.21.22.43.48l.72.81c.25.28.49.54.71.76a.93.93,0,0,0,.52.33,3.29,3.29,0,0,0,1.76-.57c.61-.38,1.24-.79,1.91-1.24s1.34-.85,2-1.23a4.38,4.38,0,0,1,2.1-.58,5,5,0,0,1,4,1.91,6.19,6.19,0,0,1,1.57,4,13.37,13.37,0,0,1-.62,4c-.41,1.3-.85,2.59-1.33,3.85s-.92,2.54-1.33,3.81a12.64,12.64,0,0,0-.62,4,6.69,6.69,0,0,0,.47,2.9c.32.6,1.18.9,2.57.9a14.87,14.87,0,0,0,4.76-.76,14.87,14.87,0,0,1,4.76-.76,5.39,5.39,0,0,1-1.33,3.76,9.47,9.47,0,0,1-3.33,2.33,17,17,0,0,1-4.29,1.19,29.33,29.33,0,0,1-4.18.33c-2.41,0-4.14-.66-5.19-2a8.4,8.4,0,0,1-1.57-5.32,10.68,10.68,0,0,1,.81-4.14c.54-1.3,1.13-2.57,1.76-3.81s1.22-2.49,1.76-3.76a10.11,10.11,0,0,0,.81-4,10.45,10.45,0,0,0-.14-1.47,1,1,0,0,0-1.19-.91,8.84,8.84,0,0,0-5.62,2,20.6,20.6,0,0,0-4.42,4.9A52.93,52.93,0,0,0,144,58q-1.67,3.48-3,6.42a36,36,0,0,1-2.71,4.9q-1.34,2-2.76,2A4.26,4.26,0,0,1,132.37,70,4.13,4.13,0,0,1,131.13,67Z"/><path class="cls-1" d="M170.81,62.14a14.82,14.82,0,0,1,1.05-5.38,52.13,52.13,0,0,1,2.42-5.37c.92-1.78,1.86-3.52,2.81-5.24a26.56,26.56,0,0,0,2.19-5,9.12,9.12,0,0,1-3.05,1.09,25.84,25.84,0,0,1-3,.15l-1.14-.05-1.24,0a8.47,8.47,0,0,1,2.05-3.66,16.5,16.5,0,0,1,3.37-2.76,21.44,21.44,0,0,1,4-1.95c1.39-.51,2.67-.92,3.81-1.24a54.39,54.39,0,0,0,4.52-8.8q1.75-4.43,3.61-8.66a61.81,61.81,0,0,1,4.29-8.09A27.58,27.58,0,0,1,203.07,0l.47,3.52-11.6,27.22c.63-.19,1.44-.38,2.42-.57s2-.37,3-.53,2-.31,3-.47,1.78-.34,2.48-.53l.57,0a5.58,5.58,0,0,1,.67-.05,4.81,4.81,0,0,1,2.18.43,3.36,3.36,0,0,1,1.43,2q-6.37,1.9-11.46,3.95a31.38,31.38,0,0,0-8.9,5.33,24.71,24.71,0,0,0-6.19,8.37A41.57,41.57,0,0,0,178,61.57v1.66a4.76,4.76,0,0,0,.19,1.43,2.33,2.33,0,0,0,.71,1.09,2.66,2.66,0,0,0,1.57.58,10.11,10.11,0,0,0,4-.81,34.58,34.58,0,0,0,3.66-1.81,37,37,0,0,1,3.62-1.81,9.73,9.73,0,0,1,4-.81,5.65,5.65,0,0,1-2,4.09A18,18,0,0,1,189,68.42a30.73,30.73,0,0,1-5.67,2.09,19.29,19.29,0,0,1-4.71.76,6.94,6.94,0,0,1-3.33-.76,7.43,7.43,0,0,1-2.42-2,9.48,9.48,0,0,1-1.53-2.9A11.09,11.09,0,0,1,170.81,62.14Z"/><path class="cls-1" d="M195.55,62.85a15.61,15.61,0,0,1,1-2.52c.44-.63,1.22-1.81,2.33-3.52s2.31-3.54,3.61-5.47,2.53-3.76,3.67-5.47,1.93-2.92,2.38-3.62.92-1.17,1.23-1.24a11.74,11.74,0,0,1,1.81-.09c.51,0,1.1,0,1.76.09a1.44,1.44,0,0,1,1.29,1.24,25.14,25.14,0,0,1-3.43,6q-2.19,2.85-4.33,5.61a40.62,40.62,0,0,0-3.71,5.71,13.14,13.14,0,0,0-1.57,6.28,10.11,10.11,0,0,1,1.19.1l1.71.19c.61.06,1.18.12,1.72.19a3.84,3.84,0,0,0,1.19,0c.38-.07,1-.19,1.9-.38l2.9-.67c1.05-.25,2-.51,2.9-.76s1.53-.44,1.91-.57c0,.13,0,.33,0,.62a4.48,4.48,0,0,1,.05.61,3.51,3.51,0,0,1-1.71,3,15.37,15.37,0,0,1-4,1.85,23.24,23.24,0,0,1-4.66,1c-1.59.15-2.79.23-3.62.23a12.05,12.05,0,0,1-2.85-.33,7.71,7.71,0,0,1-2.52-1A5.69,5.69,0,0,1,196,68a5.31,5.31,0,0,1-.71-2.81A8.6,8.6,0,0,1,195.55,62.85ZM213.3,16.22a55.08,55.08,0,0,0-3.43,4.43q-1.67,2.38-3,4.61a31.44,31.44,0,0,0-1.66,3.19c.12.76.63.92,1.52.48a14.06,14.06,0,0,0,3.09-2.29,34.84,34.84,0,0,0,3.57-3.85,30.33,30.33,0,0,0,2.95-4.28A9.55,9.55,0,0,0,217.68,15c.09-1-.37-1.46-1.38-1.53A12,12,0,0,0,213.3,16.22Z"/><path class="cls-1" d="M219.05,67V65.75a2.74,2.74,0,0,1,.15-.9,4.46,4.46,0,0,1,.42-.9c.19-.32.45-.73.77-1.24s.85-1.46,1.61-2.66l2.57-4,3-4.71,3-4.71,2.57-4q1.14-1.82,1.71-2.67a.9.9,0,0,1,.52-.09h1.29a1,1,0,0,1,.57.09l.43.48.71.81c.25.28.49.54.71.76s.4.33.53.33a3.29,3.29,0,0,0,1.76-.57c.6-.38,1.24-.79,1.9-1.24s1.35-.85,2-1.23a4.35,4.35,0,0,1,2.09-.58,5,5,0,0,1,4.05,1.91,6.24,6.24,0,0,1,1.57,4,13.37,13.37,0,0,1-.62,4c-.42,1.3-.86,2.59-1.33,3.85s-.93,2.54-1.34,3.81a12.93,12.93,0,0,0-.62,4,6.52,6.52,0,0,0,.48,2.9c.32.6,1.17.9,2.57.9a14.92,14.92,0,0,0,4.76-.76,14.87,14.87,0,0,1,4.76-.76,5.39,5.39,0,0,1-1.34,3.76A9.47,9.47,0,0,1,257,68.61a17,17,0,0,1-4.28,1.19,29.46,29.46,0,0,1-4.19.33c-2.41,0-4.14-.66-5.18-2a8.34,8.34,0,0,1-1.57-5.32,10.68,10.68,0,0,1,.81-4.14c.53-1.3,1.12-2.57,1.76-3.81s1.22-2.49,1.76-3.76a10.11,10.11,0,0,0,.81-4,9.32,9.32,0,0,0-.15-1.47,1,1,0,0,0-1.19-.91,8.83,8.83,0,0,0-5.61,2,20.63,20.63,0,0,0-4.43,4.9A52.9,52.9,0,0,0,232,58q-1.66,3.48-3,6.42a34.9,34.9,0,0,1-2.71,4.9q-1.33,2-2.76,2A4.26,4.26,0,0,1,220.29,70,4.17,4.17,0,0,1,219.05,67Z"/><path class="cls-1" d="M323.82,59.09a28.56,28.56,0,0,1-5.13-.76,23.38,23.38,0,0,1-5.57-2,13.92,13.92,0,0,1-4.43-3.47,7.79,7.79,0,0,1-1.8-5.19,3.65,3.65,0,0,1,.85-2.61,4.4,4.4,0,0,1,2.1-1.24,11.69,11.69,0,0,1,2.66-.38c.95,0,1.81,0,2.57,0a22.1,22.1,0,0,1,4.9.43A7.66,7.66,0,0,1,322.68,45,3.88,3.88,0,0,1,324,46.68c.25.66.53,1.34.85,2a15.55,15.55,0,0,0,1.24,2.19,7.61,7.61,0,0,0,2.57,2.19,8.35,8.35,0,0,0,2.57-3.19,55.51,55.51,0,0,0,2.42-5.28c.8-2,1.56-4,2.29-6.14s1.46-4.07,2.19-5.85a26.93,26.93,0,0,1,2.19-4.38c.72-1.14,1.44-1.71,2.14-1.71a1.69,1.69,0,0,1,1.38.52,2.93,2.93,0,0,1,.57,1.29,6.47,6.47,0,0,1,.09,1.52c0,.51,0,.95,0,1.33s0,.81-.05,1.48a4.48,4.48,0,0,1-.15,1.19l-8.37,16.84v1.05A13.08,13.08,0,0,0,342.24,50a57.09,57.09,0,0,0,6-3.81c1.87-1.36,3.56-2.63,5-3.81a6.64,6.64,0,0,1,3.66-1.76,8.85,8.85,0,0,1-1.67,5.28A17.37,17.37,0,0,1,351,50.05a34.77,34.77,0,0,1-5.57,3.19c-2,.92-3.85,1.73-5.56,2.43s-3.19,1.33-4.43,1.9-1.92,1.08-2,1.52l-3.53,12.09q0,.09-.42.09h-.62a5.78,5.78,0,0,1-1.29-.19,16.77,16.77,0,0,1-1.66-.47,4.92,4.92,0,0,1-1.48-.76,1.35,1.35,0,0,1-.62-1ZM312.5,47.87a3.11,3.11,0,0,0,1.24,2.52A9.43,9.43,0,0,0,316.69,52a22.48,22.48,0,0,0,3.42.85,17.5,17.5,0,0,0,2.57.29,1.58,1.58,0,0,1,.05-.29,1.38,1.38,0,0,0,0-.28A2.9,2.9,0,0,0,321.49,50a9.24,9.24,0,0,0-3-1.38,18.07,18.07,0,0,0-3.43-.62C313.93,47.91,313.07,47.87,312.5,47.87Z"/><path class="cls-1" d="M407.56,60.9a48.06,48.06,0,0,1,2.24-10.32,65.94,65.94,0,0,1,4.09-9.52,95.72,95.72,0,0,1,5.43-9q3-4.43,6.33-9,1.89-2.48,4.23-5a40.89,40.89,0,0,1,5-4.72,27.06,27.06,0,0,1,5.86-3.52,16.12,16.12,0,0,1,6.56-1.38,13.4,13.4,0,0,1,2.86.24,2.41,2.41,0,0,1,1.52,1,4.13,4.13,0,0,1,.57,2,29.56,29.56,0,0,1,0,3.28,14.87,14.87,0,0,1-.81,4.72,18.2,18.2,0,0,1-2.28,4.56,18.44,18.44,0,0,1-3.52,3.81,12.14,12.14,0,0,1-4.43,2.33V29a8.06,8.06,0,0,1,.91-3.76c.6-1.17,1.26-2.37,2-3.61s1.4-2.49,2-3.76a9.67,9.67,0,0,0,.91-4.19,8.76,8.76,0,0,1-1.76-.14,10,10,0,0,0-1.34-.19,2.78,2.78,0,0,0-1.23.19,5.11,5.11,0,0,0-1.48,1,100.47,100.47,0,0,0-9.32,8.71A84.75,84.75,0,0,0,423.27,34a60.39,60.39,0,0,0-6.38,12,34.3,34.3,0,0,0-2.47,12.66c0,.19,0,.51,0,1s.07.87.1,1.28.08.81.14,1.19.1.61.1.67A4.18,4.18,0,0,0,417.27,64a17.21,17.21,0,0,0,2.19.19,20.08,20.08,0,0,0,7.47-1.38c2.31-.92,4.6-1.94,6.85-3s4.5-2.12,6.76-3a18.77,18.77,0,0,1,7.18-1.38A4.88,4.88,0,0,1,446,58.57a29,29,0,0,1-4.47,3.57,52.42,52.42,0,0,1-6,3.43c-2.22,1.07-4.4,2-6.52,2.9a57.32,57.32,0,0,1-5.9,2,16.57,16.57,0,0,1-4,.76,10.88,10.88,0,0,1-4-.8,13.55,13.55,0,0,1-3.71-2.19A10.75,10.75,0,0,1,408.56,65,8.71,8.71,0,0,1,407.56,60.9Z"/><path class="cls-1" d="M449.15,65.18a32.33,32.33,0,0,1,3.14-9.75,35.81,35.81,0,0,1,5.33-7.76,30.62,30.62,0,0,1,6.56-5.47A20.76,20.76,0,0,1,471,39.44a12.17,12.17,0,0,1,6.18.34,8.4,8.4,0,0,1,4.57,3.71,9.38,9.38,0,0,1-1,4.14q-1,1.95-2.14,3.85a35,35,0,0,0-2.14,4,10.31,10.31,0,0,0-1,4.43,6.45,6.45,0,0,0,1,3.9c.7.95,2,1.42,3.81,1.42a14.16,14.16,0,0,0,4.28-.66,14.12,14.12,0,0,1,4.28-.67l1.19,0,1.19.05a11.54,11.54,0,0,1-2.85,2.66,18.35,18.35,0,0,1-3.72,1.9,23.7,23.7,0,0,1-4,1.15,21.51,21.51,0,0,1-3.85.38,6,6,0,0,1-3.05-.76,7.52,7.52,0,0,1-2.24-2,9.5,9.5,0,0,1-1.42-2.72,9.27,9.27,0,0,1-.53-3q-1.43,1.62-3,3.33A26.9,26.9,0,0,1,463.28,68a19.07,19.07,0,0,1-3.9,2.33,10.67,10.67,0,0,1-4.33.9,5.56,5.56,0,0,1-4.19-1.8A6,6,0,0,1,449.15,65.18Zm6.09-3c0,.51,0,1.08.05,1.72s.43,1,1.19,1.23a17.84,17.84,0,0,0,5.33-2.47,33.71,33.71,0,0,0,5.51-4.47,29,29,0,0,0,4.33-5.47,10.88,10.88,0,0,0,1.76-5.67c0-.12,0-.33,0-.61a4.6,4.6,0,0,1-.05-.62,16.67,16.67,0,0,0-6.38,1.33,21,21,0,0,0-5.8,3.57A19.34,19.34,0,0,0,456.9,56,12.67,12.67,0,0,0,455.24,62.23Z"/><path class="cls-1" d="M533.36,71.27a7.35,7.35,0,0,1-3.13-.66,6.34,6.34,0,0,1-2.38-1.86A7,7,0,0,1,526.51,66a6.44,6.44,0,0,1,.1-3.28,13.91,13.91,0,0,1,1.09-5.52c.73-1.71,1.53-3.36,2.38-4.95s1.65-3.17,2.38-4.76a11.88,11.88,0,0,0,1.1-5,8.87,8.87,0,0,0-4.33,1.33,28.28,28.28,0,0,0-4.71,3.43A46.92,46.92,0,0,0,519.85,52q-2.28,2.65-4.23,5.33t-3.43,5a40.43,40.43,0,0,0-2.23,4,3.16,3.16,0,0,1-.91.14l-.9,0c-1,.51-1.64.49-1.86,0a4.57,4.57,0,0,1,0-2.47,28.92,28.92,0,0,1,1-3.76c.47-1.4,1-2.72,1.43-4s.84-2.29,1.09-3.14.29-1.29.1-1.29a6.28,6.28,0,0,0,.66-1.24c.25-.57.51-1.15.76-1.76s.48-1.17.67-1.71a4.07,4.07,0,0,0,.28-1.28,1,1,0,0,0-.61-1,3.32,3.32,0,0,0-1.19-.24c-1.14-.63-2.33-.29-3.57,1a34.24,34.24,0,0,0-4,5.66q-2.19,3.66-4.75,8.37a100.42,100.42,0,0,1-5.62,9.09,7.34,7.34,0,0,1-3.28-.57c-.73-.38-1.1-1.33-1.1-2.85a35.16,35.16,0,0,0,2.24-3.86q1.47-2.81,3.33-6.23c1.24-2.29,2.55-4.6,3.95-6.95a60.81,60.81,0,0,1,4-6A12.79,12.79,0,0,1,505.15,39q1.58-.9,2.43.9a18.09,18.09,0,0,1,3.52-1.76,10.87,10.87,0,0,1,3.8-.71,3.23,3.23,0,0,1,2.15.76,5.42,5.42,0,0,1,1.42,1.9,12,12,0,0,1,.81,2.43,10.49,10.49,0,0,1,.29,2.23c.69-.44,1.82-1.22,3.37-2.33s3.24-2.2,5-3.28,3.6-2,5.37-2.9a10.7,10.7,0,0,1,4.38-1.29,3.42,3.42,0,0,1,2.57,1.1,3.64,3.64,0,0,1,1.05,2.61q-3.33,8.19-5.19,13.09a60.5,60.5,0,0,0-2.47,7.71c-.42,1.87-.43,3.19-.05,4a4,4,0,0,0,2.19,1.8,13.89,13.89,0,0,0,4.81-.85q2.33-.86,4.61-1.86t4.62-1.85a14.07,14.07,0,0,1,4.9-.86,3.44,3.44,0,0,1-2,3.24c-.51.31-1.42.79-2.71,1.42l-4.14,2-4.19,2.09c-1.33.67-2.28,1.13-2.86,1.38a15,15,0,0,1-1.61.72c-.45.16-.86.28-1.24.38a9,9,0,0,1-1.19.19C534.43,71.26,533.94,71.27,533.36,71.27Z"/><path class="cls-1" d="M551.54,65.18a8.58,8.58,0,0,1,.29-2.33,15.42,15.42,0,0,1,1-2.52c.44-.63,1.22-1.81,2.33-3.52s2.32-3.54,3.62-5.47l3.66-5.47c1.15-1.72,1.94-2.92,2.38-3.62s.92-1.17,1.24-1.24a11.74,11.74,0,0,1,1.81-.09c.5,0,1.09,0,1.76.09A1.44,1.44,0,0,1,571,42.25a25.09,25.09,0,0,1-3.42,6l-4.33,5.61a38.92,38.92,0,0,0-3.71,5.71,13.14,13.14,0,0,0-1.57,6.28,10,10,0,0,1,1.18.1l1.72.19,1.71.19a3.83,3.83,0,0,0,1.19,0c.38-.07,1-.19,1.9-.38l2.91-.67c1-.25,2-.51,2.9-.76s1.52-.44,1.9-.57c0,.13,0,.33,0,.62s0,.49,0,.61a3.5,3.5,0,0,1-1.72,3,15.3,15.3,0,0,1-4,1.85,23.34,23.34,0,0,1-4.67,1c-1.58.15-2.79.23-3.61.23a12.13,12.13,0,0,1-2.86-.33,7.71,7.71,0,0,1-2.52-1,5.69,5.69,0,0,1-1.81-1.9A5.41,5.41,0,0,1,551.54,65.18Zm27-54.52q1.16,0,2.19.09a6.69,6.69,0,0,1,1.86.43,2.46,2.46,0,0,1,1.24,1.1,4.32,4.32,0,0,1,.42,2.09v1.24a4.83,4.83,0,0,1-.14,1.23,2.29,2.29,0,0,1-.52,1,1.58,1.58,0,0,1-1.24.43,2.53,2.53,0,0,1-2.09-.95,6.35,6.35,0,0,1-1.14-2.19,10.89,10.89,0,0,1-.48-2.52C578.6,11.75,578.56,11.1,578.56,10.66Z"/><path class="cls-1" d="M573.62,62.71a17.81,17.81,0,0,1,.14-2c.09-.86.2-1.74.33-2.67s.25-1.72.38-2.42a4.26,4.26,0,0,1,.38-1.33L591.7,20.55a13.53,13.53,0,0,1,1.42-2.09c.7-.89,1.48-1.81,2.33-2.76s1.7-1.85,2.53-2.71,1.52-1.54,2.09-2.05a1.56,1.56,0,0,1,.95.67,2.94,2.94,0,0,1,.38,1.05,4.84,4.84,0,0,1,.05,1.14c0,.38-.05.7-.05.95v1.33c0,.57,0,.86-.09.86a46.32,46.32,0,0,1-2.91,5.9c-1.3,2.28-2.75,4.73-4.37,7.33s-3.27,5.31-4.95,8.13-3.24,5.62-4.66,8.38a61.66,61.66,0,0,0-3.48,7.94,21.15,21.15,0,0,0-1.33,7,3.6,3.6,0,0,0,.95,2.66,11.29,11.29,0,0,0,2.14,1.67,14.79,14.79,0,0,1,2.14,1.52,2.56,2.56,0,0,1,1,2,1.38,1.38,0,0,1-.77,1.28,3.55,3.55,0,0,1-1.8.43A10.76,10.76,0,0,1,576.47,69,7.44,7.44,0,0,1,573.62,62.71Z"/><path class="cls-1" d="M598.45,65.18a32.33,32.33,0,0,1,3.14-9.75,35.81,35.81,0,0,1,5.33-7.76,30.43,30.43,0,0,1,6.57-5.47,20.71,20.71,0,0,1,6.85-2.76,12.17,12.17,0,0,1,6.18.34,8.37,8.37,0,0,1,4.57,3.71,9.38,9.38,0,0,1-1,4.14A41.91,41.91,0,0,1,628,51.48a35,35,0,0,0-2.14,4,10.31,10.31,0,0,0-1,4.43,6.45,6.45,0,0,0,1,3.9c.7.95,2,1.42,3.81,1.42a14.11,14.11,0,0,0,4.28-.66,14.17,14.17,0,0,1,4.28-.67l1.19,0,1.19.05a11.54,11.54,0,0,1-2.85,2.66,18.27,18.27,0,0,1-3.71,1.9,23.8,23.8,0,0,1-4,1.15,21.42,21.42,0,0,1-3.85.38,6,6,0,0,1-3-.76,7.36,7.36,0,0,1-2.23-2,9.53,9.53,0,0,1-1.43-2.72,9.25,9.25,0,0,1-.52-3c-1,1.08-2,2.19-3,3.33A26.9,26.9,0,0,1,612.58,68a18.81,18.81,0,0,1-3.9,2.33,10.63,10.63,0,0,1-4.33.9,5.58,5.58,0,0,1-4.19-1.8A6,6,0,0,1,598.45,65.18Zm6.09-3c0,.51,0,1.08.05,1.72s.43,1,1.19,1.23a17.84,17.84,0,0,0,5.33-2.47,34.2,34.2,0,0,0,5.52-4.47A29.81,29.81,0,0,0,621,52.77a11,11,0,0,0,1.76-5.67c0-.12,0-.33-.05-.61s0-.49,0-.62a16.58,16.58,0,0,0-6.37,1.33,20.89,20.89,0,0,0-5.81,3.57A19.31,19.31,0,0,0,606.21,56,12.69,12.69,0,0,0,604.54,62.23Z"/></g></g></svg>